%TF.GenerationSoftware,KiCad,Pcbnew,7.0.9*%
%TF.CreationDate,2023-11-21T14:13:12-08:00*%
%TF.ProjectId,RatGDO-OpenSource-D1Mini-ESP8266-Tubez,52617447-444f-42d4-9f70-656e536f7572,2.5.0*%
%TF.SameCoordinates,Original*%
%TF.FileFunction,Legend,Bot*%
%TF.FilePolarity,Positive*%
%FSLAX46Y46*%
G04 Gerber Fmt 4.6, Leading zero omitted, Abs format (unit mm)*
G04 Created by KiCad (PCBNEW 7.0.9) date 2023-11-21 14:13:12*
%MOMM*%
%LPD*%
G01*
G04 APERTURE LIST*
%ADD10C,0.150000*%
%ADD11C,0.300000*%
%ADD12C,0.100000*%
%ADD13C,0.120000*%
G04 APERTURE END LIST*
D10*
X121313411Y-113217438D02*
X121408649Y-113169819D01*
X121408649Y-113169819D02*
X121551506Y-113169819D01*
X121551506Y-113169819D02*
X121694363Y-113217438D01*
X121694363Y-113217438D02*
X121789601Y-113312676D01*
X121789601Y-113312676D02*
X121837220Y-113407914D01*
X121837220Y-113407914D02*
X121884839Y-113598390D01*
X121884839Y-113598390D02*
X121884839Y-113741247D01*
X121884839Y-113741247D02*
X121837220Y-113931723D01*
X121837220Y-113931723D02*
X121789601Y-114026961D01*
X121789601Y-114026961D02*
X121694363Y-114122200D01*
X121694363Y-114122200D02*
X121551506Y-114169819D01*
X121551506Y-114169819D02*
X121456268Y-114169819D01*
X121456268Y-114169819D02*
X121313411Y-114122200D01*
X121313411Y-114122200D02*
X121265792Y-114074580D01*
X121265792Y-114074580D02*
X121265792Y-113741247D01*
X121265792Y-113741247D02*
X121456268Y-113741247D01*
X120837220Y-114169819D02*
X120837220Y-113169819D01*
X120837220Y-113169819D02*
X120265792Y-114169819D01*
X120265792Y-114169819D02*
X120265792Y-113169819D01*
X119789601Y-114169819D02*
X119789601Y-113169819D01*
X119789601Y-113169819D02*
X119551506Y-113169819D01*
X119551506Y-113169819D02*
X119408649Y-113217438D01*
X119408649Y-113217438D02*
X119313411Y-113312676D01*
X119313411Y-113312676D02*
X119265792Y-113407914D01*
X119265792Y-113407914D02*
X119218173Y-113598390D01*
X119218173Y-113598390D02*
X119218173Y-113741247D01*
X119218173Y-113741247D02*
X119265792Y-113931723D01*
X119265792Y-113931723D02*
X119313411Y-114026961D01*
X119313411Y-114026961D02*
X119408649Y-114122200D01*
X119408649Y-114122200D02*
X119551506Y-114169819D01*
X119551506Y-114169819D02*
X119789601Y-114169819D01*
X158953030Y-87007819D02*
X159429220Y-87007819D01*
X159429220Y-87007819D02*
X159476839Y-87484009D01*
X159476839Y-87484009D02*
X159429220Y-87436390D01*
X159429220Y-87436390D02*
X159333982Y-87388771D01*
X159333982Y-87388771D02*
X159095887Y-87388771D01*
X159095887Y-87388771D02*
X159000649Y-87436390D01*
X159000649Y-87436390D02*
X158953030Y-87484009D01*
X158953030Y-87484009D02*
X158905411Y-87579247D01*
X158905411Y-87579247D02*
X158905411Y-87817342D01*
X158905411Y-87817342D02*
X158953030Y-87912580D01*
X158953030Y-87912580D02*
X159000649Y-87960200D01*
X159000649Y-87960200D02*
X159095887Y-88007819D01*
X159095887Y-88007819D02*
X159333982Y-88007819D01*
X159333982Y-88007819D02*
X159429220Y-87960200D01*
X159429220Y-87960200D02*
X159476839Y-87912580D01*
X158619696Y-87007819D02*
X158286363Y-88007819D01*
X158286363Y-88007819D02*
X157953030Y-87007819D01*
X145935506Y-119519819D02*
X145935506Y-120234104D01*
X145935506Y-120234104D02*
X145983125Y-120376961D01*
X145983125Y-120376961D02*
X146078363Y-120472200D01*
X146078363Y-120472200D02*
X146221220Y-120519819D01*
X146221220Y-120519819D02*
X146316458Y-120519819D01*
X144983125Y-120519819D02*
X145459315Y-120519819D01*
X145459315Y-120519819D02*
X145459315Y-119519819D01*
X144078363Y-120424580D02*
X144125982Y-120472200D01*
X144125982Y-120472200D02*
X144268839Y-120519819D01*
X144268839Y-120519819D02*
X144364077Y-120519819D01*
X144364077Y-120519819D02*
X144506934Y-120472200D01*
X144506934Y-120472200D02*
X144602172Y-120376961D01*
X144602172Y-120376961D02*
X144649791Y-120281723D01*
X144649791Y-120281723D02*
X144697410Y-120091247D01*
X144697410Y-120091247D02*
X144697410Y-119948390D01*
X144697410Y-119948390D02*
X144649791Y-119757914D01*
X144649791Y-119757914D02*
X144602172Y-119662676D01*
X144602172Y-119662676D02*
X144506934Y-119567438D01*
X144506934Y-119567438D02*
X144364077Y-119519819D01*
X144364077Y-119519819D02*
X144268839Y-119519819D01*
X144268839Y-119519819D02*
X144125982Y-119567438D01*
X144125982Y-119567438D02*
X144078363Y-119615057D01*
X143364077Y-119519819D02*
X143364077Y-120234104D01*
X143364077Y-120234104D02*
X143411696Y-120376961D01*
X143411696Y-120376961D02*
X143506934Y-120472200D01*
X143506934Y-120472200D02*
X143649791Y-120519819D01*
X143649791Y-120519819D02*
X143745029Y-120519819D01*
X142411696Y-120519819D02*
X142887886Y-120519819D01*
X142887886Y-120519819D02*
X142887886Y-119519819D01*
X141506934Y-120424580D02*
X141554553Y-120472200D01*
X141554553Y-120472200D02*
X141697410Y-120519819D01*
X141697410Y-120519819D02*
X141792648Y-120519819D01*
X141792648Y-120519819D02*
X141935505Y-120472200D01*
X141935505Y-120472200D02*
X142030743Y-120376961D01*
X142030743Y-120376961D02*
X142078362Y-120281723D01*
X142078362Y-120281723D02*
X142125981Y-120091247D01*
X142125981Y-120091247D02*
X142125981Y-119948390D01*
X142125981Y-119948390D02*
X142078362Y-119757914D01*
X142078362Y-119757914D02*
X142030743Y-119662676D01*
X142030743Y-119662676D02*
X141935505Y-119567438D01*
X141935505Y-119567438D02*
X141792648Y-119519819D01*
X141792648Y-119519819D02*
X141697410Y-119519819D01*
X141697410Y-119519819D02*
X141554553Y-119567438D01*
X141554553Y-119567438D02*
X141506934Y-119615057D01*
X140792648Y-119519819D02*
X140792648Y-120234104D01*
X140792648Y-120234104D02*
X140840267Y-120376961D01*
X140840267Y-120376961D02*
X140935505Y-120472200D01*
X140935505Y-120472200D02*
X141078362Y-120519819D01*
X141078362Y-120519819D02*
X141173600Y-120519819D01*
X139840267Y-120519819D02*
X140316457Y-120519819D01*
X140316457Y-120519819D02*
X140316457Y-119519819D01*
X138935505Y-120424580D02*
X138983124Y-120472200D01*
X138983124Y-120472200D02*
X139125981Y-120519819D01*
X139125981Y-120519819D02*
X139221219Y-120519819D01*
X139221219Y-120519819D02*
X139364076Y-120472200D01*
X139364076Y-120472200D02*
X139459314Y-120376961D01*
X139459314Y-120376961D02*
X139506933Y-120281723D01*
X139506933Y-120281723D02*
X139554552Y-120091247D01*
X139554552Y-120091247D02*
X139554552Y-119948390D01*
X139554552Y-119948390D02*
X139506933Y-119757914D01*
X139506933Y-119757914D02*
X139459314Y-119662676D01*
X139459314Y-119662676D02*
X139364076Y-119567438D01*
X139364076Y-119567438D02*
X139221219Y-119519819D01*
X139221219Y-119519819D02*
X139125981Y-119519819D01*
X139125981Y-119519819D02*
X138983124Y-119567438D01*
X138983124Y-119567438D02*
X138935505Y-119615057D01*
X138221219Y-119519819D02*
X138221219Y-120234104D01*
X138221219Y-120234104D02*
X138268838Y-120376961D01*
X138268838Y-120376961D02*
X138364076Y-120472200D01*
X138364076Y-120472200D02*
X138506933Y-120519819D01*
X138506933Y-120519819D02*
X138602171Y-120519819D01*
X137268838Y-120519819D02*
X137745028Y-120519819D01*
X137745028Y-120519819D02*
X137745028Y-119519819D01*
X136364076Y-120424580D02*
X136411695Y-120472200D01*
X136411695Y-120472200D02*
X136554552Y-120519819D01*
X136554552Y-120519819D02*
X136649790Y-120519819D01*
X136649790Y-120519819D02*
X136792647Y-120472200D01*
X136792647Y-120472200D02*
X136887885Y-120376961D01*
X136887885Y-120376961D02*
X136935504Y-120281723D01*
X136935504Y-120281723D02*
X136983123Y-120091247D01*
X136983123Y-120091247D02*
X136983123Y-119948390D01*
X136983123Y-119948390D02*
X136935504Y-119757914D01*
X136935504Y-119757914D02*
X136887885Y-119662676D01*
X136887885Y-119662676D02*
X136792647Y-119567438D01*
X136792647Y-119567438D02*
X136649790Y-119519819D01*
X136649790Y-119519819D02*
X136554552Y-119519819D01*
X136554552Y-119519819D02*
X136411695Y-119567438D01*
X136411695Y-119567438D02*
X136364076Y-119615057D01*
X159524458Y-110121819D02*
X159286363Y-111121819D01*
X159286363Y-111121819D02*
X159095887Y-110407533D01*
X159095887Y-110407533D02*
X158905411Y-111121819D01*
X158905411Y-111121819D02*
X158667316Y-110121819D01*
X158286363Y-111121819D02*
X158286363Y-110121819D01*
X158286363Y-110598009D02*
X157714935Y-110598009D01*
X157714935Y-111121819D02*
X157714935Y-110121819D01*
X157381601Y-110121819D02*
X156810173Y-110121819D01*
X157095887Y-111121819D02*
X157095887Y-110121819D01*
X155762554Y-110074200D02*
X156619696Y-111359914D01*
X154905411Y-110169438D02*
X155000649Y-110121819D01*
X155000649Y-110121819D02*
X155143506Y-110121819D01*
X155143506Y-110121819D02*
X155286363Y-110169438D01*
X155286363Y-110169438D02*
X155381601Y-110264676D01*
X155381601Y-110264676D02*
X155429220Y-110359914D01*
X155429220Y-110359914D02*
X155476839Y-110550390D01*
X155476839Y-110550390D02*
X155476839Y-110693247D01*
X155476839Y-110693247D02*
X155429220Y-110883723D01*
X155429220Y-110883723D02*
X155381601Y-110978961D01*
X155381601Y-110978961D02*
X155286363Y-111074200D01*
X155286363Y-111074200D02*
X155143506Y-111121819D01*
X155143506Y-111121819D02*
X155048268Y-111121819D01*
X155048268Y-111121819D02*
X154905411Y-111074200D01*
X154905411Y-111074200D02*
X154857792Y-111026580D01*
X154857792Y-111026580D02*
X154857792Y-110693247D01*
X154857792Y-110693247D02*
X155048268Y-110693247D01*
X154429220Y-111121819D02*
X154429220Y-110121819D01*
X154429220Y-110121819D02*
X153857792Y-111121819D01*
X153857792Y-111121819D02*
X153857792Y-110121819D01*
X153381601Y-111121819D02*
X153381601Y-110121819D01*
X153381601Y-110121819D02*
X153143506Y-110121819D01*
X153143506Y-110121819D02*
X153000649Y-110169438D01*
X153000649Y-110169438D02*
X152905411Y-110264676D01*
X152905411Y-110264676D02*
X152857792Y-110359914D01*
X152857792Y-110359914D02*
X152810173Y-110550390D01*
X152810173Y-110550390D02*
X152810173Y-110693247D01*
X152810173Y-110693247D02*
X152857792Y-110883723D01*
X152857792Y-110883723D02*
X152905411Y-110978961D01*
X152905411Y-110978961D02*
X153000649Y-111074200D01*
X153000649Y-111074200D02*
X153143506Y-111121819D01*
X153143506Y-111121819D02*
X153381601Y-111121819D01*
X121932458Y-96065819D02*
X121694363Y-97065819D01*
X121694363Y-97065819D02*
X121503887Y-96351533D01*
X121503887Y-96351533D02*
X121313411Y-97065819D01*
X121313411Y-97065819D02*
X121075316Y-96065819D01*
X120694363Y-97065819D02*
X120694363Y-96065819D01*
X120694363Y-96542009D02*
X120122935Y-96542009D01*
X120122935Y-97065819D02*
X120122935Y-96065819D01*
X119789601Y-96065819D02*
X119218173Y-96065819D01*
X119503887Y-97065819D02*
X119503887Y-96065819D01*
X121313411Y-97723438D02*
X121408649Y-97675819D01*
X121408649Y-97675819D02*
X121551506Y-97675819D01*
X121551506Y-97675819D02*
X121694363Y-97723438D01*
X121694363Y-97723438D02*
X121789601Y-97818676D01*
X121789601Y-97818676D02*
X121837220Y-97913914D01*
X121837220Y-97913914D02*
X121884839Y-98104390D01*
X121884839Y-98104390D02*
X121884839Y-98247247D01*
X121884839Y-98247247D02*
X121837220Y-98437723D01*
X121837220Y-98437723D02*
X121789601Y-98532961D01*
X121789601Y-98532961D02*
X121694363Y-98628200D01*
X121694363Y-98628200D02*
X121551506Y-98675819D01*
X121551506Y-98675819D02*
X121456268Y-98675819D01*
X121456268Y-98675819D02*
X121313411Y-98628200D01*
X121313411Y-98628200D02*
X121265792Y-98580580D01*
X121265792Y-98580580D02*
X121265792Y-98247247D01*
X121265792Y-98247247D02*
X121456268Y-98247247D01*
X120837220Y-98675819D02*
X120837220Y-97675819D01*
X120837220Y-97675819D02*
X120265792Y-98675819D01*
X120265792Y-98675819D02*
X120265792Y-97675819D01*
X119789601Y-98675819D02*
X119789601Y-97675819D01*
X119789601Y-97675819D02*
X119551506Y-97675819D01*
X119551506Y-97675819D02*
X119408649Y-97723438D01*
X119408649Y-97723438D02*
X119313411Y-97818676D01*
X119313411Y-97818676D02*
X119265792Y-97913914D01*
X119265792Y-97913914D02*
X119218173Y-98104390D01*
X119218173Y-98104390D02*
X119218173Y-98247247D01*
X119218173Y-98247247D02*
X119265792Y-98437723D01*
X119265792Y-98437723D02*
X119313411Y-98532961D01*
X119313411Y-98532961D02*
X119408649Y-98628200D01*
X119408649Y-98628200D02*
X119551506Y-98675819D01*
X119551506Y-98675819D02*
X119789601Y-98675819D01*
D11*
X146416346Y-101396828D02*
X146916346Y-100682542D01*
X147273489Y-101396828D02*
X147273489Y-99896828D01*
X147273489Y-99896828D02*
X146702060Y-99896828D01*
X146702060Y-99896828D02*
X146559203Y-99968257D01*
X146559203Y-99968257D02*
X146487774Y-100039685D01*
X146487774Y-100039685D02*
X146416346Y-100182542D01*
X146416346Y-100182542D02*
X146416346Y-100396828D01*
X146416346Y-100396828D02*
X146487774Y-100539685D01*
X146487774Y-100539685D02*
X146559203Y-100611114D01*
X146559203Y-100611114D02*
X146702060Y-100682542D01*
X146702060Y-100682542D02*
X147273489Y-100682542D01*
X145844917Y-100968257D02*
X145130632Y-100968257D01*
X145987774Y-101396828D02*
X145487774Y-99896828D01*
X145487774Y-99896828D02*
X144987774Y-101396828D01*
X144702060Y-99896828D02*
X143844918Y-99896828D01*
X144273489Y-101396828D02*
X144273489Y-99896828D01*
X143344918Y-100825400D02*
X142202061Y-100825400D01*
X140630632Y-101396828D02*
X141130632Y-100682542D01*
X141487775Y-101396828D02*
X141487775Y-99896828D01*
X141487775Y-99896828D02*
X140916346Y-99896828D01*
X140916346Y-99896828D02*
X140773489Y-99968257D01*
X140773489Y-99968257D02*
X140702060Y-100039685D01*
X140702060Y-100039685D02*
X140630632Y-100182542D01*
X140630632Y-100182542D02*
X140630632Y-100396828D01*
X140630632Y-100396828D02*
X140702060Y-100539685D01*
X140702060Y-100539685D02*
X140773489Y-100611114D01*
X140773489Y-100611114D02*
X140916346Y-100682542D01*
X140916346Y-100682542D02*
X141487775Y-100682542D01*
X140059203Y-100968257D02*
X139344918Y-100968257D01*
X140202060Y-101396828D02*
X139702060Y-99896828D01*
X139702060Y-99896828D02*
X139202060Y-101396828D01*
X138916346Y-99896828D02*
X138059204Y-99896828D01*
X138487775Y-101396828D02*
X138487775Y-99896828D01*
X136773489Y-99968257D02*
X136916347Y-99896828D01*
X136916347Y-99896828D02*
X137130632Y-99896828D01*
X137130632Y-99896828D02*
X137344918Y-99968257D01*
X137344918Y-99968257D02*
X137487775Y-100111114D01*
X137487775Y-100111114D02*
X137559204Y-100253971D01*
X137559204Y-100253971D02*
X137630632Y-100539685D01*
X137630632Y-100539685D02*
X137630632Y-100753971D01*
X137630632Y-100753971D02*
X137559204Y-101039685D01*
X137559204Y-101039685D02*
X137487775Y-101182542D01*
X137487775Y-101182542D02*
X137344918Y-101325400D01*
X137344918Y-101325400D02*
X137130632Y-101396828D01*
X137130632Y-101396828D02*
X136987775Y-101396828D01*
X136987775Y-101396828D02*
X136773489Y-101325400D01*
X136773489Y-101325400D02*
X136702061Y-101253971D01*
X136702061Y-101253971D02*
X136702061Y-100753971D01*
X136702061Y-100753971D02*
X136987775Y-100753971D01*
X136059204Y-101396828D02*
X136059204Y-99896828D01*
X136059204Y-99896828D02*
X135702061Y-99896828D01*
X135702061Y-99896828D02*
X135487775Y-99968257D01*
X135487775Y-99968257D02*
X135344918Y-100111114D01*
X135344918Y-100111114D02*
X135273489Y-100253971D01*
X135273489Y-100253971D02*
X135202061Y-100539685D01*
X135202061Y-100539685D02*
X135202061Y-100753971D01*
X135202061Y-100753971D02*
X135273489Y-101039685D01*
X135273489Y-101039685D02*
X135344918Y-101182542D01*
X135344918Y-101182542D02*
X135487775Y-101325400D01*
X135487775Y-101325400D02*
X135702061Y-101396828D01*
X135702061Y-101396828D02*
X136059204Y-101396828D01*
X134273489Y-99896828D02*
X133987775Y-99896828D01*
X133987775Y-99896828D02*
X133844918Y-99968257D01*
X133844918Y-99968257D02*
X133702061Y-100111114D01*
X133702061Y-100111114D02*
X133630632Y-100396828D01*
X133630632Y-100396828D02*
X133630632Y-100896828D01*
X133630632Y-100896828D02*
X133702061Y-101182542D01*
X133702061Y-101182542D02*
X133844918Y-101325400D01*
X133844918Y-101325400D02*
X133987775Y-101396828D01*
X133987775Y-101396828D02*
X134273489Y-101396828D01*
X134273489Y-101396828D02*
X134416347Y-101325400D01*
X134416347Y-101325400D02*
X134559204Y-101182542D01*
X134559204Y-101182542D02*
X134630632Y-100896828D01*
X134630632Y-100896828D02*
X134630632Y-100396828D01*
X134630632Y-100396828D02*
X134559204Y-100111114D01*
X134559204Y-100111114D02*
X134416347Y-99968257D01*
X134416347Y-99968257D02*
X134273489Y-99896828D01*
X147487774Y-102311828D02*
X146630632Y-102311828D01*
X147059203Y-103811828D02*
X147059203Y-102311828D01*
X146130632Y-102311828D02*
X146130632Y-103526114D01*
X146130632Y-103526114D02*
X146059203Y-103668971D01*
X146059203Y-103668971D02*
X145987775Y-103740400D01*
X145987775Y-103740400D02*
X145844917Y-103811828D01*
X145844917Y-103811828D02*
X145559203Y-103811828D01*
X145559203Y-103811828D02*
X145416346Y-103740400D01*
X145416346Y-103740400D02*
X145344917Y-103668971D01*
X145344917Y-103668971D02*
X145273489Y-103526114D01*
X145273489Y-103526114D02*
X145273489Y-102311828D01*
X144059203Y-103026114D02*
X143844917Y-103097542D01*
X143844917Y-103097542D02*
X143773488Y-103168971D01*
X143773488Y-103168971D02*
X143702060Y-103311828D01*
X143702060Y-103311828D02*
X143702060Y-103526114D01*
X143702060Y-103526114D02*
X143773488Y-103668971D01*
X143773488Y-103668971D02*
X143844917Y-103740400D01*
X143844917Y-103740400D02*
X143987774Y-103811828D01*
X143987774Y-103811828D02*
X144559203Y-103811828D01*
X144559203Y-103811828D02*
X144559203Y-102311828D01*
X144559203Y-102311828D02*
X144059203Y-102311828D01*
X144059203Y-102311828D02*
X143916346Y-102383257D01*
X143916346Y-102383257D02*
X143844917Y-102454685D01*
X143844917Y-102454685D02*
X143773488Y-102597542D01*
X143773488Y-102597542D02*
X143773488Y-102740400D01*
X143773488Y-102740400D02*
X143844917Y-102883257D01*
X143844917Y-102883257D02*
X143916346Y-102954685D01*
X143916346Y-102954685D02*
X144059203Y-103026114D01*
X144059203Y-103026114D02*
X144559203Y-103026114D01*
X143059203Y-103026114D02*
X142559203Y-103026114D01*
X142344917Y-103811828D02*
X143059203Y-103811828D01*
X143059203Y-103811828D02*
X143059203Y-102311828D01*
X143059203Y-102311828D02*
X142344917Y-102311828D01*
X141844917Y-102311828D02*
X140844917Y-102311828D01*
X140844917Y-102311828D02*
X141844917Y-103811828D01*
X141844917Y-103811828D02*
X140844917Y-103811828D01*
X139202060Y-102454685D02*
X139130632Y-102383257D01*
X139130632Y-102383257D02*
X138987775Y-102311828D01*
X138987775Y-102311828D02*
X138630632Y-102311828D01*
X138630632Y-102311828D02*
X138487775Y-102383257D01*
X138487775Y-102383257D02*
X138416346Y-102454685D01*
X138416346Y-102454685D02*
X138344917Y-102597542D01*
X138344917Y-102597542D02*
X138344917Y-102740400D01*
X138344917Y-102740400D02*
X138416346Y-102954685D01*
X138416346Y-102954685D02*
X139273489Y-103811828D01*
X139273489Y-103811828D02*
X138344917Y-103811828D01*
X137702061Y-103668971D02*
X137630632Y-103740400D01*
X137630632Y-103740400D02*
X137702061Y-103811828D01*
X137702061Y-103811828D02*
X137773489Y-103740400D01*
X137773489Y-103740400D02*
X137702061Y-103668971D01*
X137702061Y-103668971D02*
X137702061Y-103811828D01*
X136273489Y-102311828D02*
X136987775Y-102311828D01*
X136987775Y-102311828D02*
X137059203Y-103026114D01*
X137059203Y-103026114D02*
X136987775Y-102954685D01*
X136987775Y-102954685D02*
X136844918Y-102883257D01*
X136844918Y-102883257D02*
X136487775Y-102883257D01*
X136487775Y-102883257D02*
X136344918Y-102954685D01*
X136344918Y-102954685D02*
X136273489Y-103026114D01*
X136273489Y-103026114D02*
X136202060Y-103168971D01*
X136202060Y-103168971D02*
X136202060Y-103526114D01*
X136202060Y-103526114D02*
X136273489Y-103668971D01*
X136273489Y-103668971D02*
X136344918Y-103740400D01*
X136344918Y-103740400D02*
X136487775Y-103811828D01*
X136487775Y-103811828D02*
X136844918Y-103811828D01*
X136844918Y-103811828D02*
X136987775Y-103740400D01*
X136987775Y-103740400D02*
X137059203Y-103668971D01*
X135559204Y-103668971D02*
X135487775Y-103740400D01*
X135487775Y-103740400D02*
X135559204Y-103811828D01*
X135559204Y-103811828D02*
X135630632Y-103740400D01*
X135630632Y-103740400D02*
X135559204Y-103668971D01*
X135559204Y-103668971D02*
X135559204Y-103811828D01*
X134559203Y-102311828D02*
X134416346Y-102311828D01*
X134416346Y-102311828D02*
X134273489Y-102383257D01*
X134273489Y-102383257D02*
X134202061Y-102454685D01*
X134202061Y-102454685D02*
X134130632Y-102597542D01*
X134130632Y-102597542D02*
X134059203Y-102883257D01*
X134059203Y-102883257D02*
X134059203Y-103240400D01*
X134059203Y-103240400D02*
X134130632Y-103526114D01*
X134130632Y-103526114D02*
X134202061Y-103668971D01*
X134202061Y-103668971D02*
X134273489Y-103740400D01*
X134273489Y-103740400D02*
X134416346Y-103811828D01*
X134416346Y-103811828D02*
X134559203Y-103811828D01*
X134559203Y-103811828D02*
X134702061Y-103740400D01*
X134702061Y-103740400D02*
X134773489Y-103668971D01*
X134773489Y-103668971D02*
X134844918Y-103526114D01*
X134844918Y-103526114D02*
X134916346Y-103240400D01*
X134916346Y-103240400D02*
X134916346Y-102883257D01*
X134916346Y-102883257D02*
X134844918Y-102597542D01*
X134844918Y-102597542D02*
X134773489Y-102454685D01*
X134773489Y-102454685D02*
X134702061Y-102383257D01*
X134702061Y-102383257D02*
X134559203Y-102311828D01*
X147487774Y-104726828D02*
X146630632Y-104726828D01*
X147059203Y-106226828D02*
X147059203Y-104726828D01*
X144487775Y-105441114D02*
X144987775Y-105441114D01*
X144987775Y-106226828D02*
X144987775Y-104726828D01*
X144987775Y-104726828D02*
X144273489Y-104726828D01*
X143416346Y-104726828D02*
X143130632Y-104726828D01*
X143130632Y-104726828D02*
X142987775Y-104798257D01*
X142987775Y-104798257D02*
X142844918Y-104941114D01*
X142844918Y-104941114D02*
X142773489Y-105226828D01*
X142773489Y-105226828D02*
X142773489Y-105726828D01*
X142773489Y-105726828D02*
X142844918Y-106012542D01*
X142844918Y-106012542D02*
X142987775Y-106155400D01*
X142987775Y-106155400D02*
X143130632Y-106226828D01*
X143130632Y-106226828D02*
X143416346Y-106226828D01*
X143416346Y-106226828D02*
X143559204Y-106155400D01*
X143559204Y-106155400D02*
X143702061Y-106012542D01*
X143702061Y-106012542D02*
X143773489Y-105726828D01*
X143773489Y-105726828D02*
X143773489Y-105226828D01*
X143773489Y-105226828D02*
X143702061Y-104941114D01*
X143702061Y-104941114D02*
X143559204Y-104798257D01*
X143559204Y-104798257D02*
X143416346Y-104726828D01*
X142273489Y-104726828D02*
X141273489Y-106226828D01*
X141273489Y-104726828D02*
X142273489Y-106226828D01*
X139630632Y-104869685D02*
X139559204Y-104798257D01*
X139559204Y-104798257D02*
X139416347Y-104726828D01*
X139416347Y-104726828D02*
X139059204Y-104726828D01*
X139059204Y-104726828D02*
X138916347Y-104798257D01*
X138916347Y-104798257D02*
X138844918Y-104869685D01*
X138844918Y-104869685D02*
X138773489Y-105012542D01*
X138773489Y-105012542D02*
X138773489Y-105155400D01*
X138773489Y-105155400D02*
X138844918Y-105369685D01*
X138844918Y-105369685D02*
X139702061Y-106226828D01*
X139702061Y-106226828D02*
X138773489Y-106226828D01*
X137844918Y-104726828D02*
X137702061Y-104726828D01*
X137702061Y-104726828D02*
X137559204Y-104798257D01*
X137559204Y-104798257D02*
X137487776Y-104869685D01*
X137487776Y-104869685D02*
X137416347Y-105012542D01*
X137416347Y-105012542D02*
X137344918Y-105298257D01*
X137344918Y-105298257D02*
X137344918Y-105655400D01*
X137344918Y-105655400D02*
X137416347Y-105941114D01*
X137416347Y-105941114D02*
X137487776Y-106083971D01*
X137487776Y-106083971D02*
X137559204Y-106155400D01*
X137559204Y-106155400D02*
X137702061Y-106226828D01*
X137702061Y-106226828D02*
X137844918Y-106226828D01*
X137844918Y-106226828D02*
X137987776Y-106155400D01*
X137987776Y-106155400D02*
X138059204Y-106083971D01*
X138059204Y-106083971D02*
X138130633Y-105941114D01*
X138130633Y-105941114D02*
X138202061Y-105655400D01*
X138202061Y-105655400D02*
X138202061Y-105298257D01*
X138202061Y-105298257D02*
X138130633Y-105012542D01*
X138130633Y-105012542D02*
X138059204Y-104869685D01*
X138059204Y-104869685D02*
X137987776Y-104798257D01*
X137987776Y-104798257D02*
X137844918Y-104726828D01*
X136773490Y-104869685D02*
X136702062Y-104798257D01*
X136702062Y-104798257D02*
X136559205Y-104726828D01*
X136559205Y-104726828D02*
X136202062Y-104726828D01*
X136202062Y-104726828D02*
X136059205Y-104798257D01*
X136059205Y-104798257D02*
X135987776Y-104869685D01*
X135987776Y-104869685D02*
X135916347Y-105012542D01*
X135916347Y-105012542D02*
X135916347Y-105155400D01*
X135916347Y-105155400D02*
X135987776Y-105369685D01*
X135987776Y-105369685D02*
X136844919Y-106226828D01*
X136844919Y-106226828D02*
X135916347Y-106226828D01*
X135416348Y-104726828D02*
X134487776Y-104726828D01*
X134487776Y-104726828D02*
X134987776Y-105298257D01*
X134987776Y-105298257D02*
X134773491Y-105298257D01*
X134773491Y-105298257D02*
X134630634Y-105369685D01*
X134630634Y-105369685D02*
X134559205Y-105441114D01*
X134559205Y-105441114D02*
X134487776Y-105583971D01*
X134487776Y-105583971D02*
X134487776Y-105941114D01*
X134487776Y-105941114D02*
X134559205Y-106083971D01*
X134559205Y-106083971D02*
X134630634Y-106155400D01*
X134630634Y-106155400D02*
X134773491Y-106226828D01*
X134773491Y-106226828D02*
X135202062Y-106226828D01*
X135202062Y-106226828D02*
X135344919Y-106155400D01*
X135344919Y-106155400D02*
X135416348Y-106083971D01*
D10*
X150285220Y-76831819D02*
X150285220Y-75831819D01*
X150285220Y-75831819D02*
X150047125Y-75831819D01*
X150047125Y-75831819D02*
X149904268Y-75879438D01*
X149904268Y-75879438D02*
X149809030Y-75974676D01*
X149809030Y-75974676D02*
X149761411Y-76069914D01*
X149761411Y-76069914D02*
X149713792Y-76260390D01*
X149713792Y-76260390D02*
X149713792Y-76403247D01*
X149713792Y-76403247D02*
X149761411Y-76593723D01*
X149761411Y-76593723D02*
X149809030Y-76688961D01*
X149809030Y-76688961D02*
X149904268Y-76784200D01*
X149904268Y-76784200D02*
X150047125Y-76831819D01*
X150047125Y-76831819D02*
X150285220Y-76831819D01*
X149380458Y-75831819D02*
X148761411Y-75831819D01*
X148761411Y-75831819D02*
X149094744Y-76212771D01*
X149094744Y-76212771D02*
X148951887Y-76212771D01*
X148951887Y-76212771D02*
X148856649Y-76260390D01*
X148856649Y-76260390D02*
X148809030Y-76308009D01*
X148809030Y-76308009D02*
X148761411Y-76403247D01*
X148761411Y-76403247D02*
X148761411Y-76641342D01*
X148761411Y-76641342D02*
X148809030Y-76736580D01*
X148809030Y-76736580D02*
X148856649Y-76784200D01*
X148856649Y-76784200D02*
X148951887Y-76831819D01*
X148951887Y-76831819D02*
X149237601Y-76831819D01*
X149237601Y-76831819D02*
X149332839Y-76784200D01*
X149332839Y-76784200D02*
X149380458Y-76736580D01*
X159238744Y-97421819D02*
X159048268Y-97421819D01*
X159048268Y-97421819D02*
X158953030Y-97469438D01*
X158953030Y-97469438D02*
X158857792Y-97564676D01*
X158857792Y-97564676D02*
X158810173Y-97755152D01*
X158810173Y-97755152D02*
X158810173Y-98088485D01*
X158810173Y-98088485D02*
X158857792Y-98278961D01*
X158857792Y-98278961D02*
X158953030Y-98374200D01*
X158953030Y-98374200D02*
X159048268Y-98421819D01*
X159048268Y-98421819D02*
X159238744Y-98421819D01*
X159238744Y-98421819D02*
X159333982Y-98374200D01*
X159333982Y-98374200D02*
X159429220Y-98278961D01*
X159429220Y-98278961D02*
X159476839Y-98088485D01*
X159476839Y-98088485D02*
X159476839Y-97755152D01*
X159476839Y-97755152D02*
X159429220Y-97564676D01*
X159429220Y-97564676D02*
X159333982Y-97469438D01*
X159333982Y-97469438D02*
X159238744Y-97421819D01*
X158381601Y-98421819D02*
X158381601Y-97421819D01*
X158381601Y-97421819D02*
X158000649Y-97421819D01*
X158000649Y-97421819D02*
X157905411Y-97469438D01*
X157905411Y-97469438D02*
X157857792Y-97517057D01*
X157857792Y-97517057D02*
X157810173Y-97612295D01*
X157810173Y-97612295D02*
X157810173Y-97755152D01*
X157810173Y-97755152D02*
X157857792Y-97850390D01*
X157857792Y-97850390D02*
X157905411Y-97898009D01*
X157905411Y-97898009D02*
X158000649Y-97945628D01*
X158000649Y-97945628D02*
X158381601Y-97945628D01*
X157381601Y-97898009D02*
X157048268Y-97898009D01*
X156905411Y-98421819D02*
X157381601Y-98421819D01*
X157381601Y-98421819D02*
X157381601Y-97421819D01*
X157381601Y-97421819D02*
X156905411Y-97421819D01*
X156476839Y-98421819D02*
X156476839Y-97421819D01*
X156476839Y-97421819D02*
X155905411Y-98421819D01*
X155905411Y-98421819D02*
X155905411Y-97421819D01*
X126877700Y-66395116D02*
X127211033Y-65918925D01*
X127449128Y-66395116D02*
X127449128Y-65395116D01*
X127449128Y-65395116D02*
X127068176Y-65395116D01*
X127068176Y-65395116D02*
X126972938Y-65442735D01*
X126972938Y-65442735D02*
X126925319Y-65490354D01*
X126925319Y-65490354D02*
X126877700Y-65585592D01*
X126877700Y-65585592D02*
X126877700Y-65728449D01*
X126877700Y-65728449D02*
X126925319Y-65823687D01*
X126925319Y-65823687D02*
X126972938Y-65871306D01*
X126972938Y-65871306D02*
X127068176Y-65918925D01*
X127068176Y-65918925D02*
X127449128Y-65918925D01*
X126496747Y-66347497D02*
X126353890Y-66395116D01*
X126353890Y-66395116D02*
X126115795Y-66395116D01*
X126115795Y-66395116D02*
X126020557Y-66347497D01*
X126020557Y-66347497D02*
X125972938Y-66299877D01*
X125972938Y-66299877D02*
X125925319Y-66204639D01*
X125925319Y-66204639D02*
X125925319Y-66109401D01*
X125925319Y-66109401D02*
X125972938Y-66014163D01*
X125972938Y-66014163D02*
X126020557Y-65966544D01*
X126020557Y-65966544D02*
X126115795Y-65918925D01*
X126115795Y-65918925D02*
X126306271Y-65871306D01*
X126306271Y-65871306D02*
X126401509Y-65823687D01*
X126401509Y-65823687D02*
X126449128Y-65776068D01*
X126449128Y-65776068D02*
X126496747Y-65680830D01*
X126496747Y-65680830D02*
X126496747Y-65585592D01*
X126496747Y-65585592D02*
X126449128Y-65490354D01*
X126449128Y-65490354D02*
X126401509Y-65442735D01*
X126401509Y-65442735D02*
X126306271Y-65395116D01*
X126306271Y-65395116D02*
X126068176Y-65395116D01*
X126068176Y-65395116D02*
X125925319Y-65442735D01*
X125639604Y-65395116D02*
X125068176Y-65395116D01*
X125353890Y-66395116D02*
X125353890Y-65395116D01*
X150285220Y-71751819D02*
X150285220Y-70751819D01*
X150285220Y-70751819D02*
X150047125Y-70751819D01*
X150047125Y-70751819D02*
X149904268Y-70799438D01*
X149904268Y-70799438D02*
X149809030Y-70894676D01*
X149809030Y-70894676D02*
X149761411Y-70989914D01*
X149761411Y-70989914D02*
X149713792Y-71180390D01*
X149713792Y-71180390D02*
X149713792Y-71323247D01*
X149713792Y-71323247D02*
X149761411Y-71513723D01*
X149761411Y-71513723D02*
X149809030Y-71608961D01*
X149809030Y-71608961D02*
X149904268Y-71704200D01*
X149904268Y-71704200D02*
X150047125Y-71751819D01*
X150047125Y-71751819D02*
X150285220Y-71751819D01*
X148761411Y-71751819D02*
X149332839Y-71751819D01*
X149047125Y-71751819D02*
X149047125Y-70751819D01*
X149047125Y-70751819D02*
X149142363Y-70894676D01*
X149142363Y-70894676D02*
X149237601Y-70989914D01*
X149237601Y-70989914D02*
X149332839Y-71037533D01*
X147618554Y-70704200D02*
X148475696Y-71989914D01*
X147332839Y-71704200D02*
X147189982Y-71751819D01*
X147189982Y-71751819D02*
X146951887Y-71751819D01*
X146951887Y-71751819D02*
X146856649Y-71704200D01*
X146856649Y-71704200D02*
X146809030Y-71656580D01*
X146809030Y-71656580D02*
X146761411Y-71561342D01*
X146761411Y-71561342D02*
X146761411Y-71466104D01*
X146761411Y-71466104D02*
X146809030Y-71370866D01*
X146809030Y-71370866D02*
X146856649Y-71323247D01*
X146856649Y-71323247D02*
X146951887Y-71275628D01*
X146951887Y-71275628D02*
X147142363Y-71228009D01*
X147142363Y-71228009D02*
X147237601Y-71180390D01*
X147237601Y-71180390D02*
X147285220Y-71132771D01*
X147285220Y-71132771D02*
X147332839Y-71037533D01*
X147332839Y-71037533D02*
X147332839Y-70942295D01*
X147332839Y-70942295D02*
X147285220Y-70847057D01*
X147285220Y-70847057D02*
X147237601Y-70799438D01*
X147237601Y-70799438D02*
X147142363Y-70751819D01*
X147142363Y-70751819D02*
X146904268Y-70751819D01*
X146904268Y-70751819D02*
X146761411Y-70799438D01*
X145761411Y-71656580D02*
X145809030Y-71704200D01*
X145809030Y-71704200D02*
X145951887Y-71751819D01*
X145951887Y-71751819D02*
X146047125Y-71751819D01*
X146047125Y-71751819D02*
X146189982Y-71704200D01*
X146189982Y-71704200D02*
X146285220Y-71608961D01*
X146285220Y-71608961D02*
X146332839Y-71513723D01*
X146332839Y-71513723D02*
X146380458Y-71323247D01*
X146380458Y-71323247D02*
X146380458Y-71180390D01*
X146380458Y-71180390D02*
X146332839Y-70989914D01*
X146332839Y-70989914D02*
X146285220Y-70894676D01*
X146285220Y-70894676D02*
X146189982Y-70799438D01*
X146189982Y-70799438D02*
X146047125Y-70751819D01*
X146047125Y-70751819D02*
X145951887Y-70751819D01*
X145951887Y-70751819D02*
X145809030Y-70799438D01*
X145809030Y-70799438D02*
X145761411Y-70847057D01*
X144856649Y-71751819D02*
X145332839Y-71751819D01*
X145332839Y-71751819D02*
X145332839Y-70751819D01*
X149713792Y-69211819D02*
X150047125Y-68735628D01*
X150285220Y-69211819D02*
X150285220Y-68211819D01*
X150285220Y-68211819D02*
X149904268Y-68211819D01*
X149904268Y-68211819D02*
X149809030Y-68259438D01*
X149809030Y-68259438D02*
X149761411Y-68307057D01*
X149761411Y-68307057D02*
X149713792Y-68402295D01*
X149713792Y-68402295D02*
X149713792Y-68545152D01*
X149713792Y-68545152D02*
X149761411Y-68640390D01*
X149761411Y-68640390D02*
X149809030Y-68688009D01*
X149809030Y-68688009D02*
X149904268Y-68735628D01*
X149904268Y-68735628D02*
X150285220Y-68735628D01*
X149380458Y-68211819D02*
X148713792Y-69211819D01*
X148713792Y-68211819D02*
X149380458Y-69211819D01*
X158953030Y-93087819D02*
X159429220Y-93087819D01*
X159429220Y-93087819D02*
X159429220Y-92087819D01*
X158619696Y-93087819D02*
X158619696Y-92087819D01*
X157619697Y-92135438D02*
X157714935Y-92087819D01*
X157714935Y-92087819D02*
X157857792Y-92087819D01*
X157857792Y-92087819D02*
X158000649Y-92135438D01*
X158000649Y-92135438D02*
X158095887Y-92230676D01*
X158095887Y-92230676D02*
X158143506Y-92325914D01*
X158143506Y-92325914D02*
X158191125Y-92516390D01*
X158191125Y-92516390D02*
X158191125Y-92659247D01*
X158191125Y-92659247D02*
X158143506Y-92849723D01*
X158143506Y-92849723D02*
X158095887Y-92944961D01*
X158095887Y-92944961D02*
X158000649Y-93040200D01*
X158000649Y-93040200D02*
X157857792Y-93087819D01*
X157857792Y-93087819D02*
X157762554Y-93087819D01*
X157762554Y-93087819D02*
X157619697Y-93040200D01*
X157619697Y-93040200D02*
X157572078Y-92992580D01*
X157572078Y-92992580D02*
X157572078Y-92659247D01*
X157572078Y-92659247D02*
X157762554Y-92659247D01*
X157143506Y-93087819D02*
X157143506Y-92087819D01*
X157143506Y-92564009D02*
X156572078Y-92564009D01*
X156572078Y-93087819D02*
X156572078Y-92087819D01*
X156238744Y-92087819D02*
X155667316Y-92087819D01*
X155953030Y-93087819D02*
X155953030Y-92087819D01*
X150285220Y-79371819D02*
X150285220Y-78371819D01*
X150285220Y-78371819D02*
X150047125Y-78371819D01*
X150047125Y-78371819D02*
X149904268Y-78419438D01*
X149904268Y-78419438D02*
X149809030Y-78514676D01*
X149809030Y-78514676D02*
X149761411Y-78609914D01*
X149761411Y-78609914D02*
X149713792Y-78800390D01*
X149713792Y-78800390D02*
X149713792Y-78943247D01*
X149713792Y-78943247D02*
X149761411Y-79133723D01*
X149761411Y-79133723D02*
X149809030Y-79228961D01*
X149809030Y-79228961D02*
X149904268Y-79324200D01*
X149904268Y-79324200D02*
X150047125Y-79371819D01*
X150047125Y-79371819D02*
X150285220Y-79371819D01*
X148856649Y-78705152D02*
X148856649Y-79371819D01*
X149094744Y-78324200D02*
X149332839Y-79038485D01*
X149332839Y-79038485D02*
X148713792Y-79038485D01*
X127449128Y-79095116D02*
X127449128Y-78095116D01*
X127449128Y-78095116D02*
X127211033Y-78095116D01*
X127211033Y-78095116D02*
X127068176Y-78142735D01*
X127068176Y-78142735D02*
X126972938Y-78237973D01*
X126972938Y-78237973D02*
X126925319Y-78333211D01*
X126925319Y-78333211D02*
X126877700Y-78523687D01*
X126877700Y-78523687D02*
X126877700Y-78666544D01*
X126877700Y-78666544D02*
X126925319Y-78857020D01*
X126925319Y-78857020D02*
X126972938Y-78952258D01*
X126972938Y-78952258D02*
X127068176Y-79047497D01*
X127068176Y-79047497D02*
X127211033Y-79095116D01*
X127211033Y-79095116D02*
X127449128Y-79095116D01*
X126544366Y-78095116D02*
X125877700Y-78095116D01*
X125877700Y-78095116D02*
X126306271Y-79095116D01*
X124782462Y-78047497D02*
X125639604Y-79333211D01*
X124449128Y-79095116D02*
X124449128Y-78095116D01*
X124449128Y-78095116D02*
X124115795Y-78809401D01*
X124115795Y-78809401D02*
X123782462Y-78095116D01*
X123782462Y-78095116D02*
X123782462Y-79095116D01*
X123115795Y-78095116D02*
X122925319Y-78095116D01*
X122925319Y-78095116D02*
X122830081Y-78142735D01*
X122830081Y-78142735D02*
X122734843Y-78237973D01*
X122734843Y-78237973D02*
X122687224Y-78428449D01*
X122687224Y-78428449D02*
X122687224Y-78761782D01*
X122687224Y-78761782D02*
X122734843Y-78952258D01*
X122734843Y-78952258D02*
X122830081Y-79047497D01*
X122830081Y-79047497D02*
X122925319Y-79095116D01*
X122925319Y-79095116D02*
X123115795Y-79095116D01*
X123115795Y-79095116D02*
X123211033Y-79047497D01*
X123211033Y-79047497D02*
X123306271Y-78952258D01*
X123306271Y-78952258D02*
X123353890Y-78761782D01*
X123353890Y-78761782D02*
X123353890Y-78428449D01*
X123353890Y-78428449D02*
X123306271Y-78237973D01*
X123306271Y-78237973D02*
X123211033Y-78142735D01*
X123211033Y-78142735D02*
X123115795Y-78095116D01*
X122306271Y-79047497D02*
X122163414Y-79095116D01*
X122163414Y-79095116D02*
X121925319Y-79095116D01*
X121925319Y-79095116D02*
X121830081Y-79047497D01*
X121830081Y-79047497D02*
X121782462Y-78999877D01*
X121782462Y-78999877D02*
X121734843Y-78904639D01*
X121734843Y-78904639D02*
X121734843Y-78809401D01*
X121734843Y-78809401D02*
X121782462Y-78714163D01*
X121782462Y-78714163D02*
X121830081Y-78666544D01*
X121830081Y-78666544D02*
X121925319Y-78618925D01*
X121925319Y-78618925D02*
X122115795Y-78571306D01*
X122115795Y-78571306D02*
X122211033Y-78523687D01*
X122211033Y-78523687D02*
X122258652Y-78476068D01*
X122258652Y-78476068D02*
X122306271Y-78380830D01*
X122306271Y-78380830D02*
X122306271Y-78285592D01*
X122306271Y-78285592D02*
X122258652Y-78190354D01*
X122258652Y-78190354D02*
X122211033Y-78142735D01*
X122211033Y-78142735D02*
X122115795Y-78095116D01*
X122115795Y-78095116D02*
X121877700Y-78095116D01*
X121877700Y-78095116D02*
X121734843Y-78142735D01*
X121306271Y-79095116D02*
X121306271Y-78095116D01*
X149809030Y-83451819D02*
X150285220Y-83451819D01*
X150285220Y-83451819D02*
X150332839Y-83928009D01*
X150332839Y-83928009D02*
X150285220Y-83880390D01*
X150285220Y-83880390D02*
X150189982Y-83832771D01*
X150189982Y-83832771D02*
X149951887Y-83832771D01*
X149951887Y-83832771D02*
X149856649Y-83880390D01*
X149856649Y-83880390D02*
X149809030Y-83928009D01*
X149809030Y-83928009D02*
X149761411Y-84023247D01*
X149761411Y-84023247D02*
X149761411Y-84261342D01*
X149761411Y-84261342D02*
X149809030Y-84356580D01*
X149809030Y-84356580D02*
X149856649Y-84404200D01*
X149856649Y-84404200D02*
X149951887Y-84451819D01*
X149951887Y-84451819D02*
X150189982Y-84451819D01*
X150189982Y-84451819D02*
X150285220Y-84404200D01*
X150285220Y-84404200D02*
X150332839Y-84356580D01*
X149475696Y-83451819D02*
X149142363Y-84451819D01*
X149142363Y-84451819D02*
X148809030Y-83451819D01*
X159429220Y-103247819D02*
X159429220Y-102247819D01*
X159429220Y-102247819D02*
X159191125Y-102247819D01*
X159191125Y-102247819D02*
X159048268Y-102295438D01*
X159048268Y-102295438D02*
X158953030Y-102390676D01*
X158953030Y-102390676D02*
X158905411Y-102485914D01*
X158905411Y-102485914D02*
X158857792Y-102676390D01*
X158857792Y-102676390D02*
X158857792Y-102819247D01*
X158857792Y-102819247D02*
X158905411Y-103009723D01*
X158905411Y-103009723D02*
X158953030Y-103104961D01*
X158953030Y-103104961D02*
X159048268Y-103200200D01*
X159048268Y-103200200D02*
X159191125Y-103247819D01*
X159191125Y-103247819D02*
X159429220Y-103247819D01*
X158238744Y-102247819D02*
X158048268Y-102247819D01*
X158048268Y-102247819D02*
X157953030Y-102295438D01*
X157953030Y-102295438D02*
X157857792Y-102390676D01*
X157857792Y-102390676D02*
X157810173Y-102581152D01*
X157810173Y-102581152D02*
X157810173Y-102914485D01*
X157810173Y-102914485D02*
X157857792Y-103104961D01*
X157857792Y-103104961D02*
X157953030Y-103200200D01*
X157953030Y-103200200D02*
X158048268Y-103247819D01*
X158048268Y-103247819D02*
X158238744Y-103247819D01*
X158238744Y-103247819D02*
X158333982Y-103200200D01*
X158333982Y-103200200D02*
X158429220Y-103104961D01*
X158429220Y-103104961D02*
X158476839Y-102914485D01*
X158476839Y-102914485D02*
X158476839Y-102581152D01*
X158476839Y-102581152D02*
X158429220Y-102390676D01*
X158429220Y-102390676D02*
X158333982Y-102295438D01*
X158333982Y-102295438D02*
X158238744Y-102247819D01*
X157191125Y-102247819D02*
X157000649Y-102247819D01*
X157000649Y-102247819D02*
X156905411Y-102295438D01*
X156905411Y-102295438D02*
X156810173Y-102390676D01*
X156810173Y-102390676D02*
X156762554Y-102581152D01*
X156762554Y-102581152D02*
X156762554Y-102914485D01*
X156762554Y-102914485D02*
X156810173Y-103104961D01*
X156810173Y-103104961D02*
X156905411Y-103200200D01*
X156905411Y-103200200D02*
X157000649Y-103247819D01*
X157000649Y-103247819D02*
X157191125Y-103247819D01*
X157191125Y-103247819D02*
X157286363Y-103200200D01*
X157286363Y-103200200D02*
X157381601Y-103104961D01*
X157381601Y-103104961D02*
X157429220Y-102914485D01*
X157429220Y-102914485D02*
X157429220Y-102581152D01*
X157429220Y-102581152D02*
X157381601Y-102390676D01*
X157381601Y-102390676D02*
X157286363Y-102295438D01*
X157286363Y-102295438D02*
X157191125Y-102247819D01*
X155762554Y-103247819D02*
X156095887Y-102771628D01*
X156333982Y-103247819D02*
X156333982Y-102247819D01*
X156333982Y-102247819D02*
X155953030Y-102247819D01*
X155953030Y-102247819D02*
X155857792Y-102295438D01*
X155857792Y-102295438D02*
X155810173Y-102343057D01*
X155810173Y-102343057D02*
X155762554Y-102438295D01*
X155762554Y-102438295D02*
X155762554Y-102581152D01*
X155762554Y-102581152D02*
X155810173Y-102676390D01*
X155810173Y-102676390D02*
X155857792Y-102724009D01*
X155857792Y-102724009D02*
X155953030Y-102771628D01*
X155953030Y-102771628D02*
X156333982Y-102771628D01*
X127449128Y-81635116D02*
X127449128Y-80635116D01*
X127449128Y-80635116D02*
X127211033Y-80635116D01*
X127211033Y-80635116D02*
X127068176Y-80682735D01*
X127068176Y-80682735D02*
X126972938Y-80777973D01*
X126972938Y-80777973D02*
X126925319Y-80873211D01*
X126925319Y-80873211D02*
X126877700Y-81063687D01*
X126877700Y-81063687D02*
X126877700Y-81206544D01*
X126877700Y-81206544D02*
X126925319Y-81397020D01*
X126925319Y-81397020D02*
X126972938Y-81492258D01*
X126972938Y-81492258D02*
X127068176Y-81587497D01*
X127068176Y-81587497D02*
X127211033Y-81635116D01*
X127211033Y-81635116D02*
X127449128Y-81635116D01*
X126306271Y-81063687D02*
X126401509Y-81016068D01*
X126401509Y-81016068D02*
X126449128Y-80968449D01*
X126449128Y-80968449D02*
X126496747Y-80873211D01*
X126496747Y-80873211D02*
X126496747Y-80825592D01*
X126496747Y-80825592D02*
X126449128Y-80730354D01*
X126449128Y-80730354D02*
X126401509Y-80682735D01*
X126401509Y-80682735D02*
X126306271Y-80635116D01*
X126306271Y-80635116D02*
X126115795Y-80635116D01*
X126115795Y-80635116D02*
X126020557Y-80682735D01*
X126020557Y-80682735D02*
X125972938Y-80730354D01*
X125972938Y-80730354D02*
X125925319Y-80825592D01*
X125925319Y-80825592D02*
X125925319Y-80873211D01*
X125925319Y-80873211D02*
X125972938Y-80968449D01*
X125972938Y-80968449D02*
X126020557Y-81016068D01*
X126020557Y-81016068D02*
X126115795Y-81063687D01*
X126115795Y-81063687D02*
X126306271Y-81063687D01*
X126306271Y-81063687D02*
X126401509Y-81111306D01*
X126401509Y-81111306D02*
X126449128Y-81158925D01*
X126449128Y-81158925D02*
X126496747Y-81254163D01*
X126496747Y-81254163D02*
X126496747Y-81444639D01*
X126496747Y-81444639D02*
X126449128Y-81539877D01*
X126449128Y-81539877D02*
X126401509Y-81587497D01*
X126401509Y-81587497D02*
X126306271Y-81635116D01*
X126306271Y-81635116D02*
X126115795Y-81635116D01*
X126115795Y-81635116D02*
X126020557Y-81587497D01*
X126020557Y-81587497D02*
X125972938Y-81539877D01*
X125972938Y-81539877D02*
X125925319Y-81444639D01*
X125925319Y-81444639D02*
X125925319Y-81254163D01*
X125925319Y-81254163D02*
X125972938Y-81158925D01*
X125972938Y-81158925D02*
X126020557Y-81111306D01*
X126020557Y-81111306D02*
X126115795Y-81063687D01*
X121503887Y-106448009D02*
X121361030Y-106495628D01*
X121361030Y-106495628D02*
X121313411Y-106543247D01*
X121313411Y-106543247D02*
X121265792Y-106638485D01*
X121265792Y-106638485D02*
X121265792Y-106781342D01*
X121265792Y-106781342D02*
X121313411Y-106876580D01*
X121313411Y-106876580D02*
X121361030Y-106924200D01*
X121361030Y-106924200D02*
X121456268Y-106971819D01*
X121456268Y-106971819D02*
X121837220Y-106971819D01*
X121837220Y-106971819D02*
X121837220Y-105971819D01*
X121837220Y-105971819D02*
X121503887Y-105971819D01*
X121503887Y-105971819D02*
X121408649Y-106019438D01*
X121408649Y-106019438D02*
X121361030Y-106067057D01*
X121361030Y-106067057D02*
X121313411Y-106162295D01*
X121313411Y-106162295D02*
X121313411Y-106257533D01*
X121313411Y-106257533D02*
X121361030Y-106352771D01*
X121361030Y-106352771D02*
X121408649Y-106400390D01*
X121408649Y-106400390D02*
X121503887Y-106448009D01*
X121503887Y-106448009D02*
X121837220Y-106448009D01*
X120361030Y-106971819D02*
X120837220Y-106971819D01*
X120837220Y-106971819D02*
X120837220Y-105971819D01*
X120027696Y-106971819D02*
X120027696Y-105971819D01*
X119456268Y-106971819D02*
X119884839Y-106400390D01*
X119456268Y-105971819D02*
X120027696Y-106543247D01*
X121646744Y-107581819D02*
X121456268Y-107581819D01*
X121456268Y-107581819D02*
X121361030Y-107629438D01*
X121361030Y-107629438D02*
X121265792Y-107724676D01*
X121265792Y-107724676D02*
X121218173Y-107915152D01*
X121218173Y-107915152D02*
X121218173Y-108248485D01*
X121218173Y-108248485D02*
X121265792Y-108438961D01*
X121265792Y-108438961D02*
X121361030Y-108534200D01*
X121361030Y-108534200D02*
X121456268Y-108581819D01*
X121456268Y-108581819D02*
X121646744Y-108581819D01*
X121646744Y-108581819D02*
X121741982Y-108534200D01*
X121741982Y-108534200D02*
X121837220Y-108438961D01*
X121837220Y-108438961D02*
X121884839Y-108248485D01*
X121884839Y-108248485D02*
X121884839Y-107915152D01*
X121884839Y-107915152D02*
X121837220Y-107724676D01*
X121837220Y-107724676D02*
X121741982Y-107629438D01*
X121741982Y-107629438D02*
X121646744Y-107581819D01*
X120456268Y-108058009D02*
X120313411Y-108105628D01*
X120313411Y-108105628D02*
X120265792Y-108153247D01*
X120265792Y-108153247D02*
X120218173Y-108248485D01*
X120218173Y-108248485D02*
X120218173Y-108391342D01*
X120218173Y-108391342D02*
X120265792Y-108486580D01*
X120265792Y-108486580D02*
X120313411Y-108534200D01*
X120313411Y-108534200D02*
X120408649Y-108581819D01*
X120408649Y-108581819D02*
X120789601Y-108581819D01*
X120789601Y-108581819D02*
X120789601Y-107581819D01*
X120789601Y-107581819D02*
X120456268Y-107581819D01*
X120456268Y-107581819D02*
X120361030Y-107629438D01*
X120361030Y-107629438D02*
X120313411Y-107677057D01*
X120313411Y-107677057D02*
X120265792Y-107772295D01*
X120265792Y-107772295D02*
X120265792Y-107867533D01*
X120265792Y-107867533D02*
X120313411Y-107962771D01*
X120313411Y-107962771D02*
X120361030Y-108010390D01*
X120361030Y-108010390D02*
X120456268Y-108058009D01*
X120456268Y-108058009D02*
X120789601Y-108058009D01*
X119837220Y-108534200D02*
X119694363Y-108581819D01*
X119694363Y-108581819D02*
X119456268Y-108581819D01*
X119456268Y-108581819D02*
X119361030Y-108534200D01*
X119361030Y-108534200D02*
X119313411Y-108486580D01*
X119313411Y-108486580D02*
X119265792Y-108391342D01*
X119265792Y-108391342D02*
X119265792Y-108296104D01*
X119265792Y-108296104D02*
X119313411Y-108200866D01*
X119313411Y-108200866D02*
X119361030Y-108153247D01*
X119361030Y-108153247D02*
X119456268Y-108105628D01*
X119456268Y-108105628D02*
X119646744Y-108058009D01*
X119646744Y-108058009D02*
X119741982Y-108010390D01*
X119741982Y-108010390D02*
X119789601Y-107962771D01*
X119789601Y-107962771D02*
X119837220Y-107867533D01*
X119837220Y-107867533D02*
X119837220Y-107772295D01*
X119837220Y-107772295D02*
X119789601Y-107677057D01*
X119789601Y-107677057D02*
X119741982Y-107629438D01*
X119741982Y-107629438D02*
X119646744Y-107581819D01*
X119646744Y-107581819D02*
X119408649Y-107581819D01*
X119408649Y-107581819D02*
X119265792Y-107629438D01*
X118980077Y-107581819D02*
X118408649Y-107581819D01*
X118694363Y-108581819D02*
X118694363Y-107581819D01*
X127496747Y-68649401D02*
X127020557Y-68649401D01*
X127591985Y-68935116D02*
X127258652Y-67935116D01*
X127258652Y-67935116D02*
X126925319Y-68935116D01*
X126401509Y-67935116D02*
X126306271Y-67935116D01*
X126306271Y-67935116D02*
X126211033Y-67982735D01*
X126211033Y-67982735D02*
X126163414Y-68030354D01*
X126163414Y-68030354D02*
X126115795Y-68125592D01*
X126115795Y-68125592D02*
X126068176Y-68316068D01*
X126068176Y-68316068D02*
X126068176Y-68554163D01*
X126068176Y-68554163D02*
X126115795Y-68744639D01*
X126115795Y-68744639D02*
X126163414Y-68839877D01*
X126163414Y-68839877D02*
X126211033Y-68887497D01*
X126211033Y-68887497D02*
X126306271Y-68935116D01*
X126306271Y-68935116D02*
X126401509Y-68935116D01*
X126401509Y-68935116D02*
X126496747Y-68887497D01*
X126496747Y-68887497D02*
X126544366Y-68839877D01*
X126544366Y-68839877D02*
X126591985Y-68744639D01*
X126591985Y-68744639D02*
X126639604Y-68554163D01*
X126639604Y-68554163D02*
X126639604Y-68316068D01*
X126639604Y-68316068D02*
X126591985Y-68125592D01*
X126591985Y-68125592D02*
X126544366Y-68030354D01*
X126544366Y-68030354D02*
X126496747Y-67982735D01*
X126496747Y-67982735D02*
X126401509Y-67935116D01*
X127449128Y-76555116D02*
X127449128Y-75555116D01*
X127449128Y-75555116D02*
X127211033Y-75555116D01*
X127211033Y-75555116D02*
X127068176Y-75602735D01*
X127068176Y-75602735D02*
X126972938Y-75697973D01*
X126972938Y-75697973D02*
X126925319Y-75793211D01*
X126925319Y-75793211D02*
X126877700Y-75983687D01*
X126877700Y-75983687D02*
X126877700Y-76126544D01*
X126877700Y-76126544D02*
X126925319Y-76317020D01*
X126925319Y-76317020D02*
X126972938Y-76412258D01*
X126972938Y-76412258D02*
X127068176Y-76507497D01*
X127068176Y-76507497D02*
X127211033Y-76555116D01*
X127211033Y-76555116D02*
X127449128Y-76555116D01*
X126020557Y-75555116D02*
X126211033Y-75555116D01*
X126211033Y-75555116D02*
X126306271Y-75602735D01*
X126306271Y-75602735D02*
X126353890Y-75650354D01*
X126353890Y-75650354D02*
X126449128Y-75793211D01*
X126449128Y-75793211D02*
X126496747Y-75983687D01*
X126496747Y-75983687D02*
X126496747Y-76364639D01*
X126496747Y-76364639D02*
X126449128Y-76459877D01*
X126449128Y-76459877D02*
X126401509Y-76507497D01*
X126401509Y-76507497D02*
X126306271Y-76555116D01*
X126306271Y-76555116D02*
X126115795Y-76555116D01*
X126115795Y-76555116D02*
X126020557Y-76507497D01*
X126020557Y-76507497D02*
X125972938Y-76459877D01*
X125972938Y-76459877D02*
X125925319Y-76364639D01*
X125925319Y-76364639D02*
X125925319Y-76126544D01*
X125925319Y-76126544D02*
X125972938Y-76031306D01*
X125972938Y-76031306D02*
X126020557Y-75983687D01*
X126020557Y-75983687D02*
X126115795Y-75936068D01*
X126115795Y-75936068D02*
X126306271Y-75936068D01*
X126306271Y-75936068D02*
X126401509Y-75983687D01*
X126401509Y-75983687D02*
X126449128Y-76031306D01*
X126449128Y-76031306D02*
X126496747Y-76126544D01*
X124782462Y-75507497D02*
X125639604Y-76793211D01*
X124449128Y-76555116D02*
X124449128Y-75555116D01*
X124449128Y-75555116D02*
X124115795Y-76269401D01*
X124115795Y-76269401D02*
X123782462Y-75555116D01*
X123782462Y-75555116D02*
X123782462Y-76555116D01*
X123306271Y-76555116D02*
X123306271Y-75555116D01*
X122877700Y-76507497D02*
X122734843Y-76555116D01*
X122734843Y-76555116D02*
X122496748Y-76555116D01*
X122496748Y-76555116D02*
X122401510Y-76507497D01*
X122401510Y-76507497D02*
X122353891Y-76459877D01*
X122353891Y-76459877D02*
X122306272Y-76364639D01*
X122306272Y-76364639D02*
X122306272Y-76269401D01*
X122306272Y-76269401D02*
X122353891Y-76174163D01*
X122353891Y-76174163D02*
X122401510Y-76126544D01*
X122401510Y-76126544D02*
X122496748Y-76078925D01*
X122496748Y-76078925D02*
X122687224Y-76031306D01*
X122687224Y-76031306D02*
X122782462Y-75983687D01*
X122782462Y-75983687D02*
X122830081Y-75936068D01*
X122830081Y-75936068D02*
X122877700Y-75840830D01*
X122877700Y-75840830D02*
X122877700Y-75745592D01*
X122877700Y-75745592D02*
X122830081Y-75650354D01*
X122830081Y-75650354D02*
X122782462Y-75602735D01*
X122782462Y-75602735D02*
X122687224Y-75555116D01*
X122687224Y-75555116D02*
X122449129Y-75555116D01*
X122449129Y-75555116D02*
X122306272Y-75602735D01*
X121687224Y-75555116D02*
X121496748Y-75555116D01*
X121496748Y-75555116D02*
X121401510Y-75602735D01*
X121401510Y-75602735D02*
X121306272Y-75697973D01*
X121306272Y-75697973D02*
X121258653Y-75888449D01*
X121258653Y-75888449D02*
X121258653Y-76221782D01*
X121258653Y-76221782D02*
X121306272Y-76412258D01*
X121306272Y-76412258D02*
X121401510Y-76507497D01*
X121401510Y-76507497D02*
X121496748Y-76555116D01*
X121496748Y-76555116D02*
X121687224Y-76555116D01*
X121687224Y-76555116D02*
X121782462Y-76507497D01*
X121782462Y-76507497D02*
X121877700Y-76412258D01*
X121877700Y-76412258D02*
X121925319Y-76221782D01*
X121925319Y-76221782D02*
X121925319Y-75888449D01*
X121925319Y-75888449D02*
X121877700Y-75697973D01*
X121877700Y-75697973D02*
X121782462Y-75602735D01*
X121782462Y-75602735D02*
X121687224Y-75555116D01*
X159254649Y-84467819D02*
X159445125Y-84467819D01*
X159445125Y-84467819D02*
X159540363Y-84515438D01*
X159540363Y-84515438D02*
X159587982Y-84563057D01*
X159587982Y-84563057D02*
X159683220Y-84705914D01*
X159683220Y-84705914D02*
X159730839Y-84896390D01*
X159730839Y-84896390D02*
X159730839Y-85277342D01*
X159730839Y-85277342D02*
X159683220Y-85372580D01*
X159683220Y-85372580D02*
X159635601Y-85420200D01*
X159635601Y-85420200D02*
X159540363Y-85467819D01*
X159540363Y-85467819D02*
X159349887Y-85467819D01*
X159349887Y-85467819D02*
X159254649Y-85420200D01*
X159254649Y-85420200D02*
X159207030Y-85372580D01*
X159207030Y-85372580D02*
X159159411Y-85277342D01*
X159159411Y-85277342D02*
X159159411Y-85039247D01*
X159159411Y-85039247D02*
X159207030Y-84944009D01*
X159207030Y-84944009D02*
X159254649Y-84896390D01*
X159254649Y-84896390D02*
X159349887Y-84848771D01*
X159349887Y-84848771D02*
X159540363Y-84848771D01*
X159540363Y-84848771D02*
X159635601Y-84896390D01*
X159635601Y-84896390D02*
X159683220Y-84944009D01*
X159683220Y-84944009D02*
X159730839Y-85039247D01*
X158730839Y-85086866D02*
X157968935Y-85086866D01*
X157587982Y-84467819D02*
X156968935Y-84467819D01*
X156968935Y-84467819D02*
X157302268Y-84848771D01*
X157302268Y-84848771D02*
X157159411Y-84848771D01*
X157159411Y-84848771D02*
X157064173Y-84896390D01*
X157064173Y-84896390D02*
X157016554Y-84944009D01*
X157016554Y-84944009D02*
X156968935Y-85039247D01*
X156968935Y-85039247D02*
X156968935Y-85277342D01*
X156968935Y-85277342D02*
X157016554Y-85372580D01*
X157016554Y-85372580D02*
X157064173Y-85420200D01*
X157064173Y-85420200D02*
X157159411Y-85467819D01*
X157159411Y-85467819D02*
X157445125Y-85467819D01*
X157445125Y-85467819D02*
X157540363Y-85420200D01*
X157540363Y-85420200D02*
X157587982Y-85372580D01*
X156349887Y-84467819D02*
X156254649Y-84467819D01*
X156254649Y-84467819D02*
X156159411Y-84515438D01*
X156159411Y-84515438D02*
X156111792Y-84563057D01*
X156111792Y-84563057D02*
X156064173Y-84658295D01*
X156064173Y-84658295D02*
X156016554Y-84848771D01*
X156016554Y-84848771D02*
X156016554Y-85086866D01*
X156016554Y-85086866D02*
X156064173Y-85277342D01*
X156064173Y-85277342D02*
X156111792Y-85372580D01*
X156111792Y-85372580D02*
X156159411Y-85420200D01*
X156159411Y-85420200D02*
X156254649Y-85467819D01*
X156254649Y-85467819D02*
X156349887Y-85467819D01*
X156349887Y-85467819D02*
X156445125Y-85420200D01*
X156445125Y-85420200D02*
X156492744Y-85372580D01*
X156492744Y-85372580D02*
X156540363Y-85277342D01*
X156540363Y-85277342D02*
X156587982Y-85086866D01*
X156587982Y-85086866D02*
X156587982Y-84848771D01*
X156587982Y-84848771D02*
X156540363Y-84658295D01*
X156540363Y-84658295D02*
X156492744Y-84563057D01*
X156492744Y-84563057D02*
X156445125Y-84515438D01*
X156445125Y-84515438D02*
X156349887Y-84467819D01*
X155730839Y-84467819D02*
X155397506Y-85467819D01*
X155397506Y-85467819D02*
X155064173Y-84467819D01*
X150428077Y-65671819D02*
X149856649Y-65671819D01*
X150142363Y-66671819D02*
X150142363Y-65671819D01*
X149618553Y-65671819D02*
X148951887Y-66671819D01*
X148951887Y-65671819D02*
X149618553Y-66671819D01*
X159238744Y-99707819D02*
X159048268Y-99707819D01*
X159048268Y-99707819D02*
X158953030Y-99755438D01*
X158953030Y-99755438D02*
X158857792Y-99850676D01*
X158857792Y-99850676D02*
X158810173Y-100041152D01*
X158810173Y-100041152D02*
X158810173Y-100374485D01*
X158810173Y-100374485D02*
X158857792Y-100564961D01*
X158857792Y-100564961D02*
X158953030Y-100660200D01*
X158953030Y-100660200D02*
X159048268Y-100707819D01*
X159048268Y-100707819D02*
X159238744Y-100707819D01*
X159238744Y-100707819D02*
X159333982Y-100660200D01*
X159333982Y-100660200D02*
X159429220Y-100564961D01*
X159429220Y-100564961D02*
X159476839Y-100374485D01*
X159476839Y-100374485D02*
X159476839Y-100041152D01*
X159476839Y-100041152D02*
X159429220Y-99850676D01*
X159429220Y-99850676D02*
X159333982Y-99755438D01*
X159333982Y-99755438D02*
X159238744Y-99707819D01*
X158048268Y-100184009D02*
X157905411Y-100231628D01*
X157905411Y-100231628D02*
X157857792Y-100279247D01*
X157857792Y-100279247D02*
X157810173Y-100374485D01*
X157810173Y-100374485D02*
X157810173Y-100517342D01*
X157810173Y-100517342D02*
X157857792Y-100612580D01*
X157857792Y-100612580D02*
X157905411Y-100660200D01*
X157905411Y-100660200D02*
X158000649Y-100707819D01*
X158000649Y-100707819D02*
X158381601Y-100707819D01*
X158381601Y-100707819D02*
X158381601Y-99707819D01*
X158381601Y-99707819D02*
X158048268Y-99707819D01*
X158048268Y-99707819D02*
X157953030Y-99755438D01*
X157953030Y-99755438D02*
X157905411Y-99803057D01*
X157905411Y-99803057D02*
X157857792Y-99898295D01*
X157857792Y-99898295D02*
X157857792Y-99993533D01*
X157857792Y-99993533D02*
X157905411Y-100088771D01*
X157905411Y-100088771D02*
X157953030Y-100136390D01*
X157953030Y-100136390D02*
X158048268Y-100184009D01*
X158048268Y-100184009D02*
X158381601Y-100184009D01*
X157429220Y-100660200D02*
X157286363Y-100707819D01*
X157286363Y-100707819D02*
X157048268Y-100707819D01*
X157048268Y-100707819D02*
X156953030Y-100660200D01*
X156953030Y-100660200D02*
X156905411Y-100612580D01*
X156905411Y-100612580D02*
X156857792Y-100517342D01*
X156857792Y-100517342D02*
X156857792Y-100422104D01*
X156857792Y-100422104D02*
X156905411Y-100326866D01*
X156905411Y-100326866D02*
X156953030Y-100279247D01*
X156953030Y-100279247D02*
X157048268Y-100231628D01*
X157048268Y-100231628D02*
X157238744Y-100184009D01*
X157238744Y-100184009D02*
X157333982Y-100136390D01*
X157333982Y-100136390D02*
X157381601Y-100088771D01*
X157381601Y-100088771D02*
X157429220Y-99993533D01*
X157429220Y-99993533D02*
X157429220Y-99898295D01*
X157429220Y-99898295D02*
X157381601Y-99803057D01*
X157381601Y-99803057D02*
X157333982Y-99755438D01*
X157333982Y-99755438D02*
X157238744Y-99707819D01*
X157238744Y-99707819D02*
X157000649Y-99707819D01*
X157000649Y-99707819D02*
X156857792Y-99755438D01*
X156572077Y-99707819D02*
X156000649Y-99707819D01*
X156286363Y-100707819D02*
X156286363Y-99707819D01*
X127544366Y-83175116D02*
X126925319Y-83175116D01*
X126925319Y-83175116D02*
X127258652Y-83556068D01*
X127258652Y-83556068D02*
X127115795Y-83556068D01*
X127115795Y-83556068D02*
X127020557Y-83603687D01*
X127020557Y-83603687D02*
X126972938Y-83651306D01*
X126972938Y-83651306D02*
X126925319Y-83746544D01*
X126925319Y-83746544D02*
X126925319Y-83984639D01*
X126925319Y-83984639D02*
X126972938Y-84079877D01*
X126972938Y-84079877D02*
X127020557Y-84127497D01*
X127020557Y-84127497D02*
X127115795Y-84175116D01*
X127115795Y-84175116D02*
X127401509Y-84175116D01*
X127401509Y-84175116D02*
X127496747Y-84127497D01*
X127496747Y-84127497D02*
X127544366Y-84079877D01*
X126639604Y-83175116D02*
X126306271Y-84175116D01*
X126306271Y-84175116D02*
X125972938Y-83175116D01*
X125734842Y-83175116D02*
X125115795Y-83175116D01*
X125115795Y-83175116D02*
X125449128Y-83556068D01*
X125449128Y-83556068D02*
X125306271Y-83556068D01*
X125306271Y-83556068D02*
X125211033Y-83603687D01*
X125211033Y-83603687D02*
X125163414Y-83651306D01*
X125163414Y-83651306D02*
X125115795Y-83746544D01*
X125115795Y-83746544D02*
X125115795Y-83984639D01*
X125115795Y-83984639D02*
X125163414Y-84079877D01*
X125163414Y-84079877D02*
X125211033Y-84127497D01*
X125211033Y-84127497D02*
X125306271Y-84175116D01*
X125306271Y-84175116D02*
X125591985Y-84175116D01*
X125591985Y-84175116D02*
X125687223Y-84127497D01*
X125687223Y-84127497D02*
X125734842Y-84079877D01*
X159095887Y-105264009D02*
X158953030Y-105311628D01*
X158953030Y-105311628D02*
X158905411Y-105359247D01*
X158905411Y-105359247D02*
X158857792Y-105454485D01*
X158857792Y-105454485D02*
X158857792Y-105597342D01*
X158857792Y-105597342D02*
X158905411Y-105692580D01*
X158905411Y-105692580D02*
X158953030Y-105740200D01*
X158953030Y-105740200D02*
X159048268Y-105787819D01*
X159048268Y-105787819D02*
X159429220Y-105787819D01*
X159429220Y-105787819D02*
X159429220Y-104787819D01*
X159429220Y-104787819D02*
X159095887Y-104787819D01*
X159095887Y-104787819D02*
X159000649Y-104835438D01*
X159000649Y-104835438D02*
X158953030Y-104883057D01*
X158953030Y-104883057D02*
X158905411Y-104978295D01*
X158905411Y-104978295D02*
X158905411Y-105073533D01*
X158905411Y-105073533D02*
X158953030Y-105168771D01*
X158953030Y-105168771D02*
X159000649Y-105216390D01*
X159000649Y-105216390D02*
X159095887Y-105264009D01*
X159095887Y-105264009D02*
X159429220Y-105264009D01*
X157953030Y-105787819D02*
X158429220Y-105787819D01*
X158429220Y-105787819D02*
X158429220Y-104787819D01*
X157619696Y-105787819D02*
X157619696Y-104787819D01*
X157048268Y-105787819D02*
X157476839Y-105216390D01*
X157048268Y-104787819D02*
X157619696Y-105359247D01*
X155905411Y-104740200D02*
X156762553Y-106025914D01*
X155381601Y-104787819D02*
X155191125Y-104787819D01*
X155191125Y-104787819D02*
X155095887Y-104835438D01*
X155095887Y-104835438D02*
X155000649Y-104930676D01*
X155000649Y-104930676D02*
X154953030Y-105121152D01*
X154953030Y-105121152D02*
X154953030Y-105454485D01*
X154953030Y-105454485D02*
X155000649Y-105644961D01*
X155000649Y-105644961D02*
X155095887Y-105740200D01*
X155095887Y-105740200D02*
X155191125Y-105787819D01*
X155191125Y-105787819D02*
X155381601Y-105787819D01*
X155381601Y-105787819D02*
X155476839Y-105740200D01*
X155476839Y-105740200D02*
X155572077Y-105644961D01*
X155572077Y-105644961D02*
X155619696Y-105454485D01*
X155619696Y-105454485D02*
X155619696Y-105121152D01*
X155619696Y-105121152D02*
X155572077Y-104930676D01*
X155572077Y-104930676D02*
X155476839Y-104835438D01*
X155476839Y-104835438D02*
X155381601Y-104787819D01*
X154191125Y-105264009D02*
X154048268Y-105311628D01*
X154048268Y-105311628D02*
X154000649Y-105359247D01*
X154000649Y-105359247D02*
X153953030Y-105454485D01*
X153953030Y-105454485D02*
X153953030Y-105597342D01*
X153953030Y-105597342D02*
X154000649Y-105692580D01*
X154000649Y-105692580D02*
X154048268Y-105740200D01*
X154048268Y-105740200D02*
X154143506Y-105787819D01*
X154143506Y-105787819D02*
X154524458Y-105787819D01*
X154524458Y-105787819D02*
X154524458Y-104787819D01*
X154524458Y-104787819D02*
X154191125Y-104787819D01*
X154191125Y-104787819D02*
X154095887Y-104835438D01*
X154095887Y-104835438D02*
X154048268Y-104883057D01*
X154048268Y-104883057D02*
X154000649Y-104978295D01*
X154000649Y-104978295D02*
X154000649Y-105073533D01*
X154000649Y-105073533D02*
X154048268Y-105168771D01*
X154048268Y-105168771D02*
X154095887Y-105216390D01*
X154095887Y-105216390D02*
X154191125Y-105264009D01*
X154191125Y-105264009D02*
X154524458Y-105264009D01*
X153572077Y-105740200D02*
X153429220Y-105787819D01*
X153429220Y-105787819D02*
X153191125Y-105787819D01*
X153191125Y-105787819D02*
X153095887Y-105740200D01*
X153095887Y-105740200D02*
X153048268Y-105692580D01*
X153048268Y-105692580D02*
X153000649Y-105597342D01*
X153000649Y-105597342D02*
X153000649Y-105502104D01*
X153000649Y-105502104D02*
X153048268Y-105406866D01*
X153048268Y-105406866D02*
X153095887Y-105359247D01*
X153095887Y-105359247D02*
X153191125Y-105311628D01*
X153191125Y-105311628D02*
X153381601Y-105264009D01*
X153381601Y-105264009D02*
X153476839Y-105216390D01*
X153476839Y-105216390D02*
X153524458Y-105168771D01*
X153524458Y-105168771D02*
X153572077Y-105073533D01*
X153572077Y-105073533D02*
X153572077Y-104978295D01*
X153572077Y-104978295D02*
X153524458Y-104883057D01*
X153524458Y-104883057D02*
X153476839Y-104835438D01*
X153476839Y-104835438D02*
X153381601Y-104787819D01*
X153381601Y-104787819D02*
X153143506Y-104787819D01*
X153143506Y-104787819D02*
X153000649Y-104835438D01*
X152714934Y-104787819D02*
X152143506Y-104787819D01*
X152429220Y-105787819D02*
X152429220Y-104787819D01*
X149761411Y-80959438D02*
X149856649Y-80911819D01*
X149856649Y-80911819D02*
X149999506Y-80911819D01*
X149999506Y-80911819D02*
X150142363Y-80959438D01*
X150142363Y-80959438D02*
X150237601Y-81054676D01*
X150237601Y-81054676D02*
X150285220Y-81149914D01*
X150285220Y-81149914D02*
X150332839Y-81340390D01*
X150332839Y-81340390D02*
X150332839Y-81483247D01*
X150332839Y-81483247D02*
X150285220Y-81673723D01*
X150285220Y-81673723D02*
X150237601Y-81768961D01*
X150237601Y-81768961D02*
X150142363Y-81864200D01*
X150142363Y-81864200D02*
X149999506Y-81911819D01*
X149999506Y-81911819D02*
X149904268Y-81911819D01*
X149904268Y-81911819D02*
X149761411Y-81864200D01*
X149761411Y-81864200D02*
X149713792Y-81816580D01*
X149713792Y-81816580D02*
X149713792Y-81483247D01*
X149713792Y-81483247D02*
X149904268Y-81483247D01*
X149285220Y-81911819D02*
X149285220Y-80911819D01*
X149285220Y-80911819D02*
X148713792Y-81911819D01*
X148713792Y-81911819D02*
X148713792Y-80911819D01*
X148237601Y-81911819D02*
X148237601Y-80911819D01*
X148237601Y-80911819D02*
X147999506Y-80911819D01*
X147999506Y-80911819D02*
X147856649Y-80959438D01*
X147856649Y-80959438D02*
X147761411Y-81054676D01*
X147761411Y-81054676D02*
X147713792Y-81149914D01*
X147713792Y-81149914D02*
X147666173Y-81340390D01*
X147666173Y-81340390D02*
X147666173Y-81483247D01*
X147666173Y-81483247D02*
X147713792Y-81673723D01*
X147713792Y-81673723D02*
X147761411Y-81768961D01*
X147761411Y-81768961D02*
X147856649Y-81864200D01*
X147856649Y-81864200D02*
X147999506Y-81911819D01*
X147999506Y-81911819D02*
X148237601Y-81911819D01*
X127449128Y-74015116D02*
X127449128Y-73015116D01*
X127449128Y-73015116D02*
X127211033Y-73015116D01*
X127211033Y-73015116D02*
X127068176Y-73062735D01*
X127068176Y-73062735D02*
X126972938Y-73157973D01*
X126972938Y-73157973D02*
X126925319Y-73253211D01*
X126925319Y-73253211D02*
X126877700Y-73443687D01*
X126877700Y-73443687D02*
X126877700Y-73586544D01*
X126877700Y-73586544D02*
X126925319Y-73777020D01*
X126925319Y-73777020D02*
X126972938Y-73872258D01*
X126972938Y-73872258D02*
X127068176Y-73967497D01*
X127068176Y-73967497D02*
X127211033Y-74015116D01*
X127211033Y-74015116D02*
X127449128Y-74015116D01*
X125972938Y-73015116D02*
X126449128Y-73015116D01*
X126449128Y-73015116D02*
X126496747Y-73491306D01*
X126496747Y-73491306D02*
X126449128Y-73443687D01*
X126449128Y-73443687D02*
X126353890Y-73396068D01*
X126353890Y-73396068D02*
X126115795Y-73396068D01*
X126115795Y-73396068D02*
X126020557Y-73443687D01*
X126020557Y-73443687D02*
X125972938Y-73491306D01*
X125972938Y-73491306D02*
X125925319Y-73586544D01*
X125925319Y-73586544D02*
X125925319Y-73824639D01*
X125925319Y-73824639D02*
X125972938Y-73919877D01*
X125972938Y-73919877D02*
X126020557Y-73967497D01*
X126020557Y-73967497D02*
X126115795Y-74015116D01*
X126115795Y-74015116D02*
X126353890Y-74015116D01*
X126353890Y-74015116D02*
X126449128Y-73967497D01*
X126449128Y-73967497D02*
X126496747Y-73919877D01*
X124782462Y-72967497D02*
X125639604Y-74253211D01*
X124496747Y-73967497D02*
X124353890Y-74015116D01*
X124353890Y-74015116D02*
X124115795Y-74015116D01*
X124115795Y-74015116D02*
X124020557Y-73967497D01*
X124020557Y-73967497D02*
X123972938Y-73919877D01*
X123972938Y-73919877D02*
X123925319Y-73824639D01*
X123925319Y-73824639D02*
X123925319Y-73729401D01*
X123925319Y-73729401D02*
X123972938Y-73634163D01*
X123972938Y-73634163D02*
X124020557Y-73586544D01*
X124020557Y-73586544D02*
X124115795Y-73538925D01*
X124115795Y-73538925D02*
X124306271Y-73491306D01*
X124306271Y-73491306D02*
X124401509Y-73443687D01*
X124401509Y-73443687D02*
X124449128Y-73396068D01*
X124449128Y-73396068D02*
X124496747Y-73300830D01*
X124496747Y-73300830D02*
X124496747Y-73205592D01*
X124496747Y-73205592D02*
X124449128Y-73110354D01*
X124449128Y-73110354D02*
X124401509Y-73062735D01*
X124401509Y-73062735D02*
X124306271Y-73015116D01*
X124306271Y-73015116D02*
X124068176Y-73015116D01*
X124068176Y-73015116D02*
X123925319Y-73062735D01*
X122925319Y-73919877D02*
X122972938Y-73967497D01*
X122972938Y-73967497D02*
X123115795Y-74015116D01*
X123115795Y-74015116D02*
X123211033Y-74015116D01*
X123211033Y-74015116D02*
X123353890Y-73967497D01*
X123353890Y-73967497D02*
X123449128Y-73872258D01*
X123449128Y-73872258D02*
X123496747Y-73777020D01*
X123496747Y-73777020D02*
X123544366Y-73586544D01*
X123544366Y-73586544D02*
X123544366Y-73443687D01*
X123544366Y-73443687D02*
X123496747Y-73253211D01*
X123496747Y-73253211D02*
X123449128Y-73157973D01*
X123449128Y-73157973D02*
X123353890Y-73062735D01*
X123353890Y-73062735D02*
X123211033Y-73015116D01*
X123211033Y-73015116D02*
X123115795Y-73015116D01*
X123115795Y-73015116D02*
X122972938Y-73062735D01*
X122972938Y-73062735D02*
X122925319Y-73110354D01*
X122496747Y-74015116D02*
X122496747Y-73015116D01*
X121925319Y-74015116D02*
X122353890Y-73443687D01*
X121925319Y-73015116D02*
X122496747Y-73586544D01*
X159524458Y-89547819D02*
X158905411Y-89547819D01*
X158905411Y-89547819D02*
X159238744Y-89928771D01*
X159238744Y-89928771D02*
X159095887Y-89928771D01*
X159095887Y-89928771D02*
X159000649Y-89976390D01*
X159000649Y-89976390D02*
X158953030Y-90024009D01*
X158953030Y-90024009D02*
X158905411Y-90119247D01*
X158905411Y-90119247D02*
X158905411Y-90357342D01*
X158905411Y-90357342D02*
X158953030Y-90452580D01*
X158953030Y-90452580D02*
X159000649Y-90500200D01*
X159000649Y-90500200D02*
X159095887Y-90547819D01*
X159095887Y-90547819D02*
X159381601Y-90547819D01*
X159381601Y-90547819D02*
X159476839Y-90500200D01*
X159476839Y-90500200D02*
X159524458Y-90452580D01*
X158619696Y-89547819D02*
X158286363Y-90547819D01*
X158286363Y-90547819D02*
X157953030Y-89547819D01*
X157714934Y-89547819D02*
X157095887Y-89547819D01*
X157095887Y-89547819D02*
X157429220Y-89928771D01*
X157429220Y-89928771D02*
X157286363Y-89928771D01*
X157286363Y-89928771D02*
X157191125Y-89976390D01*
X157191125Y-89976390D02*
X157143506Y-90024009D01*
X157143506Y-90024009D02*
X157095887Y-90119247D01*
X157095887Y-90119247D02*
X157095887Y-90357342D01*
X157095887Y-90357342D02*
X157143506Y-90452580D01*
X157143506Y-90452580D02*
X157191125Y-90500200D01*
X157191125Y-90500200D02*
X157286363Y-90547819D01*
X157286363Y-90547819D02*
X157572077Y-90547819D01*
X157572077Y-90547819D02*
X157667315Y-90500200D01*
X157667315Y-90500200D02*
X157714934Y-90452580D01*
X158857792Y-108581819D02*
X159191125Y-108105628D01*
X159429220Y-108581819D02*
X159429220Y-107581819D01*
X159429220Y-107581819D02*
X159048268Y-107581819D01*
X159048268Y-107581819D02*
X158953030Y-107629438D01*
X158953030Y-107629438D02*
X158905411Y-107677057D01*
X158905411Y-107677057D02*
X158857792Y-107772295D01*
X158857792Y-107772295D02*
X158857792Y-107915152D01*
X158857792Y-107915152D02*
X158905411Y-108010390D01*
X158905411Y-108010390D02*
X158953030Y-108058009D01*
X158953030Y-108058009D02*
X159048268Y-108105628D01*
X159048268Y-108105628D02*
X159429220Y-108105628D01*
X158429220Y-108058009D02*
X158095887Y-108058009D01*
X157953030Y-108581819D02*
X158429220Y-108581819D01*
X158429220Y-108581819D02*
X158429220Y-107581819D01*
X158429220Y-107581819D02*
X157953030Y-107581819D01*
X157524458Y-108581819D02*
X157524458Y-107581819D01*
X157524458Y-107581819D02*
X157286363Y-107581819D01*
X157286363Y-107581819D02*
X157143506Y-107629438D01*
X157143506Y-107629438D02*
X157048268Y-107724676D01*
X157048268Y-107724676D02*
X157000649Y-107819914D01*
X157000649Y-107819914D02*
X156953030Y-108010390D01*
X156953030Y-108010390D02*
X156953030Y-108153247D01*
X156953030Y-108153247D02*
X157000649Y-108343723D01*
X157000649Y-108343723D02*
X157048268Y-108438961D01*
X157048268Y-108438961D02*
X157143506Y-108534200D01*
X157143506Y-108534200D02*
X157286363Y-108581819D01*
X157286363Y-108581819D02*
X157524458Y-108581819D01*
X155810173Y-107534200D02*
X156667315Y-108819914D01*
X154905411Y-108486580D02*
X154953030Y-108534200D01*
X154953030Y-108534200D02*
X155095887Y-108581819D01*
X155095887Y-108581819D02*
X155191125Y-108581819D01*
X155191125Y-108581819D02*
X155333982Y-108534200D01*
X155333982Y-108534200D02*
X155429220Y-108438961D01*
X155429220Y-108438961D02*
X155476839Y-108343723D01*
X155476839Y-108343723D02*
X155524458Y-108153247D01*
X155524458Y-108153247D02*
X155524458Y-108010390D01*
X155524458Y-108010390D02*
X155476839Y-107819914D01*
X155476839Y-107819914D02*
X155429220Y-107724676D01*
X155429220Y-107724676D02*
X155333982Y-107629438D01*
X155333982Y-107629438D02*
X155191125Y-107581819D01*
X155191125Y-107581819D02*
X155095887Y-107581819D01*
X155095887Y-107581819D02*
X154953030Y-107629438D01*
X154953030Y-107629438D02*
X154905411Y-107677057D01*
X154619696Y-107581819D02*
X154048268Y-107581819D01*
X154333982Y-108581819D02*
X154333982Y-107581819D01*
X153143506Y-108581819D02*
X153476839Y-108105628D01*
X153714934Y-108581819D02*
X153714934Y-107581819D01*
X153714934Y-107581819D02*
X153333982Y-107581819D01*
X153333982Y-107581819D02*
X153238744Y-107629438D01*
X153238744Y-107629438D02*
X153191125Y-107677057D01*
X153191125Y-107677057D02*
X153143506Y-107772295D01*
X153143506Y-107772295D02*
X153143506Y-107915152D01*
X153143506Y-107915152D02*
X153191125Y-108010390D01*
X153191125Y-108010390D02*
X153238744Y-108058009D01*
X153238744Y-108058009D02*
X153333982Y-108105628D01*
X153333982Y-108105628D02*
X153714934Y-108105628D01*
X152238744Y-108581819D02*
X152714934Y-108581819D01*
X152714934Y-108581819D02*
X152714934Y-107581819D01*
X127449128Y-71475116D02*
X127449128Y-70475116D01*
X127449128Y-70475116D02*
X127211033Y-70475116D01*
X127211033Y-70475116D02*
X127068176Y-70522735D01*
X127068176Y-70522735D02*
X126972938Y-70617973D01*
X126972938Y-70617973D02*
X126925319Y-70713211D01*
X126925319Y-70713211D02*
X126877700Y-70903687D01*
X126877700Y-70903687D02*
X126877700Y-71046544D01*
X126877700Y-71046544D02*
X126925319Y-71237020D01*
X126925319Y-71237020D02*
X126972938Y-71332258D01*
X126972938Y-71332258D02*
X127068176Y-71427497D01*
X127068176Y-71427497D02*
X127211033Y-71475116D01*
X127211033Y-71475116D02*
X127449128Y-71475116D01*
X126258652Y-70475116D02*
X126163414Y-70475116D01*
X126163414Y-70475116D02*
X126068176Y-70522735D01*
X126068176Y-70522735D02*
X126020557Y-70570354D01*
X126020557Y-70570354D02*
X125972938Y-70665592D01*
X125972938Y-70665592D02*
X125925319Y-70856068D01*
X125925319Y-70856068D02*
X125925319Y-71094163D01*
X125925319Y-71094163D02*
X125972938Y-71284639D01*
X125972938Y-71284639D02*
X126020557Y-71379877D01*
X126020557Y-71379877D02*
X126068176Y-71427497D01*
X126068176Y-71427497D02*
X126163414Y-71475116D01*
X126163414Y-71475116D02*
X126258652Y-71475116D01*
X126258652Y-71475116D02*
X126353890Y-71427497D01*
X126353890Y-71427497D02*
X126401509Y-71379877D01*
X126401509Y-71379877D02*
X126449128Y-71284639D01*
X126449128Y-71284639D02*
X126496747Y-71094163D01*
X126496747Y-71094163D02*
X126496747Y-70856068D01*
X126496747Y-70856068D02*
X126449128Y-70665592D01*
X126449128Y-70665592D02*
X126401509Y-70570354D01*
X126401509Y-70570354D02*
X126353890Y-70522735D01*
X126353890Y-70522735D02*
X126258652Y-70475116D01*
X150285220Y-74291819D02*
X150285220Y-73291819D01*
X150285220Y-73291819D02*
X150047125Y-73291819D01*
X150047125Y-73291819D02*
X149904268Y-73339438D01*
X149904268Y-73339438D02*
X149809030Y-73434676D01*
X149809030Y-73434676D02*
X149761411Y-73529914D01*
X149761411Y-73529914D02*
X149713792Y-73720390D01*
X149713792Y-73720390D02*
X149713792Y-73863247D01*
X149713792Y-73863247D02*
X149761411Y-74053723D01*
X149761411Y-74053723D02*
X149809030Y-74148961D01*
X149809030Y-74148961D02*
X149904268Y-74244200D01*
X149904268Y-74244200D02*
X150047125Y-74291819D01*
X150047125Y-74291819D02*
X150285220Y-74291819D01*
X149332839Y-73387057D02*
X149285220Y-73339438D01*
X149285220Y-73339438D02*
X149189982Y-73291819D01*
X149189982Y-73291819D02*
X148951887Y-73291819D01*
X148951887Y-73291819D02*
X148856649Y-73339438D01*
X148856649Y-73339438D02*
X148809030Y-73387057D01*
X148809030Y-73387057D02*
X148761411Y-73482295D01*
X148761411Y-73482295D02*
X148761411Y-73577533D01*
X148761411Y-73577533D02*
X148809030Y-73720390D01*
X148809030Y-73720390D02*
X149380458Y-74291819D01*
X149380458Y-74291819D02*
X148761411Y-74291819D01*
X147618554Y-73244200D02*
X148475696Y-74529914D01*
X147332839Y-74244200D02*
X147189982Y-74291819D01*
X147189982Y-74291819D02*
X146951887Y-74291819D01*
X146951887Y-74291819D02*
X146856649Y-74244200D01*
X146856649Y-74244200D02*
X146809030Y-74196580D01*
X146809030Y-74196580D02*
X146761411Y-74101342D01*
X146761411Y-74101342D02*
X146761411Y-74006104D01*
X146761411Y-74006104D02*
X146809030Y-73910866D01*
X146809030Y-73910866D02*
X146856649Y-73863247D01*
X146856649Y-73863247D02*
X146951887Y-73815628D01*
X146951887Y-73815628D02*
X147142363Y-73768009D01*
X147142363Y-73768009D02*
X147237601Y-73720390D01*
X147237601Y-73720390D02*
X147285220Y-73672771D01*
X147285220Y-73672771D02*
X147332839Y-73577533D01*
X147332839Y-73577533D02*
X147332839Y-73482295D01*
X147332839Y-73482295D02*
X147285220Y-73387057D01*
X147285220Y-73387057D02*
X147237601Y-73339438D01*
X147237601Y-73339438D02*
X147142363Y-73291819D01*
X147142363Y-73291819D02*
X146904268Y-73291819D01*
X146904268Y-73291819D02*
X146761411Y-73339438D01*
X146332839Y-74291819D02*
X146332839Y-73291819D01*
X146332839Y-73291819D02*
X146094744Y-73291819D01*
X146094744Y-73291819D02*
X145951887Y-73339438D01*
X145951887Y-73339438D02*
X145856649Y-73434676D01*
X145856649Y-73434676D02*
X145809030Y-73529914D01*
X145809030Y-73529914D02*
X145761411Y-73720390D01*
X145761411Y-73720390D02*
X145761411Y-73863247D01*
X145761411Y-73863247D02*
X145809030Y-74053723D01*
X145809030Y-74053723D02*
X145856649Y-74148961D01*
X145856649Y-74148961D02*
X145951887Y-74244200D01*
X145951887Y-74244200D02*
X146094744Y-74291819D01*
X146094744Y-74291819D02*
X146332839Y-74291819D01*
X145380458Y-74006104D02*
X144904268Y-74006104D01*
X145475696Y-74291819D02*
X145142363Y-73291819D01*
X145142363Y-73291819D02*
X144809030Y-74291819D01*
X158857792Y-95532580D02*
X158905411Y-95580200D01*
X158905411Y-95580200D02*
X159048268Y-95627819D01*
X159048268Y-95627819D02*
X159143506Y-95627819D01*
X159143506Y-95627819D02*
X159286363Y-95580200D01*
X159286363Y-95580200D02*
X159381601Y-95484961D01*
X159381601Y-95484961D02*
X159429220Y-95389723D01*
X159429220Y-95389723D02*
X159476839Y-95199247D01*
X159476839Y-95199247D02*
X159476839Y-95056390D01*
X159476839Y-95056390D02*
X159429220Y-94865914D01*
X159429220Y-94865914D02*
X159381601Y-94770676D01*
X159381601Y-94770676D02*
X159286363Y-94675438D01*
X159286363Y-94675438D02*
X159143506Y-94627819D01*
X159143506Y-94627819D02*
X159048268Y-94627819D01*
X159048268Y-94627819D02*
X158905411Y-94675438D01*
X158905411Y-94675438D02*
X158857792Y-94723057D01*
X157953030Y-95627819D02*
X158429220Y-95627819D01*
X158429220Y-95627819D02*
X158429220Y-94627819D01*
X157429220Y-94627819D02*
X157238744Y-94627819D01*
X157238744Y-94627819D02*
X157143506Y-94675438D01*
X157143506Y-94675438D02*
X157048268Y-94770676D01*
X157048268Y-94770676D02*
X157000649Y-94961152D01*
X157000649Y-94961152D02*
X157000649Y-95294485D01*
X157000649Y-95294485D02*
X157048268Y-95484961D01*
X157048268Y-95484961D02*
X157143506Y-95580200D01*
X157143506Y-95580200D02*
X157238744Y-95627819D01*
X157238744Y-95627819D02*
X157429220Y-95627819D01*
X157429220Y-95627819D02*
X157524458Y-95580200D01*
X157524458Y-95580200D02*
X157619696Y-95484961D01*
X157619696Y-95484961D02*
X157667315Y-95294485D01*
X157667315Y-95294485D02*
X157667315Y-94961152D01*
X157667315Y-94961152D02*
X157619696Y-94770676D01*
X157619696Y-94770676D02*
X157524458Y-94675438D01*
X157524458Y-94675438D02*
X157429220Y-94627819D01*
X156619696Y-95580200D02*
X156476839Y-95627819D01*
X156476839Y-95627819D02*
X156238744Y-95627819D01*
X156238744Y-95627819D02*
X156143506Y-95580200D01*
X156143506Y-95580200D02*
X156095887Y-95532580D01*
X156095887Y-95532580D02*
X156048268Y-95437342D01*
X156048268Y-95437342D02*
X156048268Y-95342104D01*
X156048268Y-95342104D02*
X156095887Y-95246866D01*
X156095887Y-95246866D02*
X156143506Y-95199247D01*
X156143506Y-95199247D02*
X156238744Y-95151628D01*
X156238744Y-95151628D02*
X156429220Y-95104009D01*
X156429220Y-95104009D02*
X156524458Y-95056390D01*
X156524458Y-95056390D02*
X156572077Y-95008771D01*
X156572077Y-95008771D02*
X156619696Y-94913533D01*
X156619696Y-94913533D02*
X156619696Y-94818295D01*
X156619696Y-94818295D02*
X156572077Y-94723057D01*
X156572077Y-94723057D02*
X156524458Y-94675438D01*
X156524458Y-94675438D02*
X156429220Y-94627819D01*
X156429220Y-94627819D02*
X156191125Y-94627819D01*
X156191125Y-94627819D02*
X156048268Y-94675438D01*
X155619696Y-95104009D02*
X155286363Y-95104009D01*
X155143506Y-95627819D02*
X155619696Y-95627819D01*
X155619696Y-95627819D02*
X155619696Y-94627819D01*
X155619696Y-94627819D02*
X155143506Y-94627819D01*
X121265792Y-101891819D02*
X121599125Y-101415628D01*
X121837220Y-101891819D02*
X121837220Y-100891819D01*
X121837220Y-100891819D02*
X121456268Y-100891819D01*
X121456268Y-100891819D02*
X121361030Y-100939438D01*
X121361030Y-100939438D02*
X121313411Y-100987057D01*
X121313411Y-100987057D02*
X121265792Y-101082295D01*
X121265792Y-101082295D02*
X121265792Y-101225152D01*
X121265792Y-101225152D02*
X121313411Y-101320390D01*
X121313411Y-101320390D02*
X121361030Y-101368009D01*
X121361030Y-101368009D02*
X121456268Y-101415628D01*
X121456268Y-101415628D02*
X121837220Y-101415628D01*
X120837220Y-101368009D02*
X120503887Y-101368009D01*
X120361030Y-101891819D02*
X120837220Y-101891819D01*
X120837220Y-101891819D02*
X120837220Y-100891819D01*
X120837220Y-100891819D02*
X120361030Y-100891819D01*
X119932458Y-101891819D02*
X119932458Y-100891819D01*
X119932458Y-100891819D02*
X119694363Y-100891819D01*
X119694363Y-100891819D02*
X119551506Y-100939438D01*
X119551506Y-100939438D02*
X119456268Y-101034676D01*
X119456268Y-101034676D02*
X119408649Y-101129914D01*
X119408649Y-101129914D02*
X119361030Y-101320390D01*
X119361030Y-101320390D02*
X119361030Y-101463247D01*
X119361030Y-101463247D02*
X119408649Y-101653723D01*
X119408649Y-101653723D02*
X119456268Y-101748961D01*
X119456268Y-101748961D02*
X119551506Y-101844200D01*
X119551506Y-101844200D02*
X119694363Y-101891819D01*
X119694363Y-101891819D02*
X119932458Y-101891819D01*
X121265792Y-103406580D02*
X121313411Y-103454200D01*
X121313411Y-103454200D02*
X121456268Y-103501819D01*
X121456268Y-103501819D02*
X121551506Y-103501819D01*
X121551506Y-103501819D02*
X121694363Y-103454200D01*
X121694363Y-103454200D02*
X121789601Y-103358961D01*
X121789601Y-103358961D02*
X121837220Y-103263723D01*
X121837220Y-103263723D02*
X121884839Y-103073247D01*
X121884839Y-103073247D02*
X121884839Y-102930390D01*
X121884839Y-102930390D02*
X121837220Y-102739914D01*
X121837220Y-102739914D02*
X121789601Y-102644676D01*
X121789601Y-102644676D02*
X121694363Y-102549438D01*
X121694363Y-102549438D02*
X121551506Y-102501819D01*
X121551506Y-102501819D02*
X121456268Y-102501819D01*
X121456268Y-102501819D02*
X121313411Y-102549438D01*
X121313411Y-102549438D02*
X121265792Y-102597057D01*
X120980077Y-102501819D02*
X120408649Y-102501819D01*
X120694363Y-103501819D02*
X120694363Y-102501819D01*
X119503887Y-103501819D02*
X119837220Y-103025628D01*
X120075315Y-103501819D02*
X120075315Y-102501819D01*
X120075315Y-102501819D02*
X119694363Y-102501819D01*
X119694363Y-102501819D02*
X119599125Y-102549438D01*
X119599125Y-102549438D02*
X119551506Y-102597057D01*
X119551506Y-102597057D02*
X119503887Y-102692295D01*
X119503887Y-102692295D02*
X119503887Y-102835152D01*
X119503887Y-102835152D02*
X119551506Y-102930390D01*
X119551506Y-102930390D02*
X119599125Y-102978009D01*
X119599125Y-102978009D02*
X119694363Y-103025628D01*
X119694363Y-103025628D02*
X120075315Y-103025628D01*
X118599125Y-103501819D02*
X119075315Y-103501819D01*
X119075315Y-103501819D02*
X119075315Y-102501819D01*
X121408649Y-117995819D02*
X121599125Y-117995819D01*
X121599125Y-117995819D02*
X121694363Y-118043438D01*
X121694363Y-118043438D02*
X121741982Y-118091057D01*
X121741982Y-118091057D02*
X121837220Y-118233914D01*
X121837220Y-118233914D02*
X121884839Y-118424390D01*
X121884839Y-118424390D02*
X121884839Y-118805342D01*
X121884839Y-118805342D02*
X121837220Y-118900580D01*
X121837220Y-118900580D02*
X121789601Y-118948200D01*
X121789601Y-118948200D02*
X121694363Y-118995819D01*
X121694363Y-118995819D02*
X121503887Y-118995819D01*
X121503887Y-118995819D02*
X121408649Y-118948200D01*
X121408649Y-118948200D02*
X121361030Y-118900580D01*
X121361030Y-118900580D02*
X121313411Y-118805342D01*
X121313411Y-118805342D02*
X121313411Y-118567247D01*
X121313411Y-118567247D02*
X121361030Y-118472009D01*
X121361030Y-118472009D02*
X121408649Y-118424390D01*
X121408649Y-118424390D02*
X121503887Y-118376771D01*
X121503887Y-118376771D02*
X121694363Y-118376771D01*
X121694363Y-118376771D02*
X121789601Y-118424390D01*
X121789601Y-118424390D02*
X121837220Y-118472009D01*
X121837220Y-118472009D02*
X121884839Y-118567247D01*
X120884839Y-118614866D02*
X120122935Y-118614866D01*
X119741982Y-117995819D02*
X119122935Y-117995819D01*
X119122935Y-117995819D02*
X119456268Y-118376771D01*
X119456268Y-118376771D02*
X119313411Y-118376771D01*
X119313411Y-118376771D02*
X119218173Y-118424390D01*
X119218173Y-118424390D02*
X119170554Y-118472009D01*
X119170554Y-118472009D02*
X119122935Y-118567247D01*
X119122935Y-118567247D02*
X119122935Y-118805342D01*
X119122935Y-118805342D02*
X119170554Y-118900580D01*
X119170554Y-118900580D02*
X119218173Y-118948200D01*
X119218173Y-118948200D02*
X119313411Y-118995819D01*
X119313411Y-118995819D02*
X119599125Y-118995819D01*
X119599125Y-118995819D02*
X119694363Y-118948200D01*
X119694363Y-118948200D02*
X119741982Y-118900580D01*
X118503887Y-117995819D02*
X118408649Y-117995819D01*
X118408649Y-117995819D02*
X118313411Y-118043438D01*
X118313411Y-118043438D02*
X118265792Y-118091057D01*
X118265792Y-118091057D02*
X118218173Y-118186295D01*
X118218173Y-118186295D02*
X118170554Y-118376771D01*
X118170554Y-118376771D02*
X118170554Y-118614866D01*
X118170554Y-118614866D02*
X118218173Y-118805342D01*
X118218173Y-118805342D02*
X118265792Y-118900580D01*
X118265792Y-118900580D02*
X118313411Y-118948200D01*
X118313411Y-118948200D02*
X118408649Y-118995819D01*
X118408649Y-118995819D02*
X118503887Y-118995819D01*
X118503887Y-118995819D02*
X118599125Y-118948200D01*
X118599125Y-118948200D02*
X118646744Y-118900580D01*
X118646744Y-118900580D02*
X118694363Y-118805342D01*
X118694363Y-118805342D02*
X118741982Y-118614866D01*
X118741982Y-118614866D02*
X118741982Y-118376771D01*
X118741982Y-118376771D02*
X118694363Y-118186295D01*
X118694363Y-118186295D02*
X118646744Y-118091057D01*
X118646744Y-118091057D02*
X118599125Y-118043438D01*
X118599125Y-118043438D02*
X118503887Y-117995819D01*
X117884839Y-117995819D02*
X117551506Y-118995819D01*
X117551506Y-118995819D02*
X117218173Y-117995819D01*
X148407333Y-88354819D02*
X148407333Y-89069104D01*
X148407333Y-89069104D02*
X148454952Y-89211961D01*
X148454952Y-89211961D02*
X148550190Y-89307200D01*
X148550190Y-89307200D02*
X148693047Y-89354819D01*
X148693047Y-89354819D02*
X148788285Y-89354819D01*
X147931142Y-89354819D02*
X147931142Y-88354819D01*
X147931142Y-88354819D02*
X147550190Y-88354819D01*
X147550190Y-88354819D02*
X147454952Y-88402438D01*
X147454952Y-88402438D02*
X147407333Y-88450057D01*
X147407333Y-88450057D02*
X147359714Y-88545295D01*
X147359714Y-88545295D02*
X147359714Y-88688152D01*
X147359714Y-88688152D02*
X147407333Y-88783390D01*
X147407333Y-88783390D02*
X147454952Y-88831009D01*
X147454952Y-88831009D02*
X147550190Y-88878628D01*
X147550190Y-88878628D02*
X147931142Y-88878628D01*
X146407333Y-89354819D02*
X146978761Y-89354819D01*
X146693047Y-89354819D02*
X146693047Y-88354819D01*
X146693047Y-88354819D02*
X146788285Y-88497676D01*
X146788285Y-88497676D02*
X146883523Y-88592914D01*
X146883523Y-88592914D02*
X146978761Y-88640533D01*
D12*
X150933896Y-87291014D02*
X151291039Y-87291014D01*
X151291039Y-87291014D02*
X151326753Y-87648157D01*
X151326753Y-87648157D02*
X151291039Y-87612442D01*
X151291039Y-87612442D02*
X151219611Y-87576728D01*
X151219611Y-87576728D02*
X151041039Y-87576728D01*
X151041039Y-87576728D02*
X150969611Y-87612442D01*
X150969611Y-87612442D02*
X150933896Y-87648157D01*
X150933896Y-87648157D02*
X150898182Y-87719585D01*
X150898182Y-87719585D02*
X150898182Y-87898157D01*
X150898182Y-87898157D02*
X150933896Y-87969585D01*
X150933896Y-87969585D02*
X150969611Y-88005300D01*
X150969611Y-88005300D02*
X151041039Y-88041014D01*
X151041039Y-88041014D02*
X151219611Y-88041014D01*
X151219611Y-88041014D02*
X151291039Y-88005300D01*
X151291039Y-88005300D02*
X151326753Y-87969585D01*
X150683896Y-87291014D02*
X150433896Y-88041014D01*
X150433896Y-88041014D02*
X150183896Y-87291014D01*
X151362468Y-89729414D02*
X150898182Y-89729414D01*
X150898182Y-89729414D02*
X151148182Y-90015128D01*
X151148182Y-90015128D02*
X151041039Y-90015128D01*
X151041039Y-90015128D02*
X150969611Y-90050842D01*
X150969611Y-90050842D02*
X150933896Y-90086557D01*
X150933896Y-90086557D02*
X150898182Y-90157985D01*
X150898182Y-90157985D02*
X150898182Y-90336557D01*
X150898182Y-90336557D02*
X150933896Y-90407985D01*
X150933896Y-90407985D02*
X150969611Y-90443700D01*
X150969611Y-90443700D02*
X151041039Y-90479414D01*
X151041039Y-90479414D02*
X151255325Y-90479414D01*
X151255325Y-90479414D02*
X151326753Y-90443700D01*
X151326753Y-90443700D02*
X151362468Y-90407985D01*
X150683896Y-89729414D02*
X150433896Y-90479414D01*
X150433896Y-90479414D02*
X150183896Y-89729414D01*
X150005325Y-89729414D02*
X149541039Y-89729414D01*
X149541039Y-89729414D02*
X149791039Y-90015128D01*
X149791039Y-90015128D02*
X149683896Y-90015128D01*
X149683896Y-90015128D02*
X149612468Y-90050842D01*
X149612468Y-90050842D02*
X149576753Y-90086557D01*
X149576753Y-90086557D02*
X149541039Y-90157985D01*
X149541039Y-90157985D02*
X149541039Y-90336557D01*
X149541039Y-90336557D02*
X149576753Y-90407985D01*
X149576753Y-90407985D02*
X149612468Y-90443700D01*
X149612468Y-90443700D02*
X149683896Y-90479414D01*
X149683896Y-90479414D02*
X149898182Y-90479414D01*
X149898182Y-90479414D02*
X149969610Y-90443700D01*
X149969610Y-90443700D02*
X150005325Y-90407985D01*
D13*
%TO.C,JP1*%
X149196775Y-90249200D02*
G75*
G03*
X149896775Y-90949200I700000J0D01*
G01*
X152699000Y-90950000D02*
G75*
G03*
X153399000Y-90250000I0J700000D01*
G01*
X149896775Y-86850000D02*
G75*
G03*
X149196775Y-87550000I-1J-699999D01*
G01*
X153399000Y-87550000D02*
G75*
G03*
X152699000Y-86850000I-699999J1D01*
G01*
X149896775Y-90949200D02*
X152699000Y-90950000D01*
X153399000Y-90300000D02*
X153399000Y-87500000D01*
X153599000Y-87700000D02*
X153899000Y-88000000D01*
X153599000Y-87700000D02*
X153899000Y-87400000D01*
X149196775Y-87550000D02*
X149198600Y-90249200D01*
X153899000Y-87400000D02*
X153899000Y-88000000D01*
X152699000Y-86850000D02*
X149896775Y-86850000D01*
%TO.C,G\u002A\u002A\u002A*%
G36*
X138812545Y-91541165D02*
G01*
X138980858Y-91722670D01*
X139023685Y-92212559D01*
X138772578Y-92541319D01*
X138275701Y-92598991D01*
X137742781Y-92219236D01*
X137718137Y-92189228D01*
X137530223Y-91818989D01*
X137777248Y-91547842D01*
X137968895Y-91431784D01*
X138361755Y-91323553D01*
X138812545Y-91541165D01*
G37*
G36*
X144785404Y-92488889D02*
G01*
X144755351Y-92757501D01*
X144440766Y-93296689D01*
X143704553Y-93861107D01*
X143502600Y-93996060D01*
X142869629Y-94572644D01*
X142607931Y-95094095D01*
X142738739Y-95471886D01*
X143283287Y-95617490D01*
X143735193Y-95673334D01*
X144094802Y-95863318D01*
X144166431Y-96229643D01*
X144161766Y-96239823D01*
X143925156Y-96756191D01*
X143409378Y-97111583D01*
X143050016Y-97376620D01*
X142960988Y-97770711D01*
X142893915Y-98067614D01*
X142854745Y-98590833D01*
X142672396Y-98810565D01*
X142273787Y-98630425D01*
X141586394Y-98049405D01*
X141030266Y-97615176D01*
X141542851Y-97615176D01*
X141592634Y-97685115D01*
X141948170Y-97876908D01*
X142155422Y-97919386D01*
X142353490Y-97770711D01*
X142307829Y-97650390D01*
X141948170Y-97508979D01*
X141763502Y-97520717D01*
X141542851Y-97615176D01*
X141030266Y-97615176D01*
X140876759Y-97495317D01*
X140216775Y-97238930D01*
X139797913Y-97430336D01*
X139686899Y-97914298D01*
X139651362Y-98069218D01*
X139644218Y-98321097D01*
X139518376Y-98751017D01*
X139178490Y-98807340D01*
X138877192Y-98627308D01*
X138691572Y-98037664D01*
X138678766Y-97914298D01*
X138840724Y-97914298D01*
X138975830Y-98049405D01*
X139110936Y-97914298D01*
X138975830Y-97779192D01*
X138840724Y-97914298D01*
X138678766Y-97914298D01*
X138640761Y-97548188D01*
X138484989Y-97048783D01*
X138469279Y-96823329D01*
X138836596Y-96564544D01*
X138871446Y-96553213D01*
X138938229Y-96508092D01*
X140056681Y-96508092D01*
X140597107Y-96719331D01*
X140968130Y-96819579D01*
X141824282Y-96914355D01*
X142718049Y-96906751D01*
X143366787Y-96789597D01*
X143514203Y-96688394D01*
X143704553Y-96239823D01*
X143704329Y-96222039D01*
X143597325Y-95990835D01*
X143210683Y-95926771D01*
X142421043Y-96007519D01*
X142046222Y-96063672D01*
X141188624Y-96214364D01*
X140597107Y-96348395D01*
X140056681Y-96508092D01*
X138938229Y-96508092D01*
X139221008Y-96317035D01*
X139110762Y-95887376D01*
X138971970Y-95503154D01*
X138908305Y-94776370D01*
X138886946Y-94412538D01*
X138601387Y-94141328D01*
X137908522Y-93940914D01*
X137752559Y-93905057D01*
X136662575Y-93466908D01*
X136038643Y-92861639D01*
X135906360Y-92304694D01*
X136458634Y-92304694D01*
X136463778Y-92346358D01*
X136595750Y-92788095D01*
X136927276Y-93097956D01*
X137570624Y-93341950D01*
X138638064Y-93586085D01*
X139121899Y-93749088D01*
X139334625Y-94093176D01*
X139381149Y-94796052D01*
X139385005Y-95001984D01*
X139455947Y-95656319D01*
X139588050Y-95983680D01*
X139666621Y-95922826D01*
X139748715Y-95472506D01*
X139750111Y-95423976D01*
X140231304Y-95423976D01*
X140284758Y-95960398D01*
X140295526Y-95984489D01*
X140380115Y-95943859D01*
X140409323Y-95482383D01*
X140407541Y-95398471D01*
X140389127Y-95257206D01*
X140921991Y-95257206D01*
X140999789Y-95404591D01*
X141110050Y-95482383D01*
X141301548Y-95617490D01*
X141398248Y-95587118D01*
X141542851Y-95257206D01*
X141505166Y-95101153D01*
X141163294Y-94896922D01*
X140999500Y-94940579D01*
X140921991Y-95257206D01*
X140389127Y-95257206D01*
X140360758Y-95039567D01*
X140274745Y-95149760D01*
X140231304Y-95423976D01*
X139750111Y-95423976D01*
X139770468Y-94716116D01*
X139768982Y-94597871D01*
X139841562Y-93532249D01*
X140484518Y-93532249D01*
X140645289Y-93649518D01*
X141069979Y-93970654D01*
X141201450Y-94068136D01*
X141480393Y-94181703D01*
X141542851Y-93894193D01*
X141442354Y-93625539D01*
X140957390Y-93455788D01*
X140617221Y-93472562D01*
X140484518Y-93532249D01*
X139841562Y-93532249D01*
X139852256Y-93375241D01*
X139955499Y-93086708D01*
X140239584Y-93086708D01*
X140462000Y-93185575D01*
X140605050Y-93166074D01*
X140642142Y-93005433D01*
X140602538Y-92973094D01*
X140281858Y-93005433D01*
X140239584Y-93086708D01*
X139955499Y-93086708D01*
X140119599Y-92628096D01*
X140564734Y-92374937D01*
X140919087Y-92240671D01*
X141245197Y-91969617D01*
X141813064Y-91969617D01*
X141948170Y-92104724D01*
X142083277Y-91969617D01*
X141948170Y-91834511D01*
X141813064Y-91969617D01*
X141245197Y-91969617D01*
X141407745Y-91834511D01*
X141901071Y-91392593D01*
X142239319Y-91369144D01*
X142353490Y-91834511D01*
X142322151Y-91969617D01*
X142280432Y-92149469D01*
X141919261Y-92374937D01*
X141674134Y-92441087D01*
X141649048Y-92802356D01*
X141687498Y-92935904D01*
X141697073Y-93005433D01*
X141777214Y-93587383D01*
X141790367Y-93894193D01*
X141813064Y-94423632D01*
X141824528Y-94767046D01*
X141902059Y-95257206D01*
X141920888Y-95376248D01*
X142083277Y-95617490D01*
X142260682Y-95451066D01*
X142353490Y-94944442D01*
X142354178Y-94904311D01*
X142590184Y-94268429D01*
X143295889Y-93660931D01*
X143662660Y-93381228D01*
X144182459Y-92624255D01*
X144189125Y-91803100D01*
X143672252Y-90991572D01*
X143281660Y-90675707D01*
X142738782Y-90524600D01*
X141908200Y-90582134D01*
X141656996Y-90614907D01*
X141010705Y-90645071D01*
X140657289Y-90485789D01*
X140410958Y-90074010D01*
X140376606Y-89999888D01*
X140053408Y-89494769D01*
X139762790Y-89518445D01*
X139433712Y-90070673D01*
X139093171Y-90520862D01*
X138377041Y-90900013D01*
X137579697Y-91095425D01*
X136848803Y-91393150D01*
X136504946Y-91774397D01*
X136458634Y-92304694D01*
X135906360Y-92304694D01*
X135875811Y-92176075D01*
X136169129Y-91497042D01*
X136913645Y-90911368D01*
X138104407Y-90505878D01*
X138382241Y-90438788D01*
X138876442Y-90151397D01*
X139061331Y-89595645D01*
X139160390Y-89268942D01*
X139561937Y-88919927D01*
X140084923Y-88892374D01*
X140538599Y-89170138D01*
X140732213Y-89737074D01*
X140786120Y-90065061D01*
X141062942Y-90191685D01*
X141713176Y-90124757D01*
X141767839Y-90116333D01*
X142942901Y-90164976D01*
X143902015Y-90626249D01*
X144548432Y-91425704D01*
X144632549Y-91803100D01*
X144785404Y-92488889D01*
G37*
%TD*%
M02*
