%TF.GenerationSoftware,KiCad,Pcbnew,7.0.9*%
%TF.CreationDate,2023-11-17T16:32:07-08:00*%
%TF.ProjectId,RatGDO-OpenSource-D1Mini-ESP8266-Tubez,52617447-444f-42d4-9f70-656e536f7572,2.5.0*%
%TF.SameCoordinates,Original*%
%TF.FileFunction,Copper,L1,Top*%
%TF.FilePolarity,Positive*%
%FSLAX46Y46*%
G04 Gerber Fmt 4.6, Leading zero omitted, Abs format (unit mm)*
G04 Created by KiCad (PCBNEW 7.0.9) date 2023-11-17 16:32:07*
%MOMM*%
%LPD*%
G01*
G04 APERTURE LIST*
G04 Aperture macros list*
%AMRoundRect*
0 Rectangle with rounded corners*
0 $1 Rounding radius*
0 $2 $3 $4 $5 $6 $7 $8 $9 X,Y pos of 4 corners*
0 Add a 4 corners polygon primitive as box body*
4,1,4,$2,$3,$4,$5,$6,$7,$8,$9,$2,$3,0*
0 Add four circle primitives for the rounded corners*
1,1,$1+$1,$2,$3*
1,1,$1+$1,$4,$5*
1,1,$1+$1,$6,$7*
1,1,$1+$1,$8,$9*
0 Add four rect primitives between the rounded corners*
20,1,$1+$1,$2,$3,$4,$5,0*
20,1,$1+$1,$4,$5,$6,$7,0*
20,1,$1+$1,$6,$7,$8,$9,0*
20,1,$1+$1,$8,$9,$2,$3,0*%
G04 Aperture macros list end*
%TA.AperFunction,SMDPad,CuDef*%
%ADD10RoundRect,0.250000X0.350000X0.450000X-0.350000X0.450000X-0.350000X-0.450000X0.350000X-0.450000X0*%
%TD*%
%TA.AperFunction,SMDPad,CuDef*%
%ADD11RoundRect,0.250000X-0.350000X-0.450000X0.350000X-0.450000X0.350000X0.450000X-0.350000X0.450000X0*%
%TD*%
%TA.AperFunction,SMDPad,CuDef*%
%ADD12R,1.900000X0.800000*%
%TD*%
%TA.AperFunction,SMDPad,CuDef*%
%ADD13RoundRect,0.250000X0.250000X0.250000X-0.250000X0.250000X-0.250000X-0.250000X0.250000X-0.250000X0*%
%TD*%
%TA.AperFunction,SMDPad,CuDef*%
%ADD14RoundRect,0.225000X0.225000X0.375000X-0.225000X0.375000X-0.225000X-0.375000X0.225000X-0.375000X0*%
%TD*%
%TA.AperFunction,ComponentPad*%
%ADD15R,2.000000X2.000000*%
%TD*%
%TA.AperFunction,ComponentPad*%
%ADD16O,2.000000X1.600000*%
%TD*%
%TA.AperFunction,SMDPad,CuDef*%
%ADD17RoundRect,0.250000X0.450000X-0.350000X0.450000X0.350000X-0.450000X0.350000X-0.450000X-0.350000X0*%
%TD*%
%TA.AperFunction,SMDPad,CuDef*%
%ADD18RoundRect,0.250000X0.475000X-0.337500X0.475000X0.337500X-0.475000X0.337500X-0.475000X-0.337500X0*%
%TD*%
%TA.AperFunction,ComponentPad*%
%ADD19R,1.500000X2.000000*%
%TD*%
%TA.AperFunction,ComponentPad*%
%ADD20O,1.500000X2.000000*%
%TD*%
%TA.AperFunction,ComponentPad*%
%ADD21R,2.600000X2.600000*%
%TD*%
%TA.AperFunction,ComponentPad*%
%ADD22C,2.600000*%
%TD*%
%TA.AperFunction,SMDPad,CuDef*%
%ADD23RoundRect,0.250000X-0.475000X0.337500X-0.475000X-0.337500X0.475000X-0.337500X0.475000X0.337500X0*%
%TD*%
%TA.AperFunction,ComponentPad*%
%ADD24R,2.300000X1.700000*%
%TD*%
%TA.AperFunction,ComponentPad*%
%ADD25O,2.300000X1.700000*%
%TD*%
%TA.AperFunction,ViaPad*%
%ADD26C,0.800000*%
%TD*%
%TA.AperFunction,Conductor*%
%ADD27C,0.250000*%
%TD*%
G04 APERTURE END LIST*
D10*
%TO.P,R8,1*%
%TO.N,Net-(Q2-G)*%
X158988000Y-71120000D03*
%TO.P,R8,2*%
%TO.N,/ESP_TX*%
X156988000Y-71120000D03*
%TD*%
D11*
%TO.P,R3,1*%
%TO.N,/ESP_TX*%
X156988000Y-68580000D03*
%TO.P,R3,2*%
%TO.N,GND*%
X158988000Y-68580000D03*
%TD*%
D12*
%TO.P,Q3,1,G*%
%TO.N,Net-(Q3-G)*%
X124412000Y-71562000D03*
%TO.P,Q3,2,S*%
%TO.N,GND*%
X124412000Y-69662000D03*
%TO.P,Q3,3,D*%
%TO.N,STS_DOOR*%
X121412000Y-70612000D03*
%TD*%
D13*
%TO.P,D1,1,K*%
%TO.N,DC_OPEN*%
X153416000Y-100584000D03*
%TO.P,D1,2,A*%
%TO.N,Net-(D1-A)*%
X150916000Y-100584000D03*
%TD*%
D14*
%TO.P,D4,1,K*%
%TO.N,Net-(D4-K)*%
X135254000Y-118618000D03*
%TO.P,D4,2,A*%
%TO.N,+12V*%
X131954000Y-118618000D03*
%TD*%
D15*
%TO.P,U1,1,~{RST}*%
%TO.N,unconnected-(U1-~{RST}-Pad1)*%
X129547500Y-66040000D03*
D16*
%TO.P,U1,2,A0*%
%TO.N,unconnected-(U1-A0-Pad2)*%
X129547500Y-68580000D03*
%TO.P,U1,3,D0*%
%TO.N,Net-(U1-D0)*%
X129547500Y-71120000D03*
%TO.P,U1,4,SCK/D5*%
%TO.N,Net-(D1-A)*%
X129547500Y-73660000D03*
%TO.P,U1,5,MISO/D6*%
%TO.N,Net-(D2-A)*%
X129547500Y-76200000D03*
%TO.P,U1,6,MOSI/D7*%
%TO.N,Net-(U1-MOSI{slash}D7)*%
X129547500Y-78740000D03*
%TO.P,U1,7,CS/D8*%
%TO.N,Net-(U1-CS{slash}D8)*%
X129547500Y-81280000D03*
%TO.P,U1,8,3V3*%
%TO.N,+3V3*%
X129547500Y-83820000D03*
%TO.P,U1,9,5V*%
%TO.N,+5V*%
X152407500Y-83820000D03*
%TO.P,U1,10,GND*%
%TO.N,GND*%
X152407500Y-81280000D03*
%TO.P,U1,11,D4*%
%TO.N,unconnected-(U1-D4-Pad11)*%
X152407500Y-78740000D03*
%TO.P,U1,12,D3*%
%TO.N,Net-(D3-A)*%
X152407500Y-76200000D03*
%TO.P,U1,13,SDA/D2*%
%TO.N,/ESP_RX*%
X152407500Y-73660000D03*
%TO.P,U1,14,SCL/D1*%
%TO.N,/ESP_TX*%
X152407500Y-71120000D03*
%TO.P,U1,15,RX*%
%TO.N,unconnected-(U1-RX-Pad15)*%
X152407500Y-68580000D03*
%TO.P,U1,16,TX*%
%TO.N,unconnected-(U1-TX-Pad16)*%
X152407500Y-66040000D03*
%TD*%
D17*
%TO.P,R6,1*%
%TO.N,RED{slash}CTRL*%
X132588000Y-107950000D03*
%TO.P,R6,2*%
%TO.N,GND*%
X132588000Y-105950000D03*
%TD*%
D18*
%TO.P,C1,1*%
%TO.N,Net-(D4-K)*%
X149606000Y-119380000D03*
%TO.P,C1,2*%
%TO.N,GND*%
X149606000Y-117305000D03*
%TD*%
D10*
%TO.P,R7,1*%
%TO.N,RED{slash}CTRL*%
X160782000Y-81788000D03*
%TO.P,R7,2*%
%TO.N,Net-(Q1-G)*%
X158782000Y-81788000D03*
%TD*%
D12*
%TO.P,Q4,1,G*%
%TO.N,Net-(Q4-G)*%
X124690000Y-86482000D03*
%TO.P,Q4,2,S*%
%TO.N,GND*%
X124690000Y-84582000D03*
%TO.P,Q4,3,D*%
%TO.N,STS_OBST*%
X121690000Y-85532000D03*
%TD*%
D13*
%TO.P,D2,1,K*%
%TO.N,DC_CLOSE*%
X153416000Y-98044000D03*
%TO.P,D2,2,A*%
%TO.N,Net-(D2-A)*%
X150916000Y-98044000D03*
%TD*%
D12*
%TO.P,Q2,1,G*%
%TO.N,Net-(Q2-G)*%
X157338000Y-73406000D03*
%TO.P,Q2,2,S*%
%TO.N,GND*%
X157338000Y-75306000D03*
%TO.P,Q2,3,D*%
%TO.N,RED{slash}CTRL*%
X160338000Y-74356000D03*
%TD*%
D19*
%TO.P,U2,1,IN*%
%TO.N,Net-(D4-K)*%
X154940000Y-119380000D03*
D20*
%TO.P,U2,2,GND*%
%TO.N,GND*%
X157480000Y-119380000D03*
%TO.P,U2,3,OUT*%
%TO.N,+5V*%
X160020000Y-119380000D03*
%TD*%
D13*
%TO.P,D3,1,K*%
%TO.N,DC_LIGHT*%
X153416000Y-95504000D03*
%TO.P,D3,2,A*%
%TO.N,Net-(D3-A)*%
X150916000Y-95504000D03*
%TD*%
D17*
%TO.P,R5,1*%
%TO.N,Net-(U1-CS{slash}D8)*%
X124714000Y-90646000D03*
%TO.P,R5,2*%
%TO.N,Net-(Q4-G)*%
X124714000Y-88646000D03*
%TD*%
D12*
%TO.P,Q1,1,G*%
%TO.N,Net-(Q1-G)*%
X160338000Y-79436000D03*
%TO.P,Q1,2,S*%
%TO.N,GND*%
X160338000Y-77536000D03*
%TO.P,Q1,3,D*%
%TO.N,/ESP_RX*%
X157338000Y-78486000D03*
%TD*%
D21*
%TO.P,J1,1,WHT/GND*%
%TO.N,GND*%
X124714000Y-97282000D03*
D22*
%TO.P,J1,2,RED/CTRL*%
%TO.N,RED{slash}CTRL*%
X124714000Y-102282000D03*
%TO.P,J1,3,BLK/OBST*%
%TO.N,BLK{slash}OBST*%
X124714000Y-107282000D03*
%TD*%
D17*
%TO.P,R4,1*%
%TO.N,Net-(U1-D0)*%
X124460000Y-75660000D03*
%TO.P,R4,2*%
%TO.N,Net-(Q3-G)*%
X124460000Y-73660000D03*
%TD*%
D10*
%TO.P,R2,1*%
%TO.N,Net-(U1-MOSI{slash}D7)*%
X124460000Y-78741000D03*
%TO.P,R2,2*%
%TO.N,GND*%
X122460000Y-78741000D03*
%TD*%
D23*
%TO.P,C2,1*%
%TO.N,+5V*%
X149606000Y-112268000D03*
%TO.P,C2,2*%
%TO.N,GND*%
X149606000Y-114343000D03*
%TD*%
D11*
%TO.P,R1,1*%
%TO.N,BLK{slash}OBST*%
X122444000Y-81280000D03*
%TO.P,R1,2*%
%TO.N,Net-(U1-MOSI{slash}D7)*%
X124444000Y-81280000D03*
%TD*%
D24*
%TO.P,J2,1,WHT/GND*%
%TO.N,GND*%
X161798000Y-110490000D03*
D25*
%TO.P,J2,2,RED/CTRL*%
%TO.N,RED{slash}CTRL*%
X161798000Y-107950000D03*
%TO.P,J2,3,BLK/OBST*%
%TO.N,BLK{slash}OBST*%
X161798000Y-105410000D03*
%TO.P,J2,4,STS_DOOR*%
%TO.N,STS_DOOR*%
X161798000Y-102870000D03*
%TO.P,J2,5,STS_OBST*%
%TO.N,STS_OBST*%
X161798000Y-100330000D03*
%TO.P,J2,6,DC_OPEN*%
%TO.N,DC_OPEN*%
X161798000Y-97790000D03*
%TO.P,J2,7,DC_CLOSE*%
%TO.N,DC_CLOSE*%
X161798000Y-95250000D03*
%TO.P,J2,8,DC_LIGHT*%
%TO.N,DC_LIGHT*%
X161798000Y-92710000D03*
%TO.P,J2,9,3V3*%
%TO.N,+3V3*%
X161798000Y-90170000D03*
%TO.P,J2,10,5V*%
%TO.N,+5V*%
X161798000Y-87630000D03*
%TO.P,J2,11,12V*%
%TO.N,+12V*%
X161798000Y-85090000D03*
%TD*%
D21*
%TO.P,J3,1,GND*%
%TO.N,GND*%
X124714000Y-113538000D03*
D22*
%TO.P,J3,2,6-30V*%
%TO.N,+12V*%
X124714000Y-118538000D03*
%TD*%
D26*
%TO.N,Net-(D2-A)*%
X146050000Y-98044000D03*
%TO.N,STS_DOOR*%
X121412000Y-73152000D03*
%TD*%
D27*
%TO.N,/ESP_RX*%
X155194000Y-74930000D02*
X155194000Y-77597000D01*
X156083000Y-78486000D02*
X157272000Y-78486000D01*
X155194000Y-77597000D02*
X156083000Y-78486000D01*
X154178000Y-73914000D02*
X155194000Y-74930000D01*
X152439315Y-73914000D02*
X154178000Y-73914000D01*
%TO.N,/ESP_TX*%
X152407500Y-71120000D02*
X156988000Y-71120000D01*
X156988000Y-71120000D02*
X156988000Y-68580000D01*
%TO.N,Net-(U1-MOSI{slash}D7)*%
X124222500Y-78860000D02*
X129547500Y-78860000D01*
X124460000Y-78741000D02*
X124460000Y-81264000D01*
%TO.N,DC_OPEN*%
X156464000Y-100584000D02*
X153416000Y-100584000D01*
X161290000Y-97790000D02*
X159258000Y-97790000D01*
X159258000Y-97790000D02*
X156464000Y-100584000D01*
%TO.N,Net-(D1-A)*%
X150916000Y-100584000D02*
X143764000Y-100584000D01*
X141732000Y-98552000D02*
X141732000Y-75946000D01*
X141732000Y-75946000D02*
X139446000Y-73660000D01*
X139446000Y-73660000D02*
X129547500Y-73660000D01*
X143764000Y-100584000D02*
X141732000Y-98552000D01*
%TO.N,DC_CLOSE*%
X156464000Y-98044000D02*
X153416000Y-98044000D01*
X159258000Y-95250000D02*
X156464000Y-98044000D01*
X161290000Y-95250000D02*
X159258000Y-95250000D01*
%TO.N,Net-(D2-A)*%
X146050000Y-98044000D02*
X150916000Y-98044000D01*
%TO.N,DC_LIGHT*%
X156464000Y-95504000D02*
X153416000Y-95504000D01*
X161290000Y-92710000D02*
X159258000Y-92710000D01*
X159258000Y-92710000D02*
X156464000Y-95504000D01*
%TO.N,+5V*%
X149606000Y-112268000D02*
X157988000Y-112268000D01*
X160034700Y-114314700D02*
X160034700Y-119333900D01*
X157988000Y-112268000D02*
X160034700Y-114314700D01*
%TO.N,Net-(D3-A)*%
X150916000Y-95504000D02*
X149860000Y-95504000D01*
X148336000Y-77724000D02*
X149860000Y-76200000D01*
X148336000Y-93980000D02*
X148336000Y-77724000D01*
X149860000Y-95504000D02*
X148336000Y-93980000D01*
X149860000Y-76200000D02*
X152407500Y-76200000D01*
%TO.N,BLK{slash}OBST*%
X122522000Y-107282000D02*
X123792000Y-107282000D01*
X122444000Y-81280000D02*
X121412000Y-81280000D01*
X121412000Y-81280000D02*
X119634000Y-83058000D01*
X119634000Y-104394000D02*
X122522000Y-107282000D01*
X119634000Y-83058000D02*
X119634000Y-104394000D01*
%TO.N,RED{slash}CTRL*%
X132588000Y-107426000D02*
X132064000Y-107950000D01*
X164338000Y-76454000D02*
X162306000Y-74422000D01*
X133112000Y-107950000D02*
X132604000Y-107442000D01*
X130382000Y-107950000D02*
X124714000Y-102282000D01*
X161036000Y-81788000D02*
X164338000Y-81788000D01*
X132064000Y-107950000D02*
X130382000Y-107950000D01*
X162814000Y-107950000D02*
X164338000Y-106426000D01*
X161290000Y-107950000D02*
X133112000Y-107950000D01*
X164338000Y-106426000D02*
X164338000Y-76454000D01*
X162306000Y-74422000D02*
X160592000Y-74422000D01*
%TO.N,STS_DOOR*%
X121412000Y-73152000D02*
X121412000Y-70612000D01*
%TO.N,STS_OBST*%
X123190000Y-93218000D02*
X121690000Y-91718000D01*
X126492000Y-93218000D02*
X123190000Y-93218000D01*
X161290000Y-100330000D02*
X159258000Y-100330000D01*
X135636000Y-102362000D02*
X126492000Y-93218000D01*
X159258000Y-100330000D02*
X157226000Y-102362000D01*
X121690000Y-91718000D02*
X121690000Y-85532000D01*
X157226000Y-102362000D02*
X135636000Y-102362000D01*
%TO.N,Net-(Q3-G)*%
X124412000Y-71562000D02*
X124412000Y-73612000D01*
%TO.N,Net-(Q4-G)*%
X124714000Y-88646000D02*
X124714000Y-86506000D01*
%TO.N,+12V*%
X124794000Y-118618000D02*
X131700000Y-118618000D01*
%TO.N,Net-(D4-K)*%
X135382000Y-118618000D02*
X136144000Y-119380000D01*
X136144000Y-119380000D02*
X154700700Y-119380000D01*
%TO.N,Net-(Q1-G)*%
X158782000Y-80756000D02*
X158782000Y-81534000D01*
X160338000Y-79200000D02*
X158782000Y-80756000D01*
%TO.N,Net-(Q2-G)*%
X158988000Y-72154100D02*
X157509257Y-73632843D01*
X158988000Y-71120000D02*
X158988000Y-72154100D01*
%TO.N,Net-(U1-D0)*%
X127762000Y-71120000D02*
X129547500Y-71120000D01*
X126746000Y-72136000D02*
X127762000Y-71120000D01*
X128524000Y-71120000D02*
X129547500Y-71120000D01*
X125508000Y-75660000D02*
X126746000Y-74422000D01*
X124460000Y-75660000D02*
X125508000Y-75660000D01*
X126746000Y-74422000D02*
X126746000Y-72136000D01*
%TO.N,Net-(U1-CS{slash}D8)*%
X128270000Y-81280000D02*
X129547500Y-81280000D01*
X127000000Y-89408000D02*
X127000000Y-82550000D01*
X124714000Y-90646000D02*
X125762000Y-90646000D01*
X125762000Y-90646000D02*
X127000000Y-89408000D01*
X127000000Y-82550000D02*
X128270000Y-81280000D01*
%TD*%
%TA.AperFunction,Conductor*%
%TO.N,Net-(D2-A)*%
G36*
X150576356Y-97571392D02*
G01*
X150912069Y-98037159D01*
X150914127Y-98045874D01*
X150912069Y-98050841D01*
X150576356Y-98516607D01*
X150568739Y-98521315D01*
X150561274Y-98520044D01*
X149922109Y-98172323D01*
X149916479Y-98165359D01*
X149916000Y-98162045D01*
X149916000Y-97925954D01*
X149919427Y-97917681D01*
X149922106Y-97915678D01*
X150561276Y-97567954D01*
X150570179Y-97567012D01*
X150576356Y-97571392D01*
G37*
%TD.AperFunction*%
%TD*%
%TA.AperFunction,Conductor*%
%TO.N,RED{slash}CTRL*%
G36*
X163433825Y-107148635D02*
G01*
X163441671Y-107152054D01*
X163608009Y-107318392D01*
X163611436Y-107326665D01*
X163609084Y-107333701D01*
X162753921Y-108469931D01*
X162746208Y-108474480D01*
X162738897Y-108473126D01*
X161805945Y-107955507D01*
X161800373Y-107948497D01*
X161800589Y-107941379D01*
X162095135Y-107108103D01*
X162101122Y-107101447D01*
X162106587Y-107100312D01*
X163433825Y-107148635D01*
G37*
%TD.AperFunction*%
%TD*%
%TA.AperFunction,Conductor*%
%TO.N,Net-(D3-A)*%
G36*
X150576356Y-95031392D02*
G01*
X150912069Y-95497159D01*
X150914127Y-95505874D01*
X150912069Y-95510841D01*
X150576356Y-95976607D01*
X150568739Y-95981315D01*
X150561274Y-95980044D01*
X149922109Y-95632323D01*
X149916479Y-95625359D01*
X149916000Y-95622045D01*
X149916000Y-95385954D01*
X149919427Y-95377681D01*
X149922106Y-95375678D01*
X150561276Y-95027954D01*
X150570179Y-95027012D01*
X150576356Y-95031392D01*
G37*
%TD.AperFunction*%
%TD*%
%TA.AperFunction,Conductor*%
%TO.N,RED{slash}CTRL*%
G36*
X133141761Y-107373920D02*
G01*
X133882353Y-107821586D01*
X133887660Y-107828798D01*
X133888000Y-107831598D01*
X133888000Y-108068401D01*
X133884573Y-108076674D01*
X133882352Y-108078414D01*
X133141763Y-108526078D01*
X133132911Y-108527425D01*
X133127191Y-108524083D01*
X132594543Y-107958016D01*
X132591370Y-107949644D01*
X132594543Y-107941983D01*
X133127192Y-107375914D01*
X133135355Y-107372239D01*
X133141761Y-107373920D01*
G37*
%TD.AperFunction*%
%TD*%
%TA.AperFunction,Conductor*%
%TO.N,RED{slash}CTRL*%
G36*
X161335145Y-81194143D02*
G01*
X161977166Y-81659496D01*
X161981854Y-81667126D01*
X161982000Y-81668969D01*
X161982000Y-81907030D01*
X161978573Y-81915303D01*
X161977166Y-81916503D01*
X161335146Y-82381855D01*
X161326437Y-82383936D01*
X161319624Y-82380254D01*
X160896775Y-81915303D01*
X160788158Y-81795871D01*
X160785128Y-81787446D01*
X160788159Y-81780128D01*
X161319626Y-81195743D01*
X161327726Y-81191930D01*
X161335145Y-81194143D01*
G37*
%TD.AperFunction*%
%TD*%
%TA.AperFunction,Conductor*%
%TO.N,Net-(Q2-G)*%
G36*
X158995985Y-71128508D02*
G01*
X158996614Y-71129235D01*
X159418456Y-71659615D01*
X159490964Y-71750778D01*
X159493432Y-71759386D01*
X159490478Y-71765917D01*
X158896621Y-72421399D01*
X158888526Y-72425229D01*
X158880094Y-72422214D01*
X158879677Y-72421816D01*
X158712874Y-72255013D01*
X158710758Y-72252121D01*
X158455135Y-71758555D01*
X158411096Y-71673523D01*
X158410335Y-71664601D01*
X158413474Y-71659617D01*
X158979448Y-71127989D01*
X158987823Y-71124824D01*
X158995985Y-71128508D01*
G37*
%TD.AperFunction*%
%TD*%
%TA.AperFunction,Conductor*%
%TO.N,Net-(D4-K)*%
G36*
X135709217Y-118416931D02*
G01*
X136106508Y-119162160D01*
X136107376Y-119171073D01*
X136104457Y-119175937D01*
X135938206Y-119342188D01*
X135929933Y-119345615D01*
X135927704Y-119345401D01*
X135280333Y-119219782D01*
X135272864Y-119214842D01*
X135270868Y-119208647D01*
X135253521Y-118624988D01*
X135256701Y-118616618D01*
X135260268Y-118614040D01*
X135693949Y-118411830D01*
X135702895Y-118411441D01*
X135709217Y-118416931D01*
G37*
%TD.AperFunction*%
%TD*%
%TA.AperFunction,Conductor*%
%TO.N,DC_CLOSE*%
G36*
X153770723Y-97567954D02*
G01*
X154409891Y-97915677D01*
X154415521Y-97922640D01*
X154416000Y-97925954D01*
X154416000Y-98162045D01*
X154412573Y-98170318D01*
X154409891Y-98172323D01*
X153770725Y-98520044D01*
X153761820Y-98520987D01*
X153755643Y-98516607D01*
X153419929Y-98050839D01*
X153417872Y-98042126D01*
X153419928Y-98037161D01*
X153755644Y-97571391D01*
X153763260Y-97566684D01*
X153770723Y-97567954D01*
G37*
%TD.AperFunction*%
%TD*%
%TA.AperFunction,Conductor*%
%TO.N,Net-(Q1-G)*%
G36*
X160337195Y-79439132D02*
G01*
X160342001Y-79445337D01*
X160466677Y-79825436D01*
X160466000Y-79834366D01*
X160459770Y-79839999D01*
X159514647Y-80204492D01*
X159505695Y-80204272D01*
X159502164Y-80201849D01*
X159334931Y-80034616D01*
X159331504Y-80026343D01*
X159331630Y-80024631D01*
X159359778Y-79834366D01*
X159386818Y-79651582D01*
X159391419Y-79643900D01*
X159395884Y-79641867D01*
X160328381Y-79437555D01*
X160337195Y-79439132D01*
G37*
%TD.AperFunction*%
%TD*%
%TA.AperFunction,Conductor*%
%TO.N,/ESP_TX*%
G36*
X156996016Y-68586543D02*
G01*
X157562083Y-69119191D01*
X157565760Y-69127355D01*
X157564078Y-69133763D01*
X157116414Y-69874352D01*
X157109201Y-69879660D01*
X157106401Y-69880000D01*
X156869599Y-69880000D01*
X156861326Y-69876573D01*
X156859586Y-69874352D01*
X156411921Y-69133763D01*
X156410574Y-69124911D01*
X156413914Y-69119193D01*
X156979983Y-68586543D01*
X156988356Y-68583370D01*
X156996016Y-68586543D01*
G37*
%TD.AperFunction*%
%TD*%
%TA.AperFunction,Conductor*%
%TO.N,STS_DOOR*%
G36*
X121420261Y-70619282D02*
G01*
X121733251Y-70933054D01*
X121805135Y-71005118D01*
X121808552Y-71013396D01*
X121806493Y-71020009D01*
X121540487Y-71406928D01*
X121532976Y-71411804D01*
X121530846Y-71412000D01*
X121293154Y-71412000D01*
X121284881Y-71408573D01*
X121283513Y-71406928D01*
X121017506Y-71020009D01*
X121015643Y-71011251D01*
X121018863Y-71005119D01*
X121403718Y-70619302D01*
X121411985Y-70615866D01*
X121420261Y-70619282D01*
G37*
%TD.AperFunction*%
%TD*%
%TA.AperFunction,Conductor*%
%TO.N,Net-(Q3-G)*%
G36*
X124420261Y-71569282D02*
G01*
X124733251Y-71883054D01*
X124805135Y-71955118D01*
X124808552Y-71963396D01*
X124806493Y-71970009D01*
X124540487Y-72356928D01*
X124532976Y-72361804D01*
X124530846Y-72362000D01*
X124293154Y-72362000D01*
X124284881Y-72358573D01*
X124283513Y-72356928D01*
X124017506Y-71970009D01*
X124015643Y-71961251D01*
X124018863Y-71955119D01*
X124403718Y-71569302D01*
X124411985Y-71565866D01*
X124420261Y-71569282D01*
G37*
%TD.AperFunction*%
%TD*%
%TA.AperFunction,Conductor*%
%TO.N,DC_LIGHT*%
G36*
X153770723Y-95027954D02*
G01*
X154409891Y-95375677D01*
X154415521Y-95382640D01*
X154416000Y-95385954D01*
X154416000Y-95622045D01*
X154412573Y-95630318D01*
X154409891Y-95632323D01*
X153770725Y-95980044D01*
X153761820Y-95980987D01*
X153755643Y-95976607D01*
X153419929Y-95510839D01*
X153417872Y-95502126D01*
X153419928Y-95497161D01*
X153755644Y-95031391D01*
X153763260Y-95026684D01*
X153770723Y-95027954D01*
G37*
%TD.AperFunction*%
%TD*%
%TA.AperFunction,Conductor*%
%TO.N,/ESP_TX*%
G36*
X156450375Y-70527745D02*
G01*
X156981840Y-71112128D01*
X156984871Y-71120554D01*
X156981840Y-71127872D01*
X156450375Y-71712254D01*
X156442273Y-71716069D01*
X156434853Y-71713855D01*
X155792834Y-71248503D01*
X155788146Y-71240873D01*
X155788000Y-71239030D01*
X155788000Y-71000969D01*
X155791427Y-70992696D01*
X155792834Y-70991496D01*
X156434855Y-70526143D01*
X156443562Y-70524063D01*
X156450375Y-70527745D01*
G37*
%TD.AperFunction*%
%TD*%
%TA.AperFunction,Conductor*%
%TO.N,Net-(D2-A)*%
G36*
X146230696Y-97684890D02*
G01*
X146842437Y-97916141D01*
X146848964Y-97922272D01*
X146850000Y-97927085D01*
X146850000Y-98160914D01*
X146846573Y-98169187D01*
X146842437Y-98171858D01*
X146213655Y-98409551D01*
X146204705Y-98409271D01*
X146198719Y-98403109D01*
X146102306Y-98171858D01*
X146050875Y-98048499D01*
X146050855Y-98039550D01*
X146198719Y-97684889D01*
X146205066Y-97678572D01*
X146213654Y-97678448D01*
X146230696Y-97684890D01*
G37*
%TD.AperFunction*%
%TD*%
%TA.AperFunction,Conductor*%
%TO.N,+12V*%
G36*
X131525854Y-118175157D02*
G01*
X131947109Y-118609858D01*
X131950406Y-118618184D01*
X131947109Y-118626142D01*
X131525854Y-119060842D01*
X131517636Y-119064399D01*
X131510749Y-119062289D01*
X131058997Y-118746493D01*
X131054179Y-118738945D01*
X131054000Y-118736904D01*
X131054000Y-118499095D01*
X131057427Y-118490822D01*
X131058990Y-118489511D01*
X131510750Y-118173709D01*
X131519493Y-118171778D01*
X131525854Y-118175157D01*
G37*
%TD.AperFunction*%
%TD*%
%TA.AperFunction,Conductor*%
%TO.N,Net-(D1-A)*%
G36*
X130062661Y-72925174D02*
G01*
X131340817Y-73531828D01*
X131346821Y-73538471D01*
X131347500Y-73542398D01*
X131347500Y-73777601D01*
X131344073Y-73785874D01*
X131340817Y-73788171D01*
X130062664Y-74394824D01*
X130053720Y-74395275D01*
X130048000Y-74390874D01*
X129632870Y-73785874D01*
X129551041Y-73666619D01*
X129549187Y-73657859D01*
X129551042Y-73653380D01*
X129627194Y-73542398D01*
X130048000Y-72929124D01*
X130055506Y-72924243D01*
X130062661Y-72925174D01*
G37*
%TD.AperFunction*%
%TD*%
%TA.AperFunction,Conductor*%
%TO.N,DC_LIGHT*%
G36*
X161178530Y-91931989D02*
G01*
X161793182Y-92702705D01*
X161795661Y-92711310D01*
X161793182Y-92717295D01*
X161178530Y-93488010D01*
X161170693Y-93492341D01*
X161164317Y-93491262D01*
X159804634Y-92838186D01*
X159798661Y-92831515D01*
X159798000Y-92827639D01*
X159798000Y-92592360D01*
X159801427Y-92584087D01*
X159804631Y-92581814D01*
X161164318Y-91928736D01*
X161173259Y-91928245D01*
X161178530Y-91931989D01*
G37*
%TD.AperFunction*%
%TD*%
%TA.AperFunction,Conductor*%
%TO.N,DC_CLOSE*%
G36*
X161178530Y-94471989D02*
G01*
X161793182Y-95242705D01*
X161795661Y-95251310D01*
X161793182Y-95257295D01*
X161178530Y-96028010D01*
X161170693Y-96032341D01*
X161164317Y-96031262D01*
X159804634Y-95378186D01*
X159798661Y-95371515D01*
X159798000Y-95367639D01*
X159798000Y-95132360D01*
X159801427Y-95124087D01*
X159804631Y-95121814D01*
X161164318Y-94468736D01*
X161173259Y-94468245D01*
X161178530Y-94471989D01*
G37*
%TD.AperFunction*%
%TD*%
%TA.AperFunction,Conductor*%
%TO.N,BLK{slash}OBST*%
G36*
X121870319Y-80743676D02*
G01*
X122436579Y-81271714D01*
X122440293Y-81279862D01*
X122437556Y-81287799D01*
X121924495Y-81898125D01*
X121916548Y-81902252D01*
X121908324Y-81899806D01*
X121906178Y-81898125D01*
X121381869Y-81487397D01*
X121381345Y-81486932D01*
X121213673Y-81319260D01*
X121210246Y-81310987D01*
X121213673Y-81302714D01*
X121214238Y-81302185D01*
X121854651Y-80743417D01*
X121863136Y-80740561D01*
X121870319Y-80743676D01*
G37*
%TD.AperFunction*%
%TD*%
%TA.AperFunction,Conductor*%
%TO.N,DC_OPEN*%
G36*
X153770723Y-100107954D02*
G01*
X154409891Y-100455677D01*
X154415521Y-100462640D01*
X154416000Y-100465954D01*
X154416000Y-100702045D01*
X154412573Y-100710318D01*
X154409891Y-100712323D01*
X153770725Y-101060044D01*
X153761820Y-101060987D01*
X153755643Y-101056607D01*
X153419929Y-100590839D01*
X153417872Y-100582126D01*
X153419928Y-100577161D01*
X153755644Y-100111391D01*
X153763260Y-100106684D01*
X153770723Y-100107954D01*
G37*
%TD.AperFunction*%
%TD*%
%TA.AperFunction,Conductor*%
%TO.N,Net-(U1-CS{slash}D8)*%
G36*
X125267563Y-90069220D02*
G01*
X125850256Y-90378600D01*
X125853042Y-90380661D01*
X126019805Y-90547424D01*
X126023232Y-90555697D01*
X126019805Y-90563970D01*
X126019306Y-90564441D01*
X125356493Y-91153756D01*
X125348033Y-91156692D01*
X125341367Y-91154113D01*
X124723099Y-90654629D01*
X124718818Y-90646764D01*
X124721351Y-90638175D01*
X124721924Y-90637518D01*
X125253552Y-90071543D01*
X125261712Y-90067861D01*
X125267563Y-90069220D01*
G37*
%TD.AperFunction*%
%TD*%
%TA.AperFunction,Conductor*%
%TO.N,/ESP_TX*%
G36*
X152922661Y-70385174D02*
G01*
X154200817Y-70991828D01*
X154206821Y-70998471D01*
X154207500Y-71002398D01*
X154207500Y-71237601D01*
X154204073Y-71245874D01*
X154200817Y-71248171D01*
X152922664Y-71854824D01*
X152913720Y-71855275D01*
X152908000Y-71850874D01*
X152492870Y-71245874D01*
X152411041Y-71126619D01*
X152409187Y-71117859D01*
X152411042Y-71113380D01*
X152487194Y-71002398D01*
X152908000Y-70389124D01*
X152915506Y-70384243D01*
X152922661Y-70385174D01*
G37*
%TD.AperFunction*%
%TD*%
%TA.AperFunction,Conductor*%
%TO.N,Net-(U1-CS{slash}D8)*%
G36*
X128789375Y-80719888D02*
G01*
X129539109Y-81272586D01*
X129543734Y-81280254D01*
X129541818Y-81288617D01*
X129046030Y-82012277D01*
X129038527Y-82017165D01*
X129033357Y-82016967D01*
X127991958Y-81738661D01*
X127986706Y-81735631D01*
X127821001Y-81569926D01*
X127817574Y-81561653D01*
X127821001Y-81553380D01*
X127821578Y-81552840D01*
X128142511Y-81272586D01*
X128774739Y-80720493D01*
X128783224Y-80717634D01*
X128789375Y-80719888D01*
G37*
%TD.AperFunction*%
%TD*%
%TA.AperFunction,Conductor*%
%TO.N,STS_OBST*%
G36*
X161178530Y-99551989D02*
G01*
X161793182Y-100322705D01*
X161795661Y-100331310D01*
X161793182Y-100337295D01*
X161178530Y-101108010D01*
X161170693Y-101112341D01*
X161164317Y-101111262D01*
X159804634Y-100458186D01*
X159798661Y-100451515D01*
X159798000Y-100447639D01*
X159798000Y-100212360D01*
X159801427Y-100204087D01*
X159804631Y-100201814D01*
X161164318Y-99548736D01*
X161173259Y-99548245D01*
X161178530Y-99551989D01*
G37*
%TD.AperFunction*%
%TD*%
%TA.AperFunction,Conductor*%
%TO.N,BLK{slash}OBST*%
G36*
X123951418Y-106264496D02*
G01*
X124709080Y-107275201D01*
X124711300Y-107283876D01*
X124708604Y-107289830D01*
X123888428Y-108247317D01*
X123880443Y-108251371D01*
X123873303Y-108249604D01*
X122369638Y-107301831D01*
X122364467Y-107294520D01*
X122365979Y-107285694D01*
X122367600Y-107283664D01*
X122533035Y-107118229D01*
X122535203Y-107116522D01*
X123935961Y-106261526D01*
X123944807Y-106260142D01*
X123951418Y-106264496D01*
G37*
%TD.AperFunction*%
%TD*%
%TA.AperFunction,Conductor*%
%TO.N,Net-(U1-MOSI{slash}D7)*%
G36*
X125049020Y-78202678D02*
G01*
X125655986Y-78731503D01*
X125659972Y-78739520D01*
X125660000Y-78740323D01*
X125660000Y-78978224D01*
X125656573Y-78986497D01*
X125654123Y-78988372D01*
X124958647Y-79387417D01*
X124949765Y-79388562D01*
X124943478Y-79384308D01*
X124645297Y-78988372D01*
X124465320Y-78749392D01*
X124463081Y-78740723D01*
X124466667Y-78733817D01*
X125033337Y-78202959D01*
X125041716Y-78199805D01*
X125049020Y-78202678D01*
G37*
%TD.AperFunction*%
%TD*%
%TA.AperFunction,Conductor*%
%TO.N,Net-(Q1-G)*%
G36*
X158891390Y-80486400D02*
G01*
X158891795Y-80486787D01*
X159058602Y-80653594D01*
X159060727Y-80656503D01*
X159358921Y-81234482D01*
X159359669Y-81243405D01*
X159356533Y-81248374D01*
X158790562Y-81779999D01*
X158782186Y-81783165D01*
X158774024Y-81779481D01*
X158773387Y-81778743D01*
X158279817Y-81156702D01*
X158277359Y-81148092D01*
X158280321Y-81141563D01*
X158874862Y-80487191D01*
X158882962Y-80483373D01*
X158891390Y-80486400D01*
G37*
%TD.AperFunction*%
%TD*%
%TA.AperFunction,Conductor*%
%TO.N,STS_DOOR*%
G36*
X121537188Y-72355427D02*
G01*
X121539859Y-72359563D01*
X121777551Y-72988344D01*
X121777271Y-72997294D01*
X121771109Y-73003280D01*
X121416502Y-73151123D01*
X121407548Y-73151144D01*
X121407498Y-73151123D01*
X121052890Y-73003280D01*
X121046572Y-72996933D01*
X121046448Y-72988345D01*
X121284141Y-72359562D01*
X121290272Y-72353036D01*
X121295085Y-72352000D01*
X121528915Y-72352000D01*
X121537188Y-72355427D01*
G37*
%TD.AperFunction*%
%TD*%
%TA.AperFunction,Conductor*%
%TO.N,Net-(Q4-G)*%
G36*
X124841304Y-87449427D02*
G01*
X124842504Y-87450834D01*
X125307855Y-88092853D01*
X125309936Y-88101562D01*
X125306254Y-88108375D01*
X124721872Y-88639840D01*
X124713446Y-88642871D01*
X124706128Y-88639840D01*
X124121745Y-88108375D01*
X124117930Y-88100273D01*
X124120143Y-88092855D01*
X124585496Y-87450833D01*
X124593126Y-87446146D01*
X124594969Y-87446000D01*
X124833031Y-87446000D01*
X124841304Y-87449427D01*
G37*
%TD.AperFunction*%
%TD*%
%TA.AperFunction,Conductor*%
%TO.N,Net-(Q2-G)*%
G36*
X158332619Y-72637691D02*
G01*
X158335676Y-72639891D01*
X158501524Y-72805739D01*
X158504951Y-72814012D01*
X158503843Y-72818981D01*
X158290710Y-73273307D01*
X158284094Y-73279342D01*
X158281675Y-73279934D01*
X157347315Y-73405361D01*
X157338659Y-73403065D01*
X157334510Y-73396984D01*
X157225692Y-73016755D01*
X157226710Y-73007862D01*
X157233222Y-73002445D01*
X158323686Y-72637070D01*
X158332619Y-72637691D01*
G37*
%TD.AperFunction*%
%TD*%
%TA.AperFunction,Conductor*%
%TO.N,Net-(Q3-G)*%
G36*
X124539570Y-72463427D02*
G01*
X124540513Y-72464492D01*
X125031602Y-73092401D01*
X125034000Y-73101029D01*
X125030529Y-73108010D01*
X124467647Y-73653588D01*
X124459321Y-73656886D01*
X124451904Y-73654083D01*
X123846205Y-73136595D01*
X123842141Y-73128615D01*
X123844083Y-73121189D01*
X124283525Y-72465188D01*
X124290977Y-72460222D01*
X124293246Y-72460000D01*
X124531297Y-72460000D01*
X124539570Y-72463427D01*
G37*
%TD.AperFunction*%
%TD*%
%TA.AperFunction,Conductor*%
%TO.N,Net-(U1-MOSI{slash}D7)*%
G36*
X124586552Y-79983427D02*
G01*
X124588386Y-79985805D01*
X125020281Y-80726290D01*
X125021489Y-80735163D01*
X125018192Y-80740706D01*
X124452018Y-81273455D01*
X124443644Y-81276629D01*
X124435982Y-81273455D01*
X123870026Y-80740912D01*
X123866349Y-80732747D01*
X123868124Y-80726186D01*
X124331563Y-79985494D01*
X124338857Y-79980298D01*
X124341482Y-79980000D01*
X124578279Y-79980000D01*
X124586552Y-79983427D01*
G37*
%TD.AperFunction*%
%TD*%
%TA.AperFunction,Conductor*%
%TO.N,/ESP_RX*%
G36*
X153180082Y-73099185D02*
G01*
X154152027Y-73785504D01*
X154156807Y-73793074D01*
X154156977Y-73795060D01*
X154156977Y-74030207D01*
X154153550Y-74038480D01*
X154148532Y-74041445D01*
X152921766Y-74396752D01*
X152912866Y-74395762D01*
X152908864Y-74392134D01*
X152666199Y-74038480D01*
X152412895Y-73669321D01*
X152411041Y-73660561D01*
X152415595Y-73653288D01*
X153166391Y-73099327D01*
X153175080Y-73097174D01*
X153180082Y-73099185D01*
G37*
%TD.AperFunction*%
%TD*%
%TA.AperFunction,Conductor*%
%TO.N,RED{slash}CTRL*%
G36*
X161291016Y-74004514D02*
G01*
X161293093Y-74005737D01*
X161683246Y-74293493D01*
X161687869Y-74301161D01*
X161688000Y-74302908D01*
X161688000Y-74539912D01*
X161684573Y-74548185D01*
X161681718Y-74550282D01*
X161292879Y-74753450D01*
X161283960Y-74754244D01*
X161282925Y-74753865D01*
X160364218Y-74367448D01*
X160357920Y-74361081D01*
X160357969Y-74352127D01*
X160364336Y-74345829D01*
X160364624Y-74345716D01*
X161282068Y-74004189D01*
X161291016Y-74004514D01*
G37*
%TD.AperFunction*%
%TD*%
%TA.AperFunction,Conductor*%
%TO.N,Net-(U1-MOSI{slash}D7)*%
G36*
X129047479Y-78009824D02*
G01*
X129543957Y-78733380D01*
X129545812Y-78742141D01*
X129543957Y-78746620D01*
X129046599Y-79471457D01*
X129039093Y-79476339D01*
X129032710Y-79475741D01*
X127778827Y-78987901D01*
X127772359Y-78981707D01*
X127771369Y-78976997D01*
X127771369Y-78741750D01*
X127774796Y-78733477D01*
X127777212Y-78731622D01*
X129031978Y-78006314D01*
X129040854Y-78005141D01*
X129047479Y-78009824D01*
G37*
%TD.AperFunction*%
%TD*%
%TA.AperFunction,Conductor*%
%TO.N,GND*%
G36*
X158168590Y-67329685D02*
G01*
X158214345Y-67382489D01*
X158224289Y-67451647D01*
X158195264Y-67515203D01*
X158174830Y-67532579D01*
X158175323Y-67533202D01*
X158169655Y-67537683D01*
X158045684Y-67661654D01*
X157953643Y-67810875D01*
X157953640Y-67810883D01*
X157938698Y-67855974D01*
X157898925Y-67913418D01*
X157834409Y-67940240D01*
X157765633Y-67927924D01*
X157721223Y-67890601D01*
X157660151Y-67807851D01*
X157587987Y-67754592D01*
X157550882Y-67727207D01*
X157550880Y-67727206D01*
X157422700Y-67682353D01*
X157392270Y-67679500D01*
X157392266Y-67679500D01*
X156583734Y-67679500D01*
X156583730Y-67679500D01*
X156553300Y-67682353D01*
X156553298Y-67682353D01*
X156425119Y-67727206D01*
X156425117Y-67727207D01*
X156315850Y-67807850D01*
X156235207Y-67917117D01*
X156235206Y-67917119D01*
X156190353Y-68045298D01*
X156190353Y-68045300D01*
X156187500Y-68075730D01*
X156187500Y-69084269D01*
X156190353Y-69114699D01*
X156190353Y-69114701D01*
X156235207Y-69242882D01*
X156235206Y-69242882D01*
X156247584Y-69259652D01*
X156250757Y-69264394D01*
X156522747Y-69714356D01*
X156565964Y-69785852D01*
X156583798Y-69853407D01*
X156565964Y-69914144D01*
X156295847Y-70361009D01*
X156262501Y-70397263D01*
X155747018Y-70770900D01*
X155681185Y-70794306D01*
X155674245Y-70794500D01*
X154292261Y-70794500D01*
X154239092Y-70782522D01*
X153010790Y-70199529D01*
X153010776Y-70199524D01*
X152978701Y-70190082D01*
X152971753Y-70187579D01*
X152908558Y-70160460D01*
X152709241Y-70119500D01*
X152156758Y-70119500D01*
X152156757Y-70119500D01*
X152005060Y-70134925D01*
X151810920Y-70195837D01*
X151810905Y-70195844D01*
X151633000Y-70294589D01*
X151632995Y-70294592D01*
X151478606Y-70427132D01*
X151478604Y-70427134D01*
X151354054Y-70588037D01*
X151354053Y-70588040D01*
X151264440Y-70770728D01*
X151213437Y-70967714D01*
X151203131Y-71170936D01*
X151233942Y-71372063D01*
X151233945Y-71372075D01*
X151304611Y-71562881D01*
X151304615Y-71562888D01*
X151412245Y-71735567D01*
X151412249Y-71735572D01*
X151528389Y-71857751D01*
X151552441Y-71883053D01*
X151664352Y-71960945D01*
X151719449Y-71999294D01*
X151719450Y-71999294D01*
X151719451Y-71999295D01*
X151906442Y-72079540D01*
X152105759Y-72120500D01*
X152658243Y-72120500D01*
X152809939Y-72105074D01*
X152858475Y-72089845D01*
X153004088Y-72044159D01*
X153008702Y-72041597D01*
X153012183Y-72039807D01*
X153823567Y-71654699D01*
X154239091Y-71457478D01*
X154292260Y-71445500D01*
X155674247Y-71445500D01*
X155741286Y-71465185D01*
X155747011Y-71469095D01*
X156283220Y-71857752D01*
X156310220Y-71884521D01*
X156315848Y-71892148D01*
X156315850Y-71892150D01*
X156425118Y-71972793D01*
X156454414Y-71983044D01*
X156553299Y-72017646D01*
X156583730Y-72020500D01*
X156583734Y-72020500D01*
X157392270Y-72020500D01*
X157422699Y-72017646D01*
X157422701Y-72017646D01*
X157486790Y-71995219D01*
X157550882Y-71972793D01*
X157660150Y-71892150D01*
X157740793Y-71782882D01*
X157763219Y-71718790D01*
X157785646Y-71654701D01*
X157785646Y-71654699D01*
X157788500Y-71624269D01*
X157788500Y-70615730D01*
X157785903Y-70588040D01*
X157785646Y-70585301D01*
X157740793Y-70457118D01*
X157728396Y-70440320D01*
X157725246Y-70435612D01*
X157410033Y-69914143D01*
X157392200Y-69846590D01*
X157410034Y-69785853D01*
X157413573Y-69779999D01*
X157715444Y-69280600D01*
X157766969Y-69233413D01*
X157835828Y-69221571D01*
X157900157Y-69248838D01*
X157939268Y-69305743D01*
X157953642Y-69349121D01*
X157953643Y-69349124D01*
X158045684Y-69498345D01*
X158169654Y-69622315D01*
X158318875Y-69714356D01*
X158318880Y-69714358D01*
X158485302Y-69769505D01*
X158485309Y-69769506D01*
X158588019Y-69779999D01*
X158737999Y-69779999D01*
X158738000Y-69779998D01*
X158738000Y-68830000D01*
X159238000Y-68830000D01*
X159238000Y-69779999D01*
X159387972Y-69779999D01*
X159387986Y-69779998D01*
X159490697Y-69769505D01*
X159657119Y-69714358D01*
X159657124Y-69714356D01*
X159806345Y-69622315D01*
X159930315Y-69498345D01*
X160022356Y-69349124D01*
X160022358Y-69349119D01*
X160077505Y-69182697D01*
X160077506Y-69182690D01*
X160087999Y-69079986D01*
X160088000Y-69079973D01*
X160088000Y-68830000D01*
X159238000Y-68830000D01*
X158738000Y-68830000D01*
X158738000Y-68454000D01*
X158757685Y-68386961D01*
X158810489Y-68341206D01*
X158862000Y-68330000D01*
X160087999Y-68330000D01*
X160087999Y-68080028D01*
X160087998Y-68080013D01*
X160077505Y-67977302D01*
X160022358Y-67810880D01*
X160022356Y-67810875D01*
X159930315Y-67661654D01*
X159806344Y-67537683D01*
X159800677Y-67533202D01*
X159802069Y-67531440D01*
X159762629Y-67487595D01*
X159751405Y-67418633D01*
X159779246Y-67354549D01*
X159837313Y-67315691D01*
X159874449Y-67310000D01*
X166753500Y-67310000D01*
X166820539Y-67329685D01*
X166866294Y-67382489D01*
X166877500Y-67434000D01*
X166877500Y-122811500D01*
X166857815Y-122878539D01*
X166805011Y-122924294D01*
X166753500Y-122935500D01*
X115186500Y-122935500D01*
X115119461Y-122915815D01*
X115073706Y-122863011D01*
X115062500Y-122811500D01*
X115062500Y-118538005D01*
X123208357Y-118538005D01*
X123228890Y-118785812D01*
X123228892Y-118785824D01*
X123289936Y-119026881D01*
X123389826Y-119254606D01*
X123525833Y-119462782D01*
X123525836Y-119462785D01*
X123694256Y-119645738D01*
X123890491Y-119798474D01*
X124109190Y-119916828D01*
X124344386Y-119997571D01*
X124589665Y-120038500D01*
X124838335Y-120038500D01*
X125083614Y-119997571D01*
X125318810Y-119916828D01*
X125537509Y-119798474D01*
X125655207Y-119706865D01*
X125672311Y-119695687D01*
X126856241Y-119054500D01*
X127033568Y-118958464D01*
X127092619Y-118943500D01*
X130943098Y-118943500D01*
X131010137Y-118963185D01*
X131014135Y-118965865D01*
X131335885Y-119190784D01*
X131375323Y-119236114D01*
X131380472Y-119246220D01*
X131380473Y-119246221D01*
X131380476Y-119246225D01*
X131475774Y-119341523D01*
X131475778Y-119341526D01*
X131475780Y-119341528D01*
X131595874Y-119402719D01*
X131595876Y-119402719D01*
X131595878Y-119402720D01*
X131695507Y-119418500D01*
X131695512Y-119418500D01*
X132212493Y-119418500D01*
X132312121Y-119402720D01*
X132312121Y-119402719D01*
X132312126Y-119402719D01*
X132432220Y-119341528D01*
X132527528Y-119246220D01*
X132588719Y-119126126D01*
X132588720Y-119126121D01*
X132604500Y-119026493D01*
X134603500Y-119026493D01*
X134619279Y-119126121D01*
X134619280Y-119126124D01*
X134619281Y-119126126D01*
X134680472Y-119246220D01*
X134680473Y-119246221D01*
X134680476Y-119246225D01*
X134775774Y-119341523D01*
X134775778Y-119341526D01*
X134775780Y-119341528D01*
X134895874Y-119402719D01*
X134895876Y-119402719D01*
X134895878Y-119402720D01*
X134995507Y-119418500D01*
X134995512Y-119418500D01*
X135213709Y-119418500D01*
X135237330Y-119420771D01*
X135614100Y-119493880D01*
X135804485Y-119530823D01*
X135866547Y-119562917D01*
X135868545Y-119564871D01*
X135901863Y-119598189D01*
X135905518Y-119602178D01*
X135931541Y-119633190D01*
X135931543Y-119633191D01*
X135931545Y-119633194D01*
X135931547Y-119633195D01*
X135931548Y-119633196D01*
X135966599Y-119653433D01*
X135971162Y-119656339D01*
X136004316Y-119679554D01*
X136004319Y-119679554D01*
X136009176Y-119681820D01*
X136025933Y-119688760D01*
X136030953Y-119690587D01*
X136030955Y-119690588D01*
X136066806Y-119696909D01*
X136070808Y-119697615D01*
X136076080Y-119698783D01*
X136115193Y-119709264D01*
X136155522Y-119705735D01*
X136160924Y-119705500D01*
X148562393Y-119705500D01*
X148629432Y-119725185D01*
X148675187Y-119777989D01*
X148681330Y-119796417D01*
X148723464Y-119916827D01*
X148728207Y-119930382D01*
X148808850Y-120039650D01*
X148918118Y-120120293D01*
X148960845Y-120135244D01*
X149046299Y-120165146D01*
X149076730Y-120168000D01*
X149076734Y-120168000D01*
X150135270Y-120168000D01*
X150165699Y-120165146D01*
X150165701Y-120165146D01*
X150229790Y-120142719D01*
X150293882Y-120120293D01*
X150403150Y-120039650D01*
X150483793Y-119930382D01*
X150506783Y-119864680D01*
X150531139Y-119795077D01*
X150532548Y-119795570D01*
X150562003Y-119741741D01*
X150623356Y-119708311D01*
X150649607Y-119705500D01*
X153314706Y-119705500D01*
X153381745Y-119725185D01*
X153394089Y-119734241D01*
X153944883Y-120193236D01*
X153983782Y-120251275D01*
X153989500Y-120288495D01*
X153989500Y-120399752D01*
X154001131Y-120458229D01*
X154001132Y-120458230D01*
X154045447Y-120524552D01*
X154111769Y-120568867D01*
X154111770Y-120568868D01*
X154170247Y-120580499D01*
X154170250Y-120580500D01*
X154170252Y-120580500D01*
X155709750Y-120580500D01*
X155709751Y-120580499D01*
X155724568Y-120577552D01*
X155768229Y-120568868D01*
X155768229Y-120568867D01*
X155768231Y-120568867D01*
X155834552Y-120524552D01*
X155878867Y-120458231D01*
X155878867Y-120458229D01*
X155878868Y-120458229D01*
X155890499Y-120399752D01*
X155890500Y-120399750D01*
X155890500Y-119686129D01*
X156230000Y-119686129D01*
X156245116Y-119854096D01*
X156245117Y-119854102D01*
X156304973Y-120070984D01*
X156304978Y-120070997D01*
X156402598Y-120273708D01*
X156402602Y-120273716D01*
X156534851Y-120455741D01*
X156534857Y-120455749D01*
X156697486Y-120611237D01*
X156885266Y-120735191D01*
X157092169Y-120823624D01*
X157092178Y-120823627D01*
X157229999Y-120855084D01*
X157230000Y-120855084D01*
X157230000Y-119815501D01*
X157337685Y-119864680D01*
X157444237Y-119880000D01*
X157515763Y-119880000D01*
X157622315Y-119864680D01*
X157730000Y-119815501D01*
X157730000Y-120857549D01*
X157759267Y-120853586D01*
X157759273Y-120853585D01*
X157973268Y-120784054D01*
X158171401Y-120677434D01*
X158171404Y-120677432D01*
X158347320Y-120537145D01*
X158495352Y-120367707D01*
X158495359Y-120367699D01*
X158610759Y-120174553D01*
X158610761Y-120174548D01*
X158689824Y-119963889D01*
X158689824Y-119963888D01*
X158730000Y-119742505D01*
X158730000Y-119630000D01*
X157913686Y-119630000D01*
X157939493Y-119589844D01*
X157980000Y-119451889D01*
X157980000Y-119308111D01*
X157939493Y-119170156D01*
X157913686Y-119130000D01*
X158730000Y-119130000D01*
X158730000Y-119073874D01*
X158729999Y-119073870D01*
X158714883Y-118905903D01*
X158714882Y-118905897D01*
X158655026Y-118689015D01*
X158655021Y-118689002D01*
X158557401Y-118486291D01*
X158557397Y-118486283D01*
X158425148Y-118304258D01*
X158425142Y-118304250D01*
X158262513Y-118148762D01*
X158074733Y-118024808D01*
X157867830Y-117936375D01*
X157867823Y-117936373D01*
X157730000Y-117904915D01*
X157730000Y-118944498D01*
X157622315Y-118895320D01*
X157515763Y-118880000D01*
X157444237Y-118880000D01*
X157337685Y-118895320D01*
X157230000Y-118944498D01*
X157230000Y-117902449D01*
X157229999Y-117902449D01*
X157200721Y-117906415D01*
X156986731Y-117975945D01*
X156788598Y-118082565D01*
X156788595Y-118082567D01*
X156612679Y-118222854D01*
X156464647Y-118392292D01*
X156464640Y-118392300D01*
X156349240Y-118585446D01*
X156349238Y-118585451D01*
X156270175Y-118796110D01*
X156270175Y-118796111D01*
X156230000Y-119017494D01*
X156230000Y-119130000D01*
X157046314Y-119130000D01*
X157020507Y-119170156D01*
X156980000Y-119308111D01*
X156980000Y-119451889D01*
X157020507Y-119589844D01*
X157046314Y-119630000D01*
X156230000Y-119630000D01*
X156230000Y-119686129D01*
X155890500Y-119686129D01*
X155890500Y-118360249D01*
X155890499Y-118360247D01*
X155878868Y-118301770D01*
X155878867Y-118301769D01*
X155834552Y-118235447D01*
X155768230Y-118191132D01*
X155768229Y-118191131D01*
X155709752Y-118179500D01*
X155709748Y-118179500D01*
X154170252Y-118179500D01*
X154170247Y-118179500D01*
X154111770Y-118191131D01*
X154111769Y-118191132D01*
X154045447Y-118235447D01*
X154001132Y-118301769D01*
X154001131Y-118301770D01*
X153989500Y-118360247D01*
X153989500Y-118471502D01*
X153969815Y-118538541D01*
X153944883Y-118566761D01*
X153394087Y-119025759D01*
X153329984Y-119053555D01*
X153314704Y-119054500D01*
X150649607Y-119054500D01*
X150582568Y-119034815D01*
X150536813Y-118982011D01*
X150530669Y-118963582D01*
X150488821Y-118843988D01*
X150483793Y-118829618D01*
X150403150Y-118720350D01*
X150293882Y-118639707D01*
X150293880Y-118639706D01*
X150229967Y-118617342D01*
X150173191Y-118576620D01*
X150147444Y-118511668D01*
X150160901Y-118443106D01*
X150209288Y-118392703D01*
X150231918Y-118382595D01*
X150400119Y-118326858D01*
X150400124Y-118326856D01*
X150549345Y-118234815D01*
X150673315Y-118110845D01*
X150765356Y-117961624D01*
X150765358Y-117961619D01*
X150820505Y-117795197D01*
X150820506Y-117795190D01*
X150830999Y-117692486D01*
X150831000Y-117692473D01*
X150831000Y-117555000D01*
X148381001Y-117555000D01*
X148381001Y-117692486D01*
X148391494Y-117795197D01*
X148446641Y-117961619D01*
X148446643Y-117961624D01*
X148538684Y-118110845D01*
X148662654Y-118234815D01*
X148811875Y-118326856D01*
X148811882Y-118326859D01*
X148980081Y-118382594D01*
X149037526Y-118422366D01*
X149064350Y-118486882D01*
X149052035Y-118555658D01*
X149004493Y-118606858D01*
X148982035Y-118617341D01*
X148940422Y-118631902D01*
X148918118Y-118639707D01*
X148918117Y-118639707D01*
X148918116Y-118639708D01*
X148808850Y-118720350D01*
X148728207Y-118829617D01*
X148728206Y-118829619D01*
X148680861Y-118964923D01*
X148679451Y-118964429D01*
X148649997Y-119018259D01*
X148588644Y-119051689D01*
X148562393Y-119054500D01*
X136356407Y-119054500D01*
X136289368Y-119034815D01*
X136246985Y-118988834D01*
X135919078Y-118373754D01*
X135904500Y-118315420D01*
X135904500Y-118209506D01*
X135888720Y-118109878D01*
X135888719Y-118109876D01*
X135888719Y-118109874D01*
X135827528Y-117989780D01*
X135827526Y-117989778D01*
X135827523Y-117989774D01*
X135732225Y-117894476D01*
X135732221Y-117894473D01*
X135732220Y-117894472D01*
X135612126Y-117833281D01*
X135612124Y-117833280D01*
X135612121Y-117833279D01*
X135512493Y-117817500D01*
X135512488Y-117817500D01*
X134995512Y-117817500D01*
X134995507Y-117817500D01*
X134895878Y-117833279D01*
X134775778Y-117894473D01*
X134775774Y-117894476D01*
X134680476Y-117989774D01*
X134680473Y-117989778D01*
X134619279Y-118109878D01*
X134603500Y-118209506D01*
X134603500Y-119026493D01*
X132604500Y-119026493D01*
X132604500Y-118209506D01*
X132588720Y-118109878D01*
X132588719Y-118109876D01*
X132588719Y-118109874D01*
X132527528Y-117989780D01*
X132527526Y-117989778D01*
X132527523Y-117989774D01*
X132432225Y-117894476D01*
X132432221Y-117894473D01*
X132432220Y-117894472D01*
X132312126Y-117833281D01*
X132312124Y-117833280D01*
X132312121Y-117833279D01*
X132212493Y-117817500D01*
X132212488Y-117817500D01*
X131695512Y-117817500D01*
X131695507Y-117817500D01*
X131595878Y-117833279D01*
X131475778Y-117894473D01*
X131380470Y-117989782D01*
X131375322Y-117999885D01*
X131335886Y-118045213D01*
X131014141Y-118270130D01*
X130947917Y-118292406D01*
X130943096Y-118292500D01*
X127103899Y-118292500D01*
X127037199Y-118273033D01*
X125772013Y-117465739D01*
X125747489Y-117445194D01*
X125733744Y-117430262D01*
X125537509Y-117277526D01*
X125537507Y-117277525D01*
X125537506Y-117277524D01*
X125318811Y-117159172D01*
X125318802Y-117159169D01*
X125083616Y-117078429D01*
X124943210Y-117055000D01*
X148381000Y-117055000D01*
X149356000Y-117055000D01*
X149356000Y-116217500D01*
X149856000Y-116217500D01*
X149856000Y-117055000D01*
X150830999Y-117055000D01*
X150830999Y-116917528D01*
X150830998Y-116917513D01*
X150820505Y-116814802D01*
X150765358Y-116648380D01*
X150765356Y-116648375D01*
X150673315Y-116499154D01*
X150549345Y-116375184D01*
X150400124Y-116283143D01*
X150400119Y-116283141D01*
X150233697Y-116227994D01*
X150233690Y-116227993D01*
X150130986Y-116217500D01*
X149856000Y-116217500D01*
X149356000Y-116217500D01*
X149081029Y-116217500D01*
X149081012Y-116217501D01*
X148978302Y-116227994D01*
X148811880Y-116283141D01*
X148811875Y-116283143D01*
X148662654Y-116375184D01*
X148538684Y-116499154D01*
X148446643Y-116648375D01*
X148446641Y-116648380D01*
X148391494Y-116814802D01*
X148391493Y-116814809D01*
X148381000Y-116917513D01*
X148381000Y-117055000D01*
X124943210Y-117055000D01*
X124838335Y-117037500D01*
X124589665Y-117037500D01*
X124344383Y-117078429D01*
X124109197Y-117159169D01*
X124109188Y-117159172D01*
X123890493Y-117277524D01*
X123694257Y-117430261D01*
X123525833Y-117613217D01*
X123389826Y-117821393D01*
X123289936Y-118049118D01*
X123228892Y-118290175D01*
X123228890Y-118290187D01*
X123208357Y-118537994D01*
X123208357Y-118538005D01*
X115062500Y-118538005D01*
X115062500Y-114885844D01*
X122914000Y-114885844D01*
X122920401Y-114945372D01*
X122920403Y-114945379D01*
X122970645Y-115080086D01*
X122970649Y-115080093D01*
X123056809Y-115195187D01*
X123056812Y-115195190D01*
X123171906Y-115281350D01*
X123171913Y-115281354D01*
X123306620Y-115331596D01*
X123306627Y-115331598D01*
X123366155Y-115337999D01*
X123366172Y-115338000D01*
X124464000Y-115338000D01*
X124464000Y-114142310D01*
X124472817Y-114147158D01*
X124631886Y-114188000D01*
X124754894Y-114188000D01*
X124876933Y-114172583D01*
X124964000Y-114138110D01*
X124964000Y-115338000D01*
X126061828Y-115338000D01*
X126061844Y-115337999D01*
X126121372Y-115331598D01*
X126121379Y-115331596D01*
X126256086Y-115281354D01*
X126256093Y-115281350D01*
X126371187Y-115195190D01*
X126371190Y-115195187D01*
X126457350Y-115080093D01*
X126457354Y-115080086D01*
X126507596Y-114945379D01*
X126507598Y-114945372D01*
X126513999Y-114885844D01*
X126514000Y-114885827D01*
X126514000Y-113792000D01*
X138722473Y-113792000D01*
X138742563Y-114124136D01*
X138742563Y-114124141D01*
X138742564Y-114124142D01*
X138802544Y-114451441D01*
X138802545Y-114451445D01*
X138802546Y-114451449D01*
X138901530Y-114769104D01*
X138901534Y-114769116D01*
X138901537Y-114769123D01*
X139038102Y-115072557D01*
X139194697Y-115331596D01*
X139210251Y-115357326D01*
X139415460Y-115619255D01*
X139650744Y-115854539D01*
X139912673Y-116059748D01*
X139912678Y-116059751D01*
X139912682Y-116059754D01*
X140197443Y-116231898D01*
X140500877Y-116368463D01*
X140500890Y-116368467D01*
X140500895Y-116368469D01*
X140712665Y-116434458D01*
X140818559Y-116467456D01*
X141145858Y-116527436D01*
X141323740Y-116538196D01*
X141394892Y-116542500D01*
X141394894Y-116542500D01*
X141561108Y-116542500D01*
X141623365Y-116538734D01*
X141810142Y-116527436D01*
X142137441Y-116467456D01*
X142412099Y-116381869D01*
X142455104Y-116368469D01*
X142455104Y-116368468D01*
X142455123Y-116368463D01*
X142758557Y-116231898D01*
X143043318Y-116059754D01*
X143305252Y-115854542D01*
X143540542Y-115619252D01*
X143739847Y-115364858D01*
X143745748Y-115357326D01*
X143745748Y-115357324D01*
X143745754Y-115357318D01*
X143917898Y-115072557D01*
X144054463Y-114769123D01*
X144109345Y-114593000D01*
X148381001Y-114593000D01*
X148381001Y-114730486D01*
X148391494Y-114833197D01*
X148446641Y-114999619D01*
X148446643Y-114999624D01*
X148538684Y-115148845D01*
X148662654Y-115272815D01*
X148811875Y-115364856D01*
X148811880Y-115364858D01*
X148978302Y-115420005D01*
X148978309Y-115420006D01*
X149081019Y-115430499D01*
X149355999Y-115430499D01*
X149356000Y-115430498D01*
X149356000Y-114593000D01*
X149856000Y-114593000D01*
X149856000Y-115430499D01*
X150130972Y-115430499D01*
X150130986Y-115430498D01*
X150233697Y-115420005D01*
X150400119Y-115364858D01*
X150400124Y-115364856D01*
X150549345Y-115272815D01*
X150673315Y-115148845D01*
X150765356Y-114999624D01*
X150765358Y-114999619D01*
X150820505Y-114833197D01*
X150820506Y-114833190D01*
X150830999Y-114730486D01*
X150831000Y-114730473D01*
X150831000Y-114593000D01*
X149856000Y-114593000D01*
X149356000Y-114593000D01*
X148381001Y-114593000D01*
X144109345Y-114593000D01*
X144153456Y-114451441D01*
X144213436Y-114124142D01*
X144215320Y-114093000D01*
X148381000Y-114093000D01*
X150830999Y-114093000D01*
X150830999Y-113955528D01*
X150830998Y-113955513D01*
X150820505Y-113852802D01*
X150765358Y-113686380D01*
X150765356Y-113686375D01*
X150673315Y-113537154D01*
X150549345Y-113413184D01*
X150400124Y-113321143D01*
X150400119Y-113321141D01*
X150231918Y-113265405D01*
X150174473Y-113225632D01*
X150147650Y-113161117D01*
X150159965Y-113092341D01*
X150207508Y-113041141D01*
X150229964Y-113030658D01*
X150293882Y-113008293D01*
X150309096Y-112997063D01*
X150314079Y-112993745D01*
X150872755Y-112659766D01*
X150954217Y-112611068D01*
X151017843Y-112593500D01*
X157801812Y-112593500D01*
X157868851Y-112613185D01*
X157889493Y-112629819D01*
X159672881Y-114413207D01*
X159706366Y-114474530D01*
X159709200Y-114500888D01*
X159709200Y-117547345D01*
X159696925Y-117601137D01*
X159146033Y-118745322D01*
X159146032Y-118745325D01*
X159133941Y-118783706D01*
X159131781Y-118789530D01*
X159108413Y-118843986D01*
X159069500Y-119033343D01*
X159069500Y-119678207D01*
X159084154Y-119822322D01*
X159142022Y-120006759D01*
X159142029Y-120006774D01*
X159235839Y-120175788D01*
X159235842Y-120175793D01*
X159361758Y-120322466D01*
X159361759Y-120322468D01*
X159514624Y-120440794D01*
X159514627Y-120440796D01*
X159688184Y-120525930D01*
X159688188Y-120525931D01*
X159688186Y-120525931D01*
X159875317Y-120574383D01*
X159875320Y-120574383D01*
X159875326Y-120574385D01*
X160068390Y-120584176D01*
X160259474Y-120554903D01*
X160440753Y-120487764D01*
X160604807Y-120385509D01*
X160744919Y-120252323D01*
X160855353Y-120093658D01*
X160931587Y-119916012D01*
X160970500Y-119726656D01*
X160970500Y-119081794D01*
X160967725Y-119054500D01*
X160955845Y-118937677D01*
X160897976Y-118753237D01*
X160897781Y-118752783D01*
X160896170Y-118749594D01*
X160882800Y-118720350D01*
X160508878Y-117902449D01*
X160371426Y-117601794D01*
X160360200Y-117550237D01*
X160360200Y-114331620D01*
X160360436Y-114326213D01*
X160363964Y-114285893D01*
X160353482Y-114246776D01*
X160352316Y-114241518D01*
X160345288Y-114201655D01*
X160345286Y-114201652D01*
X160345286Y-114201650D01*
X160343460Y-114196633D01*
X160336520Y-114179876D01*
X160334254Y-114175019D01*
X160334254Y-114175016D01*
X160311039Y-114141862D01*
X160308133Y-114137299D01*
X160287896Y-114102248D01*
X160287895Y-114102247D01*
X160287894Y-114102245D01*
X160256877Y-114076218D01*
X160252893Y-114072567D01*
X159251704Y-113071378D01*
X158230119Y-112049793D01*
X158226474Y-112045814D01*
X158200456Y-112014807D01*
X158200455Y-112014806D01*
X158189058Y-112008226D01*
X158165392Y-111994561D01*
X158160831Y-111991655D01*
X158147687Y-111982452D01*
X158127684Y-111968446D01*
X158127681Y-111968445D01*
X158122861Y-111966197D01*
X158106055Y-111959235D01*
X158101043Y-111957411D01*
X158061190Y-111950383D01*
X158055910Y-111949212D01*
X158016808Y-111938735D01*
X157981892Y-111941790D01*
X157976481Y-111942264D01*
X157971078Y-111942500D01*
X151017844Y-111942500D01*
X150954218Y-111924932D01*
X150424645Y-111608350D01*
X150314093Y-111542261D01*
X150309090Y-111538931D01*
X150293880Y-111527705D01*
X150272958Y-111520384D01*
X150269019Y-111518853D01*
X150239460Y-111506187D01*
X150239455Y-111506185D01*
X150233495Y-111504530D01*
X150232872Y-111504427D01*
X150231875Y-111504171D01*
X150230278Y-111503818D01*
X150230289Y-111503765D01*
X150212273Y-111499151D01*
X150178347Y-111487279D01*
X150165697Y-111482853D01*
X150135270Y-111480000D01*
X150135266Y-111480000D01*
X149076734Y-111480000D01*
X149076730Y-111480000D01*
X149046300Y-111482853D01*
X149046298Y-111482853D01*
X148918119Y-111527706D01*
X148918117Y-111527707D01*
X148808850Y-111608350D01*
X148728207Y-111717617D01*
X148728206Y-111717619D01*
X148683353Y-111845798D01*
X148683353Y-111845800D01*
X148680500Y-111876230D01*
X148680500Y-112659769D01*
X148683353Y-112690199D01*
X148683353Y-112690201D01*
X148726987Y-112814895D01*
X148728207Y-112818382D01*
X148808850Y-112927650D01*
X148918118Y-113008293D01*
X148982033Y-113030658D01*
X149038807Y-113071378D01*
X149064555Y-113136330D01*
X149051099Y-113204892D01*
X149002712Y-113255295D01*
X148980082Y-113265404D01*
X148811878Y-113321142D01*
X148811875Y-113321143D01*
X148662654Y-113413184D01*
X148538684Y-113537154D01*
X148446643Y-113686375D01*
X148446641Y-113686380D01*
X148391494Y-113852802D01*
X148391493Y-113852809D01*
X148381000Y-113955513D01*
X148381000Y-114093000D01*
X144215320Y-114093000D01*
X144233527Y-113792000D01*
X144213436Y-113459858D01*
X144153456Y-113132559D01*
X144077249Y-112888000D01*
X144054469Y-112814895D01*
X144054467Y-112814890D01*
X144054463Y-112814877D01*
X143917898Y-112511443D01*
X143745754Y-112226682D01*
X143745751Y-112226678D01*
X143745748Y-112226673D01*
X143540539Y-111964744D01*
X143305255Y-111729460D01*
X143043326Y-111524251D01*
X143034397Y-111518853D01*
X142758557Y-111352102D01*
X142455123Y-111215537D01*
X142455116Y-111215534D01*
X142455104Y-111215530D01*
X142137449Y-111116546D01*
X142137445Y-111116545D01*
X142137441Y-111116544D01*
X141810142Y-111056564D01*
X141810141Y-111056563D01*
X141810136Y-111056563D01*
X141561108Y-111041500D01*
X141561106Y-111041500D01*
X141394894Y-111041500D01*
X141394892Y-111041500D01*
X141145863Y-111056563D01*
X141145858Y-111056564D01*
X140818559Y-111116544D01*
X140818556Y-111116544D01*
X140818550Y-111116546D01*
X140500895Y-111215530D01*
X140500879Y-111215536D01*
X140500877Y-111215537D01*
X140307656Y-111302498D01*
X140197447Y-111352100D01*
X140197445Y-111352101D01*
X139912673Y-111524251D01*
X139650744Y-111729460D01*
X139415460Y-111964744D01*
X139210251Y-112226673D01*
X139038101Y-112511445D01*
X139038100Y-112511447D01*
X138901536Y-112814880D01*
X138901530Y-112814895D01*
X138802546Y-113132550D01*
X138802544Y-113132556D01*
X138802544Y-113132559D01*
X138785488Y-113225632D01*
X138742563Y-113459863D01*
X138722473Y-113792000D01*
X126514000Y-113792000D01*
X126514000Y-113788000D01*
X125314728Y-113788000D01*
X125337100Y-113740457D01*
X125367873Y-113579138D01*
X125357561Y-113415234D01*
X125316220Y-113288000D01*
X126514000Y-113288000D01*
X126514000Y-112190172D01*
X126513999Y-112190155D01*
X126507598Y-112130627D01*
X126507596Y-112130620D01*
X126457354Y-111995913D01*
X126457350Y-111995906D01*
X126371190Y-111880812D01*
X126371187Y-111880809D01*
X126256093Y-111794649D01*
X126256086Y-111794645D01*
X126121379Y-111744403D01*
X126121372Y-111744401D01*
X126061844Y-111738000D01*
X124964000Y-111738000D01*
X124964000Y-112933689D01*
X124955183Y-112928842D01*
X124796114Y-112888000D01*
X124673106Y-112888000D01*
X124551067Y-112903417D01*
X124464000Y-112937889D01*
X124464000Y-111738000D01*
X123366155Y-111738000D01*
X123306627Y-111744401D01*
X123306620Y-111744403D01*
X123171913Y-111794645D01*
X123171906Y-111794649D01*
X123056812Y-111880809D01*
X123056809Y-111880812D01*
X122970649Y-111995906D01*
X122970645Y-111995913D01*
X122920403Y-112130620D01*
X122920401Y-112130627D01*
X122914000Y-112190155D01*
X122914000Y-113288000D01*
X124113272Y-113288000D01*
X124090900Y-113335543D01*
X124060127Y-113496862D01*
X124070439Y-113660766D01*
X124111780Y-113788000D01*
X122914000Y-113788000D01*
X122914000Y-114885844D01*
X115062500Y-114885844D01*
X115062500Y-104422808D01*
X119304735Y-104422808D01*
X119315212Y-104461910D01*
X119316383Y-104467190D01*
X119323411Y-104507043D01*
X119325235Y-104512055D01*
X119332197Y-104528861D01*
X119334445Y-104533681D01*
X119334446Y-104533684D01*
X119348452Y-104553687D01*
X119357655Y-104566831D01*
X119360561Y-104571392D01*
X119380806Y-104606455D01*
X119411815Y-104632475D01*
X119415805Y-104636131D01*
X122279863Y-107500189D01*
X122283518Y-107504178D01*
X122309541Y-107535190D01*
X122309543Y-107535191D01*
X122309545Y-107535194D01*
X122309547Y-107535195D01*
X122309548Y-107535196D01*
X122344599Y-107555433D01*
X122349162Y-107558339D01*
X122382316Y-107581554D01*
X122382319Y-107581554D01*
X122387176Y-107583820D01*
X122403933Y-107590760D01*
X122408948Y-107592585D01*
X122408950Y-107592585D01*
X122408955Y-107592588D01*
X122435767Y-107597315D01*
X122480348Y-107614527D01*
X123658224Y-108356954D01*
X123683330Y-108377870D01*
X123694256Y-108389738D01*
X123890491Y-108542474D01*
X124109190Y-108660828D01*
X124344386Y-108741571D01*
X124589665Y-108782500D01*
X124838335Y-108782500D01*
X125083614Y-108741571D01*
X125318810Y-108660828D01*
X125537509Y-108542474D01*
X125733744Y-108389738D01*
X125902164Y-108206785D01*
X126038173Y-107998607D01*
X126138063Y-107770881D01*
X126199108Y-107529821D01*
X126201404Y-107502112D01*
X126219643Y-107282005D01*
X126219643Y-107281994D01*
X126199109Y-107034187D01*
X126199107Y-107034175D01*
X126138063Y-106793118D01*
X126038173Y-106565393D01*
X125902166Y-106357217D01*
X125838154Y-106287682D01*
X125733744Y-106174262D01*
X125537509Y-106021526D01*
X125537507Y-106021525D01*
X125537506Y-106021524D01*
X125318811Y-105903172D01*
X125318802Y-105903169D01*
X125083616Y-105822429D01*
X124838335Y-105781500D01*
X124589665Y-105781500D01*
X124344383Y-105822429D01*
X124109197Y-105903169D01*
X124109188Y-105903172D01*
X123890489Y-106021527D01*
X123732516Y-106144481D01*
X123726732Y-106148478D01*
X123338853Y-106385232D01*
X122643879Y-106809430D01*
X122576403Y-106827556D01*
X122509838Y-106806323D01*
X122491596Y-106791270D01*
X119995819Y-104295493D01*
X119962334Y-104234170D01*
X119959500Y-104207812D01*
X119959500Y-102282005D01*
X123208357Y-102282005D01*
X123228890Y-102529812D01*
X123228892Y-102529824D01*
X123289936Y-102770881D01*
X123389826Y-102998606D01*
X123525833Y-103206782D01*
X123525836Y-103206785D01*
X123694256Y-103389738D01*
X123890491Y-103542474D01*
X124109190Y-103660828D01*
X124344386Y-103741571D01*
X124589665Y-103782500D01*
X124596454Y-103782500D01*
X124627114Y-103786349D01*
X126112537Y-104165415D01*
X126169557Y-104197884D01*
X130139868Y-108168195D01*
X130143523Y-108172184D01*
X130169541Y-108203190D01*
X130169542Y-108203191D01*
X130169545Y-108203194D01*
X130198387Y-108219845D01*
X130204604Y-108223435D01*
X130209154Y-108226333D01*
X130242316Y-108249553D01*
X130242318Y-108249553D01*
X130242319Y-108249554D01*
X130247168Y-108251815D01*
X130263947Y-108258765D01*
X130268952Y-108260587D01*
X130268953Y-108260587D01*
X130268955Y-108260588D01*
X130308829Y-108267618D01*
X130314092Y-108268786D01*
X130325907Y-108271951D01*
X130353193Y-108279263D01*
X130393510Y-108275735D01*
X130398912Y-108275500D01*
X131187880Y-108275500D01*
X131252026Y-108293381D01*
X131903602Y-108687239D01*
X131908339Y-108690410D01*
X131925118Y-108702793D01*
X131951139Y-108711897D01*
X131954780Y-108713303D01*
X131982063Y-108724845D01*
X131982065Y-108724845D01*
X131982066Y-108724846D01*
X131983406Y-108725197D01*
X131988471Y-108726527D01*
X131988500Y-108726531D01*
X131994828Y-108727807D01*
X132003062Y-108730066D01*
X132053301Y-108747646D01*
X132053304Y-108747646D01*
X132053306Y-108747647D01*
X132083730Y-108750500D01*
X132083734Y-108750500D01*
X133092270Y-108750500D01*
X133122699Y-108747646D01*
X133122701Y-108747646D01*
X133223018Y-108712543D01*
X133250882Y-108702793D01*
X133267669Y-108690402D01*
X133272404Y-108687235D01*
X133804265Y-108365741D01*
X133923974Y-108293381D01*
X133988120Y-108275500D01*
X159712563Y-108275500D01*
X159766250Y-108287725D01*
X161049782Y-108904225D01*
X161101690Y-108950994D01*
X161120072Y-109018403D01*
X161099092Y-109085048D01*
X161045411Y-109129771D01*
X160996095Y-109140000D01*
X160600155Y-109140000D01*
X160540627Y-109146401D01*
X160540620Y-109146403D01*
X160405913Y-109196645D01*
X160405906Y-109196649D01*
X160290812Y-109282809D01*
X160290809Y-109282812D01*
X160204649Y-109397906D01*
X160204645Y-109397913D01*
X160154403Y-109532620D01*
X160154401Y-109532627D01*
X160148000Y-109592155D01*
X160148000Y-110240000D01*
X161364314Y-110240000D01*
X161338507Y-110280156D01*
X161298000Y-110418111D01*
X161298000Y-110561889D01*
X161338507Y-110699844D01*
X161364314Y-110740000D01*
X160148000Y-110740000D01*
X160148000Y-111387844D01*
X160154401Y-111447372D01*
X160154403Y-111447379D01*
X160204645Y-111582086D01*
X160204649Y-111582093D01*
X160290809Y-111697187D01*
X160290812Y-111697190D01*
X160405906Y-111783350D01*
X160405913Y-111783354D01*
X160540620Y-111833596D01*
X160540627Y-111833598D01*
X160600155Y-111839999D01*
X160600172Y-111840000D01*
X161548000Y-111840000D01*
X161548000Y-110925501D01*
X161655685Y-110974680D01*
X161762237Y-110990000D01*
X161833763Y-110990000D01*
X161940315Y-110974680D01*
X162048000Y-110925501D01*
X162048000Y-111840000D01*
X162995828Y-111840000D01*
X162995844Y-111839999D01*
X163055372Y-111833598D01*
X163055379Y-111833596D01*
X163190086Y-111783354D01*
X163190093Y-111783350D01*
X163305187Y-111697190D01*
X163305190Y-111697187D01*
X163391350Y-111582093D01*
X163391354Y-111582086D01*
X163441596Y-111447379D01*
X163441598Y-111447372D01*
X163447999Y-111387844D01*
X163448000Y-111387820D01*
X163448000Y-110740000D01*
X162231686Y-110740000D01*
X162257493Y-110699844D01*
X162298000Y-110561889D01*
X162298000Y-110418111D01*
X162257493Y-110280156D01*
X162231686Y-110240000D01*
X163448000Y-110240000D01*
X163448000Y-109592172D01*
X163447999Y-109592155D01*
X163441598Y-109532627D01*
X163441596Y-109532620D01*
X163391354Y-109397913D01*
X163391350Y-109397906D01*
X163305190Y-109282812D01*
X163305187Y-109282809D01*
X163190093Y-109196649D01*
X163190086Y-109196645D01*
X163055379Y-109146403D01*
X163055372Y-109146401D01*
X162995844Y-109140000D01*
X162595187Y-109140000D01*
X162528148Y-109120315D01*
X162482393Y-109067511D01*
X162472449Y-108998353D01*
X162501474Y-108934797D01*
X162536733Y-108906642D01*
X162541255Y-108904225D01*
X162684450Y-108827685D01*
X162844410Y-108696410D01*
X162975685Y-108536450D01*
X163007019Y-108477826D01*
X163017291Y-108461729D01*
X163773276Y-107457277D01*
X163773281Y-107457268D01*
X163775955Y-107453047D01*
X163776771Y-107453563D01*
X163793492Y-107430832D01*
X164556210Y-106668115D01*
X164560172Y-106664484D01*
X164591194Y-106638455D01*
X164611444Y-106603378D01*
X164614333Y-106598845D01*
X164637553Y-106565684D01*
X164637555Y-106565676D01*
X164639816Y-106560828D01*
X164646754Y-106544079D01*
X164648583Y-106539052D01*
X164648588Y-106539045D01*
X164655622Y-106499147D01*
X164656779Y-106493929D01*
X164667263Y-106454807D01*
X164663735Y-106414489D01*
X164663500Y-106409086D01*
X164663500Y-76470920D01*
X164663736Y-76465513D01*
X164664425Y-76457646D01*
X164667264Y-76425193D01*
X164656782Y-76386076D01*
X164655616Y-76380818D01*
X164648588Y-76340955D01*
X164648586Y-76340952D01*
X164648586Y-76340950D01*
X164646760Y-76335933D01*
X164639820Y-76319176D01*
X164637554Y-76314319D01*
X164637554Y-76314316D01*
X164614339Y-76281162D01*
X164611433Y-76276599D01*
X164591196Y-76241548D01*
X164591195Y-76241547D01*
X164591194Y-76241545D01*
X164560177Y-76215518D01*
X164556193Y-76211867D01*
X163559251Y-75214925D01*
X162548119Y-74203793D01*
X162544474Y-74199814D01*
X162518456Y-74168807D01*
X162518455Y-74168806D01*
X162507058Y-74162226D01*
X162483392Y-74148561D01*
X162478831Y-74145655D01*
X162465687Y-74136452D01*
X162445684Y-74122446D01*
X162445681Y-74122445D01*
X162440861Y-74120197D01*
X162424055Y-74113235D01*
X162419043Y-74111411D01*
X162379190Y-74104383D01*
X162373910Y-74103212D01*
X162334808Y-74092735D01*
X162299892Y-74095790D01*
X162294481Y-74096264D01*
X162289078Y-74096500D01*
X161803147Y-74096500D01*
X161736108Y-74076815D01*
X161729545Y-74072293D01*
X161628107Y-73997478D01*
X161505070Y-73906732D01*
X161475572Y-73875831D01*
X161432553Y-73811448D01*
X161366230Y-73767132D01*
X161366229Y-73767131D01*
X161307752Y-73755500D01*
X161307748Y-73755500D01*
X159368252Y-73755500D01*
X159368247Y-73755500D01*
X159309770Y-73767131D01*
X159309769Y-73767132D01*
X159243447Y-73811447D01*
X159199132Y-73877769D01*
X159199131Y-73877770D01*
X159187500Y-73936247D01*
X159187500Y-74775752D01*
X159199131Y-74834229D01*
X159199132Y-74834230D01*
X159243447Y-74900552D01*
X159309769Y-74944867D01*
X159309770Y-74944868D01*
X159368247Y-74956499D01*
X159368250Y-74956500D01*
X159368252Y-74956500D01*
X161279648Y-74956500D01*
X161287762Y-74957033D01*
X161292703Y-74957684D01*
X161302182Y-74958934D01*
X161311101Y-74958140D01*
X161332960Y-74951732D01*
X161338272Y-74950428D01*
X161366231Y-74944867D01*
X161377514Y-74940193D01*
X161377874Y-74941063D01*
X161382769Y-74938776D01*
X161382401Y-74937862D01*
X161388045Y-74935586D01*
X161488591Y-74883051D01*
X161721037Y-74761597D01*
X161778461Y-74747500D01*
X162119812Y-74747500D01*
X162186851Y-74767185D01*
X162207493Y-74783819D01*
X163976181Y-76552507D01*
X164009666Y-76613830D01*
X164012500Y-76640188D01*
X164012500Y-81338500D01*
X163992815Y-81405539D01*
X163940011Y-81451294D01*
X163888500Y-81462500D01*
X162095755Y-81462500D01*
X162028716Y-81442815D01*
X162022982Y-81438900D01*
X162010627Y-81429945D01*
X161486774Y-81050242D01*
X161459781Y-81023480D01*
X161454150Y-81015850D01*
X161344882Y-80935207D01*
X161344880Y-80935206D01*
X161216700Y-80890353D01*
X161186270Y-80887500D01*
X161186266Y-80887500D01*
X160377734Y-80887500D01*
X160377730Y-80887500D01*
X160347300Y-80890353D01*
X160347298Y-80890353D01*
X160219119Y-80935206D01*
X160219117Y-80935207D01*
X160109850Y-81015850D01*
X160029207Y-81125117D01*
X160029206Y-81125119D01*
X159984353Y-81253298D01*
X159984353Y-81253300D01*
X159981500Y-81283730D01*
X159981500Y-82292269D01*
X159984353Y-82322699D01*
X159984353Y-82322701D01*
X160024335Y-82436959D01*
X160029207Y-82450882D01*
X160109850Y-82560150D01*
X160219118Y-82640793D01*
X160261845Y-82655744D01*
X160347299Y-82685646D01*
X160377730Y-82688500D01*
X160377734Y-82688500D01*
X161186270Y-82688500D01*
X161216699Y-82685646D01*
X161216701Y-82685646D01*
X161293349Y-82658825D01*
X161344882Y-82640793D01*
X161454150Y-82560150D01*
X161459784Y-82552515D01*
X161486776Y-82525754D01*
X162022981Y-82137099D01*
X162088813Y-82113694D01*
X162095753Y-82113500D01*
X163888500Y-82113500D01*
X163955539Y-82133185D01*
X164001294Y-82185989D01*
X164012500Y-82237500D01*
X164012500Y-106239811D01*
X163992815Y-106306850D01*
X163976181Y-106327492D01*
X163401446Y-106902226D01*
X163340123Y-106935711D01*
X163309253Y-106938463D01*
X162114067Y-106894948D01*
X162114066Y-106894948D01*
X162114064Y-106894948D01*
X162079112Y-106897897D01*
X162062736Y-106899280D01*
X162057520Y-106899500D01*
X161446392Y-106899500D01*
X161408298Y-106903251D01*
X161292067Y-106914699D01*
X161094041Y-106974769D01*
X161086677Y-106978705D01*
X161078691Y-106982275D01*
X161075347Y-106983494D01*
X159766247Y-107612275D01*
X159712560Y-107624500D01*
X133988121Y-107624500D01*
X133923975Y-107606619D01*
X133633158Y-107430829D01*
X133288602Y-107222555D01*
X133241414Y-107171030D01*
X133229572Y-107102171D01*
X133256839Y-107037842D01*
X133313746Y-106998731D01*
X133357117Y-106984359D01*
X133357124Y-106984356D01*
X133506345Y-106892315D01*
X133630315Y-106768345D01*
X133722356Y-106619124D01*
X133722358Y-106619119D01*
X133777505Y-106452697D01*
X133777506Y-106452690D01*
X133787999Y-106349986D01*
X133788000Y-106349973D01*
X133788000Y-106200000D01*
X131388001Y-106200000D01*
X131388001Y-106349986D01*
X131398494Y-106452697D01*
X131453641Y-106619119D01*
X131453643Y-106619124D01*
X131545684Y-106768345D01*
X131669654Y-106892315D01*
X131818875Y-106984356D01*
X131818882Y-106984359D01*
X131862252Y-106998730D01*
X131919697Y-107038502D01*
X131946521Y-107103017D01*
X131934207Y-107171793D01*
X131887395Y-107222555D01*
X131252025Y-107606619D01*
X131187879Y-107624500D01*
X130568189Y-107624500D01*
X130501150Y-107604815D01*
X130480508Y-107588181D01*
X128592327Y-105700000D01*
X131388000Y-105700000D01*
X132338000Y-105700000D01*
X132338000Y-104850000D01*
X132838000Y-104850000D01*
X132838000Y-105700000D01*
X133787999Y-105700000D01*
X133787999Y-105550028D01*
X133787998Y-105550013D01*
X133777505Y-105447302D01*
X133765144Y-105410000D01*
X160442417Y-105410000D01*
X160462699Y-105615932D01*
X160462700Y-105615934D01*
X160522768Y-105813954D01*
X160620315Y-105996450D01*
X160620317Y-105996452D01*
X160751589Y-106156410D01*
X160848209Y-106235702D01*
X160911550Y-106287685D01*
X161094046Y-106385232D01*
X161292066Y-106445300D01*
X161292065Y-106445300D01*
X161330647Y-106449100D01*
X161446392Y-106460500D01*
X161446395Y-106460500D01*
X162149605Y-106460500D01*
X162149608Y-106460500D01*
X162303934Y-106445300D01*
X162501954Y-106385232D01*
X162684450Y-106287685D01*
X162844410Y-106156410D01*
X162975685Y-105996450D01*
X163073232Y-105813954D01*
X163133300Y-105615934D01*
X163153583Y-105410000D01*
X163133300Y-105204066D01*
X163073232Y-105006046D01*
X162975685Y-104823550D01*
X162923702Y-104760209D01*
X162844410Y-104663589D01*
X162684452Y-104532317D01*
X162684453Y-104532317D01*
X162684450Y-104532315D01*
X162501954Y-104434768D01*
X162303934Y-104374700D01*
X162303932Y-104374699D01*
X162303934Y-104374699D01*
X162184805Y-104362966D01*
X162149608Y-104359500D01*
X161446392Y-104359500D01*
X161408298Y-104363251D01*
X161292067Y-104374699D01*
X161094043Y-104434769D01*
X161033389Y-104467190D01*
X160911550Y-104532315D01*
X160911548Y-104532316D01*
X160911547Y-104532317D01*
X160751589Y-104663589D01*
X160620317Y-104823547D01*
X160620315Y-104823550D01*
X160600568Y-104860494D01*
X160522769Y-105006043D01*
X160462699Y-105204067D01*
X160442417Y-105410000D01*
X133765144Y-105410000D01*
X133722358Y-105280880D01*
X133722356Y-105280875D01*
X133630315Y-105131654D01*
X133506345Y-105007684D01*
X133357124Y-104915643D01*
X133357119Y-104915641D01*
X133190697Y-104860494D01*
X133190690Y-104860493D01*
X133087986Y-104850000D01*
X132838000Y-104850000D01*
X132338000Y-104850000D01*
X132088029Y-104850000D01*
X132088012Y-104850001D01*
X131985302Y-104860494D01*
X131818880Y-104915641D01*
X131818875Y-104915643D01*
X131669654Y-105007684D01*
X131545684Y-105131654D01*
X131453643Y-105280875D01*
X131453641Y-105280880D01*
X131398494Y-105447302D01*
X131398493Y-105447309D01*
X131388000Y-105550013D01*
X131388000Y-105700000D01*
X128592327Y-105700000D01*
X126629663Y-103737336D01*
X126597256Y-103680555D01*
X126388706Y-102870000D01*
X160442417Y-102870000D01*
X160462699Y-103075932D01*
X160462700Y-103075934D01*
X160522768Y-103273954D01*
X160620315Y-103456450D01*
X160620317Y-103456452D01*
X160751589Y-103616410D01*
X160805716Y-103660830D01*
X160911550Y-103747685D01*
X161094046Y-103845232D01*
X161292066Y-103905300D01*
X161292065Y-103905300D01*
X161330647Y-103909100D01*
X161446392Y-103920500D01*
X161446395Y-103920500D01*
X162149605Y-103920500D01*
X162149608Y-103920500D01*
X162303934Y-103905300D01*
X162501954Y-103845232D01*
X162684450Y-103747685D01*
X162844410Y-103616410D01*
X162975685Y-103456450D01*
X163073232Y-103273954D01*
X163133300Y-103075934D01*
X163153583Y-102870000D01*
X163133300Y-102664066D01*
X163073232Y-102466046D01*
X162975685Y-102283550D01*
X162890781Y-102180093D01*
X162844410Y-102123589D01*
X162726677Y-102026969D01*
X162684450Y-101992315D01*
X162501954Y-101894768D01*
X162303934Y-101834700D01*
X162303932Y-101834699D01*
X162303934Y-101834699D01*
X162184805Y-101822966D01*
X162149608Y-101819500D01*
X161446392Y-101819500D01*
X161408298Y-101823251D01*
X161292067Y-101834699D01*
X161094043Y-101894769D01*
X160983898Y-101953643D01*
X160911550Y-101992315D01*
X160911548Y-101992316D01*
X160911547Y-101992317D01*
X160751589Y-102123589D01*
X160620317Y-102283547D01*
X160522769Y-102466043D01*
X160462699Y-102664067D01*
X160442417Y-102870000D01*
X126388706Y-102870000D01*
X126213815Y-102190266D01*
X126210330Y-102169626D01*
X126199108Y-102034179D01*
X126138063Y-101793119D01*
X126038173Y-101565393D01*
X125917377Y-101380500D01*
X125902166Y-101357217D01*
X125854308Y-101305230D01*
X125733744Y-101174262D01*
X125537509Y-101021526D01*
X125537507Y-101021525D01*
X125537506Y-101021524D01*
X125318811Y-100903172D01*
X125318802Y-100903169D01*
X125083616Y-100822429D01*
X124838335Y-100781500D01*
X124589665Y-100781500D01*
X124344383Y-100822429D01*
X124109197Y-100903169D01*
X124109188Y-100903172D01*
X123890493Y-101021524D01*
X123694257Y-101174261D01*
X123525833Y-101357217D01*
X123389826Y-101565393D01*
X123289936Y-101793118D01*
X123228892Y-102034175D01*
X123228890Y-102034187D01*
X123208357Y-102281994D01*
X123208357Y-102282005D01*
X119959500Y-102282005D01*
X119959500Y-98629844D01*
X122914000Y-98629844D01*
X122920401Y-98689372D01*
X122920403Y-98689379D01*
X122970645Y-98824086D01*
X122970649Y-98824093D01*
X123056809Y-98939187D01*
X123056812Y-98939190D01*
X123171906Y-99025350D01*
X123171913Y-99025354D01*
X123306620Y-99075596D01*
X123306627Y-99075598D01*
X123366155Y-99081999D01*
X123366172Y-99082000D01*
X124464000Y-99082000D01*
X124464000Y-97886310D01*
X124472817Y-97891158D01*
X124631886Y-97932000D01*
X124754894Y-97932000D01*
X124876933Y-97916583D01*
X124964000Y-97882110D01*
X124964000Y-99082000D01*
X126061828Y-99082000D01*
X126061844Y-99081999D01*
X126121372Y-99075598D01*
X126121379Y-99075596D01*
X126256086Y-99025354D01*
X126256093Y-99025350D01*
X126371187Y-98939190D01*
X126371190Y-98939187D01*
X126457350Y-98824093D01*
X126457354Y-98824086D01*
X126507596Y-98689379D01*
X126507598Y-98689372D01*
X126513999Y-98629844D01*
X126514000Y-98629827D01*
X126514000Y-97532000D01*
X125314728Y-97532000D01*
X125337100Y-97484457D01*
X125367873Y-97323138D01*
X125357561Y-97159234D01*
X125316220Y-97032000D01*
X126514000Y-97032000D01*
X126514000Y-95934172D01*
X126513999Y-95934155D01*
X126507598Y-95874627D01*
X126507596Y-95874620D01*
X126457354Y-95739913D01*
X126457350Y-95739906D01*
X126371190Y-95624812D01*
X126371187Y-95624809D01*
X126256093Y-95538649D01*
X126256086Y-95538645D01*
X126121379Y-95488403D01*
X126121372Y-95488401D01*
X126061844Y-95482000D01*
X124964000Y-95482000D01*
X124964000Y-96677689D01*
X124955183Y-96672842D01*
X124796114Y-96632000D01*
X124673106Y-96632000D01*
X124551067Y-96647417D01*
X124464000Y-96681889D01*
X124464000Y-95482000D01*
X123366155Y-95482000D01*
X123306627Y-95488401D01*
X123306620Y-95488403D01*
X123171913Y-95538645D01*
X123171906Y-95538649D01*
X123056812Y-95624809D01*
X123056809Y-95624812D01*
X122970649Y-95739906D01*
X122970645Y-95739913D01*
X122920403Y-95874620D01*
X122920401Y-95874627D01*
X122914000Y-95934155D01*
X122914000Y-97032000D01*
X124113272Y-97032000D01*
X124090900Y-97079543D01*
X124060127Y-97240862D01*
X124070439Y-97404766D01*
X124111780Y-97532000D01*
X122914000Y-97532000D01*
X122914000Y-98629844D01*
X119959500Y-98629844D01*
X119959500Y-85951752D01*
X120539500Y-85951752D01*
X120551131Y-86010229D01*
X120551132Y-86010230D01*
X120595447Y-86076552D01*
X120661769Y-86120867D01*
X120661770Y-86120868D01*
X120720247Y-86132499D01*
X120720250Y-86132500D01*
X120720252Y-86132500D01*
X121113235Y-86132500D01*
X121180274Y-86152185D01*
X121215416Y-86186250D01*
X121342681Y-86371361D01*
X121364440Y-86437756D01*
X121364500Y-86441611D01*
X121364500Y-91701078D01*
X121364264Y-91706485D01*
X121360735Y-91746808D01*
X121371212Y-91785910D01*
X121372383Y-91791190D01*
X121379411Y-91831043D01*
X121381235Y-91836055D01*
X121388197Y-91852861D01*
X121390445Y-91857681D01*
X121390446Y-91857684D01*
X121404452Y-91877687D01*
X121413655Y-91890831D01*
X121416561Y-91895392D01*
X121436806Y-91930455D01*
X121467815Y-91956475D01*
X121471805Y-91960131D01*
X122947868Y-93436195D01*
X122951523Y-93440184D01*
X122977541Y-93471190D01*
X122977543Y-93471191D01*
X122977545Y-93471194D01*
X123012605Y-93491435D01*
X123017159Y-93494337D01*
X123050316Y-93517554D01*
X123050319Y-93517554D01*
X123055176Y-93519820D01*
X123071933Y-93526760D01*
X123076953Y-93528587D01*
X123076955Y-93528588D01*
X123116830Y-93535618D01*
X123122087Y-93536784D01*
X123161193Y-93547263D01*
X123201510Y-93543735D01*
X123206912Y-93543500D01*
X126305812Y-93543500D01*
X126372851Y-93563185D01*
X126393493Y-93579819D01*
X135393863Y-102580189D01*
X135397518Y-102584178D01*
X135423541Y-102615190D01*
X135423543Y-102615191D01*
X135423545Y-102615194D01*
X135423547Y-102615195D01*
X135423548Y-102615196D01*
X135458599Y-102635433D01*
X135463162Y-102638339D01*
X135496316Y-102661554D01*
X135496319Y-102661554D01*
X135501176Y-102663820D01*
X135517933Y-102670760D01*
X135522953Y-102672587D01*
X135522955Y-102672588D01*
X135558806Y-102678909D01*
X135562808Y-102679615D01*
X135568080Y-102680783D01*
X135607193Y-102691264D01*
X135647522Y-102687735D01*
X135652924Y-102687500D01*
X157209078Y-102687500D01*
X157214481Y-102687735D01*
X157254807Y-102691264D01*
X157293940Y-102680777D01*
X157299162Y-102679619D01*
X157339045Y-102672588D01*
X157339050Y-102672584D01*
X157344099Y-102670747D01*
X157360824Y-102663819D01*
X157365681Y-102661554D01*
X157365684Y-102661554D01*
X157398841Y-102638335D01*
X157403390Y-102635438D01*
X157438455Y-102615194D01*
X157438459Y-102615190D01*
X157464476Y-102584182D01*
X157468122Y-102580202D01*
X159356507Y-100691819D01*
X159417830Y-100658334D01*
X159444188Y-100655500D01*
X159712563Y-100655500D01*
X159766250Y-100667725D01*
X161075336Y-101296499D01*
X161075340Y-101296500D01*
X161075343Y-101296502D01*
X161075345Y-101296502D01*
X161081265Y-101298851D01*
X161087634Y-101301805D01*
X161094046Y-101305232D01*
X161292066Y-101365300D01*
X161292065Y-101365300D01*
X161330647Y-101369100D01*
X161446392Y-101380500D01*
X161446395Y-101380500D01*
X162149605Y-101380500D01*
X162149608Y-101380500D01*
X162303934Y-101365300D01*
X162501954Y-101305232D01*
X162684450Y-101207685D01*
X162844410Y-101076410D01*
X162975685Y-100916450D01*
X163073232Y-100733954D01*
X163133300Y-100535934D01*
X163153583Y-100330000D01*
X163133300Y-100124066D01*
X163073232Y-99926046D01*
X162975685Y-99743550D01*
X162923702Y-99680209D01*
X162844410Y-99583589D01*
X162684452Y-99452317D01*
X162684453Y-99452317D01*
X162684450Y-99452315D01*
X162501954Y-99354768D01*
X162303934Y-99294700D01*
X162303932Y-99294699D01*
X162303934Y-99294699D01*
X162184805Y-99282966D01*
X162149608Y-99279500D01*
X161446392Y-99279500D01*
X161408298Y-99283251D01*
X161292067Y-99294699D01*
X161094041Y-99354769D01*
X161086677Y-99358705D01*
X161078691Y-99362275D01*
X161075347Y-99363494D01*
X159766247Y-99992275D01*
X159712560Y-100004500D01*
X159274922Y-100004500D01*
X159269518Y-100004264D01*
X159264107Y-100003790D01*
X159229192Y-100000735D01*
X159229191Y-100000735D01*
X159190091Y-100011212D01*
X159184811Y-100012383D01*
X159144959Y-100019410D01*
X159139961Y-100021229D01*
X159123117Y-100028206D01*
X159118313Y-100030446D01*
X159085166Y-100053656D01*
X159080606Y-100056562D01*
X159045548Y-100076804D01*
X159045540Y-100076810D01*
X159019523Y-100107815D01*
X159015869Y-100111804D01*
X157127493Y-102000181D01*
X157066170Y-102033666D01*
X157039812Y-102036500D01*
X135822188Y-102036500D01*
X135755149Y-102016815D01*
X135734507Y-102000181D01*
X131247982Y-97513656D01*
X126734119Y-92999793D01*
X126730474Y-92995814D01*
X126704456Y-92964807D01*
X126704455Y-92964806D01*
X126693058Y-92958226D01*
X126669392Y-92944561D01*
X126664831Y-92941655D01*
X126651687Y-92932452D01*
X126631684Y-92918446D01*
X126631681Y-92918445D01*
X126626861Y-92916197D01*
X126610055Y-92909235D01*
X126605043Y-92907411D01*
X126565190Y-92900383D01*
X126559910Y-92899212D01*
X126520808Y-92888735D01*
X126485892Y-92891790D01*
X126480481Y-92892264D01*
X126475078Y-92892500D01*
X123376189Y-92892500D01*
X123309150Y-92872815D01*
X123288508Y-92856181D01*
X122051819Y-91619492D01*
X122018334Y-91558169D01*
X122015500Y-91531811D01*
X122015500Y-91050269D01*
X123813500Y-91050269D01*
X123816353Y-91080699D01*
X123816353Y-91080701D01*
X123861206Y-91208880D01*
X123861207Y-91208882D01*
X123941850Y-91318150D01*
X124051118Y-91398793D01*
X124093845Y-91413744D01*
X124179299Y-91443646D01*
X124209730Y-91446500D01*
X124209734Y-91446500D01*
X125218270Y-91446500D01*
X125248699Y-91443646D01*
X125248701Y-91443646D01*
X125312790Y-91421219D01*
X125376882Y-91398793D01*
X125486150Y-91318150D01*
X125488526Y-91314929D01*
X125505897Y-91295898D01*
X125890769Y-90953705D01*
X125896407Y-90949249D01*
X125901684Y-90945554D01*
X125934841Y-90922335D01*
X125939390Y-90919438D01*
X125974455Y-90899194D01*
X126000481Y-90868176D01*
X126004122Y-90864202D01*
X126104596Y-90763728D01*
X126107200Y-90761272D01*
X126158138Y-90715984D01*
X126160862Y-90713413D01*
X126167641Y-90703576D01*
X126182051Y-90686273D01*
X127218210Y-89650115D01*
X127222172Y-89646484D01*
X127253194Y-89620455D01*
X127273444Y-89585378D01*
X127276333Y-89580845D01*
X127299553Y-89547684D01*
X127299555Y-89547676D01*
X127301816Y-89542828D01*
X127308754Y-89526079D01*
X127310583Y-89521052D01*
X127310588Y-89521045D01*
X127317622Y-89481147D01*
X127318779Y-89475929D01*
X127329263Y-89436807D01*
X127325735Y-89396489D01*
X127325500Y-89391086D01*
X127325500Y-83870936D01*
X128343131Y-83870936D01*
X128373942Y-84072063D01*
X128373945Y-84072075D01*
X128444611Y-84262881D01*
X128444615Y-84262888D01*
X128552245Y-84435567D01*
X128552247Y-84435569D01*
X128552248Y-84435571D01*
X128692441Y-84583053D01*
X128820844Y-84672424D01*
X128859449Y-84699294D01*
X128859450Y-84699294D01*
X128859451Y-84699295D01*
X129046442Y-84779540D01*
X129245759Y-84820500D01*
X129798243Y-84820500D01*
X129949939Y-84805074D01*
X130144079Y-84744162D01*
X130144080Y-84744161D01*
X130144088Y-84744159D01*
X130322002Y-84645409D01*
X130476395Y-84512866D01*
X130600948Y-84351958D01*
X130690560Y-84169271D01*
X130741563Y-83972285D01*
X130751869Y-83769064D01*
X130721056Y-83567929D01*
X130650386Y-83377113D01*
X130542752Y-83204429D01*
X130402559Y-83056947D01*
X130298918Y-82984811D01*
X130235550Y-82940705D01*
X130048556Y-82860459D01*
X129849241Y-82819500D01*
X129296758Y-82819500D01*
X129296757Y-82819500D01*
X129145060Y-82834925D01*
X128950920Y-82895837D01*
X128950905Y-82895844D01*
X128773000Y-82994589D01*
X128772995Y-82994592D01*
X128618606Y-83127132D01*
X128618604Y-83127134D01*
X128494054Y-83288037D01*
X128494053Y-83288040D01*
X128404440Y-83470728D01*
X128353437Y-83667714D01*
X128343131Y-83870936D01*
X127325500Y-83870936D01*
X127325500Y-82736188D01*
X127345185Y-82669149D01*
X127361819Y-82648507D01*
X127672781Y-82337545D01*
X127994242Y-82016083D01*
X128055563Y-81982600D01*
X128113934Y-81983969D01*
X128980301Y-82215500D01*
X128980303Y-82215500D01*
X128980306Y-82215501D01*
X128983682Y-82216205D01*
X128983626Y-82216471D01*
X129010556Y-82224139D01*
X129046442Y-82239540D01*
X129245759Y-82280500D01*
X129798243Y-82280500D01*
X129949939Y-82265074D01*
X130144079Y-82204162D01*
X130144080Y-82204161D01*
X130144088Y-82204159D01*
X130322002Y-82105409D01*
X130476395Y-81972866D01*
X130600948Y-81811958D01*
X130690560Y-81629271D01*
X130741563Y-81432285D01*
X130751869Y-81229064D01*
X130721056Y-81027929D01*
X130650386Y-80837113D01*
X130547795Y-80672520D01*
X130542754Y-80664432D01*
X130542750Y-80664427D01*
X130402561Y-80516949D01*
X130402560Y-80516948D01*
X130402559Y-80516947D01*
X130273626Y-80427207D01*
X130235550Y-80400705D01*
X130048556Y-80320459D01*
X129849241Y-80279500D01*
X129296758Y-80279500D01*
X129296757Y-80279500D01*
X129145060Y-80294925D01*
X128950920Y-80355837D01*
X128950905Y-80355844D01*
X128773000Y-80454589D01*
X128772995Y-80454592D01*
X128660519Y-80551150D01*
X128641528Y-80564579D01*
X128639573Y-80565701D01*
X128639567Y-80565706D01*
X128208413Y-80942208D01*
X128165985Y-80962513D01*
X128167146Y-80965703D01*
X128151960Y-80971229D01*
X128135122Y-80978204D01*
X128130313Y-80980446D01*
X128097163Y-81003658D01*
X128092602Y-81006564D01*
X128057548Y-81026804D01*
X128057545Y-81026806D01*
X128057543Y-81026807D01*
X128057542Y-81026809D01*
X128031523Y-81057815D01*
X128027869Y-81061803D01*
X127729019Y-81360653D01*
X127725959Y-81363512D01*
X127683742Y-81400380D01*
X127680585Y-81403335D01*
X127680577Y-81403343D01*
X127673985Y-81412863D01*
X127659726Y-81429945D01*
X126781803Y-82307870D01*
X126777814Y-82311525D01*
X126746805Y-82337545D01*
X126726562Y-82372606D01*
X126723656Y-82377166D01*
X126700446Y-82410313D01*
X126698206Y-82415117D01*
X126691229Y-82431961D01*
X126689410Y-82436959D01*
X126682383Y-82476811D01*
X126681212Y-82482091D01*
X126670735Y-82521191D01*
X126673477Y-82552519D01*
X126674144Y-82560149D01*
X126674264Y-82561513D01*
X126674500Y-82566920D01*
X126674500Y-89221811D01*
X126654815Y-89288850D01*
X126638181Y-89309492D01*
X125883408Y-90064264D01*
X125822085Y-90097749D01*
X125752393Y-90092765D01*
X125737577Y-90086103D01*
X125391672Y-89902445D01*
X125377620Y-89893597D01*
X125375710Y-89892587D01*
X125367731Y-89889100D01*
X125367609Y-89889373D01*
X125363924Y-89887713D01*
X125314063Y-89869051D01*
X125314042Y-89869045D01*
X125305137Y-89866977D01*
X125305175Y-89866810D01*
X125290163Y-89862862D01*
X125248701Y-89848354D01*
X125248694Y-89848353D01*
X125218270Y-89845500D01*
X125218266Y-89845500D01*
X124209734Y-89845500D01*
X124209730Y-89845500D01*
X124179300Y-89848353D01*
X124179298Y-89848353D01*
X124051119Y-89893206D01*
X124051117Y-89893207D01*
X123941850Y-89973850D01*
X123861207Y-90083117D01*
X123861206Y-90083119D01*
X123816353Y-90211298D01*
X123816353Y-90211300D01*
X123813500Y-90241730D01*
X123813500Y-91050269D01*
X122015500Y-91050269D01*
X122015500Y-86901752D01*
X123539500Y-86901752D01*
X123551131Y-86960229D01*
X123551132Y-86960230D01*
X123595447Y-87026552D01*
X123661769Y-87070867D01*
X123661770Y-87070868D01*
X123720247Y-87082499D01*
X123720250Y-87082500D01*
X123720252Y-87082500D01*
X124129178Y-87082500D01*
X124196217Y-87102185D01*
X124229908Y-87134185D01*
X124342597Y-87291152D01*
X124365703Y-87357090D01*
X124349492Y-87425053D01*
X124342267Y-87436239D01*
X123976244Y-87941222D01*
X123949483Y-87968216D01*
X123941851Y-87973848D01*
X123941847Y-87973852D01*
X123861207Y-88083118D01*
X123861206Y-88083119D01*
X123816353Y-88211298D01*
X123816353Y-88211300D01*
X123813500Y-88241730D01*
X123813500Y-89050269D01*
X123816353Y-89080699D01*
X123816353Y-89080701D01*
X123861206Y-89208880D01*
X123861207Y-89208882D01*
X123941850Y-89318150D01*
X124051118Y-89398793D01*
X124093845Y-89413744D01*
X124179299Y-89443646D01*
X124209730Y-89446500D01*
X124209734Y-89446500D01*
X125218270Y-89446500D01*
X125248699Y-89443646D01*
X125248701Y-89443646D01*
X125312790Y-89421219D01*
X125376882Y-89398793D01*
X125486150Y-89318150D01*
X125566793Y-89208882D01*
X125598069Y-89119500D01*
X125611646Y-89080701D01*
X125611646Y-89080699D01*
X125614500Y-89050269D01*
X125614500Y-88241730D01*
X125611646Y-88211300D01*
X125611646Y-88211298D01*
X125566793Y-88083119D01*
X125566793Y-88083118D01*
X125486150Y-87973850D01*
X125486147Y-87973848D01*
X125478521Y-87968220D01*
X125451751Y-87941219D01*
X125375438Y-87835934D01*
X125082424Y-87431677D01*
X125059019Y-87365847D01*
X125074921Y-87297810D01*
X125079225Y-87290769D01*
X125179521Y-87138340D01*
X125232813Y-87093157D01*
X125283107Y-87082500D01*
X125659750Y-87082500D01*
X125659751Y-87082499D01*
X125674568Y-87079552D01*
X125718229Y-87070868D01*
X125718229Y-87070867D01*
X125718231Y-87070867D01*
X125784552Y-87026552D01*
X125828867Y-86960231D01*
X125828867Y-86960229D01*
X125828868Y-86960229D01*
X125840499Y-86901752D01*
X125840500Y-86901750D01*
X125840500Y-86062249D01*
X125840499Y-86062247D01*
X125828868Y-86003770D01*
X125828867Y-86003769D01*
X125784552Y-85937447D01*
X125718230Y-85893132D01*
X125718229Y-85893131D01*
X125659752Y-85881500D01*
X125659748Y-85881500D01*
X123720252Y-85881500D01*
X123720247Y-85881500D01*
X123661770Y-85893131D01*
X123661769Y-85893132D01*
X123595447Y-85937447D01*
X123551132Y-86003769D01*
X123551131Y-86003770D01*
X123539500Y-86062247D01*
X123539500Y-86901752D01*
X122015500Y-86901752D01*
X122015500Y-86441611D01*
X122035185Y-86374572D01*
X122037319Y-86371361D01*
X122164583Y-86186250D01*
X122218784Y-86142159D01*
X122266764Y-86132500D01*
X122659750Y-86132500D01*
X122659751Y-86132499D01*
X122674568Y-86129552D01*
X122718229Y-86120868D01*
X122718229Y-86120867D01*
X122718231Y-86120867D01*
X122784552Y-86076552D01*
X122828867Y-86010231D01*
X122828867Y-86010229D01*
X122828868Y-86010229D01*
X122840499Y-85951752D01*
X122840500Y-85951750D01*
X122840500Y-85112249D01*
X122840499Y-85112247D01*
X122828868Y-85053770D01*
X122828867Y-85053769D01*
X122784552Y-84987447D01*
X122718230Y-84943132D01*
X122718229Y-84943131D01*
X122659752Y-84931500D01*
X122659748Y-84931500D01*
X120720252Y-84931500D01*
X120720247Y-84931500D01*
X120661770Y-84943131D01*
X120661769Y-84943132D01*
X120595447Y-84987447D01*
X120551132Y-85053769D01*
X120551131Y-85053770D01*
X120539500Y-85112247D01*
X120539500Y-85951752D01*
X119959500Y-85951752D01*
X119959500Y-84832000D01*
X123240000Y-84832000D01*
X123240000Y-85029844D01*
X123246401Y-85089372D01*
X123246403Y-85089379D01*
X123296645Y-85224086D01*
X123296649Y-85224093D01*
X123382809Y-85339187D01*
X123382812Y-85339190D01*
X123497906Y-85425350D01*
X123497913Y-85425354D01*
X123632620Y-85475596D01*
X123632627Y-85475598D01*
X123692155Y-85481999D01*
X123692172Y-85482000D01*
X124440000Y-85482000D01*
X124440000Y-84832000D01*
X124940000Y-84832000D01*
X124940000Y-85482000D01*
X125687828Y-85482000D01*
X125687844Y-85481999D01*
X125747372Y-85475598D01*
X125747379Y-85475596D01*
X125882086Y-85425354D01*
X125882093Y-85425350D01*
X125997187Y-85339190D01*
X125997190Y-85339187D01*
X126083350Y-85224093D01*
X126083354Y-85224086D01*
X126133596Y-85089379D01*
X126133598Y-85089372D01*
X126139999Y-85029844D01*
X126140000Y-85029827D01*
X126140000Y-84832000D01*
X124940000Y-84832000D01*
X124440000Y-84832000D01*
X123240000Y-84832000D01*
X119959500Y-84832000D01*
X119959500Y-84332000D01*
X123240000Y-84332000D01*
X124440000Y-84332000D01*
X124440000Y-83682000D01*
X124940000Y-83682000D01*
X124940000Y-84332000D01*
X126140000Y-84332000D01*
X126140000Y-84134172D01*
X126139999Y-84134155D01*
X126133598Y-84074627D01*
X126133596Y-84074620D01*
X126083354Y-83939913D01*
X126083350Y-83939906D01*
X125997190Y-83824812D01*
X125997187Y-83824809D01*
X125882093Y-83738649D01*
X125882086Y-83738645D01*
X125747379Y-83688403D01*
X125747372Y-83688401D01*
X125687844Y-83682000D01*
X124940000Y-83682000D01*
X124440000Y-83682000D01*
X123692155Y-83682000D01*
X123632627Y-83688401D01*
X123632620Y-83688403D01*
X123497913Y-83738645D01*
X123497906Y-83738649D01*
X123382812Y-83824809D01*
X123382809Y-83824812D01*
X123296649Y-83939906D01*
X123296645Y-83939913D01*
X123246403Y-84074620D01*
X123246401Y-84074627D01*
X123240000Y-84134155D01*
X123240000Y-84332000D01*
X119959500Y-84332000D01*
X119959500Y-83244187D01*
X119979185Y-83177148D01*
X119995814Y-83156511D01*
X121316538Y-81835786D01*
X121377859Y-81802303D01*
X121447551Y-81807287D01*
X121480685Y-81825854D01*
X121616800Y-81932482D01*
X121781596Y-82061578D01*
X121782915Y-82062259D01*
X121799631Y-82072653D01*
X121881118Y-82132793D01*
X121893427Y-82137100D01*
X122009299Y-82177646D01*
X122039730Y-82180500D01*
X122039734Y-82180500D01*
X122848270Y-82180500D01*
X122878699Y-82177646D01*
X122878701Y-82177646D01*
X122942790Y-82155219D01*
X123006882Y-82132793D01*
X123116150Y-82052150D01*
X123196793Y-81942882D01*
X123237743Y-81825854D01*
X123241646Y-81814701D01*
X123241646Y-81814699D01*
X123244500Y-81784269D01*
X123244500Y-80775730D01*
X123241646Y-80745300D01*
X123241646Y-80745298D01*
X123196793Y-80617119D01*
X123196792Y-80617117D01*
X123116150Y-80507850D01*
X123006882Y-80427207D01*
X123006880Y-80427206D01*
X122878700Y-80382353D01*
X122848270Y-80379500D01*
X122848266Y-80379500D01*
X122039734Y-80379500D01*
X122039730Y-80379500D01*
X122009300Y-80382353D01*
X122009298Y-80382353D01*
X121881119Y-80427206D01*
X121881117Y-80427207D01*
X121771850Y-80507850D01*
X121771849Y-80507850D01*
X121707165Y-80595494D01*
X121688918Y-80615294D01*
X121265172Y-80985017D01*
X121259969Y-80989090D01*
X121239163Y-81003658D01*
X121234601Y-81006565D01*
X121199548Y-81026804D01*
X121199540Y-81026810D01*
X121173523Y-81057815D01*
X121169869Y-81061804D01*
X121121424Y-81110249D01*
X121118345Y-81113125D01*
X121097304Y-81131485D01*
X121076417Y-81149710D01*
X121074700Y-81151317D01*
X121073217Y-81152705D01*
X121066646Y-81162198D01*
X121052375Y-81179297D01*
X119415803Y-82815870D01*
X119411814Y-82819525D01*
X119380805Y-82845545D01*
X119360562Y-82880606D01*
X119357656Y-82885166D01*
X119334446Y-82918313D01*
X119332206Y-82923117D01*
X119325229Y-82939961D01*
X119323410Y-82944959D01*
X119316383Y-82984811D01*
X119315212Y-82990091D01*
X119304735Y-83029191D01*
X119308264Y-83069513D01*
X119308500Y-83074920D01*
X119308500Y-104377078D01*
X119308264Y-104382485D01*
X119304735Y-104422808D01*
X115062500Y-104422808D01*
X115062500Y-78991000D01*
X121360001Y-78991000D01*
X121360001Y-79240986D01*
X121370494Y-79343697D01*
X121425641Y-79510119D01*
X121425643Y-79510124D01*
X121517684Y-79659345D01*
X121641654Y-79783315D01*
X121790875Y-79875356D01*
X121790880Y-79875358D01*
X121957302Y-79930505D01*
X121957309Y-79930506D01*
X122060019Y-79940999D01*
X122209999Y-79940999D01*
X122210000Y-79940998D01*
X122210000Y-78991000D01*
X121360001Y-78991000D01*
X115062500Y-78991000D01*
X115062500Y-78491000D01*
X121360000Y-78491000D01*
X122210000Y-78491000D01*
X122210000Y-77541000D01*
X122710000Y-77541000D01*
X122710000Y-79940999D01*
X122859972Y-79940999D01*
X122859986Y-79940998D01*
X122962697Y-79930505D01*
X123129119Y-79875358D01*
X123129124Y-79875356D01*
X123278345Y-79783315D01*
X123402315Y-79659345D01*
X123494356Y-79510124D01*
X123494356Y-79510122D01*
X123508729Y-79466748D01*
X123548501Y-79409302D01*
X123613016Y-79382478D01*
X123681792Y-79394792D01*
X123732555Y-79441604D01*
X124035545Y-79942851D01*
X124053379Y-80010406D01*
X124034545Y-80072769D01*
X123710528Y-80590630D01*
X123707854Y-80594560D01*
X123691206Y-80617117D01*
X123680926Y-80646493D01*
X123679228Y-80650819D01*
X123669754Y-80672519D01*
X123669753Y-80672522D01*
X123667978Y-80679083D01*
X123666560Y-80685918D01*
X123664373Y-80693799D01*
X123646354Y-80745299D01*
X123646353Y-80745305D01*
X123643500Y-80775730D01*
X123643500Y-81784269D01*
X123646353Y-81814699D01*
X123646353Y-81814701D01*
X123691206Y-81942880D01*
X123691207Y-81942882D01*
X123771850Y-82052150D01*
X123881118Y-82132793D01*
X123893427Y-82137100D01*
X124009299Y-82177646D01*
X124039730Y-82180500D01*
X124039734Y-82180500D01*
X124848270Y-82180500D01*
X124878699Y-82177646D01*
X124878701Y-82177646D01*
X124942790Y-82155219D01*
X125006882Y-82132793D01*
X125116150Y-82052150D01*
X125196793Y-81942882D01*
X125237743Y-81825854D01*
X125241646Y-81814701D01*
X125241646Y-81814699D01*
X125244500Y-81784269D01*
X125244500Y-80775730D01*
X125241646Y-80745303D01*
X125241646Y-80745301D01*
X125196793Y-80617118D01*
X125189296Y-80606960D01*
X125187873Y-80605031D01*
X125184200Y-80599448D01*
X125075817Y-80413625D01*
X124879196Y-80076519D01*
X124862425Y-80008695D01*
X124880188Y-79949905D01*
X125123229Y-79547833D01*
X125167632Y-79504430D01*
X125694821Y-79201945D01*
X125756529Y-79185500D01*
X127696677Y-79185500D01*
X127741638Y-79193938D01*
X128958200Y-79667258D01*
X128976715Y-79671636D01*
X128997082Y-79678358D01*
X129046439Y-79699539D01*
X129046440Y-79699539D01*
X129046442Y-79699540D01*
X129245759Y-79740500D01*
X129798243Y-79740500D01*
X129949939Y-79725074D01*
X130144079Y-79664162D01*
X130144080Y-79664161D01*
X130144088Y-79664159D01*
X130322002Y-79565409D01*
X130476395Y-79432866D01*
X130600948Y-79271958D01*
X130690560Y-79089271D01*
X130741563Y-78892285D01*
X130751869Y-78689064D01*
X130721056Y-78487929D01*
X130650386Y-78297113D01*
X130542752Y-78124429D01*
X130402559Y-77976947D01*
X130287887Y-77897133D01*
X130235550Y-77860705D01*
X130048556Y-77780459D01*
X129849241Y-77739500D01*
X129296758Y-77739500D01*
X129296757Y-77739500D01*
X129145060Y-77754925D01*
X128950920Y-77815837D01*
X128950905Y-77815844D01*
X128773003Y-77914587D01*
X128772995Y-77914592D01*
X128767247Y-77919527D01*
X128748541Y-77932789D01*
X127736392Y-78517855D01*
X127674336Y-78534500D01*
X125789144Y-78534500D01*
X125722105Y-78514815D01*
X125707688Y-78503993D01*
X125689258Y-78487936D01*
X125212066Y-78072177D01*
X125193752Y-78052318D01*
X125187155Y-78043379D01*
X125132150Y-77968850D01*
X125022882Y-77888207D01*
X125022880Y-77888206D01*
X124894700Y-77843353D01*
X124864270Y-77840500D01*
X124864266Y-77840500D01*
X124055734Y-77840500D01*
X124055730Y-77840500D01*
X124025300Y-77843353D01*
X124025298Y-77843353D01*
X123897119Y-77888206D01*
X123897117Y-77888207D01*
X123787850Y-77968850D01*
X123726776Y-78051602D01*
X123671128Y-78093853D01*
X123601472Y-78099311D01*
X123539923Y-78066243D01*
X123509300Y-78016972D01*
X123494358Y-77971880D01*
X123494356Y-77971875D01*
X123402315Y-77822654D01*
X123278345Y-77698684D01*
X123129124Y-77606643D01*
X123129119Y-77606641D01*
X122962697Y-77551494D01*
X122962690Y-77551493D01*
X122859986Y-77541000D01*
X122710000Y-77541000D01*
X122210000Y-77541000D01*
X122060027Y-77541000D01*
X122060012Y-77541001D01*
X121957302Y-77551494D01*
X121790880Y-77606641D01*
X121790875Y-77606643D01*
X121641654Y-77698684D01*
X121517684Y-77822654D01*
X121425643Y-77971875D01*
X121425641Y-77971880D01*
X121370494Y-78138302D01*
X121370493Y-78138309D01*
X121360000Y-78241013D01*
X121360000Y-78491000D01*
X115062500Y-78491000D01*
X115062500Y-76064269D01*
X123559500Y-76064269D01*
X123562353Y-76094699D01*
X123562353Y-76094701D01*
X123604023Y-76213784D01*
X123607207Y-76222882D01*
X123687850Y-76332150D01*
X123797118Y-76412793D01*
X123832555Y-76425193D01*
X123925299Y-76457646D01*
X123955730Y-76460500D01*
X123955734Y-76460500D01*
X124964270Y-76460500D01*
X124994699Y-76457646D01*
X124994701Y-76457646D01*
X125058790Y-76435219D01*
X125122882Y-76412793D01*
X125137510Y-76401997D01*
X125232145Y-76332154D01*
X125232146Y-76332153D01*
X125232146Y-76332152D01*
X125232150Y-76332150D01*
X125234526Y-76328929D01*
X125251897Y-76309898D01*
X125318213Y-76250936D01*
X128343131Y-76250936D01*
X128373942Y-76452063D01*
X128373945Y-76452075D01*
X128444611Y-76642881D01*
X128444615Y-76642888D01*
X128552245Y-76815567D01*
X128552247Y-76815569D01*
X128552248Y-76815571D01*
X128692441Y-76963053D01*
X128820844Y-77052424D01*
X128859449Y-77079294D01*
X128859450Y-77079294D01*
X128859451Y-77079295D01*
X129046442Y-77159540D01*
X129245759Y-77200500D01*
X129798243Y-77200500D01*
X129949939Y-77185074D01*
X130144079Y-77124162D01*
X130144080Y-77124161D01*
X130144088Y-77124159D01*
X130322002Y-77025409D01*
X130476395Y-76892866D01*
X130600948Y-76731958D01*
X130690560Y-76549271D01*
X130741563Y-76352285D01*
X130751869Y-76149064D01*
X130721056Y-75947929D01*
X130673811Y-75820362D01*
X130650388Y-75757118D01*
X130650387Y-75757117D01*
X130650386Y-75757113D01*
X130542752Y-75584429D01*
X130402559Y-75436947D01*
X130304087Y-75368409D01*
X130235550Y-75320705D01*
X130048556Y-75240459D01*
X129849241Y-75199500D01*
X129296758Y-75199500D01*
X129296757Y-75199500D01*
X129145060Y-75214925D01*
X128950920Y-75275837D01*
X128950905Y-75275844D01*
X128773000Y-75374589D01*
X128772995Y-75374592D01*
X128618606Y-75507132D01*
X128618604Y-75507134D01*
X128494054Y-75668037D01*
X128494053Y-75668040D01*
X128404440Y-75850728D01*
X128353437Y-76047714D01*
X128343131Y-76250936D01*
X125318213Y-76250936D01*
X125636769Y-75967705D01*
X125642407Y-75963249D01*
X125650609Y-75957506D01*
X125680841Y-75936335D01*
X125685390Y-75933438D01*
X125720455Y-75913194D01*
X125746481Y-75882176D01*
X125750122Y-75878202D01*
X125850596Y-75777728D01*
X125853200Y-75775272D01*
X125904138Y-75729984D01*
X125906862Y-75727413D01*
X125913641Y-75717576D01*
X125928051Y-75700273D01*
X126964210Y-74664115D01*
X126968172Y-74660484D01*
X126999194Y-74634455D01*
X127019444Y-74599378D01*
X127022333Y-74594845D01*
X127045553Y-74561684D01*
X127045555Y-74561676D01*
X127047816Y-74556828D01*
X127054754Y-74540079D01*
X127056583Y-74535052D01*
X127056588Y-74535045D01*
X127063622Y-74495147D01*
X127064779Y-74489929D01*
X127075263Y-74450807D01*
X127071735Y-74410489D01*
X127071500Y-74405086D01*
X127071500Y-73710936D01*
X128343131Y-73710936D01*
X128373942Y-73912063D01*
X128373945Y-73912075D01*
X128444611Y-74102881D01*
X128444613Y-74102884D01*
X128444614Y-74102887D01*
X128456805Y-74122446D01*
X128552245Y-74275567D01*
X128552247Y-74275569D01*
X128552248Y-74275571D01*
X128692441Y-74423053D01*
X128792239Y-74492514D01*
X128859449Y-74539294D01*
X128859450Y-74539294D01*
X128859451Y-74539295D01*
X129046442Y-74619540D01*
X129245759Y-74660500D01*
X129798243Y-74660500D01*
X129949939Y-74645074D01*
X129998475Y-74629845D01*
X130144088Y-74584159D01*
X130148702Y-74581597D01*
X130152183Y-74579807D01*
X131063617Y-74147212D01*
X131379091Y-73997478D01*
X131432260Y-73985500D01*
X139259812Y-73985500D01*
X139326851Y-74005185D01*
X139347493Y-74021819D01*
X141370181Y-76044507D01*
X141403666Y-76105830D01*
X141406500Y-76132188D01*
X141406500Y-98535078D01*
X141406264Y-98540485D01*
X141402735Y-98580808D01*
X141413212Y-98619910D01*
X141414383Y-98625190D01*
X141421411Y-98665043D01*
X141423235Y-98670055D01*
X141430197Y-98686861D01*
X141432445Y-98691681D01*
X141432446Y-98691684D01*
X141446452Y-98711687D01*
X141455655Y-98724831D01*
X141458561Y-98729392D01*
X141478806Y-98764455D01*
X141509815Y-98790475D01*
X141513805Y-98794131D01*
X143521863Y-100802189D01*
X143525518Y-100806178D01*
X143551541Y-100837190D01*
X143551543Y-100837191D01*
X143551545Y-100837194D01*
X143551547Y-100837195D01*
X143551548Y-100837196D01*
X143586599Y-100857433D01*
X143591162Y-100860339D01*
X143624316Y-100883554D01*
X143624319Y-100883554D01*
X143629176Y-100885820D01*
X143645933Y-100892760D01*
X143650950Y-100894586D01*
X143650952Y-100894586D01*
X143650955Y-100894588D01*
X143690818Y-100901616D01*
X143696076Y-100902782D01*
X143735193Y-100913264D01*
X143775518Y-100909735D01*
X143780922Y-100909500D01*
X149822983Y-100909500D01*
X149882238Y-100924574D01*
X150307908Y-101156149D01*
X150440873Y-101228485D01*
X150448066Y-101233064D01*
X150453118Y-101236793D01*
X150457634Y-101238373D01*
X150462202Y-101240177D01*
X150463069Y-101240560D01*
X150526782Y-101262629D01*
X150526783Y-101262629D01*
X150528795Y-101263326D01*
X150529892Y-101263657D01*
X150581301Y-101281646D01*
X150581303Y-101281646D01*
X150581306Y-101281647D01*
X150611730Y-101284500D01*
X150611734Y-101284500D01*
X151220270Y-101284500D01*
X151250699Y-101281646D01*
X151250701Y-101281646D01*
X151314790Y-101259219D01*
X151378882Y-101236793D01*
X151488150Y-101156150D01*
X151568793Y-101046882D01*
X151591219Y-100982790D01*
X151613646Y-100918701D01*
X151613646Y-100918699D01*
X151616500Y-100888269D01*
X152715500Y-100888269D01*
X152718353Y-100918699D01*
X152718353Y-100918701D01*
X152763206Y-101046880D01*
X152763207Y-101046882D01*
X152843850Y-101156150D01*
X152953118Y-101236793D01*
X152970457Y-101242860D01*
X153081299Y-101281646D01*
X153111730Y-101284500D01*
X153111734Y-101284500D01*
X153720270Y-101284500D01*
X153750689Y-101281647D01*
X153750689Y-101281646D01*
X153750699Y-101281646D01*
X153861541Y-101242860D01*
X153868930Y-101240560D01*
X153868937Y-101240555D01*
X153871005Y-101239681D01*
X153874669Y-101238266D01*
X153878882Y-101236793D01*
X153883932Y-101233066D01*
X153891128Y-101228484D01*
X154449760Y-100924575D01*
X154509017Y-100909500D01*
X156447078Y-100909500D01*
X156452481Y-100909735D01*
X156492807Y-100913264D01*
X156531940Y-100902777D01*
X156537162Y-100901619D01*
X156577045Y-100894588D01*
X156577050Y-100894584D01*
X156582099Y-100892747D01*
X156598824Y-100885819D01*
X156603681Y-100883554D01*
X156603684Y-100883554D01*
X156636841Y-100860335D01*
X156641390Y-100857438D01*
X156676455Y-100837194D01*
X156676459Y-100837190D01*
X156702476Y-100806182D01*
X156706122Y-100802202D01*
X159356507Y-98151819D01*
X159417830Y-98118334D01*
X159444188Y-98115500D01*
X159712563Y-98115500D01*
X159766250Y-98127725D01*
X161075336Y-98756499D01*
X161075340Y-98756500D01*
X161075343Y-98756502D01*
X161075345Y-98756502D01*
X161081265Y-98758851D01*
X161087634Y-98761805D01*
X161094046Y-98765232D01*
X161292066Y-98825300D01*
X161292065Y-98825300D01*
X161330647Y-98829100D01*
X161446392Y-98840500D01*
X161446395Y-98840500D01*
X162149605Y-98840500D01*
X162149608Y-98840500D01*
X162303934Y-98825300D01*
X162501954Y-98765232D01*
X162684450Y-98667685D01*
X162844410Y-98536410D01*
X162975685Y-98376450D01*
X163073232Y-98193954D01*
X163133300Y-97995934D01*
X163153583Y-97790000D01*
X163133300Y-97584066D01*
X163073232Y-97386046D01*
X162975685Y-97203550D01*
X162873916Y-97079543D01*
X162844410Y-97043589D01*
X162684452Y-96912317D01*
X162684453Y-96912317D01*
X162684450Y-96912315D01*
X162501954Y-96814768D01*
X162303934Y-96754700D01*
X162303932Y-96754699D01*
X162303934Y-96754699D01*
X162184805Y-96742966D01*
X162149608Y-96739500D01*
X161446392Y-96739500D01*
X161408298Y-96743251D01*
X161292067Y-96754699D01*
X161094041Y-96814769D01*
X161086677Y-96818705D01*
X161078691Y-96822275D01*
X161075347Y-96823494D01*
X159766247Y-97452275D01*
X159712560Y-97464500D01*
X159274922Y-97464500D01*
X159269518Y-97464264D01*
X159264107Y-97463790D01*
X159229192Y-97460735D01*
X159229191Y-97460735D01*
X159190091Y-97471212D01*
X159184811Y-97472383D01*
X159144959Y-97479410D01*
X159139961Y-97481229D01*
X159123117Y-97488206D01*
X159118313Y-97490446D01*
X159085166Y-97513656D01*
X159080606Y-97516562D01*
X159045548Y-97536804D01*
X159045540Y-97536810D01*
X159019523Y-97567815D01*
X159015869Y-97571804D01*
X156365493Y-100222181D01*
X156304170Y-100255666D01*
X156277812Y-100258500D01*
X154509017Y-100258500D01*
X154449759Y-100243424D01*
X153891123Y-99939512D01*
X153883927Y-99934930D01*
X153878882Y-99931206D01*
X153874362Y-99929625D01*
X153869796Y-99927822D01*
X153868936Y-99927442D01*
X153868928Y-99927438D01*
X153823160Y-99911586D01*
X153803068Y-99904628D01*
X153802028Y-99904313D01*
X153750699Y-99886353D01*
X153720270Y-99883500D01*
X153720266Y-99883500D01*
X153111734Y-99883500D01*
X153111730Y-99883500D01*
X153081300Y-99886353D01*
X153081298Y-99886353D01*
X152953119Y-99931206D01*
X152953117Y-99931207D01*
X152843850Y-100011850D01*
X152763207Y-100121117D01*
X152763206Y-100121119D01*
X152718353Y-100249298D01*
X152718353Y-100249300D01*
X152715500Y-100279730D01*
X152715500Y-100888269D01*
X151616500Y-100888269D01*
X151616500Y-100279730D01*
X151613646Y-100249300D01*
X151613646Y-100249298D01*
X151569825Y-100124067D01*
X151568793Y-100121118D01*
X151488150Y-100011850D01*
X151378882Y-99931207D01*
X151378880Y-99931206D01*
X151250700Y-99886353D01*
X151220270Y-99883500D01*
X151220266Y-99883500D01*
X150611734Y-99883500D01*
X150611730Y-99883500D01*
X150581300Y-99886353D01*
X150581298Y-99886353D01*
X150486651Y-99919473D01*
X150470493Y-99925127D01*
X150468869Y-99925632D01*
X150463061Y-99927440D01*
X150460946Y-99928335D01*
X150457298Y-99929743D01*
X150453119Y-99931205D01*
X150448071Y-99934931D01*
X150440879Y-99939510D01*
X149882240Y-100243424D01*
X149822982Y-100258500D01*
X143950188Y-100258500D01*
X143883149Y-100238815D01*
X143862507Y-100222181D01*
X142093819Y-98453493D01*
X142060334Y-98392170D01*
X142057500Y-98365812D01*
X142057500Y-98044001D01*
X145444318Y-98044001D01*
X145464955Y-98200760D01*
X145464956Y-98200762D01*
X145513843Y-98318787D01*
X145525464Y-98346841D01*
X145621718Y-98472282D01*
X145747159Y-98568536D01*
X145893238Y-98629044D01*
X145971619Y-98639363D01*
X146049999Y-98649682D01*
X146050000Y-98649682D01*
X146050001Y-98649682D01*
X146064795Y-98647734D01*
X146206762Y-98629044D01*
X146250268Y-98611022D01*
X146277344Y-98603270D01*
X146286320Y-98601775D01*
X146879577Y-98377510D01*
X146923423Y-98369500D01*
X149822983Y-98369500D01*
X149882238Y-98384574D01*
X150402634Y-98667682D01*
X150440873Y-98688485D01*
X150448066Y-98693064D01*
X150453118Y-98696793D01*
X150457634Y-98698373D01*
X150462202Y-98700177D01*
X150463069Y-98700560D01*
X150526782Y-98722629D01*
X150526783Y-98722629D01*
X150528795Y-98723326D01*
X150529892Y-98723657D01*
X150581301Y-98741646D01*
X150581303Y-98741646D01*
X150581306Y-98741647D01*
X150611730Y-98744500D01*
X150611734Y-98744500D01*
X151220270Y-98744500D01*
X151250699Y-98741646D01*
X151250701Y-98741646D01*
X151314790Y-98719219D01*
X151378882Y-98696793D01*
X151488150Y-98616150D01*
X151568793Y-98506882D01*
X151600183Y-98417174D01*
X151613646Y-98378701D01*
X151613646Y-98378699D01*
X151616500Y-98348269D01*
X152715500Y-98348269D01*
X152718353Y-98378699D01*
X152718353Y-98378701D01*
X152763206Y-98506880D01*
X152763207Y-98506882D01*
X152843850Y-98616150D01*
X152953118Y-98696793D01*
X152970457Y-98702860D01*
X153081299Y-98741646D01*
X153111730Y-98744500D01*
X153111734Y-98744500D01*
X153720270Y-98744500D01*
X153750689Y-98741647D01*
X153750689Y-98741646D01*
X153750699Y-98741646D01*
X153861541Y-98702860D01*
X153868930Y-98700560D01*
X153868937Y-98700555D01*
X153871005Y-98699681D01*
X153874669Y-98698266D01*
X153878882Y-98696793D01*
X153883932Y-98693066D01*
X153891128Y-98688484D01*
X154449760Y-98384575D01*
X154509017Y-98369500D01*
X156447078Y-98369500D01*
X156452481Y-98369735D01*
X156492807Y-98373264D01*
X156531940Y-98362777D01*
X156537162Y-98361619D01*
X156577045Y-98354588D01*
X156577050Y-98354584D01*
X156582099Y-98352747D01*
X156598824Y-98345819D01*
X156603681Y-98343554D01*
X156603684Y-98343554D01*
X156636841Y-98320335D01*
X156641390Y-98317438D01*
X156676455Y-98297194D01*
X156702481Y-98266176D01*
X156706122Y-98262202D01*
X159356507Y-95611819D01*
X159417830Y-95578334D01*
X159444188Y-95575500D01*
X159712563Y-95575500D01*
X159766250Y-95587725D01*
X161075336Y-96216499D01*
X161075340Y-96216500D01*
X161075343Y-96216502D01*
X161075345Y-96216502D01*
X161081265Y-96218851D01*
X161087634Y-96221805D01*
X161094046Y-96225232D01*
X161292066Y-96285300D01*
X161292065Y-96285300D01*
X161330647Y-96289100D01*
X161446392Y-96300500D01*
X161446395Y-96300500D01*
X162149605Y-96300500D01*
X162149608Y-96300500D01*
X162303934Y-96285300D01*
X162501954Y-96225232D01*
X162684450Y-96127685D01*
X162844410Y-95996410D01*
X162975685Y-95836450D01*
X163073232Y-95653954D01*
X163133300Y-95455934D01*
X163153583Y-95250000D01*
X163133300Y-95044066D01*
X163073232Y-94846046D01*
X162975685Y-94663550D01*
X162923702Y-94600209D01*
X162844410Y-94503589D01*
X162684452Y-94372317D01*
X162684453Y-94372317D01*
X162684450Y-94372315D01*
X162501954Y-94274768D01*
X162303934Y-94214700D01*
X162303932Y-94214699D01*
X162303934Y-94214699D01*
X162184805Y-94202966D01*
X162149608Y-94199500D01*
X161446392Y-94199500D01*
X161408298Y-94203251D01*
X161292067Y-94214699D01*
X161094041Y-94274769D01*
X161086677Y-94278705D01*
X161078691Y-94282275D01*
X161075347Y-94283494D01*
X159766247Y-94912275D01*
X159712560Y-94924500D01*
X159274922Y-94924500D01*
X159269518Y-94924264D01*
X159264107Y-94923790D01*
X159229192Y-94920735D01*
X159229191Y-94920735D01*
X159190091Y-94931212D01*
X159184811Y-94932383D01*
X159144959Y-94939410D01*
X159139961Y-94941229D01*
X159123117Y-94948206D01*
X159118313Y-94950446D01*
X159085166Y-94973656D01*
X159080606Y-94976562D01*
X159045548Y-94996804D01*
X159045540Y-94996810D01*
X159019523Y-95027815D01*
X159015869Y-95031804D01*
X156365493Y-97682181D01*
X156304170Y-97715666D01*
X156277812Y-97718500D01*
X154509017Y-97718500D01*
X154449759Y-97703424D01*
X153891123Y-97399512D01*
X153883927Y-97394930D01*
X153878882Y-97391206D01*
X153874362Y-97389625D01*
X153869796Y-97387822D01*
X153868936Y-97387442D01*
X153868928Y-97387438D01*
X153823160Y-97371586D01*
X153803068Y-97364628D01*
X153802028Y-97364313D01*
X153750699Y-97346353D01*
X153720270Y-97343500D01*
X153720266Y-97343500D01*
X153111734Y-97343500D01*
X153111730Y-97343500D01*
X153081300Y-97346353D01*
X153081298Y-97346353D01*
X152953119Y-97391206D01*
X152953117Y-97391207D01*
X152843850Y-97471850D01*
X152763207Y-97581117D01*
X152763206Y-97581119D01*
X152718353Y-97709298D01*
X152718353Y-97709300D01*
X152715500Y-97739730D01*
X152715500Y-98348269D01*
X151616500Y-98348269D01*
X151616500Y-97739730D01*
X151613646Y-97709300D01*
X151613646Y-97709298D01*
X151569825Y-97584067D01*
X151568793Y-97581118D01*
X151488150Y-97471850D01*
X151378882Y-97391207D01*
X151378880Y-97391206D01*
X151250700Y-97346353D01*
X151220270Y-97343500D01*
X151220266Y-97343500D01*
X150611734Y-97343500D01*
X150611730Y-97343500D01*
X150581300Y-97346353D01*
X150581298Y-97346353D01*
X150486651Y-97379473D01*
X150470493Y-97385127D01*
X150468869Y-97385632D01*
X150463061Y-97387440D01*
X150460946Y-97388335D01*
X150457298Y-97389743D01*
X150453119Y-97391205D01*
X150448071Y-97394931D01*
X150440879Y-97399510D01*
X149882240Y-97703424D01*
X149822982Y-97718500D01*
X146923426Y-97718500D01*
X146879580Y-97710489D01*
X146537347Y-97581118D01*
X146303360Y-97492666D01*
X146301126Y-97491821D01*
X146286321Y-97486224D01*
X146286316Y-97486223D01*
X146275958Y-97484407D01*
X146249918Y-97476831D01*
X146206762Y-97458956D01*
X146128381Y-97448637D01*
X146050001Y-97438318D01*
X146049999Y-97438318D01*
X145893239Y-97458955D01*
X145893237Y-97458956D01*
X145747160Y-97519463D01*
X145621718Y-97615718D01*
X145525463Y-97741160D01*
X145464956Y-97887237D01*
X145464955Y-97887239D01*
X145444318Y-98043998D01*
X145444318Y-98044001D01*
X142057500Y-98044001D01*
X142057500Y-94008808D01*
X148006735Y-94008808D01*
X148017212Y-94047910D01*
X148018383Y-94053190D01*
X148025411Y-94093043D01*
X148027235Y-94098055D01*
X148034197Y-94114861D01*
X148036445Y-94119681D01*
X148036446Y-94119684D01*
X148050452Y-94139687D01*
X148059655Y-94152831D01*
X148062561Y-94157392D01*
X148082806Y-94192455D01*
X148113815Y-94218475D01*
X148117805Y-94222131D01*
X149617868Y-95722195D01*
X149621523Y-95726184D01*
X149647541Y-95757190D01*
X149647542Y-95757191D01*
X149647545Y-95757194D01*
X149676387Y-95773845D01*
X149682604Y-95777435D01*
X149687154Y-95780333D01*
X149720316Y-95803553D01*
X149720318Y-95803553D01*
X149720319Y-95803554D01*
X149725168Y-95805815D01*
X149741947Y-95812765D01*
X149746952Y-95814587D01*
X149746953Y-95814587D01*
X149746955Y-95814588D01*
X149786829Y-95821618D01*
X149792093Y-95822786D01*
X149803671Y-95825888D01*
X149831193Y-95833263D01*
X149831201Y-95833262D01*
X149841492Y-95834163D01*
X149889947Y-95848767D01*
X150440871Y-96148484D01*
X150440873Y-96148485D01*
X150448066Y-96153064D01*
X150453118Y-96156793D01*
X150457634Y-96158373D01*
X150462202Y-96160177D01*
X150463069Y-96160560D01*
X150526782Y-96182629D01*
X150526783Y-96182629D01*
X150528795Y-96183326D01*
X150529892Y-96183657D01*
X150581301Y-96201646D01*
X150581303Y-96201646D01*
X150581306Y-96201647D01*
X150611730Y-96204500D01*
X150611734Y-96204500D01*
X151220270Y-96204500D01*
X151250699Y-96201646D01*
X151250701Y-96201646D01*
X151314790Y-96179219D01*
X151378882Y-96156793D01*
X151488150Y-96076150D01*
X151568793Y-95966882D01*
X151591219Y-95902790D01*
X151613646Y-95838701D01*
X151613646Y-95838699D01*
X151616500Y-95808269D01*
X152715500Y-95808269D01*
X152718353Y-95838699D01*
X152718353Y-95838701D01*
X152751755Y-95934155D01*
X152763207Y-95966882D01*
X152843850Y-96076150D01*
X152953118Y-96156793D01*
X152970457Y-96162860D01*
X153081299Y-96201646D01*
X153111730Y-96204500D01*
X153111734Y-96204500D01*
X153720270Y-96204500D01*
X153750689Y-96201647D01*
X153750689Y-96201646D01*
X153750699Y-96201646D01*
X153861541Y-96162860D01*
X153868930Y-96160560D01*
X153868937Y-96160555D01*
X153871005Y-96159681D01*
X153874669Y-96158266D01*
X153878882Y-96156793D01*
X153883932Y-96153066D01*
X153891128Y-96148484D01*
X154449760Y-95844575D01*
X154509017Y-95829500D01*
X156447078Y-95829500D01*
X156452481Y-95829735D01*
X156492807Y-95833264D01*
X156531940Y-95822777D01*
X156537162Y-95821619D01*
X156577045Y-95814588D01*
X156577050Y-95814584D01*
X156582099Y-95812747D01*
X156598824Y-95805819D01*
X156603681Y-95803554D01*
X156603684Y-95803554D01*
X156636841Y-95780335D01*
X156641390Y-95777438D01*
X156676455Y-95757194D01*
X156676459Y-95757190D01*
X156690961Y-95739906D01*
X156702481Y-95726176D01*
X156706122Y-95722202D01*
X159356507Y-93071819D01*
X159417830Y-93038334D01*
X159444188Y-93035500D01*
X159712563Y-93035500D01*
X159766250Y-93047725D01*
X161075336Y-93676499D01*
X161075340Y-93676500D01*
X161075343Y-93676502D01*
X161075345Y-93676502D01*
X161081265Y-93678851D01*
X161087634Y-93681805D01*
X161094046Y-93685232D01*
X161292066Y-93745300D01*
X161292065Y-93745300D01*
X161330647Y-93749100D01*
X161446392Y-93760500D01*
X161446395Y-93760500D01*
X162149605Y-93760500D01*
X162149608Y-93760500D01*
X162303934Y-93745300D01*
X162501954Y-93685232D01*
X162684450Y-93587685D01*
X162844410Y-93456410D01*
X162975685Y-93296450D01*
X163073232Y-93113954D01*
X163133300Y-92915934D01*
X163153583Y-92710000D01*
X163133300Y-92504066D01*
X163073232Y-92306046D01*
X162975685Y-92123550D01*
X162923702Y-92060209D01*
X162844410Y-91963589D01*
X162715361Y-91857683D01*
X162684450Y-91832315D01*
X162501954Y-91734768D01*
X162303934Y-91674700D01*
X162303932Y-91674699D01*
X162303934Y-91674699D01*
X162184805Y-91662966D01*
X162149608Y-91659500D01*
X161446392Y-91659500D01*
X161408298Y-91663251D01*
X161292067Y-91674699D01*
X161094041Y-91734769D01*
X161086677Y-91738705D01*
X161078691Y-91742275D01*
X161075347Y-91743494D01*
X159766247Y-92372275D01*
X159712560Y-92384500D01*
X159274922Y-92384500D01*
X159269518Y-92384264D01*
X159264107Y-92383790D01*
X159229192Y-92380735D01*
X159229191Y-92380735D01*
X159190091Y-92391212D01*
X159184811Y-92392383D01*
X159144959Y-92399410D01*
X159139961Y-92401229D01*
X159123117Y-92408206D01*
X159118313Y-92410446D01*
X159085166Y-92433656D01*
X159080606Y-92436562D01*
X159045548Y-92456804D01*
X159045540Y-92456810D01*
X159019523Y-92487815D01*
X159015868Y-92491804D01*
X157687505Y-93820169D01*
X156365493Y-95142181D01*
X156304170Y-95175666D01*
X156277812Y-95178500D01*
X154509017Y-95178500D01*
X154449759Y-95163424D01*
X153891123Y-94859512D01*
X153883927Y-94854930D01*
X153878882Y-94851206D01*
X153874362Y-94849625D01*
X153869796Y-94847822D01*
X153868936Y-94847442D01*
X153868928Y-94847438D01*
X153823160Y-94831586D01*
X153803068Y-94824628D01*
X153802028Y-94824313D01*
X153750699Y-94806353D01*
X153720270Y-94803500D01*
X153720266Y-94803500D01*
X153111734Y-94803500D01*
X153111730Y-94803500D01*
X153081300Y-94806353D01*
X153081298Y-94806353D01*
X152953119Y-94851206D01*
X152953117Y-94851207D01*
X152843850Y-94931850D01*
X152763207Y-95041117D01*
X152763206Y-95041119D01*
X152718353Y-95169298D01*
X152718353Y-95169300D01*
X152715500Y-95199730D01*
X152715500Y-95808269D01*
X151616500Y-95808269D01*
X151616500Y-95199730D01*
X151613646Y-95169300D01*
X151613646Y-95169298D01*
X151569825Y-95044067D01*
X151568793Y-95041118D01*
X151488150Y-94931850D01*
X151378882Y-94851207D01*
X151378880Y-94851206D01*
X151250700Y-94806353D01*
X151220270Y-94803500D01*
X151220266Y-94803500D01*
X150611734Y-94803500D01*
X150611730Y-94803500D01*
X150581300Y-94806353D01*
X150581298Y-94806353D01*
X150486651Y-94839473D01*
X150470493Y-94845127D01*
X150468869Y-94845632D01*
X150463061Y-94847440D01*
X150460946Y-94848335D01*
X150457298Y-94849743D01*
X150453118Y-94851206D01*
X150453115Y-94851207D01*
X150448070Y-94854931D01*
X150440879Y-94859509D01*
X150026799Y-95084778D01*
X149958503Y-95099523D01*
X149893077Y-95075004D01*
X149879861Y-95063534D01*
X148697819Y-93881492D01*
X148664334Y-93820169D01*
X148661500Y-93793811D01*
X148661500Y-90170000D01*
X160442417Y-90170000D01*
X160462699Y-90375932D01*
X160462700Y-90375934D01*
X160522768Y-90573954D01*
X160620315Y-90756450D01*
X160625244Y-90762456D01*
X160751589Y-90916410D01*
X160797034Y-90953705D01*
X160911550Y-91047685D01*
X161094046Y-91145232D01*
X161292066Y-91205300D01*
X161292065Y-91205300D01*
X161328414Y-91208880D01*
X161446392Y-91220500D01*
X161446395Y-91220500D01*
X162149605Y-91220500D01*
X162149608Y-91220500D01*
X162303934Y-91205300D01*
X162501954Y-91145232D01*
X162684450Y-91047685D01*
X162844410Y-90916410D01*
X162975685Y-90756450D01*
X163073232Y-90573954D01*
X163133300Y-90375934D01*
X163153583Y-90170000D01*
X163133300Y-89964066D01*
X163073232Y-89766046D01*
X162975685Y-89583550D01*
X162923702Y-89520209D01*
X162844410Y-89423589D01*
X162684452Y-89292317D01*
X162684453Y-89292317D01*
X162684450Y-89292315D01*
X162501954Y-89194768D01*
X162303934Y-89134700D01*
X162303932Y-89134699D01*
X162303934Y-89134699D01*
X162184805Y-89122966D01*
X162149608Y-89119500D01*
X161446392Y-89119500D01*
X161408298Y-89123251D01*
X161292067Y-89134699D01*
X161094043Y-89194769D01*
X160983898Y-89253643D01*
X160911550Y-89292315D01*
X160911548Y-89292316D01*
X160911547Y-89292317D01*
X160751589Y-89423589D01*
X160620317Y-89583547D01*
X160620315Y-89583550D01*
X160600589Y-89620454D01*
X160522769Y-89766043D01*
X160462699Y-89964067D01*
X160442417Y-90170000D01*
X148661500Y-90170000D01*
X148661500Y-87630000D01*
X160442417Y-87630000D01*
X160462699Y-87835932D01*
X160462700Y-87835934D01*
X160522768Y-88033954D01*
X160620315Y-88216450D01*
X160620317Y-88216452D01*
X160751589Y-88376410D01*
X160848209Y-88455702D01*
X160911550Y-88507685D01*
X161094046Y-88605232D01*
X161292066Y-88665300D01*
X161292065Y-88665300D01*
X161330647Y-88669100D01*
X161446392Y-88680500D01*
X161446395Y-88680500D01*
X162149605Y-88680500D01*
X162149608Y-88680500D01*
X162303934Y-88665300D01*
X162501954Y-88605232D01*
X162684450Y-88507685D01*
X162844410Y-88376410D01*
X162975685Y-88216450D01*
X163073232Y-88033954D01*
X163133300Y-87835934D01*
X163153583Y-87630000D01*
X163133300Y-87424066D01*
X163073232Y-87226046D01*
X162975685Y-87043550D01*
X162907307Y-86960231D01*
X162844410Y-86883589D01*
X162684452Y-86752317D01*
X162684453Y-86752317D01*
X162684450Y-86752315D01*
X162501954Y-86654768D01*
X162303934Y-86594700D01*
X162303932Y-86594699D01*
X162303934Y-86594699D01*
X162184805Y-86582966D01*
X162149608Y-86579500D01*
X161446392Y-86579500D01*
X161408298Y-86583251D01*
X161292067Y-86594699D01*
X161094043Y-86654769D01*
X160983898Y-86713643D01*
X160911550Y-86752315D01*
X160911548Y-86752316D01*
X160911547Y-86752317D01*
X160751589Y-86883589D01*
X160620317Y-87043547D01*
X160522769Y-87226043D01*
X160462699Y-87424067D01*
X160442417Y-87630000D01*
X148661500Y-87630000D01*
X148661500Y-85090000D01*
X160442417Y-85090000D01*
X160462699Y-85295932D01*
X160462700Y-85295934D01*
X160522768Y-85493954D01*
X160620315Y-85676450D01*
X160620317Y-85676452D01*
X160751589Y-85836410D01*
X160848209Y-85915702D01*
X160911550Y-85967685D01*
X161094046Y-86065232D01*
X161292066Y-86125300D01*
X161292065Y-86125300D01*
X161330647Y-86129100D01*
X161446392Y-86140500D01*
X161446395Y-86140500D01*
X162149605Y-86140500D01*
X162149608Y-86140500D01*
X162303934Y-86125300D01*
X162501954Y-86065232D01*
X162684450Y-85967685D01*
X162844410Y-85836410D01*
X162975685Y-85676450D01*
X163073232Y-85493954D01*
X163133300Y-85295934D01*
X163153583Y-85090000D01*
X163133300Y-84884066D01*
X163073232Y-84686046D01*
X162975685Y-84503550D01*
X162851281Y-84351962D01*
X162844410Y-84343589D01*
X162684452Y-84212317D01*
X162684453Y-84212317D01*
X162684450Y-84212315D01*
X162501954Y-84114768D01*
X162303934Y-84054700D01*
X162303932Y-84054699D01*
X162303934Y-84054699D01*
X162184805Y-84042966D01*
X162149608Y-84039500D01*
X161446392Y-84039500D01*
X161408298Y-84043251D01*
X161292067Y-84054699D01*
X161094043Y-84114769D01*
X160992079Y-84169271D01*
X160911550Y-84212315D01*
X160911548Y-84212316D01*
X160911547Y-84212317D01*
X160751589Y-84343589D01*
X160620317Y-84503547D01*
X160620315Y-84503550D01*
X160615335Y-84512867D01*
X160522769Y-84686043D01*
X160462699Y-84884067D01*
X160442417Y-85090000D01*
X148661500Y-85090000D01*
X148661500Y-81029999D01*
X150928627Y-81029999D01*
X150928628Y-81030000D01*
X151973814Y-81030000D01*
X151948007Y-81070156D01*
X151907500Y-81208111D01*
X151907500Y-81351889D01*
X151948007Y-81489844D01*
X151973814Y-81530000D01*
X150928628Y-81530000D01*
X150981230Y-81726317D01*
X150981234Y-81726326D01*
X151077365Y-81932482D01*
X151207842Y-82118820D01*
X151368679Y-82279657D01*
X151555017Y-82410134D01*
X151761173Y-82506265D01*
X151761182Y-82506269D01*
X151980889Y-82565139D01*
X151980899Y-82565141D01*
X152113963Y-82576782D01*
X152179031Y-82602234D01*
X152220010Y-82658825D01*
X152223889Y-82728586D01*
X152189436Y-82789371D01*
X152127589Y-82821879D01*
X152115702Y-82823674D01*
X152005060Y-82834926D01*
X151810920Y-82895837D01*
X151810905Y-82895844D01*
X151633000Y-82994589D01*
X151632995Y-82994592D01*
X151478606Y-83127132D01*
X151478604Y-83127134D01*
X151354054Y-83288037D01*
X151354053Y-83288040D01*
X151264440Y-83470728D01*
X151213437Y-83667714D01*
X151203131Y-83870936D01*
X151233942Y-84072063D01*
X151233945Y-84072075D01*
X151304611Y-84262881D01*
X151304615Y-84262888D01*
X151412245Y-84435567D01*
X151412247Y-84435569D01*
X151412248Y-84435571D01*
X151552441Y-84583053D01*
X151680844Y-84672424D01*
X151719449Y-84699294D01*
X151719450Y-84699294D01*
X151719451Y-84699295D01*
X151906442Y-84779540D01*
X152105759Y-84820500D01*
X152658243Y-84820500D01*
X152809939Y-84805074D01*
X153004079Y-84744162D01*
X153004080Y-84744161D01*
X153004088Y-84744159D01*
X153182002Y-84645409D01*
X153336395Y-84512866D01*
X153460948Y-84351958D01*
X153550560Y-84169271D01*
X153601563Y-83972285D01*
X153611869Y-83769064D01*
X153581056Y-83567929D01*
X153510386Y-83377113D01*
X153402752Y-83204429D01*
X153262559Y-83056947D01*
X153158918Y-82984811D01*
X153095550Y-82940705D01*
X152908556Y-82860459D01*
X152710322Y-82819722D01*
X152648617Y-82786945D01*
X152614428Y-82726012D01*
X152618610Y-82656267D01*
X152659834Y-82599855D01*
X152724476Y-82574732D01*
X152834099Y-82565141D01*
X152834110Y-82565139D01*
X153053817Y-82506269D01*
X153053826Y-82506265D01*
X153259982Y-82410134D01*
X153428308Y-82292269D01*
X157981500Y-82292269D01*
X157984353Y-82322699D01*
X157984353Y-82322701D01*
X158024335Y-82436959D01*
X158029207Y-82450882D01*
X158109850Y-82560150D01*
X158219118Y-82640793D01*
X158261845Y-82655744D01*
X158347299Y-82685646D01*
X158377730Y-82688500D01*
X158377734Y-82688500D01*
X159186270Y-82688500D01*
X159216699Y-82685646D01*
X159216701Y-82685646D01*
X159293349Y-82658825D01*
X159344882Y-82640793D01*
X159454150Y-82560150D01*
X159534793Y-82450882D01*
X159560587Y-82377166D01*
X159579646Y-82322701D01*
X159579646Y-82322699D01*
X159582500Y-82292269D01*
X159582500Y-81283730D01*
X159579647Y-81253310D01*
X159579646Y-81253309D01*
X159579646Y-81253301D01*
X159548843Y-81165274D01*
X159547779Y-81161930D01*
X159544059Y-81148994D01*
X159541548Y-81140260D01*
X159539008Y-81135337D01*
X159535590Y-81127397D01*
X159534793Y-81125118D01*
X159534791Y-81125115D01*
X159534790Y-81125112D01*
X159532663Y-81121089D01*
X159526736Y-81111551D01*
X159489282Y-81038956D01*
X159350460Y-80769882D01*
X159337216Y-80701279D01*
X159363164Y-80636406D01*
X159372969Y-80625355D01*
X159592013Y-80406311D01*
X159635068Y-80378302D01*
X160499825Y-80044804D01*
X160544439Y-80036500D01*
X161307750Y-80036500D01*
X161307751Y-80036499D01*
X161322568Y-80033552D01*
X161366229Y-80024868D01*
X161366229Y-80024867D01*
X161366231Y-80024867D01*
X161432552Y-79980552D01*
X161476867Y-79914231D01*
X161476867Y-79914229D01*
X161476868Y-79914229D01*
X161488499Y-79855752D01*
X161488500Y-79855750D01*
X161488500Y-79016249D01*
X161488499Y-79016247D01*
X161476868Y-78957770D01*
X161476867Y-78957769D01*
X161432552Y-78891447D01*
X161366230Y-78847132D01*
X161366229Y-78847131D01*
X161307752Y-78835500D01*
X161307748Y-78835500D01*
X159368252Y-78835500D01*
X159368247Y-78835500D01*
X159309770Y-78847131D01*
X159309769Y-78847132D01*
X159243447Y-78891447D01*
X159199132Y-78957769D01*
X159199131Y-78957770D01*
X159187500Y-79016247D01*
X159187500Y-79590363D01*
X159184407Y-79615478D01*
X159184422Y-79615481D01*
X159184336Y-79616059D01*
X159183797Y-79620441D01*
X159183530Y-79621506D01*
X159142193Y-79900929D01*
X159112909Y-79964366D01*
X159107209Y-79970463D01*
X158751987Y-80325685D01*
X158738051Y-80337692D01*
X158722768Y-80348996D01*
X158722762Y-80349002D01*
X158665036Y-80412536D01*
X158662989Y-80414683D01*
X158563803Y-80513870D01*
X158559814Y-80517525D01*
X158528805Y-80543545D01*
X158508564Y-80578603D01*
X158505657Y-80583165D01*
X158493293Y-80600823D01*
X158488389Y-80606960D01*
X158139466Y-80990997D01*
X158121327Y-81007379D01*
X158109850Y-81015849D01*
X158029207Y-81125117D01*
X158029206Y-81125119D01*
X157984353Y-81253298D01*
X157984353Y-81253300D01*
X157981500Y-81283730D01*
X157981500Y-82292269D01*
X153428308Y-82292269D01*
X153446320Y-82279657D01*
X153607157Y-82118820D01*
X153737634Y-81932482D01*
X153833765Y-81726326D01*
X153833769Y-81726317D01*
X153886372Y-81530000D01*
X152841186Y-81530000D01*
X152866993Y-81489844D01*
X152907500Y-81351889D01*
X152907500Y-81208111D01*
X152866993Y-81070156D01*
X152841186Y-81030000D01*
X153886372Y-81030000D01*
X153886372Y-81029999D01*
X153833769Y-80833682D01*
X153833765Y-80833673D01*
X153737634Y-80627517D01*
X153607157Y-80441179D01*
X153446320Y-80280342D01*
X153259982Y-80149865D01*
X153053826Y-80053734D01*
X153053817Y-80053730D01*
X152834110Y-79994860D01*
X152834099Y-79994858D01*
X152701036Y-79983217D01*
X152635967Y-79957765D01*
X152594988Y-79901174D01*
X152591110Y-79831412D01*
X152625564Y-79770628D01*
X152687411Y-79738120D01*
X152699298Y-79736325D01*
X152809939Y-79725074D01*
X153004079Y-79664162D01*
X153004080Y-79664161D01*
X153004088Y-79664159D01*
X153182002Y-79565409D01*
X153336395Y-79432866D01*
X153460948Y-79271958D01*
X153550560Y-79089271D01*
X153601563Y-78892285D01*
X153611869Y-78689064D01*
X153581056Y-78487929D01*
X153510386Y-78297113D01*
X153402752Y-78124429D01*
X153262559Y-77976947D01*
X153147887Y-77897133D01*
X153095550Y-77860705D01*
X152908556Y-77780459D01*
X152709241Y-77739500D01*
X152156758Y-77739500D01*
X152156757Y-77739500D01*
X152005060Y-77754925D01*
X151810920Y-77815837D01*
X151810905Y-77815844D01*
X151633000Y-77914589D01*
X151632995Y-77914592D01*
X151478606Y-78047132D01*
X151478604Y-78047134D01*
X151354054Y-78208037D01*
X151354053Y-78208040D01*
X151264440Y-78390728D01*
X151213437Y-78587714D01*
X151203131Y-78790936D01*
X151233942Y-78992063D01*
X151233945Y-78992075D01*
X151304611Y-79182881D01*
X151304613Y-79182884D01*
X151304614Y-79182887D01*
X151340827Y-79240986D01*
X151412245Y-79355567D01*
X151412247Y-79355569D01*
X151412248Y-79355571D01*
X151552441Y-79503053D01*
X151677883Y-79590363D01*
X151719449Y-79619294D01*
X151719450Y-79619294D01*
X151719451Y-79619295D01*
X151906442Y-79699540D01*
X152104677Y-79740277D01*
X152166381Y-79773053D01*
X152200570Y-79833987D01*
X152196389Y-79903731D01*
X152155165Y-79960143D01*
X152090524Y-79985267D01*
X151980899Y-79994858D01*
X151980889Y-79994860D01*
X151761182Y-80053730D01*
X151761173Y-80053734D01*
X151555017Y-80149865D01*
X151368679Y-80280342D01*
X151207842Y-80441179D01*
X151077365Y-80627517D01*
X150981234Y-80833673D01*
X150981230Y-80833682D01*
X150928627Y-81029999D01*
X148661500Y-81029999D01*
X148661500Y-77910188D01*
X148681185Y-77843149D01*
X148697819Y-77822507D01*
X149958508Y-76561819D01*
X150019831Y-76528334D01*
X150046189Y-76525500D01*
X150522740Y-76525500D01*
X150575909Y-76537478D01*
X150792308Y-76640188D01*
X151804219Y-77120474D01*
X151826723Y-77127099D01*
X151836312Y-77129922D01*
X151843248Y-77132420D01*
X151906442Y-77159540D01*
X152105759Y-77200500D01*
X152658243Y-77200500D01*
X152809939Y-77185074D01*
X153004079Y-77124162D01*
X153004080Y-77124161D01*
X153004088Y-77124159D01*
X153182002Y-77025409D01*
X153336395Y-76892866D01*
X153460948Y-76731958D01*
X153550560Y-76549271D01*
X153601563Y-76352285D01*
X153611869Y-76149064D01*
X153581056Y-75947929D01*
X153533811Y-75820362D01*
X153510388Y-75757118D01*
X153510387Y-75757117D01*
X153510386Y-75757113D01*
X153402752Y-75584429D01*
X153262559Y-75436947D01*
X153164087Y-75368409D01*
X153095550Y-75320705D01*
X152908556Y-75240459D01*
X152709241Y-75199500D01*
X152156758Y-75199500D01*
X152156757Y-75199500D01*
X152005060Y-75214925D01*
X151810917Y-75275838D01*
X151810910Y-75275841D01*
X151806315Y-75278391D01*
X151802820Y-75280188D01*
X150917761Y-75700267D01*
X150575906Y-75862522D01*
X150522738Y-75874500D01*
X149876910Y-75874500D01*
X149871506Y-75874264D01*
X149865993Y-75873781D01*
X149831192Y-75870736D01*
X149792105Y-75881210D01*
X149786825Y-75882381D01*
X149746957Y-75889411D01*
X149741983Y-75891221D01*
X149725118Y-75898207D01*
X149720313Y-75900447D01*
X149687162Y-75923659D01*
X149682603Y-75926563D01*
X149647545Y-75946805D01*
X149621523Y-75977815D01*
X149617869Y-75981803D01*
X148117803Y-77481870D01*
X148113814Y-77485525D01*
X148082805Y-77511545D01*
X148062562Y-77546606D01*
X148059656Y-77551166D01*
X148036446Y-77584313D01*
X148034206Y-77589117D01*
X148027229Y-77605961D01*
X148025410Y-77610959D01*
X148018383Y-77650811D01*
X148017212Y-77656091D01*
X148006735Y-77695191D01*
X148010264Y-77735513D01*
X148010500Y-77740920D01*
X148010500Y-93963078D01*
X148010264Y-93968485D01*
X148006735Y-94008808D01*
X142057500Y-94008808D01*
X142057500Y-75962912D01*
X142057736Y-75957506D01*
X142061263Y-75917191D01*
X142050785Y-75878090D01*
X142049618Y-75872830D01*
X142042588Y-75832955D01*
X142042587Y-75832953D01*
X142040760Y-75827933D01*
X142033820Y-75811176D01*
X142031554Y-75806319D01*
X142031554Y-75806316D01*
X142008337Y-75773159D01*
X142005435Y-75768605D01*
X141985194Y-75733545D01*
X141954182Y-75707522D01*
X141950210Y-75703883D01*
X139957262Y-73710936D01*
X151203131Y-73710936D01*
X151233942Y-73912063D01*
X151233945Y-73912075D01*
X151304611Y-74102881D01*
X151304613Y-74102884D01*
X151304614Y-74102887D01*
X151316805Y-74122446D01*
X151412245Y-74275567D01*
X151412247Y-74275569D01*
X151412248Y-74275571D01*
X151552441Y-74423053D01*
X151652239Y-74492514D01*
X151719449Y-74539294D01*
X151719450Y-74539294D01*
X151719451Y-74539295D01*
X151906442Y-74619540D01*
X152105759Y-74660500D01*
X152658243Y-74660500D01*
X152734090Y-74652787D01*
X152809938Y-74645074D01*
X152956797Y-74598995D01*
X152973049Y-74595793D01*
X152972949Y-74595252D01*
X152978926Y-74594140D01*
X152978935Y-74594140D01*
X154008787Y-74295864D01*
X154078654Y-74296121D01*
X154130962Y-74327288D01*
X154832181Y-75028507D01*
X154865666Y-75089830D01*
X154868500Y-75116188D01*
X154868500Y-77580078D01*
X154868264Y-77585485D01*
X154864735Y-77625808D01*
X154875212Y-77664910D01*
X154876383Y-77670190D01*
X154883411Y-77710043D01*
X154885235Y-77715055D01*
X154892197Y-77731861D01*
X154894445Y-77736681D01*
X154894446Y-77736684D01*
X154907218Y-77754925D01*
X154917655Y-77769831D01*
X154920561Y-77774392D01*
X154940806Y-77809455D01*
X154971815Y-77835475D01*
X154975805Y-77839131D01*
X155816787Y-78680113D01*
X155818794Y-78682263D01*
X155821101Y-78684427D01*
X155840863Y-78704189D01*
X155844518Y-78708178D01*
X155870541Y-78739190D01*
X155870543Y-78739191D01*
X155870545Y-78739194D01*
X155870547Y-78739195D01*
X155870548Y-78739196D01*
X155905599Y-78759433D01*
X155910162Y-78762339D01*
X155943316Y-78785554D01*
X155943319Y-78785554D01*
X155948174Y-78787819D01*
X155964902Y-78794748D01*
X155969813Y-78796535D01*
X155999814Y-78812393D01*
X156169987Y-78934782D01*
X156200688Y-78966558D01*
X156243448Y-79030553D01*
X156309769Y-79074867D01*
X156309770Y-79074868D01*
X156368247Y-79086499D01*
X156368250Y-79086500D01*
X156368252Y-79086500D01*
X158307750Y-79086500D01*
X158307751Y-79086499D01*
X158322568Y-79083552D01*
X158366229Y-79074868D01*
X158366229Y-79074867D01*
X158366231Y-79074867D01*
X158432552Y-79030552D01*
X158476867Y-78964231D01*
X158476867Y-78964229D01*
X158476868Y-78964229D01*
X158488499Y-78905752D01*
X158488500Y-78905750D01*
X158488500Y-78066249D01*
X158488499Y-78066243D01*
X158476868Y-78007770D01*
X158476867Y-78007769D01*
X158432552Y-77941447D01*
X158366230Y-77897132D01*
X158366229Y-77897131D01*
X158307752Y-77885500D01*
X158307748Y-77885500D01*
X156436287Y-77885500D01*
X156425895Y-77884543D01*
X156417754Y-77884177D01*
X156407540Y-77885139D01*
X156406612Y-77885227D01*
X156400798Y-77885500D01*
X156368250Y-77885500D01*
X156355455Y-77888044D01*
X156339483Y-77891221D01*
X156333217Y-77892137D01*
X156326705Y-77892751D01*
X156326700Y-77892751D01*
X156326699Y-77892752D01*
X156326697Y-77892752D01*
X156326690Y-77892754D01*
X156322522Y-77894127D01*
X156315224Y-77896047D01*
X156309772Y-77897131D01*
X156309766Y-77897134D01*
X156280659Y-77916582D01*
X156276734Y-77918999D01*
X156248392Y-77935026D01*
X156198046Y-77978390D01*
X156134404Y-78007225D01*
X156065275Y-77997075D01*
X156029442Y-77972116D01*
X155843326Y-77786000D01*
X158888000Y-77786000D01*
X158888000Y-77983844D01*
X158894401Y-78043372D01*
X158894403Y-78043379D01*
X158944645Y-78178086D01*
X158944649Y-78178093D01*
X159030809Y-78293187D01*
X159030812Y-78293190D01*
X159145906Y-78379350D01*
X159145913Y-78379354D01*
X159280620Y-78429596D01*
X159280627Y-78429598D01*
X159340155Y-78435999D01*
X159340172Y-78436000D01*
X160088000Y-78436000D01*
X160088000Y-77786000D01*
X160588000Y-77786000D01*
X160588000Y-78436000D01*
X161335828Y-78436000D01*
X161335844Y-78435999D01*
X161395372Y-78429598D01*
X161395379Y-78429596D01*
X161530086Y-78379354D01*
X161530093Y-78379350D01*
X161645187Y-78293190D01*
X161645190Y-78293187D01*
X161731350Y-78178093D01*
X161731354Y-78178086D01*
X161781596Y-78043379D01*
X161781598Y-78043372D01*
X161787999Y-77983844D01*
X161788000Y-77983827D01*
X161788000Y-77786000D01*
X160588000Y-77786000D01*
X160088000Y-77786000D01*
X158888000Y-77786000D01*
X155843326Y-77786000D01*
X155555819Y-77498493D01*
X155522334Y-77437170D01*
X155519500Y-77410812D01*
X155519500Y-77286000D01*
X158888000Y-77286000D01*
X160088000Y-77286000D01*
X160088000Y-76636000D01*
X160588000Y-76636000D01*
X160588000Y-77286000D01*
X161788000Y-77286000D01*
X161788000Y-77088172D01*
X161787999Y-77088155D01*
X161781598Y-77028627D01*
X161781596Y-77028620D01*
X161731354Y-76893913D01*
X161731350Y-76893906D01*
X161645190Y-76778812D01*
X161645187Y-76778809D01*
X161530093Y-76692649D01*
X161530086Y-76692645D01*
X161395379Y-76642403D01*
X161395372Y-76642401D01*
X161335844Y-76636000D01*
X160588000Y-76636000D01*
X160088000Y-76636000D01*
X159340155Y-76636000D01*
X159280627Y-76642401D01*
X159280620Y-76642403D01*
X159145913Y-76692645D01*
X159145906Y-76692649D01*
X159030812Y-76778809D01*
X159030809Y-76778812D01*
X158944649Y-76893906D01*
X158944645Y-76893913D01*
X158894403Y-77028620D01*
X158894401Y-77028627D01*
X158888000Y-77088155D01*
X158888000Y-77286000D01*
X155519500Y-77286000D01*
X155519500Y-75556000D01*
X155888000Y-75556000D01*
X155888000Y-75753844D01*
X155894401Y-75813372D01*
X155894403Y-75813379D01*
X155944645Y-75948086D01*
X155944649Y-75948093D01*
X156030809Y-76063187D01*
X156030812Y-76063190D01*
X156145906Y-76149350D01*
X156145913Y-76149354D01*
X156280620Y-76199596D01*
X156280627Y-76199598D01*
X156340155Y-76205999D01*
X156340172Y-76206000D01*
X157088000Y-76206000D01*
X157088000Y-75556000D01*
X157588000Y-75556000D01*
X157588000Y-76206000D01*
X158335828Y-76206000D01*
X158335844Y-76205999D01*
X158395372Y-76199598D01*
X158395379Y-76199596D01*
X158530086Y-76149354D01*
X158530093Y-76149350D01*
X158645187Y-76063190D01*
X158645190Y-76063187D01*
X158731350Y-75948093D01*
X158731354Y-75948086D01*
X158781596Y-75813379D01*
X158781598Y-75813372D01*
X158787999Y-75753844D01*
X158788000Y-75753827D01*
X158788000Y-75556000D01*
X157588000Y-75556000D01*
X157088000Y-75556000D01*
X155888000Y-75556000D01*
X155519500Y-75556000D01*
X155519500Y-75056000D01*
X155888000Y-75056000D01*
X157088000Y-75056000D01*
X157088000Y-74406000D01*
X157588000Y-74406000D01*
X157588000Y-75056000D01*
X158788000Y-75056000D01*
X158788000Y-74858172D01*
X158787999Y-74858155D01*
X158781598Y-74798627D01*
X158781596Y-74798620D01*
X158731354Y-74663913D01*
X158731350Y-74663906D01*
X158645190Y-74548812D01*
X158645187Y-74548809D01*
X158530093Y-74462649D01*
X158530086Y-74462645D01*
X158395379Y-74412403D01*
X158395372Y-74412401D01*
X158335844Y-74406000D01*
X157588000Y-74406000D01*
X157088000Y-74406000D01*
X156340155Y-74406000D01*
X156280627Y-74412401D01*
X156280620Y-74412403D01*
X156145913Y-74462645D01*
X156145906Y-74462649D01*
X156030812Y-74548809D01*
X156030809Y-74548812D01*
X155944649Y-74663906D01*
X155944645Y-74663913D01*
X155894403Y-74798620D01*
X155894401Y-74798627D01*
X155888000Y-74858155D01*
X155888000Y-75056000D01*
X155519500Y-75056000D01*
X155519500Y-74946920D01*
X155519736Y-74941513D01*
X155519776Y-74941063D01*
X155523264Y-74901193D01*
X155512782Y-74862076D01*
X155511616Y-74856818D01*
X155504588Y-74816955D01*
X155504586Y-74816952D01*
X155504586Y-74816950D01*
X155502760Y-74811933D01*
X155495820Y-74795176D01*
X155493554Y-74790319D01*
X155493554Y-74790316D01*
X155470339Y-74757162D01*
X155467433Y-74752599D01*
X155447196Y-74717548D01*
X155447195Y-74717547D01*
X155447194Y-74717545D01*
X155416177Y-74691518D01*
X155412193Y-74687867D01*
X154924140Y-74199814D01*
X154550078Y-73825752D01*
X156187500Y-73825752D01*
X156199131Y-73884229D01*
X156199132Y-73884230D01*
X156243447Y-73950552D01*
X156309769Y-73994867D01*
X156309770Y-73994868D01*
X156368247Y-74006499D01*
X156368250Y-74006500D01*
X156368252Y-74006500D01*
X158307750Y-74006500D01*
X158307751Y-74006499D01*
X158322568Y-74003552D01*
X158366229Y-73994868D01*
X158366229Y-73994867D01*
X158366231Y-73994867D01*
X158432552Y-73950552D01*
X158476867Y-73884231D01*
X158476867Y-73884229D01*
X158476868Y-73884229D01*
X158488499Y-73825752D01*
X158488500Y-73825750D01*
X158488500Y-73363187D01*
X158500239Y-73310523D01*
X158525942Y-73255734D01*
X158675116Y-72937744D01*
X158699692Y-72902733D01*
X159019744Y-72582680D01*
X159033543Y-72570777D01*
X159048910Y-72559377D01*
X159048912Y-72559376D01*
X159048914Y-72559374D01*
X159104398Y-72498130D01*
X159106455Y-72495970D01*
X159206210Y-72396215D01*
X159210172Y-72392584D01*
X159241194Y-72366555D01*
X159261445Y-72331476D01*
X159264321Y-72326961D01*
X159278586Y-72306588D01*
X159283412Y-72300540D01*
X159631503Y-71916327D01*
X159649758Y-71899819D01*
X159660150Y-71892150D01*
X159740793Y-71782882D01*
X159763219Y-71718790D01*
X159785646Y-71654701D01*
X159785646Y-71654699D01*
X159788500Y-71624269D01*
X159788500Y-70615730D01*
X159785646Y-70585300D01*
X159785646Y-70585298D01*
X159740793Y-70457119D01*
X159740792Y-70457117D01*
X159728413Y-70440344D01*
X159660150Y-70347850D01*
X159550882Y-70267207D01*
X159550880Y-70267206D01*
X159422700Y-70222353D01*
X159392270Y-70219500D01*
X159392266Y-70219500D01*
X158583734Y-70219500D01*
X158583730Y-70219500D01*
X158553300Y-70222353D01*
X158553298Y-70222353D01*
X158425119Y-70267206D01*
X158425117Y-70267207D01*
X158315850Y-70347850D01*
X158235207Y-70457117D01*
X158235206Y-70457119D01*
X158190353Y-70585298D01*
X158190353Y-70585300D01*
X158187500Y-70615730D01*
X158187500Y-71624269D01*
X158190353Y-71654694D01*
X158190354Y-71654701D01*
X158221422Y-71743490D01*
X158222460Y-71746742D01*
X158228615Y-71768025D01*
X158228621Y-71768040D01*
X158230897Y-71772436D01*
X158234360Y-71780463D01*
X158235205Y-71782878D01*
X158237087Y-71786438D01*
X158243409Y-71796593D01*
X158411164Y-72120500D01*
X158420659Y-72138832D01*
X158434010Y-72207414D01*
X158408164Y-72272328D01*
X158398231Y-72283540D01*
X158250688Y-72431083D01*
X158202402Y-72460978D01*
X157193350Y-72799076D01*
X157153955Y-72805500D01*
X156368247Y-72805500D01*
X156309770Y-72817131D01*
X156309769Y-72817132D01*
X156243447Y-72861447D01*
X156199132Y-72927769D01*
X156199131Y-72927770D01*
X156187500Y-72986247D01*
X156187500Y-73825752D01*
X154550078Y-73825752D01*
X154420119Y-73695793D01*
X154416474Y-73691814D01*
X154390456Y-73660807D01*
X154390455Y-73660806D01*
X154379058Y-73654226D01*
X154355392Y-73640561D01*
X154350831Y-73637655D01*
X154337687Y-73628452D01*
X154317684Y-73614446D01*
X154317681Y-73614445D01*
X154312861Y-73612197D01*
X154296055Y-73605235D01*
X154291046Y-73603412D01*
X154264217Y-73598681D01*
X154214228Y-73577857D01*
X153298618Y-72931318D01*
X153298267Y-72931070D01*
X153279917Y-72915208D01*
X153262560Y-72896948D01*
X153095550Y-72780705D01*
X152908556Y-72700459D01*
X152709241Y-72659500D01*
X152156758Y-72659500D01*
X152156757Y-72659500D01*
X152005060Y-72674925D01*
X151810920Y-72735837D01*
X151810905Y-72735844D01*
X151633000Y-72834589D01*
X151632995Y-72834592D01*
X151478606Y-72967132D01*
X151478604Y-72967134D01*
X151354054Y-73128037D01*
X151354053Y-73128040D01*
X151264440Y-73310728D01*
X151213437Y-73507714D01*
X151203131Y-73710936D01*
X139957262Y-73710936D01*
X139688119Y-73441793D01*
X139684474Y-73437814D01*
X139658456Y-73406807D01*
X139658455Y-73406806D01*
X139647058Y-73400226D01*
X139623392Y-73386561D01*
X139618831Y-73383655D01*
X139605687Y-73374452D01*
X139585684Y-73360446D01*
X139585681Y-73360445D01*
X139580861Y-73358197D01*
X139564055Y-73351235D01*
X139559043Y-73349411D01*
X139519190Y-73342383D01*
X139513910Y-73341212D01*
X139474808Y-73330735D01*
X139439892Y-73333790D01*
X139434481Y-73334264D01*
X139429078Y-73334500D01*
X131432261Y-73334500D01*
X131379092Y-73322522D01*
X130150790Y-72739529D01*
X130150776Y-72739524D01*
X130118701Y-72730082D01*
X130111753Y-72727579D01*
X130048558Y-72700460D01*
X129849241Y-72659500D01*
X129296758Y-72659500D01*
X129296757Y-72659500D01*
X129145060Y-72674925D01*
X128950920Y-72735837D01*
X128950905Y-72735844D01*
X128773000Y-72834589D01*
X128772995Y-72834592D01*
X128618606Y-72967132D01*
X128618604Y-72967134D01*
X128494054Y-73128037D01*
X128494053Y-73128040D01*
X128404440Y-73310728D01*
X128353437Y-73507714D01*
X128343131Y-73710936D01*
X127071500Y-73710936D01*
X127071500Y-72322187D01*
X127091185Y-72255148D01*
X127107815Y-72234510D01*
X127808224Y-71534100D01*
X127869545Y-71500617D01*
X127939236Y-71505601D01*
X127954236Y-71512361D01*
X128372878Y-71735572D01*
X128829848Y-71979219D01*
X128836097Y-71983040D01*
X128859451Y-71999295D01*
X128898308Y-72015969D01*
X128903019Y-72018231D01*
X128935429Y-72035512D01*
X128970430Y-72047158D01*
X128975275Y-72048999D01*
X129046442Y-72079540D01*
X129245759Y-72120500D01*
X129798243Y-72120500D01*
X129949939Y-72105074D01*
X130144079Y-72044162D01*
X130144080Y-72044161D01*
X130144088Y-72044159D01*
X130322002Y-71945409D01*
X130476395Y-71812866D01*
X130600948Y-71651958D01*
X130690560Y-71469271D01*
X130741563Y-71272285D01*
X130751869Y-71069064D01*
X130721056Y-70867929D01*
X130650386Y-70677113D01*
X130542752Y-70504429D01*
X130461723Y-70419187D01*
X130402561Y-70356949D01*
X130402560Y-70356948D01*
X130402559Y-70356947D01*
X130273626Y-70267207D01*
X130235550Y-70240705D01*
X130048556Y-70160459D01*
X129849241Y-70119500D01*
X129296758Y-70119500D01*
X129296757Y-70119500D01*
X129145060Y-70134925D01*
X128950914Y-70195840D01*
X128950905Y-70195843D01*
X128945654Y-70198758D01*
X128942385Y-70200447D01*
X127702018Y-70795401D01*
X127669929Y-70805712D01*
X127648957Y-70809410D01*
X127643961Y-70811229D01*
X127627122Y-70818204D01*
X127622313Y-70820446D01*
X127589166Y-70843656D01*
X127584606Y-70846562D01*
X127549548Y-70866804D01*
X127549540Y-70866810D01*
X127523523Y-70897815D01*
X127519869Y-70901804D01*
X126527803Y-71893870D01*
X126523814Y-71897525D01*
X126492805Y-71923545D01*
X126472562Y-71958606D01*
X126469656Y-71963166D01*
X126446446Y-71996313D01*
X126444206Y-72001117D01*
X126437229Y-72017961D01*
X126435410Y-72022959D01*
X126428383Y-72062811D01*
X126427212Y-72068091D01*
X126416735Y-72107191D01*
X126420264Y-72147513D01*
X126420500Y-72152920D01*
X126420500Y-74235811D01*
X126400815Y-74302850D01*
X126384181Y-74323492D01*
X125629408Y-75078264D01*
X125568085Y-75111749D01*
X125498393Y-75106765D01*
X125483577Y-75100103D01*
X125137672Y-74916445D01*
X125123620Y-74907597D01*
X125121710Y-74906587D01*
X125113731Y-74903100D01*
X125113609Y-74903373D01*
X125109924Y-74901713D01*
X125060063Y-74883051D01*
X125060042Y-74883045D01*
X125051137Y-74880977D01*
X125051175Y-74880810D01*
X125036163Y-74876862D01*
X124994701Y-74862354D01*
X124994694Y-74862353D01*
X124964270Y-74859500D01*
X124964266Y-74859500D01*
X123955734Y-74859500D01*
X123955730Y-74859500D01*
X123925300Y-74862353D01*
X123925298Y-74862353D01*
X123797119Y-74907206D01*
X123797117Y-74907207D01*
X123687850Y-74987850D01*
X123607207Y-75097117D01*
X123607206Y-75097119D01*
X123562353Y-75225298D01*
X123562353Y-75225300D01*
X123559500Y-75255730D01*
X123559500Y-76064269D01*
X115062500Y-76064269D01*
X115062500Y-71031752D01*
X120261500Y-71031752D01*
X120273131Y-71090229D01*
X120273132Y-71090230D01*
X120317447Y-71156552D01*
X120383769Y-71200867D01*
X120383770Y-71200868D01*
X120442247Y-71212499D01*
X120442250Y-71212500D01*
X120442252Y-71212500D01*
X120835235Y-71212500D01*
X120902274Y-71232185D01*
X120937416Y-71266250D01*
X121060651Y-71445500D01*
X121064681Y-71451361D01*
X121086440Y-71517756D01*
X121086500Y-71521611D01*
X121086500Y-72278571D01*
X121078489Y-72322417D01*
X120854225Y-72915676D01*
X120854223Y-72915684D01*
X120852408Y-72926038D01*
X120844833Y-72952077D01*
X120826956Y-72995236D01*
X120806318Y-73151998D01*
X120806318Y-73152001D01*
X120826955Y-73308760D01*
X120826956Y-73308762D01*
X120887464Y-73454841D01*
X120983718Y-73580282D01*
X121109159Y-73676536D01*
X121255238Y-73737044D01*
X121333619Y-73747363D01*
X121411999Y-73757682D01*
X121412000Y-73757682D01*
X121412001Y-73757682D01*
X121464254Y-73750802D01*
X121568762Y-73737044D01*
X121714841Y-73676536D01*
X121840282Y-73580282D01*
X121936536Y-73454841D01*
X121997044Y-73308762D01*
X122017682Y-73152000D01*
X121997044Y-72995238D01*
X121979021Y-72951727D01*
X121971271Y-72924659D01*
X121969775Y-72915679D01*
X121745511Y-72322419D01*
X121737500Y-72278573D01*
X121737500Y-71981752D01*
X123261500Y-71981752D01*
X123273131Y-72040229D01*
X123273132Y-72040230D01*
X123317447Y-72106552D01*
X123383769Y-72150867D01*
X123383770Y-72150868D01*
X123442247Y-72162499D01*
X123442250Y-72162500D01*
X123442252Y-72162500D01*
X123835236Y-72162500D01*
X123902275Y-72182185D01*
X123937416Y-72216250D01*
X124016546Y-72331349D01*
X124024224Y-72342516D01*
X124045983Y-72408911D01*
X124028392Y-72476530D01*
X124025064Y-72481777D01*
X123671662Y-73009338D01*
X123669422Y-73012817D01*
X123607207Y-73097115D01*
X123562353Y-73225303D01*
X123559500Y-73255730D01*
X123559500Y-74064269D01*
X123562353Y-74094699D01*
X123562353Y-74094701D01*
X123607206Y-74222880D01*
X123607207Y-74222882D01*
X123687850Y-74332150D01*
X123797118Y-74412793D01*
X123826431Y-74423050D01*
X123925299Y-74457646D01*
X123955730Y-74460500D01*
X123955734Y-74460500D01*
X124964270Y-74460500D01*
X124994699Y-74457646D01*
X124994701Y-74457646D01*
X125058790Y-74435219D01*
X125122882Y-74412793D01*
X125232150Y-74332150D01*
X125312793Y-74222882D01*
X125351798Y-74111412D01*
X125357646Y-74094701D01*
X125357646Y-74094699D01*
X125360500Y-74064269D01*
X125360500Y-73255730D01*
X125357646Y-73225300D01*
X125357646Y-73225298D01*
X125312793Y-73097119D01*
X125312792Y-73097117D01*
X125250576Y-73012817D01*
X125232150Y-72987850D01*
X125229978Y-72986247D01*
X125195074Y-72960486D01*
X125171033Y-72937107D01*
X124811957Y-72477990D01*
X124786162Y-72413057D01*
X124799568Y-72344485D01*
X124807441Y-72331364D01*
X124879701Y-72226258D01*
X124886583Y-72216250D01*
X124940784Y-72172159D01*
X124988764Y-72162500D01*
X125381750Y-72162500D01*
X125381751Y-72162499D01*
X125396568Y-72159552D01*
X125440229Y-72150868D01*
X125440229Y-72150867D01*
X125440231Y-72150867D01*
X125506552Y-72106552D01*
X125550867Y-72040231D01*
X125550867Y-72040229D01*
X125550868Y-72040229D01*
X125562499Y-71981752D01*
X125562500Y-71981750D01*
X125562500Y-71142249D01*
X125562499Y-71142247D01*
X125550868Y-71083770D01*
X125550867Y-71083769D01*
X125506552Y-71017447D01*
X125440230Y-70973132D01*
X125440229Y-70973131D01*
X125381752Y-70961500D01*
X125381748Y-70961500D01*
X123442252Y-70961500D01*
X123442247Y-70961500D01*
X123383770Y-70973131D01*
X123383769Y-70973132D01*
X123317447Y-71017447D01*
X123273132Y-71083769D01*
X123273131Y-71083770D01*
X123261500Y-71142247D01*
X123261500Y-71981752D01*
X121737500Y-71981752D01*
X121737500Y-71521611D01*
X121757185Y-71454572D01*
X121759319Y-71451361D01*
X121763349Y-71445500D01*
X121886583Y-71266250D01*
X121940784Y-71222159D01*
X121988764Y-71212500D01*
X122381750Y-71212500D01*
X122381751Y-71212499D01*
X122396568Y-71209552D01*
X122440229Y-71200868D01*
X122440229Y-71200867D01*
X122440231Y-71200867D01*
X122506552Y-71156552D01*
X122550867Y-71090231D01*
X122550867Y-71090229D01*
X122550868Y-71090229D01*
X122562499Y-71031752D01*
X122562500Y-71031750D01*
X122562500Y-70192249D01*
X122562499Y-70192247D01*
X122550868Y-70133770D01*
X122550867Y-70133769D01*
X122506552Y-70067447D01*
X122440230Y-70023132D01*
X122440229Y-70023131D01*
X122381752Y-70011500D01*
X122381748Y-70011500D01*
X120442252Y-70011500D01*
X120442247Y-70011500D01*
X120383770Y-70023131D01*
X120383769Y-70023132D01*
X120317447Y-70067447D01*
X120273132Y-70133769D01*
X120273131Y-70133770D01*
X120261500Y-70192247D01*
X120261500Y-71031752D01*
X115062500Y-71031752D01*
X115062500Y-69912000D01*
X122962000Y-69912000D01*
X122962000Y-70109844D01*
X122968401Y-70169372D01*
X122968403Y-70169379D01*
X123018645Y-70304086D01*
X123018649Y-70304093D01*
X123104809Y-70419187D01*
X123104812Y-70419190D01*
X123219906Y-70505350D01*
X123219913Y-70505354D01*
X123354620Y-70555596D01*
X123354627Y-70555598D01*
X123414155Y-70561999D01*
X123414172Y-70562000D01*
X124162000Y-70562000D01*
X124162000Y-69912000D01*
X124662000Y-69912000D01*
X124662000Y-70562000D01*
X125409828Y-70562000D01*
X125409844Y-70561999D01*
X125469372Y-70555598D01*
X125469379Y-70555596D01*
X125604086Y-70505354D01*
X125604093Y-70505350D01*
X125719187Y-70419190D01*
X125719190Y-70419187D01*
X125805350Y-70304093D01*
X125805354Y-70304086D01*
X125855596Y-70169379D01*
X125855598Y-70169372D01*
X125861999Y-70109844D01*
X125862000Y-70109827D01*
X125862000Y-69912000D01*
X124662000Y-69912000D01*
X124162000Y-69912000D01*
X122962000Y-69912000D01*
X115062500Y-69912000D01*
X115062500Y-69412000D01*
X122962000Y-69412000D01*
X124162000Y-69412000D01*
X124162000Y-68762000D01*
X124662000Y-68762000D01*
X124662000Y-69412000D01*
X125862000Y-69412000D01*
X125862000Y-69214172D01*
X125861999Y-69214155D01*
X125855598Y-69154627D01*
X125855596Y-69154620D01*
X125805354Y-69019913D01*
X125805350Y-69019906D01*
X125719190Y-68904812D01*
X125719187Y-68904809D01*
X125604093Y-68818649D01*
X125604086Y-68818645D01*
X125469379Y-68768403D01*
X125469372Y-68768401D01*
X125409844Y-68762000D01*
X124662000Y-68762000D01*
X124162000Y-68762000D01*
X123414155Y-68762000D01*
X123354627Y-68768401D01*
X123354620Y-68768403D01*
X123219913Y-68818645D01*
X123219906Y-68818649D01*
X123104812Y-68904809D01*
X123104809Y-68904812D01*
X123018649Y-69019906D01*
X123018645Y-69019913D01*
X122968403Y-69154620D01*
X122968401Y-69154627D01*
X122962000Y-69214155D01*
X122962000Y-69412000D01*
X115062500Y-69412000D01*
X115062500Y-68630936D01*
X128343131Y-68630936D01*
X128373942Y-68832063D01*
X128373945Y-68832075D01*
X128444611Y-69022881D01*
X128444615Y-69022888D01*
X128552245Y-69195567D01*
X128552249Y-69195572D01*
X128633076Y-69280602D01*
X128692441Y-69343053D01*
X128820844Y-69432424D01*
X128859449Y-69459294D01*
X128859450Y-69459294D01*
X128859451Y-69459295D01*
X129046442Y-69539540D01*
X129245759Y-69580500D01*
X129798243Y-69580500D01*
X129949939Y-69565074D01*
X130144079Y-69504162D01*
X130144080Y-69504161D01*
X130144088Y-69504159D01*
X130322002Y-69405409D01*
X130476395Y-69272866D01*
X130600948Y-69111958D01*
X130690560Y-68929271D01*
X130741563Y-68732285D01*
X130746703Y-68630936D01*
X151203131Y-68630936D01*
X151233942Y-68832063D01*
X151233945Y-68832075D01*
X151304611Y-69022881D01*
X151304615Y-69022888D01*
X151412245Y-69195567D01*
X151412249Y-69195572D01*
X151493076Y-69280602D01*
X151552441Y-69343053D01*
X151680844Y-69432424D01*
X151719449Y-69459294D01*
X151719450Y-69459294D01*
X151719451Y-69459295D01*
X151906442Y-69539540D01*
X152105759Y-69580500D01*
X152658243Y-69580500D01*
X152809939Y-69565074D01*
X153004079Y-69504162D01*
X153004080Y-69504161D01*
X153004088Y-69504159D01*
X153182002Y-69405409D01*
X153336395Y-69272866D01*
X153460948Y-69111958D01*
X153550560Y-68929271D01*
X153601563Y-68732285D01*
X153611869Y-68529064D01*
X153581056Y-68327929D01*
X153510386Y-68137113D01*
X153402752Y-67964429D01*
X153262559Y-67816947D01*
X153133626Y-67727207D01*
X153095550Y-67700705D01*
X152908556Y-67620459D01*
X152709241Y-67579500D01*
X152156758Y-67579500D01*
X152156757Y-67579500D01*
X152005060Y-67594925D01*
X151810920Y-67655837D01*
X151810905Y-67655844D01*
X151633000Y-67754589D01*
X151632995Y-67754592D01*
X151478606Y-67887132D01*
X151478604Y-67887134D01*
X151354054Y-68048037D01*
X151354053Y-68048040D01*
X151264440Y-68230728D01*
X151213437Y-68427714D01*
X151203131Y-68630936D01*
X130746703Y-68630936D01*
X130751869Y-68529064D01*
X130721056Y-68327929D01*
X130650386Y-68137113D01*
X130542752Y-67964429D01*
X130402559Y-67816947D01*
X130273626Y-67727207D01*
X130235550Y-67700705D01*
X130048556Y-67620459D01*
X129849241Y-67579500D01*
X129296758Y-67579500D01*
X129296757Y-67579500D01*
X129145060Y-67594925D01*
X128950920Y-67655837D01*
X128950905Y-67655844D01*
X128773000Y-67754589D01*
X128772995Y-67754592D01*
X128618606Y-67887132D01*
X128618604Y-67887134D01*
X128494054Y-68048037D01*
X128494053Y-68048040D01*
X128404440Y-68230728D01*
X128353437Y-68427714D01*
X128343131Y-68630936D01*
X115062500Y-68630936D01*
X115062500Y-67434000D01*
X115082185Y-67366961D01*
X115134989Y-67321206D01*
X115186500Y-67310000D01*
X158101551Y-67310000D01*
X158168590Y-67329685D01*
G37*
%TD.AperFunction*%
%TD*%
%TA.AperFunction,Conductor*%
%TO.N,Net-(U1-MOSI{slash}D7)*%
G36*
X124468016Y-78747543D02*
G01*
X125034083Y-79280191D01*
X125037760Y-79288355D01*
X125036078Y-79294763D01*
X124588414Y-80035352D01*
X124581201Y-80040660D01*
X124578401Y-80041000D01*
X124341599Y-80041000D01*
X124333326Y-80037573D01*
X124331586Y-80035352D01*
X123883921Y-79294763D01*
X123882574Y-79285911D01*
X123885914Y-79280193D01*
X124451983Y-78747543D01*
X124460356Y-78744370D01*
X124468016Y-78747543D01*
G37*
%TD.AperFunction*%
%TD*%
%TA.AperFunction,Conductor*%
%TO.N,RED{slash}CTRL*%
G36*
X132048807Y-107375915D02*
G01*
X132365623Y-107712608D01*
X132581455Y-107941982D01*
X132584629Y-107950356D01*
X132581455Y-107958018D01*
X132048809Y-108524083D01*
X132040644Y-108527760D01*
X132034236Y-108526078D01*
X131293648Y-108078414D01*
X131288340Y-108071201D01*
X131288000Y-108068401D01*
X131288000Y-107831598D01*
X131291427Y-107823325D01*
X131293642Y-107821589D01*
X132034238Y-107373920D01*
X132043088Y-107372574D01*
X132048807Y-107375915D01*
G37*
%TD.AperFunction*%
%TD*%
%TA.AperFunction,Conductor*%
%TO.N,Net-(D1-A)*%
G36*
X150576356Y-100111392D02*
G01*
X150912069Y-100577159D01*
X150914127Y-100585874D01*
X150912069Y-100590841D01*
X150576356Y-101056607D01*
X150568739Y-101061315D01*
X150561274Y-101060044D01*
X149922109Y-100712323D01*
X149916479Y-100705359D01*
X149916000Y-100702045D01*
X149916000Y-100465954D01*
X149919427Y-100457681D01*
X149922106Y-100455678D01*
X150561276Y-100107954D01*
X150570179Y-100107012D01*
X150576356Y-100111392D01*
G37*
%TD.AperFunction*%
%TD*%
%TA.AperFunction,Conductor*%
%TO.N,STS_OBST*%
G36*
X121698261Y-85539282D02*
G01*
X122011251Y-85853054D01*
X122083135Y-85925118D01*
X122086552Y-85933396D01*
X122084493Y-85940009D01*
X121818487Y-86326928D01*
X121810976Y-86331804D01*
X121808846Y-86332000D01*
X121571154Y-86332000D01*
X121562881Y-86328573D01*
X121561513Y-86326928D01*
X121295506Y-85940009D01*
X121293643Y-85931251D01*
X121296863Y-85925119D01*
X121681718Y-85539302D01*
X121689985Y-85535866D01*
X121698261Y-85539282D01*
G37*
%TD.AperFunction*%
%TD*%
%TA.AperFunction,Conductor*%
%TO.N,/ESP_RX*%
G36*
X156394682Y-78088816D02*
G01*
X157311447Y-78475217D01*
X157317740Y-78481588D01*
X157317684Y-78490542D01*
X157311313Y-78496835D01*
X157310963Y-78496971D01*
X156393838Y-78836288D01*
X156384890Y-78835945D01*
X156382947Y-78834814D01*
X155938613Y-78515250D01*
X155933897Y-78507637D01*
X155935945Y-78498920D01*
X155937165Y-78497484D01*
X156104067Y-78330582D01*
X156104373Y-78330299D01*
X156382505Y-78090732D01*
X156391009Y-78087930D01*
X156394682Y-78088816D01*
G37*
%TD.AperFunction*%
%TD*%
%TA.AperFunction,Conductor*%
%TO.N,DC_OPEN*%
G36*
X161178530Y-97011989D02*
G01*
X161793182Y-97782705D01*
X161795661Y-97791310D01*
X161793182Y-97797295D01*
X161178530Y-98568010D01*
X161170693Y-98572341D01*
X161164317Y-98571262D01*
X159804634Y-97918186D01*
X159798661Y-97911515D01*
X159798000Y-97907639D01*
X159798000Y-97672360D01*
X159801427Y-97664087D01*
X159804631Y-97661814D01*
X161164318Y-97008736D01*
X161173259Y-97008245D01*
X161178530Y-97011989D01*
G37*
%TD.AperFunction*%
%TD*%
%TA.AperFunction,Conductor*%
%TO.N,+5V*%
G36*
X160160457Y-117636351D02*
G01*
X160162825Y-117639759D01*
X160709058Y-118834562D01*
X160709381Y-118843511D01*
X160705592Y-118848668D01*
X160027175Y-119375428D01*
X160018539Y-119377795D01*
X160012825Y-119375428D01*
X159334558Y-118848785D01*
X159330125Y-118841005D01*
X159331190Y-118834470D01*
X159906511Y-117639548D01*
X159913188Y-117633581D01*
X159917053Y-117632924D01*
X160152184Y-117632924D01*
X160160457Y-117636351D01*
G37*
%TD.AperFunction*%
%TD*%
%TA.AperFunction,Conductor*%
%TO.N,RED{slash}CTRL*%
G36*
X125988076Y-102146941D02*
G01*
X125992071Y-102153140D01*
X126416563Y-103802983D01*
X126415306Y-103811849D01*
X126413505Y-103814171D01*
X126246161Y-103981515D01*
X126237888Y-103984942D01*
X126234995Y-103984579D01*
X124589825Y-103564748D01*
X124582656Y-103559382D01*
X124581081Y-103552200D01*
X124712314Y-102290695D01*
X124716578Y-102282823D01*
X124722691Y-102280277D01*
X125979483Y-102144423D01*
X125988076Y-102146941D01*
G37*
%TD.AperFunction*%
%TD*%
%TA.AperFunction,Conductor*%
%TO.N,Net-(U1-D0)*%
G36*
X125013563Y-75083220D02*
G01*
X125596256Y-75392600D01*
X125599042Y-75394661D01*
X125765805Y-75561424D01*
X125769232Y-75569697D01*
X125765805Y-75577970D01*
X125765306Y-75578441D01*
X125102493Y-76167756D01*
X125094033Y-76170692D01*
X125087367Y-76168113D01*
X124469099Y-75668629D01*
X124464818Y-75660764D01*
X124467351Y-75652175D01*
X124467924Y-75651518D01*
X124999552Y-75085543D01*
X125007712Y-75081861D01*
X125013563Y-75083220D01*
G37*
%TD.AperFunction*%
%TD*%
%TA.AperFunction,Conductor*%
%TO.N,Net-(U1-D0)*%
G36*
X129118184Y-70979866D02*
G01*
X129514337Y-71108875D01*
X129521142Y-71114695D01*
X129521839Y-71123623D01*
X129516019Y-71130428D01*
X129514337Y-71131125D01*
X128618248Y-71422938D01*
X128609320Y-71422241D01*
X128604020Y-71416754D01*
X128525095Y-71247350D01*
X128524000Y-71242409D01*
X128524000Y-70997590D01*
X128525095Y-70992649D01*
X128604020Y-70823245D01*
X128610620Y-70817193D01*
X128618247Y-70817061D01*
X129118184Y-70979866D01*
G37*
%TD.AperFunction*%
%TD*%
%TA.AperFunction,Conductor*%
%TO.N,RED{slash}CTRL*%
G36*
X161178530Y-107171989D02*
G01*
X161793182Y-107942705D01*
X161795661Y-107951310D01*
X161793182Y-107957295D01*
X161178530Y-108728010D01*
X161170693Y-108732341D01*
X161164317Y-108731262D01*
X159804634Y-108078186D01*
X159798661Y-108071515D01*
X159798000Y-108067639D01*
X159798000Y-107832360D01*
X159801427Y-107824087D01*
X159804631Y-107821814D01*
X161164318Y-107168736D01*
X161173259Y-107168245D01*
X161178530Y-107171989D01*
G37*
%TD.AperFunction*%
%TD*%
%TA.AperFunction,Conductor*%
%TO.N,+12V*%
G36*
X125556597Y-117572056D02*
G01*
X126994488Y-118489550D01*
X126999618Y-118496889D01*
X126999894Y-118499413D01*
X126999894Y-118736030D01*
X126996467Y-118744303D01*
X126993766Y-118746318D01*
X125490095Y-119560670D01*
X125481188Y-119561597D01*
X125475152Y-119557388D01*
X124718619Y-118545515D01*
X124716410Y-118536837D01*
X124719117Y-118530884D01*
X125541432Y-117574291D01*
X125549422Y-117570252D01*
X125556597Y-117572056D01*
G37*
%TD.AperFunction*%
%TD*%
%TA.AperFunction,Conductor*%
%TO.N,/ESP_TX*%
G36*
X157114674Y-69823427D02*
G01*
X157116414Y-69825648D01*
X157564078Y-70566236D01*
X157565425Y-70575088D01*
X157562083Y-70580809D01*
X156996018Y-71113455D01*
X156987644Y-71116629D01*
X156979982Y-71113455D01*
X156750608Y-70897623D01*
X156413915Y-70580808D01*
X156410239Y-70572644D01*
X156411920Y-70566238D01*
X156859586Y-69825648D01*
X156866799Y-69820340D01*
X156869599Y-69820000D01*
X157106401Y-69820000D01*
X157114674Y-69823427D01*
G37*
%TD.AperFunction*%
%TD*%
%TA.AperFunction,Conductor*%
%TO.N,Net-(U1-D0)*%
G36*
X129047024Y-70389157D02*
G01*
X129543666Y-71112677D01*
X129545523Y-71121437D01*
X129543672Y-71125911D01*
X129047270Y-71850466D01*
X129039767Y-71855354D01*
X129032113Y-71854177D01*
X127841670Y-71219459D01*
X127838902Y-71217408D01*
X127675037Y-71053543D01*
X127671610Y-71045270D01*
X127675037Y-71036997D01*
X127678243Y-71034725D01*
X129032319Y-70385228D01*
X129041259Y-70384741D01*
X129047024Y-70389157D01*
G37*
%TD.AperFunction*%
%TD*%
%TA.AperFunction,Conductor*%
%TO.N,Net-(D3-A)*%
G36*
X151906999Y-75469125D02*
G01*
X152403957Y-76193380D01*
X152405812Y-76202141D01*
X152403957Y-76206620D01*
X151906999Y-76930874D01*
X151899493Y-76935756D01*
X151892335Y-76934824D01*
X150614183Y-76328171D01*
X150608179Y-76321528D01*
X150607500Y-76317601D01*
X150607500Y-76082398D01*
X150610927Y-76074125D01*
X150614183Y-76071828D01*
X151892337Y-75465174D01*
X151901279Y-75464724D01*
X151906999Y-75469125D01*
G37*
%TD.AperFunction*%
%TD*%
%TA.AperFunction,Conductor*%
%TO.N,Net-(D4-K)*%
G36*
X154197554Y-118637544D02*
G01*
X154932709Y-119371721D01*
X154936141Y-119379992D01*
X154932720Y-119388268D01*
X154932709Y-119388279D01*
X154197554Y-120122455D01*
X154189278Y-120125876D01*
X154181797Y-120123164D01*
X153444210Y-119508508D01*
X153440048Y-119500579D01*
X153440000Y-119499520D01*
X153440000Y-119260479D01*
X153443427Y-119252206D01*
X153444201Y-119251498D01*
X154181799Y-118636834D01*
X154190345Y-118634171D01*
X154197554Y-118637544D01*
G37*
%TD.AperFunction*%
%TD*%
%TA.AperFunction,Conductor*%
%TO.N,+5V*%
G36*
X150184473Y-111704194D02*
G01*
X150912803Y-112139594D01*
X150918146Y-112146780D01*
X150918500Y-112149636D01*
X150918500Y-112386363D01*
X150915073Y-112394636D01*
X150912803Y-112396405D01*
X150184476Y-112831804D01*
X150175617Y-112833108D01*
X150170223Y-112830058D01*
X150098614Y-112758851D01*
X149613341Y-112276294D01*
X149609892Y-112268033D01*
X149613296Y-112259750D01*
X150170224Y-111705940D01*
X150178506Y-111702537D01*
X150184473Y-111704194D01*
G37*
%TD.AperFunction*%
%TD*%
%TA.AperFunction,Conductor*%
%TO.N,Net-(Q4-G)*%
G36*
X124698384Y-86489157D02*
G01*
X124698402Y-86489174D01*
X124698407Y-86489179D01*
X125095265Y-86875258D01*
X125098806Y-86883483D01*
X125096881Y-86890075D01*
X124842467Y-87276731D01*
X124835057Y-87281759D01*
X124832693Y-87282000D01*
X124595003Y-87282000D01*
X124586730Y-87278573D01*
X124585499Y-87277123D01*
X124307632Y-86890075D01*
X124307533Y-86889937D01*
X124305493Y-86881220D01*
X124308629Y-86874980D01*
X124681843Y-86489426D01*
X124690059Y-86485867D01*
X124698384Y-86489157D01*
G37*
%TD.AperFunction*%
%TD*%
M02*
