M48
; DRILL file {KiCad 7.0.9} date Thu Nov  9 08:26:52 2023
; FORMAT={-:-/ absolute / inch / decimal}
; #@! TF.CreationDate,2023-11-09T08:26:52-08:00
; #@! TF.GenerationSoftware,Kicad,Pcbnew,7.0.9
; #@! TF.FileFunction,Plated,1,2,PTH
FMAT,2
INCH
; #@! TA.AperFunction,Plated,PTH,ViaDrill
T1C0.0157
; #@! TA.AperFunction,Plated,PTH,ComponentDrill
T2C0.0394
; #@! TA.AperFunction,Plated,PTH,ComponentDrill
T3C0.0512
%
G90
G05
T1
X4.81Y-2.86
X5.75Y-3.86
T2
X5.1003Y-2.6
X5.1003Y-2.7
X5.1003Y-2.8
X5.1003Y-2.9
X5.1003Y-3.0
X5.1003Y-3.1
X5.1003Y-3.2
X5.1003Y-3.3
X6.0003Y-2.6
X6.0003Y-2.7
X6.0003Y-2.8
X6.0003Y-2.9
X6.0003Y-3.0
X6.0003Y-3.1
X6.0003Y-3.2
X6.0003Y-3.3
X6.1006Y-4.6773
X6.2006Y-4.6773
X6.3006Y-4.6773
X6.37Y-3.3
X6.37Y-3.4
X6.37Y-3.5
X6.37Y-3.6
X6.37Y-3.7
X6.37Y-3.8
X6.37Y-3.9
X6.37Y-4.0
X6.37Y-4.1
X6.37Y-4.2
X6.37Y-4.3
T3
X4.91Y-3.83
X4.91Y-4.0269
X4.91Y-4.2237
X4.91Y-4.47
X4.91Y-4.6669
T0
M30
