%TF.GenerationSoftware,KiCad,Pcbnew,7.0.9*%
%TF.CreationDate,2023-11-17T16:32:07-08:00*%
%TF.ProjectId,RatGDO-OpenSource-D1Mini-ESP8266-Tubez,52617447-444f-42d4-9f70-656e536f7572,2.5.0*%
%TF.SameCoordinates,Original*%
%TF.FileFunction,Legend,Top*%
%TF.FilePolarity,Positive*%
%FSLAX46Y46*%
G04 Gerber Fmt 4.6, Leading zero omitted, Abs format (unit mm)*
G04 Created by KiCad (PCBNEW 7.0.9) date 2023-11-17 16:32:07*
%MOMM*%
%LPD*%
G01*
G04 APERTURE LIST*
%ADD10C,0.150000*%
%ADD11C,0.120000*%
G04 APERTURE END LIST*
D10*
X117818180Y-101465142D02*
X118294371Y-101131809D01*
X117818180Y-100893714D02*
X118818180Y-100893714D01*
X118818180Y-100893714D02*
X118818180Y-101274666D01*
X118818180Y-101274666D02*
X118770561Y-101369904D01*
X118770561Y-101369904D02*
X118722942Y-101417523D01*
X118722942Y-101417523D02*
X118627704Y-101465142D01*
X118627704Y-101465142D02*
X118484847Y-101465142D01*
X118484847Y-101465142D02*
X118389609Y-101417523D01*
X118389609Y-101417523D02*
X118341990Y-101369904D01*
X118341990Y-101369904D02*
X118294371Y-101274666D01*
X118294371Y-101274666D02*
X118294371Y-100893714D01*
X118341990Y-101893714D02*
X118341990Y-102227047D01*
X117818180Y-102369904D02*
X117818180Y-101893714D01*
X117818180Y-101893714D02*
X118818180Y-101893714D01*
X118818180Y-101893714D02*
X118818180Y-102369904D01*
X117818180Y-102798476D02*
X118818180Y-102798476D01*
X118818180Y-102798476D02*
X118818180Y-103036571D01*
X118818180Y-103036571D02*
X118770561Y-103179428D01*
X118770561Y-103179428D02*
X118675323Y-103274666D01*
X118675323Y-103274666D02*
X118580085Y-103322285D01*
X118580085Y-103322285D02*
X118389609Y-103369904D01*
X118389609Y-103369904D02*
X118246752Y-103369904D01*
X118246752Y-103369904D02*
X118056276Y-103322285D01*
X118056276Y-103322285D02*
X117961038Y-103274666D01*
X117961038Y-103274666D02*
X117865800Y-103179428D01*
X117865800Y-103179428D02*
X117818180Y-103036571D01*
X117818180Y-103036571D02*
X117818180Y-102798476D01*
X116303419Y-101131809D02*
X116255800Y-101084190D01*
X116255800Y-101084190D02*
X116208180Y-100941333D01*
X116208180Y-100941333D02*
X116208180Y-100846095D01*
X116208180Y-100846095D02*
X116255800Y-100703238D01*
X116255800Y-100703238D02*
X116351038Y-100608000D01*
X116351038Y-100608000D02*
X116446276Y-100560381D01*
X116446276Y-100560381D02*
X116636752Y-100512762D01*
X116636752Y-100512762D02*
X116779609Y-100512762D01*
X116779609Y-100512762D02*
X116970085Y-100560381D01*
X116970085Y-100560381D02*
X117065323Y-100608000D01*
X117065323Y-100608000D02*
X117160561Y-100703238D01*
X117160561Y-100703238D02*
X117208180Y-100846095D01*
X117208180Y-100846095D02*
X117208180Y-100941333D01*
X117208180Y-100941333D02*
X117160561Y-101084190D01*
X117160561Y-101084190D02*
X117112942Y-101131809D01*
X117208180Y-101417524D02*
X117208180Y-101988952D01*
X116208180Y-101703238D02*
X117208180Y-101703238D01*
X116208180Y-102893714D02*
X116684371Y-102560381D01*
X116208180Y-102322286D02*
X117208180Y-102322286D01*
X117208180Y-102322286D02*
X117208180Y-102703238D01*
X117208180Y-102703238D02*
X117160561Y-102798476D01*
X117160561Y-102798476D02*
X117112942Y-102846095D01*
X117112942Y-102846095D02*
X117017704Y-102893714D01*
X117017704Y-102893714D02*
X116874847Y-102893714D01*
X116874847Y-102893714D02*
X116779609Y-102846095D01*
X116779609Y-102846095D02*
X116731990Y-102798476D01*
X116731990Y-102798476D02*
X116684371Y-102703238D01*
X116684371Y-102703238D02*
X116684371Y-102322286D01*
X116208180Y-103798476D02*
X116208180Y-103322286D01*
X116208180Y-103322286D02*
X117208180Y-103322286D01*
X153340016Y-108581819D02*
X153006683Y-108105628D01*
X152768588Y-108581819D02*
X152768588Y-107581819D01*
X152768588Y-107581819D02*
X153149540Y-107581819D01*
X153149540Y-107581819D02*
X153244778Y-107629438D01*
X153244778Y-107629438D02*
X153292397Y-107677057D01*
X153292397Y-107677057D02*
X153340016Y-107772295D01*
X153340016Y-107772295D02*
X153340016Y-107915152D01*
X153340016Y-107915152D02*
X153292397Y-108010390D01*
X153292397Y-108010390D02*
X153244778Y-108058009D01*
X153244778Y-108058009D02*
X153149540Y-108105628D01*
X153149540Y-108105628D02*
X152768588Y-108105628D01*
X153768588Y-108058009D02*
X154101921Y-108058009D01*
X154244778Y-108581819D02*
X153768588Y-108581819D01*
X153768588Y-108581819D02*
X153768588Y-107581819D01*
X153768588Y-107581819D02*
X154244778Y-107581819D01*
X154673350Y-108581819D02*
X154673350Y-107581819D01*
X154673350Y-107581819D02*
X154911445Y-107581819D01*
X154911445Y-107581819D02*
X155054302Y-107629438D01*
X155054302Y-107629438D02*
X155149540Y-107724676D01*
X155149540Y-107724676D02*
X155197159Y-107819914D01*
X155197159Y-107819914D02*
X155244778Y-108010390D01*
X155244778Y-108010390D02*
X155244778Y-108153247D01*
X155244778Y-108153247D02*
X155197159Y-108343723D01*
X155197159Y-108343723D02*
X155149540Y-108438961D01*
X155149540Y-108438961D02*
X155054302Y-108534200D01*
X155054302Y-108534200D02*
X154911445Y-108581819D01*
X154911445Y-108581819D02*
X154673350Y-108581819D01*
X156387635Y-107534200D02*
X155530493Y-108819914D01*
X157292397Y-108486580D02*
X157244778Y-108534200D01*
X157244778Y-108534200D02*
X157101921Y-108581819D01*
X157101921Y-108581819D02*
X157006683Y-108581819D01*
X157006683Y-108581819D02*
X156863826Y-108534200D01*
X156863826Y-108534200D02*
X156768588Y-108438961D01*
X156768588Y-108438961D02*
X156720969Y-108343723D01*
X156720969Y-108343723D02*
X156673350Y-108153247D01*
X156673350Y-108153247D02*
X156673350Y-108010390D01*
X156673350Y-108010390D02*
X156720969Y-107819914D01*
X156720969Y-107819914D02*
X156768588Y-107724676D01*
X156768588Y-107724676D02*
X156863826Y-107629438D01*
X156863826Y-107629438D02*
X157006683Y-107581819D01*
X157006683Y-107581819D02*
X157101921Y-107581819D01*
X157101921Y-107581819D02*
X157244778Y-107629438D01*
X157244778Y-107629438D02*
X157292397Y-107677057D01*
X157578112Y-107581819D02*
X158149540Y-107581819D01*
X157863826Y-108581819D02*
X157863826Y-107581819D01*
X159054302Y-108581819D02*
X158720969Y-108105628D01*
X158482874Y-108581819D02*
X158482874Y-107581819D01*
X158482874Y-107581819D02*
X158863826Y-107581819D01*
X158863826Y-107581819D02*
X158959064Y-107629438D01*
X158959064Y-107629438D02*
X159006683Y-107677057D01*
X159006683Y-107677057D02*
X159054302Y-107772295D01*
X159054302Y-107772295D02*
X159054302Y-107915152D01*
X159054302Y-107915152D02*
X159006683Y-108010390D01*
X159006683Y-108010390D02*
X158959064Y-108058009D01*
X158959064Y-108058009D02*
X158863826Y-108105628D01*
X158863826Y-108105628D02*
X158482874Y-108105628D01*
X159959064Y-108581819D02*
X159482874Y-108581819D01*
X159482874Y-108581819D02*
X159482874Y-107581819D01*
X117208180Y-116808476D02*
X117208180Y-116618000D01*
X117208180Y-116618000D02*
X117160561Y-116522762D01*
X117160561Y-116522762D02*
X117112942Y-116475143D01*
X117112942Y-116475143D02*
X116970085Y-116379905D01*
X116970085Y-116379905D02*
X116779609Y-116332286D01*
X116779609Y-116332286D02*
X116398657Y-116332286D01*
X116398657Y-116332286D02*
X116303419Y-116379905D01*
X116303419Y-116379905D02*
X116255800Y-116427524D01*
X116255800Y-116427524D02*
X116208180Y-116522762D01*
X116208180Y-116522762D02*
X116208180Y-116713238D01*
X116208180Y-116713238D02*
X116255800Y-116808476D01*
X116255800Y-116808476D02*
X116303419Y-116856095D01*
X116303419Y-116856095D02*
X116398657Y-116903714D01*
X116398657Y-116903714D02*
X116636752Y-116903714D01*
X116636752Y-116903714D02*
X116731990Y-116856095D01*
X116731990Y-116856095D02*
X116779609Y-116808476D01*
X116779609Y-116808476D02*
X116827228Y-116713238D01*
X116827228Y-116713238D02*
X116827228Y-116522762D01*
X116827228Y-116522762D02*
X116779609Y-116427524D01*
X116779609Y-116427524D02*
X116731990Y-116379905D01*
X116731990Y-116379905D02*
X116636752Y-116332286D01*
X116589133Y-117332286D02*
X116589133Y-118094191D01*
X117208180Y-118475143D02*
X117208180Y-119094190D01*
X117208180Y-119094190D02*
X116827228Y-118760857D01*
X116827228Y-118760857D02*
X116827228Y-118903714D01*
X116827228Y-118903714D02*
X116779609Y-118998952D01*
X116779609Y-118998952D02*
X116731990Y-119046571D01*
X116731990Y-119046571D02*
X116636752Y-119094190D01*
X116636752Y-119094190D02*
X116398657Y-119094190D01*
X116398657Y-119094190D02*
X116303419Y-119046571D01*
X116303419Y-119046571D02*
X116255800Y-118998952D01*
X116255800Y-118998952D02*
X116208180Y-118903714D01*
X116208180Y-118903714D02*
X116208180Y-118618000D01*
X116208180Y-118618000D02*
X116255800Y-118522762D01*
X116255800Y-118522762D02*
X116303419Y-118475143D01*
X117208180Y-119713238D02*
X117208180Y-119808476D01*
X117208180Y-119808476D02*
X117160561Y-119903714D01*
X117160561Y-119903714D02*
X117112942Y-119951333D01*
X117112942Y-119951333D02*
X117017704Y-119998952D01*
X117017704Y-119998952D02*
X116827228Y-120046571D01*
X116827228Y-120046571D02*
X116589133Y-120046571D01*
X116589133Y-120046571D02*
X116398657Y-119998952D01*
X116398657Y-119998952D02*
X116303419Y-119951333D01*
X116303419Y-119951333D02*
X116255800Y-119903714D01*
X116255800Y-119903714D02*
X116208180Y-119808476D01*
X116208180Y-119808476D02*
X116208180Y-119713238D01*
X116208180Y-119713238D02*
X116255800Y-119618000D01*
X116255800Y-119618000D02*
X116303419Y-119570381D01*
X116303419Y-119570381D02*
X116398657Y-119522762D01*
X116398657Y-119522762D02*
X116589133Y-119475143D01*
X116589133Y-119475143D02*
X116827228Y-119475143D01*
X116827228Y-119475143D02*
X117017704Y-119522762D01*
X117017704Y-119522762D02*
X117112942Y-119570381D01*
X117112942Y-119570381D02*
X117160561Y-119618000D01*
X117160561Y-119618000D02*
X117208180Y-119713238D01*
X117208180Y-120332286D02*
X116208180Y-120665619D01*
X116208180Y-120665619D02*
X117208180Y-120998952D01*
X158959064Y-87007819D02*
X158482874Y-87007819D01*
X158482874Y-87007819D02*
X158435255Y-87484009D01*
X158435255Y-87484009D02*
X158482874Y-87436390D01*
X158482874Y-87436390D02*
X158578112Y-87388771D01*
X158578112Y-87388771D02*
X158816207Y-87388771D01*
X158816207Y-87388771D02*
X158911445Y-87436390D01*
X158911445Y-87436390D02*
X158959064Y-87484009D01*
X158959064Y-87484009D02*
X159006683Y-87579247D01*
X159006683Y-87579247D02*
X159006683Y-87817342D01*
X159006683Y-87817342D02*
X158959064Y-87912580D01*
X158959064Y-87912580D02*
X158911445Y-87960200D01*
X158911445Y-87960200D02*
X158816207Y-88007819D01*
X158816207Y-88007819D02*
X158578112Y-88007819D01*
X158578112Y-88007819D02*
X158482874Y-87960200D01*
X158482874Y-87960200D02*
X158435255Y-87912580D01*
X159292398Y-87007819D02*
X159625731Y-88007819D01*
X159625731Y-88007819D02*
X159959064Y-87007819D01*
X118818180Y-95694667D02*
X117818180Y-95932762D01*
X117818180Y-95932762D02*
X118532466Y-96123238D01*
X118532466Y-96123238D02*
X117818180Y-96313714D01*
X117818180Y-96313714D02*
X118818180Y-96551810D01*
X117818180Y-96932762D02*
X118818180Y-96932762D01*
X118341990Y-96932762D02*
X118341990Y-97504190D01*
X117818180Y-97504190D02*
X118818180Y-97504190D01*
X118818180Y-97837524D02*
X118818180Y-98408952D01*
X117818180Y-98123238D02*
X118818180Y-98123238D01*
X117160561Y-96266095D02*
X117208180Y-96170857D01*
X117208180Y-96170857D02*
X117208180Y-96028000D01*
X117208180Y-96028000D02*
X117160561Y-95885143D01*
X117160561Y-95885143D02*
X117065323Y-95789905D01*
X117065323Y-95789905D02*
X116970085Y-95742286D01*
X116970085Y-95742286D02*
X116779609Y-95694667D01*
X116779609Y-95694667D02*
X116636752Y-95694667D01*
X116636752Y-95694667D02*
X116446276Y-95742286D01*
X116446276Y-95742286D02*
X116351038Y-95789905D01*
X116351038Y-95789905D02*
X116255800Y-95885143D01*
X116255800Y-95885143D02*
X116208180Y-96028000D01*
X116208180Y-96028000D02*
X116208180Y-96123238D01*
X116208180Y-96123238D02*
X116255800Y-96266095D01*
X116255800Y-96266095D02*
X116303419Y-96313714D01*
X116303419Y-96313714D02*
X116636752Y-96313714D01*
X116636752Y-96313714D02*
X116636752Y-96123238D01*
X116208180Y-96742286D02*
X117208180Y-96742286D01*
X117208180Y-96742286D02*
X116208180Y-97313714D01*
X116208180Y-97313714D02*
X117208180Y-97313714D01*
X116208180Y-97789905D02*
X117208180Y-97789905D01*
X117208180Y-97789905D02*
X117208180Y-98028000D01*
X117208180Y-98028000D02*
X117160561Y-98170857D01*
X117160561Y-98170857D02*
X117065323Y-98266095D01*
X117065323Y-98266095D02*
X116970085Y-98313714D01*
X116970085Y-98313714D02*
X116779609Y-98361333D01*
X116779609Y-98361333D02*
X116636752Y-98361333D01*
X116636752Y-98361333D02*
X116446276Y-98313714D01*
X116446276Y-98313714D02*
X116351038Y-98266095D01*
X116351038Y-98266095D02*
X116255800Y-98170857D01*
X116255800Y-98170857D02*
X116208180Y-98028000D01*
X116208180Y-98028000D02*
X116208180Y-97789905D01*
X156673350Y-93087819D02*
X156197160Y-93087819D01*
X156197160Y-93087819D02*
X156197160Y-92087819D01*
X157006684Y-93087819D02*
X157006684Y-92087819D01*
X158006683Y-92135438D02*
X157911445Y-92087819D01*
X157911445Y-92087819D02*
X157768588Y-92087819D01*
X157768588Y-92087819D02*
X157625731Y-92135438D01*
X157625731Y-92135438D02*
X157530493Y-92230676D01*
X157530493Y-92230676D02*
X157482874Y-92325914D01*
X157482874Y-92325914D02*
X157435255Y-92516390D01*
X157435255Y-92516390D02*
X157435255Y-92659247D01*
X157435255Y-92659247D02*
X157482874Y-92849723D01*
X157482874Y-92849723D02*
X157530493Y-92944961D01*
X157530493Y-92944961D02*
X157625731Y-93040200D01*
X157625731Y-93040200D02*
X157768588Y-93087819D01*
X157768588Y-93087819D02*
X157863826Y-93087819D01*
X157863826Y-93087819D02*
X158006683Y-93040200D01*
X158006683Y-93040200D02*
X158054302Y-92992580D01*
X158054302Y-92992580D02*
X158054302Y-92659247D01*
X158054302Y-92659247D02*
X157863826Y-92659247D01*
X158482874Y-93087819D02*
X158482874Y-92087819D01*
X158482874Y-92564009D02*
X159054302Y-92564009D01*
X159054302Y-93087819D02*
X159054302Y-92087819D01*
X159387636Y-92087819D02*
X159959064Y-92087819D01*
X159673350Y-93087819D02*
X159673350Y-92087819D01*
X157990683Y-85467819D02*
X157419255Y-85467819D01*
X157704969Y-85467819D02*
X157704969Y-84467819D01*
X157704969Y-84467819D02*
X157609731Y-84610676D01*
X157609731Y-84610676D02*
X157514493Y-84705914D01*
X157514493Y-84705914D02*
X157419255Y-84753533D01*
X158371636Y-84563057D02*
X158419255Y-84515438D01*
X158419255Y-84515438D02*
X158514493Y-84467819D01*
X158514493Y-84467819D02*
X158752588Y-84467819D01*
X158752588Y-84467819D02*
X158847826Y-84515438D01*
X158847826Y-84515438D02*
X158895445Y-84563057D01*
X158895445Y-84563057D02*
X158943064Y-84658295D01*
X158943064Y-84658295D02*
X158943064Y-84753533D01*
X158943064Y-84753533D02*
X158895445Y-84896390D01*
X158895445Y-84896390D02*
X158324017Y-85467819D01*
X158324017Y-85467819D02*
X158943064Y-85467819D01*
X159228779Y-84467819D02*
X159562112Y-85467819D01*
X159562112Y-85467819D02*
X159895445Y-84467819D01*
X156197160Y-103247819D02*
X156197160Y-102247819D01*
X156197160Y-102247819D02*
X156435255Y-102247819D01*
X156435255Y-102247819D02*
X156578112Y-102295438D01*
X156578112Y-102295438D02*
X156673350Y-102390676D01*
X156673350Y-102390676D02*
X156720969Y-102485914D01*
X156720969Y-102485914D02*
X156768588Y-102676390D01*
X156768588Y-102676390D02*
X156768588Y-102819247D01*
X156768588Y-102819247D02*
X156720969Y-103009723D01*
X156720969Y-103009723D02*
X156673350Y-103104961D01*
X156673350Y-103104961D02*
X156578112Y-103200200D01*
X156578112Y-103200200D02*
X156435255Y-103247819D01*
X156435255Y-103247819D02*
X156197160Y-103247819D01*
X157387636Y-102247819D02*
X157578112Y-102247819D01*
X157578112Y-102247819D02*
X157673350Y-102295438D01*
X157673350Y-102295438D02*
X157768588Y-102390676D01*
X157768588Y-102390676D02*
X157816207Y-102581152D01*
X157816207Y-102581152D02*
X157816207Y-102914485D01*
X157816207Y-102914485D02*
X157768588Y-103104961D01*
X157768588Y-103104961D02*
X157673350Y-103200200D01*
X157673350Y-103200200D02*
X157578112Y-103247819D01*
X157578112Y-103247819D02*
X157387636Y-103247819D01*
X157387636Y-103247819D02*
X157292398Y-103200200D01*
X157292398Y-103200200D02*
X157197160Y-103104961D01*
X157197160Y-103104961D02*
X157149541Y-102914485D01*
X157149541Y-102914485D02*
X157149541Y-102581152D01*
X157149541Y-102581152D02*
X157197160Y-102390676D01*
X157197160Y-102390676D02*
X157292398Y-102295438D01*
X157292398Y-102295438D02*
X157387636Y-102247819D01*
X158435255Y-102247819D02*
X158625731Y-102247819D01*
X158625731Y-102247819D02*
X158720969Y-102295438D01*
X158720969Y-102295438D02*
X158816207Y-102390676D01*
X158816207Y-102390676D02*
X158863826Y-102581152D01*
X158863826Y-102581152D02*
X158863826Y-102914485D01*
X158863826Y-102914485D02*
X158816207Y-103104961D01*
X158816207Y-103104961D02*
X158720969Y-103200200D01*
X158720969Y-103200200D02*
X158625731Y-103247819D01*
X158625731Y-103247819D02*
X158435255Y-103247819D01*
X158435255Y-103247819D02*
X158340017Y-103200200D01*
X158340017Y-103200200D02*
X158244779Y-103104961D01*
X158244779Y-103104961D02*
X158197160Y-102914485D01*
X158197160Y-102914485D02*
X158197160Y-102581152D01*
X158197160Y-102581152D02*
X158244779Y-102390676D01*
X158244779Y-102390676D02*
X158340017Y-102295438D01*
X158340017Y-102295438D02*
X158435255Y-102247819D01*
X159863826Y-103247819D02*
X159530493Y-102771628D01*
X159292398Y-103247819D02*
X159292398Y-102247819D01*
X159292398Y-102247819D02*
X159673350Y-102247819D01*
X159673350Y-102247819D02*
X159768588Y-102295438D01*
X159768588Y-102295438D02*
X159816207Y-102343057D01*
X159816207Y-102343057D02*
X159863826Y-102438295D01*
X159863826Y-102438295D02*
X159863826Y-102581152D01*
X159863826Y-102581152D02*
X159816207Y-102676390D01*
X159816207Y-102676390D02*
X159768588Y-102724009D01*
X159768588Y-102724009D02*
X159673350Y-102771628D01*
X159673350Y-102771628D02*
X159292398Y-102771628D01*
X117160561Y-113030095D02*
X117208180Y-112934857D01*
X117208180Y-112934857D02*
X117208180Y-112792000D01*
X117208180Y-112792000D02*
X117160561Y-112649143D01*
X117160561Y-112649143D02*
X117065323Y-112553905D01*
X117065323Y-112553905D02*
X116970085Y-112506286D01*
X116970085Y-112506286D02*
X116779609Y-112458667D01*
X116779609Y-112458667D02*
X116636752Y-112458667D01*
X116636752Y-112458667D02*
X116446276Y-112506286D01*
X116446276Y-112506286D02*
X116351038Y-112553905D01*
X116351038Y-112553905D02*
X116255800Y-112649143D01*
X116255800Y-112649143D02*
X116208180Y-112792000D01*
X116208180Y-112792000D02*
X116208180Y-112887238D01*
X116208180Y-112887238D02*
X116255800Y-113030095D01*
X116255800Y-113030095D02*
X116303419Y-113077714D01*
X116303419Y-113077714D02*
X116636752Y-113077714D01*
X116636752Y-113077714D02*
X116636752Y-112887238D01*
X116208180Y-113506286D02*
X117208180Y-113506286D01*
X117208180Y-113506286D02*
X116208180Y-114077714D01*
X116208180Y-114077714D02*
X117208180Y-114077714D01*
X116208180Y-114553905D02*
X117208180Y-114553905D01*
X117208180Y-114553905D02*
X117208180Y-114792000D01*
X117208180Y-114792000D02*
X117160561Y-114934857D01*
X117160561Y-114934857D02*
X117065323Y-115030095D01*
X117065323Y-115030095D02*
X116970085Y-115077714D01*
X116970085Y-115077714D02*
X116779609Y-115125333D01*
X116779609Y-115125333D02*
X116636752Y-115125333D01*
X116636752Y-115125333D02*
X116446276Y-115077714D01*
X116446276Y-115077714D02*
X116351038Y-115030095D01*
X116351038Y-115030095D02*
X116255800Y-114934857D01*
X116255800Y-114934857D02*
X116208180Y-114792000D01*
X116208180Y-114792000D02*
X116208180Y-114553905D01*
X153149541Y-110121819D02*
X153387636Y-111121819D01*
X153387636Y-111121819D02*
X153578112Y-110407533D01*
X153578112Y-110407533D02*
X153768588Y-111121819D01*
X153768588Y-111121819D02*
X154006684Y-110121819D01*
X154387636Y-111121819D02*
X154387636Y-110121819D01*
X154387636Y-110598009D02*
X154959064Y-110598009D01*
X154959064Y-111121819D02*
X154959064Y-110121819D01*
X155292398Y-110121819D02*
X155863826Y-110121819D01*
X155578112Y-111121819D02*
X155578112Y-110121819D01*
X156911445Y-110074200D02*
X156054303Y-111359914D01*
X157768588Y-110169438D02*
X157673350Y-110121819D01*
X157673350Y-110121819D02*
X157530493Y-110121819D01*
X157530493Y-110121819D02*
X157387636Y-110169438D01*
X157387636Y-110169438D02*
X157292398Y-110264676D01*
X157292398Y-110264676D02*
X157244779Y-110359914D01*
X157244779Y-110359914D02*
X157197160Y-110550390D01*
X157197160Y-110550390D02*
X157197160Y-110693247D01*
X157197160Y-110693247D02*
X157244779Y-110883723D01*
X157244779Y-110883723D02*
X157292398Y-110978961D01*
X157292398Y-110978961D02*
X157387636Y-111074200D01*
X157387636Y-111074200D02*
X157530493Y-111121819D01*
X157530493Y-111121819D02*
X157625731Y-111121819D01*
X157625731Y-111121819D02*
X157768588Y-111074200D01*
X157768588Y-111074200D02*
X157816207Y-111026580D01*
X157816207Y-111026580D02*
X157816207Y-110693247D01*
X157816207Y-110693247D02*
X157625731Y-110693247D01*
X158244779Y-111121819D02*
X158244779Y-110121819D01*
X158244779Y-110121819D02*
X158816207Y-111121819D01*
X158816207Y-111121819D02*
X158816207Y-110121819D01*
X159292398Y-111121819D02*
X159292398Y-110121819D01*
X159292398Y-110121819D02*
X159530493Y-110121819D01*
X159530493Y-110121819D02*
X159673350Y-110169438D01*
X159673350Y-110169438D02*
X159768588Y-110264676D01*
X159768588Y-110264676D02*
X159816207Y-110359914D01*
X159816207Y-110359914D02*
X159863826Y-110550390D01*
X159863826Y-110550390D02*
X159863826Y-110693247D01*
X159863826Y-110693247D02*
X159816207Y-110883723D01*
X159816207Y-110883723D02*
X159768588Y-110978961D01*
X159768588Y-110978961D02*
X159673350Y-111074200D01*
X159673350Y-111074200D02*
X159530493Y-111121819D01*
X159530493Y-111121819D02*
X159292398Y-111121819D01*
X157435255Y-89547819D02*
X158054302Y-89547819D01*
X158054302Y-89547819D02*
X157720969Y-89928771D01*
X157720969Y-89928771D02*
X157863826Y-89928771D01*
X157863826Y-89928771D02*
X157959064Y-89976390D01*
X157959064Y-89976390D02*
X158006683Y-90024009D01*
X158006683Y-90024009D02*
X158054302Y-90119247D01*
X158054302Y-90119247D02*
X158054302Y-90357342D01*
X158054302Y-90357342D02*
X158006683Y-90452580D01*
X158006683Y-90452580D02*
X157959064Y-90500200D01*
X157959064Y-90500200D02*
X157863826Y-90547819D01*
X157863826Y-90547819D02*
X157578112Y-90547819D01*
X157578112Y-90547819D02*
X157482874Y-90500200D01*
X157482874Y-90500200D02*
X157435255Y-90452580D01*
X158340017Y-89547819D02*
X158673350Y-90547819D01*
X158673350Y-90547819D02*
X159006683Y-89547819D01*
X159244779Y-89547819D02*
X159863826Y-89547819D01*
X159863826Y-89547819D02*
X159530493Y-89928771D01*
X159530493Y-89928771D02*
X159673350Y-89928771D01*
X159673350Y-89928771D02*
X159768588Y-89976390D01*
X159768588Y-89976390D02*
X159816207Y-90024009D01*
X159816207Y-90024009D02*
X159863826Y-90119247D01*
X159863826Y-90119247D02*
X159863826Y-90357342D01*
X159863826Y-90357342D02*
X159816207Y-90452580D01*
X159816207Y-90452580D02*
X159768588Y-90500200D01*
X159768588Y-90500200D02*
X159673350Y-90547819D01*
X159673350Y-90547819D02*
X159387636Y-90547819D01*
X159387636Y-90547819D02*
X159292398Y-90500200D01*
X159292398Y-90500200D02*
X159244779Y-90452580D01*
X156482874Y-97421819D02*
X156673350Y-97421819D01*
X156673350Y-97421819D02*
X156768588Y-97469438D01*
X156768588Y-97469438D02*
X156863826Y-97564676D01*
X156863826Y-97564676D02*
X156911445Y-97755152D01*
X156911445Y-97755152D02*
X156911445Y-98088485D01*
X156911445Y-98088485D02*
X156863826Y-98278961D01*
X156863826Y-98278961D02*
X156768588Y-98374200D01*
X156768588Y-98374200D02*
X156673350Y-98421819D01*
X156673350Y-98421819D02*
X156482874Y-98421819D01*
X156482874Y-98421819D02*
X156387636Y-98374200D01*
X156387636Y-98374200D02*
X156292398Y-98278961D01*
X156292398Y-98278961D02*
X156244779Y-98088485D01*
X156244779Y-98088485D02*
X156244779Y-97755152D01*
X156244779Y-97755152D02*
X156292398Y-97564676D01*
X156292398Y-97564676D02*
X156387636Y-97469438D01*
X156387636Y-97469438D02*
X156482874Y-97421819D01*
X157340017Y-98421819D02*
X157340017Y-97421819D01*
X157340017Y-97421819D02*
X157720969Y-97421819D01*
X157720969Y-97421819D02*
X157816207Y-97469438D01*
X157816207Y-97469438D02*
X157863826Y-97517057D01*
X157863826Y-97517057D02*
X157911445Y-97612295D01*
X157911445Y-97612295D02*
X157911445Y-97755152D01*
X157911445Y-97755152D02*
X157863826Y-97850390D01*
X157863826Y-97850390D02*
X157816207Y-97898009D01*
X157816207Y-97898009D02*
X157720969Y-97945628D01*
X157720969Y-97945628D02*
X157340017Y-97945628D01*
X158340017Y-97898009D02*
X158673350Y-97898009D01*
X158816207Y-98421819D02*
X158340017Y-98421819D01*
X158340017Y-98421819D02*
X158340017Y-97421819D01*
X158340017Y-97421819D02*
X158816207Y-97421819D01*
X159244779Y-98421819D02*
X159244779Y-97421819D01*
X159244779Y-97421819D02*
X159816207Y-98421819D01*
X159816207Y-98421819D02*
X159816207Y-97421819D01*
X153006683Y-105264009D02*
X153149540Y-105311628D01*
X153149540Y-105311628D02*
X153197159Y-105359247D01*
X153197159Y-105359247D02*
X153244778Y-105454485D01*
X153244778Y-105454485D02*
X153244778Y-105597342D01*
X153244778Y-105597342D02*
X153197159Y-105692580D01*
X153197159Y-105692580D02*
X153149540Y-105740200D01*
X153149540Y-105740200D02*
X153054302Y-105787819D01*
X153054302Y-105787819D02*
X152673350Y-105787819D01*
X152673350Y-105787819D02*
X152673350Y-104787819D01*
X152673350Y-104787819D02*
X153006683Y-104787819D01*
X153006683Y-104787819D02*
X153101921Y-104835438D01*
X153101921Y-104835438D02*
X153149540Y-104883057D01*
X153149540Y-104883057D02*
X153197159Y-104978295D01*
X153197159Y-104978295D02*
X153197159Y-105073533D01*
X153197159Y-105073533D02*
X153149540Y-105168771D01*
X153149540Y-105168771D02*
X153101921Y-105216390D01*
X153101921Y-105216390D02*
X153006683Y-105264009D01*
X153006683Y-105264009D02*
X152673350Y-105264009D01*
X154149540Y-105787819D02*
X153673350Y-105787819D01*
X153673350Y-105787819D02*
X153673350Y-104787819D01*
X154482874Y-105787819D02*
X154482874Y-104787819D01*
X155054302Y-105787819D02*
X154625731Y-105216390D01*
X155054302Y-104787819D02*
X154482874Y-105359247D01*
X156197159Y-104740200D02*
X155340017Y-106025914D01*
X156720969Y-104787819D02*
X156911445Y-104787819D01*
X156911445Y-104787819D02*
X157006683Y-104835438D01*
X157006683Y-104835438D02*
X157101921Y-104930676D01*
X157101921Y-104930676D02*
X157149540Y-105121152D01*
X157149540Y-105121152D02*
X157149540Y-105454485D01*
X157149540Y-105454485D02*
X157101921Y-105644961D01*
X157101921Y-105644961D02*
X157006683Y-105740200D01*
X157006683Y-105740200D02*
X156911445Y-105787819D01*
X156911445Y-105787819D02*
X156720969Y-105787819D01*
X156720969Y-105787819D02*
X156625731Y-105740200D01*
X156625731Y-105740200D02*
X156530493Y-105644961D01*
X156530493Y-105644961D02*
X156482874Y-105454485D01*
X156482874Y-105454485D02*
X156482874Y-105121152D01*
X156482874Y-105121152D02*
X156530493Y-104930676D01*
X156530493Y-104930676D02*
X156625731Y-104835438D01*
X156625731Y-104835438D02*
X156720969Y-104787819D01*
X157911445Y-105264009D02*
X158054302Y-105311628D01*
X158054302Y-105311628D02*
X158101921Y-105359247D01*
X158101921Y-105359247D02*
X158149540Y-105454485D01*
X158149540Y-105454485D02*
X158149540Y-105597342D01*
X158149540Y-105597342D02*
X158101921Y-105692580D01*
X158101921Y-105692580D02*
X158054302Y-105740200D01*
X158054302Y-105740200D02*
X157959064Y-105787819D01*
X157959064Y-105787819D02*
X157578112Y-105787819D01*
X157578112Y-105787819D02*
X157578112Y-104787819D01*
X157578112Y-104787819D02*
X157911445Y-104787819D01*
X157911445Y-104787819D02*
X158006683Y-104835438D01*
X158006683Y-104835438D02*
X158054302Y-104883057D01*
X158054302Y-104883057D02*
X158101921Y-104978295D01*
X158101921Y-104978295D02*
X158101921Y-105073533D01*
X158101921Y-105073533D02*
X158054302Y-105168771D01*
X158054302Y-105168771D02*
X158006683Y-105216390D01*
X158006683Y-105216390D02*
X157911445Y-105264009D01*
X157911445Y-105264009D02*
X157578112Y-105264009D01*
X158530493Y-105740200D02*
X158673350Y-105787819D01*
X158673350Y-105787819D02*
X158911445Y-105787819D01*
X158911445Y-105787819D02*
X159006683Y-105740200D01*
X159006683Y-105740200D02*
X159054302Y-105692580D01*
X159054302Y-105692580D02*
X159101921Y-105597342D01*
X159101921Y-105597342D02*
X159101921Y-105502104D01*
X159101921Y-105502104D02*
X159054302Y-105406866D01*
X159054302Y-105406866D02*
X159006683Y-105359247D01*
X159006683Y-105359247D02*
X158911445Y-105311628D01*
X158911445Y-105311628D02*
X158720969Y-105264009D01*
X158720969Y-105264009D02*
X158625731Y-105216390D01*
X158625731Y-105216390D02*
X158578112Y-105168771D01*
X158578112Y-105168771D02*
X158530493Y-105073533D01*
X158530493Y-105073533D02*
X158530493Y-104978295D01*
X158530493Y-104978295D02*
X158578112Y-104883057D01*
X158578112Y-104883057D02*
X158625731Y-104835438D01*
X158625731Y-104835438D02*
X158720969Y-104787819D01*
X158720969Y-104787819D02*
X158959064Y-104787819D01*
X158959064Y-104787819D02*
X159101921Y-104835438D01*
X159387636Y-104787819D02*
X159959064Y-104787819D01*
X159673350Y-105787819D02*
X159673350Y-104787819D01*
X118341990Y-106354666D02*
X118294371Y-106497523D01*
X118294371Y-106497523D02*
X118246752Y-106545142D01*
X118246752Y-106545142D02*
X118151514Y-106592761D01*
X118151514Y-106592761D02*
X118008657Y-106592761D01*
X118008657Y-106592761D02*
X117913419Y-106545142D01*
X117913419Y-106545142D02*
X117865800Y-106497523D01*
X117865800Y-106497523D02*
X117818180Y-106402285D01*
X117818180Y-106402285D02*
X117818180Y-106021333D01*
X117818180Y-106021333D02*
X118818180Y-106021333D01*
X118818180Y-106021333D02*
X118818180Y-106354666D01*
X118818180Y-106354666D02*
X118770561Y-106449904D01*
X118770561Y-106449904D02*
X118722942Y-106497523D01*
X118722942Y-106497523D02*
X118627704Y-106545142D01*
X118627704Y-106545142D02*
X118532466Y-106545142D01*
X118532466Y-106545142D02*
X118437228Y-106497523D01*
X118437228Y-106497523D02*
X118389609Y-106449904D01*
X118389609Y-106449904D02*
X118341990Y-106354666D01*
X118341990Y-106354666D02*
X118341990Y-106021333D01*
X117818180Y-107497523D02*
X117818180Y-107021333D01*
X117818180Y-107021333D02*
X118818180Y-107021333D01*
X117818180Y-107830857D02*
X118818180Y-107830857D01*
X117818180Y-108402285D02*
X118389609Y-107973714D01*
X118818180Y-108402285D02*
X118246752Y-107830857D01*
X117208180Y-105735619D02*
X117208180Y-105926095D01*
X117208180Y-105926095D02*
X117160561Y-106021333D01*
X117160561Y-106021333D02*
X117065323Y-106116571D01*
X117065323Y-106116571D02*
X116874847Y-106164190D01*
X116874847Y-106164190D02*
X116541514Y-106164190D01*
X116541514Y-106164190D02*
X116351038Y-106116571D01*
X116351038Y-106116571D02*
X116255800Y-106021333D01*
X116255800Y-106021333D02*
X116208180Y-105926095D01*
X116208180Y-105926095D02*
X116208180Y-105735619D01*
X116208180Y-105735619D02*
X116255800Y-105640381D01*
X116255800Y-105640381D02*
X116351038Y-105545143D01*
X116351038Y-105545143D02*
X116541514Y-105497524D01*
X116541514Y-105497524D02*
X116874847Y-105497524D01*
X116874847Y-105497524D02*
X117065323Y-105545143D01*
X117065323Y-105545143D02*
X117160561Y-105640381D01*
X117160561Y-105640381D02*
X117208180Y-105735619D01*
X116731990Y-106926095D02*
X116684371Y-107068952D01*
X116684371Y-107068952D02*
X116636752Y-107116571D01*
X116636752Y-107116571D02*
X116541514Y-107164190D01*
X116541514Y-107164190D02*
X116398657Y-107164190D01*
X116398657Y-107164190D02*
X116303419Y-107116571D01*
X116303419Y-107116571D02*
X116255800Y-107068952D01*
X116255800Y-107068952D02*
X116208180Y-106973714D01*
X116208180Y-106973714D02*
X116208180Y-106592762D01*
X116208180Y-106592762D02*
X117208180Y-106592762D01*
X117208180Y-106592762D02*
X117208180Y-106926095D01*
X117208180Y-106926095D02*
X117160561Y-107021333D01*
X117160561Y-107021333D02*
X117112942Y-107068952D01*
X117112942Y-107068952D02*
X117017704Y-107116571D01*
X117017704Y-107116571D02*
X116922466Y-107116571D01*
X116922466Y-107116571D02*
X116827228Y-107068952D01*
X116827228Y-107068952D02*
X116779609Y-107021333D01*
X116779609Y-107021333D02*
X116731990Y-106926095D01*
X116731990Y-106926095D02*
X116731990Y-106592762D01*
X116255800Y-107545143D02*
X116208180Y-107688000D01*
X116208180Y-107688000D02*
X116208180Y-107926095D01*
X116208180Y-107926095D02*
X116255800Y-108021333D01*
X116255800Y-108021333D02*
X116303419Y-108068952D01*
X116303419Y-108068952D02*
X116398657Y-108116571D01*
X116398657Y-108116571D02*
X116493895Y-108116571D01*
X116493895Y-108116571D02*
X116589133Y-108068952D01*
X116589133Y-108068952D02*
X116636752Y-108021333D01*
X116636752Y-108021333D02*
X116684371Y-107926095D01*
X116684371Y-107926095D02*
X116731990Y-107735619D01*
X116731990Y-107735619D02*
X116779609Y-107640381D01*
X116779609Y-107640381D02*
X116827228Y-107592762D01*
X116827228Y-107592762D02*
X116922466Y-107545143D01*
X116922466Y-107545143D02*
X117017704Y-107545143D01*
X117017704Y-107545143D02*
X117112942Y-107592762D01*
X117112942Y-107592762D02*
X117160561Y-107640381D01*
X117160561Y-107640381D02*
X117208180Y-107735619D01*
X117208180Y-107735619D02*
X117208180Y-107973714D01*
X117208180Y-107973714D02*
X117160561Y-108116571D01*
X117208180Y-108402286D02*
X117208180Y-108973714D01*
X116208180Y-108688000D02*
X117208180Y-108688000D01*
X156720969Y-99707819D02*
X156911445Y-99707819D01*
X156911445Y-99707819D02*
X157006683Y-99755438D01*
X157006683Y-99755438D02*
X157101921Y-99850676D01*
X157101921Y-99850676D02*
X157149540Y-100041152D01*
X157149540Y-100041152D02*
X157149540Y-100374485D01*
X157149540Y-100374485D02*
X157101921Y-100564961D01*
X157101921Y-100564961D02*
X157006683Y-100660200D01*
X157006683Y-100660200D02*
X156911445Y-100707819D01*
X156911445Y-100707819D02*
X156720969Y-100707819D01*
X156720969Y-100707819D02*
X156625731Y-100660200D01*
X156625731Y-100660200D02*
X156530493Y-100564961D01*
X156530493Y-100564961D02*
X156482874Y-100374485D01*
X156482874Y-100374485D02*
X156482874Y-100041152D01*
X156482874Y-100041152D02*
X156530493Y-99850676D01*
X156530493Y-99850676D02*
X156625731Y-99755438D01*
X156625731Y-99755438D02*
X156720969Y-99707819D01*
X157911445Y-100184009D02*
X158054302Y-100231628D01*
X158054302Y-100231628D02*
X158101921Y-100279247D01*
X158101921Y-100279247D02*
X158149540Y-100374485D01*
X158149540Y-100374485D02*
X158149540Y-100517342D01*
X158149540Y-100517342D02*
X158101921Y-100612580D01*
X158101921Y-100612580D02*
X158054302Y-100660200D01*
X158054302Y-100660200D02*
X157959064Y-100707819D01*
X157959064Y-100707819D02*
X157578112Y-100707819D01*
X157578112Y-100707819D02*
X157578112Y-99707819D01*
X157578112Y-99707819D02*
X157911445Y-99707819D01*
X157911445Y-99707819D02*
X158006683Y-99755438D01*
X158006683Y-99755438D02*
X158054302Y-99803057D01*
X158054302Y-99803057D02*
X158101921Y-99898295D01*
X158101921Y-99898295D02*
X158101921Y-99993533D01*
X158101921Y-99993533D02*
X158054302Y-100088771D01*
X158054302Y-100088771D02*
X158006683Y-100136390D01*
X158006683Y-100136390D02*
X157911445Y-100184009D01*
X157911445Y-100184009D02*
X157578112Y-100184009D01*
X158530493Y-100660200D02*
X158673350Y-100707819D01*
X158673350Y-100707819D02*
X158911445Y-100707819D01*
X158911445Y-100707819D02*
X159006683Y-100660200D01*
X159006683Y-100660200D02*
X159054302Y-100612580D01*
X159054302Y-100612580D02*
X159101921Y-100517342D01*
X159101921Y-100517342D02*
X159101921Y-100422104D01*
X159101921Y-100422104D02*
X159054302Y-100326866D01*
X159054302Y-100326866D02*
X159006683Y-100279247D01*
X159006683Y-100279247D02*
X158911445Y-100231628D01*
X158911445Y-100231628D02*
X158720969Y-100184009D01*
X158720969Y-100184009D02*
X158625731Y-100136390D01*
X158625731Y-100136390D02*
X158578112Y-100088771D01*
X158578112Y-100088771D02*
X158530493Y-99993533D01*
X158530493Y-99993533D02*
X158530493Y-99898295D01*
X158530493Y-99898295D02*
X158578112Y-99803057D01*
X158578112Y-99803057D02*
X158625731Y-99755438D01*
X158625731Y-99755438D02*
X158720969Y-99707819D01*
X158720969Y-99707819D02*
X158959064Y-99707819D01*
X158959064Y-99707819D02*
X159101921Y-99755438D01*
X159387636Y-99707819D02*
X159959064Y-99707819D01*
X159673350Y-100707819D02*
X159673350Y-99707819D01*
X156149540Y-95532580D02*
X156101921Y-95580200D01*
X156101921Y-95580200D02*
X155959064Y-95627819D01*
X155959064Y-95627819D02*
X155863826Y-95627819D01*
X155863826Y-95627819D02*
X155720969Y-95580200D01*
X155720969Y-95580200D02*
X155625731Y-95484961D01*
X155625731Y-95484961D02*
X155578112Y-95389723D01*
X155578112Y-95389723D02*
X155530493Y-95199247D01*
X155530493Y-95199247D02*
X155530493Y-95056390D01*
X155530493Y-95056390D02*
X155578112Y-94865914D01*
X155578112Y-94865914D02*
X155625731Y-94770676D01*
X155625731Y-94770676D02*
X155720969Y-94675438D01*
X155720969Y-94675438D02*
X155863826Y-94627819D01*
X155863826Y-94627819D02*
X155959064Y-94627819D01*
X155959064Y-94627819D02*
X156101921Y-94675438D01*
X156101921Y-94675438D02*
X156149540Y-94723057D01*
X157054302Y-95627819D02*
X156578112Y-95627819D01*
X156578112Y-95627819D02*
X156578112Y-94627819D01*
X157578112Y-94627819D02*
X157768588Y-94627819D01*
X157768588Y-94627819D02*
X157863826Y-94675438D01*
X157863826Y-94675438D02*
X157959064Y-94770676D01*
X157959064Y-94770676D02*
X158006683Y-94961152D01*
X158006683Y-94961152D02*
X158006683Y-95294485D01*
X158006683Y-95294485D02*
X157959064Y-95484961D01*
X157959064Y-95484961D02*
X157863826Y-95580200D01*
X157863826Y-95580200D02*
X157768588Y-95627819D01*
X157768588Y-95627819D02*
X157578112Y-95627819D01*
X157578112Y-95627819D02*
X157482874Y-95580200D01*
X157482874Y-95580200D02*
X157387636Y-95484961D01*
X157387636Y-95484961D02*
X157340017Y-95294485D01*
X157340017Y-95294485D02*
X157340017Y-94961152D01*
X157340017Y-94961152D02*
X157387636Y-94770676D01*
X157387636Y-94770676D02*
X157482874Y-94675438D01*
X157482874Y-94675438D02*
X157578112Y-94627819D01*
X158387636Y-95580200D02*
X158530493Y-95627819D01*
X158530493Y-95627819D02*
X158768588Y-95627819D01*
X158768588Y-95627819D02*
X158863826Y-95580200D01*
X158863826Y-95580200D02*
X158911445Y-95532580D01*
X158911445Y-95532580D02*
X158959064Y-95437342D01*
X158959064Y-95437342D02*
X158959064Y-95342104D01*
X158959064Y-95342104D02*
X158911445Y-95246866D01*
X158911445Y-95246866D02*
X158863826Y-95199247D01*
X158863826Y-95199247D02*
X158768588Y-95151628D01*
X158768588Y-95151628D02*
X158578112Y-95104009D01*
X158578112Y-95104009D02*
X158482874Y-95056390D01*
X158482874Y-95056390D02*
X158435255Y-95008771D01*
X158435255Y-95008771D02*
X158387636Y-94913533D01*
X158387636Y-94913533D02*
X158387636Y-94818295D01*
X158387636Y-94818295D02*
X158435255Y-94723057D01*
X158435255Y-94723057D02*
X158482874Y-94675438D01*
X158482874Y-94675438D02*
X158578112Y-94627819D01*
X158578112Y-94627819D02*
X158816207Y-94627819D01*
X158816207Y-94627819D02*
X158959064Y-94675438D01*
X159387636Y-95104009D02*
X159720969Y-95104009D01*
X159863826Y-95627819D02*
X159387636Y-95627819D01*
X159387636Y-95627819D02*
X159387636Y-94627819D01*
X159387636Y-94627819D02*
X159863826Y-94627819D01*
X160869333Y-71574819D02*
X160536000Y-71098628D01*
X160297905Y-71574819D02*
X160297905Y-70574819D01*
X160297905Y-70574819D02*
X160678857Y-70574819D01*
X160678857Y-70574819D02*
X160774095Y-70622438D01*
X160774095Y-70622438D02*
X160821714Y-70670057D01*
X160821714Y-70670057D02*
X160869333Y-70765295D01*
X160869333Y-70765295D02*
X160869333Y-70908152D01*
X160869333Y-70908152D02*
X160821714Y-71003390D01*
X160821714Y-71003390D02*
X160774095Y-71051009D01*
X160774095Y-71051009D02*
X160678857Y-71098628D01*
X160678857Y-71098628D02*
X160297905Y-71098628D01*
X161440762Y-71003390D02*
X161345524Y-70955771D01*
X161345524Y-70955771D02*
X161297905Y-70908152D01*
X161297905Y-70908152D02*
X161250286Y-70812914D01*
X161250286Y-70812914D02*
X161250286Y-70765295D01*
X161250286Y-70765295D02*
X161297905Y-70670057D01*
X161297905Y-70670057D02*
X161345524Y-70622438D01*
X161345524Y-70622438D02*
X161440762Y-70574819D01*
X161440762Y-70574819D02*
X161631238Y-70574819D01*
X161631238Y-70574819D02*
X161726476Y-70622438D01*
X161726476Y-70622438D02*
X161774095Y-70670057D01*
X161774095Y-70670057D02*
X161821714Y-70765295D01*
X161821714Y-70765295D02*
X161821714Y-70812914D01*
X161821714Y-70812914D02*
X161774095Y-70908152D01*
X161774095Y-70908152D02*
X161726476Y-70955771D01*
X161726476Y-70955771D02*
X161631238Y-71003390D01*
X161631238Y-71003390D02*
X161440762Y-71003390D01*
X161440762Y-71003390D02*
X161345524Y-71051009D01*
X161345524Y-71051009D02*
X161297905Y-71098628D01*
X161297905Y-71098628D02*
X161250286Y-71193866D01*
X161250286Y-71193866D02*
X161250286Y-71384342D01*
X161250286Y-71384342D02*
X161297905Y-71479580D01*
X161297905Y-71479580D02*
X161345524Y-71527200D01*
X161345524Y-71527200D02*
X161440762Y-71574819D01*
X161440762Y-71574819D02*
X161631238Y-71574819D01*
X161631238Y-71574819D02*
X161726476Y-71527200D01*
X161726476Y-71527200D02*
X161774095Y-71479580D01*
X161774095Y-71479580D02*
X161821714Y-71384342D01*
X161821714Y-71384342D02*
X161821714Y-71193866D01*
X161821714Y-71193866D02*
X161774095Y-71098628D01*
X161774095Y-71098628D02*
X161726476Y-71051009D01*
X161726476Y-71051009D02*
X161631238Y-71003390D01*
X160869333Y-69034819D02*
X160536000Y-68558628D01*
X160297905Y-69034819D02*
X160297905Y-68034819D01*
X160297905Y-68034819D02*
X160678857Y-68034819D01*
X160678857Y-68034819D02*
X160774095Y-68082438D01*
X160774095Y-68082438D02*
X160821714Y-68130057D01*
X160821714Y-68130057D02*
X160869333Y-68225295D01*
X160869333Y-68225295D02*
X160869333Y-68368152D01*
X160869333Y-68368152D02*
X160821714Y-68463390D01*
X160821714Y-68463390D02*
X160774095Y-68511009D01*
X160774095Y-68511009D02*
X160678857Y-68558628D01*
X160678857Y-68558628D02*
X160297905Y-68558628D01*
X161202667Y-68034819D02*
X161821714Y-68034819D01*
X161821714Y-68034819D02*
X161488381Y-68415771D01*
X161488381Y-68415771D02*
X161631238Y-68415771D01*
X161631238Y-68415771D02*
X161726476Y-68463390D01*
X161726476Y-68463390D02*
X161774095Y-68511009D01*
X161774095Y-68511009D02*
X161821714Y-68606247D01*
X161821714Y-68606247D02*
X161821714Y-68844342D01*
X161821714Y-68844342D02*
X161774095Y-68939580D01*
X161774095Y-68939580D02*
X161726476Y-68987200D01*
X161726476Y-68987200D02*
X161631238Y-69034819D01*
X161631238Y-69034819D02*
X161345524Y-69034819D01*
X161345524Y-69034819D02*
X161250286Y-68987200D01*
X161250286Y-68987200D02*
X161202667Y-68939580D01*
X118776761Y-72178057D02*
X118681523Y-72130438D01*
X118681523Y-72130438D02*
X118586285Y-72035200D01*
X118586285Y-72035200D02*
X118443428Y-71892342D01*
X118443428Y-71892342D02*
X118348190Y-71844723D01*
X118348190Y-71844723D02*
X118252952Y-71844723D01*
X118300571Y-72082819D02*
X118205333Y-72035200D01*
X118205333Y-72035200D02*
X118110095Y-71939961D01*
X118110095Y-71939961D02*
X118062476Y-71749485D01*
X118062476Y-71749485D02*
X118062476Y-71416152D01*
X118062476Y-71416152D02*
X118110095Y-71225676D01*
X118110095Y-71225676D02*
X118205333Y-71130438D01*
X118205333Y-71130438D02*
X118300571Y-71082819D01*
X118300571Y-71082819D02*
X118491047Y-71082819D01*
X118491047Y-71082819D02*
X118586285Y-71130438D01*
X118586285Y-71130438D02*
X118681523Y-71225676D01*
X118681523Y-71225676D02*
X118729142Y-71416152D01*
X118729142Y-71416152D02*
X118729142Y-71749485D01*
X118729142Y-71749485D02*
X118681523Y-71939961D01*
X118681523Y-71939961D02*
X118586285Y-72035200D01*
X118586285Y-72035200D02*
X118491047Y-72082819D01*
X118491047Y-72082819D02*
X118300571Y-72082819D01*
X119062476Y-71082819D02*
X119681523Y-71082819D01*
X119681523Y-71082819D02*
X119348190Y-71463771D01*
X119348190Y-71463771D02*
X119491047Y-71463771D01*
X119491047Y-71463771D02*
X119586285Y-71511390D01*
X119586285Y-71511390D02*
X119633904Y-71559009D01*
X119633904Y-71559009D02*
X119681523Y-71654247D01*
X119681523Y-71654247D02*
X119681523Y-71892342D01*
X119681523Y-71892342D02*
X119633904Y-71987580D01*
X119633904Y-71987580D02*
X119586285Y-72035200D01*
X119586285Y-72035200D02*
X119491047Y-72082819D01*
X119491047Y-72082819D02*
X119205333Y-72082819D01*
X119205333Y-72082819D02*
X119110095Y-72035200D01*
X119110095Y-72035200D02*
X119062476Y-71987580D01*
X147998905Y-101038819D02*
X147998905Y-100038819D01*
X147998905Y-100038819D02*
X148237000Y-100038819D01*
X148237000Y-100038819D02*
X148379857Y-100086438D01*
X148379857Y-100086438D02*
X148475095Y-100181676D01*
X148475095Y-100181676D02*
X148522714Y-100276914D01*
X148522714Y-100276914D02*
X148570333Y-100467390D01*
X148570333Y-100467390D02*
X148570333Y-100610247D01*
X148570333Y-100610247D02*
X148522714Y-100800723D01*
X148522714Y-100800723D02*
X148475095Y-100895961D01*
X148475095Y-100895961D02*
X148379857Y-100991200D01*
X148379857Y-100991200D02*
X148237000Y-101038819D01*
X148237000Y-101038819D02*
X147998905Y-101038819D01*
X149522714Y-101038819D02*
X148951286Y-101038819D01*
X149237000Y-101038819D02*
X149237000Y-100038819D01*
X149237000Y-100038819D02*
X149141762Y-100181676D01*
X149141762Y-100181676D02*
X149046524Y-100276914D01*
X149046524Y-100276914D02*
X148951286Y-100324533D01*
X131341905Y-117040819D02*
X131341905Y-116040819D01*
X131341905Y-116040819D02*
X131580000Y-116040819D01*
X131580000Y-116040819D02*
X131722857Y-116088438D01*
X131722857Y-116088438D02*
X131818095Y-116183676D01*
X131818095Y-116183676D02*
X131865714Y-116278914D01*
X131865714Y-116278914D02*
X131913333Y-116469390D01*
X131913333Y-116469390D02*
X131913333Y-116612247D01*
X131913333Y-116612247D02*
X131865714Y-116802723D01*
X131865714Y-116802723D02*
X131818095Y-116897961D01*
X131818095Y-116897961D02*
X131722857Y-116993200D01*
X131722857Y-116993200D02*
X131580000Y-117040819D01*
X131580000Y-117040819D02*
X131341905Y-117040819D01*
X132770476Y-116374152D02*
X132770476Y-117040819D01*
X132532381Y-115993200D02*
X132294286Y-116707485D01*
X132294286Y-116707485D02*
X132913333Y-116707485D01*
X150785595Y-92494819D02*
X150785595Y-93304342D01*
X150785595Y-93304342D02*
X150833214Y-93399580D01*
X150833214Y-93399580D02*
X150880833Y-93447200D01*
X150880833Y-93447200D02*
X150976071Y-93494819D01*
X150976071Y-93494819D02*
X151166547Y-93494819D01*
X151166547Y-93494819D02*
X151261785Y-93447200D01*
X151261785Y-93447200D02*
X151309404Y-93399580D01*
X151309404Y-93399580D02*
X151357023Y-93304342D01*
X151357023Y-93304342D02*
X151357023Y-92494819D01*
X152357023Y-93494819D02*
X151785595Y-93494819D01*
X152071309Y-93494819D02*
X152071309Y-92494819D01*
X152071309Y-92494819D02*
X151976071Y-92637676D01*
X151976071Y-92637676D02*
X151880833Y-92732914D01*
X151880833Y-92732914D02*
X151785595Y-92780533D01*
X132421333Y-104626819D02*
X132088000Y-104150628D01*
X131849905Y-104626819D02*
X131849905Y-103626819D01*
X131849905Y-103626819D02*
X132230857Y-103626819D01*
X132230857Y-103626819D02*
X132326095Y-103674438D01*
X132326095Y-103674438D02*
X132373714Y-103722057D01*
X132373714Y-103722057D02*
X132421333Y-103817295D01*
X132421333Y-103817295D02*
X132421333Y-103960152D01*
X132421333Y-103960152D02*
X132373714Y-104055390D01*
X132373714Y-104055390D02*
X132326095Y-104103009D01*
X132326095Y-104103009D02*
X132230857Y-104150628D01*
X132230857Y-104150628D02*
X131849905Y-104150628D01*
X133278476Y-103626819D02*
X133088000Y-103626819D01*
X133088000Y-103626819D02*
X132992762Y-103674438D01*
X132992762Y-103674438D02*
X132945143Y-103722057D01*
X132945143Y-103722057D02*
X132849905Y-103864914D01*
X132849905Y-103864914D02*
X132802286Y-104055390D01*
X132802286Y-104055390D02*
X132802286Y-104436342D01*
X132802286Y-104436342D02*
X132849905Y-104531580D01*
X132849905Y-104531580D02*
X132897524Y-104579200D01*
X132897524Y-104579200D02*
X132992762Y-104626819D01*
X132992762Y-104626819D02*
X133183238Y-104626819D01*
X133183238Y-104626819D02*
X133278476Y-104579200D01*
X133278476Y-104579200D02*
X133326095Y-104531580D01*
X133326095Y-104531580D02*
X133373714Y-104436342D01*
X133373714Y-104436342D02*
X133373714Y-104198247D01*
X133373714Y-104198247D02*
X133326095Y-104103009D01*
X133326095Y-104103009D02*
X133278476Y-104055390D01*
X133278476Y-104055390D02*
X133183238Y-104007771D01*
X133183238Y-104007771D02*
X132992762Y-104007771D01*
X132992762Y-104007771D02*
X132897524Y-104055390D01*
X132897524Y-104055390D02*
X132849905Y-104103009D01*
X132849905Y-104103009D02*
X132802286Y-104198247D01*
X147407333Y-118723580D02*
X147359714Y-118771200D01*
X147359714Y-118771200D02*
X147216857Y-118818819D01*
X147216857Y-118818819D02*
X147121619Y-118818819D01*
X147121619Y-118818819D02*
X146978762Y-118771200D01*
X146978762Y-118771200D02*
X146883524Y-118675961D01*
X146883524Y-118675961D02*
X146835905Y-118580723D01*
X146835905Y-118580723D02*
X146788286Y-118390247D01*
X146788286Y-118390247D02*
X146788286Y-118247390D01*
X146788286Y-118247390D02*
X146835905Y-118056914D01*
X146835905Y-118056914D02*
X146883524Y-117961676D01*
X146883524Y-117961676D02*
X146978762Y-117866438D01*
X146978762Y-117866438D02*
X147121619Y-117818819D01*
X147121619Y-117818819D02*
X147216857Y-117818819D01*
X147216857Y-117818819D02*
X147359714Y-117866438D01*
X147359714Y-117866438D02*
X147407333Y-117914057D01*
X148359714Y-118818819D02*
X147788286Y-118818819D01*
X148074000Y-118818819D02*
X148074000Y-117818819D01*
X148074000Y-117818819D02*
X147978762Y-117961676D01*
X147978762Y-117961676D02*
X147883524Y-118056914D01*
X147883524Y-118056914D02*
X147788286Y-118104533D01*
X162663333Y-82242819D02*
X162330000Y-81766628D01*
X162091905Y-82242819D02*
X162091905Y-81242819D01*
X162091905Y-81242819D02*
X162472857Y-81242819D01*
X162472857Y-81242819D02*
X162568095Y-81290438D01*
X162568095Y-81290438D02*
X162615714Y-81338057D01*
X162615714Y-81338057D02*
X162663333Y-81433295D01*
X162663333Y-81433295D02*
X162663333Y-81576152D01*
X162663333Y-81576152D02*
X162615714Y-81671390D01*
X162615714Y-81671390D02*
X162568095Y-81719009D01*
X162568095Y-81719009D02*
X162472857Y-81766628D01*
X162472857Y-81766628D02*
X162091905Y-81766628D01*
X162996667Y-81242819D02*
X163663333Y-81242819D01*
X163663333Y-81242819D02*
X163234762Y-82242819D01*
X119030761Y-87032057D02*
X118935523Y-86984438D01*
X118935523Y-86984438D02*
X118840285Y-86889200D01*
X118840285Y-86889200D02*
X118697428Y-86746342D01*
X118697428Y-86746342D02*
X118602190Y-86698723D01*
X118602190Y-86698723D02*
X118506952Y-86698723D01*
X118554571Y-86936819D02*
X118459333Y-86889200D01*
X118459333Y-86889200D02*
X118364095Y-86793961D01*
X118364095Y-86793961D02*
X118316476Y-86603485D01*
X118316476Y-86603485D02*
X118316476Y-86270152D01*
X118316476Y-86270152D02*
X118364095Y-86079676D01*
X118364095Y-86079676D02*
X118459333Y-85984438D01*
X118459333Y-85984438D02*
X118554571Y-85936819D01*
X118554571Y-85936819D02*
X118745047Y-85936819D01*
X118745047Y-85936819D02*
X118840285Y-85984438D01*
X118840285Y-85984438D02*
X118935523Y-86079676D01*
X118935523Y-86079676D02*
X118983142Y-86270152D01*
X118983142Y-86270152D02*
X118983142Y-86603485D01*
X118983142Y-86603485D02*
X118935523Y-86793961D01*
X118935523Y-86793961D02*
X118840285Y-86889200D01*
X118840285Y-86889200D02*
X118745047Y-86936819D01*
X118745047Y-86936819D02*
X118554571Y-86936819D01*
X119840285Y-86270152D02*
X119840285Y-86936819D01*
X119602190Y-85889200D02*
X119364095Y-86603485D01*
X119364095Y-86603485D02*
X119983142Y-86603485D01*
X147998905Y-98498819D02*
X147998905Y-97498819D01*
X147998905Y-97498819D02*
X148237000Y-97498819D01*
X148237000Y-97498819D02*
X148379857Y-97546438D01*
X148379857Y-97546438D02*
X148475095Y-97641676D01*
X148475095Y-97641676D02*
X148522714Y-97736914D01*
X148522714Y-97736914D02*
X148570333Y-97927390D01*
X148570333Y-97927390D02*
X148570333Y-98070247D01*
X148570333Y-98070247D02*
X148522714Y-98260723D01*
X148522714Y-98260723D02*
X148475095Y-98355961D01*
X148475095Y-98355961D02*
X148379857Y-98451200D01*
X148379857Y-98451200D02*
X148237000Y-98498819D01*
X148237000Y-98498819D02*
X147998905Y-98498819D01*
X148951286Y-97594057D02*
X148998905Y-97546438D01*
X148998905Y-97546438D02*
X149094143Y-97498819D01*
X149094143Y-97498819D02*
X149332238Y-97498819D01*
X149332238Y-97498819D02*
X149427476Y-97546438D01*
X149427476Y-97546438D02*
X149475095Y-97594057D01*
X149475095Y-97594057D02*
X149522714Y-97689295D01*
X149522714Y-97689295D02*
X149522714Y-97784533D01*
X149522714Y-97784533D02*
X149475095Y-97927390D01*
X149475095Y-97927390D02*
X148903667Y-98498819D01*
X148903667Y-98498819D02*
X149522714Y-98498819D01*
X162547504Y-76015214D02*
X162452266Y-75967595D01*
X162452266Y-75967595D02*
X162357028Y-75872357D01*
X162357028Y-75872357D02*
X162214171Y-75729499D01*
X162214171Y-75729499D02*
X162118933Y-75681880D01*
X162118933Y-75681880D02*
X162023695Y-75681880D01*
X162071314Y-75919976D02*
X161976076Y-75872357D01*
X161976076Y-75872357D02*
X161880838Y-75777118D01*
X161880838Y-75777118D02*
X161833219Y-75586642D01*
X161833219Y-75586642D02*
X161833219Y-75253309D01*
X161833219Y-75253309D02*
X161880838Y-75062833D01*
X161880838Y-75062833D02*
X161976076Y-74967595D01*
X161976076Y-74967595D02*
X162071314Y-74919976D01*
X162071314Y-74919976D02*
X162261790Y-74919976D01*
X162261790Y-74919976D02*
X162357028Y-74967595D01*
X162357028Y-74967595D02*
X162452266Y-75062833D01*
X162452266Y-75062833D02*
X162499885Y-75253309D01*
X162499885Y-75253309D02*
X162499885Y-75586642D01*
X162499885Y-75586642D02*
X162452266Y-75777118D01*
X162452266Y-75777118D02*
X162357028Y-75872357D01*
X162357028Y-75872357D02*
X162261790Y-75919976D01*
X162261790Y-75919976D02*
X162071314Y-75919976D01*
X162880838Y-75015214D02*
X162928457Y-74967595D01*
X162928457Y-74967595D02*
X163023695Y-74919976D01*
X163023695Y-74919976D02*
X163261790Y-74919976D01*
X163261790Y-74919976D02*
X163357028Y-74967595D01*
X163357028Y-74967595D02*
X163404647Y-75015214D01*
X163404647Y-75015214D02*
X163452266Y-75110452D01*
X163452266Y-75110452D02*
X163452266Y-75205690D01*
X163452266Y-75205690D02*
X163404647Y-75348547D01*
X163404647Y-75348547D02*
X162833219Y-75919976D01*
X162833219Y-75919976D02*
X163452266Y-75919976D01*
X151623395Y-112281619D02*
X151623395Y-113091142D01*
X151623395Y-113091142D02*
X151671014Y-113186380D01*
X151671014Y-113186380D02*
X151718633Y-113234000D01*
X151718633Y-113234000D02*
X151813871Y-113281619D01*
X151813871Y-113281619D02*
X152004347Y-113281619D01*
X152004347Y-113281619D02*
X152099585Y-113234000D01*
X152099585Y-113234000D02*
X152147204Y-113186380D01*
X152147204Y-113186380D02*
X152194823Y-113091142D01*
X152194823Y-113091142D02*
X152194823Y-112281619D01*
X152623395Y-112376857D02*
X152671014Y-112329238D01*
X152671014Y-112329238D02*
X152766252Y-112281619D01*
X152766252Y-112281619D02*
X153004347Y-112281619D01*
X153004347Y-112281619D02*
X153099585Y-112329238D01*
X153099585Y-112329238D02*
X153147204Y-112376857D01*
X153147204Y-112376857D02*
X153194823Y-112472095D01*
X153194823Y-112472095D02*
X153194823Y-112567333D01*
X153194823Y-112567333D02*
X153147204Y-112710190D01*
X153147204Y-112710190D02*
X152575776Y-113281619D01*
X152575776Y-113281619D02*
X153194823Y-113281619D01*
X147998905Y-95958819D02*
X147998905Y-94958819D01*
X147998905Y-94958819D02*
X148237000Y-94958819D01*
X148237000Y-94958819D02*
X148379857Y-95006438D01*
X148379857Y-95006438D02*
X148475095Y-95101676D01*
X148475095Y-95101676D02*
X148522714Y-95196914D01*
X148522714Y-95196914D02*
X148570333Y-95387390D01*
X148570333Y-95387390D02*
X148570333Y-95530247D01*
X148570333Y-95530247D02*
X148522714Y-95720723D01*
X148522714Y-95720723D02*
X148475095Y-95815961D01*
X148475095Y-95815961D02*
X148379857Y-95911200D01*
X148379857Y-95911200D02*
X148237000Y-95958819D01*
X148237000Y-95958819D02*
X147998905Y-95958819D01*
X148903667Y-94958819D02*
X149522714Y-94958819D01*
X149522714Y-94958819D02*
X149189381Y-95339771D01*
X149189381Y-95339771D02*
X149332238Y-95339771D01*
X149332238Y-95339771D02*
X149427476Y-95387390D01*
X149427476Y-95387390D02*
X149475095Y-95435009D01*
X149475095Y-95435009D02*
X149522714Y-95530247D01*
X149522714Y-95530247D02*
X149522714Y-95768342D01*
X149522714Y-95768342D02*
X149475095Y-95863580D01*
X149475095Y-95863580D02*
X149427476Y-95911200D01*
X149427476Y-95911200D02*
X149332238Y-95958819D01*
X149332238Y-95958819D02*
X149046524Y-95958819D01*
X149046524Y-95958819D02*
X148951286Y-95911200D01*
X148951286Y-95911200D02*
X148903667Y-95863580D01*
X122499333Y-90100819D02*
X122166000Y-89624628D01*
X121927905Y-90100819D02*
X121927905Y-89100819D01*
X121927905Y-89100819D02*
X122308857Y-89100819D01*
X122308857Y-89100819D02*
X122404095Y-89148438D01*
X122404095Y-89148438D02*
X122451714Y-89196057D01*
X122451714Y-89196057D02*
X122499333Y-89291295D01*
X122499333Y-89291295D02*
X122499333Y-89434152D01*
X122499333Y-89434152D02*
X122451714Y-89529390D01*
X122451714Y-89529390D02*
X122404095Y-89577009D01*
X122404095Y-89577009D02*
X122308857Y-89624628D01*
X122308857Y-89624628D02*
X121927905Y-89624628D01*
X123404095Y-89100819D02*
X122927905Y-89100819D01*
X122927905Y-89100819D02*
X122880286Y-89577009D01*
X122880286Y-89577009D02*
X122927905Y-89529390D01*
X122927905Y-89529390D02*
X123023143Y-89481771D01*
X123023143Y-89481771D02*
X123261238Y-89481771D01*
X123261238Y-89481771D02*
X123356476Y-89529390D01*
X123356476Y-89529390D02*
X123404095Y-89577009D01*
X123404095Y-89577009D02*
X123451714Y-89672247D01*
X123451714Y-89672247D02*
X123451714Y-89910342D01*
X123451714Y-89910342D02*
X123404095Y-90005580D01*
X123404095Y-90005580D02*
X123356476Y-90053200D01*
X123356476Y-90053200D02*
X123261238Y-90100819D01*
X123261238Y-90100819D02*
X123023143Y-90100819D01*
X123023143Y-90100819D02*
X122927905Y-90053200D01*
X122927905Y-90053200D02*
X122880286Y-90005580D01*
X162547504Y-80302542D02*
X162452266Y-80254923D01*
X162452266Y-80254923D02*
X162357028Y-80159685D01*
X162357028Y-80159685D02*
X162214171Y-80016827D01*
X162214171Y-80016827D02*
X162118933Y-79969208D01*
X162118933Y-79969208D02*
X162023695Y-79969208D01*
X162071314Y-80207304D02*
X161976076Y-80159685D01*
X161976076Y-80159685D02*
X161880838Y-80064446D01*
X161880838Y-80064446D02*
X161833219Y-79873970D01*
X161833219Y-79873970D02*
X161833219Y-79540637D01*
X161833219Y-79540637D02*
X161880838Y-79350161D01*
X161880838Y-79350161D02*
X161976076Y-79254923D01*
X161976076Y-79254923D02*
X162071314Y-79207304D01*
X162071314Y-79207304D02*
X162261790Y-79207304D01*
X162261790Y-79207304D02*
X162357028Y-79254923D01*
X162357028Y-79254923D02*
X162452266Y-79350161D01*
X162452266Y-79350161D02*
X162499885Y-79540637D01*
X162499885Y-79540637D02*
X162499885Y-79873970D01*
X162499885Y-79873970D02*
X162452266Y-80064446D01*
X162452266Y-80064446D02*
X162357028Y-80159685D01*
X162357028Y-80159685D02*
X162261790Y-80207304D01*
X162261790Y-80207304D02*
X162071314Y-80207304D01*
X163452266Y-80207304D02*
X162880838Y-80207304D01*
X163166552Y-80207304D02*
X163166552Y-79207304D01*
X163166552Y-79207304D02*
X163071314Y-79350161D01*
X163071314Y-79350161D02*
X162976076Y-79445399D01*
X162976076Y-79445399D02*
X162880838Y-79493018D01*
X131035666Y-94958819D02*
X131035666Y-95673104D01*
X131035666Y-95673104D02*
X130988047Y-95815961D01*
X130988047Y-95815961D02*
X130892809Y-95911200D01*
X130892809Y-95911200D02*
X130749952Y-95958819D01*
X130749952Y-95958819D02*
X130654714Y-95958819D01*
X132035666Y-95958819D02*
X131464238Y-95958819D01*
X131749952Y-95958819D02*
X131749952Y-94958819D01*
X131749952Y-94958819D02*
X131654714Y-95101676D01*
X131654714Y-95101676D02*
X131559476Y-95196914D01*
X131559476Y-95196914D02*
X131464238Y-95244533D01*
X122261333Y-75130819D02*
X121928000Y-74654628D01*
X121689905Y-75130819D02*
X121689905Y-74130819D01*
X121689905Y-74130819D02*
X122070857Y-74130819D01*
X122070857Y-74130819D02*
X122166095Y-74178438D01*
X122166095Y-74178438D02*
X122213714Y-74226057D01*
X122213714Y-74226057D02*
X122261333Y-74321295D01*
X122261333Y-74321295D02*
X122261333Y-74464152D01*
X122261333Y-74464152D02*
X122213714Y-74559390D01*
X122213714Y-74559390D02*
X122166095Y-74607009D01*
X122166095Y-74607009D02*
X122070857Y-74654628D01*
X122070857Y-74654628D02*
X121689905Y-74654628D01*
X123118476Y-74464152D02*
X123118476Y-75130819D01*
X122880381Y-74083200D02*
X122642286Y-74797485D01*
X122642286Y-74797485D02*
X123261333Y-74797485D01*
X120245333Y-79195819D02*
X119912000Y-78719628D01*
X119673905Y-79195819D02*
X119673905Y-78195819D01*
X119673905Y-78195819D02*
X120054857Y-78195819D01*
X120054857Y-78195819D02*
X120150095Y-78243438D01*
X120150095Y-78243438D02*
X120197714Y-78291057D01*
X120197714Y-78291057D02*
X120245333Y-78386295D01*
X120245333Y-78386295D02*
X120245333Y-78529152D01*
X120245333Y-78529152D02*
X120197714Y-78624390D01*
X120197714Y-78624390D02*
X120150095Y-78672009D01*
X120150095Y-78672009D02*
X120054857Y-78719628D01*
X120054857Y-78719628D02*
X119673905Y-78719628D01*
X120626286Y-78291057D02*
X120673905Y-78243438D01*
X120673905Y-78243438D02*
X120769143Y-78195819D01*
X120769143Y-78195819D02*
X121007238Y-78195819D01*
X121007238Y-78195819D02*
X121102476Y-78243438D01*
X121102476Y-78243438D02*
X121150095Y-78291057D01*
X121150095Y-78291057D02*
X121197714Y-78386295D01*
X121197714Y-78386295D02*
X121197714Y-78481533D01*
X121197714Y-78481533D02*
X121150095Y-78624390D01*
X121150095Y-78624390D02*
X120578667Y-79195819D01*
X120578667Y-79195819D02*
X121197714Y-79195819D01*
X147407333Y-113643580D02*
X147359714Y-113691200D01*
X147359714Y-113691200D02*
X147216857Y-113738819D01*
X147216857Y-113738819D02*
X147121619Y-113738819D01*
X147121619Y-113738819D02*
X146978762Y-113691200D01*
X146978762Y-113691200D02*
X146883524Y-113595961D01*
X146883524Y-113595961D02*
X146835905Y-113500723D01*
X146835905Y-113500723D02*
X146788286Y-113310247D01*
X146788286Y-113310247D02*
X146788286Y-113167390D01*
X146788286Y-113167390D02*
X146835905Y-112976914D01*
X146835905Y-112976914D02*
X146883524Y-112881676D01*
X146883524Y-112881676D02*
X146978762Y-112786438D01*
X146978762Y-112786438D02*
X147121619Y-112738819D01*
X147121619Y-112738819D02*
X147216857Y-112738819D01*
X147216857Y-112738819D02*
X147359714Y-112786438D01*
X147359714Y-112786438D02*
X147407333Y-112834057D01*
X147788286Y-112834057D02*
X147835905Y-112786438D01*
X147835905Y-112786438D02*
X147931143Y-112738819D01*
X147931143Y-112738819D02*
X148169238Y-112738819D01*
X148169238Y-112738819D02*
X148264476Y-112786438D01*
X148264476Y-112786438D02*
X148312095Y-112834057D01*
X148312095Y-112834057D02*
X148359714Y-112929295D01*
X148359714Y-112929295D02*
X148359714Y-113024533D01*
X148359714Y-113024533D02*
X148312095Y-113167390D01*
X148312095Y-113167390D02*
X147740667Y-113738819D01*
X147740667Y-113738819D02*
X148359714Y-113738819D01*
X120229333Y-81734819D02*
X119896000Y-81258628D01*
X119657905Y-81734819D02*
X119657905Y-80734819D01*
X119657905Y-80734819D02*
X120038857Y-80734819D01*
X120038857Y-80734819D02*
X120134095Y-80782438D01*
X120134095Y-80782438D02*
X120181714Y-80830057D01*
X120181714Y-80830057D02*
X120229333Y-80925295D01*
X120229333Y-80925295D02*
X120229333Y-81068152D01*
X120229333Y-81068152D02*
X120181714Y-81163390D01*
X120181714Y-81163390D02*
X120134095Y-81211009D01*
X120134095Y-81211009D02*
X120038857Y-81258628D01*
X120038857Y-81258628D02*
X119657905Y-81258628D01*
X121181714Y-81734819D02*
X120610286Y-81734819D01*
X120896000Y-81734819D02*
X120896000Y-80734819D01*
X120896000Y-80734819D02*
X120800762Y-80877676D01*
X120800762Y-80877676D02*
X120705524Y-80972914D01*
X120705524Y-80972914D02*
X120610286Y-81020533D01*
X161464666Y-112274819D02*
X161464666Y-112989104D01*
X161464666Y-112989104D02*
X161417047Y-113131961D01*
X161417047Y-113131961D02*
X161321809Y-113227200D01*
X161321809Y-113227200D02*
X161178952Y-113274819D01*
X161178952Y-113274819D02*
X161083714Y-113274819D01*
X161893238Y-112370057D02*
X161940857Y-112322438D01*
X161940857Y-112322438D02*
X162036095Y-112274819D01*
X162036095Y-112274819D02*
X162274190Y-112274819D01*
X162274190Y-112274819D02*
X162369428Y-112322438D01*
X162369428Y-112322438D02*
X162417047Y-112370057D01*
X162417047Y-112370057D02*
X162464666Y-112465295D01*
X162464666Y-112465295D02*
X162464666Y-112560533D01*
X162464666Y-112560533D02*
X162417047Y-112703390D01*
X162417047Y-112703390D02*
X161845619Y-113274819D01*
X161845619Y-113274819D02*
X162464666Y-113274819D01*
X130984666Y-111214819D02*
X130984666Y-111929104D01*
X130984666Y-111929104D02*
X130937047Y-112071961D01*
X130937047Y-112071961D02*
X130841809Y-112167200D01*
X130841809Y-112167200D02*
X130698952Y-112214819D01*
X130698952Y-112214819D02*
X130603714Y-112214819D01*
X131365619Y-111214819D02*
X131984666Y-111214819D01*
X131984666Y-111214819D02*
X131651333Y-111595771D01*
X131651333Y-111595771D02*
X131794190Y-111595771D01*
X131794190Y-111595771D02*
X131889428Y-111643390D01*
X131889428Y-111643390D02*
X131937047Y-111691009D01*
X131937047Y-111691009D02*
X131984666Y-111786247D01*
X131984666Y-111786247D02*
X131984666Y-112024342D01*
X131984666Y-112024342D02*
X131937047Y-112119580D01*
X131937047Y-112119580D02*
X131889428Y-112167200D01*
X131889428Y-112167200D02*
X131794190Y-112214819D01*
X131794190Y-112214819D02*
X131508476Y-112214819D01*
X131508476Y-112214819D02*
X131413238Y-112167200D01*
X131413238Y-112167200D02*
X131365619Y-112119580D01*
D11*
%TO.C,R8*%
X158215064Y-71855000D02*
X157760936Y-71855000D01*
X158215064Y-70385000D02*
X157760936Y-70385000D01*
%TO.C,R3*%
X157760936Y-67845000D02*
X158215064Y-67845000D01*
X157760936Y-69315000D02*
X158215064Y-69315000D01*
%TO.C,Q3*%
X122152000Y-72192000D02*
X125312000Y-72192000D01*
X122152000Y-72192000D02*
X122152000Y-71262000D01*
X122152000Y-69032000D02*
X123612000Y-69032000D01*
X122152000Y-69032000D02*
X122152000Y-69962000D01*
%TO.C,D1*%
X154176000Y-101434000D02*
X154176000Y-99734000D01*
X154176000Y-101434000D02*
X150916000Y-101434000D01*
X154176000Y-99734000D02*
X150916000Y-99734000D01*
%TO.C,D4*%
X135964000Y-119618000D02*
X135964000Y-117618000D01*
X135964000Y-119618000D02*
X131954000Y-119618000D01*
X135964000Y-117618000D02*
X131954000Y-117618000D01*
%TO.C,U1*%
X128047500Y-85260000D02*
X128047500Y-59830000D01*
X128047500Y-85260000D02*
X130587500Y-85260000D01*
X130587500Y-85260000D02*
X130587500Y-92160000D01*
X130587500Y-92160000D02*
X153907500Y-92160000D01*
X151787500Y-57700000D02*
X130177500Y-57700000D01*
X153907500Y-92160000D02*
X153907500Y-59830000D01*
X130177500Y-57700000D02*
G75*
G03*
X128047500Y-59830000I2J-2130002D01*
G01*
X153907500Y-59830000D02*
G75*
G03*
X151777500Y-57700000I-2130000J0D01*
G01*
D10*
X127642500Y-66040000D02*
X127007500Y-66675000D01*
X127007500Y-65405000D01*
X127642500Y-66040000D01*
G36*
X127642500Y-66040000D02*
G01*
X127007500Y-66675000D01*
X127007500Y-65405000D01*
X127642500Y-66040000D01*
G37*
D11*
%TO.C,R6*%
X131853000Y-107177064D02*
X131853000Y-106722936D01*
X133323000Y-107177064D02*
X133323000Y-106722936D01*
%TO.C,C1*%
X148871000Y-118603752D02*
X148871000Y-118081248D01*
X150341000Y-118603752D02*
X150341000Y-118081248D01*
%TO.C,R7*%
X160009064Y-82523000D02*
X159554936Y-82523000D01*
X160009064Y-81053000D02*
X159554936Y-81053000D01*
%TO.C,Q4*%
X122430000Y-87112000D02*
X125590000Y-87112000D01*
X122430000Y-87112000D02*
X122430000Y-86182000D01*
X122430000Y-83952000D02*
X123890000Y-83952000D01*
X122430000Y-83952000D02*
X122430000Y-84882000D01*
%TO.C,D2*%
X154176000Y-98894000D02*
X154176000Y-97194000D01*
X154176000Y-98894000D02*
X150916000Y-98894000D01*
X154176000Y-97194000D02*
X150916000Y-97194000D01*
%TO.C,Q2*%
X159598000Y-72776000D02*
X156438000Y-72776000D01*
X159598000Y-72776000D02*
X159598000Y-73706000D01*
X159598000Y-75936000D02*
X158138000Y-75936000D01*
X159598000Y-75936000D02*
X159598000Y-75006000D01*
%TO.C,U2*%
X163290000Y-121440000D02*
X163290000Y-113890000D01*
X163290000Y-121440000D02*
X151670000Y-121440000D01*
X163290000Y-113890000D02*
X151670000Y-113890000D01*
X152725600Y-121615200D02*
X151485600Y-121615200D01*
X151670000Y-121440000D02*
X151670000Y-113890000D01*
X151485600Y-120375200D02*
X151485600Y-121615200D01*
%TO.C,D3*%
X154176000Y-96354000D02*
X154176000Y-94654000D01*
X154176000Y-96354000D02*
X150916000Y-96354000D01*
X154176000Y-94654000D02*
X150916000Y-94654000D01*
%TO.C,R5*%
X123979000Y-89873064D02*
X123979000Y-89418936D01*
X125449000Y-89873064D02*
X125449000Y-89418936D01*
%TO.C,Q1*%
X158078000Y-80066000D02*
X161238000Y-80066000D01*
X158078000Y-80066000D02*
X158078000Y-79136000D01*
X158078000Y-76906000D02*
X159538000Y-76906000D01*
X158078000Y-76906000D02*
X158078000Y-77836000D01*
%TO.C,J1*%
X120554000Y-94482000D02*
X119814000Y-94482000D01*
X119814000Y-94482000D02*
X119814000Y-94982000D01*
X129975000Y-94722000D02*
X120054000Y-94722000D01*
X129975000Y-94722000D02*
X129975000Y-109842000D01*
X127015000Y-94722000D02*
X127015000Y-109842000D01*
X122114000Y-94722000D02*
X122114000Y-109842000D01*
X120614000Y-94722000D02*
X120614000Y-109842000D01*
X120054000Y-94722000D02*
X120054000Y-109842000D01*
X123691000Y-101055000D02*
X123645000Y-101008000D01*
X123475000Y-101248000D02*
X123440000Y-101213000D01*
X125989000Y-103352000D02*
X125953000Y-103317000D01*
X125783000Y-103557000D02*
X125737000Y-103510000D01*
X123691000Y-106055000D02*
X123645000Y-106008000D01*
X123475000Y-106248000D02*
X123440000Y-106213000D01*
X125989000Y-108352000D02*
X125953000Y-108317000D01*
X125783000Y-108557000D02*
X125737000Y-108510000D01*
X129975000Y-109842000D02*
X120054000Y-109842000D01*
X125397999Y-95747001D02*
G75*
G03*
X124030958Y-95746574I-684000J-1534992D01*
G01*
X126248999Y-97965999D02*
G75*
G03*
X126249426Y-96598958I-1534992J684000D01*
G01*
X123179001Y-96598000D02*
G75*
G03*
X123033748Y-97310805I1535000J-683999D01*
G01*
X123034001Y-97282000D02*
G75*
G03*
X123179245Y-97965318I1679999J0D01*
G01*
X124030000Y-98817000D02*
G75*
G03*
X125397042Y-98817426I684000J1535000D01*
G01*
X126394000Y-102282000D02*
G75*
G03*
X126394000Y-102282000I-1680000J0D01*
G01*
X126394000Y-107282000D02*
G75*
G03*
X126394000Y-107282000I-1680000J0D01*
G01*
%TO.C,R4*%
X123725000Y-74887064D02*
X123725000Y-74432936D01*
X125195000Y-74887064D02*
X125195000Y-74432936D01*
%TO.C,R2*%
X123687064Y-79476000D02*
X123232936Y-79476000D01*
X123687064Y-78006000D02*
X123232936Y-78006000D01*
%TO.C,C2*%
X150341000Y-113044248D02*
X150341000Y-113566752D01*
X148871000Y-113044248D02*
X148871000Y-113566752D01*
%TO.C,R1*%
X123216936Y-80545000D02*
X123671064Y-80545000D01*
X123216936Y-82015000D02*
X123671064Y-82015000D01*
%TO.C,J2*%
X163128000Y-111820000D02*
X161798000Y-111820000D01*
X163128000Y-110490000D02*
X163128000Y-111820000D01*
X163128000Y-109220000D02*
X163128000Y-83760000D01*
X163128000Y-109220000D02*
X160468000Y-109220000D01*
X163128000Y-83760000D02*
X160468000Y-83760000D01*
X160468000Y-109220000D02*
X160468000Y-83760000D01*
%TO.C,J3*%
X120554000Y-110738000D02*
X119814000Y-110738000D01*
X119814000Y-110738000D02*
X119814000Y-111238000D01*
X129975000Y-110978000D02*
X120054000Y-110978000D01*
X129975000Y-110978000D02*
X129975000Y-121098000D01*
X127015000Y-110978000D02*
X127015000Y-121098000D01*
X122114000Y-110978000D02*
X122114000Y-121098000D01*
X120614000Y-110978000D02*
X120614000Y-121098000D01*
X120054000Y-110978000D02*
X120054000Y-121098000D01*
X123691000Y-117311000D02*
X123645000Y-117264000D01*
X123475000Y-117504000D02*
X123440000Y-117469000D01*
X125989000Y-119608000D02*
X125953000Y-119573000D01*
X125783000Y-119813000D02*
X125737000Y-119766000D01*
X129975000Y-121098000D02*
X120054000Y-121098000D01*
X125397999Y-112003001D02*
G75*
G03*
X124030958Y-112002574I-684000J-1534992D01*
G01*
X126248999Y-114221999D02*
G75*
G03*
X126249426Y-112854958I-1534992J684000D01*
G01*
X123179001Y-112854000D02*
G75*
G03*
X123033748Y-113566805I1535000J-683999D01*
G01*
X123034001Y-113538000D02*
G75*
G03*
X123179245Y-114221318I1679999J0D01*
G01*
X124030000Y-115073000D02*
G75*
G03*
X125397042Y-115073426I684000J1535000D01*
G01*
X126394000Y-118538000D02*
G75*
G03*
X126394000Y-118538000I-1680000J0D01*
G01*
%TD*%
M02*
