%TF.GenerationSoftware,KiCad,Pcbnew,7.0.9*%
%TF.CreationDate,2023-11-16T09:05:31-08:00*%
%TF.ProjectId,RatGDO-OpenSource-D1Mini-ESP8266-Tubez,52617447-444f-42d4-9f70-656e536f7572,2.5.0*%
%TF.SameCoordinates,Original*%
%TF.FileFunction,Legend,Bot*%
%TF.FilePolarity,Positive*%
%FSLAX46Y46*%
G04 Gerber Fmt 4.6, Leading zero omitted, Abs format (unit mm)*
G04 Created by KiCad (PCBNEW 7.0.9) date 2023-11-16 09:05:31*
%MOMM*%
%LPD*%
G01*
G04 APERTURE LIST*
%ADD10C,0.150000*%
G04 APERTURE END LIST*
D10*
X158953030Y-87007819D02*
X159429220Y-87007819D01*
X159429220Y-87007819D02*
X159476839Y-87484009D01*
X159476839Y-87484009D02*
X159429220Y-87436390D01*
X159429220Y-87436390D02*
X159333982Y-87388771D01*
X159333982Y-87388771D02*
X159095887Y-87388771D01*
X159095887Y-87388771D02*
X159000649Y-87436390D01*
X159000649Y-87436390D02*
X158953030Y-87484009D01*
X158953030Y-87484009D02*
X158905411Y-87579247D01*
X158905411Y-87579247D02*
X158905411Y-87817342D01*
X158905411Y-87817342D02*
X158953030Y-87912580D01*
X158953030Y-87912580D02*
X159000649Y-87960200D01*
X159000649Y-87960200D02*
X159095887Y-88007819D01*
X159095887Y-88007819D02*
X159333982Y-88007819D01*
X159333982Y-88007819D02*
X159429220Y-87960200D01*
X159429220Y-87960200D02*
X159476839Y-87912580D01*
X158619696Y-87007819D02*
X158286363Y-88007819D01*
X158286363Y-88007819D02*
X157953030Y-87007819D01*
X146951506Y-119519819D02*
X146951506Y-120234104D01*
X146951506Y-120234104D02*
X146999125Y-120376961D01*
X146999125Y-120376961D02*
X147094363Y-120472200D01*
X147094363Y-120472200D02*
X147237220Y-120519819D01*
X147237220Y-120519819D02*
X147332458Y-120519819D01*
X145999125Y-120519819D02*
X146475315Y-120519819D01*
X146475315Y-120519819D02*
X146475315Y-119519819D01*
X145094363Y-120424580D02*
X145141982Y-120472200D01*
X145141982Y-120472200D02*
X145284839Y-120519819D01*
X145284839Y-120519819D02*
X145380077Y-120519819D01*
X145380077Y-120519819D02*
X145522934Y-120472200D01*
X145522934Y-120472200D02*
X145618172Y-120376961D01*
X145618172Y-120376961D02*
X145665791Y-120281723D01*
X145665791Y-120281723D02*
X145713410Y-120091247D01*
X145713410Y-120091247D02*
X145713410Y-119948390D01*
X145713410Y-119948390D02*
X145665791Y-119757914D01*
X145665791Y-119757914D02*
X145618172Y-119662676D01*
X145618172Y-119662676D02*
X145522934Y-119567438D01*
X145522934Y-119567438D02*
X145380077Y-119519819D01*
X145380077Y-119519819D02*
X145284839Y-119519819D01*
X145284839Y-119519819D02*
X145141982Y-119567438D01*
X145141982Y-119567438D02*
X145094363Y-119615057D01*
X144380077Y-119519819D02*
X144380077Y-120234104D01*
X144380077Y-120234104D02*
X144427696Y-120376961D01*
X144427696Y-120376961D02*
X144522934Y-120472200D01*
X144522934Y-120472200D02*
X144665791Y-120519819D01*
X144665791Y-120519819D02*
X144761029Y-120519819D01*
X143427696Y-120519819D02*
X143903886Y-120519819D01*
X143903886Y-120519819D02*
X143903886Y-119519819D01*
X142522934Y-120424580D02*
X142570553Y-120472200D01*
X142570553Y-120472200D02*
X142713410Y-120519819D01*
X142713410Y-120519819D02*
X142808648Y-120519819D01*
X142808648Y-120519819D02*
X142951505Y-120472200D01*
X142951505Y-120472200D02*
X143046743Y-120376961D01*
X143046743Y-120376961D02*
X143094362Y-120281723D01*
X143094362Y-120281723D02*
X143141981Y-120091247D01*
X143141981Y-120091247D02*
X143141981Y-119948390D01*
X143141981Y-119948390D02*
X143094362Y-119757914D01*
X143094362Y-119757914D02*
X143046743Y-119662676D01*
X143046743Y-119662676D02*
X142951505Y-119567438D01*
X142951505Y-119567438D02*
X142808648Y-119519819D01*
X142808648Y-119519819D02*
X142713410Y-119519819D01*
X142713410Y-119519819D02*
X142570553Y-119567438D01*
X142570553Y-119567438D02*
X142522934Y-119615057D01*
X141808648Y-119519819D02*
X141808648Y-120234104D01*
X141808648Y-120234104D02*
X141856267Y-120376961D01*
X141856267Y-120376961D02*
X141951505Y-120472200D01*
X141951505Y-120472200D02*
X142094362Y-120519819D01*
X142094362Y-120519819D02*
X142189600Y-120519819D01*
X140856267Y-120519819D02*
X141332457Y-120519819D01*
X141332457Y-120519819D02*
X141332457Y-119519819D01*
X139951505Y-120424580D02*
X139999124Y-120472200D01*
X139999124Y-120472200D02*
X140141981Y-120519819D01*
X140141981Y-120519819D02*
X140237219Y-120519819D01*
X140237219Y-120519819D02*
X140380076Y-120472200D01*
X140380076Y-120472200D02*
X140475314Y-120376961D01*
X140475314Y-120376961D02*
X140522933Y-120281723D01*
X140522933Y-120281723D02*
X140570552Y-120091247D01*
X140570552Y-120091247D02*
X140570552Y-119948390D01*
X140570552Y-119948390D02*
X140522933Y-119757914D01*
X140522933Y-119757914D02*
X140475314Y-119662676D01*
X140475314Y-119662676D02*
X140380076Y-119567438D01*
X140380076Y-119567438D02*
X140237219Y-119519819D01*
X140237219Y-119519819D02*
X140141981Y-119519819D01*
X140141981Y-119519819D02*
X139999124Y-119567438D01*
X139999124Y-119567438D02*
X139951505Y-119615057D01*
X139237219Y-119519819D02*
X139237219Y-120234104D01*
X139237219Y-120234104D02*
X139284838Y-120376961D01*
X139284838Y-120376961D02*
X139380076Y-120472200D01*
X139380076Y-120472200D02*
X139522933Y-120519819D01*
X139522933Y-120519819D02*
X139618171Y-120519819D01*
X138284838Y-120519819D02*
X138761028Y-120519819D01*
X138761028Y-120519819D02*
X138761028Y-119519819D01*
X137380076Y-120424580D02*
X137427695Y-120472200D01*
X137427695Y-120472200D02*
X137570552Y-120519819D01*
X137570552Y-120519819D02*
X137665790Y-120519819D01*
X137665790Y-120519819D02*
X137808647Y-120472200D01*
X137808647Y-120472200D02*
X137903885Y-120376961D01*
X137903885Y-120376961D02*
X137951504Y-120281723D01*
X137951504Y-120281723D02*
X137999123Y-120091247D01*
X137999123Y-120091247D02*
X137999123Y-119948390D01*
X137999123Y-119948390D02*
X137951504Y-119757914D01*
X137951504Y-119757914D02*
X137903885Y-119662676D01*
X137903885Y-119662676D02*
X137808647Y-119567438D01*
X137808647Y-119567438D02*
X137665790Y-119519819D01*
X137665790Y-119519819D02*
X137570552Y-119519819D01*
X137570552Y-119519819D02*
X137427695Y-119567438D01*
X137427695Y-119567438D02*
X137380076Y-119615057D01*
X159524458Y-110121819D02*
X159286363Y-111121819D01*
X159286363Y-111121819D02*
X159095887Y-110407533D01*
X159095887Y-110407533D02*
X158905411Y-111121819D01*
X158905411Y-111121819D02*
X158667316Y-110121819D01*
X158286363Y-111121819D02*
X158286363Y-110121819D01*
X158286363Y-110598009D02*
X157714935Y-110598009D01*
X157714935Y-111121819D02*
X157714935Y-110121819D01*
X157381601Y-110121819D02*
X156810173Y-110121819D01*
X157095887Y-111121819D02*
X157095887Y-110121819D01*
X155762554Y-110074200D02*
X156619696Y-111359914D01*
X154905411Y-110169438D02*
X155000649Y-110121819D01*
X155000649Y-110121819D02*
X155143506Y-110121819D01*
X155143506Y-110121819D02*
X155286363Y-110169438D01*
X155286363Y-110169438D02*
X155381601Y-110264676D01*
X155381601Y-110264676D02*
X155429220Y-110359914D01*
X155429220Y-110359914D02*
X155476839Y-110550390D01*
X155476839Y-110550390D02*
X155476839Y-110693247D01*
X155476839Y-110693247D02*
X155429220Y-110883723D01*
X155429220Y-110883723D02*
X155381601Y-110978961D01*
X155381601Y-110978961D02*
X155286363Y-111074200D01*
X155286363Y-111074200D02*
X155143506Y-111121819D01*
X155143506Y-111121819D02*
X155048268Y-111121819D01*
X155048268Y-111121819D02*
X154905411Y-111074200D01*
X154905411Y-111074200D02*
X154857792Y-111026580D01*
X154857792Y-111026580D02*
X154857792Y-110693247D01*
X154857792Y-110693247D02*
X155048268Y-110693247D01*
X154429220Y-111121819D02*
X154429220Y-110121819D01*
X154429220Y-110121819D02*
X153857792Y-111121819D01*
X153857792Y-111121819D02*
X153857792Y-110121819D01*
X153381601Y-111121819D02*
X153381601Y-110121819D01*
X153381601Y-110121819D02*
X153143506Y-110121819D01*
X153143506Y-110121819D02*
X153000649Y-110169438D01*
X153000649Y-110169438D02*
X152905411Y-110264676D01*
X152905411Y-110264676D02*
X152857792Y-110359914D01*
X152857792Y-110359914D02*
X152810173Y-110550390D01*
X152810173Y-110550390D02*
X152810173Y-110693247D01*
X152810173Y-110693247D02*
X152857792Y-110883723D01*
X152857792Y-110883723D02*
X152905411Y-110978961D01*
X152905411Y-110978961D02*
X153000649Y-111074200D01*
X153000649Y-111074200D02*
X153143506Y-111121819D01*
X153143506Y-111121819D02*
X153381601Y-111121819D01*
X156111315Y-76831819D02*
X156111315Y-75831819D01*
X156111315Y-75831819D02*
X155873220Y-75831819D01*
X155873220Y-75831819D02*
X155730363Y-75879438D01*
X155730363Y-75879438D02*
X155635125Y-75974676D01*
X155635125Y-75974676D02*
X155587506Y-76069914D01*
X155587506Y-76069914D02*
X155539887Y-76260390D01*
X155539887Y-76260390D02*
X155539887Y-76403247D01*
X155539887Y-76403247D02*
X155587506Y-76593723D01*
X155587506Y-76593723D02*
X155635125Y-76688961D01*
X155635125Y-76688961D02*
X155730363Y-76784200D01*
X155730363Y-76784200D02*
X155873220Y-76831819D01*
X155873220Y-76831819D02*
X156111315Y-76831819D01*
X155206553Y-75831819D02*
X154587506Y-75831819D01*
X154587506Y-75831819D02*
X154920839Y-76212771D01*
X154920839Y-76212771D02*
X154777982Y-76212771D01*
X154777982Y-76212771D02*
X154682744Y-76260390D01*
X154682744Y-76260390D02*
X154635125Y-76308009D01*
X154635125Y-76308009D02*
X154587506Y-76403247D01*
X154587506Y-76403247D02*
X154587506Y-76641342D01*
X154587506Y-76641342D02*
X154635125Y-76736580D01*
X154635125Y-76736580D02*
X154682744Y-76784200D01*
X154682744Y-76784200D02*
X154777982Y-76831819D01*
X154777982Y-76831819D02*
X155063696Y-76831819D01*
X155063696Y-76831819D02*
X155158934Y-76784200D01*
X155158934Y-76784200D02*
X155206553Y-76736580D01*
X159238744Y-97421819D02*
X159048268Y-97421819D01*
X159048268Y-97421819D02*
X158953030Y-97469438D01*
X158953030Y-97469438D02*
X158857792Y-97564676D01*
X158857792Y-97564676D02*
X158810173Y-97755152D01*
X158810173Y-97755152D02*
X158810173Y-98088485D01*
X158810173Y-98088485D02*
X158857792Y-98278961D01*
X158857792Y-98278961D02*
X158953030Y-98374200D01*
X158953030Y-98374200D02*
X159048268Y-98421819D01*
X159048268Y-98421819D02*
X159238744Y-98421819D01*
X159238744Y-98421819D02*
X159333982Y-98374200D01*
X159333982Y-98374200D02*
X159429220Y-98278961D01*
X159429220Y-98278961D02*
X159476839Y-98088485D01*
X159476839Y-98088485D02*
X159476839Y-97755152D01*
X159476839Y-97755152D02*
X159429220Y-97564676D01*
X159429220Y-97564676D02*
X159333982Y-97469438D01*
X159333982Y-97469438D02*
X159238744Y-97421819D01*
X158381601Y-98421819D02*
X158381601Y-97421819D01*
X158381601Y-97421819D02*
X158000649Y-97421819D01*
X158000649Y-97421819D02*
X157905411Y-97469438D01*
X157905411Y-97469438D02*
X157857792Y-97517057D01*
X157857792Y-97517057D02*
X157810173Y-97612295D01*
X157810173Y-97612295D02*
X157810173Y-97755152D01*
X157810173Y-97755152D02*
X157857792Y-97850390D01*
X157857792Y-97850390D02*
X157905411Y-97898009D01*
X157905411Y-97898009D02*
X158000649Y-97945628D01*
X158000649Y-97945628D02*
X158381601Y-97945628D01*
X157381601Y-97898009D02*
X157048268Y-97898009D01*
X156905411Y-98421819D02*
X157381601Y-98421819D01*
X157381601Y-98421819D02*
X157381601Y-97421819D01*
X157381601Y-97421819D02*
X156905411Y-97421819D01*
X156476839Y-98421819D02*
X156476839Y-97421819D01*
X156476839Y-97421819D02*
X155905411Y-98421819D01*
X155905411Y-98421819D02*
X155905411Y-97421819D01*
X126877700Y-66395116D02*
X127211033Y-65918925D01*
X127449128Y-66395116D02*
X127449128Y-65395116D01*
X127449128Y-65395116D02*
X127068176Y-65395116D01*
X127068176Y-65395116D02*
X126972938Y-65442735D01*
X126972938Y-65442735D02*
X126925319Y-65490354D01*
X126925319Y-65490354D02*
X126877700Y-65585592D01*
X126877700Y-65585592D02*
X126877700Y-65728449D01*
X126877700Y-65728449D02*
X126925319Y-65823687D01*
X126925319Y-65823687D02*
X126972938Y-65871306D01*
X126972938Y-65871306D02*
X127068176Y-65918925D01*
X127068176Y-65918925D02*
X127449128Y-65918925D01*
X126496747Y-66347497D02*
X126353890Y-66395116D01*
X126353890Y-66395116D02*
X126115795Y-66395116D01*
X126115795Y-66395116D02*
X126020557Y-66347497D01*
X126020557Y-66347497D02*
X125972938Y-66299877D01*
X125972938Y-66299877D02*
X125925319Y-66204639D01*
X125925319Y-66204639D02*
X125925319Y-66109401D01*
X125925319Y-66109401D02*
X125972938Y-66014163D01*
X125972938Y-66014163D02*
X126020557Y-65966544D01*
X126020557Y-65966544D02*
X126115795Y-65918925D01*
X126115795Y-65918925D02*
X126306271Y-65871306D01*
X126306271Y-65871306D02*
X126401509Y-65823687D01*
X126401509Y-65823687D02*
X126449128Y-65776068D01*
X126449128Y-65776068D02*
X126496747Y-65680830D01*
X126496747Y-65680830D02*
X126496747Y-65585592D01*
X126496747Y-65585592D02*
X126449128Y-65490354D01*
X126449128Y-65490354D02*
X126401509Y-65442735D01*
X126401509Y-65442735D02*
X126306271Y-65395116D01*
X126306271Y-65395116D02*
X126068176Y-65395116D01*
X126068176Y-65395116D02*
X125925319Y-65442735D01*
X125639604Y-65395116D02*
X125068176Y-65395116D01*
X125353890Y-66395116D02*
X125353890Y-65395116D01*
X159920839Y-71751819D02*
X159920839Y-70751819D01*
X159920839Y-70751819D02*
X159682744Y-70751819D01*
X159682744Y-70751819D02*
X159539887Y-70799438D01*
X159539887Y-70799438D02*
X159444649Y-70894676D01*
X159444649Y-70894676D02*
X159397030Y-70989914D01*
X159397030Y-70989914D02*
X159349411Y-71180390D01*
X159349411Y-71180390D02*
X159349411Y-71323247D01*
X159349411Y-71323247D02*
X159397030Y-71513723D01*
X159397030Y-71513723D02*
X159444649Y-71608961D01*
X159444649Y-71608961D02*
X159539887Y-71704200D01*
X159539887Y-71704200D02*
X159682744Y-71751819D01*
X159682744Y-71751819D02*
X159920839Y-71751819D01*
X158397030Y-71751819D02*
X158968458Y-71751819D01*
X158682744Y-71751819D02*
X158682744Y-70751819D01*
X158682744Y-70751819D02*
X158777982Y-70894676D01*
X158777982Y-70894676D02*
X158873220Y-70989914D01*
X158873220Y-70989914D02*
X158968458Y-71037533D01*
X157254173Y-70704200D02*
X158111315Y-71989914D01*
X156968458Y-71704200D02*
X156825601Y-71751819D01*
X156825601Y-71751819D02*
X156587506Y-71751819D01*
X156587506Y-71751819D02*
X156492268Y-71704200D01*
X156492268Y-71704200D02*
X156444649Y-71656580D01*
X156444649Y-71656580D02*
X156397030Y-71561342D01*
X156397030Y-71561342D02*
X156397030Y-71466104D01*
X156397030Y-71466104D02*
X156444649Y-71370866D01*
X156444649Y-71370866D02*
X156492268Y-71323247D01*
X156492268Y-71323247D02*
X156587506Y-71275628D01*
X156587506Y-71275628D02*
X156777982Y-71228009D01*
X156777982Y-71228009D02*
X156873220Y-71180390D01*
X156873220Y-71180390D02*
X156920839Y-71132771D01*
X156920839Y-71132771D02*
X156968458Y-71037533D01*
X156968458Y-71037533D02*
X156968458Y-70942295D01*
X156968458Y-70942295D02*
X156920839Y-70847057D01*
X156920839Y-70847057D02*
X156873220Y-70799438D01*
X156873220Y-70799438D02*
X156777982Y-70751819D01*
X156777982Y-70751819D02*
X156539887Y-70751819D01*
X156539887Y-70751819D02*
X156397030Y-70799438D01*
X155397030Y-71656580D02*
X155444649Y-71704200D01*
X155444649Y-71704200D02*
X155587506Y-71751819D01*
X155587506Y-71751819D02*
X155682744Y-71751819D01*
X155682744Y-71751819D02*
X155825601Y-71704200D01*
X155825601Y-71704200D02*
X155920839Y-71608961D01*
X155920839Y-71608961D02*
X155968458Y-71513723D01*
X155968458Y-71513723D02*
X156016077Y-71323247D01*
X156016077Y-71323247D02*
X156016077Y-71180390D01*
X156016077Y-71180390D02*
X155968458Y-70989914D01*
X155968458Y-70989914D02*
X155920839Y-70894676D01*
X155920839Y-70894676D02*
X155825601Y-70799438D01*
X155825601Y-70799438D02*
X155682744Y-70751819D01*
X155682744Y-70751819D02*
X155587506Y-70751819D01*
X155587506Y-70751819D02*
X155444649Y-70799438D01*
X155444649Y-70799438D02*
X155397030Y-70847057D01*
X154492268Y-71751819D02*
X154968458Y-71751819D01*
X154968458Y-71751819D02*
X154968458Y-70751819D01*
X155539887Y-69211819D02*
X155873220Y-68735628D01*
X156111315Y-69211819D02*
X156111315Y-68211819D01*
X156111315Y-68211819D02*
X155730363Y-68211819D01*
X155730363Y-68211819D02*
X155635125Y-68259438D01*
X155635125Y-68259438D02*
X155587506Y-68307057D01*
X155587506Y-68307057D02*
X155539887Y-68402295D01*
X155539887Y-68402295D02*
X155539887Y-68545152D01*
X155539887Y-68545152D02*
X155587506Y-68640390D01*
X155587506Y-68640390D02*
X155635125Y-68688009D01*
X155635125Y-68688009D02*
X155730363Y-68735628D01*
X155730363Y-68735628D02*
X156111315Y-68735628D01*
X155206553Y-68211819D02*
X154539887Y-69211819D01*
X154539887Y-68211819D02*
X155206553Y-69211819D01*
X158953030Y-93087819D02*
X159429220Y-93087819D01*
X159429220Y-93087819D02*
X159429220Y-92087819D01*
X158619696Y-93087819D02*
X158619696Y-92087819D01*
X157619697Y-92135438D02*
X157714935Y-92087819D01*
X157714935Y-92087819D02*
X157857792Y-92087819D01*
X157857792Y-92087819D02*
X158000649Y-92135438D01*
X158000649Y-92135438D02*
X158095887Y-92230676D01*
X158095887Y-92230676D02*
X158143506Y-92325914D01*
X158143506Y-92325914D02*
X158191125Y-92516390D01*
X158191125Y-92516390D02*
X158191125Y-92659247D01*
X158191125Y-92659247D02*
X158143506Y-92849723D01*
X158143506Y-92849723D02*
X158095887Y-92944961D01*
X158095887Y-92944961D02*
X158000649Y-93040200D01*
X158000649Y-93040200D02*
X157857792Y-93087819D01*
X157857792Y-93087819D02*
X157762554Y-93087819D01*
X157762554Y-93087819D02*
X157619697Y-93040200D01*
X157619697Y-93040200D02*
X157572078Y-92992580D01*
X157572078Y-92992580D02*
X157572078Y-92659247D01*
X157572078Y-92659247D02*
X157762554Y-92659247D01*
X157143506Y-93087819D02*
X157143506Y-92087819D01*
X157143506Y-92564009D02*
X156572078Y-92564009D01*
X156572078Y-93087819D02*
X156572078Y-92087819D01*
X156238744Y-92087819D02*
X155667316Y-92087819D01*
X155953030Y-93087819D02*
X155953030Y-92087819D01*
X156111315Y-79371819D02*
X156111315Y-78371819D01*
X156111315Y-78371819D02*
X155873220Y-78371819D01*
X155873220Y-78371819D02*
X155730363Y-78419438D01*
X155730363Y-78419438D02*
X155635125Y-78514676D01*
X155635125Y-78514676D02*
X155587506Y-78609914D01*
X155587506Y-78609914D02*
X155539887Y-78800390D01*
X155539887Y-78800390D02*
X155539887Y-78943247D01*
X155539887Y-78943247D02*
X155587506Y-79133723D01*
X155587506Y-79133723D02*
X155635125Y-79228961D01*
X155635125Y-79228961D02*
X155730363Y-79324200D01*
X155730363Y-79324200D02*
X155873220Y-79371819D01*
X155873220Y-79371819D02*
X156111315Y-79371819D01*
X154682744Y-78705152D02*
X154682744Y-79371819D01*
X154920839Y-78324200D02*
X155158934Y-79038485D01*
X155158934Y-79038485D02*
X154539887Y-79038485D01*
X127449128Y-79095116D02*
X127449128Y-78095116D01*
X127449128Y-78095116D02*
X127211033Y-78095116D01*
X127211033Y-78095116D02*
X127068176Y-78142735D01*
X127068176Y-78142735D02*
X126972938Y-78237973D01*
X126972938Y-78237973D02*
X126925319Y-78333211D01*
X126925319Y-78333211D02*
X126877700Y-78523687D01*
X126877700Y-78523687D02*
X126877700Y-78666544D01*
X126877700Y-78666544D02*
X126925319Y-78857020D01*
X126925319Y-78857020D02*
X126972938Y-78952258D01*
X126972938Y-78952258D02*
X127068176Y-79047497D01*
X127068176Y-79047497D02*
X127211033Y-79095116D01*
X127211033Y-79095116D02*
X127449128Y-79095116D01*
X126544366Y-78095116D02*
X125877700Y-78095116D01*
X125877700Y-78095116D02*
X126306271Y-79095116D01*
X124782462Y-78047497D02*
X125639604Y-79333211D01*
X124449128Y-79095116D02*
X124449128Y-78095116D01*
X124449128Y-78095116D02*
X124115795Y-78809401D01*
X124115795Y-78809401D02*
X123782462Y-78095116D01*
X123782462Y-78095116D02*
X123782462Y-79095116D01*
X123115795Y-78095116D02*
X122925319Y-78095116D01*
X122925319Y-78095116D02*
X122830081Y-78142735D01*
X122830081Y-78142735D02*
X122734843Y-78237973D01*
X122734843Y-78237973D02*
X122687224Y-78428449D01*
X122687224Y-78428449D02*
X122687224Y-78761782D01*
X122687224Y-78761782D02*
X122734843Y-78952258D01*
X122734843Y-78952258D02*
X122830081Y-79047497D01*
X122830081Y-79047497D02*
X122925319Y-79095116D01*
X122925319Y-79095116D02*
X123115795Y-79095116D01*
X123115795Y-79095116D02*
X123211033Y-79047497D01*
X123211033Y-79047497D02*
X123306271Y-78952258D01*
X123306271Y-78952258D02*
X123353890Y-78761782D01*
X123353890Y-78761782D02*
X123353890Y-78428449D01*
X123353890Y-78428449D02*
X123306271Y-78237973D01*
X123306271Y-78237973D02*
X123211033Y-78142735D01*
X123211033Y-78142735D02*
X123115795Y-78095116D01*
X122306271Y-79047497D02*
X122163414Y-79095116D01*
X122163414Y-79095116D02*
X121925319Y-79095116D01*
X121925319Y-79095116D02*
X121830081Y-79047497D01*
X121830081Y-79047497D02*
X121782462Y-78999877D01*
X121782462Y-78999877D02*
X121734843Y-78904639D01*
X121734843Y-78904639D02*
X121734843Y-78809401D01*
X121734843Y-78809401D02*
X121782462Y-78714163D01*
X121782462Y-78714163D02*
X121830081Y-78666544D01*
X121830081Y-78666544D02*
X121925319Y-78618925D01*
X121925319Y-78618925D02*
X122115795Y-78571306D01*
X122115795Y-78571306D02*
X122211033Y-78523687D01*
X122211033Y-78523687D02*
X122258652Y-78476068D01*
X122258652Y-78476068D02*
X122306271Y-78380830D01*
X122306271Y-78380830D02*
X122306271Y-78285592D01*
X122306271Y-78285592D02*
X122258652Y-78190354D01*
X122258652Y-78190354D02*
X122211033Y-78142735D01*
X122211033Y-78142735D02*
X122115795Y-78095116D01*
X122115795Y-78095116D02*
X121877700Y-78095116D01*
X121877700Y-78095116D02*
X121734843Y-78142735D01*
X121306271Y-79095116D02*
X121306271Y-78095116D01*
X155492268Y-83451819D02*
X155968458Y-83451819D01*
X155968458Y-83451819D02*
X156016077Y-83928009D01*
X156016077Y-83928009D02*
X155968458Y-83880390D01*
X155968458Y-83880390D02*
X155873220Y-83832771D01*
X155873220Y-83832771D02*
X155635125Y-83832771D01*
X155635125Y-83832771D02*
X155539887Y-83880390D01*
X155539887Y-83880390D02*
X155492268Y-83928009D01*
X155492268Y-83928009D02*
X155444649Y-84023247D01*
X155444649Y-84023247D02*
X155444649Y-84261342D01*
X155444649Y-84261342D02*
X155492268Y-84356580D01*
X155492268Y-84356580D02*
X155539887Y-84404200D01*
X155539887Y-84404200D02*
X155635125Y-84451819D01*
X155635125Y-84451819D02*
X155873220Y-84451819D01*
X155873220Y-84451819D02*
X155968458Y-84404200D01*
X155968458Y-84404200D02*
X156016077Y-84356580D01*
X155158934Y-83451819D02*
X154825601Y-84451819D01*
X154825601Y-84451819D02*
X154492268Y-83451819D01*
X159429220Y-103247819D02*
X159429220Y-102247819D01*
X159429220Y-102247819D02*
X159191125Y-102247819D01*
X159191125Y-102247819D02*
X159048268Y-102295438D01*
X159048268Y-102295438D02*
X158953030Y-102390676D01*
X158953030Y-102390676D02*
X158905411Y-102485914D01*
X158905411Y-102485914D02*
X158857792Y-102676390D01*
X158857792Y-102676390D02*
X158857792Y-102819247D01*
X158857792Y-102819247D02*
X158905411Y-103009723D01*
X158905411Y-103009723D02*
X158953030Y-103104961D01*
X158953030Y-103104961D02*
X159048268Y-103200200D01*
X159048268Y-103200200D02*
X159191125Y-103247819D01*
X159191125Y-103247819D02*
X159429220Y-103247819D01*
X158238744Y-102247819D02*
X158048268Y-102247819D01*
X158048268Y-102247819D02*
X157953030Y-102295438D01*
X157953030Y-102295438D02*
X157857792Y-102390676D01*
X157857792Y-102390676D02*
X157810173Y-102581152D01*
X157810173Y-102581152D02*
X157810173Y-102914485D01*
X157810173Y-102914485D02*
X157857792Y-103104961D01*
X157857792Y-103104961D02*
X157953030Y-103200200D01*
X157953030Y-103200200D02*
X158048268Y-103247819D01*
X158048268Y-103247819D02*
X158238744Y-103247819D01*
X158238744Y-103247819D02*
X158333982Y-103200200D01*
X158333982Y-103200200D02*
X158429220Y-103104961D01*
X158429220Y-103104961D02*
X158476839Y-102914485D01*
X158476839Y-102914485D02*
X158476839Y-102581152D01*
X158476839Y-102581152D02*
X158429220Y-102390676D01*
X158429220Y-102390676D02*
X158333982Y-102295438D01*
X158333982Y-102295438D02*
X158238744Y-102247819D01*
X157191125Y-102247819D02*
X157000649Y-102247819D01*
X157000649Y-102247819D02*
X156905411Y-102295438D01*
X156905411Y-102295438D02*
X156810173Y-102390676D01*
X156810173Y-102390676D02*
X156762554Y-102581152D01*
X156762554Y-102581152D02*
X156762554Y-102914485D01*
X156762554Y-102914485D02*
X156810173Y-103104961D01*
X156810173Y-103104961D02*
X156905411Y-103200200D01*
X156905411Y-103200200D02*
X157000649Y-103247819D01*
X157000649Y-103247819D02*
X157191125Y-103247819D01*
X157191125Y-103247819D02*
X157286363Y-103200200D01*
X157286363Y-103200200D02*
X157381601Y-103104961D01*
X157381601Y-103104961D02*
X157429220Y-102914485D01*
X157429220Y-102914485D02*
X157429220Y-102581152D01*
X157429220Y-102581152D02*
X157381601Y-102390676D01*
X157381601Y-102390676D02*
X157286363Y-102295438D01*
X157286363Y-102295438D02*
X157191125Y-102247819D01*
X155762554Y-103247819D02*
X156095887Y-102771628D01*
X156333982Y-103247819D02*
X156333982Y-102247819D01*
X156333982Y-102247819D02*
X155953030Y-102247819D01*
X155953030Y-102247819D02*
X155857792Y-102295438D01*
X155857792Y-102295438D02*
X155810173Y-102343057D01*
X155810173Y-102343057D02*
X155762554Y-102438295D01*
X155762554Y-102438295D02*
X155762554Y-102581152D01*
X155762554Y-102581152D02*
X155810173Y-102676390D01*
X155810173Y-102676390D02*
X155857792Y-102724009D01*
X155857792Y-102724009D02*
X155953030Y-102771628D01*
X155953030Y-102771628D02*
X156333982Y-102771628D01*
X127449128Y-81635116D02*
X127449128Y-80635116D01*
X127449128Y-80635116D02*
X127211033Y-80635116D01*
X127211033Y-80635116D02*
X127068176Y-80682735D01*
X127068176Y-80682735D02*
X126972938Y-80777973D01*
X126972938Y-80777973D02*
X126925319Y-80873211D01*
X126925319Y-80873211D02*
X126877700Y-81063687D01*
X126877700Y-81063687D02*
X126877700Y-81206544D01*
X126877700Y-81206544D02*
X126925319Y-81397020D01*
X126925319Y-81397020D02*
X126972938Y-81492258D01*
X126972938Y-81492258D02*
X127068176Y-81587497D01*
X127068176Y-81587497D02*
X127211033Y-81635116D01*
X127211033Y-81635116D02*
X127449128Y-81635116D01*
X126306271Y-81063687D02*
X126401509Y-81016068D01*
X126401509Y-81016068D02*
X126449128Y-80968449D01*
X126449128Y-80968449D02*
X126496747Y-80873211D01*
X126496747Y-80873211D02*
X126496747Y-80825592D01*
X126496747Y-80825592D02*
X126449128Y-80730354D01*
X126449128Y-80730354D02*
X126401509Y-80682735D01*
X126401509Y-80682735D02*
X126306271Y-80635116D01*
X126306271Y-80635116D02*
X126115795Y-80635116D01*
X126115795Y-80635116D02*
X126020557Y-80682735D01*
X126020557Y-80682735D02*
X125972938Y-80730354D01*
X125972938Y-80730354D02*
X125925319Y-80825592D01*
X125925319Y-80825592D02*
X125925319Y-80873211D01*
X125925319Y-80873211D02*
X125972938Y-80968449D01*
X125972938Y-80968449D02*
X126020557Y-81016068D01*
X126020557Y-81016068D02*
X126115795Y-81063687D01*
X126115795Y-81063687D02*
X126306271Y-81063687D01*
X126306271Y-81063687D02*
X126401509Y-81111306D01*
X126401509Y-81111306D02*
X126449128Y-81158925D01*
X126449128Y-81158925D02*
X126496747Y-81254163D01*
X126496747Y-81254163D02*
X126496747Y-81444639D01*
X126496747Y-81444639D02*
X126449128Y-81539877D01*
X126449128Y-81539877D02*
X126401509Y-81587497D01*
X126401509Y-81587497D02*
X126306271Y-81635116D01*
X126306271Y-81635116D02*
X126115795Y-81635116D01*
X126115795Y-81635116D02*
X126020557Y-81587497D01*
X126020557Y-81587497D02*
X125972938Y-81539877D01*
X125972938Y-81539877D02*
X125925319Y-81444639D01*
X125925319Y-81444639D02*
X125925319Y-81254163D01*
X125925319Y-81254163D02*
X125972938Y-81158925D01*
X125972938Y-81158925D02*
X126020557Y-81111306D01*
X126020557Y-81111306D02*
X126115795Y-81063687D01*
X127496747Y-68649401D02*
X127020557Y-68649401D01*
X127591985Y-68935116D02*
X127258652Y-67935116D01*
X127258652Y-67935116D02*
X126925319Y-68935116D01*
X126401509Y-67935116D02*
X126306271Y-67935116D01*
X126306271Y-67935116D02*
X126211033Y-67982735D01*
X126211033Y-67982735D02*
X126163414Y-68030354D01*
X126163414Y-68030354D02*
X126115795Y-68125592D01*
X126115795Y-68125592D02*
X126068176Y-68316068D01*
X126068176Y-68316068D02*
X126068176Y-68554163D01*
X126068176Y-68554163D02*
X126115795Y-68744639D01*
X126115795Y-68744639D02*
X126163414Y-68839877D01*
X126163414Y-68839877D02*
X126211033Y-68887497D01*
X126211033Y-68887497D02*
X126306271Y-68935116D01*
X126306271Y-68935116D02*
X126401509Y-68935116D01*
X126401509Y-68935116D02*
X126496747Y-68887497D01*
X126496747Y-68887497D02*
X126544366Y-68839877D01*
X126544366Y-68839877D02*
X126591985Y-68744639D01*
X126591985Y-68744639D02*
X126639604Y-68554163D01*
X126639604Y-68554163D02*
X126639604Y-68316068D01*
X126639604Y-68316068D02*
X126591985Y-68125592D01*
X126591985Y-68125592D02*
X126544366Y-68030354D01*
X126544366Y-68030354D02*
X126496747Y-67982735D01*
X126496747Y-67982735D02*
X126401509Y-67935116D01*
X127449128Y-76555116D02*
X127449128Y-75555116D01*
X127449128Y-75555116D02*
X127211033Y-75555116D01*
X127211033Y-75555116D02*
X127068176Y-75602735D01*
X127068176Y-75602735D02*
X126972938Y-75697973D01*
X126972938Y-75697973D02*
X126925319Y-75793211D01*
X126925319Y-75793211D02*
X126877700Y-75983687D01*
X126877700Y-75983687D02*
X126877700Y-76126544D01*
X126877700Y-76126544D02*
X126925319Y-76317020D01*
X126925319Y-76317020D02*
X126972938Y-76412258D01*
X126972938Y-76412258D02*
X127068176Y-76507497D01*
X127068176Y-76507497D02*
X127211033Y-76555116D01*
X127211033Y-76555116D02*
X127449128Y-76555116D01*
X126020557Y-75555116D02*
X126211033Y-75555116D01*
X126211033Y-75555116D02*
X126306271Y-75602735D01*
X126306271Y-75602735D02*
X126353890Y-75650354D01*
X126353890Y-75650354D02*
X126449128Y-75793211D01*
X126449128Y-75793211D02*
X126496747Y-75983687D01*
X126496747Y-75983687D02*
X126496747Y-76364639D01*
X126496747Y-76364639D02*
X126449128Y-76459877D01*
X126449128Y-76459877D02*
X126401509Y-76507497D01*
X126401509Y-76507497D02*
X126306271Y-76555116D01*
X126306271Y-76555116D02*
X126115795Y-76555116D01*
X126115795Y-76555116D02*
X126020557Y-76507497D01*
X126020557Y-76507497D02*
X125972938Y-76459877D01*
X125972938Y-76459877D02*
X125925319Y-76364639D01*
X125925319Y-76364639D02*
X125925319Y-76126544D01*
X125925319Y-76126544D02*
X125972938Y-76031306D01*
X125972938Y-76031306D02*
X126020557Y-75983687D01*
X126020557Y-75983687D02*
X126115795Y-75936068D01*
X126115795Y-75936068D02*
X126306271Y-75936068D01*
X126306271Y-75936068D02*
X126401509Y-75983687D01*
X126401509Y-75983687D02*
X126449128Y-76031306D01*
X126449128Y-76031306D02*
X126496747Y-76126544D01*
X124782462Y-75507497D02*
X125639604Y-76793211D01*
X124449128Y-76555116D02*
X124449128Y-75555116D01*
X124449128Y-75555116D02*
X124115795Y-76269401D01*
X124115795Y-76269401D02*
X123782462Y-75555116D01*
X123782462Y-75555116D02*
X123782462Y-76555116D01*
X123306271Y-76555116D02*
X123306271Y-75555116D01*
X122877700Y-76507497D02*
X122734843Y-76555116D01*
X122734843Y-76555116D02*
X122496748Y-76555116D01*
X122496748Y-76555116D02*
X122401510Y-76507497D01*
X122401510Y-76507497D02*
X122353891Y-76459877D01*
X122353891Y-76459877D02*
X122306272Y-76364639D01*
X122306272Y-76364639D02*
X122306272Y-76269401D01*
X122306272Y-76269401D02*
X122353891Y-76174163D01*
X122353891Y-76174163D02*
X122401510Y-76126544D01*
X122401510Y-76126544D02*
X122496748Y-76078925D01*
X122496748Y-76078925D02*
X122687224Y-76031306D01*
X122687224Y-76031306D02*
X122782462Y-75983687D01*
X122782462Y-75983687D02*
X122830081Y-75936068D01*
X122830081Y-75936068D02*
X122877700Y-75840830D01*
X122877700Y-75840830D02*
X122877700Y-75745592D01*
X122877700Y-75745592D02*
X122830081Y-75650354D01*
X122830081Y-75650354D02*
X122782462Y-75602735D01*
X122782462Y-75602735D02*
X122687224Y-75555116D01*
X122687224Y-75555116D02*
X122449129Y-75555116D01*
X122449129Y-75555116D02*
X122306272Y-75602735D01*
X121687224Y-75555116D02*
X121496748Y-75555116D01*
X121496748Y-75555116D02*
X121401510Y-75602735D01*
X121401510Y-75602735D02*
X121306272Y-75697973D01*
X121306272Y-75697973D02*
X121258653Y-75888449D01*
X121258653Y-75888449D02*
X121258653Y-76221782D01*
X121258653Y-76221782D02*
X121306272Y-76412258D01*
X121306272Y-76412258D02*
X121401510Y-76507497D01*
X121401510Y-76507497D02*
X121496748Y-76555116D01*
X121496748Y-76555116D02*
X121687224Y-76555116D01*
X121687224Y-76555116D02*
X121782462Y-76507497D01*
X121782462Y-76507497D02*
X121877700Y-76412258D01*
X121877700Y-76412258D02*
X121925319Y-76221782D01*
X121925319Y-76221782D02*
X121925319Y-75888449D01*
X121925319Y-75888449D02*
X121877700Y-75697973D01*
X121877700Y-75697973D02*
X121782462Y-75602735D01*
X121782462Y-75602735D02*
X121687224Y-75555116D01*
X159159411Y-85467819D02*
X159730839Y-85467819D01*
X159445125Y-85467819D02*
X159445125Y-84467819D01*
X159445125Y-84467819D02*
X159540363Y-84610676D01*
X159540363Y-84610676D02*
X159635601Y-84705914D01*
X159635601Y-84705914D02*
X159730839Y-84753533D01*
X158778458Y-84563057D02*
X158730839Y-84515438D01*
X158730839Y-84515438D02*
X158635601Y-84467819D01*
X158635601Y-84467819D02*
X158397506Y-84467819D01*
X158397506Y-84467819D02*
X158302268Y-84515438D01*
X158302268Y-84515438D02*
X158254649Y-84563057D01*
X158254649Y-84563057D02*
X158207030Y-84658295D01*
X158207030Y-84658295D02*
X158207030Y-84753533D01*
X158207030Y-84753533D02*
X158254649Y-84896390D01*
X158254649Y-84896390D02*
X158826077Y-85467819D01*
X158826077Y-85467819D02*
X158207030Y-85467819D01*
X157921315Y-84467819D02*
X157587982Y-85467819D01*
X157587982Y-85467819D02*
X157254649Y-84467819D01*
X156016077Y-65671819D02*
X155444649Y-65671819D01*
X155730363Y-66671819D02*
X155730363Y-65671819D01*
X155206553Y-65671819D02*
X154539887Y-66671819D01*
X154539887Y-65671819D02*
X155206553Y-66671819D01*
X159238744Y-99707819D02*
X159048268Y-99707819D01*
X159048268Y-99707819D02*
X158953030Y-99755438D01*
X158953030Y-99755438D02*
X158857792Y-99850676D01*
X158857792Y-99850676D02*
X158810173Y-100041152D01*
X158810173Y-100041152D02*
X158810173Y-100374485D01*
X158810173Y-100374485D02*
X158857792Y-100564961D01*
X158857792Y-100564961D02*
X158953030Y-100660200D01*
X158953030Y-100660200D02*
X159048268Y-100707819D01*
X159048268Y-100707819D02*
X159238744Y-100707819D01*
X159238744Y-100707819D02*
X159333982Y-100660200D01*
X159333982Y-100660200D02*
X159429220Y-100564961D01*
X159429220Y-100564961D02*
X159476839Y-100374485D01*
X159476839Y-100374485D02*
X159476839Y-100041152D01*
X159476839Y-100041152D02*
X159429220Y-99850676D01*
X159429220Y-99850676D02*
X159333982Y-99755438D01*
X159333982Y-99755438D02*
X159238744Y-99707819D01*
X158048268Y-100184009D02*
X157905411Y-100231628D01*
X157905411Y-100231628D02*
X157857792Y-100279247D01*
X157857792Y-100279247D02*
X157810173Y-100374485D01*
X157810173Y-100374485D02*
X157810173Y-100517342D01*
X157810173Y-100517342D02*
X157857792Y-100612580D01*
X157857792Y-100612580D02*
X157905411Y-100660200D01*
X157905411Y-100660200D02*
X158000649Y-100707819D01*
X158000649Y-100707819D02*
X158381601Y-100707819D01*
X158381601Y-100707819D02*
X158381601Y-99707819D01*
X158381601Y-99707819D02*
X158048268Y-99707819D01*
X158048268Y-99707819D02*
X157953030Y-99755438D01*
X157953030Y-99755438D02*
X157905411Y-99803057D01*
X157905411Y-99803057D02*
X157857792Y-99898295D01*
X157857792Y-99898295D02*
X157857792Y-99993533D01*
X157857792Y-99993533D02*
X157905411Y-100088771D01*
X157905411Y-100088771D02*
X157953030Y-100136390D01*
X157953030Y-100136390D02*
X158048268Y-100184009D01*
X158048268Y-100184009D02*
X158381601Y-100184009D01*
X157429220Y-100660200D02*
X157286363Y-100707819D01*
X157286363Y-100707819D02*
X157048268Y-100707819D01*
X157048268Y-100707819D02*
X156953030Y-100660200D01*
X156953030Y-100660200D02*
X156905411Y-100612580D01*
X156905411Y-100612580D02*
X156857792Y-100517342D01*
X156857792Y-100517342D02*
X156857792Y-100422104D01*
X156857792Y-100422104D02*
X156905411Y-100326866D01*
X156905411Y-100326866D02*
X156953030Y-100279247D01*
X156953030Y-100279247D02*
X157048268Y-100231628D01*
X157048268Y-100231628D02*
X157238744Y-100184009D01*
X157238744Y-100184009D02*
X157333982Y-100136390D01*
X157333982Y-100136390D02*
X157381601Y-100088771D01*
X157381601Y-100088771D02*
X157429220Y-99993533D01*
X157429220Y-99993533D02*
X157429220Y-99898295D01*
X157429220Y-99898295D02*
X157381601Y-99803057D01*
X157381601Y-99803057D02*
X157333982Y-99755438D01*
X157333982Y-99755438D02*
X157238744Y-99707819D01*
X157238744Y-99707819D02*
X157000649Y-99707819D01*
X157000649Y-99707819D02*
X156857792Y-99755438D01*
X156572077Y-99707819D02*
X156000649Y-99707819D01*
X156286363Y-100707819D02*
X156286363Y-99707819D01*
X127544366Y-83175116D02*
X126925319Y-83175116D01*
X126925319Y-83175116D02*
X127258652Y-83556068D01*
X127258652Y-83556068D02*
X127115795Y-83556068D01*
X127115795Y-83556068D02*
X127020557Y-83603687D01*
X127020557Y-83603687D02*
X126972938Y-83651306D01*
X126972938Y-83651306D02*
X126925319Y-83746544D01*
X126925319Y-83746544D02*
X126925319Y-83984639D01*
X126925319Y-83984639D02*
X126972938Y-84079877D01*
X126972938Y-84079877D02*
X127020557Y-84127497D01*
X127020557Y-84127497D02*
X127115795Y-84175116D01*
X127115795Y-84175116D02*
X127401509Y-84175116D01*
X127401509Y-84175116D02*
X127496747Y-84127497D01*
X127496747Y-84127497D02*
X127544366Y-84079877D01*
X126639604Y-83175116D02*
X126306271Y-84175116D01*
X126306271Y-84175116D02*
X125972938Y-83175116D01*
X125734842Y-83175116D02*
X125115795Y-83175116D01*
X125115795Y-83175116D02*
X125449128Y-83556068D01*
X125449128Y-83556068D02*
X125306271Y-83556068D01*
X125306271Y-83556068D02*
X125211033Y-83603687D01*
X125211033Y-83603687D02*
X125163414Y-83651306D01*
X125163414Y-83651306D02*
X125115795Y-83746544D01*
X125115795Y-83746544D02*
X125115795Y-83984639D01*
X125115795Y-83984639D02*
X125163414Y-84079877D01*
X125163414Y-84079877D02*
X125211033Y-84127497D01*
X125211033Y-84127497D02*
X125306271Y-84175116D01*
X125306271Y-84175116D02*
X125591985Y-84175116D01*
X125591985Y-84175116D02*
X125687223Y-84127497D01*
X125687223Y-84127497D02*
X125734842Y-84079877D01*
X159095887Y-105264009D02*
X158953030Y-105311628D01*
X158953030Y-105311628D02*
X158905411Y-105359247D01*
X158905411Y-105359247D02*
X158857792Y-105454485D01*
X158857792Y-105454485D02*
X158857792Y-105597342D01*
X158857792Y-105597342D02*
X158905411Y-105692580D01*
X158905411Y-105692580D02*
X158953030Y-105740200D01*
X158953030Y-105740200D02*
X159048268Y-105787819D01*
X159048268Y-105787819D02*
X159429220Y-105787819D01*
X159429220Y-105787819D02*
X159429220Y-104787819D01*
X159429220Y-104787819D02*
X159095887Y-104787819D01*
X159095887Y-104787819D02*
X159000649Y-104835438D01*
X159000649Y-104835438D02*
X158953030Y-104883057D01*
X158953030Y-104883057D02*
X158905411Y-104978295D01*
X158905411Y-104978295D02*
X158905411Y-105073533D01*
X158905411Y-105073533D02*
X158953030Y-105168771D01*
X158953030Y-105168771D02*
X159000649Y-105216390D01*
X159000649Y-105216390D02*
X159095887Y-105264009D01*
X159095887Y-105264009D02*
X159429220Y-105264009D01*
X157953030Y-105787819D02*
X158429220Y-105787819D01*
X158429220Y-105787819D02*
X158429220Y-104787819D01*
X157619696Y-105787819D02*
X157619696Y-104787819D01*
X157048268Y-105787819D02*
X157476839Y-105216390D01*
X157048268Y-104787819D02*
X157619696Y-105359247D01*
X155905411Y-104740200D02*
X156762553Y-106025914D01*
X155381601Y-104787819D02*
X155191125Y-104787819D01*
X155191125Y-104787819D02*
X155095887Y-104835438D01*
X155095887Y-104835438D02*
X155000649Y-104930676D01*
X155000649Y-104930676D02*
X154953030Y-105121152D01*
X154953030Y-105121152D02*
X154953030Y-105454485D01*
X154953030Y-105454485D02*
X155000649Y-105644961D01*
X155000649Y-105644961D02*
X155095887Y-105740200D01*
X155095887Y-105740200D02*
X155191125Y-105787819D01*
X155191125Y-105787819D02*
X155381601Y-105787819D01*
X155381601Y-105787819D02*
X155476839Y-105740200D01*
X155476839Y-105740200D02*
X155572077Y-105644961D01*
X155572077Y-105644961D02*
X155619696Y-105454485D01*
X155619696Y-105454485D02*
X155619696Y-105121152D01*
X155619696Y-105121152D02*
X155572077Y-104930676D01*
X155572077Y-104930676D02*
X155476839Y-104835438D01*
X155476839Y-104835438D02*
X155381601Y-104787819D01*
X154191125Y-105264009D02*
X154048268Y-105311628D01*
X154048268Y-105311628D02*
X154000649Y-105359247D01*
X154000649Y-105359247D02*
X153953030Y-105454485D01*
X153953030Y-105454485D02*
X153953030Y-105597342D01*
X153953030Y-105597342D02*
X154000649Y-105692580D01*
X154000649Y-105692580D02*
X154048268Y-105740200D01*
X154048268Y-105740200D02*
X154143506Y-105787819D01*
X154143506Y-105787819D02*
X154524458Y-105787819D01*
X154524458Y-105787819D02*
X154524458Y-104787819D01*
X154524458Y-104787819D02*
X154191125Y-104787819D01*
X154191125Y-104787819D02*
X154095887Y-104835438D01*
X154095887Y-104835438D02*
X154048268Y-104883057D01*
X154048268Y-104883057D02*
X154000649Y-104978295D01*
X154000649Y-104978295D02*
X154000649Y-105073533D01*
X154000649Y-105073533D02*
X154048268Y-105168771D01*
X154048268Y-105168771D02*
X154095887Y-105216390D01*
X154095887Y-105216390D02*
X154191125Y-105264009D01*
X154191125Y-105264009D02*
X154524458Y-105264009D01*
X153572077Y-105740200D02*
X153429220Y-105787819D01*
X153429220Y-105787819D02*
X153191125Y-105787819D01*
X153191125Y-105787819D02*
X153095887Y-105740200D01*
X153095887Y-105740200D02*
X153048268Y-105692580D01*
X153048268Y-105692580D02*
X153000649Y-105597342D01*
X153000649Y-105597342D02*
X153000649Y-105502104D01*
X153000649Y-105502104D02*
X153048268Y-105406866D01*
X153048268Y-105406866D02*
X153095887Y-105359247D01*
X153095887Y-105359247D02*
X153191125Y-105311628D01*
X153191125Y-105311628D02*
X153381601Y-105264009D01*
X153381601Y-105264009D02*
X153476839Y-105216390D01*
X153476839Y-105216390D02*
X153524458Y-105168771D01*
X153524458Y-105168771D02*
X153572077Y-105073533D01*
X153572077Y-105073533D02*
X153572077Y-104978295D01*
X153572077Y-104978295D02*
X153524458Y-104883057D01*
X153524458Y-104883057D02*
X153476839Y-104835438D01*
X153476839Y-104835438D02*
X153381601Y-104787819D01*
X153381601Y-104787819D02*
X153143506Y-104787819D01*
X153143506Y-104787819D02*
X153000649Y-104835438D01*
X152714934Y-104787819D02*
X152143506Y-104787819D01*
X152429220Y-105787819D02*
X152429220Y-104787819D01*
X156682744Y-80959438D02*
X156777982Y-80911819D01*
X156777982Y-80911819D02*
X156920839Y-80911819D01*
X156920839Y-80911819D02*
X157063696Y-80959438D01*
X157063696Y-80959438D02*
X157158934Y-81054676D01*
X157158934Y-81054676D02*
X157206553Y-81149914D01*
X157206553Y-81149914D02*
X157254172Y-81340390D01*
X157254172Y-81340390D02*
X157254172Y-81483247D01*
X157254172Y-81483247D02*
X157206553Y-81673723D01*
X157206553Y-81673723D02*
X157158934Y-81768961D01*
X157158934Y-81768961D02*
X157063696Y-81864200D01*
X157063696Y-81864200D02*
X156920839Y-81911819D01*
X156920839Y-81911819D02*
X156825601Y-81911819D01*
X156825601Y-81911819D02*
X156682744Y-81864200D01*
X156682744Y-81864200D02*
X156635125Y-81816580D01*
X156635125Y-81816580D02*
X156635125Y-81483247D01*
X156635125Y-81483247D02*
X156825601Y-81483247D01*
X156206553Y-81911819D02*
X156206553Y-80911819D01*
X156206553Y-80911819D02*
X155635125Y-81911819D01*
X155635125Y-81911819D02*
X155635125Y-80911819D01*
X155158934Y-81911819D02*
X155158934Y-80911819D01*
X155158934Y-80911819D02*
X154920839Y-80911819D01*
X154920839Y-80911819D02*
X154777982Y-80959438D01*
X154777982Y-80959438D02*
X154682744Y-81054676D01*
X154682744Y-81054676D02*
X154635125Y-81149914D01*
X154635125Y-81149914D02*
X154587506Y-81340390D01*
X154587506Y-81340390D02*
X154587506Y-81483247D01*
X154587506Y-81483247D02*
X154635125Y-81673723D01*
X154635125Y-81673723D02*
X154682744Y-81768961D01*
X154682744Y-81768961D02*
X154777982Y-81864200D01*
X154777982Y-81864200D02*
X154920839Y-81911819D01*
X154920839Y-81911819D02*
X155158934Y-81911819D01*
X127449128Y-74015116D02*
X127449128Y-73015116D01*
X127449128Y-73015116D02*
X127211033Y-73015116D01*
X127211033Y-73015116D02*
X127068176Y-73062735D01*
X127068176Y-73062735D02*
X126972938Y-73157973D01*
X126972938Y-73157973D02*
X126925319Y-73253211D01*
X126925319Y-73253211D02*
X126877700Y-73443687D01*
X126877700Y-73443687D02*
X126877700Y-73586544D01*
X126877700Y-73586544D02*
X126925319Y-73777020D01*
X126925319Y-73777020D02*
X126972938Y-73872258D01*
X126972938Y-73872258D02*
X127068176Y-73967497D01*
X127068176Y-73967497D02*
X127211033Y-74015116D01*
X127211033Y-74015116D02*
X127449128Y-74015116D01*
X125972938Y-73015116D02*
X126449128Y-73015116D01*
X126449128Y-73015116D02*
X126496747Y-73491306D01*
X126496747Y-73491306D02*
X126449128Y-73443687D01*
X126449128Y-73443687D02*
X126353890Y-73396068D01*
X126353890Y-73396068D02*
X126115795Y-73396068D01*
X126115795Y-73396068D02*
X126020557Y-73443687D01*
X126020557Y-73443687D02*
X125972938Y-73491306D01*
X125972938Y-73491306D02*
X125925319Y-73586544D01*
X125925319Y-73586544D02*
X125925319Y-73824639D01*
X125925319Y-73824639D02*
X125972938Y-73919877D01*
X125972938Y-73919877D02*
X126020557Y-73967497D01*
X126020557Y-73967497D02*
X126115795Y-74015116D01*
X126115795Y-74015116D02*
X126353890Y-74015116D01*
X126353890Y-74015116D02*
X126449128Y-73967497D01*
X126449128Y-73967497D02*
X126496747Y-73919877D01*
X124782462Y-72967497D02*
X125639604Y-74253211D01*
X124496747Y-73967497D02*
X124353890Y-74015116D01*
X124353890Y-74015116D02*
X124115795Y-74015116D01*
X124115795Y-74015116D02*
X124020557Y-73967497D01*
X124020557Y-73967497D02*
X123972938Y-73919877D01*
X123972938Y-73919877D02*
X123925319Y-73824639D01*
X123925319Y-73824639D02*
X123925319Y-73729401D01*
X123925319Y-73729401D02*
X123972938Y-73634163D01*
X123972938Y-73634163D02*
X124020557Y-73586544D01*
X124020557Y-73586544D02*
X124115795Y-73538925D01*
X124115795Y-73538925D02*
X124306271Y-73491306D01*
X124306271Y-73491306D02*
X124401509Y-73443687D01*
X124401509Y-73443687D02*
X124449128Y-73396068D01*
X124449128Y-73396068D02*
X124496747Y-73300830D01*
X124496747Y-73300830D02*
X124496747Y-73205592D01*
X124496747Y-73205592D02*
X124449128Y-73110354D01*
X124449128Y-73110354D02*
X124401509Y-73062735D01*
X124401509Y-73062735D02*
X124306271Y-73015116D01*
X124306271Y-73015116D02*
X124068176Y-73015116D01*
X124068176Y-73015116D02*
X123925319Y-73062735D01*
X122925319Y-73919877D02*
X122972938Y-73967497D01*
X122972938Y-73967497D02*
X123115795Y-74015116D01*
X123115795Y-74015116D02*
X123211033Y-74015116D01*
X123211033Y-74015116D02*
X123353890Y-73967497D01*
X123353890Y-73967497D02*
X123449128Y-73872258D01*
X123449128Y-73872258D02*
X123496747Y-73777020D01*
X123496747Y-73777020D02*
X123544366Y-73586544D01*
X123544366Y-73586544D02*
X123544366Y-73443687D01*
X123544366Y-73443687D02*
X123496747Y-73253211D01*
X123496747Y-73253211D02*
X123449128Y-73157973D01*
X123449128Y-73157973D02*
X123353890Y-73062735D01*
X123353890Y-73062735D02*
X123211033Y-73015116D01*
X123211033Y-73015116D02*
X123115795Y-73015116D01*
X123115795Y-73015116D02*
X122972938Y-73062735D01*
X122972938Y-73062735D02*
X122925319Y-73110354D01*
X122496747Y-74015116D02*
X122496747Y-73015116D01*
X121925319Y-74015116D02*
X122353890Y-73443687D01*
X121925319Y-73015116D02*
X122496747Y-73586544D01*
X159524458Y-89547819D02*
X158905411Y-89547819D01*
X158905411Y-89547819D02*
X159238744Y-89928771D01*
X159238744Y-89928771D02*
X159095887Y-89928771D01*
X159095887Y-89928771D02*
X159000649Y-89976390D01*
X159000649Y-89976390D02*
X158953030Y-90024009D01*
X158953030Y-90024009D02*
X158905411Y-90119247D01*
X158905411Y-90119247D02*
X158905411Y-90357342D01*
X158905411Y-90357342D02*
X158953030Y-90452580D01*
X158953030Y-90452580D02*
X159000649Y-90500200D01*
X159000649Y-90500200D02*
X159095887Y-90547819D01*
X159095887Y-90547819D02*
X159381601Y-90547819D01*
X159381601Y-90547819D02*
X159476839Y-90500200D01*
X159476839Y-90500200D02*
X159524458Y-90452580D01*
X158619696Y-89547819D02*
X158286363Y-90547819D01*
X158286363Y-90547819D02*
X157953030Y-89547819D01*
X157714934Y-89547819D02*
X157095887Y-89547819D01*
X157095887Y-89547819D02*
X157429220Y-89928771D01*
X157429220Y-89928771D02*
X157286363Y-89928771D01*
X157286363Y-89928771D02*
X157191125Y-89976390D01*
X157191125Y-89976390D02*
X157143506Y-90024009D01*
X157143506Y-90024009D02*
X157095887Y-90119247D01*
X157095887Y-90119247D02*
X157095887Y-90357342D01*
X157095887Y-90357342D02*
X157143506Y-90452580D01*
X157143506Y-90452580D02*
X157191125Y-90500200D01*
X157191125Y-90500200D02*
X157286363Y-90547819D01*
X157286363Y-90547819D02*
X157572077Y-90547819D01*
X157572077Y-90547819D02*
X157667315Y-90500200D01*
X157667315Y-90500200D02*
X157714934Y-90452580D01*
X158857792Y-108581819D02*
X159191125Y-108105628D01*
X159429220Y-108581819D02*
X159429220Y-107581819D01*
X159429220Y-107581819D02*
X159048268Y-107581819D01*
X159048268Y-107581819D02*
X158953030Y-107629438D01*
X158953030Y-107629438D02*
X158905411Y-107677057D01*
X158905411Y-107677057D02*
X158857792Y-107772295D01*
X158857792Y-107772295D02*
X158857792Y-107915152D01*
X158857792Y-107915152D02*
X158905411Y-108010390D01*
X158905411Y-108010390D02*
X158953030Y-108058009D01*
X158953030Y-108058009D02*
X159048268Y-108105628D01*
X159048268Y-108105628D02*
X159429220Y-108105628D01*
X158429220Y-108058009D02*
X158095887Y-108058009D01*
X157953030Y-108581819D02*
X158429220Y-108581819D01*
X158429220Y-108581819D02*
X158429220Y-107581819D01*
X158429220Y-107581819D02*
X157953030Y-107581819D01*
X157524458Y-108581819D02*
X157524458Y-107581819D01*
X157524458Y-107581819D02*
X157286363Y-107581819D01*
X157286363Y-107581819D02*
X157143506Y-107629438D01*
X157143506Y-107629438D02*
X157048268Y-107724676D01*
X157048268Y-107724676D02*
X157000649Y-107819914D01*
X157000649Y-107819914D02*
X156953030Y-108010390D01*
X156953030Y-108010390D02*
X156953030Y-108153247D01*
X156953030Y-108153247D02*
X157000649Y-108343723D01*
X157000649Y-108343723D02*
X157048268Y-108438961D01*
X157048268Y-108438961D02*
X157143506Y-108534200D01*
X157143506Y-108534200D02*
X157286363Y-108581819D01*
X157286363Y-108581819D02*
X157524458Y-108581819D01*
X155810173Y-107534200D02*
X156667315Y-108819914D01*
X154905411Y-108486580D02*
X154953030Y-108534200D01*
X154953030Y-108534200D02*
X155095887Y-108581819D01*
X155095887Y-108581819D02*
X155191125Y-108581819D01*
X155191125Y-108581819D02*
X155333982Y-108534200D01*
X155333982Y-108534200D02*
X155429220Y-108438961D01*
X155429220Y-108438961D02*
X155476839Y-108343723D01*
X155476839Y-108343723D02*
X155524458Y-108153247D01*
X155524458Y-108153247D02*
X155524458Y-108010390D01*
X155524458Y-108010390D02*
X155476839Y-107819914D01*
X155476839Y-107819914D02*
X155429220Y-107724676D01*
X155429220Y-107724676D02*
X155333982Y-107629438D01*
X155333982Y-107629438D02*
X155191125Y-107581819D01*
X155191125Y-107581819D02*
X155095887Y-107581819D01*
X155095887Y-107581819D02*
X154953030Y-107629438D01*
X154953030Y-107629438D02*
X154905411Y-107677057D01*
X154619696Y-107581819D02*
X154048268Y-107581819D01*
X154333982Y-108581819D02*
X154333982Y-107581819D01*
X153143506Y-108581819D02*
X153476839Y-108105628D01*
X153714934Y-108581819D02*
X153714934Y-107581819D01*
X153714934Y-107581819D02*
X153333982Y-107581819D01*
X153333982Y-107581819D02*
X153238744Y-107629438D01*
X153238744Y-107629438D02*
X153191125Y-107677057D01*
X153191125Y-107677057D02*
X153143506Y-107772295D01*
X153143506Y-107772295D02*
X153143506Y-107915152D01*
X153143506Y-107915152D02*
X153191125Y-108010390D01*
X153191125Y-108010390D02*
X153238744Y-108058009D01*
X153238744Y-108058009D02*
X153333982Y-108105628D01*
X153333982Y-108105628D02*
X153714934Y-108105628D01*
X152238744Y-108581819D02*
X152714934Y-108581819D01*
X152714934Y-108581819D02*
X152714934Y-107581819D01*
X127449128Y-71475116D02*
X127449128Y-70475116D01*
X127449128Y-70475116D02*
X127211033Y-70475116D01*
X127211033Y-70475116D02*
X127068176Y-70522735D01*
X127068176Y-70522735D02*
X126972938Y-70617973D01*
X126972938Y-70617973D02*
X126925319Y-70713211D01*
X126925319Y-70713211D02*
X126877700Y-70903687D01*
X126877700Y-70903687D02*
X126877700Y-71046544D01*
X126877700Y-71046544D02*
X126925319Y-71237020D01*
X126925319Y-71237020D02*
X126972938Y-71332258D01*
X126972938Y-71332258D02*
X127068176Y-71427497D01*
X127068176Y-71427497D02*
X127211033Y-71475116D01*
X127211033Y-71475116D02*
X127449128Y-71475116D01*
X126258652Y-70475116D02*
X126163414Y-70475116D01*
X126163414Y-70475116D02*
X126068176Y-70522735D01*
X126068176Y-70522735D02*
X126020557Y-70570354D01*
X126020557Y-70570354D02*
X125972938Y-70665592D01*
X125972938Y-70665592D02*
X125925319Y-70856068D01*
X125925319Y-70856068D02*
X125925319Y-71094163D01*
X125925319Y-71094163D02*
X125972938Y-71284639D01*
X125972938Y-71284639D02*
X126020557Y-71379877D01*
X126020557Y-71379877D02*
X126068176Y-71427497D01*
X126068176Y-71427497D02*
X126163414Y-71475116D01*
X126163414Y-71475116D02*
X126258652Y-71475116D01*
X126258652Y-71475116D02*
X126353890Y-71427497D01*
X126353890Y-71427497D02*
X126401509Y-71379877D01*
X126401509Y-71379877D02*
X126449128Y-71284639D01*
X126449128Y-71284639D02*
X126496747Y-71094163D01*
X126496747Y-71094163D02*
X126496747Y-70856068D01*
X126496747Y-70856068D02*
X126449128Y-70665592D01*
X126449128Y-70665592D02*
X126401509Y-70570354D01*
X126401509Y-70570354D02*
X126353890Y-70522735D01*
X126353890Y-70522735D02*
X126258652Y-70475116D01*
X159968458Y-74291819D02*
X159968458Y-73291819D01*
X159968458Y-73291819D02*
X159730363Y-73291819D01*
X159730363Y-73291819D02*
X159587506Y-73339438D01*
X159587506Y-73339438D02*
X159492268Y-73434676D01*
X159492268Y-73434676D02*
X159444649Y-73529914D01*
X159444649Y-73529914D02*
X159397030Y-73720390D01*
X159397030Y-73720390D02*
X159397030Y-73863247D01*
X159397030Y-73863247D02*
X159444649Y-74053723D01*
X159444649Y-74053723D02*
X159492268Y-74148961D01*
X159492268Y-74148961D02*
X159587506Y-74244200D01*
X159587506Y-74244200D02*
X159730363Y-74291819D01*
X159730363Y-74291819D02*
X159968458Y-74291819D01*
X159016077Y-73387057D02*
X158968458Y-73339438D01*
X158968458Y-73339438D02*
X158873220Y-73291819D01*
X158873220Y-73291819D02*
X158635125Y-73291819D01*
X158635125Y-73291819D02*
X158539887Y-73339438D01*
X158539887Y-73339438D02*
X158492268Y-73387057D01*
X158492268Y-73387057D02*
X158444649Y-73482295D01*
X158444649Y-73482295D02*
X158444649Y-73577533D01*
X158444649Y-73577533D02*
X158492268Y-73720390D01*
X158492268Y-73720390D02*
X159063696Y-74291819D01*
X159063696Y-74291819D02*
X158444649Y-74291819D01*
X157301792Y-73244200D02*
X158158934Y-74529914D01*
X157016077Y-74244200D02*
X156873220Y-74291819D01*
X156873220Y-74291819D02*
X156635125Y-74291819D01*
X156635125Y-74291819D02*
X156539887Y-74244200D01*
X156539887Y-74244200D02*
X156492268Y-74196580D01*
X156492268Y-74196580D02*
X156444649Y-74101342D01*
X156444649Y-74101342D02*
X156444649Y-74006104D01*
X156444649Y-74006104D02*
X156492268Y-73910866D01*
X156492268Y-73910866D02*
X156539887Y-73863247D01*
X156539887Y-73863247D02*
X156635125Y-73815628D01*
X156635125Y-73815628D02*
X156825601Y-73768009D01*
X156825601Y-73768009D02*
X156920839Y-73720390D01*
X156920839Y-73720390D02*
X156968458Y-73672771D01*
X156968458Y-73672771D02*
X157016077Y-73577533D01*
X157016077Y-73577533D02*
X157016077Y-73482295D01*
X157016077Y-73482295D02*
X156968458Y-73387057D01*
X156968458Y-73387057D02*
X156920839Y-73339438D01*
X156920839Y-73339438D02*
X156825601Y-73291819D01*
X156825601Y-73291819D02*
X156587506Y-73291819D01*
X156587506Y-73291819D02*
X156444649Y-73339438D01*
X156016077Y-74291819D02*
X156016077Y-73291819D01*
X156016077Y-73291819D02*
X155777982Y-73291819D01*
X155777982Y-73291819D02*
X155635125Y-73339438D01*
X155635125Y-73339438D02*
X155539887Y-73434676D01*
X155539887Y-73434676D02*
X155492268Y-73529914D01*
X155492268Y-73529914D02*
X155444649Y-73720390D01*
X155444649Y-73720390D02*
X155444649Y-73863247D01*
X155444649Y-73863247D02*
X155492268Y-74053723D01*
X155492268Y-74053723D02*
X155539887Y-74148961D01*
X155539887Y-74148961D02*
X155635125Y-74244200D01*
X155635125Y-74244200D02*
X155777982Y-74291819D01*
X155777982Y-74291819D02*
X156016077Y-74291819D01*
X155063696Y-74006104D02*
X154587506Y-74006104D01*
X155158934Y-74291819D02*
X154825601Y-73291819D01*
X154825601Y-73291819D02*
X154492268Y-74291819D01*
X158857792Y-95532580D02*
X158905411Y-95580200D01*
X158905411Y-95580200D02*
X159048268Y-95627819D01*
X159048268Y-95627819D02*
X159143506Y-95627819D01*
X159143506Y-95627819D02*
X159286363Y-95580200D01*
X159286363Y-95580200D02*
X159381601Y-95484961D01*
X159381601Y-95484961D02*
X159429220Y-95389723D01*
X159429220Y-95389723D02*
X159476839Y-95199247D01*
X159476839Y-95199247D02*
X159476839Y-95056390D01*
X159476839Y-95056390D02*
X159429220Y-94865914D01*
X159429220Y-94865914D02*
X159381601Y-94770676D01*
X159381601Y-94770676D02*
X159286363Y-94675438D01*
X159286363Y-94675438D02*
X159143506Y-94627819D01*
X159143506Y-94627819D02*
X159048268Y-94627819D01*
X159048268Y-94627819D02*
X158905411Y-94675438D01*
X158905411Y-94675438D02*
X158857792Y-94723057D01*
X157953030Y-95627819D02*
X158429220Y-95627819D01*
X158429220Y-95627819D02*
X158429220Y-94627819D01*
X157429220Y-94627819D02*
X157238744Y-94627819D01*
X157238744Y-94627819D02*
X157143506Y-94675438D01*
X157143506Y-94675438D02*
X157048268Y-94770676D01*
X157048268Y-94770676D02*
X157000649Y-94961152D01*
X157000649Y-94961152D02*
X157000649Y-95294485D01*
X157000649Y-95294485D02*
X157048268Y-95484961D01*
X157048268Y-95484961D02*
X157143506Y-95580200D01*
X157143506Y-95580200D02*
X157238744Y-95627819D01*
X157238744Y-95627819D02*
X157429220Y-95627819D01*
X157429220Y-95627819D02*
X157524458Y-95580200D01*
X157524458Y-95580200D02*
X157619696Y-95484961D01*
X157619696Y-95484961D02*
X157667315Y-95294485D01*
X157667315Y-95294485D02*
X157667315Y-94961152D01*
X157667315Y-94961152D02*
X157619696Y-94770676D01*
X157619696Y-94770676D02*
X157524458Y-94675438D01*
X157524458Y-94675438D02*
X157429220Y-94627819D01*
X156619696Y-95580200D02*
X156476839Y-95627819D01*
X156476839Y-95627819D02*
X156238744Y-95627819D01*
X156238744Y-95627819D02*
X156143506Y-95580200D01*
X156143506Y-95580200D02*
X156095887Y-95532580D01*
X156095887Y-95532580D02*
X156048268Y-95437342D01*
X156048268Y-95437342D02*
X156048268Y-95342104D01*
X156048268Y-95342104D02*
X156095887Y-95246866D01*
X156095887Y-95246866D02*
X156143506Y-95199247D01*
X156143506Y-95199247D02*
X156238744Y-95151628D01*
X156238744Y-95151628D02*
X156429220Y-95104009D01*
X156429220Y-95104009D02*
X156524458Y-95056390D01*
X156524458Y-95056390D02*
X156572077Y-95008771D01*
X156572077Y-95008771D02*
X156619696Y-94913533D01*
X156619696Y-94913533D02*
X156619696Y-94818295D01*
X156619696Y-94818295D02*
X156572077Y-94723057D01*
X156572077Y-94723057D02*
X156524458Y-94675438D01*
X156524458Y-94675438D02*
X156429220Y-94627819D01*
X156429220Y-94627819D02*
X156191125Y-94627819D01*
X156191125Y-94627819D02*
X156048268Y-94675438D01*
X155619696Y-95104009D02*
X155286363Y-95104009D01*
X155143506Y-95627819D02*
X155619696Y-95627819D01*
X155619696Y-95627819D02*
X155619696Y-94627819D01*
X155619696Y-94627819D02*
X155143506Y-94627819D01*
M02*
