%TF.GenerationSoftware,KiCad,Pcbnew,7.0.9*%
%TF.CreationDate,2023-11-09T08:26:50-08:00*%
%TF.ProjectId,RatGDO-OpenSource-D1Mini-ESP8266-Tubez,52617447-444f-42d4-9f70-656e536f7572,2.5.0*%
%TF.SameCoordinates,Original*%
%TF.FileFunction,Copper,L1,Top*%
%TF.FilePolarity,Positive*%
%FSLAX46Y46*%
G04 Gerber Fmt 4.6, Leading zero omitted, Abs format (unit mm)*
G04 Created by KiCad (PCBNEW 7.0.9) date 2023-11-09 08:26:50*
%MOMM*%
%LPD*%
G01*
G04 APERTURE LIST*
G04 Aperture macros list*
%AMRoundRect*
0 Rectangle with rounded corners*
0 $1 Rounding radius*
0 $2 $3 $4 $5 $6 $7 $8 $9 X,Y pos of 4 corners*
0 Add a 4 corners polygon primitive as box body*
4,1,4,$2,$3,$4,$5,$6,$7,$8,$9,$2,$3,0*
0 Add four circle primitives for the rounded corners*
1,1,$1+$1,$2,$3*
1,1,$1+$1,$4,$5*
1,1,$1+$1,$6,$7*
1,1,$1+$1,$8,$9*
0 Add four rect primitives between the rounded corners*
20,1,$1+$1,$2,$3,$4,$5,0*
20,1,$1+$1,$4,$5,$6,$7,0*
20,1,$1+$1,$6,$7,$8,$9,0*
20,1,$1+$1,$8,$9,$2,$3,0*%
G04 Aperture macros list end*
%TA.AperFunction,SMDPad,CuDef*%
%ADD10RoundRect,0.250000X-0.350000X-0.450000X0.350000X-0.450000X0.350000X0.450000X-0.350000X0.450000X0*%
%TD*%
%TA.AperFunction,SMDPad,CuDef*%
%ADD11R,1.900000X0.800000*%
%TD*%
%TA.AperFunction,SMDPad,CuDef*%
%ADD12RoundRect,0.250000X0.250000X0.250000X-0.250000X0.250000X-0.250000X-0.250000X0.250000X-0.250000X0*%
%TD*%
%TA.AperFunction,SMDPad,CuDef*%
%ADD13RoundRect,0.225000X0.225000X0.375000X-0.225000X0.375000X-0.225000X-0.375000X0.225000X-0.375000X0*%
%TD*%
%TA.AperFunction,ComponentPad*%
%ADD14R,2.000000X2.000000*%
%TD*%
%TA.AperFunction,ComponentPad*%
%ADD15O,2.000000X1.600000*%
%TD*%
%TA.AperFunction,SMDPad,CuDef*%
%ADD16RoundRect,0.250000X0.475000X-0.337500X0.475000X0.337500X-0.475000X0.337500X-0.475000X-0.337500X0*%
%TD*%
%TA.AperFunction,ComponentPad*%
%ADD17R,1.500000X2.000000*%
%TD*%
%TA.AperFunction,ComponentPad*%
%ADD18O,1.500000X2.000000*%
%TD*%
%TA.AperFunction,SMDPad,CuDef*%
%ADD19RoundRect,0.250000X0.350000X0.450000X-0.350000X0.450000X-0.350000X-0.450000X0.350000X-0.450000X0*%
%TD*%
%TA.AperFunction,ComponentPad*%
%ADD20R,2.600000X2.600000*%
%TD*%
%TA.AperFunction,ComponentPad*%
%ADD21C,2.600000*%
%TD*%
%TA.AperFunction,SMDPad,CuDef*%
%ADD22RoundRect,0.250000X-0.475000X0.337500X-0.475000X-0.337500X0.475000X-0.337500X0.475000X0.337500X0*%
%TD*%
%TA.AperFunction,ComponentPad*%
%ADD23R,2.300000X1.700000*%
%TD*%
%TA.AperFunction,ComponentPad*%
%ADD24O,2.300000X1.700000*%
%TD*%
%TA.AperFunction,ViaPad*%
%ADD25C,0.800000*%
%TD*%
%TA.AperFunction,Conductor*%
%ADD26C,0.250000*%
%TD*%
G04 APERTURE END LIST*
D10*
%TO.P,R3,1*%
%TO.N,/ESP_TX*%
X157496000Y-71215222D03*
%TO.P,R3,2*%
%TO.N,GND*%
X159496000Y-71215222D03*
%TD*%
D11*
%TO.P,Q3,1,G*%
%TO.N,Net-(Q3-G)*%
X124412000Y-71562000D03*
%TO.P,Q3,2,S*%
%TO.N,GND*%
X124412000Y-69662000D03*
%TO.P,Q3,3,D*%
%TO.N,STS_DOOR*%
X121412000Y-70612000D03*
%TD*%
D12*
%TO.P,D1,1,K*%
%TO.N,DC_OPEN*%
X153416000Y-100584000D03*
%TO.P,D1,2,A*%
%TO.N,Net-(D1-A)*%
X150916000Y-100584000D03*
%TD*%
D13*
%TO.P,D4,1,K*%
%TO.N,Net-(D4-K)*%
X135254000Y-118618000D03*
%TO.P,D4,2,A*%
%TO.N,+12V*%
X131954000Y-118618000D03*
%TD*%
D14*
%TO.P,U1,1,~{RST}*%
%TO.N,unconnected-(U1-~{RST}-Pad1)*%
X129547500Y-66040000D03*
D15*
%TO.P,U1,2,A0*%
%TO.N,unconnected-(U1-A0-Pad2)*%
X129547500Y-68580000D03*
%TO.P,U1,3,D0*%
%TO.N,Net-(Q3-G)*%
X129547500Y-71120000D03*
%TO.P,U1,4,SCK/D5*%
%TO.N,Net-(D1-A)*%
X129547500Y-73660000D03*
%TO.P,U1,5,MISO/D6*%
%TO.N,Net-(D2-A)*%
X129547500Y-76200000D03*
%TO.P,U1,6,MOSI/D7*%
%TO.N,Net-(U1-MOSI{slash}D7)*%
X129547500Y-78740000D03*
%TO.P,U1,7,CS/D8*%
%TO.N,Net-(Q4-G)*%
X129547500Y-81280000D03*
%TO.P,U1,8,3V3*%
%TO.N,+3V3*%
X129547500Y-83820000D03*
%TO.P,U1,9,5V*%
%TO.N,+5V*%
X152407500Y-83820000D03*
%TO.P,U1,10,GND*%
%TO.N,GND*%
X152407500Y-81280000D03*
%TO.P,U1,11,D4*%
%TO.N,unconnected-(U1-D4-Pad11)*%
X152407500Y-78740000D03*
%TO.P,U1,12,D3*%
%TO.N,Net-(D3-A)*%
X152407500Y-76200000D03*
%TO.P,U1,13,SDA/D2*%
%TO.N,/ESP_RX*%
X152407500Y-73660000D03*
%TO.P,U1,14,SCL/D1*%
%TO.N,/ESP_TX*%
X152407500Y-71120000D03*
%TO.P,U1,15,RX*%
%TO.N,unconnected-(U1-RX-Pad15)*%
X152407500Y-68580000D03*
%TO.P,U1,16,TX*%
%TO.N,unconnected-(U1-TX-Pad16)*%
X152407500Y-66040000D03*
%TD*%
D16*
%TO.P,C1,1*%
%TO.N,Net-(D4-K)*%
X149606000Y-118661000D03*
%TO.P,C1,2*%
%TO.N,GND*%
X149606000Y-116586000D03*
%TD*%
D11*
%TO.P,Q4,1,G*%
%TO.N,Net-(Q4-G)*%
X124690000Y-87630000D03*
%TO.P,Q4,2,S*%
%TO.N,GND*%
X124690000Y-85730000D03*
%TO.P,Q4,3,D*%
%TO.N,STS_OBST*%
X121690000Y-86680000D03*
%TD*%
D12*
%TO.P,D2,1,K*%
%TO.N,DC_CLOSE*%
X153416000Y-98044000D03*
%TO.P,D2,2,A*%
%TO.N,Net-(D2-A)*%
X150916000Y-98044000D03*
%TD*%
D11*
%TO.P,Q2,1,G*%
%TO.N,/ESP_TX*%
X157509257Y-73632843D03*
%TO.P,Q2,2,S*%
%TO.N,GND*%
X157509257Y-75532843D03*
%TO.P,Q2,3,D*%
%TO.N,RED{slash}CTRL*%
X160509257Y-74582843D03*
%TD*%
D17*
%TO.P,U2,1,IN*%
%TO.N,Net-(D4-K)*%
X154954700Y-118803700D03*
D18*
%TO.P,U2,2,GND*%
%TO.N,GND*%
X157494700Y-118803700D03*
%TO.P,U2,3,OUT*%
%TO.N,+5V*%
X160034700Y-118803700D03*
%TD*%
D12*
%TO.P,D3,1,K*%
%TO.N,DC_LIGHT*%
X153416000Y-95504000D03*
%TO.P,D3,2,A*%
%TO.N,Net-(D3-A)*%
X150916000Y-95504000D03*
%TD*%
D19*
%TO.P,R5,1*%
%TO.N,Net-(Q4-G)*%
X124714000Y-90170000D03*
%TO.P,R5,2*%
%TO.N,GND*%
X122714000Y-90170000D03*
%TD*%
D11*
%TO.P,Q1,1,G*%
%TO.N,RED{slash}CTRL*%
X160509257Y-80709515D03*
%TO.P,Q1,2,S*%
%TO.N,GND*%
X160509257Y-78809515D03*
%TO.P,Q1,3,D*%
%TO.N,/ESP_RX*%
X157509257Y-79759515D03*
%TD*%
D20*
%TO.P,J1,1,WHT/GND*%
%TO.N,GND*%
X124714000Y-97282000D03*
D21*
%TO.P,J1,2,RED/CTRL*%
%TO.N,RED{slash}CTRL*%
X124714000Y-102282000D03*
%TO.P,J1,3,BLK/OBST*%
%TO.N,BLK{slash}OBST*%
X124714000Y-107282000D03*
%TD*%
D19*
%TO.P,R4,1*%
%TO.N,Net-(Q3-G)*%
X124460000Y-74931000D03*
%TO.P,R4,2*%
%TO.N,GND*%
X122460000Y-74931000D03*
%TD*%
%TO.P,R2,1*%
%TO.N,Net-(U1-MOSI{slash}D7)*%
X124460000Y-78741000D03*
%TO.P,R2,2*%
%TO.N,GND*%
X122460000Y-78741000D03*
%TD*%
D22*
%TO.P,C2,1*%
%TO.N,+5V*%
X149606000Y-112268000D03*
%TO.P,C2,2*%
%TO.N,GND*%
X149606000Y-114343000D03*
%TD*%
D10*
%TO.P,R1,1*%
%TO.N,BLK{slash}OBST*%
X122460000Y-82551000D03*
%TO.P,R1,2*%
%TO.N,Net-(U1-MOSI{slash}D7)*%
X124460000Y-82551000D03*
%TD*%
D23*
%TO.P,J2,1,WHT/GND*%
%TO.N,GND*%
X161798000Y-109220000D03*
D24*
%TO.P,J2,2,RED/CTRL*%
%TO.N,RED{slash}CTRL*%
X161798000Y-106680000D03*
%TO.P,J2,3,BLK/OBST*%
%TO.N,BLK{slash}OBST*%
X161798000Y-104140000D03*
%TO.P,J2,4,STS_DOOR*%
%TO.N,STS_DOOR*%
X161798000Y-101600000D03*
%TO.P,J2,5,STS_OBST*%
%TO.N,STS_OBST*%
X161798000Y-99060000D03*
%TO.P,J2,6,DC_OPEN*%
%TO.N,DC_OPEN*%
X161798000Y-96520000D03*
%TO.P,J2,7,DC_CLOSE*%
%TO.N,DC_CLOSE*%
X161798000Y-93980000D03*
%TO.P,J2,8,DC_LIGHT*%
%TO.N,DC_LIGHT*%
X161798000Y-91440000D03*
%TO.P,J2,9,3V3*%
%TO.N,+3V3*%
X161798000Y-88900000D03*
%TO.P,J2,10,5V*%
%TO.N,+5V*%
X161798000Y-86360000D03*
%TO.P,J2,11,12V*%
%TO.N,+12V*%
X161798000Y-83820000D03*
%TD*%
D20*
%TO.P,J3,1,GND*%
%TO.N,GND*%
X124714000Y-113538000D03*
D21*
%TO.P,J3,2,6-30V*%
%TO.N,+12V*%
X124714000Y-118538000D03*
%TD*%
D25*
%TO.N,Net-(D2-A)*%
X146050000Y-98044000D03*
%TO.N,STS_DOOR*%
X122174000Y-72644000D03*
%TD*%
D26*
%TO.N,/ESP_RX*%
X155448000Y-78232000D02*
X156975515Y-79759515D01*
X153924000Y-73914000D02*
X155448000Y-75438000D01*
X155448000Y-75438000D02*
X155448000Y-78232000D01*
X152439315Y-73914000D02*
X153924000Y-73914000D01*
%TO.N,/ESP_TX*%
X152407500Y-71240000D02*
X157701395Y-71240000D01*
X157496000Y-71215222D02*
X157496000Y-73619586D01*
%TO.N,Net-(U1-MOSI{slash}D7)*%
X124222500Y-78860000D02*
X129547500Y-78860000D01*
X124460000Y-78741000D02*
X124460000Y-82551000D01*
%TO.N,DC_OPEN*%
X153416000Y-100584000D02*
X156464000Y-100584000D01*
X156464000Y-100584000D02*
X160528000Y-96520000D01*
X160528000Y-96520000D02*
X161798000Y-96520000D01*
%TO.N,Net-(D1-A)*%
X150916000Y-100584000D02*
X143764000Y-100584000D01*
X141732000Y-98552000D02*
X141732000Y-75946000D01*
X141732000Y-75946000D02*
X139446000Y-73660000D01*
X139446000Y-73660000D02*
X129547500Y-73660000D01*
X143764000Y-100584000D02*
X141732000Y-98552000D01*
%TO.N,DC_CLOSE*%
X156464000Y-98044000D02*
X160528000Y-93980000D01*
X153416000Y-98044000D02*
X156464000Y-98044000D01*
X160528000Y-93980000D02*
X161798000Y-93980000D01*
%TO.N,Net-(D2-A)*%
X146050000Y-98044000D02*
X150916000Y-98044000D01*
%TO.N,DC_LIGHT*%
X153416000Y-95504000D02*
X156464000Y-95504000D01*
X156464000Y-95504000D02*
X160528000Y-91440000D01*
X160528000Y-91440000D02*
X161798000Y-91440000D01*
%TO.N,+5V*%
X157226000Y-112268000D02*
X160034700Y-115076700D01*
X160034700Y-115076700D02*
X160034700Y-119333900D01*
X149606000Y-112268000D02*
X157226000Y-112268000D01*
%TO.N,Net-(D3-A)*%
X150916000Y-95504000D02*
X149860000Y-95504000D01*
X148336000Y-77724000D02*
X149860000Y-76200000D01*
X148336000Y-93980000D02*
X148336000Y-77724000D01*
X149860000Y-95504000D02*
X148336000Y-93980000D01*
X149860000Y-76200000D02*
X152407500Y-76200000D01*
%TO.N,BLK{slash}OBST*%
X121412000Y-82550000D02*
X120142000Y-83820000D01*
X120142000Y-104394000D02*
X123030000Y-107282000D01*
X120142000Y-83820000D02*
X120142000Y-104394000D01*
X122277500Y-82550000D02*
X121412000Y-82550000D01*
X123030000Y-107282000D02*
X123792000Y-107282000D01*
%TO.N,RED{slash}CTRL*%
X163068000Y-106680000D02*
X161798000Y-106680000D01*
X164338000Y-76962000D02*
X164338000Y-83312000D01*
X161735515Y-80709515D02*
X164338000Y-83312000D01*
X164338000Y-83312000D02*
X164338000Y-105410000D01*
X161958843Y-74582843D02*
X164338000Y-76962000D01*
X161798000Y-106680000D02*
X129112000Y-106680000D01*
X159946757Y-74582843D02*
X161958843Y-74582843D01*
X159946757Y-80709515D02*
X161735515Y-80709515D01*
X164338000Y-105410000D02*
X163068000Y-106680000D01*
X129112000Y-106680000D02*
X124714000Y-102282000D01*
%TO.N,STS_DOOR*%
X122174000Y-72644000D02*
X122174000Y-70883500D01*
%TO.N,STS_OBST*%
X157226000Y-102362000D02*
X160528000Y-99060000D01*
X122428000Y-93218000D02*
X126492000Y-93218000D01*
X121600000Y-86680000D02*
X121158000Y-87122000D01*
X126492000Y-93218000D02*
X135636000Y-102362000D01*
X160528000Y-99060000D02*
X161798000Y-99060000D01*
X121158000Y-91948000D02*
X122428000Y-93218000D01*
X121158000Y-87122000D02*
X121158000Y-91948000D01*
X135636000Y-102362000D02*
X157226000Y-102362000D01*
%TO.N,Net-(Q3-G)*%
X124127500Y-71562000D02*
X129105500Y-71562000D01*
X124412000Y-71562000D02*
X124412000Y-74882000D01*
X129032500Y-71755000D02*
X129547500Y-71240000D01*
%TO.N,Net-(Q4-G)*%
X127000000Y-85725000D02*
X125095000Y-87630000D01*
X128524000Y-81280000D02*
X127000000Y-82804000D01*
X129547500Y-81280000D02*
X128524000Y-81280000D01*
X124690000Y-87630000D02*
X124690000Y-90146000D01*
X127000000Y-82804000D02*
X127000000Y-85725000D01*
%TO.N,+12V*%
X124794000Y-118618000D02*
X131700000Y-118618000D01*
%TO.N,Net-(D4-K)*%
X135278600Y-118593400D02*
X154954700Y-118593400D01*
%TD*%
%TA.AperFunction,Conductor*%
%TO.N,/ESP_TX*%
G36*
X157623203Y-72836270D02*
G01*
X157624496Y-72837807D01*
X157897061Y-73224871D01*
X157899023Y-73233608D01*
X157895847Y-73239801D01*
X157517471Y-73625470D01*
X157509231Y-73628975D01*
X157500925Y-73625628D01*
X157500904Y-73625607D01*
X157109466Y-73239646D01*
X157105981Y-73231397D01*
X157107965Y-73224797D01*
X157367524Y-72838023D01*
X157374979Y-72833063D01*
X157377239Y-72832843D01*
X157614930Y-72832843D01*
X157623203Y-72836270D01*
G37*
%TD.AperFunction*%
%TD*%
%TA.AperFunction,Conductor*%
%TO.N,BLK{slash}OBST*%
G36*
X121889290Y-82008641D02*
G01*
X122452707Y-82542710D01*
X122456354Y-82550888D01*
X122453614Y-82558730D01*
X121940567Y-83169039D01*
X121932620Y-83173166D01*
X121924306Y-83170649D01*
X121393163Y-82746071D01*
X121392679Y-82745638D01*
X121225087Y-82578046D01*
X121221660Y-82569773D01*
X121225087Y-82561500D01*
X121225748Y-82560888D01*
X121873648Y-82008229D01*
X121882166Y-82005469D01*
X121889290Y-82008641D01*
G37*
%TD.AperFunction*%
%TD*%
%TA.AperFunction,Conductor*%
%TO.N,Net-(D2-A)*%
G36*
X146230696Y-97684890D02*
G01*
X146842437Y-97916141D01*
X146848964Y-97922272D01*
X146850000Y-97927085D01*
X146850000Y-98160914D01*
X146846573Y-98169187D01*
X146842437Y-98171858D01*
X146213655Y-98409551D01*
X146204705Y-98409271D01*
X146198719Y-98403109D01*
X146102306Y-98171858D01*
X146050875Y-98048499D01*
X146050855Y-98039550D01*
X146198719Y-97684889D01*
X146205066Y-97678572D01*
X146213654Y-97678448D01*
X146230696Y-97684890D01*
G37*
%TD.AperFunction*%
%TD*%
%TA.AperFunction,Conductor*%
%TO.N,Net-(U1-MOSI{slash}D7)*%
G36*
X125049020Y-78202678D02*
G01*
X125655986Y-78731503D01*
X125659972Y-78739520D01*
X125660000Y-78740323D01*
X125660000Y-78978224D01*
X125656573Y-78986497D01*
X125654123Y-78988372D01*
X124958647Y-79387417D01*
X124949765Y-79388562D01*
X124943478Y-79384308D01*
X124645297Y-78988372D01*
X124465320Y-78749392D01*
X124463081Y-78740723D01*
X124466667Y-78733817D01*
X125033337Y-78202959D01*
X125041716Y-78199805D01*
X125049020Y-78202678D01*
G37*
%TD.AperFunction*%
%TD*%
%TA.AperFunction,Conductor*%
%TO.N,STS_OBST*%
G36*
X160905165Y-98464422D02*
G01*
X161791123Y-99054244D01*
X161796110Y-99061681D01*
X161795670Y-99067882D01*
X161501300Y-99900662D01*
X161495312Y-99907320D01*
X161488246Y-99908287D01*
X160103838Y-99665214D01*
X160097588Y-99661963D01*
X159931471Y-99495846D01*
X159928044Y-99487573D01*
X159931244Y-99479533D01*
X160890184Y-98466118D01*
X160898358Y-98462465D01*
X160905165Y-98464422D01*
G37*
%TD.AperFunction*%
%TD*%
%TA.AperFunction,Conductor*%
%TO.N,Net-(U1-MOSI{slash}D7)*%
G36*
X129047479Y-78009824D02*
G01*
X129543957Y-78733380D01*
X129545812Y-78742141D01*
X129543957Y-78746620D01*
X129046599Y-79471457D01*
X129039093Y-79476339D01*
X129032710Y-79475741D01*
X127778827Y-78987901D01*
X127772359Y-78981707D01*
X127771369Y-78976997D01*
X127771369Y-78741750D01*
X127774796Y-78733477D01*
X127777212Y-78731622D01*
X129031978Y-78006314D01*
X129040854Y-78005141D01*
X129047479Y-78009824D01*
G37*
%TD.AperFunction*%
%TD*%
%TA.AperFunction,Conductor*%
%TO.N,DC_CLOSE*%
G36*
X153770723Y-97567954D02*
G01*
X154409891Y-97915677D01*
X154415521Y-97922640D01*
X154416000Y-97925954D01*
X154416000Y-98162045D01*
X154412573Y-98170318D01*
X154409891Y-98172323D01*
X153770725Y-98520044D01*
X153761820Y-98520987D01*
X153755643Y-98516607D01*
X153419929Y-98050839D01*
X153417872Y-98042126D01*
X153419928Y-98037161D01*
X153755644Y-97571391D01*
X153763260Y-97566684D01*
X153770723Y-97567954D01*
G37*
%TD.AperFunction*%
%TD*%
%TA.AperFunction,Conductor*%
%TO.N,/ESP_TX*%
G36*
X152923021Y-70386314D02*
G01*
X154177786Y-71111621D01*
X154183234Y-71118728D01*
X154183631Y-71121750D01*
X154183631Y-71356997D01*
X154180204Y-71365270D01*
X154176173Y-71367901D01*
X152922289Y-71855741D01*
X152913337Y-71855547D01*
X152908400Y-71851457D01*
X152576601Y-71367901D01*
X152411041Y-71126619D01*
X152409187Y-71117859D01*
X152411042Y-71113380D01*
X152412249Y-71111621D01*
X152907521Y-70389822D01*
X152915026Y-70384942D01*
X152923021Y-70386314D01*
G37*
%TD.AperFunction*%
%TD*%
%TA.AperFunction,Conductor*%
%TO.N,Net-(D1-A)*%
G36*
X130062661Y-72925174D02*
G01*
X131340817Y-73531828D01*
X131346821Y-73538471D01*
X131347500Y-73542398D01*
X131347500Y-73777601D01*
X131344073Y-73785874D01*
X131340817Y-73788171D01*
X130062664Y-74394824D01*
X130053720Y-74395275D01*
X130048000Y-74390874D01*
X129632870Y-73785874D01*
X129551041Y-73666619D01*
X129549187Y-73657859D01*
X129551042Y-73653380D01*
X129627194Y-73542398D01*
X130048000Y-72929124D01*
X130055506Y-72924243D01*
X130062661Y-72925174D01*
G37*
%TD.AperFunction*%
%TD*%
%TA.AperFunction,Conductor*%
%TO.N,DC_CLOSE*%
G36*
X160905165Y-93384422D02*
G01*
X161791123Y-93974244D01*
X161796110Y-93981681D01*
X161795670Y-93987882D01*
X161501300Y-94820662D01*
X161495312Y-94827320D01*
X161488246Y-94828287D01*
X160103838Y-94585214D01*
X160097588Y-94581963D01*
X159931471Y-94415846D01*
X159928044Y-94407573D01*
X159931244Y-94399533D01*
X160890184Y-93386118D01*
X160898358Y-93382465D01*
X160905165Y-93384422D01*
G37*
%TD.AperFunction*%
%TD*%
%TA.AperFunction,Conductor*%
%TO.N,Net-(D3-A)*%
G36*
X151906999Y-75469125D02*
G01*
X152403957Y-76193380D01*
X152405812Y-76202141D01*
X152403957Y-76206620D01*
X151906999Y-76930874D01*
X151899493Y-76935756D01*
X151892335Y-76934824D01*
X150614183Y-76328171D01*
X150608179Y-76321528D01*
X150607500Y-76317601D01*
X150607500Y-76082398D01*
X150610927Y-76074125D01*
X150614183Y-76071828D01*
X151892337Y-75465174D01*
X151901279Y-75464724D01*
X151906999Y-75469125D01*
G37*
%TD.AperFunction*%
%TD*%
%TA.AperFunction,Conductor*%
%TO.N,Net-(Q3-G)*%
G36*
X124420261Y-71569282D02*
G01*
X124733251Y-71883054D01*
X124805135Y-71955118D01*
X124808552Y-71963396D01*
X124806493Y-71970009D01*
X124540487Y-72356928D01*
X124532976Y-72361804D01*
X124530846Y-72362000D01*
X124293154Y-72362000D01*
X124284881Y-72358573D01*
X124283513Y-72356928D01*
X124017506Y-71970009D01*
X124015643Y-71961251D01*
X124018863Y-71955119D01*
X124403718Y-71569302D01*
X124411985Y-71565866D01*
X124420261Y-71569282D01*
G37*
%TD.AperFunction*%
%TD*%
%TA.AperFunction,Conductor*%
%TO.N,/ESP_TX*%
G36*
X156950978Y-70634158D02*
G01*
X157489711Y-71207466D01*
X157492879Y-71215842D01*
X157489966Y-71223210D01*
X156965733Y-71818617D01*
X156957694Y-71822561D01*
X156950267Y-71820487D01*
X156301015Y-71368491D01*
X156296183Y-71360952D01*
X156296000Y-71358889D01*
X156296000Y-71120830D01*
X156299427Y-71112557D01*
X156300647Y-71111495D01*
X156935409Y-70632827D01*
X156944076Y-70630583D01*
X156950978Y-70634158D01*
G37*
%TD.AperFunction*%
%TD*%
%TA.AperFunction,Conductor*%
%TO.N,+5V*%
G36*
X160160532Y-117057127D02*
G01*
X160162855Y-117060439D01*
X160723645Y-118258219D01*
X160724050Y-118267165D01*
X160720224Y-118272421D01*
X160041875Y-118799128D01*
X160033239Y-118801495D01*
X160027525Y-118799128D01*
X159349175Y-118272421D01*
X159344742Y-118264641D01*
X159345753Y-118258221D01*
X159906545Y-117060439D01*
X159913156Y-117054399D01*
X159917141Y-117053700D01*
X160152259Y-117053700D01*
X160160532Y-117057127D01*
G37*
%TD.AperFunction*%
%TD*%
%TA.AperFunction,Conductor*%
%TO.N,/ESP_TX*%
G36*
X157504016Y-71221765D02*
G01*
X158070083Y-71754413D01*
X158073760Y-71762577D01*
X158072078Y-71768985D01*
X157624414Y-72509574D01*
X157617201Y-72514882D01*
X157614401Y-72515222D01*
X157377599Y-72515222D01*
X157369326Y-72511795D01*
X157367586Y-72509574D01*
X156919921Y-71768985D01*
X156918574Y-71760133D01*
X156921914Y-71754415D01*
X157487983Y-71221765D01*
X157496356Y-71218592D01*
X157504016Y-71221765D01*
G37*
%TD.AperFunction*%
%TD*%
%TA.AperFunction,Conductor*%
%TO.N,Net-(U1-MOSI{slash}D7)*%
G36*
X124468016Y-78747543D02*
G01*
X125034083Y-79280191D01*
X125037760Y-79288355D01*
X125036078Y-79294763D01*
X124588414Y-80035352D01*
X124581201Y-80040660D01*
X124578401Y-80041000D01*
X124341599Y-80041000D01*
X124333326Y-80037573D01*
X124331586Y-80035352D01*
X123883921Y-79294763D01*
X123882574Y-79285911D01*
X123885914Y-79280193D01*
X124451983Y-78747543D01*
X124460356Y-78744370D01*
X124468016Y-78747543D01*
G37*
%TD.AperFunction*%
%TD*%
%TA.AperFunction,Conductor*%
%TO.N,+12V*%
G36*
X131525854Y-118175157D02*
G01*
X131947109Y-118609858D01*
X131950406Y-118618184D01*
X131947109Y-118626142D01*
X131525854Y-119060842D01*
X131517636Y-119064399D01*
X131510749Y-119062289D01*
X131058997Y-118746493D01*
X131054179Y-118738945D01*
X131054000Y-118736904D01*
X131054000Y-118499095D01*
X131057427Y-118490822D01*
X131058990Y-118489511D01*
X131510750Y-118173709D01*
X131519493Y-118171778D01*
X131525854Y-118175157D01*
G37*
%TD.AperFunction*%
%TD*%
%TA.AperFunction,Conductor*%
%TO.N,Net-(Q4-G)*%
G36*
X128790489Y-80720709D02*
G01*
X129541893Y-81274638D01*
X129546518Y-81282306D01*
X129546299Y-81286901D01*
X129350022Y-82069934D01*
X129344686Y-82077125D01*
X129337204Y-82078696D01*
X128067292Y-81917958D01*
X128060488Y-81914624D01*
X127894272Y-81748408D01*
X127890845Y-81740135D01*
X127893728Y-81732444D01*
X128286371Y-81282306D01*
X128774730Y-80722436D01*
X128782751Y-80718455D01*
X128790489Y-80720709D01*
G37*
%TD.AperFunction*%
%TD*%
%TA.AperFunction,Conductor*%
%TO.N,Net-(D2-A)*%
G36*
X150576356Y-97571392D02*
G01*
X150912069Y-98037159D01*
X150914127Y-98045874D01*
X150912069Y-98050841D01*
X150576356Y-98516607D01*
X150568739Y-98521315D01*
X150561274Y-98520044D01*
X149922109Y-98172323D01*
X149916479Y-98165359D01*
X149916000Y-98162045D01*
X149916000Y-97925954D01*
X149919427Y-97917681D01*
X149922106Y-97915678D01*
X150561276Y-97567954D01*
X150570179Y-97567012D01*
X150576356Y-97571392D01*
G37*
%TD.AperFunction*%
%TD*%
%TA.AperFunction,Conductor*%
%TO.N,Net-(Q4-G)*%
G36*
X124698261Y-87637282D02*
G01*
X125011251Y-87951054D01*
X125083135Y-88023118D01*
X125086552Y-88031396D01*
X125084493Y-88038009D01*
X124818487Y-88424928D01*
X124810976Y-88429804D01*
X124808846Y-88430000D01*
X124571154Y-88430000D01*
X124562881Y-88426573D01*
X124561513Y-88424928D01*
X124295506Y-88038009D01*
X124293643Y-88029251D01*
X124296863Y-88023119D01*
X124681718Y-87637302D01*
X124689985Y-87633866D01*
X124698261Y-87637282D01*
G37*
%TD.AperFunction*%
%TD*%
%TA.AperFunction,Conductor*%
%TO.N,DC_LIGHT*%
G36*
X153770723Y-95027954D02*
G01*
X154409891Y-95375677D01*
X154415521Y-95382640D01*
X154416000Y-95385954D01*
X154416000Y-95622045D01*
X154412573Y-95630318D01*
X154409891Y-95632323D01*
X153770725Y-95980044D01*
X153761820Y-95980987D01*
X153755643Y-95976607D01*
X153419929Y-95510839D01*
X153417872Y-95502126D01*
X153419928Y-95497161D01*
X153755644Y-95031391D01*
X153763260Y-95026684D01*
X153770723Y-95027954D01*
G37*
%TD.AperFunction*%
%TD*%
%TA.AperFunction,Conductor*%
%TO.N,Net-(D4-K)*%
G36*
X154211625Y-117949108D02*
G01*
X154948006Y-118794864D01*
X154950854Y-118803354D01*
X154946865Y-118811371D01*
X154946853Y-118811381D01*
X154212864Y-119448714D01*
X154204370Y-119451551D01*
X154196990Y-119448223D01*
X153458197Y-118721838D01*
X153454700Y-118713594D01*
X153454700Y-118474477D01*
X153458127Y-118466204D01*
X153459668Y-118464907D01*
X154196072Y-117947218D01*
X154204811Y-117945265D01*
X154211625Y-117949108D01*
G37*
%TD.AperFunction*%
%TD*%
%TA.AperFunction,Conductor*%
%TO.N,/ESP_RX*%
G36*
X153180272Y-73100640D02*
G01*
X154167888Y-73982105D01*
X154171778Y-73990171D01*
X154168826Y-73998625D01*
X154168370Y-73999107D01*
X154002797Y-74164680D01*
X153996967Y-74167849D01*
X152921312Y-74397467D01*
X152912505Y-74395843D01*
X152909217Y-74392638D01*
X152413181Y-73668617D01*
X152411332Y-73659855D01*
X152415889Y-73652587D01*
X153165540Y-73099950D01*
X153174231Y-73097801D01*
X153180272Y-73100640D01*
G37*
%TD.AperFunction*%
%TD*%
%TA.AperFunction,Conductor*%
%TO.N,Net-(U1-MOSI{slash}D7)*%
G36*
X124586674Y-81254427D02*
G01*
X124588414Y-81256648D01*
X125036078Y-81997236D01*
X125037425Y-82006088D01*
X125034083Y-82011809D01*
X124468018Y-82544455D01*
X124459644Y-82547629D01*
X124451982Y-82544455D01*
X124222608Y-82328623D01*
X123885915Y-82011808D01*
X123882239Y-82003644D01*
X123883920Y-81997238D01*
X124331586Y-81256648D01*
X124338799Y-81251340D01*
X124341599Y-81251000D01*
X124578401Y-81251000D01*
X124586674Y-81254427D01*
G37*
%TD.AperFunction*%
%TD*%
%TA.AperFunction,Conductor*%
%TO.N,RED{slash}CTRL*%
G36*
X163492161Y-106074785D02*
G01*
X163498411Y-106078036D01*
X163664528Y-106244153D01*
X163667955Y-106252426D01*
X163664753Y-106260468D01*
X162705816Y-107273880D01*
X162697641Y-107277534D01*
X162690834Y-107275577D01*
X161804876Y-106685755D01*
X161799889Y-106678318D01*
X161800329Y-106672117D01*
X162094699Y-105839335D01*
X162100687Y-105832679D01*
X162107751Y-105831712D01*
X163492161Y-106074785D01*
G37*
%TD.AperFunction*%
%TD*%
%TA.AperFunction,Conductor*%
%TO.N,GND*%
G36*
X166820539Y-67329685D02*
G01*
X166866294Y-67382489D01*
X166877500Y-67434000D01*
X166877500Y-122811500D01*
X166857815Y-122878539D01*
X166805011Y-122924294D01*
X166753500Y-122935500D01*
X115186500Y-122935500D01*
X115119461Y-122915815D01*
X115073706Y-122863011D01*
X115062500Y-122811500D01*
X115062500Y-118538005D01*
X123208357Y-118538005D01*
X123228890Y-118785812D01*
X123228892Y-118785824D01*
X123289936Y-119026881D01*
X123389826Y-119254606D01*
X123525833Y-119462782D01*
X123525836Y-119462785D01*
X123694256Y-119645738D01*
X123890491Y-119798474D01*
X124109190Y-119916828D01*
X124344386Y-119997571D01*
X124589665Y-120038500D01*
X124838335Y-120038500D01*
X125083614Y-119997571D01*
X125318810Y-119916828D01*
X125537509Y-119798474D01*
X125655207Y-119706865D01*
X125672311Y-119695687D01*
X126859437Y-119052769D01*
X127033568Y-118958464D01*
X127092619Y-118943500D01*
X130943098Y-118943500D01*
X131010137Y-118963185D01*
X131014135Y-118965865D01*
X131335885Y-119190784D01*
X131375323Y-119236114D01*
X131380470Y-119246216D01*
X131380473Y-119246221D01*
X131380476Y-119246225D01*
X131475774Y-119341523D01*
X131475778Y-119341526D01*
X131475780Y-119341528D01*
X131595874Y-119402719D01*
X131595876Y-119402719D01*
X131595878Y-119402720D01*
X131695507Y-119418500D01*
X131695512Y-119418500D01*
X132212493Y-119418500D01*
X132312121Y-119402720D01*
X132312121Y-119402719D01*
X132312126Y-119402719D01*
X132432220Y-119341528D01*
X132527528Y-119246220D01*
X132588719Y-119126126D01*
X132595518Y-119083199D01*
X132604500Y-119026493D01*
X134603500Y-119026493D01*
X134619279Y-119126121D01*
X134619280Y-119126124D01*
X134619281Y-119126126D01*
X134680470Y-119246216D01*
X134680473Y-119246221D01*
X134680476Y-119246225D01*
X134775774Y-119341523D01*
X134775778Y-119341526D01*
X134775780Y-119341528D01*
X134895874Y-119402719D01*
X134895876Y-119402719D01*
X134895878Y-119402720D01*
X134995507Y-119418500D01*
X134995512Y-119418500D01*
X135512493Y-119418500D01*
X135612121Y-119402720D01*
X135612121Y-119402719D01*
X135612126Y-119402719D01*
X135732220Y-119341528D01*
X135827528Y-119246220D01*
X135842445Y-119216941D01*
X135879800Y-119173095D01*
X136195221Y-118942759D01*
X136260970Y-118919120D01*
X136268349Y-118918900D01*
X148556500Y-118918900D01*
X148623539Y-118938585D01*
X148669294Y-118991389D01*
X148680500Y-119042900D01*
X148680500Y-119052769D01*
X148683353Y-119083199D01*
X148683353Y-119083201D01*
X148728206Y-119211380D01*
X148728207Y-119211382D01*
X148808850Y-119320650D01*
X148918118Y-119401293D01*
X148960845Y-119416244D01*
X149046299Y-119446146D01*
X149076730Y-119449000D01*
X149076734Y-119449000D01*
X150135270Y-119449000D01*
X150165699Y-119446146D01*
X150165701Y-119446146D01*
X150244707Y-119418500D01*
X150293882Y-119401293D01*
X150403150Y-119320650D01*
X150483793Y-119211382D01*
X150522100Y-119101907D01*
X150528646Y-119083201D01*
X150528646Y-119083199D01*
X150531500Y-119052769D01*
X150531500Y-119042900D01*
X150551185Y-118975861D01*
X150603989Y-118930106D01*
X150655500Y-118918900D01*
X153314762Y-118918900D01*
X153381801Y-118938585D01*
X153401696Y-118954478D01*
X153967136Y-119510421D01*
X154001139Y-119571458D01*
X154004200Y-119598841D01*
X154004200Y-119823452D01*
X154015831Y-119881929D01*
X154015832Y-119881930D01*
X154060147Y-119948252D01*
X154126469Y-119992567D01*
X154126470Y-119992568D01*
X154184947Y-120004199D01*
X154184950Y-120004200D01*
X154184952Y-120004200D01*
X155724450Y-120004200D01*
X155724451Y-120004199D01*
X155739268Y-120001252D01*
X155782929Y-119992568D01*
X155782929Y-119992567D01*
X155782931Y-119992567D01*
X155849252Y-119948252D01*
X155893567Y-119881931D01*
X155893567Y-119881929D01*
X155893568Y-119881929D01*
X155905199Y-119823452D01*
X155905200Y-119823450D01*
X155905200Y-119109829D01*
X156244700Y-119109829D01*
X156259816Y-119277796D01*
X156259817Y-119277802D01*
X156319673Y-119494684D01*
X156319678Y-119494697D01*
X156417298Y-119697408D01*
X156417302Y-119697416D01*
X156549551Y-119879441D01*
X156549557Y-119879449D01*
X156712186Y-120034937D01*
X156899966Y-120158891D01*
X157106869Y-120247324D01*
X157106878Y-120247327D01*
X157244699Y-120278784D01*
X157244700Y-120278784D01*
X157244700Y-119239201D01*
X157352385Y-119288380D01*
X157458937Y-119303700D01*
X157530463Y-119303700D01*
X157637015Y-119288380D01*
X157744700Y-119239201D01*
X157744700Y-120281249D01*
X157773967Y-120277286D01*
X157773973Y-120277285D01*
X157987968Y-120207754D01*
X158186101Y-120101134D01*
X158186104Y-120101132D01*
X158362020Y-119960845D01*
X158510052Y-119791407D01*
X158510059Y-119791399D01*
X158625459Y-119598253D01*
X158625461Y-119598248D01*
X158704524Y-119387589D01*
X158704524Y-119387588D01*
X158744700Y-119166205D01*
X158744700Y-119053700D01*
X157928386Y-119053700D01*
X157954193Y-119013544D01*
X157994700Y-118875589D01*
X157994700Y-118731811D01*
X157954193Y-118593856D01*
X157928386Y-118553700D01*
X158744700Y-118553700D01*
X158744700Y-118497574D01*
X158744699Y-118497570D01*
X158729583Y-118329603D01*
X158729582Y-118329597D01*
X158669726Y-118112715D01*
X158669721Y-118112702D01*
X158572101Y-117909991D01*
X158572097Y-117909983D01*
X158439848Y-117727958D01*
X158439842Y-117727950D01*
X158277213Y-117572462D01*
X158089433Y-117448508D01*
X157882530Y-117360075D01*
X157882523Y-117360073D01*
X157744700Y-117328615D01*
X157744700Y-118368198D01*
X157637015Y-118319020D01*
X157530463Y-118303700D01*
X157458937Y-118303700D01*
X157352385Y-118319020D01*
X157244700Y-118368198D01*
X157244700Y-117326149D01*
X157244699Y-117326149D01*
X157215421Y-117330115D01*
X157001431Y-117399645D01*
X156803298Y-117506265D01*
X156803295Y-117506267D01*
X156627379Y-117646554D01*
X156479347Y-117815992D01*
X156479340Y-117816000D01*
X156363940Y-118009146D01*
X156363938Y-118009151D01*
X156284875Y-118219810D01*
X156284875Y-118219811D01*
X156244700Y-118441194D01*
X156244700Y-118553700D01*
X157061014Y-118553700D01*
X157035207Y-118593856D01*
X156994700Y-118731811D01*
X156994700Y-118875589D01*
X157035207Y-119013544D01*
X157061014Y-119053700D01*
X156244700Y-119053700D01*
X156244700Y-119109829D01*
X155905200Y-119109829D01*
X155905200Y-117783949D01*
X155905199Y-117783947D01*
X155893568Y-117725470D01*
X155893567Y-117725469D01*
X155849252Y-117659147D01*
X155782930Y-117614832D01*
X155782929Y-117614831D01*
X155724452Y-117603200D01*
X155724448Y-117603200D01*
X154184952Y-117603200D01*
X154184947Y-117603200D01*
X154126470Y-117614831D01*
X154126469Y-117614832D01*
X154060147Y-117659147D01*
X154015832Y-117725469D01*
X154015831Y-117725470D01*
X154003027Y-117789842D01*
X153970641Y-117851753D01*
X153952723Y-117867092D01*
X153414670Y-118245342D01*
X153348506Y-118267793D01*
X153343357Y-118267900D01*
X150626811Y-118267900D01*
X150559772Y-118248215D01*
X150514017Y-118195411D01*
X150509770Y-118184855D01*
X150495162Y-118143109D01*
X150483793Y-118110618D01*
X150403150Y-118001350D01*
X150293882Y-117920707D01*
X150293880Y-117920706D01*
X150229967Y-117898342D01*
X150173191Y-117857620D01*
X150147444Y-117792668D01*
X150160901Y-117724106D01*
X150209288Y-117673703D01*
X150231918Y-117663595D01*
X150400119Y-117607858D01*
X150400124Y-117607856D01*
X150549345Y-117515815D01*
X150673315Y-117391845D01*
X150765356Y-117242624D01*
X150765358Y-117242619D01*
X150820505Y-117076197D01*
X150820506Y-117076190D01*
X150830999Y-116973486D01*
X150831000Y-116973473D01*
X150831000Y-116836000D01*
X148381001Y-116836000D01*
X148381001Y-116973486D01*
X148391494Y-117076197D01*
X148446641Y-117242619D01*
X148446643Y-117242624D01*
X148538684Y-117391845D01*
X148662654Y-117515815D01*
X148811875Y-117607856D01*
X148811882Y-117607859D01*
X148980081Y-117663594D01*
X149037526Y-117703366D01*
X149064350Y-117767882D01*
X149052035Y-117836658D01*
X149004493Y-117887858D01*
X148982035Y-117898341D01*
X148940422Y-117912902D01*
X148918118Y-117920707D01*
X148918117Y-117920707D01*
X148918116Y-117920708D01*
X148808850Y-118001350D01*
X148728207Y-118110617D01*
X148728206Y-118110619D01*
X148702230Y-118184855D01*
X148661508Y-118241631D01*
X148596555Y-118267378D01*
X148585189Y-118267900D01*
X136261407Y-118267900D01*
X136194368Y-118248215D01*
X136192535Y-118247015D01*
X135864829Y-118028136D01*
X135835978Y-117995709D01*
X135833268Y-117997679D01*
X135827532Y-117989785D01*
X135827529Y-117989782D01*
X135827528Y-117989780D01*
X135732220Y-117894472D01*
X135612126Y-117833281D01*
X135612124Y-117833280D01*
X135612121Y-117833279D01*
X135512493Y-117817500D01*
X135512488Y-117817500D01*
X134995512Y-117817500D01*
X134995507Y-117817500D01*
X134895878Y-117833279D01*
X134775778Y-117894473D01*
X134775774Y-117894476D01*
X134680476Y-117989774D01*
X134680473Y-117989778D01*
X134619279Y-118109878D01*
X134603500Y-118209506D01*
X134603500Y-119026493D01*
X132604500Y-119026493D01*
X132604500Y-118209506D01*
X132588720Y-118109878D01*
X132588719Y-118109876D01*
X132588719Y-118109874D01*
X132527528Y-117989780D01*
X132527526Y-117989778D01*
X132527523Y-117989774D01*
X132432225Y-117894476D01*
X132432221Y-117894473D01*
X132432220Y-117894472D01*
X132312126Y-117833281D01*
X132312124Y-117833280D01*
X132312121Y-117833279D01*
X132212493Y-117817500D01*
X132212488Y-117817500D01*
X131695512Y-117817500D01*
X131695507Y-117817500D01*
X131595878Y-117833279D01*
X131475778Y-117894473D01*
X131380470Y-117989782D01*
X131375322Y-117999885D01*
X131335886Y-118045213D01*
X131121027Y-118195411D01*
X131018078Y-118267378D01*
X131014141Y-118270130D01*
X130947917Y-118292406D01*
X130943096Y-118292500D01*
X127103899Y-118292500D01*
X127037199Y-118273033D01*
X125772013Y-117465739D01*
X125747489Y-117445194D01*
X125733744Y-117430262D01*
X125537509Y-117277526D01*
X125537507Y-117277525D01*
X125537506Y-117277524D01*
X125318811Y-117159172D01*
X125318802Y-117159169D01*
X125083616Y-117078429D01*
X124838335Y-117037500D01*
X124589665Y-117037500D01*
X124344383Y-117078429D01*
X124109197Y-117159169D01*
X124109188Y-117159172D01*
X123890493Y-117277524D01*
X123694257Y-117430261D01*
X123525833Y-117613217D01*
X123389826Y-117821393D01*
X123289936Y-118049118D01*
X123228892Y-118290175D01*
X123228890Y-118290187D01*
X123208357Y-118537994D01*
X123208357Y-118538005D01*
X115062500Y-118538005D01*
X115062500Y-114885844D01*
X122914000Y-114885844D01*
X122920401Y-114945372D01*
X122920403Y-114945379D01*
X122970645Y-115080086D01*
X122970649Y-115080093D01*
X123056809Y-115195187D01*
X123056812Y-115195190D01*
X123171906Y-115281350D01*
X123171913Y-115281354D01*
X123306620Y-115331596D01*
X123306627Y-115331598D01*
X123366155Y-115337999D01*
X123366172Y-115338000D01*
X124464000Y-115338000D01*
X124464000Y-114142310D01*
X124472817Y-114147158D01*
X124631886Y-114188000D01*
X124754894Y-114188000D01*
X124876933Y-114172583D01*
X124964000Y-114138110D01*
X124964000Y-115338000D01*
X126061828Y-115338000D01*
X126061844Y-115337999D01*
X126121372Y-115331598D01*
X126121379Y-115331596D01*
X126256086Y-115281354D01*
X126256093Y-115281350D01*
X126371187Y-115195190D01*
X126371190Y-115195187D01*
X126457350Y-115080093D01*
X126457354Y-115080086D01*
X126507596Y-114945379D01*
X126507598Y-114945372D01*
X126513999Y-114885844D01*
X126514000Y-114885827D01*
X126514000Y-113792000D01*
X138722473Y-113792000D01*
X138742563Y-114124136D01*
X138742563Y-114124141D01*
X138742564Y-114124142D01*
X138802544Y-114451441D01*
X138802545Y-114451445D01*
X138802546Y-114451449D01*
X138901530Y-114769104D01*
X138901534Y-114769116D01*
X138901537Y-114769123D01*
X139038102Y-115072557D01*
X139194697Y-115331596D01*
X139210251Y-115357326D01*
X139415460Y-115619255D01*
X139650744Y-115854539D01*
X139912673Y-116059748D01*
X139912678Y-116059751D01*
X139912682Y-116059754D01*
X140197443Y-116231898D01*
X140500877Y-116368463D01*
X140500890Y-116368467D01*
X140500895Y-116368469D01*
X140712665Y-116434458D01*
X140818559Y-116467456D01*
X141145858Y-116527436D01*
X141323740Y-116538196D01*
X141394892Y-116542500D01*
X141394894Y-116542500D01*
X141561108Y-116542500D01*
X141623365Y-116538734D01*
X141810142Y-116527436D01*
X142137441Y-116467456D01*
X142455123Y-116368463D01*
X142527253Y-116336000D01*
X148381000Y-116336000D01*
X149356000Y-116336000D01*
X149356000Y-114593000D01*
X149856000Y-114593000D01*
X149856000Y-116336000D01*
X150830999Y-116336000D01*
X150830999Y-116198528D01*
X150830998Y-116198513D01*
X150820505Y-116095802D01*
X150765358Y-115929380D01*
X150765356Y-115929375D01*
X150673315Y-115780154D01*
X150549345Y-115656184D01*
X150409681Y-115570039D01*
X150362957Y-115518091D01*
X150351734Y-115449128D01*
X150379578Y-115385046D01*
X150409681Y-115358961D01*
X150549345Y-115272815D01*
X150673315Y-115148845D01*
X150765356Y-114999624D01*
X150765358Y-114999619D01*
X150820505Y-114833197D01*
X150820506Y-114833190D01*
X150830999Y-114730486D01*
X150831000Y-114730473D01*
X150831000Y-114593000D01*
X149856000Y-114593000D01*
X149356000Y-114593000D01*
X148381001Y-114593000D01*
X148381001Y-114730486D01*
X148391494Y-114833197D01*
X148446641Y-114999619D01*
X148446643Y-114999624D01*
X148538684Y-115148845D01*
X148662654Y-115272815D01*
X148802318Y-115358961D01*
X148849042Y-115410909D01*
X148860265Y-115479872D01*
X148832421Y-115543954D01*
X148802318Y-115570039D01*
X148662654Y-115656184D01*
X148538684Y-115780154D01*
X148446643Y-115929375D01*
X148446641Y-115929380D01*
X148391494Y-116095802D01*
X148391493Y-116095809D01*
X148381000Y-116198513D01*
X148381000Y-116336000D01*
X142527253Y-116336000D01*
X142758557Y-116231898D01*
X143043318Y-116059754D01*
X143305252Y-115854542D01*
X143540542Y-115619252D01*
X143745754Y-115357318D01*
X143917898Y-115072557D01*
X144054463Y-114769123D01*
X144153456Y-114451441D01*
X144213436Y-114124142D01*
X144215320Y-114093000D01*
X148381000Y-114093000D01*
X150830999Y-114093000D01*
X150830999Y-113955528D01*
X150830998Y-113955513D01*
X150820505Y-113852802D01*
X150765358Y-113686380D01*
X150765356Y-113686375D01*
X150673315Y-113537154D01*
X150549345Y-113413184D01*
X150400124Y-113321143D01*
X150400119Y-113321141D01*
X150231918Y-113265405D01*
X150174473Y-113225632D01*
X150147650Y-113161117D01*
X150159965Y-113092341D01*
X150207508Y-113041141D01*
X150229964Y-113030658D01*
X150293882Y-113008293D01*
X150309096Y-112997063D01*
X150314079Y-112993745D01*
X150872755Y-112659766D01*
X150954217Y-112611068D01*
X151017843Y-112593500D01*
X157039812Y-112593500D01*
X157106851Y-112613185D01*
X157127493Y-112629819D01*
X159672881Y-115175207D01*
X159706366Y-115236530D01*
X159709200Y-115262888D01*
X159709200Y-116969704D01*
X159697501Y-117022282D01*
X159159642Y-118171081D01*
X159148366Y-118207918D01*
X159146059Y-118214215D01*
X159143658Y-118219811D01*
X159123113Y-118267686D01*
X159084200Y-118457043D01*
X159084200Y-119101907D01*
X159098854Y-119246022D01*
X159156722Y-119430459D01*
X159156729Y-119430474D01*
X159250539Y-119599488D01*
X159250542Y-119599493D01*
X159376458Y-119746166D01*
X159376459Y-119746168D01*
X159529324Y-119864494D01*
X159529327Y-119864496D01*
X159702884Y-119949630D01*
X159702888Y-119949631D01*
X159702886Y-119949631D01*
X159890017Y-119998083D01*
X159890020Y-119998083D01*
X159890026Y-119998085D01*
X160083090Y-120007876D01*
X160274174Y-119978603D01*
X160455453Y-119911464D01*
X160619507Y-119809209D01*
X160759619Y-119676023D01*
X160870053Y-119517358D01*
X160946287Y-119339712D01*
X160985200Y-119150356D01*
X160985200Y-118505494D01*
X160970545Y-118361379D01*
X160912674Y-118176932D01*
X160912572Y-118176749D01*
X160910626Y-118172941D01*
X160909757Y-118171085D01*
X160909757Y-118171083D01*
X160475061Y-117242624D01*
X160371899Y-117022282D01*
X160360200Y-116969704D01*
X160360200Y-115093620D01*
X160360436Y-115088213D01*
X160361147Y-115080093D01*
X160363964Y-115047893D01*
X160353482Y-115008776D01*
X160352316Y-115003518D01*
X160345288Y-114963655D01*
X160345286Y-114963652D01*
X160345286Y-114963650D01*
X160343460Y-114958633D01*
X160336520Y-114941876D01*
X160334254Y-114937019D01*
X160334254Y-114937016D01*
X160311039Y-114903862D01*
X160308133Y-114899299D01*
X160287896Y-114864248D01*
X160287895Y-114864247D01*
X160287894Y-114864245D01*
X160256877Y-114838218D01*
X160252893Y-114834567D01*
X158878184Y-113459858D01*
X157468119Y-112049793D01*
X157464474Y-112045814D01*
X157438456Y-112014807D01*
X157438455Y-112014806D01*
X157427058Y-112008226D01*
X157403392Y-111994561D01*
X157398831Y-111991655D01*
X157385687Y-111982452D01*
X157365684Y-111968446D01*
X157365681Y-111968445D01*
X157360861Y-111966197D01*
X157344055Y-111959235D01*
X157339043Y-111957411D01*
X157299190Y-111950383D01*
X157293910Y-111949212D01*
X157254808Y-111938735D01*
X157219892Y-111941790D01*
X157214481Y-111942264D01*
X157209078Y-111942500D01*
X151017844Y-111942500D01*
X150954218Y-111924932D01*
X150314097Y-111542264D01*
X150309090Y-111538931D01*
X150293880Y-111527705D01*
X150272958Y-111520384D01*
X150269019Y-111518853D01*
X150239460Y-111506187D01*
X150239455Y-111506185D01*
X150233495Y-111504530D01*
X150232872Y-111504427D01*
X150231875Y-111504171D01*
X150230278Y-111503818D01*
X150230289Y-111503765D01*
X150212273Y-111499151D01*
X150178347Y-111487279D01*
X150165697Y-111482853D01*
X150135270Y-111480000D01*
X150135266Y-111480000D01*
X149076734Y-111480000D01*
X149076730Y-111480000D01*
X149046300Y-111482853D01*
X149046298Y-111482853D01*
X148918119Y-111527706D01*
X148918117Y-111527707D01*
X148808850Y-111608350D01*
X148728207Y-111717617D01*
X148728206Y-111717619D01*
X148683353Y-111845798D01*
X148683353Y-111845800D01*
X148680500Y-111876230D01*
X148680500Y-112659769D01*
X148683353Y-112690199D01*
X148683353Y-112690201D01*
X148726987Y-112814895D01*
X148728207Y-112818382D01*
X148808850Y-112927650D01*
X148918118Y-113008293D01*
X148982033Y-113030658D01*
X149038807Y-113071378D01*
X149064555Y-113136330D01*
X149051099Y-113204892D01*
X149002712Y-113255295D01*
X148980082Y-113265404D01*
X148811878Y-113321142D01*
X148811875Y-113321143D01*
X148662654Y-113413184D01*
X148538684Y-113537154D01*
X148446643Y-113686375D01*
X148446641Y-113686380D01*
X148391494Y-113852802D01*
X148391493Y-113852809D01*
X148381000Y-113955513D01*
X148381000Y-114093000D01*
X144215320Y-114093000D01*
X144233527Y-113792000D01*
X144213436Y-113459858D01*
X144153456Y-113132559D01*
X144077249Y-112888000D01*
X144054469Y-112814895D01*
X144054467Y-112814890D01*
X144054463Y-112814877D01*
X143917898Y-112511443D01*
X143745754Y-112226682D01*
X143745751Y-112226678D01*
X143745748Y-112226673D01*
X143540539Y-111964744D01*
X143305255Y-111729460D01*
X143043326Y-111524251D01*
X143034397Y-111518853D01*
X142758557Y-111352102D01*
X142455123Y-111215537D01*
X142455116Y-111215534D01*
X142455104Y-111215530D01*
X142137449Y-111116546D01*
X142137445Y-111116545D01*
X142137441Y-111116544D01*
X141810142Y-111056564D01*
X141810141Y-111056563D01*
X141810136Y-111056563D01*
X141561108Y-111041500D01*
X141561106Y-111041500D01*
X141394894Y-111041500D01*
X141394892Y-111041500D01*
X141145863Y-111056563D01*
X141145858Y-111056564D01*
X140818559Y-111116544D01*
X140818556Y-111116544D01*
X140818550Y-111116546D01*
X140500895Y-111215530D01*
X140500879Y-111215536D01*
X140500877Y-111215537D01*
X140307656Y-111302498D01*
X140197447Y-111352100D01*
X140197445Y-111352101D01*
X139912673Y-111524251D01*
X139650744Y-111729460D01*
X139415460Y-111964744D01*
X139210251Y-112226673D01*
X139038101Y-112511445D01*
X139038100Y-112511447D01*
X138901536Y-112814880D01*
X138901530Y-112814895D01*
X138802546Y-113132550D01*
X138802544Y-113132556D01*
X138802544Y-113132559D01*
X138785488Y-113225632D01*
X138742563Y-113459863D01*
X138722473Y-113792000D01*
X126514000Y-113792000D01*
X126514000Y-113788000D01*
X125314728Y-113788000D01*
X125337100Y-113740457D01*
X125367873Y-113579138D01*
X125357561Y-113415234D01*
X125316220Y-113288000D01*
X126514000Y-113288000D01*
X126514000Y-112190172D01*
X126513999Y-112190155D01*
X126507598Y-112130627D01*
X126507596Y-112130620D01*
X126457354Y-111995913D01*
X126457350Y-111995906D01*
X126371190Y-111880812D01*
X126371187Y-111880809D01*
X126256093Y-111794649D01*
X126256086Y-111794645D01*
X126121379Y-111744403D01*
X126121372Y-111744401D01*
X126061844Y-111738000D01*
X124964000Y-111738000D01*
X124964000Y-112933689D01*
X124955183Y-112928842D01*
X124796114Y-112888000D01*
X124673106Y-112888000D01*
X124551067Y-112903417D01*
X124464000Y-112937889D01*
X124464000Y-111738000D01*
X123366155Y-111738000D01*
X123306627Y-111744401D01*
X123306620Y-111744403D01*
X123171913Y-111794645D01*
X123171906Y-111794649D01*
X123056812Y-111880809D01*
X123056809Y-111880812D01*
X122970649Y-111995906D01*
X122970645Y-111995913D01*
X122920403Y-112130620D01*
X122920401Y-112130627D01*
X122914000Y-112190155D01*
X122914000Y-113288000D01*
X124113272Y-113288000D01*
X124090900Y-113335543D01*
X124060127Y-113496862D01*
X124070439Y-113660766D01*
X124111780Y-113788000D01*
X122914000Y-113788000D01*
X122914000Y-114885844D01*
X115062500Y-114885844D01*
X115062500Y-104422808D01*
X119812735Y-104422808D01*
X119823212Y-104461910D01*
X119824383Y-104467190D01*
X119831411Y-104507043D01*
X119833235Y-104512055D01*
X119840197Y-104528861D01*
X119842445Y-104533681D01*
X119842446Y-104533684D01*
X119856452Y-104553687D01*
X119865655Y-104566831D01*
X119868561Y-104571392D01*
X119888806Y-104606455D01*
X119919815Y-104632475D01*
X119923805Y-104636131D01*
X122348547Y-107060873D01*
X122362836Y-107077998D01*
X122371650Y-107090736D01*
X122582723Y-107295049D01*
X122787873Y-107500199D01*
X122791518Y-107504177D01*
X122813039Y-107529824D01*
X122817545Y-107535194D01*
X122837172Y-107546525D01*
X122861418Y-107564818D01*
X123534453Y-108216299D01*
X123536947Y-108218856D01*
X123632041Y-108322155D01*
X123694256Y-108389738D01*
X123890491Y-108542474D01*
X124109190Y-108660828D01*
X124344386Y-108741571D01*
X124589665Y-108782500D01*
X124838335Y-108782500D01*
X125083614Y-108741571D01*
X125318810Y-108660828D01*
X125537509Y-108542474D01*
X125733744Y-108389738D01*
X125902164Y-108206785D01*
X126038173Y-107998607D01*
X126138063Y-107770881D01*
X126199108Y-107529821D01*
X126201404Y-107502112D01*
X126219643Y-107282005D01*
X126219643Y-107281994D01*
X126199109Y-107034187D01*
X126199107Y-107034175D01*
X126138063Y-106793118D01*
X126038173Y-106565393D01*
X125902166Y-106357217D01*
X125866231Y-106318181D01*
X125733744Y-106174262D01*
X125537509Y-106021526D01*
X125537507Y-106021525D01*
X125537506Y-106021524D01*
X125318811Y-105903172D01*
X125318802Y-105903169D01*
X125083616Y-105822429D01*
X124838335Y-105781500D01*
X124589665Y-105781500D01*
X124344383Y-105822429D01*
X124109194Y-105903170D01*
X124109183Y-105903175D01*
X124004135Y-105960024D01*
X123978016Y-105969715D01*
X123978132Y-105970073D01*
X123972328Y-105971949D01*
X122801636Y-106482089D01*
X122732315Y-106490824D01*
X122669275Y-106460695D01*
X122664420Y-106456094D01*
X120503819Y-104295493D01*
X120470334Y-104234170D01*
X120467500Y-104207812D01*
X120467500Y-102282005D01*
X123208357Y-102282005D01*
X123228890Y-102529812D01*
X123228892Y-102529824D01*
X123289936Y-102770881D01*
X123389826Y-102998606D01*
X123525833Y-103206782D01*
X123525836Y-103206785D01*
X123694256Y-103389738D01*
X123890491Y-103542474D01*
X124109190Y-103660828D01*
X124344386Y-103741571D01*
X124589665Y-103782500D01*
X124596454Y-103782500D01*
X124627114Y-103786349D01*
X126112537Y-104165415D01*
X126169557Y-104197884D01*
X128869868Y-106898195D01*
X128873523Y-106902184D01*
X128899541Y-106933190D01*
X128899543Y-106933191D01*
X128899545Y-106933194D01*
X128934605Y-106953435D01*
X128939159Y-106956337D01*
X128972316Y-106979554D01*
X128972319Y-106979554D01*
X128977176Y-106981820D01*
X128993933Y-106988760D01*
X128998953Y-106990587D01*
X128998955Y-106990588D01*
X129038830Y-106997618D01*
X129044087Y-106998784D01*
X129083193Y-107009263D01*
X129123510Y-107005735D01*
X129128912Y-107005500D01*
X159712563Y-107005500D01*
X159766250Y-107017725D01*
X161049782Y-107634225D01*
X161101690Y-107680994D01*
X161120072Y-107748403D01*
X161099092Y-107815048D01*
X161045411Y-107859771D01*
X160996095Y-107870000D01*
X160600155Y-107870000D01*
X160540627Y-107876401D01*
X160540620Y-107876403D01*
X160405913Y-107926645D01*
X160405906Y-107926649D01*
X160290812Y-108012809D01*
X160290809Y-108012812D01*
X160204649Y-108127906D01*
X160204645Y-108127913D01*
X160154403Y-108262620D01*
X160154401Y-108262627D01*
X160148000Y-108322155D01*
X160148000Y-108970000D01*
X161364314Y-108970000D01*
X161338507Y-109010156D01*
X161298000Y-109148111D01*
X161298000Y-109291889D01*
X161338507Y-109429844D01*
X161364314Y-109470000D01*
X160148000Y-109470000D01*
X160148000Y-110117844D01*
X160154401Y-110177372D01*
X160154403Y-110177379D01*
X160204645Y-110312086D01*
X160204649Y-110312093D01*
X160290809Y-110427187D01*
X160290812Y-110427190D01*
X160405906Y-110513350D01*
X160405913Y-110513354D01*
X160540620Y-110563596D01*
X160540627Y-110563598D01*
X160600155Y-110569999D01*
X160600172Y-110570000D01*
X161548000Y-110570000D01*
X161548000Y-109655501D01*
X161655685Y-109704680D01*
X161762237Y-109720000D01*
X161833763Y-109720000D01*
X161940315Y-109704680D01*
X162048000Y-109655501D01*
X162048000Y-110570000D01*
X162995828Y-110570000D01*
X162995844Y-110569999D01*
X163055372Y-110563598D01*
X163055379Y-110563596D01*
X163190086Y-110513354D01*
X163190093Y-110513350D01*
X163305187Y-110427190D01*
X163305190Y-110427187D01*
X163391350Y-110312093D01*
X163391354Y-110312086D01*
X163441596Y-110177379D01*
X163441598Y-110177372D01*
X163447999Y-110117844D01*
X163448000Y-110117827D01*
X163448000Y-109470000D01*
X162231686Y-109470000D01*
X162257493Y-109429844D01*
X162298000Y-109291889D01*
X162298000Y-109148111D01*
X162257493Y-109010156D01*
X162231686Y-108970000D01*
X163448000Y-108970000D01*
X163448000Y-108322172D01*
X163447999Y-108322155D01*
X163441598Y-108262627D01*
X163441596Y-108262620D01*
X163391354Y-108127913D01*
X163391350Y-108127906D01*
X163305190Y-108012812D01*
X163305187Y-108012809D01*
X163190093Y-107926649D01*
X163190086Y-107926645D01*
X163055379Y-107876403D01*
X163055372Y-107876401D01*
X162995844Y-107870000D01*
X162595187Y-107870000D01*
X162528148Y-107850315D01*
X162482393Y-107797511D01*
X162472449Y-107728353D01*
X162501474Y-107664797D01*
X162536733Y-107636642D01*
X162541255Y-107634225D01*
X162684450Y-107557685D01*
X162844410Y-107426410D01*
X162844414Y-107426404D01*
X162848720Y-107422100D01*
X162848743Y-107422123D01*
X162851078Y-107419723D01*
X162850894Y-107419549D01*
X162855080Y-107415124D01*
X162855083Y-107415123D01*
X163814020Y-106401711D01*
X163819834Y-106392606D01*
X163836655Y-106371669D01*
X164556210Y-105652115D01*
X164560172Y-105648484D01*
X164591194Y-105622455D01*
X164611444Y-105587379D01*
X164614328Y-105582852D01*
X164637554Y-105549684D01*
X164637554Y-105549681D01*
X164639819Y-105544824D01*
X164646747Y-105528099D01*
X164648587Y-105523046D01*
X164648588Y-105523045D01*
X164655621Y-105483150D01*
X164656777Y-105477937D01*
X164667263Y-105438807D01*
X164663735Y-105398489D01*
X164663500Y-105393086D01*
X164663500Y-83328920D01*
X164663736Y-83323513D01*
X164667264Y-83283191D01*
X164666800Y-83277894D01*
X164663500Y-83252820D01*
X164663500Y-76978912D01*
X164663736Y-76973506D01*
X164664651Y-76963053D01*
X164667263Y-76933193D01*
X164667262Y-76933192D01*
X164667263Y-76933191D01*
X164656785Y-76894090D01*
X164655618Y-76888830D01*
X164648588Y-76848955D01*
X164648587Y-76848953D01*
X164646760Y-76843933D01*
X164639820Y-76827176D01*
X164637554Y-76822319D01*
X164637554Y-76822316D01*
X164614339Y-76789162D01*
X164611433Y-76784599D01*
X164591196Y-76749548D01*
X164591195Y-76749547D01*
X164591194Y-76749545D01*
X164560177Y-76723518D01*
X164556193Y-76719867D01*
X163407085Y-75570759D01*
X162200962Y-74364636D01*
X162197317Y-74360657D01*
X162171299Y-74329650D01*
X162171298Y-74329649D01*
X162159901Y-74323069D01*
X162136235Y-74309404D01*
X162131674Y-74306498D01*
X162118530Y-74297295D01*
X162098527Y-74283289D01*
X162098524Y-74283288D01*
X162093704Y-74281040D01*
X162076898Y-74274078D01*
X162071886Y-74272254D01*
X162032033Y-74265226D01*
X162026753Y-74264055D01*
X161987651Y-74253578D01*
X161976329Y-74254569D01*
X161907829Y-74240802D01*
X161895272Y-74233222D01*
X161576411Y-74014006D01*
X161573927Y-74012488D01*
X161566995Y-74008251D01*
X161559934Y-74004439D01*
X161559806Y-74004374D01*
X161547365Y-73998066D01*
X161537487Y-73993975D01*
X161479008Y-73982342D01*
X161471512Y-73981604D01*
X161464116Y-73980422D01*
X161461211Y-73979775D01*
X161461210Y-73979775D01*
X161452265Y-73979823D01*
X161452261Y-73979824D01*
X161452239Y-73979828D01*
X161451256Y-73979927D01*
X161446205Y-73980453D01*
X161446203Y-73980439D01*
X161427394Y-73982343D01*
X159539504Y-73982343D01*
X159481027Y-73993974D01*
X159481026Y-73993975D01*
X159414704Y-74038290D01*
X159370389Y-74104612D01*
X159370388Y-74104613D01*
X159358757Y-74163090D01*
X159358757Y-75002595D01*
X159370388Y-75061072D01*
X159370389Y-75061073D01*
X159414704Y-75127395D01*
X159481026Y-75171710D01*
X159481027Y-75171711D01*
X159539504Y-75183342D01*
X159539507Y-75183343D01*
X159539509Y-75183343D01*
X161479007Y-75183343D01*
X161485065Y-75182746D01*
X161485129Y-75183402D01*
X161491592Y-75182811D01*
X161491588Y-75182763D01*
X161498518Y-75182084D01*
X161498525Y-75182085D01*
X161507283Y-75180222D01*
X161507288Y-75180219D01*
X161513087Y-75178377D01*
X161513138Y-75178540D01*
X161530915Y-75173017D01*
X161537488Y-75171710D01*
X161546773Y-75165504D01*
X161566700Y-75154683D01*
X161580947Y-75148560D01*
X161782346Y-75010097D01*
X161848737Y-74988340D01*
X161916356Y-75005931D01*
X161940273Y-75024599D01*
X163976181Y-77060507D01*
X164009666Y-77121830D01*
X164012500Y-77148188D01*
X164012500Y-82226812D01*
X163992815Y-82293851D01*
X163940011Y-82339606D01*
X163870853Y-82349550D01*
X163807297Y-82320525D01*
X163800819Y-82314493D01*
X162036056Y-80549730D01*
X162033864Y-80547423D01*
X162029376Y-80542450D01*
X162023339Y-80535758D01*
X162023332Y-80535753D01*
X162018832Y-80531655D01*
X162018866Y-80531617D01*
X162012044Y-80525718D01*
X162003273Y-80516947D01*
X161977634Y-80491308D01*
X161973989Y-80487329D01*
X161947971Y-80456322D01*
X161947970Y-80456321D01*
X161936573Y-80449741D01*
X161912907Y-80436076D01*
X161908346Y-80433170D01*
X161895202Y-80423967D01*
X161875199Y-80409961D01*
X161875196Y-80409960D01*
X161870368Y-80407708D01*
X161853582Y-80400754D01*
X161848355Y-80398852D01*
X161816679Y-80381762D01*
X161690423Y-80287681D01*
X161649953Y-80235701D01*
X161648124Y-80231285D01*
X161648124Y-80231284D01*
X161613367Y-80179267D01*
X161603809Y-80164962D01*
X161537487Y-80120647D01*
X161537486Y-80120646D01*
X161479009Y-80109015D01*
X161479005Y-80109015D01*
X159539509Y-80109015D01*
X159539504Y-80109015D01*
X159481027Y-80120646D01*
X159481026Y-80120647D01*
X159414704Y-80164962D01*
X159370389Y-80231284D01*
X159370388Y-80231285D01*
X159358757Y-80289762D01*
X159358757Y-81129267D01*
X159370388Y-81187744D01*
X159370389Y-81187745D01*
X159414704Y-81254067D01*
X159481026Y-81298382D01*
X159481027Y-81298383D01*
X159539504Y-81310014D01*
X159539507Y-81310015D01*
X159539509Y-81310015D01*
X161413539Y-81310015D01*
X161417825Y-81310163D01*
X161423730Y-81310571D01*
X161423740Y-81310573D01*
X161427518Y-81310322D01*
X161430120Y-81310151D01*
X161434217Y-81310015D01*
X161479007Y-81310015D01*
X161488807Y-81308065D01*
X161498416Y-81306153D01*
X161506408Y-81305098D01*
X161514996Y-81304530D01*
X161523575Y-81301965D01*
X161523578Y-81301963D01*
X161528925Y-81300365D01*
X161534593Y-81298957D01*
X161537488Y-81298382D01*
X161562095Y-81281938D01*
X161567517Y-81278704D01*
X161594425Y-81264462D01*
X161637567Y-81229350D01*
X161701984Y-81202301D01*
X161770803Y-81214373D01*
X161803518Y-81237844D01*
X163976181Y-83410507D01*
X164009666Y-83471830D01*
X164012500Y-83498188D01*
X164012500Y-105223811D01*
X163992815Y-105290850D01*
X163976181Y-105311492D01*
X163477684Y-105809988D01*
X163416361Y-105843473D01*
X163368559Y-105844439D01*
X163363057Y-105843473D01*
X163320953Y-105836080D01*
X162407920Y-105675770D01*
X162400638Y-105674033D01*
X162303933Y-105644699D01*
X162303934Y-105644699D01*
X162184805Y-105632966D01*
X162149608Y-105629500D01*
X162149605Y-105629500D01*
X162148265Y-105629500D01*
X162144922Y-105629339D01*
X162143289Y-105629308D01*
X162135475Y-105629160D01*
X162079881Y-105628110D01*
X162073926Y-105628926D01*
X162065506Y-105629500D01*
X161446392Y-105629500D01*
X161408298Y-105633251D01*
X161292067Y-105644699D01*
X161094041Y-105704769D01*
X161086677Y-105708705D01*
X161078691Y-105712275D01*
X161075347Y-105713494D01*
X159766247Y-106342275D01*
X159712560Y-106354500D01*
X129298189Y-106354500D01*
X129231150Y-106334815D01*
X129210508Y-106318181D01*
X127032327Y-104140000D01*
X160442417Y-104140000D01*
X160462699Y-104345932D01*
X160462700Y-104345934D01*
X160522768Y-104543954D01*
X160620315Y-104726450D01*
X160620317Y-104726452D01*
X160751589Y-104886410D01*
X160848209Y-104965702D01*
X160911550Y-105017685D01*
X161094046Y-105115232D01*
X161292066Y-105175300D01*
X161292065Y-105175300D01*
X161330647Y-105179100D01*
X161446392Y-105190500D01*
X161446395Y-105190500D01*
X162149605Y-105190500D01*
X162149608Y-105190500D01*
X162303934Y-105175300D01*
X162501954Y-105115232D01*
X162684450Y-105017685D01*
X162844410Y-104886410D01*
X162975685Y-104726450D01*
X163073232Y-104543954D01*
X163133300Y-104345934D01*
X163153583Y-104140000D01*
X163133300Y-103934066D01*
X163073232Y-103736046D01*
X162975685Y-103553550D01*
X162923702Y-103490209D01*
X162844410Y-103393589D01*
X162684452Y-103262317D01*
X162684453Y-103262317D01*
X162684450Y-103262315D01*
X162501954Y-103164768D01*
X162303934Y-103104700D01*
X162303932Y-103104699D01*
X162303934Y-103104699D01*
X162184805Y-103092966D01*
X162149608Y-103089500D01*
X161446392Y-103089500D01*
X161408298Y-103093251D01*
X161292067Y-103104699D01*
X161094043Y-103164769D01*
X161015444Y-103206782D01*
X160911550Y-103262315D01*
X160911548Y-103262316D01*
X160911547Y-103262317D01*
X160751589Y-103393589D01*
X160620317Y-103553547D01*
X160522769Y-103736043D01*
X160462699Y-103934067D01*
X160442417Y-104140000D01*
X127032327Y-104140000D01*
X126629663Y-103737336D01*
X126597256Y-103680555D01*
X126213815Y-102190266D01*
X126210330Y-102169626D01*
X126199108Y-102034179D01*
X126138063Y-101793119D01*
X126038173Y-101565393D01*
X125926240Y-101394066D01*
X125902166Y-101357217D01*
X125835225Y-101284500D01*
X125733744Y-101174262D01*
X125537509Y-101021526D01*
X125537507Y-101021525D01*
X125537506Y-101021524D01*
X125318811Y-100903172D01*
X125318802Y-100903169D01*
X125083616Y-100822429D01*
X124838335Y-100781500D01*
X124589665Y-100781500D01*
X124344383Y-100822429D01*
X124109197Y-100903169D01*
X124109188Y-100903172D01*
X123890493Y-101021524D01*
X123694257Y-101174261D01*
X123525833Y-101357217D01*
X123389826Y-101565393D01*
X123289936Y-101793118D01*
X123228892Y-102034175D01*
X123228890Y-102034187D01*
X123208357Y-102281994D01*
X123208357Y-102282005D01*
X120467500Y-102282005D01*
X120467500Y-98629844D01*
X122914000Y-98629844D01*
X122920401Y-98689372D01*
X122920403Y-98689379D01*
X122970645Y-98824086D01*
X122970649Y-98824093D01*
X123056809Y-98939187D01*
X123056812Y-98939190D01*
X123171906Y-99025350D01*
X123171913Y-99025354D01*
X123306620Y-99075596D01*
X123306627Y-99075598D01*
X123366155Y-99081999D01*
X123366172Y-99082000D01*
X124464000Y-99082000D01*
X124464000Y-97886310D01*
X124472817Y-97891158D01*
X124631886Y-97932000D01*
X124754894Y-97932000D01*
X124876933Y-97916583D01*
X124964000Y-97882110D01*
X124964000Y-99082000D01*
X126061828Y-99082000D01*
X126061844Y-99081999D01*
X126121372Y-99075598D01*
X126121379Y-99075596D01*
X126256086Y-99025354D01*
X126256093Y-99025350D01*
X126371187Y-98939190D01*
X126371190Y-98939187D01*
X126457350Y-98824093D01*
X126457354Y-98824086D01*
X126507596Y-98689379D01*
X126507598Y-98689372D01*
X126513999Y-98629844D01*
X126514000Y-98629827D01*
X126514000Y-97532000D01*
X125314728Y-97532000D01*
X125337100Y-97484457D01*
X125367873Y-97323138D01*
X125357561Y-97159234D01*
X125316220Y-97032000D01*
X126514000Y-97032000D01*
X126514000Y-95934172D01*
X126513999Y-95934155D01*
X126507598Y-95874627D01*
X126507596Y-95874620D01*
X126457354Y-95739913D01*
X126457350Y-95739906D01*
X126371190Y-95624812D01*
X126371187Y-95624809D01*
X126256093Y-95538649D01*
X126256086Y-95538645D01*
X126121379Y-95488403D01*
X126121372Y-95488401D01*
X126061844Y-95482000D01*
X124964000Y-95482000D01*
X124964000Y-96677689D01*
X124955183Y-96672842D01*
X124796114Y-96632000D01*
X124673106Y-96632000D01*
X124551067Y-96647417D01*
X124464000Y-96681889D01*
X124464000Y-95482000D01*
X123366155Y-95482000D01*
X123306627Y-95488401D01*
X123306620Y-95488403D01*
X123171913Y-95538645D01*
X123171906Y-95538649D01*
X123056812Y-95624809D01*
X123056809Y-95624812D01*
X122970649Y-95739906D01*
X122970645Y-95739913D01*
X122920403Y-95874620D01*
X122920401Y-95874627D01*
X122914000Y-95934155D01*
X122914000Y-97032000D01*
X124113272Y-97032000D01*
X124090900Y-97079543D01*
X124060127Y-97240862D01*
X124070439Y-97404766D01*
X124111780Y-97532000D01*
X122914000Y-97532000D01*
X122914000Y-98629844D01*
X120467500Y-98629844D01*
X120467500Y-87371048D01*
X120487185Y-87304009D01*
X120539989Y-87258254D01*
X120609147Y-87248310D01*
X120660393Y-87267947D01*
X120661769Y-87268867D01*
X120700267Y-87276524D01*
X120762177Y-87308909D01*
X120796142Y-87367161D01*
X120828567Y-87492826D01*
X120832500Y-87523807D01*
X120832500Y-91931078D01*
X120832264Y-91936485D01*
X120828735Y-91976808D01*
X120839212Y-92015910D01*
X120840383Y-92021190D01*
X120847411Y-92061043D01*
X120849235Y-92066055D01*
X120856197Y-92082861D01*
X120858445Y-92087681D01*
X120858446Y-92087684D01*
X120872452Y-92107687D01*
X120881655Y-92120831D01*
X120884561Y-92125392D01*
X120904806Y-92160455D01*
X120935815Y-92186475D01*
X120939805Y-92190131D01*
X122185868Y-93436195D01*
X122189523Y-93440184D01*
X122215541Y-93471190D01*
X122215543Y-93471191D01*
X122215545Y-93471194D01*
X122250605Y-93491435D01*
X122255159Y-93494337D01*
X122288316Y-93517554D01*
X122288319Y-93517554D01*
X122293176Y-93519820D01*
X122309933Y-93526760D01*
X122314953Y-93528587D01*
X122314955Y-93528588D01*
X122354830Y-93535618D01*
X122360087Y-93536784D01*
X122399193Y-93547263D01*
X122439510Y-93543735D01*
X122444912Y-93543500D01*
X126305812Y-93543500D01*
X126372851Y-93563185D01*
X126393493Y-93579819D01*
X135393863Y-102580189D01*
X135397518Y-102584178D01*
X135423541Y-102615190D01*
X135423543Y-102615191D01*
X135423545Y-102615194D01*
X135423547Y-102615195D01*
X135423548Y-102615196D01*
X135458599Y-102635433D01*
X135463162Y-102638339D01*
X135496316Y-102661554D01*
X135496319Y-102661554D01*
X135501176Y-102663820D01*
X135517933Y-102670760D01*
X135522953Y-102672587D01*
X135522955Y-102672588D01*
X135558806Y-102678909D01*
X135562808Y-102679615D01*
X135568080Y-102680783D01*
X135607193Y-102691264D01*
X135647522Y-102687735D01*
X135652924Y-102687500D01*
X157209078Y-102687500D01*
X157214481Y-102687735D01*
X157254807Y-102691264D01*
X157293940Y-102680777D01*
X157299162Y-102679619D01*
X157339045Y-102672588D01*
X157339050Y-102672584D01*
X157344099Y-102670747D01*
X157360824Y-102663819D01*
X157365681Y-102661554D01*
X157365684Y-102661554D01*
X157398841Y-102638335D01*
X157403390Y-102635438D01*
X157438455Y-102615194D01*
X157438459Y-102615190D01*
X157464476Y-102584182D01*
X157468122Y-102580202D01*
X158448324Y-101600000D01*
X160442417Y-101600000D01*
X160462699Y-101805932D01*
X160462700Y-101805934D01*
X160522768Y-102003954D01*
X160620315Y-102186450D01*
X160620317Y-102186452D01*
X160751589Y-102346410D01*
X160848209Y-102425702D01*
X160911550Y-102477685D01*
X161094046Y-102575232D01*
X161292066Y-102635300D01*
X161292065Y-102635300D01*
X161322931Y-102638340D01*
X161446392Y-102650500D01*
X161446395Y-102650500D01*
X162149605Y-102650500D01*
X162149608Y-102650500D01*
X162303934Y-102635300D01*
X162501954Y-102575232D01*
X162684450Y-102477685D01*
X162844410Y-102346410D01*
X162975685Y-102186450D01*
X163073232Y-102003954D01*
X163133300Y-101805934D01*
X163153583Y-101600000D01*
X163133300Y-101394066D01*
X163073232Y-101196046D01*
X162975685Y-101013550D01*
X162897845Y-100918701D01*
X162844410Y-100853589D01*
X162684452Y-100722317D01*
X162684453Y-100722317D01*
X162684450Y-100722315D01*
X162501954Y-100624768D01*
X162303934Y-100564700D01*
X162303932Y-100564699D01*
X162303934Y-100564699D01*
X162184805Y-100552966D01*
X162149608Y-100549500D01*
X161446392Y-100549500D01*
X161408298Y-100553251D01*
X161292067Y-100564699D01*
X161094043Y-100624769D01*
X160983898Y-100683643D01*
X160911550Y-100722315D01*
X160911548Y-100722316D01*
X160911547Y-100722317D01*
X160751589Y-100853589D01*
X160620317Y-101013547D01*
X160522769Y-101196043D01*
X160462699Y-101394067D01*
X160442417Y-101600000D01*
X158448324Y-101600000D01*
X160118317Y-99930007D01*
X160179638Y-99896524D01*
X160227435Y-99895558D01*
X160825310Y-100000532D01*
X161188074Y-100064227D01*
X161195356Y-100065964D01*
X161233568Y-100077555D01*
X161292066Y-100095300D01*
X161292065Y-100095300D01*
X161330647Y-100099100D01*
X161446392Y-100110500D01*
X161447743Y-100110500D01*
X161451045Y-100110659D01*
X161452704Y-100110690D01*
X161452708Y-100110691D01*
X161510282Y-100111778D01*
X161516106Y-100111889D01*
X161516106Y-100111888D01*
X161516109Y-100111889D01*
X161522072Y-100111072D01*
X161530486Y-100110500D01*
X162149605Y-100110500D01*
X162149608Y-100110500D01*
X162303934Y-100095300D01*
X162501954Y-100035232D01*
X162684450Y-99937685D01*
X162844410Y-99806410D01*
X162975685Y-99646450D01*
X163073232Y-99463954D01*
X163133300Y-99265934D01*
X163153583Y-99060000D01*
X163133300Y-98854066D01*
X163073232Y-98656046D01*
X162975685Y-98473550D01*
X162897845Y-98378701D01*
X162844410Y-98313589D01*
X162684452Y-98182317D01*
X162684453Y-98182317D01*
X162684450Y-98182315D01*
X162501954Y-98084768D01*
X162303934Y-98024700D01*
X162303932Y-98024699D01*
X162303934Y-98024699D01*
X162184805Y-98012966D01*
X162149608Y-98009500D01*
X161446392Y-98009500D01*
X161408298Y-98013251D01*
X161292067Y-98024699D01*
X161094043Y-98084769D01*
X160983898Y-98143643D01*
X160911550Y-98182315D01*
X160911548Y-98182316D01*
X160911547Y-98182317D01*
X160751590Y-98313589D01*
X160747290Y-98317890D01*
X160747267Y-98317867D01*
X160744920Y-98320281D01*
X160745102Y-98320453D01*
X160740919Y-98324873D01*
X160740917Y-98324875D01*
X159850444Y-99265934D01*
X159781978Y-99338289D01*
X159781973Y-99338295D01*
X159776159Y-99347399D01*
X159759336Y-99368335D01*
X157127493Y-102000181D01*
X157066170Y-102033666D01*
X157039812Y-102036500D01*
X135822188Y-102036500D01*
X135755149Y-102016815D01*
X135734507Y-102000181D01*
X131253789Y-97519463D01*
X126734119Y-92999793D01*
X126730474Y-92995814D01*
X126704456Y-92964807D01*
X126704455Y-92964806D01*
X126693058Y-92958226D01*
X126669392Y-92944561D01*
X126664831Y-92941655D01*
X126647471Y-92929500D01*
X126631684Y-92918446D01*
X126631681Y-92918445D01*
X126626861Y-92916197D01*
X126610055Y-92909235D01*
X126605043Y-92907411D01*
X126565190Y-92900383D01*
X126559910Y-92899212D01*
X126520808Y-92888735D01*
X126485892Y-92891790D01*
X126480481Y-92892264D01*
X126475078Y-92892500D01*
X122614189Y-92892500D01*
X122547150Y-92872815D01*
X122526508Y-92856181D01*
X121519819Y-91849492D01*
X121486334Y-91788169D01*
X121483500Y-91761811D01*
X121483500Y-91058363D01*
X121503185Y-90991324D01*
X121555989Y-90945569D01*
X121625147Y-90935625D01*
X121688703Y-90964650D01*
X121713039Y-90993266D01*
X121771684Y-91088345D01*
X121895654Y-91212315D01*
X122044875Y-91304356D01*
X122044880Y-91304358D01*
X122211302Y-91359505D01*
X122211309Y-91359506D01*
X122314019Y-91369999D01*
X122463999Y-91369999D01*
X122964000Y-91369999D01*
X123113972Y-91369999D01*
X123113986Y-91369998D01*
X123216697Y-91359505D01*
X123383119Y-91304358D01*
X123383124Y-91304356D01*
X123532345Y-91212315D01*
X123656315Y-91088345D01*
X123748356Y-90939124D01*
X123748359Y-90939117D01*
X123763300Y-90894028D01*
X123803072Y-90836583D01*
X123867587Y-90809759D01*
X123936363Y-90822073D01*
X123980775Y-90859396D01*
X124041850Y-90942150D01*
X124151118Y-91022793D01*
X124188993Y-91036046D01*
X124279299Y-91067646D01*
X124309730Y-91070500D01*
X124309734Y-91070500D01*
X125118270Y-91070500D01*
X125148699Y-91067646D01*
X125148701Y-91067646D01*
X125212790Y-91045219D01*
X125276882Y-91022793D01*
X125386150Y-90942150D01*
X125466793Y-90832882D01*
X125489219Y-90768790D01*
X125511646Y-90704701D01*
X125511646Y-90704699D01*
X125514500Y-90674269D01*
X125514500Y-89665730D01*
X125511646Y-89635300D01*
X125511646Y-89635298D01*
X125466793Y-89507118D01*
X125466792Y-89507115D01*
X125451539Y-89486450D01*
X125447525Y-89481012D01*
X125445108Y-89477487D01*
X125034882Y-88832767D01*
X125015500Y-88766200D01*
X125015500Y-88539611D01*
X125035185Y-88472572D01*
X125037319Y-88469361D01*
X125164583Y-88284250D01*
X125218784Y-88240159D01*
X125266764Y-88230500D01*
X125659750Y-88230500D01*
X125659751Y-88230499D01*
X125674568Y-88227552D01*
X125718229Y-88218868D01*
X125718229Y-88218867D01*
X125718231Y-88218867D01*
X125784552Y-88174552D01*
X125828867Y-88108231D01*
X125828867Y-88108229D01*
X125828868Y-88108229D01*
X125840499Y-88049752D01*
X125840500Y-88049750D01*
X125840500Y-87396187D01*
X125860185Y-87329148D01*
X125876814Y-87308511D01*
X127218204Y-85967120D01*
X127222166Y-85963489D01*
X127253194Y-85937455D01*
X127273438Y-85902390D01*
X127276335Y-85897841D01*
X127299554Y-85864684D01*
X127299554Y-85864681D01*
X127301819Y-85859824D01*
X127308747Y-85843099D01*
X127310584Y-85838050D01*
X127310588Y-85838045D01*
X127317619Y-85798162D01*
X127318777Y-85792940D01*
X127329264Y-85753807D01*
X127325735Y-85713478D01*
X127325500Y-85708075D01*
X127325500Y-83870936D01*
X128343131Y-83870936D01*
X128373942Y-84072063D01*
X128373945Y-84072075D01*
X128444611Y-84262881D01*
X128444615Y-84262888D01*
X128552245Y-84435567D01*
X128552249Y-84435572D01*
X128676620Y-84566410D01*
X128692441Y-84583053D01*
X128820844Y-84672424D01*
X128859449Y-84699294D01*
X128859450Y-84699294D01*
X128859451Y-84699295D01*
X129046442Y-84779540D01*
X129245759Y-84820500D01*
X129798243Y-84820500D01*
X129949939Y-84805074D01*
X130144079Y-84744162D01*
X130144080Y-84744161D01*
X130144088Y-84744159D01*
X130322002Y-84645409D01*
X130476395Y-84512866D01*
X130600948Y-84351958D01*
X130690560Y-84169271D01*
X130741563Y-83972285D01*
X130751869Y-83769064D01*
X130721056Y-83567929D01*
X130650386Y-83377113D01*
X130542752Y-83204429D01*
X130429890Y-83085699D01*
X130402561Y-83056949D01*
X130402560Y-83056948D01*
X130402559Y-83056947D01*
X130304087Y-82988409D01*
X130235550Y-82940705D01*
X130048556Y-82860459D01*
X129849241Y-82819500D01*
X129296758Y-82819500D01*
X129296757Y-82819500D01*
X129145060Y-82834925D01*
X128950920Y-82895837D01*
X128950905Y-82895844D01*
X128773000Y-82994589D01*
X128772995Y-82994592D01*
X128618606Y-83127132D01*
X128618604Y-83127134D01*
X128494054Y-83288037D01*
X128494053Y-83288040D01*
X128404440Y-83470728D01*
X128353437Y-83667714D01*
X128343131Y-83870936D01*
X127325500Y-83870936D01*
X127325500Y-82990187D01*
X127345185Y-82923148D01*
X127361815Y-82902510D01*
X128088180Y-82176144D01*
X128149501Y-82142661D01*
X128191427Y-82140809D01*
X129164363Y-82263957D01*
X129169028Y-82264731D01*
X129245759Y-82280500D01*
X129291143Y-82280500D01*
X129298926Y-82280990D01*
X129311399Y-82282569D01*
X129362418Y-82280500D01*
X129798242Y-82280500D01*
X129798243Y-82280500D01*
X129949939Y-82265074D01*
X130144079Y-82204162D01*
X130144080Y-82204161D01*
X130144088Y-82204159D01*
X130322002Y-82105409D01*
X130476395Y-81972866D01*
X130600948Y-81811958D01*
X130690560Y-81629271D01*
X130741563Y-81432285D01*
X130751869Y-81229064D01*
X130721056Y-81027929D01*
X130650386Y-80837113D01*
X130542752Y-80664429D01*
X130402559Y-80516947D01*
X130243440Y-80406197D01*
X130235550Y-80400705D01*
X130048556Y-80320459D01*
X129849241Y-80279500D01*
X129296758Y-80279500D01*
X129296757Y-80279500D01*
X129145060Y-80294925D01*
X128950920Y-80355837D01*
X128950905Y-80355844D01*
X128773000Y-80454589D01*
X128618600Y-80587138D01*
X128618599Y-80587139D01*
X128608276Y-80600476D01*
X128605972Y-80603279D01*
X127738861Y-81597365D01*
X127738859Y-81597366D01*
X127735739Y-81602596D01*
X127716942Y-81626729D01*
X126781803Y-82561870D01*
X126777814Y-82565525D01*
X126746805Y-82591545D01*
X126726562Y-82626606D01*
X126723656Y-82631166D01*
X126700446Y-82664313D01*
X126698206Y-82669117D01*
X126691229Y-82685961D01*
X126689410Y-82690959D01*
X126682383Y-82730811D01*
X126681212Y-82736091D01*
X126670735Y-82775191D01*
X126674264Y-82815513D01*
X126674500Y-82820920D01*
X126674500Y-85538812D01*
X126654815Y-85605851D01*
X126638181Y-85626493D01*
X126300018Y-85964656D01*
X126238695Y-85998141D01*
X126169003Y-85993157D01*
X126148531Y-85980000D01*
X124940000Y-85980000D01*
X124940000Y-86630000D01*
X125335312Y-86630000D01*
X125402351Y-86649685D01*
X125448106Y-86702489D01*
X125458050Y-86771647D01*
X125429025Y-86835203D01*
X125422993Y-86841681D01*
X125271493Y-86993181D01*
X125210170Y-87026666D01*
X125183812Y-87029500D01*
X123720247Y-87029500D01*
X123661770Y-87041131D01*
X123661769Y-87041132D01*
X123595447Y-87085447D01*
X123551132Y-87151769D01*
X123551131Y-87151770D01*
X123539500Y-87210247D01*
X123539500Y-88049752D01*
X123551131Y-88108229D01*
X123551132Y-88108230D01*
X123595447Y-88174552D01*
X123661769Y-88218867D01*
X123661770Y-88218868D01*
X123720247Y-88230499D01*
X123720250Y-88230500D01*
X123720252Y-88230500D01*
X124113235Y-88230500D01*
X124180274Y-88250185D01*
X124215416Y-88284250D01*
X124342681Y-88469361D01*
X124364440Y-88535756D01*
X124364500Y-88539611D01*
X124364500Y-88773599D01*
X124348105Y-88835220D01*
X123987435Y-89465040D01*
X123937039Y-89513433D01*
X123868479Y-89526898D01*
X123803523Y-89501159D01*
X123762794Y-89444389D01*
X123762124Y-89442423D01*
X123748358Y-89400880D01*
X123748356Y-89400875D01*
X123656315Y-89251654D01*
X123532345Y-89127684D01*
X123383124Y-89035643D01*
X123383119Y-89035641D01*
X123216697Y-88980494D01*
X123216690Y-88980493D01*
X123113986Y-88970000D01*
X122964000Y-88970000D01*
X122964000Y-91369999D01*
X122463999Y-91369999D01*
X122464000Y-91369998D01*
X122464000Y-88970000D01*
X122314027Y-88970000D01*
X122314012Y-88970001D01*
X122211302Y-88980494D01*
X122044880Y-89035641D01*
X122044875Y-89035643D01*
X121895654Y-89127684D01*
X121771683Y-89251655D01*
X121771680Y-89251659D01*
X121713038Y-89346733D01*
X121661090Y-89393458D01*
X121592128Y-89404679D01*
X121528046Y-89376836D01*
X121489190Y-89318767D01*
X121483500Y-89281636D01*
X121483500Y-87649274D01*
X121503185Y-87582235D01*
X121542243Y-87543835D01*
X121863812Y-87344826D01*
X121937765Y-87299059D01*
X122003019Y-87280500D01*
X122659750Y-87280500D01*
X122659751Y-87280499D01*
X122679737Y-87276524D01*
X122718229Y-87268868D01*
X122718229Y-87268867D01*
X122718231Y-87268867D01*
X122784552Y-87224552D01*
X122828867Y-87158231D01*
X122828867Y-87158229D01*
X122828868Y-87158229D01*
X122840499Y-87099752D01*
X122840500Y-87099750D01*
X122840500Y-86260249D01*
X122840499Y-86260247D01*
X122828868Y-86201770D01*
X122828867Y-86201769D01*
X122784552Y-86135447D01*
X122718230Y-86091132D01*
X122718229Y-86091131D01*
X122659752Y-86079500D01*
X122659748Y-86079500D01*
X120720252Y-86079500D01*
X120720247Y-86079500D01*
X120661770Y-86091131D01*
X120661767Y-86091133D01*
X120660388Y-86092055D01*
X120656924Y-86093139D01*
X120650487Y-86095806D01*
X120650248Y-86095229D01*
X120593710Y-86112931D01*
X120526330Y-86094445D01*
X120479642Y-86042465D01*
X120467500Y-85988951D01*
X120467500Y-85980000D01*
X123240000Y-85980000D01*
X123240000Y-86177844D01*
X123246401Y-86237372D01*
X123246403Y-86237379D01*
X123296645Y-86372086D01*
X123296649Y-86372093D01*
X123382809Y-86487187D01*
X123382812Y-86487190D01*
X123497906Y-86573350D01*
X123497913Y-86573354D01*
X123632620Y-86623596D01*
X123632627Y-86623598D01*
X123692155Y-86629999D01*
X123692172Y-86630000D01*
X124440000Y-86630000D01*
X124440000Y-85980000D01*
X123240000Y-85980000D01*
X120467500Y-85980000D01*
X120467500Y-85480000D01*
X123240000Y-85480000D01*
X124440000Y-85480000D01*
X124440000Y-84830000D01*
X124940000Y-84830000D01*
X124940000Y-85480000D01*
X126140000Y-85480000D01*
X126140000Y-85282172D01*
X126139999Y-85282155D01*
X126133598Y-85222627D01*
X126133596Y-85222620D01*
X126083354Y-85087913D01*
X126083350Y-85087906D01*
X125997190Y-84972812D01*
X125997187Y-84972809D01*
X125882093Y-84886649D01*
X125882086Y-84886645D01*
X125747379Y-84836403D01*
X125747372Y-84836401D01*
X125687844Y-84830000D01*
X124940000Y-84830000D01*
X124440000Y-84830000D01*
X123692155Y-84830000D01*
X123632627Y-84836401D01*
X123632620Y-84836403D01*
X123497913Y-84886645D01*
X123497906Y-84886649D01*
X123382812Y-84972809D01*
X123382809Y-84972812D01*
X123296649Y-85087906D01*
X123296645Y-85087913D01*
X123246403Y-85222620D01*
X123246401Y-85222627D01*
X123240000Y-85282155D01*
X123240000Y-85480000D01*
X120467500Y-85480000D01*
X120467500Y-84006188D01*
X120487185Y-83939149D01*
X120503819Y-83918507D01*
X120854402Y-83567924D01*
X121325834Y-83096491D01*
X121387155Y-83063008D01*
X121456846Y-83067992D01*
X121490938Y-83087316D01*
X121540748Y-83127132D01*
X121795993Y-83331167D01*
X121797122Y-83331761D01*
X121813026Y-83341731D01*
X121897118Y-83403793D01*
X121916306Y-83410507D01*
X122025299Y-83448646D01*
X122055730Y-83451500D01*
X122055734Y-83451500D01*
X122864270Y-83451500D01*
X122894699Y-83448646D01*
X122894701Y-83448646D01*
X122958790Y-83426219D01*
X123022882Y-83403793D01*
X123132150Y-83323150D01*
X123212793Y-83213882D01*
X123235219Y-83149790D01*
X123257646Y-83085701D01*
X123257646Y-83085699D01*
X123260500Y-83055269D01*
X123260500Y-82046730D01*
X123257646Y-82016300D01*
X123257646Y-82016298D01*
X123221891Y-81914119D01*
X123212793Y-81888118D01*
X123132150Y-81778850D01*
X123022882Y-81698207D01*
X123022880Y-81698206D01*
X122894700Y-81653353D01*
X122864270Y-81650500D01*
X122864266Y-81650500D01*
X122055734Y-81650500D01*
X122055730Y-81650500D01*
X122025300Y-81653353D01*
X122025298Y-81653353D01*
X121897119Y-81698206D01*
X121897117Y-81698207D01*
X121787849Y-81778850D01*
X121731644Y-81855004D01*
X121712348Y-81875709D01*
X121631029Y-81945075D01*
X121278578Y-82245717D01*
X121273900Y-82249336D01*
X121252595Y-82264254D01*
X121239157Y-82273662D01*
X121234603Y-82276564D01*
X121199546Y-82296805D01*
X121199542Y-82296809D01*
X121173523Y-82327815D01*
X121169869Y-82331803D01*
X121126415Y-82375256D01*
X121122811Y-82378586D01*
X121089203Y-82407255D01*
X121085474Y-82410706D01*
X121085474Y-82410707D01*
X121079164Y-82419767D01*
X121065092Y-82436579D01*
X119923803Y-83577870D01*
X119919814Y-83581525D01*
X119888805Y-83607545D01*
X119868562Y-83642606D01*
X119865656Y-83647166D01*
X119842446Y-83680313D01*
X119840206Y-83685117D01*
X119833229Y-83701961D01*
X119831410Y-83706959D01*
X119824383Y-83746811D01*
X119823212Y-83752091D01*
X119812735Y-83791191D01*
X119816264Y-83831513D01*
X119816500Y-83836920D01*
X119816500Y-104377078D01*
X119816264Y-104382485D01*
X119812735Y-104422808D01*
X115062500Y-104422808D01*
X115062500Y-78991000D01*
X121360001Y-78991000D01*
X121360001Y-79240986D01*
X121370494Y-79343697D01*
X121425641Y-79510119D01*
X121425643Y-79510124D01*
X121517684Y-79659345D01*
X121641654Y-79783315D01*
X121790875Y-79875356D01*
X121790880Y-79875358D01*
X121957302Y-79930505D01*
X121957309Y-79930506D01*
X122060019Y-79940999D01*
X122209999Y-79940999D01*
X122210000Y-79940998D01*
X122210000Y-78991000D01*
X121360001Y-78991000D01*
X115062500Y-78991000D01*
X115062500Y-78491000D01*
X121360000Y-78491000D01*
X122210000Y-78491000D01*
X122210000Y-77541000D01*
X122710000Y-77541000D01*
X122710000Y-79940999D01*
X122859972Y-79940999D01*
X122859986Y-79940998D01*
X122962697Y-79930505D01*
X123129119Y-79875358D01*
X123129124Y-79875356D01*
X123278345Y-79783315D01*
X123402315Y-79659345D01*
X123494356Y-79510124D01*
X123494356Y-79510122D01*
X123508729Y-79466748D01*
X123548501Y-79409302D01*
X123613016Y-79382478D01*
X123681792Y-79394792D01*
X123732555Y-79441604D01*
X123968184Y-79831412D01*
X124102571Y-80053734D01*
X124116619Y-80076973D01*
X124134500Y-80141119D01*
X124134500Y-81150879D01*
X124116619Y-81215025D01*
X123722759Y-81866601D01*
X123719584Y-81871346D01*
X123707209Y-81888113D01*
X123707206Y-81888120D01*
X123698108Y-81914119D01*
X123696690Y-81917794D01*
X123685151Y-81945075D01*
X123683466Y-81951495D01*
X123682184Y-81957853D01*
X123679927Y-81966074D01*
X123662353Y-82016301D01*
X123662353Y-82016305D01*
X123659500Y-82046730D01*
X123659500Y-83055269D01*
X123662353Y-83085699D01*
X123662353Y-83085701D01*
X123703899Y-83204429D01*
X123707207Y-83213882D01*
X123787850Y-83323150D01*
X123897118Y-83403793D01*
X123916306Y-83410507D01*
X124025299Y-83448646D01*
X124055730Y-83451500D01*
X124055734Y-83451500D01*
X124864270Y-83451500D01*
X124894699Y-83448646D01*
X124894701Y-83448646D01*
X124958790Y-83426219D01*
X125022882Y-83403793D01*
X125132150Y-83323150D01*
X125212793Y-83213882D01*
X125235219Y-83149790D01*
X125257646Y-83085701D01*
X125257646Y-83085699D01*
X125260500Y-83055269D01*
X125260500Y-82046730D01*
X125257646Y-82016303D01*
X125257646Y-82016301D01*
X125212793Y-81888118D01*
X125200396Y-81871320D01*
X125197246Y-81866612D01*
X124811867Y-81229064D01*
X124803381Y-81215025D01*
X124785500Y-81150879D01*
X124785500Y-80141118D01*
X124803381Y-80076972D01*
X124817428Y-80053734D01*
X125123229Y-79547833D01*
X125167632Y-79504430D01*
X125694821Y-79201945D01*
X125756529Y-79185500D01*
X127696677Y-79185500D01*
X127741638Y-79193938D01*
X128958200Y-79667258D01*
X128976715Y-79671636D01*
X128997082Y-79678358D01*
X129046439Y-79699539D01*
X129046440Y-79699539D01*
X129046442Y-79699540D01*
X129245759Y-79740500D01*
X129798243Y-79740500D01*
X129949939Y-79725074D01*
X130144079Y-79664162D01*
X130144080Y-79664161D01*
X130144088Y-79664159D01*
X130322002Y-79565409D01*
X130476395Y-79432866D01*
X130600948Y-79271958D01*
X130690560Y-79089271D01*
X130741563Y-78892285D01*
X130751869Y-78689064D01*
X130721056Y-78487929D01*
X130674295Y-78361670D01*
X130650388Y-78297118D01*
X130650387Y-78297117D01*
X130650386Y-78297113D01*
X130542752Y-78124429D01*
X130402559Y-77976947D01*
X130304087Y-77908409D01*
X130235550Y-77860705D01*
X130048556Y-77780459D01*
X129849241Y-77739500D01*
X129296758Y-77739500D01*
X129296757Y-77739500D01*
X129145060Y-77754925D01*
X128950920Y-77815837D01*
X128950905Y-77815844D01*
X128773003Y-77914587D01*
X128772995Y-77914592D01*
X128767247Y-77919527D01*
X128748541Y-77932789D01*
X127736392Y-78517855D01*
X127674336Y-78534500D01*
X125789144Y-78534500D01*
X125722105Y-78514815D01*
X125707688Y-78503993D01*
X125689258Y-78487936D01*
X125212066Y-78072177D01*
X125193752Y-78052318D01*
X125188950Y-78045811D01*
X125132150Y-77968850D01*
X125022882Y-77888207D01*
X125022880Y-77888206D01*
X124894700Y-77843353D01*
X124864270Y-77840500D01*
X124864266Y-77840500D01*
X124055734Y-77840500D01*
X124055730Y-77840500D01*
X124025300Y-77843353D01*
X124025298Y-77843353D01*
X123897119Y-77888206D01*
X123897117Y-77888207D01*
X123787850Y-77968850D01*
X123726776Y-78051602D01*
X123671128Y-78093853D01*
X123601472Y-78099311D01*
X123539923Y-78066243D01*
X123509300Y-78016972D01*
X123494358Y-77971880D01*
X123494356Y-77971875D01*
X123402315Y-77822654D01*
X123278345Y-77698684D01*
X123129124Y-77606643D01*
X123129119Y-77606641D01*
X122962697Y-77551494D01*
X122962690Y-77551493D01*
X122859986Y-77541000D01*
X122710000Y-77541000D01*
X122210000Y-77541000D01*
X122060027Y-77541000D01*
X122060012Y-77541001D01*
X121957302Y-77551494D01*
X121790880Y-77606641D01*
X121790875Y-77606643D01*
X121641654Y-77698684D01*
X121517684Y-77822654D01*
X121425643Y-77971875D01*
X121425641Y-77971880D01*
X121370494Y-78138302D01*
X121370493Y-78138309D01*
X121360000Y-78241013D01*
X121360000Y-78491000D01*
X115062500Y-78491000D01*
X115062500Y-76250936D01*
X128343131Y-76250936D01*
X128373942Y-76452063D01*
X128373945Y-76452075D01*
X128444611Y-76642881D01*
X128444615Y-76642888D01*
X128552245Y-76815567D01*
X128552247Y-76815569D01*
X128552248Y-76815571D01*
X128692441Y-76963053D01*
X128820844Y-77052424D01*
X128859449Y-77079294D01*
X128859450Y-77079294D01*
X128859451Y-77079295D01*
X129046442Y-77159540D01*
X129245759Y-77200500D01*
X129798243Y-77200500D01*
X129949939Y-77185074D01*
X130144079Y-77124162D01*
X130144080Y-77124161D01*
X130144088Y-77124159D01*
X130322002Y-77025409D01*
X130476395Y-76892866D01*
X130600948Y-76731958D01*
X130690560Y-76549271D01*
X130741563Y-76352285D01*
X130751869Y-76149064D01*
X130721056Y-75947929D01*
X130650386Y-75757113D01*
X130542752Y-75584429D01*
X130417060Y-75452202D01*
X130402561Y-75436949D01*
X130402560Y-75436948D01*
X130402559Y-75436947D01*
X130298912Y-75364807D01*
X130235550Y-75320705D01*
X130048556Y-75240459D01*
X129849241Y-75199500D01*
X129296758Y-75199500D01*
X129296757Y-75199500D01*
X129145060Y-75214925D01*
X128950920Y-75275837D01*
X128950905Y-75275844D01*
X128773000Y-75374589D01*
X128772995Y-75374592D01*
X128618606Y-75507132D01*
X128618604Y-75507134D01*
X128494054Y-75668037D01*
X128494053Y-75668040D01*
X128404440Y-75850728D01*
X128353437Y-76047714D01*
X128343131Y-76250936D01*
X115062500Y-76250936D01*
X115062500Y-75181000D01*
X121360001Y-75181000D01*
X121360001Y-75430986D01*
X121370494Y-75533697D01*
X121425641Y-75700119D01*
X121425643Y-75700124D01*
X121517684Y-75849345D01*
X121641654Y-75973315D01*
X121790875Y-76065356D01*
X121790880Y-76065358D01*
X121957302Y-76120505D01*
X121957309Y-76120506D01*
X122060019Y-76130999D01*
X122209999Y-76130999D01*
X122710000Y-76130999D01*
X122859972Y-76130999D01*
X122859986Y-76130998D01*
X122962697Y-76120505D01*
X123129119Y-76065358D01*
X123129124Y-76065356D01*
X123278345Y-75973315D01*
X123402315Y-75849345D01*
X123494356Y-75700124D01*
X123494359Y-75700117D01*
X123509300Y-75655028D01*
X123549072Y-75597583D01*
X123613587Y-75570759D01*
X123682363Y-75583073D01*
X123726775Y-75620396D01*
X123787850Y-75703150D01*
X123897118Y-75783793D01*
X123939845Y-75798744D01*
X124025299Y-75828646D01*
X124055730Y-75831500D01*
X124055734Y-75831500D01*
X124864270Y-75831500D01*
X124894699Y-75828646D01*
X124894701Y-75828646D01*
X124958790Y-75806219D01*
X125022882Y-75783793D01*
X125132150Y-75703150D01*
X125212793Y-75593882D01*
X125235219Y-75529790D01*
X125257646Y-75465701D01*
X125257646Y-75465699D01*
X125260500Y-75435269D01*
X125260500Y-74426730D01*
X125257646Y-74396300D01*
X125257646Y-74396298D01*
X125224006Y-74300163D01*
X125212793Y-74268118D01*
X125182123Y-74226561D01*
X125180459Y-74224193D01*
X124837550Y-73710936D01*
X128343131Y-73710936D01*
X128373942Y-73912063D01*
X128373945Y-73912075D01*
X128444611Y-74102881D01*
X128444613Y-74102884D01*
X128444614Y-74102887D01*
X128449717Y-74111074D01*
X128552245Y-74275567D01*
X128552247Y-74275569D01*
X128552248Y-74275571D01*
X128583127Y-74308055D01*
X128636922Y-74364648D01*
X128692441Y-74423053D01*
X128820844Y-74512424D01*
X128859449Y-74539294D01*
X128859450Y-74539294D01*
X128859451Y-74539295D01*
X129046442Y-74619540D01*
X129245759Y-74660500D01*
X129798243Y-74660500D01*
X129949939Y-74645074D01*
X129998475Y-74629845D01*
X130144088Y-74584159D01*
X130148702Y-74581597D01*
X130152183Y-74579807D01*
X131262969Y-74052593D01*
X131379091Y-73997478D01*
X131432260Y-73985500D01*
X139259812Y-73985500D01*
X139326851Y-74005185D01*
X139347493Y-74021819D01*
X141370181Y-76044507D01*
X141403666Y-76105830D01*
X141406500Y-76132188D01*
X141406500Y-98535078D01*
X141406264Y-98540485D01*
X141402735Y-98580808D01*
X141413212Y-98619910D01*
X141414383Y-98625190D01*
X141421411Y-98665043D01*
X141423235Y-98670055D01*
X141430197Y-98686861D01*
X141432445Y-98691681D01*
X141432446Y-98691684D01*
X141446452Y-98711687D01*
X141455655Y-98724831D01*
X141458561Y-98729392D01*
X141478806Y-98764455D01*
X141509815Y-98790475D01*
X141513805Y-98794131D01*
X143521863Y-100802189D01*
X143525518Y-100806178D01*
X143551541Y-100837190D01*
X143551543Y-100837191D01*
X143551545Y-100837194D01*
X143551547Y-100837195D01*
X143551548Y-100837196D01*
X143586599Y-100857433D01*
X143591162Y-100860339D01*
X143624316Y-100883554D01*
X143624319Y-100883554D01*
X143629176Y-100885820D01*
X143645933Y-100892760D01*
X143650950Y-100894586D01*
X143650952Y-100894586D01*
X143650955Y-100894588D01*
X143690818Y-100901616D01*
X143696076Y-100902782D01*
X143735193Y-100913264D01*
X143775518Y-100909735D01*
X143780922Y-100909500D01*
X149822983Y-100909500D01*
X149882238Y-100924574D01*
X150381245Y-101196046D01*
X150440873Y-101228485D01*
X150448066Y-101233064D01*
X150453118Y-101236793D01*
X150457634Y-101238373D01*
X150462202Y-101240177D01*
X150463069Y-101240560D01*
X150526782Y-101262629D01*
X150526783Y-101262629D01*
X150528795Y-101263326D01*
X150529892Y-101263657D01*
X150581301Y-101281646D01*
X150581303Y-101281646D01*
X150581306Y-101281647D01*
X150611730Y-101284500D01*
X150611734Y-101284500D01*
X151220270Y-101284500D01*
X151250699Y-101281646D01*
X151250701Y-101281646D01*
X151314790Y-101259219D01*
X151378882Y-101236793D01*
X151488150Y-101156150D01*
X151568793Y-101046882D01*
X151591219Y-100982790D01*
X151613646Y-100918701D01*
X151613646Y-100918699D01*
X151616500Y-100888269D01*
X152715500Y-100888269D01*
X152718353Y-100918699D01*
X152718353Y-100918701D01*
X152763206Y-101046880D01*
X152763207Y-101046882D01*
X152843850Y-101156150D01*
X152953118Y-101236793D01*
X152970457Y-101242860D01*
X153081299Y-101281646D01*
X153111730Y-101284500D01*
X153111734Y-101284500D01*
X153720270Y-101284500D01*
X153750689Y-101281647D01*
X153750689Y-101281646D01*
X153750699Y-101281646D01*
X153861541Y-101242860D01*
X153868930Y-101240560D01*
X153868937Y-101240555D01*
X153871005Y-101239681D01*
X153874669Y-101238266D01*
X153878882Y-101236793D01*
X153883932Y-101233066D01*
X153891128Y-101228484D01*
X154449760Y-100924575D01*
X154509017Y-100909500D01*
X156447078Y-100909500D01*
X156452481Y-100909735D01*
X156492807Y-100913264D01*
X156531940Y-100902777D01*
X156537162Y-100901619D01*
X156577045Y-100894588D01*
X156577050Y-100894584D01*
X156582099Y-100892747D01*
X156598824Y-100885819D01*
X156603681Y-100883554D01*
X156603684Y-100883554D01*
X156636841Y-100860335D01*
X156641390Y-100857438D01*
X156676455Y-100837194D01*
X156676459Y-100837190D01*
X156702476Y-100806182D01*
X156706122Y-100802202D01*
X160118317Y-97390007D01*
X160179638Y-97356524D01*
X160227435Y-97355558D01*
X160816325Y-97458955D01*
X161188074Y-97524227D01*
X161195356Y-97525964D01*
X161233568Y-97537555D01*
X161292066Y-97555300D01*
X161292065Y-97555300D01*
X161330647Y-97559100D01*
X161446392Y-97570500D01*
X161447743Y-97570500D01*
X161451045Y-97570659D01*
X161452704Y-97570690D01*
X161452708Y-97570691D01*
X161510282Y-97571778D01*
X161516106Y-97571889D01*
X161516106Y-97571888D01*
X161516109Y-97571889D01*
X161522072Y-97571072D01*
X161530486Y-97570500D01*
X162149605Y-97570500D01*
X162149608Y-97570500D01*
X162303934Y-97555300D01*
X162501954Y-97495232D01*
X162684450Y-97397685D01*
X162844410Y-97266410D01*
X162975685Y-97106450D01*
X163073232Y-96923954D01*
X163133300Y-96725934D01*
X163153583Y-96520000D01*
X163133300Y-96314066D01*
X163073232Y-96116046D01*
X162975685Y-95933550D01*
X162897845Y-95838701D01*
X162844410Y-95773589D01*
X162684452Y-95642317D01*
X162684453Y-95642317D01*
X162684450Y-95642315D01*
X162501954Y-95544768D01*
X162303934Y-95484700D01*
X162303932Y-95484699D01*
X162303934Y-95484699D01*
X162184805Y-95472966D01*
X162149608Y-95469500D01*
X161446392Y-95469500D01*
X161408298Y-95473251D01*
X161292067Y-95484699D01*
X161094043Y-95544769D01*
X160983898Y-95603643D01*
X160911550Y-95642315D01*
X160911548Y-95642316D01*
X160911547Y-95642317D01*
X160751590Y-95773589D01*
X160747290Y-95777890D01*
X160747267Y-95777867D01*
X160744920Y-95780281D01*
X160745102Y-95780453D01*
X160740919Y-95784873D01*
X160740917Y-95784875D01*
X159850444Y-96725934D01*
X159781977Y-96798290D01*
X159781972Y-96798295D01*
X159776162Y-96807395D01*
X159759336Y-96828336D01*
X156365493Y-100222181D01*
X156304170Y-100255666D01*
X156277812Y-100258500D01*
X154509017Y-100258500D01*
X154449759Y-100243424D01*
X153891123Y-99939512D01*
X153883927Y-99934930D01*
X153878882Y-99931206D01*
X153874362Y-99929625D01*
X153869796Y-99927822D01*
X153868936Y-99927442D01*
X153868928Y-99927438D01*
X153823160Y-99911586D01*
X153803068Y-99904628D01*
X153802028Y-99904313D01*
X153750699Y-99886353D01*
X153720270Y-99883500D01*
X153720266Y-99883500D01*
X153111734Y-99883500D01*
X153111730Y-99883500D01*
X153081300Y-99886353D01*
X153081298Y-99886353D01*
X152953119Y-99931206D01*
X152953117Y-99931207D01*
X152843850Y-100011850D01*
X152763207Y-100121117D01*
X152763206Y-100121119D01*
X152718353Y-100249298D01*
X152718353Y-100249300D01*
X152715500Y-100279730D01*
X152715500Y-100888269D01*
X151616500Y-100888269D01*
X151616500Y-100279730D01*
X151613646Y-100249300D01*
X151613646Y-100249298D01*
X151568793Y-100121119D01*
X151568792Y-100121117D01*
X151488150Y-100011850D01*
X151378882Y-99931207D01*
X151378880Y-99931206D01*
X151250700Y-99886353D01*
X151220270Y-99883500D01*
X151220266Y-99883500D01*
X150611734Y-99883500D01*
X150611730Y-99883500D01*
X150581300Y-99886353D01*
X150581298Y-99886353D01*
X150486651Y-99919473D01*
X150470493Y-99925127D01*
X150468869Y-99925632D01*
X150463061Y-99927440D01*
X150460946Y-99928335D01*
X150457298Y-99929743D01*
X150453119Y-99931205D01*
X150448071Y-99934931D01*
X150440879Y-99939510D01*
X149882240Y-100243424D01*
X149822982Y-100258500D01*
X143950188Y-100258500D01*
X143883149Y-100238815D01*
X143862507Y-100222181D01*
X142093819Y-98453493D01*
X142060334Y-98392170D01*
X142057500Y-98365812D01*
X142057500Y-98044001D01*
X145444318Y-98044001D01*
X145464955Y-98200760D01*
X145464956Y-98200762D01*
X145513843Y-98318787D01*
X145525464Y-98346841D01*
X145621718Y-98472282D01*
X145747159Y-98568536D01*
X145893238Y-98629044D01*
X145971619Y-98639363D01*
X146049999Y-98649682D01*
X146050000Y-98649682D01*
X146050001Y-98649682D01*
X146064795Y-98647734D01*
X146206762Y-98629044D01*
X146250268Y-98611022D01*
X146277344Y-98603270D01*
X146286320Y-98601775D01*
X146879577Y-98377510D01*
X146923423Y-98369500D01*
X149822983Y-98369500D01*
X149882238Y-98384574D01*
X150406996Y-98670055D01*
X150440873Y-98688485D01*
X150448066Y-98693064D01*
X150453118Y-98696793D01*
X150457634Y-98698373D01*
X150462202Y-98700177D01*
X150463069Y-98700560D01*
X150526782Y-98722629D01*
X150526783Y-98722629D01*
X150528795Y-98723326D01*
X150529892Y-98723657D01*
X150581301Y-98741646D01*
X150581303Y-98741646D01*
X150581306Y-98741647D01*
X150611730Y-98744500D01*
X150611734Y-98744500D01*
X151220270Y-98744500D01*
X151250699Y-98741646D01*
X151250701Y-98741646D01*
X151314790Y-98719219D01*
X151378882Y-98696793D01*
X151488150Y-98616150D01*
X151568793Y-98506882D01*
X151600183Y-98417174D01*
X151613646Y-98378701D01*
X151613646Y-98378699D01*
X151616500Y-98348269D01*
X152715500Y-98348269D01*
X152718353Y-98378699D01*
X152718353Y-98378701D01*
X152763206Y-98506880D01*
X152763207Y-98506882D01*
X152843850Y-98616150D01*
X152953118Y-98696793D01*
X152970457Y-98702860D01*
X153081299Y-98741646D01*
X153111730Y-98744500D01*
X153111734Y-98744500D01*
X153720270Y-98744500D01*
X153750689Y-98741647D01*
X153750689Y-98741646D01*
X153750699Y-98741646D01*
X153861541Y-98702860D01*
X153868930Y-98700560D01*
X153868937Y-98700555D01*
X153871005Y-98699681D01*
X153874669Y-98698266D01*
X153878882Y-98696793D01*
X153883932Y-98693066D01*
X153891128Y-98688484D01*
X154449760Y-98384575D01*
X154509017Y-98369500D01*
X156447078Y-98369500D01*
X156452481Y-98369735D01*
X156492807Y-98373264D01*
X156531940Y-98362777D01*
X156537162Y-98361619D01*
X156577045Y-98354588D01*
X156577050Y-98354584D01*
X156582099Y-98352747D01*
X156598824Y-98345819D01*
X156603681Y-98343554D01*
X156603684Y-98343554D01*
X156636841Y-98320335D01*
X156641390Y-98317438D01*
X156676455Y-98297194D01*
X156702481Y-98266176D01*
X156706122Y-98262202D01*
X160118317Y-94850007D01*
X160179638Y-94816524D01*
X160227435Y-94815558D01*
X160825310Y-94920532D01*
X161188074Y-94984227D01*
X161195356Y-94985964D01*
X161233568Y-94997555D01*
X161292066Y-95015300D01*
X161292065Y-95015300D01*
X161330647Y-95019100D01*
X161446392Y-95030500D01*
X161447743Y-95030500D01*
X161451045Y-95030659D01*
X161452704Y-95030690D01*
X161452708Y-95030691D01*
X161510282Y-95031778D01*
X161516106Y-95031889D01*
X161516106Y-95031888D01*
X161516109Y-95031889D01*
X161522072Y-95031072D01*
X161530486Y-95030500D01*
X162149605Y-95030500D01*
X162149608Y-95030500D01*
X162303934Y-95015300D01*
X162501954Y-94955232D01*
X162684450Y-94857685D01*
X162844410Y-94726410D01*
X162975685Y-94566450D01*
X163073232Y-94383954D01*
X163133300Y-94185934D01*
X163153583Y-93980000D01*
X163133300Y-93774066D01*
X163073232Y-93576046D01*
X162975685Y-93393550D01*
X162923702Y-93330209D01*
X162844410Y-93233589D01*
X162684452Y-93102317D01*
X162684453Y-93102317D01*
X162684450Y-93102315D01*
X162501954Y-93004768D01*
X162303934Y-92944700D01*
X162303932Y-92944699D01*
X162303934Y-92944699D01*
X162184805Y-92932966D01*
X162149608Y-92929500D01*
X161446392Y-92929500D01*
X161408298Y-92933251D01*
X161292067Y-92944699D01*
X161094043Y-93004769D01*
X160983898Y-93063643D01*
X160911550Y-93102315D01*
X160911548Y-93102316D01*
X160911547Y-93102317D01*
X160751590Y-93233589D01*
X160747290Y-93237890D01*
X160747267Y-93237867D01*
X160744920Y-93240281D01*
X160745102Y-93240453D01*
X160740919Y-93244873D01*
X160740917Y-93244875D01*
X159850444Y-94185934D01*
X159781977Y-94258290D01*
X159781972Y-94258295D01*
X159776162Y-94267395D01*
X159759336Y-94288336D01*
X156365493Y-97682181D01*
X156304170Y-97715666D01*
X156277812Y-97718500D01*
X154509017Y-97718500D01*
X154449759Y-97703424D01*
X153891123Y-97399512D01*
X153883927Y-97394930D01*
X153878882Y-97391206D01*
X153874362Y-97389625D01*
X153869796Y-97387822D01*
X153868936Y-97387442D01*
X153868928Y-97387438D01*
X153823160Y-97371586D01*
X153803068Y-97364628D01*
X153802028Y-97364313D01*
X153750699Y-97346353D01*
X153720270Y-97343500D01*
X153720266Y-97343500D01*
X153111734Y-97343500D01*
X153111730Y-97343500D01*
X153081300Y-97346353D01*
X153081298Y-97346353D01*
X152953119Y-97391206D01*
X152953117Y-97391207D01*
X152843850Y-97471850D01*
X152763207Y-97581117D01*
X152763206Y-97581119D01*
X152718353Y-97709298D01*
X152718353Y-97709300D01*
X152715500Y-97739730D01*
X152715500Y-98348269D01*
X151616500Y-98348269D01*
X151616500Y-97739730D01*
X151613646Y-97709300D01*
X151613646Y-97709298D01*
X151568793Y-97581119D01*
X151568792Y-97581117D01*
X151488150Y-97471850D01*
X151378882Y-97391207D01*
X151378880Y-97391206D01*
X151250700Y-97346353D01*
X151220270Y-97343500D01*
X151220266Y-97343500D01*
X150611734Y-97343500D01*
X150611730Y-97343500D01*
X150581300Y-97346353D01*
X150581298Y-97346353D01*
X150486651Y-97379473D01*
X150470493Y-97385127D01*
X150468869Y-97385632D01*
X150463061Y-97387440D01*
X150460946Y-97388335D01*
X150457298Y-97389743D01*
X150453119Y-97391205D01*
X150448071Y-97394931D01*
X150440879Y-97399510D01*
X149882240Y-97703424D01*
X149822982Y-97718500D01*
X146923426Y-97718500D01*
X146879580Y-97710489D01*
X146537347Y-97581118D01*
X146303360Y-97492666D01*
X146301126Y-97491821D01*
X146286321Y-97486224D01*
X146286316Y-97486223D01*
X146275958Y-97484407D01*
X146249918Y-97476831D01*
X146206762Y-97458956D01*
X146128381Y-97448637D01*
X146050001Y-97438318D01*
X146049999Y-97438318D01*
X145893239Y-97458955D01*
X145893237Y-97458956D01*
X145747160Y-97519463D01*
X145621718Y-97615718D01*
X145525463Y-97741160D01*
X145464956Y-97887237D01*
X145464955Y-97887239D01*
X145444318Y-98043998D01*
X145444318Y-98044001D01*
X142057500Y-98044001D01*
X142057500Y-94008808D01*
X148006735Y-94008808D01*
X148017212Y-94047910D01*
X148018383Y-94053190D01*
X148025411Y-94093043D01*
X148027235Y-94098055D01*
X148034197Y-94114861D01*
X148036445Y-94119681D01*
X148036446Y-94119684D01*
X148050452Y-94139687D01*
X148059655Y-94152831D01*
X148062561Y-94157392D01*
X148082806Y-94192455D01*
X148113815Y-94218475D01*
X148117805Y-94222131D01*
X149617868Y-95722195D01*
X149621523Y-95726184D01*
X149647541Y-95757190D01*
X149647542Y-95757191D01*
X149647545Y-95757194D01*
X149675943Y-95773589D01*
X149682604Y-95777435D01*
X149687154Y-95780333D01*
X149720316Y-95803553D01*
X149720318Y-95803553D01*
X149720319Y-95803554D01*
X149725168Y-95805815D01*
X149741947Y-95812765D01*
X149746952Y-95814587D01*
X149746953Y-95814587D01*
X149746955Y-95814588D01*
X149786829Y-95821618D01*
X149792093Y-95822786D01*
X149803671Y-95825888D01*
X149831193Y-95833263D01*
X149831201Y-95833262D01*
X149841492Y-95834163D01*
X149889947Y-95848767D01*
X150381240Y-96116043D01*
X150440873Y-96148485D01*
X150448066Y-96153064D01*
X150453118Y-96156793D01*
X150457634Y-96158373D01*
X150462202Y-96160177D01*
X150463069Y-96160560D01*
X150526782Y-96182629D01*
X150526783Y-96182629D01*
X150528795Y-96183326D01*
X150529892Y-96183657D01*
X150581301Y-96201646D01*
X150581303Y-96201646D01*
X150581306Y-96201647D01*
X150611730Y-96204500D01*
X150611734Y-96204500D01*
X151220270Y-96204500D01*
X151250699Y-96201646D01*
X151250701Y-96201646D01*
X151314790Y-96179219D01*
X151378882Y-96156793D01*
X151488150Y-96076150D01*
X151568793Y-95966882D01*
X151591219Y-95902790D01*
X151613646Y-95838701D01*
X151613646Y-95838699D01*
X151616500Y-95808269D01*
X152715500Y-95808269D01*
X152718353Y-95838699D01*
X152718353Y-95838701D01*
X152751755Y-95934155D01*
X152763207Y-95966882D01*
X152843850Y-96076150D01*
X152953118Y-96156793D01*
X152970457Y-96162860D01*
X153081299Y-96201646D01*
X153111730Y-96204500D01*
X153111734Y-96204500D01*
X153720270Y-96204500D01*
X153750689Y-96201647D01*
X153750689Y-96201646D01*
X153750699Y-96201646D01*
X153861541Y-96162860D01*
X153868930Y-96160560D01*
X153868937Y-96160555D01*
X153871005Y-96159681D01*
X153874669Y-96158266D01*
X153878882Y-96156793D01*
X153883932Y-96153066D01*
X153891128Y-96148484D01*
X154449760Y-95844575D01*
X154509017Y-95829500D01*
X156447078Y-95829500D01*
X156452481Y-95829735D01*
X156492807Y-95833264D01*
X156531940Y-95822777D01*
X156537162Y-95821619D01*
X156577045Y-95814588D01*
X156577050Y-95814584D01*
X156582099Y-95812747D01*
X156598824Y-95805819D01*
X156603681Y-95803554D01*
X156603684Y-95803554D01*
X156636841Y-95780335D01*
X156641390Y-95777438D01*
X156676455Y-95757194D01*
X156676459Y-95757190D01*
X156690961Y-95739906D01*
X156702481Y-95726176D01*
X156706122Y-95722202D01*
X160118317Y-92310007D01*
X160179638Y-92276524D01*
X160227435Y-92275558D01*
X160825310Y-92380532D01*
X161188074Y-92444227D01*
X161195356Y-92445964D01*
X161233568Y-92457555D01*
X161292066Y-92475300D01*
X161292065Y-92475300D01*
X161330647Y-92479100D01*
X161446392Y-92490500D01*
X161447743Y-92490500D01*
X161451045Y-92490659D01*
X161452704Y-92490690D01*
X161452708Y-92490691D01*
X161510282Y-92491778D01*
X161516106Y-92491889D01*
X161516106Y-92491888D01*
X161516109Y-92491889D01*
X161522072Y-92491072D01*
X161530486Y-92490500D01*
X162149605Y-92490500D01*
X162149608Y-92490500D01*
X162303934Y-92475300D01*
X162501954Y-92415232D01*
X162684450Y-92317685D01*
X162844410Y-92186410D01*
X162975685Y-92026450D01*
X163073232Y-91843954D01*
X163133300Y-91645934D01*
X163153583Y-91440000D01*
X163133300Y-91234066D01*
X163073232Y-91036046D01*
X162975685Y-90853550D01*
X162923702Y-90790209D01*
X162844410Y-90693589D01*
X162684452Y-90562317D01*
X162684453Y-90562317D01*
X162684450Y-90562315D01*
X162501954Y-90464768D01*
X162303934Y-90404700D01*
X162303932Y-90404699D01*
X162303934Y-90404699D01*
X162184805Y-90392966D01*
X162149608Y-90389500D01*
X161446392Y-90389500D01*
X161408298Y-90393251D01*
X161292067Y-90404699D01*
X161094043Y-90464769D01*
X160983898Y-90523643D01*
X160911550Y-90562315D01*
X160911548Y-90562316D01*
X160911547Y-90562317D01*
X160751590Y-90693589D01*
X160747290Y-90697890D01*
X160747267Y-90697867D01*
X160744920Y-90700281D01*
X160745102Y-90700453D01*
X160740919Y-90704873D01*
X160740917Y-90704875D01*
X159850444Y-91645934D01*
X159781977Y-91718290D01*
X159781972Y-91718295D01*
X159776162Y-91727395D01*
X159759336Y-91748336D01*
X156365493Y-95142181D01*
X156304170Y-95175666D01*
X156277812Y-95178500D01*
X154509017Y-95178500D01*
X154449759Y-95163424D01*
X153891123Y-94859512D01*
X153883927Y-94854930D01*
X153878882Y-94851206D01*
X153874362Y-94849625D01*
X153869796Y-94847822D01*
X153868936Y-94847442D01*
X153868928Y-94847438D01*
X153823160Y-94831586D01*
X153803068Y-94824628D01*
X153802028Y-94824313D01*
X153750699Y-94806353D01*
X153720270Y-94803500D01*
X153720266Y-94803500D01*
X153111734Y-94803500D01*
X153111730Y-94803500D01*
X153081300Y-94806353D01*
X153081298Y-94806353D01*
X152953119Y-94851206D01*
X152953117Y-94851207D01*
X152843850Y-94931850D01*
X152763207Y-95041117D01*
X152763206Y-95041119D01*
X152718353Y-95169298D01*
X152718353Y-95169300D01*
X152715500Y-95199730D01*
X152715500Y-95808269D01*
X151616500Y-95808269D01*
X151616500Y-95199730D01*
X151613646Y-95169300D01*
X151613646Y-95169298D01*
X151568793Y-95041119D01*
X151568792Y-95041117D01*
X151488150Y-94931850D01*
X151378882Y-94851207D01*
X151378880Y-94851206D01*
X151250700Y-94806353D01*
X151220270Y-94803500D01*
X151220266Y-94803500D01*
X150611734Y-94803500D01*
X150611730Y-94803500D01*
X150581300Y-94806353D01*
X150581298Y-94806353D01*
X150486651Y-94839473D01*
X150470493Y-94845127D01*
X150468869Y-94845632D01*
X150463061Y-94847440D01*
X150460946Y-94848335D01*
X150457298Y-94849743D01*
X150453118Y-94851206D01*
X150453115Y-94851207D01*
X150448070Y-94854931D01*
X150440879Y-94859509D01*
X150026799Y-95084778D01*
X149958503Y-95099523D01*
X149893077Y-95075004D01*
X149879861Y-95063534D01*
X148697819Y-93881492D01*
X148664334Y-93820169D01*
X148661500Y-93793811D01*
X148661500Y-88900000D01*
X160442417Y-88900000D01*
X160462699Y-89105932D01*
X160492734Y-89204944D01*
X160522768Y-89303954D01*
X160620315Y-89486450D01*
X160637274Y-89507115D01*
X160751589Y-89646410D01*
X160848209Y-89725702D01*
X160911550Y-89777685D01*
X161094046Y-89875232D01*
X161292066Y-89935300D01*
X161292065Y-89935300D01*
X161330647Y-89939100D01*
X161446392Y-89950500D01*
X161446395Y-89950500D01*
X162149605Y-89950500D01*
X162149608Y-89950500D01*
X162303934Y-89935300D01*
X162501954Y-89875232D01*
X162684450Y-89777685D01*
X162844410Y-89646410D01*
X162975685Y-89486450D01*
X163073232Y-89303954D01*
X163133300Y-89105934D01*
X163153583Y-88900000D01*
X163133300Y-88694066D01*
X163073232Y-88496046D01*
X162975685Y-88313550D01*
X162897981Y-88218867D01*
X162844410Y-88153589D01*
X162684452Y-88022317D01*
X162684453Y-88022317D01*
X162684450Y-88022315D01*
X162501954Y-87924768D01*
X162303934Y-87864700D01*
X162303932Y-87864699D01*
X162303934Y-87864699D01*
X162184805Y-87852966D01*
X162149608Y-87849500D01*
X161446392Y-87849500D01*
X161408298Y-87853251D01*
X161292067Y-87864699D01*
X161094043Y-87924769D01*
X160983898Y-87983643D01*
X160911550Y-88022315D01*
X160911548Y-88022316D01*
X160911547Y-88022317D01*
X160751589Y-88153589D01*
X160620317Y-88313547D01*
X160522769Y-88496043D01*
X160462699Y-88694067D01*
X160442417Y-88900000D01*
X148661500Y-88900000D01*
X148661500Y-86360000D01*
X160442417Y-86360000D01*
X160462699Y-86565932D01*
X160480191Y-86623596D01*
X160522768Y-86763954D01*
X160620315Y-86946450D01*
X160620317Y-86946452D01*
X160751589Y-87106410D01*
X160814732Y-87158229D01*
X160911550Y-87237685D01*
X161094046Y-87335232D01*
X161292066Y-87395300D01*
X161292065Y-87395300D01*
X161330647Y-87399100D01*
X161446392Y-87410500D01*
X161446395Y-87410500D01*
X162149605Y-87410500D01*
X162149608Y-87410500D01*
X162303934Y-87395300D01*
X162501954Y-87335232D01*
X162684450Y-87237685D01*
X162844410Y-87106410D01*
X162975685Y-86946450D01*
X163073232Y-86763954D01*
X163133300Y-86565934D01*
X163153583Y-86360000D01*
X163133300Y-86154066D01*
X163073232Y-85956046D01*
X162975685Y-85773550D01*
X162921951Y-85708075D01*
X162844410Y-85613589D01*
X162684452Y-85482317D01*
X162684453Y-85482317D01*
X162684450Y-85482315D01*
X162501954Y-85384768D01*
X162303934Y-85324700D01*
X162303932Y-85324699D01*
X162303934Y-85324699D01*
X162184805Y-85312966D01*
X162149608Y-85309500D01*
X161446392Y-85309500D01*
X161408298Y-85313251D01*
X161292067Y-85324699D01*
X161094043Y-85384769D01*
X160983898Y-85443643D01*
X160911550Y-85482315D01*
X160911548Y-85482316D01*
X160911547Y-85482317D01*
X160751589Y-85613589D01*
X160620317Y-85773547D01*
X160620315Y-85773550D01*
X160585841Y-85838045D01*
X160522769Y-85956043D01*
X160462699Y-86154067D01*
X160442417Y-86360000D01*
X148661500Y-86360000D01*
X148661500Y-81029999D01*
X150928627Y-81029999D01*
X150928628Y-81030000D01*
X151973814Y-81030000D01*
X151948007Y-81070156D01*
X151907500Y-81208111D01*
X151907500Y-81351889D01*
X151948007Y-81489844D01*
X151973814Y-81530000D01*
X150928628Y-81530000D01*
X150981230Y-81726317D01*
X150981234Y-81726326D01*
X151077365Y-81932482D01*
X151207842Y-82118820D01*
X151368679Y-82279657D01*
X151555017Y-82410134D01*
X151761173Y-82506265D01*
X151761182Y-82506269D01*
X151980889Y-82565139D01*
X151980899Y-82565141D01*
X152113963Y-82576782D01*
X152179031Y-82602234D01*
X152220010Y-82658825D01*
X152223889Y-82728586D01*
X152189436Y-82789371D01*
X152127589Y-82821879D01*
X152115702Y-82823674D01*
X152005060Y-82834926D01*
X151810920Y-82895837D01*
X151810905Y-82895844D01*
X151633000Y-82994589D01*
X151632995Y-82994592D01*
X151478606Y-83127132D01*
X151478604Y-83127134D01*
X151354054Y-83288037D01*
X151354053Y-83288040D01*
X151264440Y-83470728D01*
X151213437Y-83667714D01*
X151203131Y-83870936D01*
X151233942Y-84072063D01*
X151233945Y-84072075D01*
X151304611Y-84262881D01*
X151304615Y-84262888D01*
X151412245Y-84435567D01*
X151412249Y-84435572D01*
X151536620Y-84566410D01*
X151552441Y-84583053D01*
X151680844Y-84672424D01*
X151719449Y-84699294D01*
X151719450Y-84699294D01*
X151719451Y-84699295D01*
X151906442Y-84779540D01*
X152105759Y-84820500D01*
X152658243Y-84820500D01*
X152809939Y-84805074D01*
X153004079Y-84744162D01*
X153004080Y-84744161D01*
X153004088Y-84744159D01*
X153182002Y-84645409D01*
X153336395Y-84512866D01*
X153460948Y-84351958D01*
X153550560Y-84169271D01*
X153601563Y-83972285D01*
X153609286Y-83820000D01*
X160442417Y-83820000D01*
X160462699Y-84025932D01*
X160492734Y-84124944D01*
X160522768Y-84223954D01*
X160620315Y-84406450D01*
X160620317Y-84406452D01*
X160751589Y-84566410D01*
X160847849Y-84645407D01*
X160911550Y-84697685D01*
X161094046Y-84795232D01*
X161292066Y-84855300D01*
X161292065Y-84855300D01*
X161330647Y-84859100D01*
X161446392Y-84870500D01*
X161446395Y-84870500D01*
X162149605Y-84870500D01*
X162149608Y-84870500D01*
X162303934Y-84855300D01*
X162501954Y-84795232D01*
X162684450Y-84697685D01*
X162844410Y-84566410D01*
X162975685Y-84406450D01*
X163073232Y-84223954D01*
X163133300Y-84025934D01*
X163153583Y-83820000D01*
X163133300Y-83614066D01*
X163073232Y-83416046D01*
X162975685Y-83233550D01*
X162923702Y-83170209D01*
X162844410Y-83073589D01*
X162684452Y-82942317D01*
X162684453Y-82942317D01*
X162684450Y-82942315D01*
X162501954Y-82844768D01*
X162303934Y-82784700D01*
X162303932Y-82784699D01*
X162303934Y-82784699D01*
X162184805Y-82772966D01*
X162149608Y-82769500D01*
X161446392Y-82769500D01*
X161408298Y-82773251D01*
X161292067Y-82784699D01*
X161094043Y-82844769D01*
X160998503Y-82895837D01*
X160911550Y-82942315D01*
X160911548Y-82942316D01*
X160911547Y-82942317D01*
X160751589Y-83073589D01*
X160620317Y-83233547D01*
X160620315Y-83233550D01*
X160593781Y-83283191D01*
X160522769Y-83416043D01*
X160462699Y-83614067D01*
X160442417Y-83820000D01*
X153609286Y-83820000D01*
X153611869Y-83769064D01*
X153581056Y-83567929D01*
X153510386Y-83377113D01*
X153402752Y-83204429D01*
X153289890Y-83085699D01*
X153262561Y-83056949D01*
X153262560Y-83056948D01*
X153262559Y-83056947D01*
X153164087Y-82988409D01*
X153095550Y-82940705D01*
X152908556Y-82860459D01*
X152710322Y-82819722D01*
X152648617Y-82786945D01*
X152614428Y-82726012D01*
X152618610Y-82656267D01*
X152659834Y-82599855D01*
X152724476Y-82574732D01*
X152834099Y-82565141D01*
X152834110Y-82565139D01*
X153053817Y-82506269D01*
X153053826Y-82506265D01*
X153259982Y-82410134D01*
X153446320Y-82279657D01*
X153607157Y-82118820D01*
X153737634Y-81932482D01*
X153833765Y-81726326D01*
X153833769Y-81726317D01*
X153886372Y-81530000D01*
X152841186Y-81530000D01*
X152866993Y-81489844D01*
X152907500Y-81351889D01*
X152907500Y-81208111D01*
X152866993Y-81070156D01*
X152841186Y-81030000D01*
X153886372Y-81030000D01*
X153886372Y-81029999D01*
X153833769Y-80833682D01*
X153833765Y-80833673D01*
X153737634Y-80627517D01*
X153607157Y-80441179D01*
X153446320Y-80280342D01*
X153259982Y-80149865D01*
X153053826Y-80053734D01*
X153053817Y-80053730D01*
X152834110Y-79994860D01*
X152834099Y-79994858D01*
X152701036Y-79983217D01*
X152635967Y-79957765D01*
X152594988Y-79901174D01*
X152591110Y-79831412D01*
X152625564Y-79770628D01*
X152687411Y-79738120D01*
X152699298Y-79736325D01*
X152809939Y-79725074D01*
X153004079Y-79664162D01*
X153004080Y-79664161D01*
X153004088Y-79664159D01*
X153182002Y-79565409D01*
X153336395Y-79432866D01*
X153460948Y-79271958D01*
X153550560Y-79089271D01*
X153601563Y-78892285D01*
X153611869Y-78689064D01*
X153581056Y-78487929D01*
X153534295Y-78361670D01*
X153510388Y-78297118D01*
X153510387Y-78297117D01*
X153510386Y-78297113D01*
X153402752Y-78124429D01*
X153262559Y-77976947D01*
X153164087Y-77908409D01*
X153095550Y-77860705D01*
X152908556Y-77780459D01*
X152709241Y-77739500D01*
X152156758Y-77739500D01*
X152156757Y-77739500D01*
X152005060Y-77754925D01*
X151810920Y-77815837D01*
X151810905Y-77815844D01*
X151633000Y-77914589D01*
X151632995Y-77914592D01*
X151478606Y-78047132D01*
X151478604Y-78047134D01*
X151354054Y-78208037D01*
X151354053Y-78208040D01*
X151264440Y-78390728D01*
X151213437Y-78587714D01*
X151203131Y-78790936D01*
X151233942Y-78992063D01*
X151233945Y-78992075D01*
X151304611Y-79182881D01*
X151304613Y-79182884D01*
X151304614Y-79182887D01*
X151324607Y-79214963D01*
X151412245Y-79355567D01*
X151412249Y-79355572D01*
X151503538Y-79451608D01*
X151552441Y-79503053D01*
X151680844Y-79592424D01*
X151719449Y-79619294D01*
X151719450Y-79619294D01*
X151719451Y-79619295D01*
X151906442Y-79699540D01*
X152104677Y-79740277D01*
X152166381Y-79773053D01*
X152200570Y-79833987D01*
X152196389Y-79903731D01*
X152155165Y-79960143D01*
X152090524Y-79985267D01*
X151980899Y-79994858D01*
X151980889Y-79994860D01*
X151761182Y-80053730D01*
X151761173Y-80053734D01*
X151555017Y-80149865D01*
X151368679Y-80280342D01*
X151207842Y-80441179D01*
X151077365Y-80627517D01*
X150981234Y-80833673D01*
X150981230Y-80833682D01*
X150928627Y-81029999D01*
X148661500Y-81029999D01*
X148661500Y-77910188D01*
X148681185Y-77843149D01*
X148697819Y-77822507D01*
X149958508Y-76561819D01*
X150019831Y-76528334D01*
X150046189Y-76525500D01*
X150522740Y-76525500D01*
X150575909Y-76537478D01*
X151804219Y-77120474D01*
X151826723Y-77127099D01*
X151836312Y-77129922D01*
X151843248Y-77132420D01*
X151906442Y-77159540D01*
X152105759Y-77200500D01*
X152658243Y-77200500D01*
X152809939Y-77185074D01*
X153004079Y-77124162D01*
X153004080Y-77124161D01*
X153004088Y-77124159D01*
X153182002Y-77025409D01*
X153336395Y-76892866D01*
X153460948Y-76731958D01*
X153550560Y-76549271D01*
X153601563Y-76352285D01*
X153611869Y-76149064D01*
X153581056Y-75947929D01*
X153510386Y-75757113D01*
X153402752Y-75584429D01*
X153277060Y-75452202D01*
X153262561Y-75436949D01*
X153262560Y-75436948D01*
X153262559Y-75436947D01*
X153158912Y-75364807D01*
X153095550Y-75320705D01*
X152908556Y-75240459D01*
X152709241Y-75199500D01*
X152156758Y-75199500D01*
X152156757Y-75199500D01*
X152005060Y-75214925D01*
X151810917Y-75275838D01*
X151810910Y-75275841D01*
X151806315Y-75278391D01*
X151802820Y-75280188D01*
X150918077Y-75700117D01*
X150575906Y-75862522D01*
X150522738Y-75874500D01*
X149876910Y-75874500D01*
X149871506Y-75874264D01*
X149865993Y-75873781D01*
X149831192Y-75870736D01*
X149792105Y-75881210D01*
X149786825Y-75882381D01*
X149746957Y-75889411D01*
X149741983Y-75891221D01*
X149725118Y-75898207D01*
X149720313Y-75900447D01*
X149687162Y-75923659D01*
X149682603Y-75926563D01*
X149647545Y-75946805D01*
X149621523Y-75977815D01*
X149617869Y-75981803D01*
X148117803Y-77481870D01*
X148113814Y-77485525D01*
X148082805Y-77511545D01*
X148062562Y-77546606D01*
X148059656Y-77551166D01*
X148036446Y-77584313D01*
X148034206Y-77589117D01*
X148027229Y-77605961D01*
X148025410Y-77610959D01*
X148018383Y-77650811D01*
X148017212Y-77656091D01*
X148006735Y-77695191D01*
X148010264Y-77735513D01*
X148010500Y-77740920D01*
X148010500Y-93963078D01*
X148010264Y-93968485D01*
X148006735Y-94008808D01*
X142057500Y-94008808D01*
X142057500Y-75962912D01*
X142057736Y-75957506D01*
X142061263Y-75917191D01*
X142050785Y-75878090D01*
X142049618Y-75872830D01*
X142042588Y-75832955D01*
X142042587Y-75832953D01*
X142040760Y-75827933D01*
X142033820Y-75811176D01*
X142031554Y-75806319D01*
X142031554Y-75806316D01*
X142008337Y-75773159D01*
X142005435Y-75768605D01*
X141985194Y-75733545D01*
X141954182Y-75707522D01*
X141950210Y-75703883D01*
X139957262Y-73710936D01*
X151203131Y-73710936D01*
X151233942Y-73912063D01*
X151233945Y-73912075D01*
X151304611Y-74102881D01*
X151304613Y-74102884D01*
X151304614Y-74102887D01*
X151309717Y-74111074D01*
X151412245Y-74275567D01*
X151412247Y-74275569D01*
X151412248Y-74275571D01*
X151443127Y-74308055D01*
X151496922Y-74364648D01*
X151552441Y-74423053D01*
X151680844Y-74512424D01*
X151719449Y-74539294D01*
X151719450Y-74539294D01*
X151719451Y-74539295D01*
X151906442Y-74619540D01*
X152105759Y-74660500D01*
X152658243Y-74660500D01*
X152734090Y-74652787D01*
X152809938Y-74645074D01*
X152944033Y-74603000D01*
X152958312Y-74599987D01*
X152958253Y-74599711D01*
X152964211Y-74598439D01*
X152964213Y-74598439D01*
X153873937Y-74404241D01*
X153943606Y-74409497D01*
X153987502Y-74437828D01*
X155086181Y-75536507D01*
X155119666Y-75597830D01*
X155122500Y-75624188D01*
X155122500Y-78215078D01*
X155122264Y-78220485D01*
X155118735Y-78260808D01*
X155129212Y-78299910D01*
X155130383Y-78305190D01*
X155137411Y-78345043D01*
X155139235Y-78350055D01*
X155146197Y-78366861D01*
X155148445Y-78371681D01*
X155148446Y-78371684D01*
X155161781Y-78390728D01*
X155171655Y-78404831D01*
X155174561Y-78409392D01*
X155194806Y-78444455D01*
X155225815Y-78470475D01*
X155229805Y-78474131D01*
X156322438Y-79566764D01*
X156355923Y-79628087D01*
X156358757Y-79654445D01*
X156358757Y-80179267D01*
X156370388Y-80237744D01*
X156370389Y-80237745D01*
X156414704Y-80304067D01*
X156481026Y-80348382D01*
X156481027Y-80348383D01*
X156539504Y-80360014D01*
X156539507Y-80360015D01*
X156539509Y-80360015D01*
X158479007Y-80360015D01*
X158479008Y-80360014D01*
X158499974Y-80355844D01*
X158537486Y-80348383D01*
X158537486Y-80348382D01*
X158537488Y-80348382D01*
X158603809Y-80304067D01*
X158648124Y-80237746D01*
X158648124Y-80237744D01*
X158648125Y-80237744D01*
X158659756Y-80179267D01*
X158659757Y-80179265D01*
X158659757Y-79339764D01*
X158659756Y-79339762D01*
X158648125Y-79281285D01*
X158648124Y-79281284D01*
X158603809Y-79214962D01*
X158537487Y-79170647D01*
X158537486Y-79170646D01*
X158479009Y-79159015D01*
X158479005Y-79159015D01*
X156886704Y-79159015D01*
X156819665Y-79139330D01*
X156799023Y-79122696D01*
X156735842Y-79059515D01*
X159059257Y-79059515D01*
X159059257Y-79257359D01*
X159065658Y-79316887D01*
X159065660Y-79316894D01*
X159115902Y-79451601D01*
X159115906Y-79451608D01*
X159202066Y-79566702D01*
X159202069Y-79566705D01*
X159317163Y-79652865D01*
X159317170Y-79652869D01*
X159451877Y-79703111D01*
X159451884Y-79703113D01*
X159511412Y-79709514D01*
X159511429Y-79709515D01*
X160259257Y-79709515D01*
X160259257Y-79059515D01*
X160759257Y-79059515D01*
X160759257Y-79709515D01*
X161507085Y-79709515D01*
X161507101Y-79709514D01*
X161566629Y-79703113D01*
X161566636Y-79703111D01*
X161701343Y-79652869D01*
X161701350Y-79652865D01*
X161816444Y-79566705D01*
X161816447Y-79566702D01*
X161902607Y-79451608D01*
X161902611Y-79451601D01*
X161952853Y-79316894D01*
X161952855Y-79316887D01*
X161959256Y-79257359D01*
X161959257Y-79257342D01*
X161959257Y-79059515D01*
X160759257Y-79059515D01*
X160259257Y-79059515D01*
X159059257Y-79059515D01*
X156735842Y-79059515D01*
X156235842Y-78559515D01*
X159059257Y-78559515D01*
X160259257Y-78559515D01*
X160259257Y-77909515D01*
X160759257Y-77909515D01*
X160759257Y-78559515D01*
X161959257Y-78559515D01*
X161959257Y-78361687D01*
X161959256Y-78361670D01*
X161952855Y-78302142D01*
X161952853Y-78302135D01*
X161902611Y-78167428D01*
X161902607Y-78167421D01*
X161816447Y-78052327D01*
X161816444Y-78052324D01*
X161701350Y-77966164D01*
X161701343Y-77966160D01*
X161566636Y-77915918D01*
X161566629Y-77915916D01*
X161507101Y-77909515D01*
X160759257Y-77909515D01*
X160259257Y-77909515D01*
X159511412Y-77909515D01*
X159451884Y-77915916D01*
X159451877Y-77915918D01*
X159317170Y-77966160D01*
X159317163Y-77966164D01*
X159202069Y-78052324D01*
X159202066Y-78052327D01*
X159115906Y-78167421D01*
X159115902Y-78167428D01*
X159065660Y-78302135D01*
X159065658Y-78302142D01*
X159059257Y-78361670D01*
X159059257Y-78559515D01*
X156235842Y-78559515D01*
X155809819Y-78133492D01*
X155776334Y-78072169D01*
X155773500Y-78045811D01*
X155773500Y-75782843D01*
X156059257Y-75782843D01*
X156059257Y-75980687D01*
X156065658Y-76040215D01*
X156065660Y-76040222D01*
X156115902Y-76174929D01*
X156115906Y-76174936D01*
X156202066Y-76290030D01*
X156202069Y-76290033D01*
X156317163Y-76376193D01*
X156317170Y-76376197D01*
X156451877Y-76426439D01*
X156451884Y-76426441D01*
X156511412Y-76432842D01*
X156511429Y-76432843D01*
X157259257Y-76432843D01*
X157259257Y-75782843D01*
X157759257Y-75782843D01*
X157759257Y-76432843D01*
X158507085Y-76432843D01*
X158507101Y-76432842D01*
X158566629Y-76426441D01*
X158566636Y-76426439D01*
X158701343Y-76376197D01*
X158701350Y-76376193D01*
X158816444Y-76290033D01*
X158816447Y-76290030D01*
X158902607Y-76174936D01*
X158902611Y-76174929D01*
X158952853Y-76040222D01*
X158952855Y-76040215D01*
X158959256Y-75980687D01*
X158959257Y-75980670D01*
X158959257Y-75782843D01*
X157759257Y-75782843D01*
X157259257Y-75782843D01*
X156059257Y-75782843D01*
X155773500Y-75782843D01*
X155773500Y-75454909D01*
X155773736Y-75449502D01*
X155774835Y-75436949D01*
X155777263Y-75409193D01*
X155777262Y-75409192D01*
X155777263Y-75409191D01*
X155766786Y-75370092D01*
X155765617Y-75364824D01*
X155758588Y-75324955D01*
X155758587Y-75324954D01*
X155758587Y-75324951D01*
X155756765Y-75319947D01*
X155749815Y-75303168D01*
X155747554Y-75298319D01*
X155747553Y-75298318D01*
X155747553Y-75298316D01*
X155736719Y-75282843D01*
X156059257Y-75282843D01*
X157259257Y-75282843D01*
X157259257Y-74632843D01*
X157759257Y-74632843D01*
X157759257Y-75282843D01*
X158959257Y-75282843D01*
X158959257Y-75085015D01*
X158959256Y-75084998D01*
X158952855Y-75025470D01*
X158952853Y-75025463D01*
X158902611Y-74890756D01*
X158902607Y-74890749D01*
X158816447Y-74775655D01*
X158816444Y-74775652D01*
X158701350Y-74689492D01*
X158701343Y-74689488D01*
X158566636Y-74639246D01*
X158566629Y-74639244D01*
X158507101Y-74632843D01*
X157759257Y-74632843D01*
X157259257Y-74632843D01*
X156511412Y-74632843D01*
X156451884Y-74639244D01*
X156451877Y-74639246D01*
X156317170Y-74689488D01*
X156317163Y-74689492D01*
X156202069Y-74775652D01*
X156202066Y-74775655D01*
X156115906Y-74890749D01*
X156115902Y-74890756D01*
X156065660Y-75025463D01*
X156065658Y-75025470D01*
X156059257Y-75084998D01*
X156059257Y-75282843D01*
X155736719Y-75282843D01*
X155724333Y-75265154D01*
X155721435Y-75260604D01*
X155709804Y-75240459D01*
X155701194Y-75225545D01*
X155701191Y-75225542D01*
X155701190Y-75225541D01*
X155684189Y-75211276D01*
X155670182Y-75199522D01*
X155666210Y-75195883D01*
X154324941Y-73854615D01*
X154319266Y-73848086D01*
X154304727Y-73828791D01*
X154304722Y-73828786D01*
X154253832Y-73783365D01*
X154251293Y-73780967D01*
X154166119Y-73695793D01*
X154162474Y-73691814D01*
X154136456Y-73660806D01*
X154101395Y-73640563D01*
X154096832Y-73637656D01*
X154070793Y-73619424D01*
X154065066Y-73614888D01*
X153317118Y-72947331D01*
X153317102Y-72947319D01*
X153310962Y-72943261D01*
X153289461Y-72925247D01*
X153262562Y-72896950D01*
X153262561Y-72896949D01*
X153262559Y-72896947D01*
X153114901Y-72794174D01*
X153095550Y-72780705D01*
X152908556Y-72700459D01*
X152709241Y-72659500D01*
X152156758Y-72659500D01*
X152156757Y-72659500D01*
X152005060Y-72674925D01*
X151810920Y-72735837D01*
X151810905Y-72735844D01*
X151633000Y-72834589D01*
X151632995Y-72834592D01*
X151478606Y-72967132D01*
X151478604Y-72967134D01*
X151354054Y-73128037D01*
X151354053Y-73128040D01*
X151264440Y-73310728D01*
X151213437Y-73507714D01*
X151203131Y-73710936D01*
X139957262Y-73710936D01*
X139688119Y-73441793D01*
X139684474Y-73437814D01*
X139658456Y-73406807D01*
X139658455Y-73406806D01*
X139647058Y-73400226D01*
X139623392Y-73386561D01*
X139618831Y-73383655D01*
X139605687Y-73374452D01*
X139585684Y-73360446D01*
X139585681Y-73360445D01*
X139580861Y-73358197D01*
X139564055Y-73351235D01*
X139559043Y-73349411D01*
X139519190Y-73342383D01*
X139513910Y-73341212D01*
X139474808Y-73330735D01*
X139439892Y-73333790D01*
X139434481Y-73334264D01*
X139429078Y-73334500D01*
X131432261Y-73334500D01*
X131379092Y-73322522D01*
X130150790Y-72739529D01*
X130150776Y-72739524D01*
X130118701Y-72730082D01*
X130111753Y-72727579D01*
X130048558Y-72700460D01*
X129849241Y-72659500D01*
X129296758Y-72659500D01*
X129296757Y-72659500D01*
X129145060Y-72674925D01*
X128950920Y-72735837D01*
X128950905Y-72735844D01*
X128773000Y-72834589D01*
X128772995Y-72834592D01*
X128618606Y-72967132D01*
X128618604Y-72967134D01*
X128494054Y-73128037D01*
X128494053Y-73128040D01*
X128404440Y-73310728D01*
X128353437Y-73507714D01*
X128343131Y-73710936D01*
X124837550Y-73710936D01*
X124758394Y-73592457D01*
X124737520Y-73525779D01*
X124737500Y-73523572D01*
X124737500Y-72471611D01*
X124757185Y-72404572D01*
X124759319Y-72401361D01*
X124794919Y-72349580D01*
X124886583Y-72216250D01*
X124940784Y-72172159D01*
X124988764Y-72162500D01*
X125381750Y-72162500D01*
X125387808Y-72161903D01*
X125387872Y-72162559D01*
X125394335Y-72161968D01*
X125394331Y-72161920D01*
X125401261Y-72161241D01*
X125401268Y-72161242D01*
X125410026Y-72159379D01*
X125410031Y-72159376D01*
X125415830Y-72157534D01*
X125415881Y-72157697D01*
X125433658Y-72152174D01*
X125440231Y-72150867D01*
X125449516Y-72144661D01*
X125469442Y-72133840D01*
X125483690Y-72127717D01*
X125801362Y-71909318D01*
X125867757Y-71887560D01*
X125871611Y-71887500D01*
X127845230Y-71887500D01*
X127870319Y-71890750D01*
X127870359Y-71890506D01*
X127876370Y-71891473D01*
X127876373Y-71891474D01*
X128895340Y-72055400D01*
X128928050Y-72065444D01*
X128946954Y-72074259D01*
X129071878Y-72085189D01*
X129078961Y-72086223D01*
X129245758Y-72120500D01*
X129245759Y-72120500D01*
X129292532Y-72120500D01*
X129297008Y-72120662D01*
X129304256Y-72121185D01*
X129304268Y-72121187D01*
X129349648Y-72120500D01*
X129798242Y-72120500D01*
X129798243Y-72120500D01*
X129949939Y-72105074D01*
X130144079Y-72044162D01*
X130144080Y-72044161D01*
X130144088Y-72044159D01*
X130322002Y-71945409D01*
X130476395Y-71812866D01*
X130600948Y-71651958D01*
X130690560Y-71469271D01*
X130741563Y-71272285D01*
X130746703Y-71170936D01*
X151203131Y-71170936D01*
X151233942Y-71372063D01*
X151233945Y-71372075D01*
X151304611Y-71562881D01*
X151304613Y-71562884D01*
X151304614Y-71562887D01*
X151320101Y-71587733D01*
X151412245Y-71735567D01*
X151412249Y-71735572D01*
X151547736Y-71878104D01*
X151552441Y-71883053D01*
X151648716Y-71950062D01*
X151719449Y-71999294D01*
X151719450Y-71999294D01*
X151719451Y-71999295D01*
X151906442Y-72079540D01*
X152105759Y-72120500D01*
X152658243Y-72120500D01*
X152734090Y-72112787D01*
X152809938Y-72105074D01*
X152987055Y-72049502D01*
X152994847Y-72047601D01*
X152996801Y-72047257D01*
X154213362Y-71573937D01*
X154258323Y-71565500D01*
X156185418Y-71565500D01*
X156252457Y-71585185D01*
X156256259Y-71587728D01*
X156680464Y-71883051D01*
X156776720Y-71950062D01*
X156811991Y-71987683D01*
X156870372Y-72084264D01*
X157113958Y-72487238D01*
X157152619Y-72551195D01*
X157170500Y-72615341D01*
X157170500Y-72725077D01*
X157150815Y-72792116D01*
X157149464Y-72794174D01*
X157026477Y-72977440D01*
X156972775Y-73022138D01*
X156923513Y-73032343D01*
X156539504Y-73032343D01*
X156481027Y-73043974D01*
X156481026Y-73043975D01*
X156414704Y-73088290D01*
X156370389Y-73154612D01*
X156370388Y-73154613D01*
X156358757Y-73213090D01*
X156358757Y-74052595D01*
X156370388Y-74111072D01*
X156370389Y-74111073D01*
X156414704Y-74177395D01*
X156481026Y-74221710D01*
X156481027Y-74221711D01*
X156539504Y-74233342D01*
X156539507Y-74233343D01*
X156539509Y-74233343D01*
X158479007Y-74233343D01*
X158479008Y-74233342D01*
X158493825Y-74230395D01*
X158537486Y-74221711D01*
X158537486Y-74221710D01*
X158537488Y-74221710D01*
X158603809Y-74177395D01*
X158648124Y-74111074D01*
X158648124Y-74111072D01*
X158648125Y-74111072D01*
X158659756Y-74052595D01*
X158659757Y-74052593D01*
X158659757Y-73213092D01*
X158659756Y-73213090D01*
X158648125Y-73154613D01*
X158648124Y-73154612D01*
X158603809Y-73088290D01*
X158537487Y-73043975D01*
X158537486Y-73043974D01*
X158479009Y-73032343D01*
X158479005Y-73032343D01*
X158077165Y-73032343D01*
X158010126Y-73012658D01*
X157975780Y-72979737D01*
X157844115Y-72792762D01*
X157821611Y-72726615D01*
X157821500Y-72721368D01*
X157821500Y-72615340D01*
X157839381Y-72551194D01*
X157878040Y-72487239D01*
X158223444Y-71915822D01*
X158274969Y-71868635D01*
X158343828Y-71856793D01*
X158408157Y-71884060D01*
X158447268Y-71940965D01*
X158461642Y-71984343D01*
X158461643Y-71984346D01*
X158553684Y-72133567D01*
X158677654Y-72257537D01*
X158826875Y-72349578D01*
X158826880Y-72349580D01*
X158993302Y-72404727D01*
X158993309Y-72404728D01*
X159096019Y-72415221D01*
X159245999Y-72415221D01*
X159246000Y-72415220D01*
X159246000Y-71465222D01*
X159746000Y-71465222D01*
X159746000Y-72415221D01*
X159895972Y-72415221D01*
X159895986Y-72415220D01*
X159998697Y-72404727D01*
X160165119Y-72349580D01*
X160165124Y-72349578D01*
X160314345Y-72257537D01*
X160438315Y-72133567D01*
X160530356Y-71984346D01*
X160530358Y-71984341D01*
X160585505Y-71817919D01*
X160585506Y-71817912D01*
X160595999Y-71715208D01*
X160596000Y-71715195D01*
X160596000Y-71465222D01*
X159746000Y-71465222D01*
X159246000Y-71465222D01*
X159246000Y-70015222D01*
X159746000Y-70015222D01*
X159746000Y-70965222D01*
X160595999Y-70965222D01*
X160595999Y-70715250D01*
X160595998Y-70715235D01*
X160585505Y-70612524D01*
X160530358Y-70446102D01*
X160530356Y-70446097D01*
X160438315Y-70296876D01*
X160314345Y-70172906D01*
X160165124Y-70080865D01*
X160165119Y-70080863D01*
X159998697Y-70025716D01*
X159998690Y-70025715D01*
X159895986Y-70015222D01*
X159746000Y-70015222D01*
X159246000Y-70015222D01*
X159096027Y-70015222D01*
X159096012Y-70015223D01*
X158993302Y-70025716D01*
X158826880Y-70080863D01*
X158826875Y-70080865D01*
X158677654Y-70172906D01*
X158553684Y-70296876D01*
X158461643Y-70446097D01*
X158461640Y-70446105D01*
X158446698Y-70491196D01*
X158406925Y-70548640D01*
X158342409Y-70575462D01*
X158273633Y-70563146D01*
X158229223Y-70525823D01*
X158168151Y-70443073D01*
X158146554Y-70427134D01*
X158058882Y-70362429D01*
X158058880Y-70362428D01*
X157930700Y-70317575D01*
X157900270Y-70314722D01*
X157900266Y-70314722D01*
X157091734Y-70314722D01*
X157091730Y-70314722D01*
X157061300Y-70317575D01*
X157061298Y-70317575D01*
X156933119Y-70362428D01*
X156933117Y-70362429D01*
X156823848Y-70443073D01*
X156807094Y-70465773D01*
X156781987Y-70491139D01*
X156253716Y-70889505D01*
X156188338Y-70914152D01*
X156179057Y-70914500D01*
X154280663Y-70914500D01*
X154218607Y-70897855D01*
X153842627Y-70680523D01*
X153165392Y-70289052D01*
X153161012Y-70286268D01*
X153095548Y-70240704D01*
X153074039Y-70231474D01*
X153045367Y-70219169D01*
X153038797Y-70215875D01*
X153025867Y-70208401D01*
X153025861Y-70208398D01*
X152991984Y-70196145D01*
X152988622Y-70194817D01*
X152908561Y-70160461D01*
X152908559Y-70160460D01*
X152908558Y-70160460D01*
X152709241Y-70119500D01*
X152156758Y-70119500D01*
X152156757Y-70119500D01*
X152005060Y-70134925D01*
X151810920Y-70195837D01*
X151810905Y-70195844D01*
X151633000Y-70294589D01*
X151632995Y-70294592D01*
X151478606Y-70427132D01*
X151478604Y-70427134D01*
X151354054Y-70588037D01*
X151354053Y-70588040D01*
X151264440Y-70770728D01*
X151213437Y-70967714D01*
X151203131Y-71170936D01*
X130746703Y-71170936D01*
X130751869Y-71069064D01*
X130721056Y-70867929D01*
X130650386Y-70677113D01*
X130542752Y-70504429D01*
X130402559Y-70356947D01*
X130301011Y-70286268D01*
X130235550Y-70240705D01*
X130048556Y-70160459D01*
X129849241Y-70119500D01*
X129296758Y-70119500D01*
X129296757Y-70119500D01*
X129145060Y-70134925D01*
X128950920Y-70195837D01*
X128950905Y-70195844D01*
X128773000Y-70294589D01*
X128772995Y-70294592D01*
X128641446Y-70407524D01*
X128635509Y-70412031D01*
X128629388Y-70416121D01*
X128629377Y-70416131D01*
X127845366Y-71200179D01*
X127784044Y-71233666D01*
X127757683Y-71236500D01*
X125871612Y-71236500D01*
X125804573Y-71216815D01*
X125801363Y-71214681D01*
X125479154Y-70993163D01*
X125476670Y-70991645D01*
X125469738Y-70987408D01*
X125462677Y-70983596D01*
X125462549Y-70983531D01*
X125450108Y-70977223D01*
X125440230Y-70973132D01*
X125381751Y-70961499D01*
X125374255Y-70960761D01*
X125366859Y-70959579D01*
X125363954Y-70958932D01*
X125363953Y-70958932D01*
X125355008Y-70958980D01*
X125355004Y-70958981D01*
X125354982Y-70958985D01*
X125353999Y-70959084D01*
X125348948Y-70959610D01*
X125348946Y-70959596D01*
X125330137Y-70961500D01*
X123442247Y-70961500D01*
X123383770Y-70973131D01*
X123383769Y-70973132D01*
X123317447Y-71017447D01*
X123273132Y-71083769D01*
X123273131Y-71083770D01*
X123261500Y-71142247D01*
X123261500Y-71981752D01*
X123273131Y-72040229D01*
X123273132Y-72040230D01*
X123317447Y-72106552D01*
X123383769Y-72150867D01*
X123383770Y-72150868D01*
X123442247Y-72162499D01*
X123442250Y-72162500D01*
X123442252Y-72162500D01*
X123835235Y-72162500D01*
X123902274Y-72182185D01*
X123937416Y-72216250D01*
X124064681Y-72401361D01*
X124086440Y-72467756D01*
X124086500Y-72471611D01*
X124086500Y-73538358D01*
X124071570Y-73597347D01*
X123734167Y-74221197D01*
X123684960Y-74270801D01*
X123616748Y-74285927D01*
X123551186Y-74261773D01*
X123509090Y-74206008D01*
X123507391Y-74201211D01*
X123494359Y-74161882D01*
X123494356Y-74161875D01*
X123402315Y-74012654D01*
X123278345Y-73888684D01*
X123129124Y-73796643D01*
X123129119Y-73796641D01*
X122962697Y-73741494D01*
X122962690Y-73741493D01*
X122859986Y-73731000D01*
X122710000Y-73731000D01*
X122710000Y-76130999D01*
X122209999Y-76130999D01*
X122210000Y-76130998D01*
X122210000Y-75181000D01*
X121360001Y-75181000D01*
X115062500Y-75181000D01*
X115062500Y-74681000D01*
X121360000Y-74681000D01*
X122210000Y-74681000D01*
X122210000Y-73731000D01*
X122060027Y-73731000D01*
X122060012Y-73731001D01*
X121957302Y-73741494D01*
X121790880Y-73796641D01*
X121790875Y-73796643D01*
X121641654Y-73888684D01*
X121517684Y-74012654D01*
X121425643Y-74161875D01*
X121425641Y-74161880D01*
X121370494Y-74328302D01*
X121370493Y-74328309D01*
X121360000Y-74431013D01*
X121360000Y-74681000D01*
X115062500Y-74681000D01*
X115062500Y-71031752D01*
X120261500Y-71031752D01*
X120273131Y-71090229D01*
X120273132Y-71090230D01*
X120317447Y-71156552D01*
X120383769Y-71200867D01*
X120383770Y-71200868D01*
X120442247Y-71212499D01*
X120442250Y-71212500D01*
X120442252Y-71212500D01*
X121724500Y-71212500D01*
X121791539Y-71232185D01*
X121837294Y-71284989D01*
X121848500Y-71336500D01*
X121848500Y-71770571D01*
X121840489Y-71814417D01*
X121616225Y-72407676D01*
X121616223Y-72407684D01*
X121614408Y-72418038D01*
X121606833Y-72444077D01*
X121588956Y-72487236D01*
X121568318Y-72643998D01*
X121568318Y-72644001D01*
X121588955Y-72800760D01*
X121588956Y-72800762D01*
X121628797Y-72896948D01*
X121649464Y-72946841D01*
X121745718Y-73072282D01*
X121871159Y-73168536D01*
X122017238Y-73229044D01*
X122095619Y-73239363D01*
X122173999Y-73249682D01*
X122174000Y-73249682D01*
X122174001Y-73249682D01*
X122226254Y-73242802D01*
X122330762Y-73229044D01*
X122476841Y-73168536D01*
X122602282Y-73072282D01*
X122698536Y-72946841D01*
X122759044Y-72800762D01*
X122779682Y-72644000D01*
X122771358Y-72580776D01*
X122759044Y-72487239D01*
X122759044Y-72487238D01*
X122741021Y-72443727D01*
X122733271Y-72416659D01*
X122731775Y-72407679D01*
X122507511Y-71814419D01*
X122499500Y-71770573D01*
X122499500Y-71204721D01*
X122519185Y-71137682D01*
X122520399Y-71135829D01*
X122550867Y-71090231D01*
X122550868Y-71090229D01*
X122562499Y-71031752D01*
X122562500Y-71031750D01*
X122562500Y-70192249D01*
X122562499Y-70192247D01*
X122550868Y-70133770D01*
X122550867Y-70133769D01*
X122506552Y-70067447D01*
X122440230Y-70023132D01*
X122440229Y-70023131D01*
X122381752Y-70011500D01*
X122381748Y-70011500D01*
X120442252Y-70011500D01*
X120442247Y-70011500D01*
X120383770Y-70023131D01*
X120383769Y-70023132D01*
X120317447Y-70067447D01*
X120273132Y-70133769D01*
X120273131Y-70133770D01*
X120261500Y-70192247D01*
X120261500Y-71031752D01*
X115062500Y-71031752D01*
X115062500Y-69912000D01*
X122962000Y-69912000D01*
X122962000Y-70109844D01*
X122968401Y-70169372D01*
X122968403Y-70169379D01*
X123018645Y-70304086D01*
X123018649Y-70304093D01*
X123104809Y-70419187D01*
X123104812Y-70419190D01*
X123219906Y-70505350D01*
X123219913Y-70505354D01*
X123354620Y-70555596D01*
X123354627Y-70555598D01*
X123414155Y-70561999D01*
X123414172Y-70562000D01*
X124162000Y-70562000D01*
X124162000Y-69912000D01*
X124662000Y-69912000D01*
X124662000Y-70562000D01*
X125409828Y-70562000D01*
X125409844Y-70561999D01*
X125469372Y-70555598D01*
X125469379Y-70555596D01*
X125604086Y-70505354D01*
X125604093Y-70505350D01*
X125719187Y-70419190D01*
X125719190Y-70419187D01*
X125805350Y-70304093D01*
X125805354Y-70304086D01*
X125855596Y-70169379D01*
X125855598Y-70169372D01*
X125861999Y-70109844D01*
X125862000Y-70109827D01*
X125862000Y-69912000D01*
X124662000Y-69912000D01*
X124162000Y-69912000D01*
X122962000Y-69912000D01*
X115062500Y-69912000D01*
X115062500Y-69412000D01*
X122962000Y-69412000D01*
X124162000Y-69412000D01*
X124162000Y-68762000D01*
X124662000Y-68762000D01*
X124662000Y-69412000D01*
X125862000Y-69412000D01*
X125862000Y-69214172D01*
X125861999Y-69214155D01*
X125855598Y-69154627D01*
X125855596Y-69154620D01*
X125805354Y-69019913D01*
X125805350Y-69019906D01*
X125719190Y-68904812D01*
X125719187Y-68904809D01*
X125604093Y-68818649D01*
X125604086Y-68818645D01*
X125469379Y-68768403D01*
X125469372Y-68768401D01*
X125409844Y-68762000D01*
X124662000Y-68762000D01*
X124162000Y-68762000D01*
X123414155Y-68762000D01*
X123354627Y-68768401D01*
X123354620Y-68768403D01*
X123219913Y-68818645D01*
X123219906Y-68818649D01*
X123104812Y-68904809D01*
X123104809Y-68904812D01*
X123018649Y-69019906D01*
X123018645Y-69019913D01*
X122968403Y-69154620D01*
X122968401Y-69154627D01*
X122962000Y-69214155D01*
X122962000Y-69412000D01*
X115062500Y-69412000D01*
X115062500Y-68630936D01*
X128343131Y-68630936D01*
X128373942Y-68832063D01*
X128373945Y-68832075D01*
X128444611Y-69022881D01*
X128444615Y-69022888D01*
X128552245Y-69195567D01*
X128552247Y-69195569D01*
X128552248Y-69195571D01*
X128692441Y-69343053D01*
X128820844Y-69432424D01*
X128859449Y-69459294D01*
X128859450Y-69459294D01*
X128859451Y-69459295D01*
X129046442Y-69539540D01*
X129245759Y-69580500D01*
X129798243Y-69580500D01*
X129949939Y-69565074D01*
X130144079Y-69504162D01*
X130144080Y-69504161D01*
X130144088Y-69504159D01*
X130322002Y-69405409D01*
X130476395Y-69272866D01*
X130600948Y-69111958D01*
X130690560Y-68929271D01*
X130741563Y-68732285D01*
X130746703Y-68630936D01*
X151203131Y-68630936D01*
X151233942Y-68832063D01*
X151233945Y-68832075D01*
X151304611Y-69022881D01*
X151304615Y-69022888D01*
X151412245Y-69195567D01*
X151412247Y-69195569D01*
X151412248Y-69195571D01*
X151552441Y-69343053D01*
X151680844Y-69432424D01*
X151719449Y-69459294D01*
X151719450Y-69459294D01*
X151719451Y-69459295D01*
X151906442Y-69539540D01*
X152105759Y-69580500D01*
X152658243Y-69580500D01*
X152809939Y-69565074D01*
X153004079Y-69504162D01*
X153004080Y-69504161D01*
X153004088Y-69504159D01*
X153182002Y-69405409D01*
X153336395Y-69272866D01*
X153460948Y-69111958D01*
X153550560Y-68929271D01*
X153601563Y-68732285D01*
X153611869Y-68529064D01*
X153581056Y-68327929D01*
X153510386Y-68137113D01*
X153402752Y-67964429D01*
X153262559Y-67816947D01*
X153164087Y-67748409D01*
X153095550Y-67700705D01*
X152908556Y-67620459D01*
X152709241Y-67579500D01*
X152156758Y-67579500D01*
X152156757Y-67579500D01*
X152005060Y-67594925D01*
X151810920Y-67655837D01*
X151810905Y-67655844D01*
X151633000Y-67754589D01*
X151632995Y-67754592D01*
X151478606Y-67887132D01*
X151478604Y-67887134D01*
X151354054Y-68048037D01*
X151354053Y-68048040D01*
X151264440Y-68230728D01*
X151213437Y-68427714D01*
X151203131Y-68630936D01*
X130746703Y-68630936D01*
X130751869Y-68529064D01*
X130721056Y-68327929D01*
X130650386Y-68137113D01*
X130542752Y-67964429D01*
X130402559Y-67816947D01*
X130304087Y-67748409D01*
X130235550Y-67700705D01*
X130048556Y-67620459D01*
X129849241Y-67579500D01*
X129296758Y-67579500D01*
X129296757Y-67579500D01*
X129145060Y-67594925D01*
X128950920Y-67655837D01*
X128950905Y-67655844D01*
X128773000Y-67754589D01*
X128772995Y-67754592D01*
X128618606Y-67887132D01*
X128618604Y-67887134D01*
X128494054Y-68048037D01*
X128494053Y-68048040D01*
X128404440Y-68230728D01*
X128353437Y-68427714D01*
X128343131Y-68630936D01*
X115062500Y-68630936D01*
X115062500Y-67434000D01*
X115082185Y-67366961D01*
X115134989Y-67321206D01*
X115186500Y-67310000D01*
X166753500Y-67310000D01*
X166820539Y-67329685D01*
G37*
%TD.AperFunction*%
%TD*%
%TA.AperFunction,Conductor*%
%TO.N,Net-(D1-A)*%
G36*
X150576356Y-100111392D02*
G01*
X150912069Y-100577159D01*
X150914127Y-100585874D01*
X150912069Y-100590841D01*
X150576356Y-101056607D01*
X150568739Y-101061315D01*
X150561274Y-101060044D01*
X149922109Y-100712323D01*
X149916479Y-100705359D01*
X149916000Y-100702045D01*
X149916000Y-100465954D01*
X149919427Y-100457681D01*
X149922106Y-100455678D01*
X150561276Y-100107954D01*
X150570179Y-100107012D01*
X150576356Y-100111392D01*
G37*
%TD.AperFunction*%
%TD*%
%TA.AperFunction,Conductor*%
%TO.N,Net-(Q4-G)*%
G36*
X124816850Y-88873427D02*
G01*
X124818448Y-88875419D01*
X125289772Y-89616160D01*
X125291322Y-89624980D01*
X125287919Y-89630962D01*
X124722018Y-90163455D01*
X124713644Y-90166629D01*
X124705982Y-90163455D01*
X124528031Y-89996010D01*
X124139750Y-89630652D01*
X124136074Y-89622489D01*
X124137615Y-89616321D01*
X124561629Y-88875885D01*
X124568714Y-88870409D01*
X124571782Y-88870000D01*
X124808577Y-88870000D01*
X124816850Y-88873427D01*
G37*
%TD.AperFunction*%
%TD*%
%TA.AperFunction,Conductor*%
%TO.N,BLK{slash}OBST*%
G36*
X124069226Y-106165215D02*
G01*
X124709696Y-107274032D01*
X124710867Y-107282910D01*
X124706907Y-107288993D01*
X123713725Y-108089542D01*
X123705134Y-108092066D01*
X123698246Y-108088840D01*
X122514577Y-106943080D01*
X122511017Y-106934865D01*
X122514308Y-106926538D01*
X122514375Y-106926470D01*
X122681246Y-106759598D01*
X122684838Y-106757150D01*
X124054421Y-106160340D01*
X124063374Y-106160178D01*
X124069226Y-106165215D01*
G37*
%TD.AperFunction*%
%TD*%
%TA.AperFunction,Conductor*%
%TO.N,DC_LIGHT*%
G36*
X160905165Y-90844422D02*
G01*
X161791123Y-91434244D01*
X161796110Y-91441681D01*
X161795670Y-91447882D01*
X161501300Y-92280662D01*
X161495312Y-92287320D01*
X161488246Y-92288287D01*
X160103838Y-92045214D01*
X160097588Y-92041963D01*
X159931471Y-91875846D01*
X159928044Y-91867573D01*
X159931244Y-91859533D01*
X160890184Y-90846118D01*
X160898358Y-90842465D01*
X160905165Y-90844422D01*
G37*
%TD.AperFunction*%
%TD*%
%TA.AperFunction,Conductor*%
%TO.N,STS_DOOR*%
G36*
X122299188Y-71847427D02*
G01*
X122301859Y-71851563D01*
X122539551Y-72480344D01*
X122539271Y-72489294D01*
X122533109Y-72495280D01*
X122178502Y-72643123D01*
X122169548Y-72643144D01*
X122169498Y-72643123D01*
X121814890Y-72495280D01*
X121808572Y-72488933D01*
X121808448Y-72480345D01*
X122046141Y-71851562D01*
X122052272Y-71845036D01*
X122057085Y-71844000D01*
X122290915Y-71844000D01*
X122299188Y-71847427D01*
G37*
%TD.AperFunction*%
%TD*%
%TA.AperFunction,Conductor*%
%TO.N,RED{slash}CTRL*%
G36*
X125988076Y-102146941D02*
G01*
X125992071Y-102153140D01*
X126416563Y-103802983D01*
X126415306Y-103811849D01*
X126413505Y-103814171D01*
X126246161Y-103981515D01*
X126237888Y-103984942D01*
X126234995Y-103984579D01*
X124589825Y-103564748D01*
X124582656Y-103559382D01*
X124581081Y-103552200D01*
X124712314Y-102290695D01*
X124716578Y-102282823D01*
X124722691Y-102280277D01*
X125979483Y-102144423D01*
X125988076Y-102146941D01*
G37*
%TD.AperFunction*%
%TD*%
%TA.AperFunction,Conductor*%
%TO.N,Net-(Q3-G)*%
G36*
X125367269Y-71165623D02*
G01*
X125756928Y-71433513D01*
X125761804Y-71441024D01*
X125762000Y-71443154D01*
X125762000Y-71680846D01*
X125758573Y-71689119D01*
X125756928Y-71690487D01*
X125367269Y-71958376D01*
X125358511Y-71960239D01*
X125356105Y-71959520D01*
X124436641Y-71572785D01*
X124430343Y-71566418D01*
X124430392Y-71557464D01*
X124436641Y-71551215D01*
X124698620Y-71441024D01*
X125356106Y-71164478D01*
X125365059Y-71164430D01*
X125367269Y-71165623D01*
G37*
%TD.AperFunction*%
%TD*%
%TA.AperFunction,Conductor*%
%TO.N,STS_OBST*%
G36*
X121695452Y-86689351D02*
G01*
X121695469Y-86689382D01*
X121896142Y-87070342D01*
X121896965Y-87079259D01*
X121891947Y-87085744D01*
X121285829Y-87460853D01*
X121279672Y-87462604D01*
X121042064Y-87462604D01*
X121033791Y-87459177D01*
X121030735Y-87453827D01*
X120936585Y-87088933D01*
X120937836Y-87080066D01*
X120942428Y-87075676D01*
X121679635Y-86684499D01*
X121688547Y-86683649D01*
X121695452Y-86689351D01*
G37*
%TD.AperFunction*%
%TD*%
%TA.AperFunction,Conductor*%
%TO.N,Net-(D3-A)*%
G36*
X150576356Y-95031392D02*
G01*
X150912069Y-95497159D01*
X150914127Y-95505874D01*
X150912069Y-95510841D01*
X150576356Y-95976607D01*
X150568739Y-95981315D01*
X150561274Y-95980044D01*
X149922109Y-95632323D01*
X149916479Y-95625359D01*
X149916000Y-95622045D01*
X149916000Y-95385954D01*
X149919427Y-95377681D01*
X149922106Y-95375678D01*
X150561276Y-95027954D01*
X150570179Y-95027012D01*
X150576356Y-95031392D01*
G37*
%TD.AperFunction*%
%TD*%
%TA.AperFunction,Conductor*%
%TO.N,RED{slash}CTRL*%
G36*
X161178530Y-105901989D02*
G01*
X161793182Y-106672705D01*
X161795661Y-106681310D01*
X161793182Y-106687295D01*
X161178530Y-107458010D01*
X161170693Y-107462341D01*
X161164317Y-107461262D01*
X159804634Y-106808186D01*
X159798661Y-106801515D01*
X159798000Y-106797639D01*
X159798000Y-106562360D01*
X159801427Y-106554087D01*
X159804631Y-106551814D01*
X161164318Y-105898736D01*
X161173259Y-105898245D01*
X161178530Y-105901989D01*
G37*
%TD.AperFunction*%
%TD*%
%TA.AperFunction,Conductor*%
%TO.N,RED{slash}CTRL*%
G36*
X161464526Y-74186466D02*
G01*
X161854185Y-74454356D01*
X161859061Y-74461867D01*
X161859257Y-74463997D01*
X161859257Y-74701689D01*
X161855830Y-74709962D01*
X161854185Y-74711330D01*
X161464526Y-74979219D01*
X161455768Y-74981082D01*
X161453362Y-74980363D01*
X160533898Y-74593628D01*
X160527600Y-74587261D01*
X160527649Y-74578307D01*
X160533898Y-74572058D01*
X160795877Y-74461867D01*
X161453363Y-74185321D01*
X161462316Y-74185273D01*
X161464526Y-74186466D01*
G37*
%TD.AperFunction*%
%TD*%
%TA.AperFunction,Conductor*%
%TO.N,DC_OPEN*%
G36*
X160905165Y-95924422D02*
G01*
X161791123Y-96514244D01*
X161796110Y-96521681D01*
X161795670Y-96527882D01*
X161501300Y-97360662D01*
X161495312Y-97367320D01*
X161488246Y-97368287D01*
X160103838Y-97125214D01*
X160097588Y-97121963D01*
X159931471Y-96955846D01*
X159928044Y-96947573D01*
X159931244Y-96939533D01*
X160890184Y-95926118D01*
X160898358Y-95922465D01*
X160905165Y-95924422D01*
G37*
%TD.AperFunction*%
%TD*%
%TA.AperFunction,Conductor*%
%TO.N,+5V*%
G36*
X150184473Y-111704194D02*
G01*
X150912803Y-112139594D01*
X150918146Y-112146780D01*
X150918500Y-112149636D01*
X150918500Y-112386363D01*
X150915073Y-112394636D01*
X150912803Y-112396405D01*
X150184476Y-112831804D01*
X150175617Y-112833108D01*
X150170223Y-112830058D01*
X150098614Y-112758851D01*
X149613341Y-112276294D01*
X149609892Y-112268033D01*
X149613296Y-112259750D01*
X150170224Y-111705940D01*
X150178506Y-111702537D01*
X150184473Y-111704194D01*
G37*
%TD.AperFunction*%
%TD*%
%TA.AperFunction,Conductor*%
%TO.N,Net-(Q3-G)*%
G36*
X128789913Y-70560290D02*
G01*
X129542187Y-71115342D01*
X129546810Y-71123012D01*
X129546588Y-71127608D01*
X129350113Y-71909596D01*
X129344774Y-71916785D01*
X129336908Y-71918296D01*
X127909013Y-71688583D01*
X127901389Y-71683886D01*
X127899171Y-71677032D01*
X127899171Y-71441845D01*
X127902597Y-71433573D01*
X128774698Y-70561432D01*
X128782969Y-70558006D01*
X128789913Y-70560290D01*
G37*
%TD.AperFunction*%
%TD*%
%TA.AperFunction,Conductor*%
%TO.N,+12V*%
G36*
X125556597Y-117572056D02*
G01*
X126994488Y-118489550D01*
X126999618Y-118496889D01*
X126999894Y-118499413D01*
X126999894Y-118736030D01*
X126996467Y-118744303D01*
X126993766Y-118746318D01*
X125490095Y-119560670D01*
X125481188Y-119561597D01*
X125475152Y-119557388D01*
X124718619Y-118545515D01*
X124716410Y-118536837D01*
X124719117Y-118530884D01*
X125541432Y-117574291D01*
X125549422Y-117570252D01*
X125556597Y-117572056D01*
G37*
%TD.AperFunction*%
%TD*%
%TA.AperFunction,Conductor*%
%TO.N,DC_OPEN*%
G36*
X153770723Y-100107954D02*
G01*
X154409891Y-100455677D01*
X154415521Y-100462640D01*
X154416000Y-100465954D01*
X154416000Y-100702045D01*
X154412573Y-100710318D01*
X154409891Y-100712323D01*
X153770725Y-101060044D01*
X153761820Y-101060987D01*
X153755643Y-101056607D01*
X153419929Y-100590839D01*
X153417872Y-100582126D01*
X153419928Y-100577161D01*
X153755644Y-100111391D01*
X153763260Y-100106684D01*
X153770723Y-100107954D01*
G37*
%TD.AperFunction*%
%TD*%
%TA.AperFunction,Conductor*%
%TO.N,Net-(Q3-G)*%
G36*
X124539018Y-73634427D02*
G01*
X124540474Y-73636200D01*
X125034704Y-74375950D01*
X125036450Y-74384733D01*
X125033007Y-74390957D01*
X124468018Y-74924428D01*
X124459650Y-74927616D01*
X124451968Y-74924442D01*
X123885585Y-74391497D01*
X123881908Y-74383332D01*
X123883311Y-74377412D01*
X124283682Y-73637133D01*
X124290632Y-73631487D01*
X124293973Y-73631000D01*
X124530745Y-73631000D01*
X124539018Y-73634427D01*
G37*
%TD.AperFunction*%
%TD*%
%TA.AperFunction,Conductor*%
%TO.N,Net-(D4-K)*%
G36*
X135694522Y-118161509D02*
G01*
X136148798Y-118464925D01*
X136153775Y-118472369D01*
X136154000Y-118474654D01*
X136154000Y-118712456D01*
X136150573Y-118720729D01*
X136149200Y-118721905D01*
X135699516Y-119050290D01*
X135690814Y-119052401D01*
X135684345Y-119049116D01*
X135261016Y-118626011D01*
X135257587Y-118617739D01*
X135260752Y-118609733D01*
X135679493Y-118163233D01*
X135687650Y-118159545D01*
X135694522Y-118161509D01*
G37*
%TD.AperFunction*%
%TD*%
%TA.AperFunction,Conductor*%
%TO.N,RED{slash}CTRL*%
G36*
X161462309Y-80374258D02*
G01*
X161464267Y-80375438D01*
X161900550Y-80700540D01*
X161905136Y-80708231D01*
X161902941Y-80716913D01*
X161901832Y-80718195D01*
X161734835Y-80885193D01*
X161734390Y-80885594D01*
X161464708Y-81105077D01*
X161456129Y-81107642D01*
X161452779Y-81106784D01*
X160536361Y-80720529D01*
X160530068Y-80714158D01*
X160530124Y-80705204D01*
X160536495Y-80698911D01*
X160536958Y-80698734D01*
X161453368Y-80373793D01*
X161462309Y-80374258D01*
G37*
%TD.AperFunction*%
%TD*%
M02*
