%TF.GenerationSoftware,KiCad,Pcbnew,7.0.9*%
%TF.CreationDate,2023-11-21T11:19:31-08:00*%
%TF.ProjectId,RatGDO-OpenSource-D1Mini-ESP8266-Tubez,52617447-444f-42d4-9f70-656e536f7572,2.5.0*%
%TF.SameCoordinates,Original*%
%TF.FileFunction,Copper,L2,Bot*%
%TF.FilePolarity,Positive*%
%FSLAX46Y46*%
G04 Gerber Fmt 4.6, Leading zero omitted, Abs format (unit mm)*
G04 Created by KiCad (PCBNEW 7.0.9) date 2023-11-21 11:19:31*
%MOMM*%
%LPD*%
G01*
G04 APERTURE LIST*
%TA.AperFunction,ComponentPad*%
%ADD10R,2.000000X2.000000*%
%TD*%
%TA.AperFunction,ComponentPad*%
%ADD11O,2.000000X1.600000*%
%TD*%
%TA.AperFunction,ComponentPad*%
%ADD12R,1.500000X2.000000*%
%TD*%
%TA.AperFunction,ComponentPad*%
%ADD13O,1.500000X2.000000*%
%TD*%
%TA.AperFunction,ComponentPad*%
%ADD14R,2.600000X2.600000*%
%TD*%
%TA.AperFunction,ComponentPad*%
%ADD15C,2.600000*%
%TD*%
%TA.AperFunction,ComponentPad*%
%ADD16R,2.300000X1.700000*%
%TD*%
%TA.AperFunction,ComponentPad*%
%ADD17O,2.300000X1.700000*%
%TD*%
%TA.AperFunction,ViaPad*%
%ADD18C,0.800000*%
%TD*%
%TA.AperFunction,Conductor*%
%ADD19C,0.250000*%
%TD*%
G04 APERTURE END LIST*
D10*
%TO.P,U1,1,~{RST}*%
%TO.N,unconnected-(U1-~{RST}-Pad1)*%
X129547500Y-66040000D03*
D11*
%TO.P,U1,2,A0*%
%TO.N,unconnected-(U1-A0-Pad2)*%
X129547500Y-68580000D03*
%TO.P,U1,3,D0*%
%TO.N,Net-(U1-D0)*%
X129547500Y-71120000D03*
%TO.P,U1,4,SCK/D5*%
%TO.N,Net-(D1-A)*%
X129547500Y-73660000D03*
%TO.P,U1,5,MISO/D6*%
%TO.N,Net-(D2-A)*%
X129547500Y-76200000D03*
%TO.P,U1,6,MOSI/D7*%
%TO.N,Net-(U1-MOSI{slash}D7)*%
X129547500Y-78740000D03*
%TO.P,U1,7,CS/D8*%
%TO.N,Net-(U1-CS{slash}D8)*%
X129547500Y-81280000D03*
%TO.P,U1,8,3V3*%
%TO.N,+3V3*%
X129547500Y-83820000D03*
%TO.P,U1,9,5V*%
%TO.N,+5V*%
X152407500Y-83820000D03*
%TO.P,U1,10,GND*%
%TO.N,GND*%
X152407500Y-81280000D03*
%TO.P,U1,11,D4*%
%TO.N,unconnected-(U1-D4-Pad11)*%
X152407500Y-78740000D03*
%TO.P,U1,12,D3*%
%TO.N,Net-(D3-A)*%
X152407500Y-76200000D03*
%TO.P,U1,13,SDA/D2*%
%TO.N,/ESP_RX*%
X152407500Y-73660000D03*
%TO.P,U1,14,SCL/D1*%
%TO.N,/ESP_TX*%
X152407500Y-71120000D03*
%TO.P,U1,15,RX*%
%TO.N,unconnected-(U1-RX-Pad15)*%
X152407500Y-68580000D03*
%TO.P,U1,16,TX*%
%TO.N,unconnected-(U1-TX-Pad16)*%
X152407500Y-66040000D03*
%TD*%
D12*
%TO.P,U2,1,IN*%
%TO.N,Net-(D4-K)*%
X154940000Y-119380000D03*
D13*
%TO.P,U2,2,GND*%
%TO.N,GND*%
X157480000Y-119380000D03*
%TO.P,U2,3,OUT*%
%TO.N,+5V*%
X160020000Y-119380000D03*
%TD*%
D14*
%TO.P,J1,1,WHT/GND*%
%TO.N,GND*%
X124714000Y-97282000D03*
D15*
%TO.P,J1,2,RED/CTRL*%
%TO.N,RED{slash}CTRL*%
X124714000Y-102282000D03*
%TO.P,J1,3,BLK/OBST*%
%TO.N,BLK{slash}OBST*%
X124714000Y-107282000D03*
%TD*%
D16*
%TO.P,J2,1,WHT/GND*%
%TO.N,GND*%
X161798000Y-110490000D03*
D17*
%TO.P,J2,2,RED/CTRL*%
%TO.N,RED{slash}CTRL*%
X161798000Y-107950000D03*
%TO.P,J2,3,BLK/OBST*%
%TO.N,BLK{slash}OBST*%
X161798000Y-105410000D03*
%TO.P,J2,4,STS_DOOR*%
%TO.N,STS_DOOR*%
X161798000Y-102870000D03*
%TO.P,J2,5,STS_OBST*%
%TO.N,STS_OBST*%
X161798000Y-100330000D03*
%TO.P,J2,6,DC_OPEN*%
%TO.N,DC_OPEN*%
X161798000Y-97790000D03*
%TO.P,J2,7,DC_CLOSE*%
%TO.N,DC_CLOSE*%
X161798000Y-95250000D03*
%TO.P,J2,8,DC_LIGHT*%
%TO.N,DC_LIGHT*%
X161798000Y-92710000D03*
%TO.P,J2,9,3V3*%
%TO.N,+3V3*%
X161798000Y-90170000D03*
%TO.P,J2,10,5V*%
%TO.N,+5V*%
X161798000Y-87630000D03*
%TO.P,J2,11,12V*%
%TO.N,+12V*%
X161798000Y-85090000D03*
%TD*%
D14*
%TO.P,J3,1,GND*%
%TO.N,GND*%
X124714000Y-113538000D03*
D15*
%TO.P,J3,2,6-30V*%
%TO.N,+12V*%
X124714000Y-118538000D03*
%TD*%
D18*
%TO.N,Net-(D2-A)*%
X135890000Y-76200000D03*
%TO.N,STS_DOOR*%
X119888000Y-72644000D03*
%TO.N,+3V3*%
X142018000Y-90186000D03*
%TD*%
D19*
%TO.N,Net-(D2-A)*%
X129547500Y-76200000D02*
X135890000Y-76200000D01*
%TO.N,+5V*%
X154940000Y-83820000D02*
X158750000Y-87630000D01*
X152407500Y-83820000D02*
X154940000Y-83820000D01*
X164338000Y-89154000D02*
X164338000Y-116332000D01*
X161290000Y-119380000D02*
X160288700Y-119380000D01*
X162814000Y-87630000D02*
X164338000Y-89154000D01*
X158750000Y-87630000D02*
X161290000Y-87630000D01*
X164338000Y-116332000D02*
X161290000Y-119380000D01*
%TO.N,BLK{slash}OBST*%
X159258000Y-105410000D02*
X161290000Y-105410000D01*
X157226000Y-107442000D02*
X159258000Y-105410000D01*
X125585000Y-107442000D02*
X157226000Y-107442000D01*
%TO.N,STS_DOOR*%
X119888000Y-85090000D02*
X137668000Y-102870000D01*
X137668000Y-102870000D02*
X161798000Y-102870000D01*
X119888000Y-72644000D02*
X119888000Y-85090000D01*
%TO.N,+3V3*%
X142018000Y-90186000D02*
X142034000Y-90170000D01*
X135652000Y-83820000D02*
X129547500Y-83820000D01*
X142034000Y-90170000D02*
X161798000Y-90170000D01*
X142018000Y-90186000D02*
X135652000Y-83820000D01*
%TO.N,+12V*%
X124714000Y-118538000D02*
X118364000Y-112188000D01*
X118364000Y-112188000D02*
X118364000Y-71120000D01*
X161798000Y-71628000D02*
X161798000Y-85090000D01*
X119634000Y-69850000D02*
X160020000Y-69850000D01*
X118364000Y-71120000D02*
X119634000Y-69850000D01*
X160020000Y-69850000D02*
X161798000Y-71628000D01*
%TD*%
%TA.AperFunction,Conductor*%
%TO.N,+5V*%
G36*
X161178530Y-86851989D02*
G01*
X161793182Y-87622705D01*
X161795661Y-87631310D01*
X161793182Y-87637295D01*
X161178530Y-88408010D01*
X161170693Y-88412341D01*
X161164317Y-88411262D01*
X159804634Y-87758186D01*
X159798661Y-87751515D01*
X159798000Y-87747639D01*
X159798000Y-87512360D01*
X159801427Y-87504087D01*
X159804631Y-87501814D01*
X161164318Y-86848736D01*
X161173259Y-86848245D01*
X161178530Y-86851989D01*
G37*
%TD.AperFunction*%
%TD*%
%TA.AperFunction,Conductor*%
%TO.N,BLK{slash}OBST*%
G36*
X161178530Y-104631989D02*
G01*
X161793182Y-105402705D01*
X161795661Y-105411310D01*
X161793182Y-105417295D01*
X161178530Y-106188010D01*
X161170693Y-106192341D01*
X161164317Y-106191262D01*
X159804634Y-105538186D01*
X159798661Y-105531515D01*
X159798000Y-105527639D01*
X159798000Y-105292360D01*
X159801427Y-105284087D01*
X159804631Y-105281814D01*
X161164318Y-104628736D01*
X161173259Y-104628245D01*
X161178530Y-104631989D01*
G37*
%TD.AperFunction*%
%TD*%
%TA.AperFunction,Conductor*%
%TO.N,+3V3*%
G36*
X130062661Y-83085174D02*
G01*
X131340817Y-83691828D01*
X131346821Y-83698471D01*
X131347500Y-83702398D01*
X131347500Y-83937601D01*
X131344073Y-83945874D01*
X131340817Y-83948171D01*
X130062664Y-84554824D01*
X130053720Y-84555275D01*
X130048000Y-84550874D01*
X129632870Y-83945874D01*
X129551041Y-83826619D01*
X129549187Y-83817859D01*
X129551042Y-83813380D01*
X129627194Y-83702398D01*
X130048000Y-83089124D01*
X130055506Y-83084243D01*
X130062661Y-83085174D01*
G37*
%TD.AperFunction*%
%TD*%
%TA.AperFunction,Conductor*%
%TO.N,Net-(D2-A)*%
G36*
X135735294Y-75834728D02*
G01*
X135741280Y-75840890D01*
X135889123Y-76195498D01*
X135889144Y-76204452D01*
X135889123Y-76204502D01*
X135741280Y-76559109D01*
X135734933Y-76565427D01*
X135726344Y-76565551D01*
X135097563Y-76327858D01*
X135091036Y-76321727D01*
X135090000Y-76316914D01*
X135090000Y-76083085D01*
X135093427Y-76074812D01*
X135097563Y-76072141D01*
X135726345Y-75834448D01*
X135735294Y-75834728D01*
G37*
%TD.AperFunction*%
%TD*%
%TA.AperFunction,Conductor*%
%TO.N,BLK{slash}OBST*%
G36*
X125592450Y-106346666D02*
G01*
X126925596Y-107275082D01*
X126980774Y-107313508D01*
X126985605Y-107321048D01*
X126985788Y-107323109D01*
X126985788Y-107559773D01*
X126982361Y-107568046D01*
X126979326Y-107570235D01*
X125458285Y-108331776D01*
X125449353Y-108332416D01*
X125443454Y-108328013D01*
X124718395Y-107289726D01*
X124716469Y-107280983D01*
X124719400Y-107275084D01*
X125577178Y-106348320D01*
X125585313Y-106344577D01*
X125592450Y-106346666D01*
G37*
%TD.AperFunction*%
%TD*%
%TA.AperFunction,Conductor*%
%TO.N,+3V3*%
G36*
X161178530Y-89391989D02*
G01*
X161793182Y-90162705D01*
X161795661Y-90171310D01*
X161793182Y-90177295D01*
X161178530Y-90948010D01*
X161170693Y-90952341D01*
X161164317Y-90951262D01*
X159804634Y-90298186D01*
X159798661Y-90291515D01*
X159798000Y-90287639D01*
X159798000Y-90052360D01*
X159801427Y-90044087D01*
X159804631Y-90041814D01*
X161164318Y-89388736D01*
X161173259Y-89388245D01*
X161178530Y-89391989D01*
G37*
%TD.AperFunction*%
%TD*%
%TA.AperFunction,Conductor*%
%TO.N,+5V*%
G36*
X160516240Y-118576734D02*
G01*
X160516597Y-118576958D01*
X161363222Y-119128311D01*
X161365110Y-119129842D01*
X161531893Y-119296625D01*
X161535320Y-119304898D01*
X161531893Y-119313171D01*
X161531041Y-119313943D01*
X160620837Y-120060773D01*
X160612268Y-120063372D01*
X160604556Y-120059369D01*
X160024823Y-119387119D01*
X160022015Y-119378616D01*
X160023655Y-119373450D01*
X160064350Y-119305754D01*
X160500184Y-118580733D01*
X160507384Y-118575409D01*
X160516240Y-118576734D01*
G37*
%TD.AperFunction*%
%TD*%
%TA.AperFunction,Conductor*%
%TO.N,+5V*%
G36*
X162753922Y-87110067D02*
G01*
X163609084Y-88246298D01*
X163611321Y-88254969D01*
X163608009Y-88261607D01*
X163441671Y-88427945D01*
X163433824Y-88431364D01*
X162106591Y-88479687D01*
X162098198Y-88476564D01*
X162095135Y-88471896D01*
X161800590Y-87638620D01*
X161801064Y-87629680D01*
X161805943Y-87624493D01*
X162738899Y-87106871D01*
X162747795Y-87105855D01*
X162753922Y-87110067D01*
G37*
%TD.AperFunction*%
%TD*%
%TA.AperFunction,Conductor*%
%TO.N,+3V3*%
G36*
X142807032Y-90042236D02*
G01*
X142813681Y-90048234D01*
X142814817Y-90053262D01*
X142814817Y-90287113D01*
X142811390Y-90295386D01*
X142807507Y-90297958D01*
X142181806Y-90551207D01*
X142172851Y-90551135D01*
X142166617Y-90544864D01*
X142063677Y-90297958D01*
X142018875Y-90190499D01*
X142018855Y-90181550D01*
X142166807Y-89826679D01*
X142173153Y-89820363D01*
X142181520Y-89820157D01*
X142807032Y-90042236D01*
G37*
%TD.AperFunction*%
%TD*%
%TA.AperFunction,Conductor*%
%TO.N,GND*%
G36*
X128129387Y-67329685D02*
G01*
X128161612Y-67359686D01*
X128189954Y-67397546D01*
X128236143Y-67432123D01*
X128305164Y-67483793D01*
X128305169Y-67483796D01*
X128342413Y-67497687D01*
X128398346Y-67539556D01*
X128422765Y-67605020D01*
X128407914Y-67673293D01*
X128386763Y-67701549D01*
X128347454Y-67740858D01*
X128216932Y-67927265D01*
X128216931Y-67927267D01*
X128120761Y-68133502D01*
X128120758Y-68133511D01*
X128061866Y-68353302D01*
X128061864Y-68353313D01*
X128042032Y-68579998D01*
X128042032Y-68580001D01*
X128061864Y-68806686D01*
X128061866Y-68806697D01*
X128120758Y-69026488D01*
X128120760Y-69026492D01*
X128120761Y-69026496D01*
X128130833Y-69048095D01*
X128141325Y-69117173D01*
X128112805Y-69180957D01*
X128054329Y-69219196D01*
X128018451Y-69224500D01*
X119716737Y-69224500D01*
X119701120Y-69222776D01*
X119701093Y-69223062D01*
X119693331Y-69222327D01*
X119624203Y-69224500D01*
X119594650Y-69224500D01*
X119593929Y-69224590D01*
X119587757Y-69225369D01*
X119581945Y-69225826D01*
X119535373Y-69227290D01*
X119535372Y-69227290D01*
X119516129Y-69232881D01*
X119497079Y-69236825D01*
X119477211Y-69239334D01*
X119477209Y-69239335D01*
X119433884Y-69256488D01*
X119428357Y-69258380D01*
X119383610Y-69271381D01*
X119383609Y-69271382D01*
X119366367Y-69281579D01*
X119348899Y-69290137D01*
X119330269Y-69297513D01*
X119330267Y-69297514D01*
X119292576Y-69324898D01*
X119287694Y-69328105D01*
X119247579Y-69351830D01*
X119233408Y-69366000D01*
X119218623Y-69378628D01*
X119202412Y-69390407D01*
X119172709Y-69426310D01*
X119168777Y-69430631D01*
X117980208Y-70619199D01*
X117967951Y-70629020D01*
X117968134Y-70629241D01*
X117962123Y-70634213D01*
X117914772Y-70684636D01*
X117893889Y-70705519D01*
X117893877Y-70705532D01*
X117889621Y-70711017D01*
X117885837Y-70715447D01*
X117853937Y-70749418D01*
X117853936Y-70749420D01*
X117844284Y-70766976D01*
X117833610Y-70783226D01*
X117821329Y-70799061D01*
X117821324Y-70799068D01*
X117802815Y-70841838D01*
X117800245Y-70847084D01*
X117777803Y-70887906D01*
X117772822Y-70907307D01*
X117766521Y-70925710D01*
X117758562Y-70944102D01*
X117758561Y-70944105D01*
X117751271Y-70990127D01*
X117750087Y-70995846D01*
X117738501Y-71040972D01*
X117738500Y-71040982D01*
X117738500Y-71061016D01*
X117736973Y-71080415D01*
X117733840Y-71100194D01*
X117733840Y-71100195D01*
X117738225Y-71146583D01*
X117738500Y-71152421D01*
X117738500Y-112105255D01*
X117736775Y-112120872D01*
X117737061Y-112120899D01*
X117736326Y-112128665D01*
X117738500Y-112197814D01*
X117738500Y-112227343D01*
X117738501Y-112227360D01*
X117739368Y-112234231D01*
X117739826Y-112240050D01*
X117741290Y-112286624D01*
X117741291Y-112286627D01*
X117746880Y-112305867D01*
X117750824Y-112324911D01*
X117753336Y-112344791D01*
X117770490Y-112388119D01*
X117772382Y-112393647D01*
X117785381Y-112438388D01*
X117795580Y-112455634D01*
X117804138Y-112473103D01*
X117811514Y-112491732D01*
X117838898Y-112529423D01*
X117842106Y-112534307D01*
X117865827Y-112574416D01*
X117865833Y-112574424D01*
X117879990Y-112588580D01*
X117892628Y-112603376D01*
X117904405Y-112619586D01*
X117904406Y-112619587D01*
X117940309Y-112649288D01*
X117944620Y-112653210D01*
X120236782Y-114945372D01*
X122528227Y-117236817D01*
X122560635Y-117293600D01*
X122917068Y-118678929D01*
X122920632Y-118700560D01*
X122928615Y-118807094D01*
X122928616Y-118807098D01*
X122988663Y-119070186D01*
X122988664Y-119070188D01*
X122988666Y-119070195D01*
X123087257Y-119321398D01*
X123222185Y-119555102D01*
X123282212Y-119630373D01*
X123390442Y-119766089D01*
X123540259Y-119905098D01*
X123588259Y-119949635D01*
X123811226Y-120101651D01*
X124054359Y-120218738D01*
X124312228Y-120298280D01*
X124312229Y-120298280D01*
X124312232Y-120298281D01*
X124579063Y-120338499D01*
X124579068Y-120338499D01*
X124579071Y-120338500D01*
X124579072Y-120338500D01*
X124848928Y-120338500D01*
X124848929Y-120338500D01*
X124848936Y-120338499D01*
X125115767Y-120298281D01*
X125115768Y-120298280D01*
X125115772Y-120298280D01*
X125373641Y-120218738D01*
X125588480Y-120115277D01*
X125616767Y-120101655D01*
X125616767Y-120101654D01*
X125616775Y-120101651D01*
X125839741Y-119949635D01*
X125995672Y-119804952D01*
X126037557Y-119766089D01*
X126037557Y-119766087D01*
X126037561Y-119766085D01*
X126205815Y-119555102D01*
X126340743Y-119321398D01*
X126439334Y-119070195D01*
X126499383Y-118807103D01*
X126510783Y-118654979D01*
X126519549Y-118538004D01*
X126519549Y-118537995D01*
X126499383Y-118268898D01*
X126488791Y-118222492D01*
X126439334Y-118005805D01*
X126340743Y-117754602D01*
X126205815Y-117520898D01*
X126037561Y-117309915D01*
X126037560Y-117309914D01*
X126037557Y-117309910D01*
X125839741Y-117126365D01*
X125616775Y-116974349D01*
X125616771Y-116974347D01*
X125616768Y-116974345D01*
X125616767Y-116974344D01*
X125373643Y-116857263D01*
X125373645Y-116857263D01*
X125115780Y-116777722D01*
X125115776Y-116777721D01*
X125115772Y-116777720D01*
X124863521Y-116739699D01*
X124857428Y-116738465D01*
X123469394Y-116384251D01*
X123412374Y-116351783D01*
X121946435Y-114885844D01*
X122914000Y-114885844D01*
X122920401Y-114945372D01*
X122920403Y-114945379D01*
X122970645Y-115080086D01*
X122970649Y-115080093D01*
X123056809Y-115195187D01*
X123056812Y-115195190D01*
X123171906Y-115281350D01*
X123171913Y-115281354D01*
X123306620Y-115331596D01*
X123306627Y-115331598D01*
X123366155Y-115337999D01*
X123366172Y-115338000D01*
X124464000Y-115338000D01*
X124464000Y-114142310D01*
X124472817Y-114147158D01*
X124631886Y-114188000D01*
X124754894Y-114188000D01*
X124876933Y-114172583D01*
X124964000Y-114138110D01*
X124964000Y-115338000D01*
X126061828Y-115338000D01*
X126061844Y-115337999D01*
X126121372Y-115331598D01*
X126121379Y-115331596D01*
X126256086Y-115281354D01*
X126256093Y-115281350D01*
X126371187Y-115195190D01*
X126371190Y-115195187D01*
X126457350Y-115080093D01*
X126457354Y-115080086D01*
X126507596Y-114945379D01*
X126507598Y-114945372D01*
X126513999Y-114885844D01*
X126514000Y-114885827D01*
X126514000Y-113792000D01*
X138722473Y-113792000D01*
X138742563Y-114124136D01*
X138742563Y-114124141D01*
X138742564Y-114124142D01*
X138802544Y-114451441D01*
X138802545Y-114451445D01*
X138802546Y-114451449D01*
X138901530Y-114769104D01*
X138901534Y-114769116D01*
X138901537Y-114769123D01*
X139038102Y-115072557D01*
X139194697Y-115331596D01*
X139210251Y-115357326D01*
X139415460Y-115619255D01*
X139650744Y-115854539D01*
X139912673Y-116059748D01*
X139912678Y-116059751D01*
X139912682Y-116059754D01*
X140197443Y-116231898D01*
X140500877Y-116368463D01*
X140500890Y-116368467D01*
X140500895Y-116368469D01*
X140637445Y-116411019D01*
X140818559Y-116467456D01*
X141145858Y-116527436D01*
X141323740Y-116538196D01*
X141394892Y-116542500D01*
X141394894Y-116542500D01*
X141561108Y-116542500D01*
X141623365Y-116538734D01*
X141810142Y-116527436D01*
X142137441Y-116467456D01*
X142414165Y-116381226D01*
X142455104Y-116368469D01*
X142455104Y-116368468D01*
X142455123Y-116368463D01*
X142758557Y-116231898D01*
X143043318Y-116059754D01*
X143305252Y-115854542D01*
X143540542Y-115619252D01*
X143745754Y-115357318D01*
X143917898Y-115072557D01*
X144054463Y-114769123D01*
X144153456Y-114451441D01*
X144213436Y-114124142D01*
X144233527Y-113792000D01*
X144213436Y-113459858D01*
X144153456Y-113132559D01*
X144054463Y-112814877D01*
X143917898Y-112511443D01*
X143745754Y-112226682D01*
X143745751Y-112226678D01*
X143745748Y-112226673D01*
X143540539Y-111964744D01*
X143305255Y-111729460D01*
X143043326Y-111524251D01*
X142916164Y-111447379D01*
X142758557Y-111352102D01*
X142455123Y-111215537D01*
X142455116Y-111215534D01*
X142455104Y-111215530D01*
X142137449Y-111116546D01*
X142137445Y-111116545D01*
X142137441Y-111116544D01*
X141810142Y-111056564D01*
X141810141Y-111056563D01*
X141810136Y-111056563D01*
X141561108Y-111041500D01*
X141561106Y-111041500D01*
X141394894Y-111041500D01*
X141394892Y-111041500D01*
X141145863Y-111056563D01*
X141145858Y-111056564D01*
X140818559Y-111116544D01*
X140818556Y-111116544D01*
X140818550Y-111116546D01*
X140500895Y-111215530D01*
X140500879Y-111215536D01*
X140500877Y-111215537D01*
X140307656Y-111302498D01*
X140197447Y-111352100D01*
X140197445Y-111352101D01*
X139912673Y-111524251D01*
X139650744Y-111729460D01*
X139415460Y-111964744D01*
X139210251Y-112226673D01*
X139038101Y-112511445D01*
X139038100Y-112511447D01*
X138901536Y-112814880D01*
X138901530Y-112814895D01*
X138802546Y-113132550D01*
X138802544Y-113132556D01*
X138802544Y-113132559D01*
X138779365Y-113259044D01*
X138742563Y-113459863D01*
X138722473Y-113792000D01*
X126514000Y-113792000D01*
X126514000Y-113788000D01*
X125314728Y-113788000D01*
X125337100Y-113740457D01*
X125367873Y-113579138D01*
X125357561Y-113415234D01*
X125316220Y-113288000D01*
X126514000Y-113288000D01*
X126514000Y-112190172D01*
X126513999Y-112190155D01*
X126507598Y-112130627D01*
X126507596Y-112130620D01*
X126457354Y-111995913D01*
X126457350Y-111995906D01*
X126371190Y-111880812D01*
X126371187Y-111880809D01*
X126256093Y-111794649D01*
X126256086Y-111794645D01*
X126121379Y-111744403D01*
X126121372Y-111744401D01*
X126061844Y-111738000D01*
X124964000Y-111738000D01*
X124964000Y-112933689D01*
X124955183Y-112928842D01*
X124796114Y-112888000D01*
X124673106Y-112888000D01*
X124551067Y-112903417D01*
X124464000Y-112937889D01*
X124464000Y-111738000D01*
X123366155Y-111738000D01*
X123306627Y-111744401D01*
X123306620Y-111744403D01*
X123171913Y-111794645D01*
X123171906Y-111794649D01*
X123056812Y-111880809D01*
X123056809Y-111880812D01*
X122970649Y-111995906D01*
X122970645Y-111995913D01*
X122920403Y-112130620D01*
X122920401Y-112130627D01*
X122914000Y-112190155D01*
X122914000Y-113288000D01*
X124113272Y-113288000D01*
X124090900Y-113335543D01*
X124060127Y-113496862D01*
X124070439Y-113660766D01*
X124111780Y-113788000D01*
X122914000Y-113788000D01*
X122914000Y-114885844D01*
X121946435Y-114885844D01*
X119025819Y-111965228D01*
X118992334Y-111903905D01*
X118989500Y-111877547D01*
X118989500Y-102282004D01*
X122908451Y-102282004D01*
X122928616Y-102551101D01*
X122988664Y-102814188D01*
X122988666Y-102814195D01*
X123087257Y-103065398D01*
X123222185Y-103299102D01*
X123347462Y-103456194D01*
X123390442Y-103510089D01*
X123577183Y-103683358D01*
X123588259Y-103693635D01*
X123811226Y-103845651D01*
X124054359Y-103962738D01*
X124312228Y-104042280D01*
X124312229Y-104042280D01*
X124312232Y-104042281D01*
X124579063Y-104082499D01*
X124579068Y-104082499D01*
X124579071Y-104082500D01*
X124579072Y-104082500D01*
X124848928Y-104082500D01*
X124848929Y-104082500D01*
X124898735Y-104074993D01*
X125115767Y-104042281D01*
X125115768Y-104042280D01*
X125115772Y-104042280D01*
X125373641Y-103962738D01*
X125616775Y-103845651D01*
X125839741Y-103693635D01*
X126037561Y-103510085D01*
X126205815Y-103299102D01*
X126340743Y-103065398D01*
X126439334Y-102814195D01*
X126499383Y-102551103D01*
X126510231Y-102406344D01*
X126519549Y-102282004D01*
X126519549Y-102281995D01*
X126499383Y-102012898D01*
X126499383Y-102012897D01*
X126439334Y-101749805D01*
X126340743Y-101498602D01*
X126205815Y-101264898D01*
X126037561Y-101053915D01*
X126037560Y-101053914D01*
X126037557Y-101053910D01*
X125839741Y-100870365D01*
X125616775Y-100718349D01*
X125616769Y-100718346D01*
X125616768Y-100718345D01*
X125616767Y-100718344D01*
X125373643Y-100601263D01*
X125373645Y-100601263D01*
X125115773Y-100521720D01*
X125115767Y-100521718D01*
X124848936Y-100481500D01*
X124848929Y-100481500D01*
X124579071Y-100481500D01*
X124579063Y-100481500D01*
X124312232Y-100521718D01*
X124312226Y-100521720D01*
X124054358Y-100601262D01*
X123811230Y-100718346D01*
X123588258Y-100870365D01*
X123390442Y-101053910D01*
X123222185Y-101264898D01*
X123087258Y-101498599D01*
X123087256Y-101498603D01*
X122988666Y-101749804D01*
X122988664Y-101749811D01*
X122928616Y-102012898D01*
X122908451Y-102281995D01*
X122908451Y-102282004D01*
X118989500Y-102282004D01*
X118989500Y-98629844D01*
X122914000Y-98629844D01*
X122920401Y-98689372D01*
X122920403Y-98689379D01*
X122970645Y-98824086D01*
X122970649Y-98824093D01*
X123056809Y-98939187D01*
X123056812Y-98939190D01*
X123171906Y-99025350D01*
X123171913Y-99025354D01*
X123306620Y-99075596D01*
X123306627Y-99075598D01*
X123366155Y-99081999D01*
X123366172Y-99082000D01*
X124464000Y-99082000D01*
X124464000Y-97886310D01*
X124472817Y-97891158D01*
X124631886Y-97932000D01*
X124754894Y-97932000D01*
X124876933Y-97916583D01*
X124964000Y-97882110D01*
X124964000Y-99082000D01*
X126061828Y-99082000D01*
X126061844Y-99081999D01*
X126121372Y-99075598D01*
X126121379Y-99075596D01*
X126256086Y-99025354D01*
X126256093Y-99025350D01*
X126371187Y-98939190D01*
X126371190Y-98939187D01*
X126457350Y-98824093D01*
X126457354Y-98824086D01*
X126507596Y-98689379D01*
X126507598Y-98689372D01*
X126513999Y-98629844D01*
X126514000Y-98629827D01*
X126514000Y-97532000D01*
X125314728Y-97532000D01*
X125337100Y-97484457D01*
X125367873Y-97323138D01*
X125357561Y-97159234D01*
X125316220Y-97032000D01*
X126514000Y-97032000D01*
X126514000Y-95934172D01*
X126513999Y-95934155D01*
X126507598Y-95874627D01*
X126507596Y-95874620D01*
X126457354Y-95739913D01*
X126457350Y-95739906D01*
X126371190Y-95624812D01*
X126371187Y-95624809D01*
X126256093Y-95538649D01*
X126256086Y-95538645D01*
X126121379Y-95488403D01*
X126121372Y-95488401D01*
X126061844Y-95482000D01*
X124964000Y-95482000D01*
X124964000Y-96677689D01*
X124955183Y-96672842D01*
X124796114Y-96632000D01*
X124673106Y-96632000D01*
X124551067Y-96647417D01*
X124464000Y-96681889D01*
X124464000Y-95482000D01*
X123366155Y-95482000D01*
X123306627Y-95488401D01*
X123306620Y-95488403D01*
X123171913Y-95538645D01*
X123171906Y-95538649D01*
X123056812Y-95624809D01*
X123056809Y-95624812D01*
X122970649Y-95739906D01*
X122970645Y-95739913D01*
X122920403Y-95874620D01*
X122920401Y-95874627D01*
X122914000Y-95934155D01*
X122914000Y-97032000D01*
X124113272Y-97032000D01*
X124090900Y-97079543D01*
X124060127Y-97240862D01*
X124070439Y-97404766D01*
X124111780Y-97532000D01*
X122914000Y-97532000D01*
X122914000Y-98629844D01*
X118989500Y-98629844D01*
X118989500Y-73506102D01*
X119009185Y-73439063D01*
X119061989Y-73393308D01*
X119131147Y-73383364D01*
X119194703Y-73412389D01*
X119229489Y-73462256D01*
X119254489Y-73528390D01*
X119262500Y-73572236D01*
X119262500Y-85007255D01*
X119260775Y-85022872D01*
X119261061Y-85022899D01*
X119260326Y-85030665D01*
X119262500Y-85099814D01*
X119262500Y-85129343D01*
X119262501Y-85129360D01*
X119263368Y-85136231D01*
X119263826Y-85142050D01*
X119265290Y-85188624D01*
X119265291Y-85188627D01*
X119270880Y-85207867D01*
X119274824Y-85226911D01*
X119277336Y-85246791D01*
X119294490Y-85290119D01*
X119296382Y-85295647D01*
X119309381Y-85340388D01*
X119319580Y-85357634D01*
X119328138Y-85375103D01*
X119335514Y-85393732D01*
X119362898Y-85431423D01*
X119366106Y-85436307D01*
X119389827Y-85476416D01*
X119389833Y-85476424D01*
X119403990Y-85490580D01*
X119416628Y-85505376D01*
X119428405Y-85521586D01*
X119428406Y-85521587D01*
X119464309Y-85551288D01*
X119468620Y-85555210D01*
X132852596Y-98939187D01*
X137167197Y-103253788D01*
X137177022Y-103266051D01*
X137177243Y-103265869D01*
X137182214Y-103271878D01*
X137208217Y-103296295D01*
X137232635Y-103319226D01*
X137253529Y-103340120D01*
X137259011Y-103344373D01*
X137263443Y-103348157D01*
X137297418Y-103380062D01*
X137314976Y-103389714D01*
X137331235Y-103400395D01*
X137347064Y-103412673D01*
X137389838Y-103431182D01*
X137395056Y-103433738D01*
X137435908Y-103456197D01*
X137455316Y-103461180D01*
X137473717Y-103467480D01*
X137492104Y-103475437D01*
X137535488Y-103482308D01*
X137538119Y-103482725D01*
X137543839Y-103483909D01*
X137588981Y-103495500D01*
X137609016Y-103495500D01*
X137628414Y-103497026D01*
X137648194Y-103500159D01*
X137648195Y-103500160D01*
X137648195Y-103500159D01*
X137648196Y-103500160D01*
X137694584Y-103495775D01*
X137700422Y-103495500D01*
X159644251Y-103495500D01*
X159697938Y-103507725D01*
X160781600Y-104028224D01*
X160833508Y-104074993D01*
X160851890Y-104142402D01*
X160830910Y-104209047D01*
X160781600Y-104251774D01*
X159697935Y-104772275D01*
X159644248Y-104784500D01*
X159340743Y-104784500D01*
X159325122Y-104782775D01*
X159325096Y-104783061D01*
X159317334Y-104782327D01*
X159317333Y-104782327D01*
X159248186Y-104784500D01*
X159218649Y-104784500D01*
X159211766Y-104785369D01*
X159205949Y-104785826D01*
X159159373Y-104787290D01*
X159140129Y-104792881D01*
X159121079Y-104796825D01*
X159101211Y-104799334D01*
X159057884Y-104816488D01*
X159052358Y-104818379D01*
X159007614Y-104831379D01*
X159007610Y-104831381D01*
X158990366Y-104841579D01*
X158972905Y-104850133D01*
X158954274Y-104857510D01*
X158954262Y-104857517D01*
X158916570Y-104884902D01*
X158911687Y-104888109D01*
X158871580Y-104911829D01*
X158857414Y-104925995D01*
X158842624Y-104938627D01*
X158826414Y-104950404D01*
X158826411Y-104950407D01*
X158796710Y-104986309D01*
X158792777Y-104990631D01*
X157003228Y-106780181D01*
X156941905Y-106813666D01*
X156915547Y-106816500D01*
X127190565Y-106816500D01*
X127123526Y-106796815D01*
X127119701Y-106794256D01*
X125983784Y-106003192D01*
X125977038Y-105997756D01*
X125839741Y-105870365D01*
X125616775Y-105718349D01*
X125616769Y-105718346D01*
X125616768Y-105718345D01*
X125616767Y-105718344D01*
X125373643Y-105601263D01*
X125373645Y-105601263D01*
X125115773Y-105521720D01*
X125115767Y-105521718D01*
X124848936Y-105481500D01*
X124848929Y-105481500D01*
X124579071Y-105481500D01*
X124579063Y-105481500D01*
X124312232Y-105521718D01*
X124312226Y-105521720D01*
X124054358Y-105601262D01*
X123811230Y-105718346D01*
X123588258Y-105870365D01*
X123390442Y-106053910D01*
X123222185Y-106264898D01*
X123087258Y-106498599D01*
X123087256Y-106498603D01*
X122988666Y-106749804D01*
X122988664Y-106749811D01*
X122928616Y-107012898D01*
X122908451Y-107281995D01*
X122908451Y-107282004D01*
X122928616Y-107551101D01*
X122988664Y-107814188D01*
X122988666Y-107814195D01*
X123087256Y-108065396D01*
X123087258Y-108065400D01*
X123089725Y-108069673D01*
X123222185Y-108299102D01*
X123313545Y-108413663D01*
X123390442Y-108510089D01*
X123517337Y-108627829D01*
X123588259Y-108693635D01*
X123811226Y-108845651D01*
X124054359Y-108962738D01*
X124312228Y-109042280D01*
X124312229Y-109042280D01*
X124312232Y-109042281D01*
X124579063Y-109082499D01*
X124579068Y-109082499D01*
X124579071Y-109082500D01*
X124579072Y-109082500D01*
X124848928Y-109082500D01*
X124848929Y-109082500D01*
X124900480Y-109074730D01*
X125115767Y-109042281D01*
X125115768Y-109042280D01*
X125115772Y-109042280D01*
X125373641Y-108962738D01*
X125616775Y-108845651D01*
X125767421Y-108742940D01*
X125774578Y-108738734D01*
X127089043Y-108080620D01*
X127144557Y-108067500D01*
X157143257Y-108067500D01*
X157158877Y-108069224D01*
X157158904Y-108068939D01*
X157166660Y-108069671D01*
X157166667Y-108069673D01*
X157235814Y-108067500D01*
X157265350Y-108067500D01*
X157272228Y-108066630D01*
X157278041Y-108066172D01*
X157324627Y-108064709D01*
X157343869Y-108059117D01*
X157362912Y-108055174D01*
X157382792Y-108052664D01*
X157426122Y-108035507D01*
X157431646Y-108033617D01*
X157435396Y-108032527D01*
X157476390Y-108020618D01*
X157493629Y-108010422D01*
X157511103Y-108001862D01*
X157529727Y-107994488D01*
X157529727Y-107994487D01*
X157529732Y-107994486D01*
X157567449Y-107967082D01*
X157572305Y-107963892D01*
X157612420Y-107940170D01*
X157626589Y-107925999D01*
X157641379Y-107913368D01*
X157657587Y-107901594D01*
X157687299Y-107865676D01*
X157691212Y-107861376D01*
X159480772Y-106071819D01*
X159542095Y-106038334D01*
X159568453Y-106035500D01*
X159644251Y-106035500D01*
X159697938Y-106047725D01*
X160789383Y-106571963D01*
X160841291Y-106618732D01*
X160859673Y-106686141D01*
X160838693Y-106752786D01*
X160806820Y-106785313D01*
X160626594Y-106911508D01*
X160459506Y-107078597D01*
X160459501Y-107078604D01*
X160323967Y-107272165D01*
X160323965Y-107272169D01*
X160224098Y-107486335D01*
X160224094Y-107486344D01*
X160162938Y-107714586D01*
X160162936Y-107714596D01*
X160142341Y-107949999D01*
X160142341Y-107950000D01*
X160162936Y-108185403D01*
X160162938Y-108185413D01*
X160224094Y-108413655D01*
X160224096Y-108413659D01*
X160224097Y-108413663D01*
X160269060Y-108510085D01*
X160323964Y-108627828D01*
X160323965Y-108627830D01*
X160459505Y-108821402D01*
X160581818Y-108943715D01*
X160615303Y-109005038D01*
X160610319Y-109074730D01*
X160568447Y-109130663D01*
X160537470Y-109147578D01*
X160405913Y-109196645D01*
X160405906Y-109196649D01*
X160290812Y-109282809D01*
X160290809Y-109282812D01*
X160204649Y-109397906D01*
X160204645Y-109397913D01*
X160154403Y-109532620D01*
X160154401Y-109532627D01*
X160148000Y-109592155D01*
X160148000Y-110240000D01*
X161364314Y-110240000D01*
X161338507Y-110280156D01*
X161298000Y-110418111D01*
X161298000Y-110561889D01*
X161338507Y-110699844D01*
X161364314Y-110740000D01*
X160148000Y-110740000D01*
X160148000Y-111387844D01*
X160154401Y-111447372D01*
X160154403Y-111447379D01*
X160204645Y-111582086D01*
X160204649Y-111582093D01*
X160290809Y-111697187D01*
X160290812Y-111697190D01*
X160405906Y-111783350D01*
X160405913Y-111783354D01*
X160540620Y-111833596D01*
X160540627Y-111833598D01*
X160600155Y-111839999D01*
X160600172Y-111840000D01*
X161548000Y-111840000D01*
X161548000Y-110925501D01*
X161655685Y-110974680D01*
X161762237Y-110990000D01*
X161833763Y-110990000D01*
X161940315Y-110974680D01*
X162048000Y-110925501D01*
X162048000Y-111840000D01*
X162995828Y-111840000D01*
X162995844Y-111839999D01*
X163055372Y-111833598D01*
X163055379Y-111833596D01*
X163190086Y-111783354D01*
X163190093Y-111783350D01*
X163305187Y-111697190D01*
X163305190Y-111697187D01*
X163391350Y-111582093D01*
X163391354Y-111582086D01*
X163441596Y-111447379D01*
X163441598Y-111447372D01*
X163447999Y-111387844D01*
X163448000Y-111387827D01*
X163448000Y-110740000D01*
X162231686Y-110740000D01*
X162257493Y-110699844D01*
X162298000Y-110561889D01*
X162298000Y-110418111D01*
X162257493Y-110280156D01*
X162231686Y-110240000D01*
X163448000Y-110240000D01*
X163448000Y-109592172D01*
X163447999Y-109592155D01*
X163441598Y-109532627D01*
X163441596Y-109532620D01*
X163391354Y-109397913D01*
X163391350Y-109397906D01*
X163305190Y-109282812D01*
X163305187Y-109282809D01*
X163190093Y-109196649D01*
X163190086Y-109196645D01*
X163058529Y-109147578D01*
X163002595Y-109105707D01*
X162978178Y-109040243D01*
X162993030Y-108971970D01*
X163014181Y-108943715D01*
X163136495Y-108821401D01*
X163272035Y-108627830D01*
X163371903Y-108413663D01*
X163433063Y-108185408D01*
X163453659Y-107950000D01*
X163433063Y-107714592D01*
X163371903Y-107486337D01*
X163272035Y-107272171D01*
X163272034Y-107272169D01*
X163136494Y-107078597D01*
X162969403Y-106911506D01*
X162833719Y-106816500D01*
X162783838Y-106781573D01*
X162740215Y-106726999D01*
X162733021Y-106657500D01*
X162764543Y-106595145D01*
X162783836Y-106578428D01*
X162969401Y-106448495D01*
X163136495Y-106281401D01*
X163272035Y-106087830D01*
X163371903Y-105873663D01*
X163433063Y-105645408D01*
X163453659Y-105410000D01*
X163433063Y-105174592D01*
X163371903Y-104946337D01*
X163272035Y-104732171D01*
X163136495Y-104538599D01*
X163136494Y-104538597D01*
X162969403Y-104371506D01*
X162899410Y-104322497D01*
X162783838Y-104241573D01*
X162740215Y-104186999D01*
X162733021Y-104117500D01*
X162764543Y-104055145D01*
X162783836Y-104038428D01*
X162969401Y-103908495D01*
X163136495Y-103741401D01*
X163272035Y-103547830D01*
X163371903Y-103333663D01*
X163433063Y-103105408D01*
X163453659Y-102870000D01*
X163433063Y-102634592D01*
X163371903Y-102406337D01*
X163272035Y-102192171D01*
X163146508Y-102012898D01*
X163136494Y-101998597D01*
X162969403Y-101831506D01*
X162852729Y-101749811D01*
X162783838Y-101701573D01*
X162740215Y-101646999D01*
X162733021Y-101577500D01*
X162764543Y-101515145D01*
X162783836Y-101498428D01*
X162969401Y-101368495D01*
X163136495Y-101201401D01*
X163272035Y-101007830D01*
X163371903Y-100793663D01*
X163433063Y-100565408D01*
X163453659Y-100330000D01*
X163433063Y-100094592D01*
X163371903Y-99866337D01*
X163272035Y-99652171D01*
X163272034Y-99652169D01*
X163136494Y-99458597D01*
X162969403Y-99291506D01*
X162899410Y-99242497D01*
X162783838Y-99161573D01*
X162740215Y-99106999D01*
X162733021Y-99037500D01*
X162764543Y-98975145D01*
X162783836Y-98958428D01*
X162969401Y-98828495D01*
X163136495Y-98661401D01*
X163272035Y-98467830D01*
X163371903Y-98253663D01*
X163433063Y-98025408D01*
X163453659Y-97790000D01*
X163433063Y-97554592D01*
X163371903Y-97326337D01*
X163272035Y-97112171D01*
X163272034Y-97112169D01*
X163136494Y-96918597D01*
X162969403Y-96751506D01*
X162798729Y-96632000D01*
X162783838Y-96621573D01*
X162740215Y-96566999D01*
X162733021Y-96497500D01*
X162764543Y-96435145D01*
X162783836Y-96418428D01*
X162969401Y-96288495D01*
X163136495Y-96121401D01*
X163272035Y-95927830D01*
X163371903Y-95713663D01*
X163433063Y-95485408D01*
X163453659Y-95250000D01*
X163433063Y-95014592D01*
X163371903Y-94786337D01*
X163272035Y-94572171D01*
X163272034Y-94572169D01*
X163136494Y-94378597D01*
X162969403Y-94211506D01*
X162899410Y-94162497D01*
X162783838Y-94081573D01*
X162740215Y-94026999D01*
X162733021Y-93957500D01*
X162764543Y-93895145D01*
X162783836Y-93878428D01*
X162969401Y-93748495D01*
X163136495Y-93581401D01*
X163272035Y-93387830D01*
X163371903Y-93173663D01*
X163433063Y-92945408D01*
X163453659Y-92710000D01*
X163433063Y-92474592D01*
X163371903Y-92246337D01*
X163272035Y-92032171D01*
X163272034Y-92032169D01*
X163136494Y-91838597D01*
X162969403Y-91671506D01*
X162899410Y-91622497D01*
X162783838Y-91541573D01*
X162740215Y-91486999D01*
X162733021Y-91417500D01*
X162764543Y-91355145D01*
X162783836Y-91338428D01*
X162969401Y-91208495D01*
X163136495Y-91041401D01*
X163272035Y-90847830D01*
X163371903Y-90633663D01*
X163433063Y-90405408D01*
X163453659Y-90170000D01*
X163433063Y-89934592D01*
X163371903Y-89706337D01*
X163272035Y-89492171D01*
X163216663Y-89413090D01*
X163136494Y-89298597D01*
X162999479Y-89161582D01*
X162965994Y-89100259D01*
X162970978Y-89030567D01*
X163012850Y-88974634D01*
X163078314Y-88950217D01*
X163082600Y-88949985D01*
X163189547Y-88946091D01*
X163257257Y-88963323D01*
X163281738Y-88982328D01*
X163676181Y-89376771D01*
X163709666Y-89438094D01*
X163712500Y-89464452D01*
X163712500Y-116021546D01*
X163692815Y-116088585D01*
X163676181Y-116109227D01*
X161372013Y-118413394D01*
X161310690Y-118446879D01*
X161240998Y-118441895D01*
X161216663Y-118429621D01*
X160899162Y-118222854D01*
X160851032Y-118191510D01*
X160833020Y-118177238D01*
X160802825Y-118148368D01*
X160802822Y-118148366D01*
X160802820Y-118148364D01*
X160614966Y-118024363D01*
X160407995Y-117935899D01*
X160407982Y-117935895D01*
X160188542Y-117885810D01*
X160188538Y-117885809D01*
X160188537Y-117885809D01*
X160188536Y-117885808D01*
X160188531Y-117885808D01*
X159963674Y-117875710D01*
X159963673Y-117875710D01*
X159963670Y-117875710D01*
X159740613Y-117905925D01*
X159740610Y-117905925D01*
X159740609Y-117905926D01*
X159526534Y-117975483D01*
X159328321Y-118082146D01*
X159328318Y-118082148D01*
X159152336Y-118222489D01*
X159004236Y-118392003D01*
X158888787Y-118585231D01*
X158866449Y-118644750D01*
X158824463Y-118700597D01*
X158758948Y-118724880D01*
X158690706Y-118709888D01*
X158641402Y-118660381D01*
X158638636Y-118654979D01*
X158557401Y-118486290D01*
X158557397Y-118486283D01*
X158425148Y-118304258D01*
X158425142Y-118304250D01*
X158262513Y-118148762D01*
X158074733Y-118024808D01*
X157867830Y-117936375D01*
X157867823Y-117936373D01*
X157730000Y-117904915D01*
X157730000Y-118944498D01*
X157622315Y-118895320D01*
X157515763Y-118880000D01*
X157444237Y-118880000D01*
X157337685Y-118895320D01*
X157230000Y-118944498D01*
X157230000Y-117902449D01*
X157229999Y-117902449D01*
X157200721Y-117906415D01*
X156986731Y-117975945D01*
X156788598Y-118082565D01*
X156788595Y-118082567D01*
X156612679Y-118222854D01*
X156464647Y-118392292D01*
X156464644Y-118392296D01*
X156420946Y-118465433D01*
X156369663Y-118512886D01*
X156300865Y-118525080D01*
X156236397Y-118498144D01*
X156196725Y-118440630D01*
X156190499Y-118401832D01*
X156190499Y-118332129D01*
X156190498Y-118332123D01*
X156190497Y-118332116D01*
X156184091Y-118272517D01*
X156182741Y-118268898D01*
X156133797Y-118137671D01*
X156133793Y-118137664D01*
X156047547Y-118022455D01*
X156047544Y-118022452D01*
X155932335Y-117936206D01*
X155932328Y-117936202D01*
X155797482Y-117885908D01*
X155797483Y-117885908D01*
X155737883Y-117879501D01*
X155737881Y-117879500D01*
X155737873Y-117879500D01*
X155737864Y-117879500D01*
X154142129Y-117879500D01*
X154142123Y-117879501D01*
X154082516Y-117885908D01*
X153947671Y-117936202D01*
X153947664Y-117936206D01*
X153832455Y-118022452D01*
X153832452Y-118022455D01*
X153746206Y-118137664D01*
X153746202Y-118137671D01*
X153695908Y-118272517D01*
X153692497Y-118304250D01*
X153689501Y-118332123D01*
X153689500Y-118332135D01*
X153689500Y-120427870D01*
X153689501Y-120427876D01*
X153695908Y-120487483D01*
X153746202Y-120622328D01*
X153746206Y-120622335D01*
X153832452Y-120737544D01*
X153832455Y-120737547D01*
X153947664Y-120823793D01*
X153947671Y-120823797D01*
X154082517Y-120874091D01*
X154082516Y-120874091D01*
X154089444Y-120874835D01*
X154142127Y-120880500D01*
X155737872Y-120880499D01*
X155797483Y-120874091D01*
X155932331Y-120823796D01*
X156047546Y-120737546D01*
X156133796Y-120622331D01*
X156184091Y-120487483D01*
X156190500Y-120427873D01*
X156190499Y-120363411D01*
X156210183Y-120296375D01*
X156262986Y-120250619D01*
X156332144Y-120240675D01*
X156395700Y-120269699D01*
X156414817Y-120290528D01*
X156534851Y-120455741D01*
X156534857Y-120455749D01*
X156697486Y-120611237D01*
X156885266Y-120735191D01*
X157092169Y-120823624D01*
X157092178Y-120823627D01*
X157229999Y-120855084D01*
X157230000Y-120855084D01*
X157230000Y-119815501D01*
X157337685Y-119864680D01*
X157444237Y-119880000D01*
X157515763Y-119880000D01*
X157622315Y-119864680D01*
X157730000Y-119815501D01*
X157730000Y-120857549D01*
X157759267Y-120853586D01*
X157759273Y-120853585D01*
X157973268Y-120784054D01*
X158171401Y-120677434D01*
X158171404Y-120677432D01*
X158347320Y-120537145D01*
X158495352Y-120367707D01*
X158495359Y-120367699D01*
X158610759Y-120174553D01*
X158610765Y-120174542D01*
X158633007Y-120115277D01*
X158674991Y-120059428D01*
X158740505Y-120035144D01*
X158808748Y-120050135D01*
X158858053Y-120099640D01*
X158860820Y-120105045D01*
X158942167Y-120273966D01*
X158942171Y-120273974D01*
X159074473Y-120456072D01*
X159074474Y-120456074D01*
X159237176Y-120611633D01*
X159425033Y-120735636D01*
X159632004Y-120824100D01*
X159632007Y-120824101D01*
X159632012Y-120824103D01*
X159851463Y-120874191D01*
X160076330Y-120884290D01*
X160299387Y-120854075D01*
X160513464Y-120784517D01*
X160711681Y-120677852D01*
X160887666Y-120537508D01*
X161009847Y-120397660D01*
X161024561Y-120383394D01*
X161539749Y-119960679D01*
X161555275Y-119949814D01*
X161557638Y-119948416D01*
X161575101Y-119939862D01*
X161593732Y-119932486D01*
X161631449Y-119905082D01*
X161636305Y-119901892D01*
X161676420Y-119878170D01*
X161690589Y-119863999D01*
X161705379Y-119851368D01*
X161721587Y-119839594D01*
X161751299Y-119803676D01*
X161755212Y-119799376D01*
X161839346Y-119715242D01*
X161843839Y-119711170D01*
X161856480Y-119700800D01*
X161860140Y-119697642D01*
X161865871Y-119692702D01*
X161871313Y-119687770D01*
X161871314Y-119687769D01*
X161925481Y-119630373D01*
X161925489Y-119630365D01*
X161925496Y-119630352D01*
X161926744Y-119628698D01*
X161932413Y-119622175D01*
X164721788Y-116832801D01*
X164734042Y-116822986D01*
X164733859Y-116822764D01*
X164739866Y-116817792D01*
X164739877Y-116817786D01*
X164770775Y-116784882D01*
X164787227Y-116767364D01*
X164797671Y-116756918D01*
X164808120Y-116746471D01*
X164812379Y-116740978D01*
X164816152Y-116736561D01*
X164848062Y-116702582D01*
X164857715Y-116685020D01*
X164868389Y-116668770D01*
X164880673Y-116652936D01*
X164899180Y-116610167D01*
X164901749Y-116604924D01*
X164924196Y-116564093D01*
X164924197Y-116564092D01*
X164929177Y-116544691D01*
X164935478Y-116526288D01*
X164943438Y-116507896D01*
X164950730Y-116461849D01*
X164951911Y-116456152D01*
X164963500Y-116411019D01*
X164963500Y-116390983D01*
X164965027Y-116371582D01*
X164968160Y-116351804D01*
X164963775Y-116305415D01*
X164963500Y-116299577D01*
X164963500Y-89236737D01*
X164965224Y-89221123D01*
X164964938Y-89221096D01*
X164965672Y-89213333D01*
X164963500Y-89144202D01*
X164963500Y-89114651D01*
X164963500Y-89114650D01*
X164962629Y-89107759D01*
X164962172Y-89101945D01*
X164960709Y-89055374D01*
X164960709Y-89055372D01*
X164955120Y-89036137D01*
X164951174Y-89017084D01*
X164948664Y-88997208D01*
X164931501Y-88953859D01*
X164929614Y-88948346D01*
X164925176Y-88933072D01*
X164916617Y-88903610D01*
X164906421Y-88886369D01*
X164897860Y-88868893D01*
X164890486Y-88850269D01*
X164890486Y-88850267D01*
X164879388Y-88834993D01*
X164863083Y-88812550D01*
X164859900Y-88807705D01*
X164836170Y-88767579D01*
X164836165Y-88767573D01*
X164822005Y-88753413D01*
X164809370Y-88738620D01*
X164797593Y-88722412D01*
X164761693Y-88692713D01*
X164757381Y-88688790D01*
X164022337Y-87953746D01*
X164016633Y-87947181D01*
X163286814Y-86977489D01*
X163273508Y-86955329D01*
X163272036Y-86952172D01*
X163272034Y-86952169D01*
X163136494Y-86758597D01*
X162969403Y-86591506D01*
X162899410Y-86542497D01*
X162783838Y-86461573D01*
X162740215Y-86406999D01*
X162733021Y-86337500D01*
X162764543Y-86275145D01*
X162783836Y-86258428D01*
X162969401Y-86128495D01*
X163136495Y-85961401D01*
X163272035Y-85767830D01*
X163371903Y-85553663D01*
X163433063Y-85325408D01*
X163453659Y-85090000D01*
X163433063Y-84854592D01*
X163371903Y-84626337D01*
X163272035Y-84412171D01*
X163272034Y-84412169D01*
X163136496Y-84218600D01*
X163136492Y-84218596D01*
X163026280Y-84108384D01*
X163011467Y-84090493D01*
X162445001Y-83258485D01*
X162423544Y-83191992D01*
X162423500Y-83188700D01*
X162423500Y-71710742D01*
X162425224Y-71695122D01*
X162424939Y-71695095D01*
X162425673Y-71687333D01*
X162423500Y-71618171D01*
X162423500Y-71588656D01*
X162423500Y-71588650D01*
X162422631Y-71581779D01*
X162422173Y-71575952D01*
X162421876Y-71566488D01*
X162420710Y-71529373D01*
X162415119Y-71510130D01*
X162411173Y-71491078D01*
X162408664Y-71471208D01*
X162391504Y-71427867D01*
X162389624Y-71422379D01*
X162376618Y-71377610D01*
X162366422Y-71360370D01*
X162357861Y-71342894D01*
X162350487Y-71324270D01*
X162350486Y-71324268D01*
X162323079Y-71286545D01*
X162319888Y-71281686D01*
X162296172Y-71241583D01*
X162296165Y-71241574D01*
X162282006Y-71227415D01*
X162269368Y-71212619D01*
X162257594Y-71196413D01*
X162221688Y-71166709D01*
X162217376Y-71162786D01*
X160520803Y-69466212D01*
X160510980Y-69453950D01*
X160510759Y-69454134D01*
X160505786Y-69448123D01*
X160487159Y-69430631D01*
X160455364Y-69400773D01*
X160444919Y-69390328D01*
X160434475Y-69379883D01*
X160428986Y-69375625D01*
X160424561Y-69371847D01*
X160390582Y-69339938D01*
X160390580Y-69339936D01*
X160390577Y-69339935D01*
X160373029Y-69330288D01*
X160356763Y-69319604D01*
X160340933Y-69307325D01*
X160298168Y-69288818D01*
X160292922Y-69286248D01*
X160252093Y-69263803D01*
X160252092Y-69263802D01*
X160232693Y-69258822D01*
X160214281Y-69252518D01*
X160195898Y-69244562D01*
X160195892Y-69244560D01*
X160149874Y-69237272D01*
X160144152Y-69236087D01*
X160099021Y-69224500D01*
X160099019Y-69224500D01*
X160078984Y-69224500D01*
X160059586Y-69222973D01*
X160052162Y-69221797D01*
X160039805Y-69219840D01*
X160039804Y-69219840D01*
X159993416Y-69224225D01*
X159987578Y-69224500D01*
X153936549Y-69224500D01*
X153869510Y-69204815D01*
X153823755Y-69152011D01*
X153813811Y-69082853D01*
X153824167Y-69048095D01*
X153834239Y-69026496D01*
X153893135Y-68806692D01*
X153912968Y-68580000D01*
X153893135Y-68353308D01*
X153834239Y-68133504D01*
X153738068Y-67927266D01*
X153607547Y-67740861D01*
X153607545Y-67740858D01*
X153446641Y-67579954D01*
X153383260Y-67535575D01*
X153339635Y-67480999D01*
X153332441Y-67411501D01*
X153363963Y-67349146D01*
X153424193Y-67313731D01*
X153454383Y-67310000D01*
X166753500Y-67310000D01*
X166820539Y-67329685D01*
X166866294Y-67382489D01*
X166877500Y-67434000D01*
X166877500Y-122811500D01*
X166857815Y-122878539D01*
X166805011Y-122924294D01*
X166753500Y-122935500D01*
X115186500Y-122935500D01*
X115119461Y-122915815D01*
X115073706Y-122863011D01*
X115062500Y-122811500D01*
X115062500Y-67434000D01*
X115082185Y-67366961D01*
X115134989Y-67321206D01*
X115186500Y-67310000D01*
X128062348Y-67310000D01*
X128129387Y-67329685D01*
G37*
%TD.AperFunction*%
%TA.AperFunction,Conductor*%
G36*
X150945490Y-70495185D02*
G01*
X150991245Y-70547989D01*
X151001189Y-70617147D01*
X150990833Y-70651905D01*
X150980762Y-70673502D01*
X150980758Y-70673511D01*
X150921866Y-70893302D01*
X150921864Y-70893313D01*
X150902032Y-71119998D01*
X150902032Y-71120001D01*
X150921864Y-71346686D01*
X150921866Y-71346697D01*
X150980758Y-71566488D01*
X150980761Y-71566497D01*
X151076931Y-71772732D01*
X151076932Y-71772734D01*
X151207454Y-71959141D01*
X151368358Y-72120045D01*
X151368361Y-72120047D01*
X151554766Y-72250568D01*
X151608694Y-72275715D01*
X151612775Y-72277618D01*
X151665214Y-72323791D01*
X151684366Y-72390984D01*
X151664150Y-72457865D01*
X151612775Y-72502382D01*
X151554767Y-72529431D01*
X151554765Y-72529432D01*
X151368358Y-72659954D01*
X151207454Y-72820858D01*
X151076932Y-73007265D01*
X151076931Y-73007267D01*
X150980761Y-73213502D01*
X150980758Y-73213511D01*
X150921866Y-73433302D01*
X150921864Y-73433313D01*
X150902032Y-73659998D01*
X150902032Y-73660001D01*
X150921864Y-73886686D01*
X150921866Y-73886697D01*
X150980758Y-74106488D01*
X150980761Y-74106497D01*
X151076931Y-74312732D01*
X151076932Y-74312734D01*
X151207454Y-74499141D01*
X151368358Y-74660045D01*
X151368361Y-74660047D01*
X151554766Y-74790568D01*
X151608445Y-74815599D01*
X151612775Y-74817618D01*
X151665214Y-74863791D01*
X151684366Y-74930984D01*
X151664150Y-74997865D01*
X151612775Y-75042382D01*
X151554767Y-75069431D01*
X151554765Y-75069432D01*
X151368358Y-75199954D01*
X151207454Y-75360858D01*
X151076932Y-75547265D01*
X151076931Y-75547267D01*
X150980761Y-75753502D01*
X150980758Y-75753511D01*
X150921866Y-75973302D01*
X150921864Y-75973313D01*
X150902032Y-76199998D01*
X150902032Y-76200001D01*
X150921864Y-76426686D01*
X150921866Y-76426697D01*
X150980758Y-76646488D01*
X150980761Y-76646497D01*
X151076931Y-76852732D01*
X151076932Y-76852734D01*
X151207454Y-77039141D01*
X151368358Y-77200045D01*
X151368361Y-77200047D01*
X151554766Y-77330568D01*
X151612775Y-77357618D01*
X151665214Y-77403791D01*
X151684366Y-77470984D01*
X151664150Y-77537865D01*
X151612775Y-77582381D01*
X151595772Y-77590310D01*
X151554767Y-77609431D01*
X151554765Y-77609432D01*
X151368358Y-77739954D01*
X151207454Y-77900858D01*
X151076932Y-78087265D01*
X151076931Y-78087267D01*
X150980761Y-78293502D01*
X150980758Y-78293511D01*
X150921866Y-78513302D01*
X150921864Y-78513313D01*
X150902032Y-78739998D01*
X150902032Y-78740001D01*
X150921864Y-78966686D01*
X150921866Y-78966697D01*
X150980758Y-79186488D01*
X150980761Y-79186497D01*
X151076931Y-79392732D01*
X151076932Y-79392734D01*
X151207454Y-79579141D01*
X151368358Y-79740045D01*
X151368361Y-79740047D01*
X151554766Y-79870568D01*
X151613365Y-79897893D01*
X151665805Y-79944065D01*
X151684957Y-80011258D01*
X151664742Y-80078139D01*
X151613367Y-80122657D01*
X151555015Y-80149867D01*
X151368679Y-80280342D01*
X151207842Y-80441179D01*
X151077365Y-80627517D01*
X150981234Y-80833673D01*
X150981230Y-80833682D01*
X150928627Y-81029999D01*
X150928628Y-81030000D01*
X151973814Y-81030000D01*
X151948007Y-81070156D01*
X151907500Y-81208111D01*
X151907500Y-81351889D01*
X151948007Y-81489844D01*
X151973814Y-81530000D01*
X150928628Y-81530000D01*
X150981230Y-81726317D01*
X150981234Y-81726326D01*
X151077365Y-81932482D01*
X151207842Y-82118820D01*
X151368679Y-82279657D01*
X151555018Y-82410134D01*
X151555020Y-82410135D01*
X151613365Y-82437342D01*
X151665805Y-82483514D01*
X151684957Y-82550707D01*
X151664742Y-82617589D01*
X151613367Y-82662105D01*
X151612775Y-82662382D01*
X151554764Y-82689433D01*
X151368358Y-82819954D01*
X151207454Y-82980858D01*
X151076932Y-83167265D01*
X151076931Y-83167267D01*
X150980761Y-83373502D01*
X150980758Y-83373511D01*
X150921866Y-83593302D01*
X150921864Y-83593313D01*
X150902032Y-83819998D01*
X150902032Y-83820001D01*
X150921864Y-84046686D01*
X150921866Y-84046697D01*
X150980758Y-84266488D01*
X150980761Y-84266497D01*
X151076931Y-84472732D01*
X151076932Y-84472734D01*
X151207454Y-84659141D01*
X151368358Y-84820045D01*
X151368361Y-84820047D01*
X151554766Y-84950568D01*
X151761004Y-85046739D01*
X151980808Y-85105635D01*
X152150716Y-85120500D01*
X152664284Y-85120500D01*
X152834192Y-85105635D01*
X153053996Y-85046739D01*
X153106283Y-85022355D01*
X153114144Y-85019321D01*
X153139415Y-85011496D01*
X154306672Y-84457477D01*
X154359841Y-84445500D01*
X154629548Y-84445500D01*
X154696587Y-84465185D01*
X154717229Y-84481819D01*
X158249194Y-88013784D01*
X158259019Y-88026048D01*
X158259240Y-88025866D01*
X158264210Y-88031873D01*
X158264213Y-88031876D01*
X158264214Y-88031877D01*
X158314651Y-88079241D01*
X158335530Y-88100120D01*
X158341004Y-88104366D01*
X158345442Y-88108156D01*
X158379418Y-88140062D01*
X158379422Y-88140064D01*
X158396973Y-88149713D01*
X158413231Y-88160392D01*
X158429064Y-88172674D01*
X158451015Y-88182172D01*
X158471837Y-88191183D01*
X158477081Y-88193752D01*
X158517908Y-88216197D01*
X158537312Y-88221179D01*
X158555710Y-88227478D01*
X158574105Y-88235438D01*
X158620129Y-88242726D01*
X158625832Y-88243907D01*
X158670981Y-88255500D01*
X158691016Y-88255500D01*
X158710413Y-88257026D01*
X158730196Y-88260160D01*
X158776584Y-88255775D01*
X158782422Y-88255500D01*
X159644251Y-88255500D01*
X159697938Y-88267725D01*
X160781600Y-88788224D01*
X160833508Y-88834993D01*
X160851890Y-88902402D01*
X160830910Y-88969047D01*
X160781600Y-89011774D01*
X159697935Y-89532275D01*
X159644248Y-89544500D01*
X142937332Y-89544500D01*
X142895846Y-89537354D01*
X142648175Y-89449422D01*
X142362361Y-89347947D01*
X142357596Y-89346029D01*
X141840598Y-89112680D01*
X141803930Y-89087340D01*
X138980625Y-86264035D01*
X136152803Y-83436212D01*
X136142980Y-83423950D01*
X136142759Y-83424134D01*
X136137786Y-83418123D01*
X136087364Y-83370773D01*
X136076919Y-83360328D01*
X136066475Y-83349883D01*
X136060986Y-83345625D01*
X136056561Y-83341847D01*
X136022582Y-83309938D01*
X136022580Y-83309936D01*
X136022577Y-83309935D01*
X136005029Y-83300288D01*
X135988763Y-83289604D01*
X135972933Y-83277325D01*
X135930168Y-83258818D01*
X135924922Y-83256248D01*
X135884093Y-83233803D01*
X135884092Y-83233802D01*
X135864693Y-83228822D01*
X135846281Y-83222518D01*
X135827898Y-83214562D01*
X135827892Y-83214560D01*
X135781874Y-83207272D01*
X135776152Y-83206087D01*
X135731021Y-83194500D01*
X135731019Y-83194500D01*
X135710984Y-83194500D01*
X135691586Y-83192973D01*
X135684162Y-83191797D01*
X135671805Y-83189840D01*
X135671804Y-83189840D01*
X135625416Y-83194225D01*
X135619578Y-83194500D01*
X131499843Y-83194500D01*
X131446674Y-83182522D01*
X131021789Y-82980858D01*
X130345785Y-82660004D01*
X130293662Y-82613476D01*
X130274968Y-82546153D01*
X130295640Y-82479411D01*
X130346548Y-82435602D01*
X130400234Y-82410568D01*
X130586639Y-82280047D01*
X130747547Y-82119139D01*
X130878068Y-81932734D01*
X130974239Y-81726496D01*
X131033135Y-81506692D01*
X131052968Y-81280000D01*
X131033135Y-81053308D01*
X130974239Y-80833504D01*
X130878068Y-80627266D01*
X130747547Y-80440861D01*
X130747545Y-80440858D01*
X130586641Y-80279954D01*
X130400234Y-80149432D01*
X130400228Y-80149429D01*
X130342225Y-80122382D01*
X130289785Y-80076210D01*
X130270633Y-80009017D01*
X130290848Y-79942135D01*
X130342225Y-79897618D01*
X130400234Y-79870568D01*
X130586639Y-79740047D01*
X130747547Y-79579139D01*
X130878068Y-79392734D01*
X130974239Y-79186496D01*
X131033135Y-78966692D01*
X131052968Y-78740000D01*
X131033135Y-78513308D01*
X130974239Y-78293504D01*
X130878068Y-78087266D01*
X130747547Y-77900861D01*
X130747545Y-77900858D01*
X130586641Y-77739954D01*
X130400234Y-77609432D01*
X130400227Y-77609428D01*
X130346549Y-77584397D01*
X130294110Y-77538224D01*
X130274959Y-77471030D01*
X130295176Y-77404150D01*
X130345786Y-77359994D01*
X130407780Y-77330570D01*
X130993475Y-77052580D01*
X131446672Y-76837478D01*
X131499841Y-76825500D01*
X134961766Y-76825500D01*
X135005610Y-76833510D01*
X135547599Y-77038394D01*
X135587986Y-77051611D01*
X135593915Y-77053894D01*
X135602073Y-77057527D01*
X135610194Y-77061143D01*
X135610197Y-77061144D01*
X135795354Y-77100500D01*
X135795355Y-77100500D01*
X135984644Y-77100500D01*
X135984646Y-77100500D01*
X136169803Y-77061144D01*
X136342730Y-76984151D01*
X136495871Y-76872888D01*
X136622533Y-76732216D01*
X136717179Y-76568284D01*
X136775674Y-76388256D01*
X136795460Y-76200000D01*
X136775674Y-76011744D01*
X136717179Y-75831716D01*
X136622533Y-75667784D01*
X136495871Y-75527112D01*
X136495870Y-75527111D01*
X136342734Y-75415851D01*
X136342729Y-75415848D01*
X136169807Y-75338857D01*
X136169802Y-75338855D01*
X136024001Y-75307865D01*
X135984646Y-75299500D01*
X135795354Y-75299500D01*
X135755999Y-75307865D01*
X135610198Y-75338855D01*
X135610193Y-75338857D01*
X135581938Y-75351437D01*
X135558400Y-75359205D01*
X135547607Y-75361602D01*
X135547593Y-75361607D01*
X135005609Y-75566489D01*
X134961763Y-75574500D01*
X131499843Y-75574500D01*
X131446674Y-75562522D01*
X131023363Y-75361605D01*
X130345785Y-75040004D01*
X130293662Y-74993476D01*
X130274968Y-74926153D01*
X130295640Y-74859411D01*
X130346548Y-74815602D01*
X130400234Y-74790568D01*
X130586639Y-74660047D01*
X130747547Y-74499139D01*
X130878068Y-74312734D01*
X130974239Y-74106496D01*
X131033135Y-73886692D01*
X131052968Y-73660000D01*
X131033135Y-73433308D01*
X130974239Y-73213504D01*
X130878068Y-73007266D01*
X130755530Y-72832262D01*
X130747545Y-72820858D01*
X130586641Y-72659954D01*
X130400234Y-72529432D01*
X130400228Y-72529429D01*
X130342225Y-72502382D01*
X130289785Y-72456210D01*
X130270633Y-72389017D01*
X130290848Y-72322135D01*
X130342225Y-72277618D01*
X130346306Y-72275715D01*
X130400234Y-72250568D01*
X130586639Y-72120047D01*
X130747547Y-71959139D01*
X130878068Y-71772734D01*
X130974239Y-71566496D01*
X131033135Y-71346692D01*
X131052968Y-71120000D01*
X131033135Y-70893308D01*
X130974239Y-70673504D01*
X130964166Y-70651904D01*
X130953675Y-70582827D01*
X130982195Y-70519043D01*
X131040671Y-70480804D01*
X131076549Y-70475500D01*
X150878451Y-70475500D01*
X150945490Y-70495185D01*
G37*
%TD.AperFunction*%
%TA.AperFunction,Conductor*%
G36*
X159776587Y-70495185D02*
G01*
X159797229Y-70511819D01*
X161136181Y-71850771D01*
X161169666Y-71912094D01*
X161172500Y-71938452D01*
X161172500Y-83188700D01*
X161152815Y-83255739D01*
X161150999Y-83258486D01*
X160584531Y-84090493D01*
X160569714Y-84108387D01*
X160459506Y-84218596D01*
X160323967Y-84412165D01*
X160323965Y-84412169D01*
X160224098Y-84626335D01*
X160224094Y-84626344D01*
X160162938Y-84854586D01*
X160162936Y-84854596D01*
X160142341Y-85089999D01*
X160142341Y-85090000D01*
X160162936Y-85325403D01*
X160162938Y-85325413D01*
X160224094Y-85553655D01*
X160224096Y-85553659D01*
X160224097Y-85553663D01*
X160224824Y-85555221D01*
X160323964Y-85767828D01*
X160323965Y-85767830D01*
X160459505Y-85961402D01*
X160626597Y-86128494D01*
X160806819Y-86254686D01*
X160850444Y-86309263D01*
X160857638Y-86378761D01*
X160826115Y-86441116D01*
X160789383Y-86468036D01*
X159697935Y-86992275D01*
X159644248Y-87004500D01*
X159060452Y-87004500D01*
X158993413Y-86984815D01*
X158972771Y-86968181D01*
X157212448Y-85207858D01*
X155440803Y-83436212D01*
X155430980Y-83423950D01*
X155430759Y-83424134D01*
X155425786Y-83418123D01*
X155375364Y-83370773D01*
X155364919Y-83360328D01*
X155354475Y-83349883D01*
X155348986Y-83345625D01*
X155344561Y-83341847D01*
X155310582Y-83309938D01*
X155310580Y-83309936D01*
X155310577Y-83309935D01*
X155293029Y-83300288D01*
X155276763Y-83289604D01*
X155260933Y-83277325D01*
X155218168Y-83258818D01*
X155212922Y-83256248D01*
X155172093Y-83233803D01*
X155172092Y-83233802D01*
X155152693Y-83228822D01*
X155134281Y-83222518D01*
X155115898Y-83214562D01*
X155115892Y-83214560D01*
X155069874Y-83207272D01*
X155064152Y-83206087D01*
X155019021Y-83194500D01*
X155019019Y-83194500D01*
X154998984Y-83194500D01*
X154979586Y-83192973D01*
X154972162Y-83191797D01*
X154959805Y-83189840D01*
X154959804Y-83189840D01*
X154913416Y-83194225D01*
X154907578Y-83194500D01*
X154359843Y-83194500D01*
X154306674Y-83182522D01*
X153881789Y-82980858D01*
X153205199Y-82659726D01*
X153153076Y-82613198D01*
X153134382Y-82545875D01*
X153155054Y-82479133D01*
X153205966Y-82435321D01*
X153259983Y-82410133D01*
X153446320Y-82279657D01*
X153607157Y-82118820D01*
X153737634Y-81932482D01*
X153833765Y-81726326D01*
X153833769Y-81726317D01*
X153886372Y-81530000D01*
X152841186Y-81530000D01*
X152866993Y-81489844D01*
X152907500Y-81351889D01*
X152907500Y-81208111D01*
X152866993Y-81070156D01*
X152841186Y-81030000D01*
X153886372Y-81030000D01*
X153886372Y-81029999D01*
X153833769Y-80833682D01*
X153833765Y-80833673D01*
X153737634Y-80627517D01*
X153607157Y-80441179D01*
X153446320Y-80280342D01*
X153259982Y-80149865D01*
X153201633Y-80122657D01*
X153149194Y-80076484D01*
X153130042Y-80009291D01*
X153150258Y-79942410D01*
X153201629Y-79897895D01*
X153260234Y-79870568D01*
X153446639Y-79740047D01*
X153607547Y-79579139D01*
X153738068Y-79392734D01*
X153834239Y-79186496D01*
X153893135Y-78966692D01*
X153912968Y-78740000D01*
X153893135Y-78513308D01*
X153834239Y-78293504D01*
X153738068Y-78087266D01*
X153607547Y-77900861D01*
X153607545Y-77900858D01*
X153446641Y-77739954D01*
X153260234Y-77609432D01*
X153260228Y-77609429D01*
X153232538Y-77596517D01*
X153202224Y-77582381D01*
X153149785Y-77536210D01*
X153130633Y-77469017D01*
X153150848Y-77402135D01*
X153202225Y-77357618D01*
X153260234Y-77330568D01*
X153446639Y-77200047D01*
X153607547Y-77039139D01*
X153738068Y-76852734D01*
X153834239Y-76646496D01*
X153893135Y-76426692D01*
X153912968Y-76200000D01*
X153893135Y-75973308D01*
X153834239Y-75753504D01*
X153738068Y-75547266D01*
X153607547Y-75360861D01*
X153607545Y-75360858D01*
X153446641Y-75199954D01*
X153260234Y-75069432D01*
X153260228Y-75069429D01*
X153202225Y-75042382D01*
X153149785Y-74996210D01*
X153130633Y-74929017D01*
X153150848Y-74862135D01*
X153202225Y-74817618D01*
X153206555Y-74815599D01*
X153260234Y-74790568D01*
X153446639Y-74660047D01*
X153607547Y-74499139D01*
X153738068Y-74312734D01*
X153834239Y-74106496D01*
X153893135Y-73886692D01*
X153912968Y-73660000D01*
X153893135Y-73433308D01*
X153834239Y-73213504D01*
X153738068Y-73007266D01*
X153615530Y-72832262D01*
X153607545Y-72820858D01*
X153446641Y-72659954D01*
X153260234Y-72529432D01*
X153260228Y-72529429D01*
X153202225Y-72502382D01*
X153149785Y-72456210D01*
X153130633Y-72389017D01*
X153150848Y-72322135D01*
X153202225Y-72277618D01*
X153206306Y-72275715D01*
X153260234Y-72250568D01*
X153446639Y-72120047D01*
X153607547Y-71959139D01*
X153738068Y-71772734D01*
X153834239Y-71566496D01*
X153893135Y-71346692D01*
X153912968Y-71120000D01*
X153893135Y-70893308D01*
X153834239Y-70673504D01*
X153824166Y-70651904D01*
X153813675Y-70582827D01*
X153842195Y-70519043D01*
X153900671Y-70480804D01*
X153936549Y-70475500D01*
X159709548Y-70475500D01*
X159776587Y-70495185D01*
G37*
%TD.AperFunction*%
%TD*%
%TA.AperFunction,Conductor*%
%TO.N,STS_DOOR*%
G36*
X120247109Y-72792719D02*
G01*
X120253427Y-72799066D01*
X120253551Y-72807655D01*
X120015859Y-73436437D01*
X120009728Y-73442964D01*
X120004915Y-73444000D01*
X119771085Y-73444000D01*
X119762812Y-73440573D01*
X119760141Y-73436437D01*
X119522448Y-72807655D01*
X119522728Y-72798705D01*
X119528889Y-72792719D01*
X119883500Y-72644875D01*
X119892449Y-72644855D01*
X120247109Y-72792719D01*
G37*
%TD.AperFunction*%
%TD*%
%TA.AperFunction,Conductor*%
%TO.N,+12V*%
G36*
X123193003Y-116835419D02*
G01*
X124838174Y-117255252D01*
X124845342Y-117260617D01*
X124846917Y-117267799D01*
X124715685Y-118529302D01*
X124711421Y-118537176D01*
X124705305Y-118539723D01*
X123448515Y-118675575D01*
X123439922Y-118673057D01*
X123435927Y-118666858D01*
X123400535Y-118529302D01*
X123011436Y-117017014D01*
X123012693Y-117008150D01*
X123014490Y-117005832D01*
X123181839Y-116838483D01*
X123190111Y-116835057D01*
X123193003Y-116835419D01*
G37*
%TD.AperFunction*%
%TD*%
%TA.AperFunction,Conductor*%
%TO.N,STS_DOOR*%
G36*
X161178530Y-102091989D02*
G01*
X161793182Y-102862705D01*
X161795661Y-102871310D01*
X161793182Y-102877295D01*
X161178530Y-103648010D01*
X161170693Y-103652341D01*
X161164317Y-103651262D01*
X159804634Y-102998186D01*
X159798661Y-102991515D01*
X159798000Y-102987639D01*
X159798000Y-102752360D01*
X159801427Y-102744087D01*
X159804631Y-102741814D01*
X161164318Y-102088736D01*
X161173259Y-102088245D01*
X161178530Y-102091989D01*
G37*
%TD.AperFunction*%
%TD*%
%TA.AperFunction,Conductor*%
%TO.N,+12V*%
G36*
X161925085Y-83393427D02*
G01*
X161926483Y-83395115D01*
X162641703Y-84445605D01*
X162643527Y-84454373D01*
X162639042Y-84461557D01*
X161805010Y-85085753D01*
X161796334Y-85087967D01*
X161790990Y-85085753D01*
X160956957Y-84461557D01*
X160952386Y-84453856D01*
X160954295Y-84445607D01*
X161669517Y-83395114D01*
X161677005Y-83390205D01*
X161679188Y-83390000D01*
X161916812Y-83390000D01*
X161925085Y-83393427D01*
G37*
%TD.AperFunction*%
%TD*%
%TA.AperFunction,Conductor*%
%TO.N,+5V*%
G36*
X152922661Y-83085174D02*
G01*
X154200817Y-83691828D01*
X154206821Y-83698471D01*
X154207500Y-83702398D01*
X154207500Y-83937601D01*
X154204073Y-83945874D01*
X154200817Y-83948171D01*
X152922664Y-84554824D01*
X152913720Y-84555275D01*
X152908000Y-84550874D01*
X152492870Y-83945874D01*
X152411041Y-83826619D01*
X152409187Y-83817859D01*
X152411042Y-83813380D01*
X152487194Y-83702398D01*
X152908000Y-83089124D01*
X152915506Y-83084243D01*
X152922661Y-83085174D01*
G37*
%TD.AperFunction*%
%TD*%
%TA.AperFunction,Conductor*%
%TO.N,Net-(D2-A)*%
G36*
X130062661Y-75465174D02*
G01*
X131340817Y-76071828D01*
X131346821Y-76078471D01*
X131347500Y-76082398D01*
X131347500Y-76317601D01*
X131344073Y-76325874D01*
X131340817Y-76328171D01*
X130062664Y-76934824D01*
X130053720Y-76935275D01*
X130048000Y-76930874D01*
X129632870Y-76325874D01*
X129551041Y-76206619D01*
X129549187Y-76197859D01*
X129551042Y-76193380D01*
X129627194Y-76082398D01*
X130048000Y-75469124D01*
X130055506Y-75464243D01*
X130062661Y-75465174D01*
G37*
%TD.AperFunction*%
%TD*%
%TA.AperFunction,Conductor*%
%TO.N,+3V3*%
G36*
X141548071Y-89535252D02*
G01*
X142160760Y-89811793D01*
X142166891Y-89818320D01*
X142166767Y-89826909D01*
X142020563Y-90182195D01*
X142014245Y-90188542D01*
X142014195Y-90188563D01*
X141658909Y-90334767D01*
X141649955Y-90334746D01*
X141643793Y-90328760D01*
X141579676Y-90186707D01*
X141417279Y-89826909D01*
X141367252Y-89716071D01*
X141366972Y-89707121D01*
X141369641Y-89702987D01*
X141534986Y-89537642D01*
X141543258Y-89534216D01*
X141548071Y-89535252D01*
G37*
%TD.AperFunction*%
%TD*%
M02*
