%TF.GenerationSoftware,KiCad,Pcbnew,7.0.9*%
%TF.CreationDate,2023-11-09T08:26:50-08:00*%
%TF.ProjectId,RatGDO-OpenSource-D1Mini-ESP8266-Tubez,52617447-444f-42d4-9f70-656e536f7572,2.5.0*%
%TF.SameCoordinates,Original*%
%TF.FileFunction,Copper,L2,Bot*%
%TF.FilePolarity,Positive*%
%FSLAX46Y46*%
G04 Gerber Fmt 4.6, Leading zero omitted, Abs format (unit mm)*
G04 Created by KiCad (PCBNEW 7.0.9) date 2023-11-09 08:26:50*
%MOMM*%
%LPD*%
G01*
G04 APERTURE LIST*
%TA.AperFunction,ComponentPad*%
%ADD10R,2.000000X2.000000*%
%TD*%
%TA.AperFunction,ComponentPad*%
%ADD11O,2.000000X1.600000*%
%TD*%
%TA.AperFunction,ComponentPad*%
%ADD12R,1.500000X2.000000*%
%TD*%
%TA.AperFunction,ComponentPad*%
%ADD13O,1.500000X2.000000*%
%TD*%
%TA.AperFunction,ComponentPad*%
%ADD14R,2.600000X2.600000*%
%TD*%
%TA.AperFunction,ComponentPad*%
%ADD15C,2.600000*%
%TD*%
%TA.AperFunction,ComponentPad*%
%ADD16R,2.300000X1.700000*%
%TD*%
%TA.AperFunction,ComponentPad*%
%ADD17O,2.300000X1.700000*%
%TD*%
%TA.AperFunction,ViaPad*%
%ADD18C,0.800000*%
%TD*%
%TA.AperFunction,Conductor*%
%ADD19C,0.250000*%
%TD*%
G04 APERTURE END LIST*
D10*
%TO.P,U1,1,~{RST}*%
%TO.N,unconnected-(U1-~{RST}-Pad1)*%
X129547500Y-66040000D03*
D11*
%TO.P,U1,2,A0*%
%TO.N,unconnected-(U1-A0-Pad2)*%
X129547500Y-68580000D03*
%TO.P,U1,3,D0*%
%TO.N,Net-(Q3-G)*%
X129547500Y-71120000D03*
%TO.P,U1,4,SCK/D5*%
%TO.N,Net-(D1-A)*%
X129547500Y-73660000D03*
%TO.P,U1,5,MISO/D6*%
%TO.N,Net-(D2-A)*%
X129547500Y-76200000D03*
%TO.P,U1,6,MOSI/D7*%
%TO.N,Net-(U1-MOSI{slash}D7)*%
X129547500Y-78740000D03*
%TO.P,U1,7,CS/D8*%
%TO.N,Net-(Q4-G)*%
X129547500Y-81280000D03*
%TO.P,U1,8,3V3*%
%TO.N,+3V3*%
X129547500Y-83820000D03*
%TO.P,U1,9,5V*%
%TO.N,+5V*%
X152407500Y-83820000D03*
%TO.P,U1,10,GND*%
%TO.N,GND*%
X152407500Y-81280000D03*
%TO.P,U1,11,D4*%
%TO.N,unconnected-(U1-D4-Pad11)*%
X152407500Y-78740000D03*
%TO.P,U1,12,D3*%
%TO.N,Net-(D3-A)*%
X152407500Y-76200000D03*
%TO.P,U1,13,SDA/D2*%
%TO.N,/ESP_RX*%
X152407500Y-73660000D03*
%TO.P,U1,14,SCL/D1*%
%TO.N,/ESP_TX*%
X152407500Y-71120000D03*
%TO.P,U1,15,RX*%
%TO.N,unconnected-(U1-RX-Pad15)*%
X152407500Y-68580000D03*
%TO.P,U1,16,TX*%
%TO.N,unconnected-(U1-TX-Pad16)*%
X152407500Y-66040000D03*
%TD*%
D12*
%TO.P,U2,1,IN*%
%TO.N,Net-(D4-K)*%
X154954700Y-118803700D03*
D13*
%TO.P,U2,2,GND*%
%TO.N,GND*%
X157494700Y-118803700D03*
%TO.P,U2,3,OUT*%
%TO.N,+5V*%
X160034700Y-118803700D03*
%TD*%
D14*
%TO.P,J1,1,WHT/GND*%
%TO.N,GND*%
X124714000Y-97282000D03*
D15*
%TO.P,J1,2,RED/CTRL*%
%TO.N,RED{slash}CTRL*%
X124714000Y-102282000D03*
%TO.P,J1,3,BLK/OBST*%
%TO.N,BLK{slash}OBST*%
X124714000Y-107282000D03*
%TD*%
D16*
%TO.P,J2,1,WHT/GND*%
%TO.N,GND*%
X161798000Y-109220000D03*
D17*
%TO.P,J2,2,RED/CTRL*%
%TO.N,RED{slash}CTRL*%
X161798000Y-106680000D03*
%TO.P,J2,3,BLK/OBST*%
%TO.N,BLK{slash}OBST*%
X161798000Y-104140000D03*
%TO.P,J2,4,STS_DOOR*%
%TO.N,STS_DOOR*%
X161798000Y-101600000D03*
%TO.P,J2,5,STS_OBST*%
%TO.N,STS_OBST*%
X161798000Y-99060000D03*
%TO.P,J2,6,DC_OPEN*%
%TO.N,DC_OPEN*%
X161798000Y-96520000D03*
%TO.P,J2,7,DC_CLOSE*%
%TO.N,DC_CLOSE*%
X161798000Y-93980000D03*
%TO.P,J2,8,DC_LIGHT*%
%TO.N,DC_LIGHT*%
X161798000Y-91440000D03*
%TO.P,J2,9,3V3*%
%TO.N,+3V3*%
X161798000Y-88900000D03*
%TO.P,J2,10,5V*%
%TO.N,+5V*%
X161798000Y-86360000D03*
%TO.P,J2,11,12V*%
%TO.N,+12V*%
X161798000Y-83820000D03*
%TD*%
D14*
%TO.P,J3,1,GND*%
%TO.N,GND*%
X124714000Y-113538000D03*
D15*
%TO.P,J3,2,6-30V*%
%TO.N,+12V*%
X124714000Y-118538000D03*
%TD*%
D18*
%TO.N,Net-(D2-A)*%
X146050000Y-98044000D03*
%TO.N,STS_DOOR*%
X122174000Y-72644000D03*
%TD*%
D19*
%TO.N,Net-(D2-A)*%
X128270000Y-76200000D02*
X129547500Y-76200000D01*
X126492000Y-77978000D02*
X128270000Y-76200000D01*
X135382000Y-98044000D02*
X126492000Y-89154000D01*
X126492000Y-89154000D02*
X126492000Y-77978000D01*
X146050000Y-98044000D02*
X135382000Y-98044000D01*
%TO.N,+5V*%
X159258000Y-83820000D02*
X161798000Y-86360000D01*
X152407500Y-83820000D02*
X159258000Y-83820000D01*
X161798000Y-86360000D02*
X163830000Y-88392000D01*
X163830000Y-115316000D02*
X160564900Y-118581100D01*
X163830000Y-88392000D02*
X163830000Y-115316000D01*
%TO.N,BLK{slash}OBST*%
X160528000Y-104140000D02*
X161798000Y-104140000D01*
X157226000Y-107442000D02*
X160528000Y-104140000D01*
X125585000Y-107442000D02*
X157226000Y-107442000D01*
%TO.N,STS_DOOR*%
X122174000Y-87376000D02*
X136398000Y-101600000D01*
X122174000Y-72644000D02*
X122174000Y-87376000D01*
X136398000Y-101600000D02*
X161798000Y-101600000D01*
%TO.N,+3V3*%
X151384000Y-88900000D02*
X161798000Y-88900000D01*
X129547500Y-83820000D02*
X146304000Y-83820000D01*
X146304000Y-83820000D02*
X151384000Y-88900000D01*
%TO.N,+12V*%
X124714000Y-118538000D02*
X120396000Y-114220000D01*
X161798000Y-72390000D02*
X161798000Y-83820000D01*
X120396000Y-72136000D02*
X122682000Y-69850000D01*
X159258000Y-69850000D02*
X161798000Y-72390000D01*
X120396000Y-114220000D02*
X120396000Y-72136000D01*
X122682000Y-69850000D02*
X159258000Y-69850000D01*
%TD*%
%TA.AperFunction,Conductor*%
%TO.N,+5V*%
G36*
X161198011Y-117777806D02*
G01*
X161198333Y-117778116D01*
X161365567Y-117945350D01*
X161368994Y-117953623D01*
X161367787Y-117958799D01*
X160761074Y-119188679D01*
X160754340Y-119194583D01*
X160745405Y-119193996D01*
X160744961Y-119193765D01*
X160490391Y-119054351D01*
X160040534Y-118807989D01*
X160034925Y-118801010D01*
X160034480Y-118796966D01*
X160098026Y-117826953D01*
X160101986Y-117818924D01*
X160109251Y-117816029D01*
X161189613Y-117774698D01*
X161198011Y-117777806D01*
G37*
%TD.AperFunction*%
%TD*%
%TA.AperFunction,Conductor*%
%TO.N,STS_DOOR*%
G36*
X161178530Y-100821989D02*
G01*
X161793182Y-101592705D01*
X161795661Y-101601310D01*
X161793182Y-101607295D01*
X161178530Y-102378010D01*
X161170693Y-102382341D01*
X161164317Y-102381262D01*
X159804634Y-101728186D01*
X159798661Y-101721515D01*
X159798000Y-101717639D01*
X159798000Y-101482360D01*
X159801427Y-101474087D01*
X159804631Y-101471814D01*
X161164318Y-100818736D01*
X161173259Y-100818245D01*
X161178530Y-100821989D01*
G37*
%TD.AperFunction*%
%TD*%
%TA.AperFunction,Conductor*%
%TO.N,Net-(D2-A)*%
G36*
X145895294Y-97678728D02*
G01*
X145901280Y-97684890D01*
X146049123Y-98039498D01*
X146049144Y-98048452D01*
X146049123Y-98048502D01*
X145901280Y-98403109D01*
X145894933Y-98409427D01*
X145886344Y-98409551D01*
X145257563Y-98171858D01*
X145251036Y-98165727D01*
X145250000Y-98160914D01*
X145250000Y-97927085D01*
X145253427Y-97918812D01*
X145257563Y-97916141D01*
X145886345Y-97678448D01*
X145895294Y-97678728D01*
G37*
%TD.AperFunction*%
%TD*%
%TA.AperFunction,Conductor*%
%TO.N,Net-(D2-A)*%
G36*
X128789375Y-75639888D02*
G01*
X129539109Y-76192586D01*
X129543734Y-76200254D01*
X129541818Y-76208617D01*
X129046030Y-76932277D01*
X129038527Y-76937165D01*
X129033357Y-76936967D01*
X127991958Y-76658661D01*
X127986706Y-76655631D01*
X127821001Y-76489926D01*
X127817574Y-76481653D01*
X127821001Y-76473380D01*
X127821578Y-76472840D01*
X128142511Y-76192586D01*
X128774739Y-75640493D01*
X128783224Y-75637634D01*
X128789375Y-75639888D01*
G37*
%TD.AperFunction*%
%TD*%
%TA.AperFunction,Conductor*%
%TO.N,BLK{slash}OBST*%
G36*
X125592450Y-106346666D02*
G01*
X126925596Y-107275082D01*
X126980774Y-107313508D01*
X126985605Y-107321048D01*
X126985788Y-107323109D01*
X126985788Y-107559773D01*
X126982361Y-107568046D01*
X126979326Y-107570235D01*
X125458285Y-108331776D01*
X125449353Y-108332416D01*
X125443454Y-108328013D01*
X124718395Y-107289726D01*
X124716469Y-107280983D01*
X124719400Y-107275084D01*
X125577178Y-106348320D01*
X125585313Y-106344577D01*
X125592450Y-106346666D01*
G37*
%TD.AperFunction*%
%TD*%
%TA.AperFunction,Conductor*%
%TO.N,+12V*%
G36*
X161925085Y-82123427D02*
G01*
X161926483Y-82125115D01*
X162641703Y-83175605D01*
X162643527Y-83184373D01*
X162639042Y-83191557D01*
X161805010Y-83815753D01*
X161796334Y-83817967D01*
X161790990Y-83815753D01*
X160956957Y-83191557D01*
X160952386Y-83183856D01*
X160954295Y-83175607D01*
X161669517Y-82125114D01*
X161677005Y-82120205D01*
X161679188Y-82120000D01*
X161916812Y-82120000D01*
X161925085Y-82123427D01*
G37*
%TD.AperFunction*%
%TD*%
%TA.AperFunction,Conductor*%
%TO.N,+3V3*%
G36*
X161178530Y-88121989D02*
G01*
X161793182Y-88892705D01*
X161795661Y-88901310D01*
X161793182Y-88907295D01*
X161178530Y-89678010D01*
X161170693Y-89682341D01*
X161164317Y-89681262D01*
X159804634Y-89028186D01*
X159798661Y-89021515D01*
X159798000Y-89017639D01*
X159798000Y-88782360D01*
X159801427Y-88774087D01*
X159804631Y-88771814D01*
X161164318Y-88118736D01*
X161173259Y-88118245D01*
X161178530Y-88121989D01*
G37*
%TD.AperFunction*%
%TD*%
%TA.AperFunction,Conductor*%
%TO.N,+3V3*%
G36*
X130062661Y-83085174D02*
G01*
X131340817Y-83691828D01*
X131346821Y-83698471D01*
X131347500Y-83702398D01*
X131347500Y-83937601D01*
X131344073Y-83945874D01*
X131340817Y-83948171D01*
X130062664Y-84554824D01*
X130053720Y-84555275D01*
X130048000Y-84550874D01*
X129632870Y-83945874D01*
X129551041Y-83826619D01*
X129549187Y-83817859D01*
X129551042Y-83813380D01*
X129627194Y-83702398D01*
X130048000Y-83089124D01*
X130055506Y-83084243D01*
X130062661Y-83085174D01*
G37*
%TD.AperFunction*%
%TD*%
%TA.AperFunction,Conductor*%
%TO.N,GND*%
G36*
X128129387Y-67329685D02*
G01*
X128161612Y-67359686D01*
X128189954Y-67397546D01*
X128236143Y-67432123D01*
X128305164Y-67483793D01*
X128305169Y-67483796D01*
X128342413Y-67497687D01*
X128398346Y-67539556D01*
X128422765Y-67605020D01*
X128407914Y-67673293D01*
X128386763Y-67701549D01*
X128347454Y-67740858D01*
X128216932Y-67927265D01*
X128216931Y-67927267D01*
X128120761Y-68133502D01*
X128120758Y-68133511D01*
X128061866Y-68353302D01*
X128061864Y-68353313D01*
X128042032Y-68579998D01*
X128042032Y-68580001D01*
X128061864Y-68806686D01*
X128061866Y-68806697D01*
X128120758Y-69026488D01*
X128120760Y-69026492D01*
X128120761Y-69026496D01*
X128130833Y-69048095D01*
X128141325Y-69117173D01*
X128112805Y-69180957D01*
X128054329Y-69219196D01*
X128018451Y-69224500D01*
X122764737Y-69224500D01*
X122749120Y-69222776D01*
X122749093Y-69223062D01*
X122741331Y-69222327D01*
X122672203Y-69224500D01*
X122642650Y-69224500D01*
X122641929Y-69224590D01*
X122635757Y-69225369D01*
X122629945Y-69225826D01*
X122583373Y-69227290D01*
X122583372Y-69227290D01*
X122564129Y-69232881D01*
X122545079Y-69236825D01*
X122525211Y-69239334D01*
X122525209Y-69239335D01*
X122481884Y-69256488D01*
X122476357Y-69258380D01*
X122431610Y-69271381D01*
X122431609Y-69271382D01*
X122414367Y-69281579D01*
X122396899Y-69290137D01*
X122378269Y-69297513D01*
X122378267Y-69297514D01*
X122340576Y-69324898D01*
X122335694Y-69328105D01*
X122295579Y-69351830D01*
X122281408Y-69366000D01*
X122266623Y-69378628D01*
X122250412Y-69390407D01*
X122220709Y-69426310D01*
X122216777Y-69430631D01*
X120012208Y-71635199D01*
X119999951Y-71645020D01*
X120000134Y-71645241D01*
X119994123Y-71650213D01*
X119946772Y-71700636D01*
X119925889Y-71721519D01*
X119925877Y-71721532D01*
X119921621Y-71727017D01*
X119917837Y-71731447D01*
X119885937Y-71765418D01*
X119885936Y-71765420D01*
X119876284Y-71782976D01*
X119865610Y-71799226D01*
X119853329Y-71815061D01*
X119853324Y-71815068D01*
X119834815Y-71857838D01*
X119832245Y-71863084D01*
X119809803Y-71903906D01*
X119804822Y-71923307D01*
X119798521Y-71941710D01*
X119790562Y-71960102D01*
X119790561Y-71960105D01*
X119783271Y-72006127D01*
X119782087Y-72011846D01*
X119770501Y-72056972D01*
X119770500Y-72056982D01*
X119770500Y-72077016D01*
X119768973Y-72096415D01*
X119765840Y-72116194D01*
X119765840Y-72116195D01*
X119770225Y-72162583D01*
X119770500Y-72168421D01*
X119770500Y-114137255D01*
X119768775Y-114152872D01*
X119769061Y-114152899D01*
X119768326Y-114160665D01*
X119770500Y-114229814D01*
X119770500Y-114259343D01*
X119770501Y-114259360D01*
X119771368Y-114266231D01*
X119771826Y-114272050D01*
X119773290Y-114318624D01*
X119773291Y-114318627D01*
X119778880Y-114337867D01*
X119782824Y-114356911D01*
X119785336Y-114376791D01*
X119802490Y-114420119D01*
X119804382Y-114425647D01*
X119817381Y-114470388D01*
X119827580Y-114487634D01*
X119836138Y-114505103D01*
X119843514Y-114523732D01*
X119870898Y-114561423D01*
X119874106Y-114566307D01*
X119897827Y-114606416D01*
X119897833Y-114606424D01*
X119911990Y-114620580D01*
X119924628Y-114635376D01*
X119936405Y-114651586D01*
X119936406Y-114651587D01*
X119972309Y-114681288D01*
X119976620Y-114685210D01*
X121351158Y-116059748D01*
X122528227Y-117236817D01*
X122560635Y-117293600D01*
X122917068Y-118678929D01*
X122920632Y-118700560D01*
X122928615Y-118807094D01*
X122928616Y-118807098D01*
X122988663Y-119070186D01*
X122988664Y-119070188D01*
X122988666Y-119070195D01*
X123087257Y-119321398D01*
X123222185Y-119555102D01*
X123335882Y-119697673D01*
X123390442Y-119766089D01*
X123577183Y-119939358D01*
X123588259Y-119949635D01*
X123811226Y-120101651D01*
X124054359Y-120218738D01*
X124312228Y-120298280D01*
X124312229Y-120298280D01*
X124312232Y-120298281D01*
X124579063Y-120338499D01*
X124579068Y-120338499D01*
X124579071Y-120338500D01*
X124579072Y-120338500D01*
X124848928Y-120338500D01*
X124848929Y-120338500D01*
X124848936Y-120338499D01*
X125115767Y-120298281D01*
X125115768Y-120298280D01*
X125115772Y-120298280D01*
X125373641Y-120218738D01*
X125616775Y-120101651D01*
X125839741Y-119949635D01*
X126037561Y-119766085D01*
X126205815Y-119555102D01*
X126340743Y-119321398D01*
X126439334Y-119070195D01*
X126499383Y-118807103D01*
X126519549Y-118538000D01*
X126512291Y-118441153D01*
X126499383Y-118268898D01*
X126491824Y-118235778D01*
X126439334Y-118005805D01*
X126340743Y-117754602D01*
X126205815Y-117520898D01*
X126037561Y-117309915D01*
X126037560Y-117309914D01*
X126037557Y-117309910D01*
X125839741Y-117126365D01*
X125616775Y-116974349D01*
X125616771Y-116974347D01*
X125616768Y-116974345D01*
X125616767Y-116974344D01*
X125373643Y-116857263D01*
X125373645Y-116857263D01*
X125115780Y-116777722D01*
X125115776Y-116777721D01*
X125115772Y-116777720D01*
X124863521Y-116739699D01*
X124857428Y-116738465D01*
X123469394Y-116384251D01*
X123412374Y-116351783D01*
X121946435Y-114885844D01*
X122914000Y-114885844D01*
X122920401Y-114945372D01*
X122920403Y-114945379D01*
X122970645Y-115080086D01*
X122970649Y-115080093D01*
X123056809Y-115195187D01*
X123056812Y-115195190D01*
X123171906Y-115281350D01*
X123171913Y-115281354D01*
X123306620Y-115331596D01*
X123306627Y-115331598D01*
X123366155Y-115337999D01*
X123366172Y-115338000D01*
X124464000Y-115338000D01*
X124464000Y-114142310D01*
X124472817Y-114147158D01*
X124631886Y-114188000D01*
X124754894Y-114188000D01*
X124876933Y-114172583D01*
X124964000Y-114138110D01*
X124964000Y-115338000D01*
X126061828Y-115338000D01*
X126061844Y-115337999D01*
X126121372Y-115331598D01*
X126121379Y-115331596D01*
X126256086Y-115281354D01*
X126256093Y-115281350D01*
X126371187Y-115195190D01*
X126371190Y-115195187D01*
X126457350Y-115080093D01*
X126457354Y-115080086D01*
X126507596Y-114945379D01*
X126507598Y-114945372D01*
X126513999Y-114885844D01*
X126514000Y-114885827D01*
X126514000Y-113792000D01*
X138722473Y-113792000D01*
X138742563Y-114124136D01*
X138742563Y-114124141D01*
X138742564Y-114124142D01*
X138802544Y-114451441D01*
X138802545Y-114451445D01*
X138802546Y-114451449D01*
X138901530Y-114769104D01*
X138901534Y-114769116D01*
X138901537Y-114769123D01*
X139038102Y-115072557D01*
X139198567Y-115337999D01*
X139210251Y-115357326D01*
X139415460Y-115619255D01*
X139650744Y-115854539D01*
X139912673Y-116059748D01*
X139912678Y-116059751D01*
X139912682Y-116059754D01*
X140197443Y-116231898D01*
X140500877Y-116368463D01*
X140500890Y-116368467D01*
X140500895Y-116368469D01*
X140712665Y-116434458D01*
X140818559Y-116467456D01*
X141145858Y-116527436D01*
X141323740Y-116538196D01*
X141394892Y-116542500D01*
X141394894Y-116542500D01*
X141561108Y-116542500D01*
X141623365Y-116538734D01*
X141810142Y-116527436D01*
X142137441Y-116467456D01*
X142412099Y-116381869D01*
X142455104Y-116368469D01*
X142455104Y-116368468D01*
X142455123Y-116368463D01*
X142758557Y-116231898D01*
X143043318Y-116059754D01*
X143305252Y-115854542D01*
X143540542Y-115619252D01*
X143716219Y-115395017D01*
X143745748Y-115357326D01*
X143745748Y-115357324D01*
X143745754Y-115357318D01*
X143917898Y-115072557D01*
X144054463Y-114769123D01*
X144153456Y-114451441D01*
X144213436Y-114124142D01*
X144233527Y-113792000D01*
X144213436Y-113459858D01*
X144153456Y-113132559D01*
X144054463Y-112814877D01*
X143917898Y-112511443D01*
X143745754Y-112226682D01*
X143745751Y-112226678D01*
X143745748Y-112226673D01*
X143540539Y-111964744D01*
X143305255Y-111729460D01*
X143043326Y-111524251D01*
X143043318Y-111524246D01*
X142758557Y-111352102D01*
X142455123Y-111215537D01*
X142455116Y-111215534D01*
X142455104Y-111215530D01*
X142137449Y-111116546D01*
X142137445Y-111116545D01*
X142137441Y-111116544D01*
X141810142Y-111056564D01*
X141810141Y-111056563D01*
X141810136Y-111056563D01*
X141561108Y-111041500D01*
X141561106Y-111041500D01*
X141394894Y-111041500D01*
X141394892Y-111041500D01*
X141145863Y-111056563D01*
X141145858Y-111056564D01*
X140818559Y-111116544D01*
X140818556Y-111116544D01*
X140818550Y-111116546D01*
X140500895Y-111215530D01*
X140500879Y-111215536D01*
X140500877Y-111215537D01*
X140307656Y-111302498D01*
X140197447Y-111352100D01*
X140197445Y-111352101D01*
X139912673Y-111524251D01*
X139650744Y-111729460D01*
X139415460Y-111964744D01*
X139210251Y-112226673D01*
X139038101Y-112511445D01*
X139038100Y-112511447D01*
X138901536Y-112814880D01*
X138901530Y-112814895D01*
X138802546Y-113132550D01*
X138802544Y-113132556D01*
X138802544Y-113132559D01*
X138779365Y-113259044D01*
X138742563Y-113459863D01*
X138722473Y-113792000D01*
X126514000Y-113792000D01*
X126514000Y-113788000D01*
X125314728Y-113788000D01*
X125337100Y-113740457D01*
X125367873Y-113579138D01*
X125357561Y-113415234D01*
X125316220Y-113288000D01*
X126514000Y-113288000D01*
X126514000Y-112190172D01*
X126513999Y-112190155D01*
X126507598Y-112130627D01*
X126507596Y-112130620D01*
X126457354Y-111995913D01*
X126457350Y-111995906D01*
X126371190Y-111880812D01*
X126371187Y-111880809D01*
X126256093Y-111794649D01*
X126256086Y-111794645D01*
X126121379Y-111744403D01*
X126121372Y-111744401D01*
X126061844Y-111738000D01*
X124964000Y-111738000D01*
X124964000Y-112933689D01*
X124955183Y-112928842D01*
X124796114Y-112888000D01*
X124673106Y-112888000D01*
X124551067Y-112903417D01*
X124464000Y-112937889D01*
X124464000Y-111738000D01*
X123366155Y-111738000D01*
X123306627Y-111744401D01*
X123306620Y-111744403D01*
X123171913Y-111794645D01*
X123171906Y-111794649D01*
X123056812Y-111880809D01*
X123056809Y-111880812D01*
X122970649Y-111995906D01*
X122970645Y-111995913D01*
X122920403Y-112130620D01*
X122920401Y-112130627D01*
X122914000Y-112190155D01*
X122914000Y-113288000D01*
X124113272Y-113288000D01*
X124090900Y-113335543D01*
X124060127Y-113496862D01*
X124070439Y-113660766D01*
X124111780Y-113788000D01*
X122914000Y-113788000D01*
X122914000Y-114885844D01*
X121946435Y-114885844D01*
X121057819Y-113997228D01*
X121024334Y-113935905D01*
X121021500Y-113909547D01*
X121021500Y-102282004D01*
X122908451Y-102282004D01*
X122928616Y-102551101D01*
X122987419Y-102808732D01*
X122988666Y-102814195D01*
X123087257Y-103065398D01*
X123222185Y-103299102D01*
X123358080Y-103469509D01*
X123390442Y-103510089D01*
X123577183Y-103683358D01*
X123588259Y-103693635D01*
X123811226Y-103845651D01*
X124054359Y-103962738D01*
X124312228Y-104042280D01*
X124312229Y-104042280D01*
X124312232Y-104042281D01*
X124579063Y-104082499D01*
X124579068Y-104082499D01*
X124579071Y-104082500D01*
X124579072Y-104082500D01*
X124848928Y-104082500D01*
X124848929Y-104082500D01*
X124848936Y-104082499D01*
X125115767Y-104042281D01*
X125115768Y-104042280D01*
X125115772Y-104042280D01*
X125373641Y-103962738D01*
X125616775Y-103845651D01*
X125839741Y-103693635D01*
X126037561Y-103510085D01*
X126205815Y-103299102D01*
X126340743Y-103065398D01*
X126439334Y-102814195D01*
X126499383Y-102551103D01*
X126519549Y-102282000D01*
X126515664Y-102230160D01*
X126499383Y-102012898D01*
X126439335Y-101749811D01*
X126439334Y-101749805D01*
X126340743Y-101498602D01*
X126205815Y-101264898D01*
X126037561Y-101053915D01*
X126037560Y-101053914D01*
X126037557Y-101053910D01*
X125839741Y-100870365D01*
X125774259Y-100825720D01*
X125616775Y-100718349D01*
X125616769Y-100718346D01*
X125616768Y-100718345D01*
X125616767Y-100718344D01*
X125373643Y-100601263D01*
X125373645Y-100601263D01*
X125115773Y-100521720D01*
X125115767Y-100521718D01*
X124848936Y-100481500D01*
X124848929Y-100481500D01*
X124579071Y-100481500D01*
X124579063Y-100481500D01*
X124312232Y-100521718D01*
X124312226Y-100521720D01*
X124054358Y-100601262D01*
X123811230Y-100718346D01*
X123588258Y-100870365D01*
X123390442Y-101053910D01*
X123222185Y-101264898D01*
X123087258Y-101498599D01*
X123087256Y-101498603D01*
X122988666Y-101749804D01*
X122988664Y-101749811D01*
X122928616Y-102012898D01*
X122908451Y-102281995D01*
X122908451Y-102282004D01*
X121021500Y-102282004D01*
X121021500Y-98629844D01*
X122914000Y-98629844D01*
X122920401Y-98689372D01*
X122920403Y-98689379D01*
X122970645Y-98824086D01*
X122970649Y-98824093D01*
X123056809Y-98939187D01*
X123056812Y-98939190D01*
X123171906Y-99025350D01*
X123171913Y-99025354D01*
X123306620Y-99075596D01*
X123306627Y-99075598D01*
X123366155Y-99081999D01*
X123366172Y-99082000D01*
X124464000Y-99082000D01*
X124464000Y-97886310D01*
X124472817Y-97891158D01*
X124631886Y-97932000D01*
X124754894Y-97932000D01*
X124876933Y-97916583D01*
X124964000Y-97882110D01*
X124964000Y-99082000D01*
X126061828Y-99082000D01*
X126061844Y-99081999D01*
X126121372Y-99075598D01*
X126121379Y-99075596D01*
X126256086Y-99025354D01*
X126256093Y-99025350D01*
X126371187Y-98939190D01*
X126371190Y-98939187D01*
X126457350Y-98824093D01*
X126457354Y-98824086D01*
X126507596Y-98689379D01*
X126507598Y-98689372D01*
X126513999Y-98629844D01*
X126514000Y-98629827D01*
X126514000Y-97532000D01*
X125314728Y-97532000D01*
X125337100Y-97484457D01*
X125367873Y-97323138D01*
X125357561Y-97159234D01*
X125316220Y-97032000D01*
X126514000Y-97032000D01*
X126514000Y-95934172D01*
X126513999Y-95934155D01*
X126507598Y-95874627D01*
X126507596Y-95874620D01*
X126457354Y-95739913D01*
X126457350Y-95739906D01*
X126371190Y-95624812D01*
X126371187Y-95624809D01*
X126256093Y-95538649D01*
X126256086Y-95538645D01*
X126121379Y-95488403D01*
X126121372Y-95488401D01*
X126061844Y-95482000D01*
X124964000Y-95482000D01*
X124964000Y-96677689D01*
X124955183Y-96672842D01*
X124796114Y-96632000D01*
X124673106Y-96632000D01*
X124551067Y-96647417D01*
X124464000Y-96681889D01*
X124464000Y-95482000D01*
X123366155Y-95482000D01*
X123306627Y-95488401D01*
X123306620Y-95488403D01*
X123171913Y-95538645D01*
X123171906Y-95538649D01*
X123056812Y-95624809D01*
X123056809Y-95624812D01*
X122970649Y-95739906D01*
X122970645Y-95739913D01*
X122920403Y-95874620D01*
X122920401Y-95874627D01*
X122914000Y-95934155D01*
X122914000Y-97032000D01*
X124113272Y-97032000D01*
X124090900Y-97079543D01*
X124060127Y-97240862D01*
X124070439Y-97404766D01*
X124111780Y-97532000D01*
X122914000Y-97532000D01*
X122914000Y-98629844D01*
X121021500Y-98629844D01*
X121021500Y-72659631D01*
X121023906Y-72651436D01*
X121023523Y-72650675D01*
X121021500Y-72628368D01*
X121021500Y-72446452D01*
X121041185Y-72379413D01*
X121057817Y-72358773D01*
X121067358Y-72349232D01*
X121080725Y-72335864D01*
X121142045Y-72302379D01*
X121211737Y-72307362D01*
X121267671Y-72349232D01*
X121292090Y-72414696D01*
X121288112Y-72449050D01*
X121289678Y-72449383D01*
X121288327Y-72455738D01*
X121288327Y-72455740D01*
X121288326Y-72455744D01*
X121270183Y-72628368D01*
X121268821Y-72641329D01*
X121268107Y-72643062D01*
X121268821Y-72646670D01*
X121288326Y-72832256D01*
X121288328Y-72832262D01*
X121328621Y-72956274D01*
X121330181Y-72961989D01*
X121335602Y-72986390D01*
X121335607Y-72986406D01*
X121540489Y-73528390D01*
X121548500Y-73572236D01*
X121548500Y-87293255D01*
X121546775Y-87308872D01*
X121547061Y-87308899D01*
X121546326Y-87316665D01*
X121548500Y-87385814D01*
X121548500Y-87415343D01*
X121548501Y-87415360D01*
X121549368Y-87422231D01*
X121549826Y-87428050D01*
X121551290Y-87474624D01*
X121551291Y-87474627D01*
X121556880Y-87493867D01*
X121560824Y-87512911D01*
X121563336Y-87532792D01*
X121580490Y-87576119D01*
X121582382Y-87581647D01*
X121595381Y-87626388D01*
X121605580Y-87643634D01*
X121614136Y-87661100D01*
X121621514Y-87679732D01*
X121648898Y-87717423D01*
X121652106Y-87722307D01*
X121675827Y-87762416D01*
X121675833Y-87762424D01*
X121689990Y-87776580D01*
X121702628Y-87791376D01*
X121714405Y-87807586D01*
X121714406Y-87807587D01*
X121750309Y-87837288D01*
X121754620Y-87841210D01*
X128875003Y-94961593D01*
X135897194Y-101983784D01*
X135907019Y-101996048D01*
X135907240Y-101995866D01*
X135912210Y-102001873D01*
X135912213Y-102001876D01*
X135912214Y-102001877D01*
X135962651Y-102049241D01*
X135983530Y-102070120D01*
X135989004Y-102074366D01*
X135993442Y-102078156D01*
X136027418Y-102110062D01*
X136027422Y-102110064D01*
X136044973Y-102119713D01*
X136061231Y-102130392D01*
X136077064Y-102142674D01*
X136099015Y-102152172D01*
X136119837Y-102161183D01*
X136125081Y-102163752D01*
X136165908Y-102186197D01*
X136185312Y-102191179D01*
X136203710Y-102197478D01*
X136222105Y-102205438D01*
X136268129Y-102212726D01*
X136273832Y-102213907D01*
X136318981Y-102225500D01*
X136339016Y-102225500D01*
X136358413Y-102227026D01*
X136378196Y-102230160D01*
X136424584Y-102225775D01*
X136430422Y-102225500D01*
X159644251Y-102225500D01*
X159697938Y-102237725D01*
X160789383Y-102761963D01*
X160841291Y-102808732D01*
X160859673Y-102876141D01*
X160838693Y-102942786D01*
X160806820Y-102975313D01*
X160626599Y-103101504D01*
X160626596Y-103101507D01*
X160556462Y-103171640D01*
X160551130Y-103176390D01*
X160523017Y-103198672D01*
X160523009Y-103198679D01*
X159564062Y-104212102D01*
X159529432Y-104252305D01*
X159529420Y-104252295D01*
X159520276Y-104263131D01*
X157003228Y-106780181D01*
X156941905Y-106813666D01*
X156915547Y-106816500D01*
X127190565Y-106816500D01*
X127123526Y-106796815D01*
X127119701Y-106794256D01*
X125983784Y-106003192D01*
X125977038Y-105997756D01*
X125839741Y-105870365D01*
X125749144Y-105808597D01*
X125616775Y-105718349D01*
X125616769Y-105718346D01*
X125616768Y-105718345D01*
X125616767Y-105718344D01*
X125373643Y-105601263D01*
X125373645Y-105601263D01*
X125115773Y-105521720D01*
X125115767Y-105521718D01*
X124848936Y-105481500D01*
X124848929Y-105481500D01*
X124579071Y-105481500D01*
X124579063Y-105481500D01*
X124312232Y-105521718D01*
X124312226Y-105521720D01*
X124054358Y-105601262D01*
X123811230Y-105718346D01*
X123588258Y-105870365D01*
X123390442Y-106053910D01*
X123222185Y-106264898D01*
X123087258Y-106498599D01*
X123087256Y-106498603D01*
X122988666Y-106749804D01*
X122988664Y-106749811D01*
X122928616Y-107012898D01*
X122908451Y-107281995D01*
X122908451Y-107282004D01*
X122928616Y-107551101D01*
X122988664Y-107814188D01*
X122988666Y-107814195D01*
X123087256Y-108065396D01*
X123087258Y-108065400D01*
X123089725Y-108069673D01*
X123222185Y-108299102D01*
X123358080Y-108469509D01*
X123390442Y-108510089D01*
X123577183Y-108683358D01*
X123588259Y-108693635D01*
X123811226Y-108845651D01*
X124054359Y-108962738D01*
X124312228Y-109042280D01*
X124312229Y-109042280D01*
X124312232Y-109042281D01*
X124579063Y-109082499D01*
X124579068Y-109082499D01*
X124579071Y-109082500D01*
X124579072Y-109082500D01*
X124848928Y-109082500D01*
X124848929Y-109082500D01*
X124848936Y-109082499D01*
X125115767Y-109042281D01*
X125115768Y-109042280D01*
X125115772Y-109042280D01*
X125373641Y-108962738D01*
X125616775Y-108845651D01*
X125767421Y-108742940D01*
X125774578Y-108738734D01*
X127089043Y-108080620D01*
X127144557Y-108067500D01*
X157143257Y-108067500D01*
X157158877Y-108069224D01*
X157158904Y-108068939D01*
X157166660Y-108069671D01*
X157166667Y-108069673D01*
X157235814Y-108067500D01*
X157265350Y-108067500D01*
X157272228Y-108066630D01*
X157278041Y-108066172D01*
X157324627Y-108064709D01*
X157343869Y-108059117D01*
X157362912Y-108055174D01*
X157382792Y-108052664D01*
X157426122Y-108035507D01*
X157431646Y-108033617D01*
X157435396Y-108032527D01*
X157476390Y-108020618D01*
X157493629Y-108010422D01*
X157511103Y-108001862D01*
X157529727Y-107994488D01*
X157529727Y-107994487D01*
X157529732Y-107994486D01*
X157567449Y-107967082D01*
X157572305Y-107963892D01*
X157612420Y-107940170D01*
X157626589Y-107925999D01*
X157641379Y-107913368D01*
X157657587Y-107901594D01*
X157687299Y-107865676D01*
X157691212Y-107861376D01*
X160220117Y-105332471D01*
X160281438Y-105298988D01*
X160329240Y-105298022D01*
X160381517Y-105307200D01*
X160664030Y-105356804D01*
X160726653Y-105387784D01*
X160762587Y-105447705D01*
X160760421Y-105517541D01*
X160720843Y-105575120D01*
X160713708Y-105580509D01*
X160626598Y-105641504D01*
X160459506Y-105808597D01*
X160459501Y-105808604D01*
X160323967Y-106002165D01*
X160323965Y-106002169D01*
X160224098Y-106216335D01*
X160224094Y-106216344D01*
X160162938Y-106444586D01*
X160162936Y-106444596D01*
X160142341Y-106679999D01*
X160142341Y-106680000D01*
X160162936Y-106915403D01*
X160162938Y-106915413D01*
X160224094Y-107143655D01*
X160224096Y-107143659D01*
X160224097Y-107143663D01*
X160274031Y-107250746D01*
X160323964Y-107357828D01*
X160323965Y-107357830D01*
X160459505Y-107551402D01*
X160581818Y-107673715D01*
X160615303Y-107735038D01*
X160610319Y-107804730D01*
X160568447Y-107860663D01*
X160537470Y-107877578D01*
X160405913Y-107926645D01*
X160405906Y-107926649D01*
X160290812Y-108012809D01*
X160290809Y-108012812D01*
X160204649Y-108127906D01*
X160204645Y-108127913D01*
X160154403Y-108262620D01*
X160154401Y-108262627D01*
X160148000Y-108322155D01*
X160148000Y-108970000D01*
X161364314Y-108970000D01*
X161338507Y-109010156D01*
X161298000Y-109148111D01*
X161298000Y-109291889D01*
X161338507Y-109429844D01*
X161364314Y-109470000D01*
X160148000Y-109470000D01*
X160148000Y-110117844D01*
X160154401Y-110177372D01*
X160154403Y-110177379D01*
X160204645Y-110312086D01*
X160204649Y-110312093D01*
X160290809Y-110427187D01*
X160290812Y-110427190D01*
X160405906Y-110513350D01*
X160405913Y-110513354D01*
X160540620Y-110563596D01*
X160540627Y-110563598D01*
X160600155Y-110569999D01*
X160600172Y-110570000D01*
X161548000Y-110570000D01*
X161548000Y-109655501D01*
X161655685Y-109704680D01*
X161762237Y-109720000D01*
X161833763Y-109720000D01*
X161940315Y-109704680D01*
X162048000Y-109655501D01*
X162048000Y-110570000D01*
X162995828Y-110570000D01*
X162995844Y-110569999D01*
X163063087Y-110562769D01*
X163063327Y-110565010D01*
X163121735Y-110568132D01*
X163178413Y-110608990D01*
X163204005Y-110674004D01*
X163204500Y-110685075D01*
X163204500Y-115005546D01*
X163184815Y-115072585D01*
X163168181Y-115093227D01*
X161019111Y-117242296D01*
X160957788Y-117275781D01*
X160936170Y-117278524D01*
X160170406Y-117307819D01*
X160165253Y-117307802D01*
X159978373Y-117299409D01*
X159852476Y-117316463D01*
X159755313Y-117329625D01*
X159755310Y-117329625D01*
X159755309Y-117329626D01*
X159541234Y-117399183D01*
X159343021Y-117505846D01*
X159343018Y-117505848D01*
X159167036Y-117646189D01*
X159018936Y-117815703D01*
X158903487Y-118008931D01*
X158881149Y-118068450D01*
X158839163Y-118124297D01*
X158773648Y-118148580D01*
X158705406Y-118133588D01*
X158656102Y-118084081D01*
X158653336Y-118078679D01*
X158572101Y-117909990D01*
X158572097Y-117909983D01*
X158439848Y-117727958D01*
X158439842Y-117727950D01*
X158277213Y-117572462D01*
X158089433Y-117448508D01*
X157882530Y-117360075D01*
X157882523Y-117360073D01*
X157744700Y-117328615D01*
X157744700Y-118368198D01*
X157637015Y-118319020D01*
X157530463Y-118303700D01*
X157458937Y-118303700D01*
X157352385Y-118319020D01*
X157244700Y-118368198D01*
X157244700Y-117326149D01*
X157244699Y-117326149D01*
X157215421Y-117330115D01*
X157001431Y-117399645D01*
X156803298Y-117506265D01*
X156803295Y-117506267D01*
X156627379Y-117646554D01*
X156479347Y-117815992D01*
X156479344Y-117815996D01*
X156435646Y-117889133D01*
X156384363Y-117936586D01*
X156315565Y-117948780D01*
X156251097Y-117921844D01*
X156211425Y-117864330D01*
X156205199Y-117825532D01*
X156205199Y-117755829D01*
X156205198Y-117755823D01*
X156205197Y-117755816D01*
X156198791Y-117696217D01*
X156152633Y-117572462D01*
X156148497Y-117561371D01*
X156148493Y-117561364D01*
X156062247Y-117446155D01*
X156062244Y-117446152D01*
X155947035Y-117359906D01*
X155947028Y-117359902D01*
X155812182Y-117309608D01*
X155812183Y-117309608D01*
X155752583Y-117303201D01*
X155752581Y-117303200D01*
X155752573Y-117303200D01*
X155752564Y-117303200D01*
X154156829Y-117303200D01*
X154156823Y-117303201D01*
X154097216Y-117309608D01*
X153962371Y-117359902D01*
X153962364Y-117359906D01*
X153847155Y-117446152D01*
X153847152Y-117446155D01*
X153760906Y-117561364D01*
X153760902Y-117561371D01*
X153710608Y-117696217D01*
X153704201Y-117755816D01*
X153704201Y-117755823D01*
X153704200Y-117755835D01*
X153704200Y-119851570D01*
X153704201Y-119851576D01*
X153710608Y-119911183D01*
X153760902Y-120046028D01*
X153760906Y-120046035D01*
X153847152Y-120161244D01*
X153847155Y-120161247D01*
X153962364Y-120247493D01*
X153962371Y-120247497D01*
X154097217Y-120297791D01*
X154097216Y-120297791D01*
X154101756Y-120298279D01*
X154156827Y-120304200D01*
X155752572Y-120304199D01*
X155812183Y-120297791D01*
X155947031Y-120247496D01*
X156062246Y-120161246D01*
X156148496Y-120046031D01*
X156198791Y-119911183D01*
X156205200Y-119851573D01*
X156205199Y-119787111D01*
X156224883Y-119720075D01*
X156277686Y-119674319D01*
X156346844Y-119664375D01*
X156410400Y-119693399D01*
X156429517Y-119714228D01*
X156549551Y-119879441D01*
X156549557Y-119879449D01*
X156712186Y-120034937D01*
X156899966Y-120158891D01*
X157106869Y-120247324D01*
X157106878Y-120247327D01*
X157244699Y-120278784D01*
X157244700Y-120278784D01*
X157244700Y-119239201D01*
X157352385Y-119288380D01*
X157458937Y-119303700D01*
X157530463Y-119303700D01*
X157637015Y-119288380D01*
X157744700Y-119239201D01*
X157744700Y-120281249D01*
X157773967Y-120277286D01*
X157773973Y-120277285D01*
X157987968Y-120207754D01*
X158186101Y-120101134D01*
X158186104Y-120101132D01*
X158362020Y-119960845D01*
X158510052Y-119791407D01*
X158510059Y-119791399D01*
X158625459Y-119598253D01*
X158625465Y-119598242D01*
X158647707Y-119538977D01*
X158689691Y-119483128D01*
X158755205Y-119458844D01*
X158823448Y-119473835D01*
X158872753Y-119523340D01*
X158875520Y-119528745D01*
X158956867Y-119697666D01*
X158956871Y-119697674D01*
X159089173Y-119879772D01*
X159089174Y-119879774D01*
X159251876Y-120035333D01*
X159439733Y-120159336D01*
X159646704Y-120247800D01*
X159646707Y-120247801D01*
X159646712Y-120247803D01*
X159866163Y-120297891D01*
X160091030Y-120307990D01*
X160314087Y-120277775D01*
X160528164Y-120208217D01*
X160726381Y-120101552D01*
X160902366Y-119961208D01*
X161050465Y-119791696D01*
X161165915Y-119598464D01*
X161245007Y-119387724D01*
X161252645Y-119345630D01*
X161263444Y-119312920D01*
X161785760Y-118254124D01*
X161809279Y-118221309D01*
X164213786Y-115816802D01*
X164226048Y-115806980D01*
X164225865Y-115806759D01*
X164231867Y-115801792D01*
X164231877Y-115801786D01*
X164279241Y-115751348D01*
X164300120Y-115730470D01*
X164304373Y-115724986D01*
X164308150Y-115720563D01*
X164340062Y-115686582D01*
X164349714Y-115669023D01*
X164360389Y-115652772D01*
X164372674Y-115636936D01*
X164391186Y-115594152D01*
X164393742Y-115588935D01*
X164416197Y-115548092D01*
X164421180Y-115528680D01*
X164427477Y-115510291D01*
X164435438Y-115491895D01*
X164442729Y-115445853D01*
X164443908Y-115440162D01*
X164455500Y-115395019D01*
X164455500Y-115374983D01*
X164457027Y-115355582D01*
X164460160Y-115335804D01*
X164455775Y-115289415D01*
X164455500Y-115283577D01*
X164455500Y-88474742D01*
X164457224Y-88459122D01*
X164456939Y-88459096D01*
X164457671Y-88451340D01*
X164457673Y-88451333D01*
X164455500Y-88382185D01*
X164455500Y-88352650D01*
X164454631Y-88345772D01*
X164454172Y-88339943D01*
X164452709Y-88293372D01*
X164447122Y-88274144D01*
X164443174Y-88255084D01*
X164440663Y-88235204D01*
X164423512Y-88191887D01*
X164421619Y-88186358D01*
X164408618Y-88141609D01*
X164408616Y-88141606D01*
X164398423Y-88124371D01*
X164389861Y-88106894D01*
X164382487Y-88088270D01*
X164382486Y-88088268D01*
X164355079Y-88050545D01*
X164351888Y-88045686D01*
X164328172Y-88005583D01*
X164328165Y-88005574D01*
X164314006Y-87991415D01*
X164301368Y-87976619D01*
X164289594Y-87960413D01*
X164253688Y-87930709D01*
X164249376Y-87926786D01*
X163700262Y-87377672D01*
X163666777Y-87316349D01*
X163666605Y-87315547D01*
X163665199Y-87308872D01*
X163446118Y-86268684D01*
X163445026Y-86261332D01*
X163433063Y-86124592D01*
X163371903Y-85896337D01*
X163272035Y-85682171D01*
X163136495Y-85488599D01*
X163136494Y-85488597D01*
X162969403Y-85321506D01*
X162899410Y-85272497D01*
X162783838Y-85191573D01*
X162740215Y-85136999D01*
X162733021Y-85067500D01*
X162764543Y-85005145D01*
X162783836Y-84988428D01*
X162969401Y-84858495D01*
X163136495Y-84691401D01*
X163272035Y-84497830D01*
X163371903Y-84283663D01*
X163433063Y-84055408D01*
X163453659Y-83820000D01*
X163433063Y-83584592D01*
X163371903Y-83356337D01*
X163272035Y-83142171D01*
X163272034Y-83142169D01*
X163136496Y-82948600D01*
X163136492Y-82948596D01*
X163026280Y-82838384D01*
X163011467Y-82820493D01*
X162445001Y-81988485D01*
X162423544Y-81921992D01*
X162423500Y-81918700D01*
X162423500Y-72472737D01*
X162425224Y-72457123D01*
X162424938Y-72457096D01*
X162425672Y-72449333D01*
X162425581Y-72446452D01*
X162423500Y-72380202D01*
X162423500Y-72350650D01*
X162422629Y-72343759D01*
X162422172Y-72337945D01*
X162421727Y-72323791D01*
X162420709Y-72291372D01*
X162415120Y-72272137D01*
X162411174Y-72253084D01*
X162408664Y-72233208D01*
X162391501Y-72189859D01*
X162389614Y-72184346D01*
X162384987Y-72168421D01*
X162376617Y-72139610D01*
X162366421Y-72122369D01*
X162357860Y-72104893D01*
X162350486Y-72086269D01*
X162350486Y-72086267D01*
X162340474Y-72072488D01*
X162323083Y-72048550D01*
X162319900Y-72043705D01*
X162296170Y-72003579D01*
X162296165Y-72003573D01*
X162282005Y-71989413D01*
X162269370Y-71974620D01*
X162258823Y-71960105D01*
X162257594Y-71958413D01*
X162257593Y-71958412D01*
X162221693Y-71928713D01*
X162217381Y-71924790D01*
X159758803Y-69466212D01*
X159748980Y-69453950D01*
X159748759Y-69454134D01*
X159743786Y-69448123D01*
X159725159Y-69430631D01*
X159693364Y-69400773D01*
X159682919Y-69390328D01*
X159672475Y-69379883D01*
X159666986Y-69375625D01*
X159662561Y-69371847D01*
X159628582Y-69339938D01*
X159628580Y-69339936D01*
X159628577Y-69339935D01*
X159611029Y-69330288D01*
X159594763Y-69319604D01*
X159578933Y-69307325D01*
X159536168Y-69288818D01*
X159530922Y-69286248D01*
X159490093Y-69263803D01*
X159490092Y-69263802D01*
X159470693Y-69258822D01*
X159452281Y-69252518D01*
X159433898Y-69244562D01*
X159433892Y-69244560D01*
X159387874Y-69237272D01*
X159382152Y-69236087D01*
X159337021Y-69224500D01*
X159337019Y-69224500D01*
X159316984Y-69224500D01*
X159297586Y-69222973D01*
X159290162Y-69221797D01*
X159277805Y-69219840D01*
X159277804Y-69219840D01*
X159231416Y-69224225D01*
X159225578Y-69224500D01*
X153936549Y-69224500D01*
X153869510Y-69204815D01*
X153823755Y-69152011D01*
X153813811Y-69082853D01*
X153824167Y-69048095D01*
X153834239Y-69026496D01*
X153893135Y-68806692D01*
X153912968Y-68580000D01*
X153893135Y-68353308D01*
X153834239Y-68133504D01*
X153738068Y-67927266D01*
X153607547Y-67740861D01*
X153607545Y-67740858D01*
X153446641Y-67579954D01*
X153383260Y-67535575D01*
X153339635Y-67480999D01*
X153332441Y-67411501D01*
X153363963Y-67349146D01*
X153424193Y-67313731D01*
X153454383Y-67310000D01*
X166753500Y-67310000D01*
X166820539Y-67329685D01*
X166866294Y-67382489D01*
X166877500Y-67434000D01*
X166877500Y-122811500D01*
X166857815Y-122878539D01*
X166805011Y-122924294D01*
X166753500Y-122935500D01*
X115186500Y-122935500D01*
X115119461Y-122915815D01*
X115073706Y-122863011D01*
X115062500Y-122811500D01*
X115062500Y-67434000D01*
X115082185Y-67366961D01*
X115134989Y-67321206D01*
X115186500Y-67310000D01*
X128062348Y-67310000D01*
X128129387Y-67329685D01*
G37*
%TD.AperFunction*%
%TA.AperFunction,Conductor*%
G36*
X150945490Y-70495185D02*
G01*
X150991245Y-70547989D01*
X151001189Y-70617147D01*
X150990833Y-70651905D01*
X150980762Y-70673502D01*
X150980758Y-70673511D01*
X150921866Y-70893302D01*
X150921864Y-70893313D01*
X150902032Y-71119998D01*
X150902032Y-71120001D01*
X150921864Y-71346686D01*
X150921866Y-71346697D01*
X150980758Y-71566488D01*
X150980761Y-71566497D01*
X151076931Y-71772732D01*
X151076932Y-71772734D01*
X151207454Y-71959141D01*
X151368358Y-72120045D01*
X151368361Y-72120047D01*
X151554766Y-72250568D01*
X151601040Y-72272146D01*
X151612775Y-72277618D01*
X151665214Y-72323791D01*
X151684366Y-72390984D01*
X151664150Y-72457865D01*
X151612775Y-72502382D01*
X151554767Y-72529431D01*
X151554765Y-72529432D01*
X151368358Y-72659954D01*
X151207454Y-72820858D01*
X151076932Y-73007265D01*
X151076931Y-73007267D01*
X150980761Y-73213502D01*
X150980758Y-73213511D01*
X150921866Y-73433302D01*
X150921864Y-73433313D01*
X150902032Y-73659998D01*
X150902032Y-73660001D01*
X150921864Y-73886686D01*
X150921866Y-73886697D01*
X150980758Y-74106488D01*
X150980761Y-74106497D01*
X151076931Y-74312732D01*
X151076932Y-74312734D01*
X151207454Y-74499141D01*
X151368358Y-74660045D01*
X151368361Y-74660047D01*
X151554766Y-74790568D01*
X151612775Y-74817618D01*
X151665214Y-74863791D01*
X151684366Y-74930984D01*
X151664150Y-74997865D01*
X151612775Y-75042382D01*
X151554767Y-75069431D01*
X151554765Y-75069432D01*
X151368358Y-75199954D01*
X151207454Y-75360858D01*
X151076932Y-75547265D01*
X151076931Y-75547267D01*
X150980761Y-75753502D01*
X150980758Y-75753511D01*
X150921866Y-75973302D01*
X150921864Y-75973313D01*
X150902032Y-76199998D01*
X150902032Y-76200001D01*
X150921864Y-76426686D01*
X150921866Y-76426697D01*
X150980758Y-76646488D01*
X150980761Y-76646497D01*
X151076931Y-76852732D01*
X151076932Y-76852734D01*
X151207454Y-77039141D01*
X151368358Y-77200045D01*
X151368361Y-77200047D01*
X151554766Y-77330568D01*
X151612775Y-77357618D01*
X151665214Y-77403791D01*
X151684366Y-77470984D01*
X151664150Y-77537865D01*
X151612775Y-77582382D01*
X151554767Y-77609431D01*
X151554765Y-77609432D01*
X151368358Y-77739954D01*
X151207454Y-77900858D01*
X151076932Y-78087265D01*
X151076931Y-78087267D01*
X150980761Y-78293502D01*
X150980758Y-78293511D01*
X150921866Y-78513302D01*
X150921864Y-78513313D01*
X150902032Y-78739998D01*
X150902032Y-78740001D01*
X150921864Y-78966686D01*
X150921866Y-78966697D01*
X150980758Y-79186488D01*
X150980761Y-79186497D01*
X151076931Y-79392732D01*
X151076932Y-79392734D01*
X151207454Y-79579141D01*
X151368358Y-79740045D01*
X151368361Y-79740047D01*
X151554766Y-79870568D01*
X151613365Y-79897893D01*
X151665805Y-79944065D01*
X151684957Y-80011258D01*
X151664742Y-80078139D01*
X151613367Y-80122657D01*
X151555015Y-80149867D01*
X151368679Y-80280342D01*
X151207842Y-80441179D01*
X151077365Y-80627517D01*
X150981234Y-80833673D01*
X150981230Y-80833682D01*
X150928627Y-81029999D01*
X150928628Y-81030000D01*
X151973814Y-81030000D01*
X151948007Y-81070156D01*
X151907500Y-81208111D01*
X151907500Y-81351889D01*
X151948007Y-81489844D01*
X151973814Y-81530000D01*
X150928628Y-81530000D01*
X150981230Y-81726317D01*
X150981234Y-81726326D01*
X151077365Y-81932482D01*
X151207842Y-82118820D01*
X151368679Y-82279657D01*
X151555018Y-82410134D01*
X151555020Y-82410135D01*
X151613365Y-82437342D01*
X151665805Y-82483514D01*
X151684957Y-82550707D01*
X151664742Y-82617589D01*
X151613367Y-82662105D01*
X151612775Y-82662382D01*
X151554764Y-82689433D01*
X151368358Y-82819954D01*
X151207454Y-82980858D01*
X151076932Y-83167265D01*
X151076931Y-83167267D01*
X150980761Y-83373502D01*
X150980758Y-83373511D01*
X150921866Y-83593302D01*
X150921864Y-83593313D01*
X150902032Y-83819998D01*
X150902032Y-83820001D01*
X150921864Y-84046686D01*
X150921866Y-84046697D01*
X150980758Y-84266488D01*
X150980761Y-84266497D01*
X151076931Y-84472732D01*
X151076932Y-84472734D01*
X151207454Y-84659141D01*
X151368358Y-84820045D01*
X151368361Y-84820047D01*
X151554766Y-84950568D01*
X151761004Y-85046739D01*
X151980808Y-85105635D01*
X152150716Y-85120500D01*
X152664284Y-85120500D01*
X152834192Y-85105635D01*
X153053996Y-85046739D01*
X153106283Y-85022355D01*
X153114144Y-85019321D01*
X153139415Y-85011496D01*
X154306672Y-84457477D01*
X154359841Y-84445500D01*
X158947548Y-84445500D01*
X159014587Y-84465185D01*
X159035229Y-84481819D01*
X159895735Y-85342325D01*
X159929220Y-85403648D01*
X159929392Y-85404450D01*
X160149879Y-86451307D01*
X160150975Y-86458687D01*
X160162936Y-86595403D01*
X160162938Y-86595413D01*
X160224094Y-86823655D01*
X160224096Y-86823659D01*
X160224097Y-86823663D01*
X160274031Y-86930746D01*
X160323964Y-87037828D01*
X160323965Y-87037830D01*
X160459505Y-87231402D01*
X160626597Y-87398494D01*
X160806819Y-87524686D01*
X160850444Y-87579263D01*
X160857638Y-87648761D01*
X160826115Y-87711116D01*
X160789383Y-87738036D01*
X159697935Y-88262275D01*
X159644248Y-88274500D01*
X151694452Y-88274500D01*
X151627413Y-88254815D01*
X151606771Y-88238181D01*
X146804803Y-83436212D01*
X146794980Y-83423950D01*
X146794759Y-83424134D01*
X146789786Y-83418123D01*
X146739364Y-83370773D01*
X146724926Y-83356335D01*
X146718475Y-83349883D01*
X146712986Y-83345625D01*
X146708561Y-83341847D01*
X146674582Y-83309938D01*
X146674580Y-83309936D01*
X146674577Y-83309935D01*
X146657029Y-83300288D01*
X146640763Y-83289604D01*
X146624933Y-83277325D01*
X146582168Y-83258818D01*
X146576922Y-83256248D01*
X146536093Y-83233803D01*
X146536092Y-83233802D01*
X146516693Y-83228822D01*
X146498281Y-83222518D01*
X146479898Y-83214562D01*
X146479892Y-83214560D01*
X146433874Y-83207272D01*
X146428152Y-83206087D01*
X146383021Y-83194500D01*
X146383019Y-83194500D01*
X146362984Y-83194500D01*
X146343586Y-83192973D01*
X146336162Y-83191797D01*
X146323805Y-83189840D01*
X146323804Y-83189840D01*
X146277416Y-83194225D01*
X146271578Y-83194500D01*
X131499843Y-83194500D01*
X131446674Y-83182522D01*
X130953823Y-82948599D01*
X130345785Y-82660004D01*
X130293662Y-82613476D01*
X130274968Y-82546153D01*
X130295640Y-82479411D01*
X130346548Y-82435602D01*
X130400234Y-82410568D01*
X130586639Y-82280047D01*
X130747547Y-82119139D01*
X130878068Y-81932734D01*
X130974239Y-81726496D01*
X131033135Y-81506692D01*
X131052968Y-81280000D01*
X131033135Y-81053308D01*
X130974239Y-80833504D01*
X130878068Y-80627266D01*
X130747547Y-80440861D01*
X130747545Y-80440858D01*
X130586641Y-80279954D01*
X130400234Y-80149432D01*
X130400228Y-80149429D01*
X130342225Y-80122382D01*
X130289785Y-80076210D01*
X130270633Y-80009017D01*
X130290848Y-79942135D01*
X130342225Y-79897618D01*
X130400234Y-79870568D01*
X130586639Y-79740047D01*
X130747547Y-79579139D01*
X130878068Y-79392734D01*
X130974239Y-79186496D01*
X131033135Y-78966692D01*
X131052968Y-78740000D01*
X131033135Y-78513308D01*
X130974239Y-78293504D01*
X130878068Y-78087266D01*
X130747547Y-77900861D01*
X130747545Y-77900858D01*
X130586641Y-77739954D01*
X130400234Y-77609432D01*
X130400228Y-77609429D01*
X130372538Y-77596517D01*
X130342224Y-77582381D01*
X130289785Y-77536210D01*
X130270633Y-77469017D01*
X130290848Y-77402135D01*
X130342225Y-77357618D01*
X130400234Y-77330568D01*
X130586639Y-77200047D01*
X130747547Y-77039139D01*
X130878068Y-76852734D01*
X130974239Y-76646496D01*
X131033135Y-76426692D01*
X131052968Y-76200000D01*
X131033135Y-75973308D01*
X130974239Y-75753504D01*
X130878068Y-75547266D01*
X130747547Y-75360861D01*
X130747545Y-75360858D01*
X130586641Y-75199954D01*
X130400234Y-75069432D01*
X130400228Y-75069429D01*
X130342225Y-75042382D01*
X130289785Y-74996210D01*
X130270633Y-74929017D01*
X130290848Y-74862135D01*
X130342225Y-74817618D01*
X130400234Y-74790568D01*
X130586639Y-74660047D01*
X130747547Y-74499139D01*
X130878068Y-74312734D01*
X130974239Y-74106496D01*
X131033135Y-73886692D01*
X131052968Y-73660000D01*
X131033135Y-73433308D01*
X130974239Y-73213504D01*
X130878068Y-73007266D01*
X130755530Y-72832262D01*
X130747545Y-72820858D01*
X130586641Y-72659954D01*
X130400234Y-72529432D01*
X130400228Y-72529429D01*
X130342225Y-72502382D01*
X130289785Y-72456210D01*
X130270633Y-72389017D01*
X130290848Y-72322135D01*
X130342225Y-72277618D01*
X130346306Y-72275715D01*
X130400234Y-72250568D01*
X130586639Y-72120047D01*
X130747547Y-71959139D01*
X130878068Y-71772734D01*
X130974239Y-71566496D01*
X131033135Y-71346692D01*
X131052968Y-71120000D01*
X131033135Y-70893308D01*
X130974239Y-70673504D01*
X130964166Y-70651904D01*
X130953675Y-70582827D01*
X130982195Y-70519043D01*
X131040671Y-70480804D01*
X131076549Y-70475500D01*
X150878451Y-70475500D01*
X150945490Y-70495185D01*
G37*
%TD.AperFunction*%
%TA.AperFunction,Conductor*%
G36*
X159014587Y-70495185D02*
G01*
X159035229Y-70511819D01*
X161136181Y-72612771D01*
X161169666Y-72674094D01*
X161172500Y-72700452D01*
X161172500Y-81918700D01*
X161152815Y-81985739D01*
X161150999Y-81988486D01*
X160584531Y-82820493D01*
X160569714Y-82838387D01*
X160459506Y-82948596D01*
X160323967Y-83142165D01*
X160323965Y-83142169D01*
X160224098Y-83356335D01*
X160224094Y-83356344D01*
X160164477Y-83578842D01*
X160128112Y-83638503D01*
X160065265Y-83669032D01*
X159995890Y-83660737D01*
X159957021Y-83634430D01*
X159758803Y-83436212D01*
X159748980Y-83423950D01*
X159748759Y-83424134D01*
X159743786Y-83418123D01*
X159693364Y-83370773D01*
X159678926Y-83356335D01*
X159672475Y-83349883D01*
X159666986Y-83345625D01*
X159662561Y-83341847D01*
X159628582Y-83309938D01*
X159628580Y-83309936D01*
X159628577Y-83309935D01*
X159611029Y-83300288D01*
X159594763Y-83289604D01*
X159578933Y-83277325D01*
X159536168Y-83258818D01*
X159530922Y-83256248D01*
X159490093Y-83233803D01*
X159490092Y-83233802D01*
X159470693Y-83228822D01*
X159452281Y-83222518D01*
X159433898Y-83214562D01*
X159433892Y-83214560D01*
X159387874Y-83207272D01*
X159382152Y-83206087D01*
X159337021Y-83194500D01*
X159337019Y-83194500D01*
X159316984Y-83194500D01*
X159297586Y-83192973D01*
X159290162Y-83191797D01*
X159277805Y-83189840D01*
X159277804Y-83189840D01*
X159231416Y-83194225D01*
X159225578Y-83194500D01*
X154359843Y-83194500D01*
X154306674Y-83182522D01*
X153813816Y-82948596D01*
X153205199Y-82659726D01*
X153153076Y-82613198D01*
X153134382Y-82545875D01*
X153155054Y-82479133D01*
X153205966Y-82435321D01*
X153259983Y-82410133D01*
X153446320Y-82279657D01*
X153607157Y-82118820D01*
X153737634Y-81932482D01*
X153833765Y-81726326D01*
X153833769Y-81726317D01*
X153886372Y-81530000D01*
X152841186Y-81530000D01*
X152866993Y-81489844D01*
X152907500Y-81351889D01*
X152907500Y-81208111D01*
X152866993Y-81070156D01*
X152841186Y-81030000D01*
X153886372Y-81030000D01*
X153886372Y-81029999D01*
X153833769Y-80833682D01*
X153833765Y-80833673D01*
X153737634Y-80627517D01*
X153607157Y-80441179D01*
X153446320Y-80280342D01*
X153259982Y-80149865D01*
X153201633Y-80122657D01*
X153149194Y-80076484D01*
X153130042Y-80009291D01*
X153150258Y-79942410D01*
X153201629Y-79897895D01*
X153260234Y-79870568D01*
X153446639Y-79740047D01*
X153607547Y-79579139D01*
X153738068Y-79392734D01*
X153834239Y-79186496D01*
X153893135Y-78966692D01*
X153912968Y-78740000D01*
X153893135Y-78513308D01*
X153834239Y-78293504D01*
X153738068Y-78087266D01*
X153607547Y-77900861D01*
X153607545Y-77900858D01*
X153446641Y-77739954D01*
X153260234Y-77609432D01*
X153260228Y-77609429D01*
X153232538Y-77596517D01*
X153202224Y-77582381D01*
X153149785Y-77536210D01*
X153130633Y-77469017D01*
X153150848Y-77402135D01*
X153202225Y-77357618D01*
X153260234Y-77330568D01*
X153446639Y-77200047D01*
X153607547Y-77039139D01*
X153738068Y-76852734D01*
X153834239Y-76646496D01*
X153893135Y-76426692D01*
X153912968Y-76200000D01*
X153893135Y-75973308D01*
X153834239Y-75753504D01*
X153738068Y-75547266D01*
X153607547Y-75360861D01*
X153607545Y-75360858D01*
X153446641Y-75199954D01*
X153260234Y-75069432D01*
X153260228Y-75069429D01*
X153202225Y-75042382D01*
X153149785Y-74996210D01*
X153130633Y-74929017D01*
X153150848Y-74862135D01*
X153202225Y-74817618D01*
X153260234Y-74790568D01*
X153446639Y-74660047D01*
X153607547Y-74499139D01*
X153738068Y-74312734D01*
X153834239Y-74106496D01*
X153893135Y-73886692D01*
X153912968Y-73660000D01*
X153893135Y-73433308D01*
X153834239Y-73213504D01*
X153738068Y-73007266D01*
X153615530Y-72832262D01*
X153607545Y-72820858D01*
X153446641Y-72659954D01*
X153260234Y-72529432D01*
X153260228Y-72529429D01*
X153202225Y-72502382D01*
X153149785Y-72456210D01*
X153130633Y-72389017D01*
X153150848Y-72322135D01*
X153202225Y-72277618D01*
X153206306Y-72275715D01*
X153260234Y-72250568D01*
X153446639Y-72120047D01*
X153607547Y-71959139D01*
X153738068Y-71772734D01*
X153834239Y-71566496D01*
X153893135Y-71346692D01*
X153912968Y-71120000D01*
X153893135Y-70893308D01*
X153834239Y-70673504D01*
X153824166Y-70651904D01*
X153813675Y-70582827D01*
X153842195Y-70519043D01*
X153900671Y-70480804D01*
X153936549Y-70475500D01*
X158947548Y-70475500D01*
X159014587Y-70495185D01*
G37*
%TD.AperFunction*%
%TD*%
%TA.AperFunction,Conductor*%
%TO.N,+5V*%
G36*
X162933483Y-86298507D02*
G01*
X162937139Y-86304823D01*
X163207326Y-87587654D01*
X163205678Y-87596455D01*
X163204150Y-87598338D01*
X163037099Y-87765389D01*
X163028826Y-87768816D01*
X163024876Y-87768129D01*
X161444748Y-87201287D01*
X161438118Y-87195268D01*
X161437686Y-87186323D01*
X161437970Y-87185608D01*
X161794419Y-86365900D01*
X161800860Y-86359681D01*
X161804485Y-86358886D01*
X162925030Y-86295553D01*
X162933483Y-86298507D01*
G37*
%TD.AperFunction*%
%TD*%
%TA.AperFunction,Conductor*%
%TO.N,BLK{slash}OBST*%
G36*
X160905165Y-103544422D02*
G01*
X161791123Y-104134244D01*
X161796110Y-104141681D01*
X161795670Y-104147882D01*
X161501300Y-104980662D01*
X161495312Y-104987320D01*
X161488246Y-104988287D01*
X160103838Y-104745214D01*
X160097588Y-104741963D01*
X159931471Y-104575846D01*
X159928044Y-104567573D01*
X159931244Y-104559533D01*
X160890184Y-103546118D01*
X160898358Y-103542465D01*
X160905165Y-103544422D01*
G37*
%TD.AperFunction*%
%TD*%
%TA.AperFunction,Conductor*%
%TO.N,STS_DOOR*%
G36*
X122533109Y-72792719D02*
G01*
X122539427Y-72799066D01*
X122539551Y-72807655D01*
X122301859Y-73436437D01*
X122295728Y-73442964D01*
X122290915Y-73444000D01*
X122057085Y-73444000D01*
X122048812Y-73440573D01*
X122046141Y-73436437D01*
X121808448Y-72807655D01*
X121808728Y-72798705D01*
X121814889Y-72792719D01*
X122169500Y-72644875D01*
X122178449Y-72644855D01*
X122533109Y-72792719D01*
G37*
%TD.AperFunction*%
%TD*%
%TA.AperFunction,Conductor*%
%TO.N,+12V*%
G36*
X123193003Y-116835419D02*
G01*
X124838174Y-117255252D01*
X124845342Y-117260617D01*
X124846917Y-117267799D01*
X124715685Y-118529302D01*
X124711421Y-118537176D01*
X124705305Y-118539723D01*
X123448515Y-118675575D01*
X123439922Y-118673057D01*
X123435927Y-118666858D01*
X123400535Y-118529302D01*
X123011436Y-117017014D01*
X123012693Y-117008150D01*
X123014490Y-117005832D01*
X123181839Y-116838483D01*
X123190111Y-116835057D01*
X123193003Y-116835419D01*
G37*
%TD.AperFunction*%
%TD*%
%TA.AperFunction,Conductor*%
%TO.N,+5V*%
G36*
X160571118Y-84951869D02*
G01*
X162151253Y-85518712D01*
X162157882Y-85524731D01*
X162158314Y-85533676D01*
X162158030Y-85534391D01*
X161801580Y-86354098D01*
X161795139Y-86360318D01*
X161791511Y-86361113D01*
X160670969Y-86424446D01*
X160662516Y-86421492D01*
X160658860Y-86415176D01*
X160388673Y-85132345D01*
X160390321Y-85123544D01*
X160391844Y-85121666D01*
X160558901Y-84954609D01*
X160567173Y-84951183D01*
X160571118Y-84951869D01*
G37*
%TD.AperFunction*%
%TD*%
%TA.AperFunction,Conductor*%
%TO.N,+5V*%
G36*
X152922661Y-83085174D02*
G01*
X154200817Y-83691828D01*
X154206821Y-83698471D01*
X154207500Y-83702398D01*
X154207500Y-83937601D01*
X154204073Y-83945874D01*
X154200817Y-83948171D01*
X152922664Y-84554824D01*
X152913720Y-84555275D01*
X152908000Y-84550874D01*
X152492870Y-83945874D01*
X152411041Y-83826619D01*
X152409187Y-83817859D01*
X152411042Y-83813380D01*
X152487194Y-83702398D01*
X152908000Y-83089124D01*
X152915506Y-83084243D01*
X152922661Y-83085174D01*
G37*
%TD.AperFunction*%
%TD*%
M02*
