%TF.GenerationSoftware,KiCad,Pcbnew,7.0.9*%
%TF.CreationDate,2023-11-16T09:05:31-08:00*%
%TF.ProjectId,RatGDO-OpenSource-D1Mini-ESP8266-Tubez,52617447-444f-42d4-9f70-656e536f7572,2.5.0*%
%TF.SameCoordinates,Original*%
%TF.FileFunction,Legend,Top*%
%TF.FilePolarity,Positive*%
%FSLAX46Y46*%
G04 Gerber Fmt 4.6, Leading zero omitted, Abs format (unit mm)*
G04 Created by KiCad (PCBNEW 7.0.9) date 2023-11-16 09:05:31*
%MOMM*%
%LPD*%
G01*
G04 APERTURE LIST*
%ADD10C,0.150000*%
%ADD11C,0.300000*%
%ADD12C,0.120000*%
G04 APERTURE END LIST*
D10*
X117818180Y-101465142D02*
X118294371Y-101131809D01*
X117818180Y-100893714D02*
X118818180Y-100893714D01*
X118818180Y-100893714D02*
X118818180Y-101274666D01*
X118818180Y-101274666D02*
X118770561Y-101369904D01*
X118770561Y-101369904D02*
X118722942Y-101417523D01*
X118722942Y-101417523D02*
X118627704Y-101465142D01*
X118627704Y-101465142D02*
X118484847Y-101465142D01*
X118484847Y-101465142D02*
X118389609Y-101417523D01*
X118389609Y-101417523D02*
X118341990Y-101369904D01*
X118341990Y-101369904D02*
X118294371Y-101274666D01*
X118294371Y-101274666D02*
X118294371Y-100893714D01*
X118341990Y-101893714D02*
X118341990Y-102227047D01*
X117818180Y-102369904D02*
X117818180Y-101893714D01*
X117818180Y-101893714D02*
X118818180Y-101893714D01*
X118818180Y-101893714D02*
X118818180Y-102369904D01*
X117818180Y-102798476D02*
X118818180Y-102798476D01*
X118818180Y-102798476D02*
X118818180Y-103036571D01*
X118818180Y-103036571D02*
X118770561Y-103179428D01*
X118770561Y-103179428D02*
X118675323Y-103274666D01*
X118675323Y-103274666D02*
X118580085Y-103322285D01*
X118580085Y-103322285D02*
X118389609Y-103369904D01*
X118389609Y-103369904D02*
X118246752Y-103369904D01*
X118246752Y-103369904D02*
X118056276Y-103322285D01*
X118056276Y-103322285D02*
X117961038Y-103274666D01*
X117961038Y-103274666D02*
X117865800Y-103179428D01*
X117865800Y-103179428D02*
X117818180Y-103036571D01*
X117818180Y-103036571D02*
X117818180Y-102798476D01*
X116303419Y-101131809D02*
X116255800Y-101084190D01*
X116255800Y-101084190D02*
X116208180Y-100941333D01*
X116208180Y-100941333D02*
X116208180Y-100846095D01*
X116208180Y-100846095D02*
X116255800Y-100703238D01*
X116255800Y-100703238D02*
X116351038Y-100608000D01*
X116351038Y-100608000D02*
X116446276Y-100560381D01*
X116446276Y-100560381D02*
X116636752Y-100512762D01*
X116636752Y-100512762D02*
X116779609Y-100512762D01*
X116779609Y-100512762D02*
X116970085Y-100560381D01*
X116970085Y-100560381D02*
X117065323Y-100608000D01*
X117065323Y-100608000D02*
X117160561Y-100703238D01*
X117160561Y-100703238D02*
X117208180Y-100846095D01*
X117208180Y-100846095D02*
X117208180Y-100941333D01*
X117208180Y-100941333D02*
X117160561Y-101084190D01*
X117160561Y-101084190D02*
X117112942Y-101131809D01*
X117208180Y-101417524D02*
X117208180Y-101988952D01*
X116208180Y-101703238D02*
X117208180Y-101703238D01*
X116208180Y-102893714D02*
X116684371Y-102560381D01*
X116208180Y-102322286D02*
X117208180Y-102322286D01*
X117208180Y-102322286D02*
X117208180Y-102703238D01*
X117208180Y-102703238D02*
X117160561Y-102798476D01*
X117160561Y-102798476D02*
X117112942Y-102846095D01*
X117112942Y-102846095D02*
X117017704Y-102893714D01*
X117017704Y-102893714D02*
X116874847Y-102893714D01*
X116874847Y-102893714D02*
X116779609Y-102846095D01*
X116779609Y-102846095D02*
X116731990Y-102798476D01*
X116731990Y-102798476D02*
X116684371Y-102703238D01*
X116684371Y-102703238D02*
X116684371Y-102322286D01*
X116208180Y-103798476D02*
X116208180Y-103322286D01*
X116208180Y-103322286D02*
X117208180Y-103322286D01*
X153340016Y-108581819D02*
X153006683Y-108105628D01*
X152768588Y-108581819D02*
X152768588Y-107581819D01*
X152768588Y-107581819D02*
X153149540Y-107581819D01*
X153149540Y-107581819D02*
X153244778Y-107629438D01*
X153244778Y-107629438D02*
X153292397Y-107677057D01*
X153292397Y-107677057D02*
X153340016Y-107772295D01*
X153340016Y-107772295D02*
X153340016Y-107915152D01*
X153340016Y-107915152D02*
X153292397Y-108010390D01*
X153292397Y-108010390D02*
X153244778Y-108058009D01*
X153244778Y-108058009D02*
X153149540Y-108105628D01*
X153149540Y-108105628D02*
X152768588Y-108105628D01*
X153768588Y-108058009D02*
X154101921Y-108058009D01*
X154244778Y-108581819D02*
X153768588Y-108581819D01*
X153768588Y-108581819D02*
X153768588Y-107581819D01*
X153768588Y-107581819D02*
X154244778Y-107581819D01*
X154673350Y-108581819D02*
X154673350Y-107581819D01*
X154673350Y-107581819D02*
X154911445Y-107581819D01*
X154911445Y-107581819D02*
X155054302Y-107629438D01*
X155054302Y-107629438D02*
X155149540Y-107724676D01*
X155149540Y-107724676D02*
X155197159Y-107819914D01*
X155197159Y-107819914D02*
X155244778Y-108010390D01*
X155244778Y-108010390D02*
X155244778Y-108153247D01*
X155244778Y-108153247D02*
X155197159Y-108343723D01*
X155197159Y-108343723D02*
X155149540Y-108438961D01*
X155149540Y-108438961D02*
X155054302Y-108534200D01*
X155054302Y-108534200D02*
X154911445Y-108581819D01*
X154911445Y-108581819D02*
X154673350Y-108581819D01*
X156387635Y-107534200D02*
X155530493Y-108819914D01*
X157292397Y-108486580D02*
X157244778Y-108534200D01*
X157244778Y-108534200D02*
X157101921Y-108581819D01*
X157101921Y-108581819D02*
X157006683Y-108581819D01*
X157006683Y-108581819D02*
X156863826Y-108534200D01*
X156863826Y-108534200D02*
X156768588Y-108438961D01*
X156768588Y-108438961D02*
X156720969Y-108343723D01*
X156720969Y-108343723D02*
X156673350Y-108153247D01*
X156673350Y-108153247D02*
X156673350Y-108010390D01*
X156673350Y-108010390D02*
X156720969Y-107819914D01*
X156720969Y-107819914D02*
X156768588Y-107724676D01*
X156768588Y-107724676D02*
X156863826Y-107629438D01*
X156863826Y-107629438D02*
X157006683Y-107581819D01*
X157006683Y-107581819D02*
X157101921Y-107581819D01*
X157101921Y-107581819D02*
X157244778Y-107629438D01*
X157244778Y-107629438D02*
X157292397Y-107677057D01*
X157578112Y-107581819D02*
X158149540Y-107581819D01*
X157863826Y-108581819D02*
X157863826Y-107581819D01*
X159054302Y-108581819D02*
X158720969Y-108105628D01*
X158482874Y-108581819D02*
X158482874Y-107581819D01*
X158482874Y-107581819D02*
X158863826Y-107581819D01*
X158863826Y-107581819D02*
X158959064Y-107629438D01*
X158959064Y-107629438D02*
X159006683Y-107677057D01*
X159006683Y-107677057D02*
X159054302Y-107772295D01*
X159054302Y-107772295D02*
X159054302Y-107915152D01*
X159054302Y-107915152D02*
X159006683Y-108010390D01*
X159006683Y-108010390D02*
X158959064Y-108058009D01*
X158959064Y-108058009D02*
X158863826Y-108105628D01*
X158863826Y-108105628D02*
X158482874Y-108105628D01*
X159959064Y-108581819D02*
X159482874Y-108581819D01*
X159482874Y-108581819D02*
X159482874Y-107581819D01*
X117208180Y-116808476D02*
X117208180Y-116618000D01*
X117208180Y-116618000D02*
X117160561Y-116522762D01*
X117160561Y-116522762D02*
X117112942Y-116475143D01*
X117112942Y-116475143D02*
X116970085Y-116379905D01*
X116970085Y-116379905D02*
X116779609Y-116332286D01*
X116779609Y-116332286D02*
X116398657Y-116332286D01*
X116398657Y-116332286D02*
X116303419Y-116379905D01*
X116303419Y-116379905D02*
X116255800Y-116427524D01*
X116255800Y-116427524D02*
X116208180Y-116522762D01*
X116208180Y-116522762D02*
X116208180Y-116713238D01*
X116208180Y-116713238D02*
X116255800Y-116808476D01*
X116255800Y-116808476D02*
X116303419Y-116856095D01*
X116303419Y-116856095D02*
X116398657Y-116903714D01*
X116398657Y-116903714D02*
X116636752Y-116903714D01*
X116636752Y-116903714D02*
X116731990Y-116856095D01*
X116731990Y-116856095D02*
X116779609Y-116808476D01*
X116779609Y-116808476D02*
X116827228Y-116713238D01*
X116827228Y-116713238D02*
X116827228Y-116522762D01*
X116827228Y-116522762D02*
X116779609Y-116427524D01*
X116779609Y-116427524D02*
X116731990Y-116379905D01*
X116731990Y-116379905D02*
X116636752Y-116332286D01*
X116589133Y-117332286D02*
X116589133Y-118094191D01*
X117208180Y-118475143D02*
X117208180Y-119094190D01*
X117208180Y-119094190D02*
X116827228Y-118760857D01*
X116827228Y-118760857D02*
X116827228Y-118903714D01*
X116827228Y-118903714D02*
X116779609Y-118998952D01*
X116779609Y-118998952D02*
X116731990Y-119046571D01*
X116731990Y-119046571D02*
X116636752Y-119094190D01*
X116636752Y-119094190D02*
X116398657Y-119094190D01*
X116398657Y-119094190D02*
X116303419Y-119046571D01*
X116303419Y-119046571D02*
X116255800Y-118998952D01*
X116255800Y-118998952D02*
X116208180Y-118903714D01*
X116208180Y-118903714D02*
X116208180Y-118618000D01*
X116208180Y-118618000D02*
X116255800Y-118522762D01*
X116255800Y-118522762D02*
X116303419Y-118475143D01*
X117208180Y-119713238D02*
X117208180Y-119808476D01*
X117208180Y-119808476D02*
X117160561Y-119903714D01*
X117160561Y-119903714D02*
X117112942Y-119951333D01*
X117112942Y-119951333D02*
X117017704Y-119998952D01*
X117017704Y-119998952D02*
X116827228Y-120046571D01*
X116827228Y-120046571D02*
X116589133Y-120046571D01*
X116589133Y-120046571D02*
X116398657Y-119998952D01*
X116398657Y-119998952D02*
X116303419Y-119951333D01*
X116303419Y-119951333D02*
X116255800Y-119903714D01*
X116255800Y-119903714D02*
X116208180Y-119808476D01*
X116208180Y-119808476D02*
X116208180Y-119713238D01*
X116208180Y-119713238D02*
X116255800Y-119618000D01*
X116255800Y-119618000D02*
X116303419Y-119570381D01*
X116303419Y-119570381D02*
X116398657Y-119522762D01*
X116398657Y-119522762D02*
X116589133Y-119475143D01*
X116589133Y-119475143D02*
X116827228Y-119475143D01*
X116827228Y-119475143D02*
X117017704Y-119522762D01*
X117017704Y-119522762D02*
X117112942Y-119570381D01*
X117112942Y-119570381D02*
X117160561Y-119618000D01*
X117160561Y-119618000D02*
X117208180Y-119713238D01*
X117208180Y-120332286D02*
X116208180Y-120665619D01*
X116208180Y-120665619D02*
X117208180Y-120998952D01*
D11*
X135523653Y-104952828D02*
X135023653Y-104238542D01*
X134666510Y-104952828D02*
X134666510Y-103452828D01*
X134666510Y-103452828D02*
X135237939Y-103452828D01*
X135237939Y-103452828D02*
X135380796Y-103524257D01*
X135380796Y-103524257D02*
X135452225Y-103595685D01*
X135452225Y-103595685D02*
X135523653Y-103738542D01*
X135523653Y-103738542D02*
X135523653Y-103952828D01*
X135523653Y-103952828D02*
X135452225Y-104095685D01*
X135452225Y-104095685D02*
X135380796Y-104167114D01*
X135380796Y-104167114D02*
X135237939Y-104238542D01*
X135237939Y-104238542D02*
X134666510Y-104238542D01*
X136095082Y-104524257D02*
X136809368Y-104524257D01*
X135952225Y-104952828D02*
X136452225Y-103452828D01*
X136452225Y-103452828D02*
X136952225Y-104952828D01*
X137237939Y-103452828D02*
X138095082Y-103452828D01*
X137666510Y-104952828D02*
X137666510Y-103452828D01*
X138595081Y-104381400D02*
X139737939Y-104381400D01*
X141309367Y-104952828D02*
X140809367Y-104238542D01*
X140452224Y-104952828D02*
X140452224Y-103452828D01*
X140452224Y-103452828D02*
X141023653Y-103452828D01*
X141023653Y-103452828D02*
X141166510Y-103524257D01*
X141166510Y-103524257D02*
X141237939Y-103595685D01*
X141237939Y-103595685D02*
X141309367Y-103738542D01*
X141309367Y-103738542D02*
X141309367Y-103952828D01*
X141309367Y-103952828D02*
X141237939Y-104095685D01*
X141237939Y-104095685D02*
X141166510Y-104167114D01*
X141166510Y-104167114D02*
X141023653Y-104238542D01*
X141023653Y-104238542D02*
X140452224Y-104238542D01*
X141880796Y-104524257D02*
X142595082Y-104524257D01*
X141737939Y-104952828D02*
X142237939Y-103452828D01*
X142237939Y-103452828D02*
X142737939Y-104952828D01*
X143023653Y-103452828D02*
X143880796Y-103452828D01*
X143452224Y-104952828D02*
X143452224Y-103452828D01*
X145166510Y-103524257D02*
X145023653Y-103452828D01*
X145023653Y-103452828D02*
X144809367Y-103452828D01*
X144809367Y-103452828D02*
X144595081Y-103524257D01*
X144595081Y-103524257D02*
X144452224Y-103667114D01*
X144452224Y-103667114D02*
X144380795Y-103809971D01*
X144380795Y-103809971D02*
X144309367Y-104095685D01*
X144309367Y-104095685D02*
X144309367Y-104309971D01*
X144309367Y-104309971D02*
X144380795Y-104595685D01*
X144380795Y-104595685D02*
X144452224Y-104738542D01*
X144452224Y-104738542D02*
X144595081Y-104881400D01*
X144595081Y-104881400D02*
X144809367Y-104952828D01*
X144809367Y-104952828D02*
X144952224Y-104952828D01*
X144952224Y-104952828D02*
X145166510Y-104881400D01*
X145166510Y-104881400D02*
X145237938Y-104809971D01*
X145237938Y-104809971D02*
X145237938Y-104309971D01*
X145237938Y-104309971D02*
X144952224Y-104309971D01*
X145880795Y-104952828D02*
X145880795Y-103452828D01*
X145880795Y-103452828D02*
X146237938Y-103452828D01*
X146237938Y-103452828D02*
X146452224Y-103524257D01*
X146452224Y-103524257D02*
X146595081Y-103667114D01*
X146595081Y-103667114D02*
X146666510Y-103809971D01*
X146666510Y-103809971D02*
X146737938Y-104095685D01*
X146737938Y-104095685D02*
X146737938Y-104309971D01*
X146737938Y-104309971D02*
X146666510Y-104595685D01*
X146666510Y-104595685D02*
X146595081Y-104738542D01*
X146595081Y-104738542D02*
X146452224Y-104881400D01*
X146452224Y-104881400D02*
X146237938Y-104952828D01*
X146237938Y-104952828D02*
X145880795Y-104952828D01*
X147666510Y-103452828D02*
X147952224Y-103452828D01*
X147952224Y-103452828D02*
X148095081Y-103524257D01*
X148095081Y-103524257D02*
X148237938Y-103667114D01*
X148237938Y-103667114D02*
X148309367Y-103952828D01*
X148309367Y-103952828D02*
X148309367Y-104452828D01*
X148309367Y-104452828D02*
X148237938Y-104738542D01*
X148237938Y-104738542D02*
X148095081Y-104881400D01*
X148095081Y-104881400D02*
X147952224Y-104952828D01*
X147952224Y-104952828D02*
X147666510Y-104952828D01*
X147666510Y-104952828D02*
X147523653Y-104881400D01*
X147523653Y-104881400D02*
X147380795Y-104738542D01*
X147380795Y-104738542D02*
X147309367Y-104452828D01*
X147309367Y-104452828D02*
X147309367Y-103952828D01*
X147309367Y-103952828D02*
X147380795Y-103667114D01*
X147380795Y-103667114D02*
X147523653Y-103524257D01*
X147523653Y-103524257D02*
X147666510Y-103452828D01*
X134452225Y-105867828D02*
X135309368Y-105867828D01*
X134880796Y-107367828D02*
X134880796Y-105867828D01*
X135809367Y-105867828D02*
X135809367Y-107082114D01*
X135809367Y-107082114D02*
X135880796Y-107224971D01*
X135880796Y-107224971D02*
X135952225Y-107296400D01*
X135952225Y-107296400D02*
X136095082Y-107367828D01*
X136095082Y-107367828D02*
X136380796Y-107367828D01*
X136380796Y-107367828D02*
X136523653Y-107296400D01*
X136523653Y-107296400D02*
X136595082Y-107224971D01*
X136595082Y-107224971D02*
X136666510Y-107082114D01*
X136666510Y-107082114D02*
X136666510Y-105867828D01*
X137880796Y-106582114D02*
X138095082Y-106653542D01*
X138095082Y-106653542D02*
X138166511Y-106724971D01*
X138166511Y-106724971D02*
X138237939Y-106867828D01*
X138237939Y-106867828D02*
X138237939Y-107082114D01*
X138237939Y-107082114D02*
X138166511Y-107224971D01*
X138166511Y-107224971D02*
X138095082Y-107296400D01*
X138095082Y-107296400D02*
X137952225Y-107367828D01*
X137952225Y-107367828D02*
X137380796Y-107367828D01*
X137380796Y-107367828D02*
X137380796Y-105867828D01*
X137380796Y-105867828D02*
X137880796Y-105867828D01*
X137880796Y-105867828D02*
X138023654Y-105939257D01*
X138023654Y-105939257D02*
X138095082Y-106010685D01*
X138095082Y-106010685D02*
X138166511Y-106153542D01*
X138166511Y-106153542D02*
X138166511Y-106296400D01*
X138166511Y-106296400D02*
X138095082Y-106439257D01*
X138095082Y-106439257D02*
X138023654Y-106510685D01*
X138023654Y-106510685D02*
X137880796Y-106582114D01*
X137880796Y-106582114D02*
X137380796Y-106582114D01*
X138880796Y-106582114D02*
X139380796Y-106582114D01*
X139595082Y-107367828D02*
X138880796Y-107367828D01*
X138880796Y-107367828D02*
X138880796Y-105867828D01*
X138880796Y-105867828D02*
X139595082Y-105867828D01*
X140095082Y-105867828D02*
X141095082Y-105867828D01*
X141095082Y-105867828D02*
X140095082Y-107367828D01*
X140095082Y-107367828D02*
X141095082Y-107367828D01*
X142737939Y-106010685D02*
X142809367Y-105939257D01*
X142809367Y-105939257D02*
X142952225Y-105867828D01*
X142952225Y-105867828D02*
X143309367Y-105867828D01*
X143309367Y-105867828D02*
X143452225Y-105939257D01*
X143452225Y-105939257D02*
X143523653Y-106010685D01*
X143523653Y-106010685D02*
X143595082Y-106153542D01*
X143595082Y-106153542D02*
X143595082Y-106296400D01*
X143595082Y-106296400D02*
X143523653Y-106510685D01*
X143523653Y-106510685D02*
X142666510Y-107367828D01*
X142666510Y-107367828D02*
X143595082Y-107367828D01*
X144237938Y-107224971D02*
X144309367Y-107296400D01*
X144309367Y-107296400D02*
X144237938Y-107367828D01*
X144237938Y-107367828D02*
X144166510Y-107296400D01*
X144166510Y-107296400D02*
X144237938Y-107224971D01*
X144237938Y-107224971D02*
X144237938Y-107367828D01*
X145666510Y-105867828D02*
X144952224Y-105867828D01*
X144952224Y-105867828D02*
X144880796Y-106582114D01*
X144880796Y-106582114D02*
X144952224Y-106510685D01*
X144952224Y-106510685D02*
X145095082Y-106439257D01*
X145095082Y-106439257D02*
X145452224Y-106439257D01*
X145452224Y-106439257D02*
X145595082Y-106510685D01*
X145595082Y-106510685D02*
X145666510Y-106582114D01*
X145666510Y-106582114D02*
X145737939Y-106724971D01*
X145737939Y-106724971D02*
X145737939Y-107082114D01*
X145737939Y-107082114D02*
X145666510Y-107224971D01*
X145666510Y-107224971D02*
X145595082Y-107296400D01*
X145595082Y-107296400D02*
X145452224Y-107367828D01*
X145452224Y-107367828D02*
X145095082Y-107367828D01*
X145095082Y-107367828D02*
X144952224Y-107296400D01*
X144952224Y-107296400D02*
X144880796Y-107224971D01*
X146380795Y-107224971D02*
X146452224Y-107296400D01*
X146452224Y-107296400D02*
X146380795Y-107367828D01*
X146380795Y-107367828D02*
X146309367Y-107296400D01*
X146309367Y-107296400D02*
X146380795Y-107224971D01*
X146380795Y-107224971D02*
X146380795Y-107367828D01*
X147380796Y-105867828D02*
X147523653Y-105867828D01*
X147523653Y-105867828D02*
X147666510Y-105939257D01*
X147666510Y-105939257D02*
X147737939Y-106010685D01*
X147737939Y-106010685D02*
X147809367Y-106153542D01*
X147809367Y-106153542D02*
X147880796Y-106439257D01*
X147880796Y-106439257D02*
X147880796Y-106796400D01*
X147880796Y-106796400D02*
X147809367Y-107082114D01*
X147809367Y-107082114D02*
X147737939Y-107224971D01*
X147737939Y-107224971D02*
X147666510Y-107296400D01*
X147666510Y-107296400D02*
X147523653Y-107367828D01*
X147523653Y-107367828D02*
X147380796Y-107367828D01*
X147380796Y-107367828D02*
X147237939Y-107296400D01*
X147237939Y-107296400D02*
X147166510Y-107224971D01*
X147166510Y-107224971D02*
X147095081Y-107082114D01*
X147095081Y-107082114D02*
X147023653Y-106796400D01*
X147023653Y-106796400D02*
X147023653Y-106439257D01*
X147023653Y-106439257D02*
X147095081Y-106153542D01*
X147095081Y-106153542D02*
X147166510Y-106010685D01*
X147166510Y-106010685D02*
X147237939Y-105939257D01*
X147237939Y-105939257D02*
X147380796Y-105867828D01*
X134452225Y-108282828D02*
X135309368Y-108282828D01*
X134880796Y-109782828D02*
X134880796Y-108282828D01*
X137452224Y-108997114D02*
X136952224Y-108997114D01*
X136952224Y-109782828D02*
X136952224Y-108282828D01*
X136952224Y-108282828D02*
X137666510Y-108282828D01*
X138523653Y-108282828D02*
X138809367Y-108282828D01*
X138809367Y-108282828D02*
X138952224Y-108354257D01*
X138952224Y-108354257D02*
X139095081Y-108497114D01*
X139095081Y-108497114D02*
X139166510Y-108782828D01*
X139166510Y-108782828D02*
X139166510Y-109282828D01*
X139166510Y-109282828D02*
X139095081Y-109568542D01*
X139095081Y-109568542D02*
X138952224Y-109711400D01*
X138952224Y-109711400D02*
X138809367Y-109782828D01*
X138809367Y-109782828D02*
X138523653Y-109782828D01*
X138523653Y-109782828D02*
X138380796Y-109711400D01*
X138380796Y-109711400D02*
X138237938Y-109568542D01*
X138237938Y-109568542D02*
X138166510Y-109282828D01*
X138166510Y-109282828D02*
X138166510Y-108782828D01*
X138166510Y-108782828D02*
X138237938Y-108497114D01*
X138237938Y-108497114D02*
X138380796Y-108354257D01*
X138380796Y-108354257D02*
X138523653Y-108282828D01*
X139666510Y-108282828D02*
X140666510Y-109782828D01*
X140666510Y-108282828D02*
X139666510Y-109782828D01*
X142309367Y-108425685D02*
X142380795Y-108354257D01*
X142380795Y-108354257D02*
X142523653Y-108282828D01*
X142523653Y-108282828D02*
X142880795Y-108282828D01*
X142880795Y-108282828D02*
X143023653Y-108354257D01*
X143023653Y-108354257D02*
X143095081Y-108425685D01*
X143095081Y-108425685D02*
X143166510Y-108568542D01*
X143166510Y-108568542D02*
X143166510Y-108711400D01*
X143166510Y-108711400D02*
X143095081Y-108925685D01*
X143095081Y-108925685D02*
X142237938Y-109782828D01*
X142237938Y-109782828D02*
X143166510Y-109782828D01*
X144095081Y-108282828D02*
X144237938Y-108282828D01*
X144237938Y-108282828D02*
X144380795Y-108354257D01*
X144380795Y-108354257D02*
X144452224Y-108425685D01*
X144452224Y-108425685D02*
X144523652Y-108568542D01*
X144523652Y-108568542D02*
X144595081Y-108854257D01*
X144595081Y-108854257D02*
X144595081Y-109211400D01*
X144595081Y-109211400D02*
X144523652Y-109497114D01*
X144523652Y-109497114D02*
X144452224Y-109639971D01*
X144452224Y-109639971D02*
X144380795Y-109711400D01*
X144380795Y-109711400D02*
X144237938Y-109782828D01*
X144237938Y-109782828D02*
X144095081Y-109782828D01*
X144095081Y-109782828D02*
X143952224Y-109711400D01*
X143952224Y-109711400D02*
X143880795Y-109639971D01*
X143880795Y-109639971D02*
X143809366Y-109497114D01*
X143809366Y-109497114D02*
X143737938Y-109211400D01*
X143737938Y-109211400D02*
X143737938Y-108854257D01*
X143737938Y-108854257D02*
X143809366Y-108568542D01*
X143809366Y-108568542D02*
X143880795Y-108425685D01*
X143880795Y-108425685D02*
X143952224Y-108354257D01*
X143952224Y-108354257D02*
X144095081Y-108282828D01*
X145166509Y-108425685D02*
X145237937Y-108354257D01*
X145237937Y-108354257D02*
X145380795Y-108282828D01*
X145380795Y-108282828D02*
X145737937Y-108282828D01*
X145737937Y-108282828D02*
X145880795Y-108354257D01*
X145880795Y-108354257D02*
X145952223Y-108425685D01*
X145952223Y-108425685D02*
X146023652Y-108568542D01*
X146023652Y-108568542D02*
X146023652Y-108711400D01*
X146023652Y-108711400D02*
X145952223Y-108925685D01*
X145952223Y-108925685D02*
X145095080Y-109782828D01*
X145095080Y-109782828D02*
X146023652Y-109782828D01*
X146523651Y-108282828D02*
X147452223Y-108282828D01*
X147452223Y-108282828D02*
X146952223Y-108854257D01*
X146952223Y-108854257D02*
X147166508Y-108854257D01*
X147166508Y-108854257D02*
X147309366Y-108925685D01*
X147309366Y-108925685D02*
X147380794Y-108997114D01*
X147380794Y-108997114D02*
X147452223Y-109139971D01*
X147452223Y-109139971D02*
X147452223Y-109497114D01*
X147452223Y-109497114D02*
X147380794Y-109639971D01*
X147380794Y-109639971D02*
X147309366Y-109711400D01*
X147309366Y-109711400D02*
X147166508Y-109782828D01*
X147166508Y-109782828D02*
X146737937Y-109782828D01*
X146737937Y-109782828D02*
X146595080Y-109711400D01*
X146595080Y-109711400D02*
X146523651Y-109639971D01*
D10*
X158959064Y-87007819D02*
X158482874Y-87007819D01*
X158482874Y-87007819D02*
X158435255Y-87484009D01*
X158435255Y-87484009D02*
X158482874Y-87436390D01*
X158482874Y-87436390D02*
X158578112Y-87388771D01*
X158578112Y-87388771D02*
X158816207Y-87388771D01*
X158816207Y-87388771D02*
X158911445Y-87436390D01*
X158911445Y-87436390D02*
X158959064Y-87484009D01*
X158959064Y-87484009D02*
X159006683Y-87579247D01*
X159006683Y-87579247D02*
X159006683Y-87817342D01*
X159006683Y-87817342D02*
X158959064Y-87912580D01*
X158959064Y-87912580D02*
X158911445Y-87960200D01*
X158911445Y-87960200D02*
X158816207Y-88007819D01*
X158816207Y-88007819D02*
X158578112Y-88007819D01*
X158578112Y-88007819D02*
X158482874Y-87960200D01*
X158482874Y-87960200D02*
X158435255Y-87912580D01*
X159292398Y-87007819D02*
X159625731Y-88007819D01*
X159625731Y-88007819D02*
X159959064Y-87007819D01*
X118818180Y-95694667D02*
X117818180Y-95932762D01*
X117818180Y-95932762D02*
X118532466Y-96123238D01*
X118532466Y-96123238D02*
X117818180Y-96313714D01*
X117818180Y-96313714D02*
X118818180Y-96551810D01*
X117818180Y-96932762D02*
X118818180Y-96932762D01*
X118341990Y-96932762D02*
X118341990Y-97504190D01*
X117818180Y-97504190D02*
X118818180Y-97504190D01*
X118818180Y-97837524D02*
X118818180Y-98408952D01*
X117818180Y-98123238D02*
X118818180Y-98123238D01*
X117160561Y-96266095D02*
X117208180Y-96170857D01*
X117208180Y-96170857D02*
X117208180Y-96028000D01*
X117208180Y-96028000D02*
X117160561Y-95885143D01*
X117160561Y-95885143D02*
X117065323Y-95789905D01*
X117065323Y-95789905D02*
X116970085Y-95742286D01*
X116970085Y-95742286D02*
X116779609Y-95694667D01*
X116779609Y-95694667D02*
X116636752Y-95694667D01*
X116636752Y-95694667D02*
X116446276Y-95742286D01*
X116446276Y-95742286D02*
X116351038Y-95789905D01*
X116351038Y-95789905D02*
X116255800Y-95885143D01*
X116255800Y-95885143D02*
X116208180Y-96028000D01*
X116208180Y-96028000D02*
X116208180Y-96123238D01*
X116208180Y-96123238D02*
X116255800Y-96266095D01*
X116255800Y-96266095D02*
X116303419Y-96313714D01*
X116303419Y-96313714D02*
X116636752Y-96313714D01*
X116636752Y-96313714D02*
X116636752Y-96123238D01*
X116208180Y-96742286D02*
X117208180Y-96742286D01*
X117208180Y-96742286D02*
X116208180Y-97313714D01*
X116208180Y-97313714D02*
X117208180Y-97313714D01*
X116208180Y-97789905D02*
X117208180Y-97789905D01*
X117208180Y-97789905D02*
X117208180Y-98028000D01*
X117208180Y-98028000D02*
X117160561Y-98170857D01*
X117160561Y-98170857D02*
X117065323Y-98266095D01*
X117065323Y-98266095D02*
X116970085Y-98313714D01*
X116970085Y-98313714D02*
X116779609Y-98361333D01*
X116779609Y-98361333D02*
X116636752Y-98361333D01*
X116636752Y-98361333D02*
X116446276Y-98313714D01*
X116446276Y-98313714D02*
X116351038Y-98266095D01*
X116351038Y-98266095D02*
X116255800Y-98170857D01*
X116255800Y-98170857D02*
X116208180Y-98028000D01*
X116208180Y-98028000D02*
X116208180Y-97789905D01*
X156673350Y-93087819D02*
X156197160Y-93087819D01*
X156197160Y-93087819D02*
X156197160Y-92087819D01*
X157006684Y-93087819D02*
X157006684Y-92087819D01*
X158006683Y-92135438D02*
X157911445Y-92087819D01*
X157911445Y-92087819D02*
X157768588Y-92087819D01*
X157768588Y-92087819D02*
X157625731Y-92135438D01*
X157625731Y-92135438D02*
X157530493Y-92230676D01*
X157530493Y-92230676D02*
X157482874Y-92325914D01*
X157482874Y-92325914D02*
X157435255Y-92516390D01*
X157435255Y-92516390D02*
X157435255Y-92659247D01*
X157435255Y-92659247D02*
X157482874Y-92849723D01*
X157482874Y-92849723D02*
X157530493Y-92944961D01*
X157530493Y-92944961D02*
X157625731Y-93040200D01*
X157625731Y-93040200D02*
X157768588Y-93087819D01*
X157768588Y-93087819D02*
X157863826Y-93087819D01*
X157863826Y-93087819D02*
X158006683Y-93040200D01*
X158006683Y-93040200D02*
X158054302Y-92992580D01*
X158054302Y-92992580D02*
X158054302Y-92659247D01*
X158054302Y-92659247D02*
X157863826Y-92659247D01*
X158482874Y-93087819D02*
X158482874Y-92087819D01*
X158482874Y-92564009D02*
X159054302Y-92564009D01*
X159054302Y-93087819D02*
X159054302Y-92087819D01*
X159387636Y-92087819D02*
X159959064Y-92087819D01*
X159673350Y-93087819D02*
X159673350Y-92087819D01*
X157990683Y-85467819D02*
X157419255Y-85467819D01*
X157704969Y-85467819D02*
X157704969Y-84467819D01*
X157704969Y-84467819D02*
X157609731Y-84610676D01*
X157609731Y-84610676D02*
X157514493Y-84705914D01*
X157514493Y-84705914D02*
X157419255Y-84753533D01*
X158371636Y-84563057D02*
X158419255Y-84515438D01*
X158419255Y-84515438D02*
X158514493Y-84467819D01*
X158514493Y-84467819D02*
X158752588Y-84467819D01*
X158752588Y-84467819D02*
X158847826Y-84515438D01*
X158847826Y-84515438D02*
X158895445Y-84563057D01*
X158895445Y-84563057D02*
X158943064Y-84658295D01*
X158943064Y-84658295D02*
X158943064Y-84753533D01*
X158943064Y-84753533D02*
X158895445Y-84896390D01*
X158895445Y-84896390D02*
X158324017Y-85467819D01*
X158324017Y-85467819D02*
X158943064Y-85467819D01*
X159228779Y-84467819D02*
X159562112Y-85467819D01*
X159562112Y-85467819D02*
X159895445Y-84467819D01*
X156197160Y-103247819D02*
X156197160Y-102247819D01*
X156197160Y-102247819D02*
X156435255Y-102247819D01*
X156435255Y-102247819D02*
X156578112Y-102295438D01*
X156578112Y-102295438D02*
X156673350Y-102390676D01*
X156673350Y-102390676D02*
X156720969Y-102485914D01*
X156720969Y-102485914D02*
X156768588Y-102676390D01*
X156768588Y-102676390D02*
X156768588Y-102819247D01*
X156768588Y-102819247D02*
X156720969Y-103009723D01*
X156720969Y-103009723D02*
X156673350Y-103104961D01*
X156673350Y-103104961D02*
X156578112Y-103200200D01*
X156578112Y-103200200D02*
X156435255Y-103247819D01*
X156435255Y-103247819D02*
X156197160Y-103247819D01*
X157387636Y-102247819D02*
X157578112Y-102247819D01*
X157578112Y-102247819D02*
X157673350Y-102295438D01*
X157673350Y-102295438D02*
X157768588Y-102390676D01*
X157768588Y-102390676D02*
X157816207Y-102581152D01*
X157816207Y-102581152D02*
X157816207Y-102914485D01*
X157816207Y-102914485D02*
X157768588Y-103104961D01*
X157768588Y-103104961D02*
X157673350Y-103200200D01*
X157673350Y-103200200D02*
X157578112Y-103247819D01*
X157578112Y-103247819D02*
X157387636Y-103247819D01*
X157387636Y-103247819D02*
X157292398Y-103200200D01*
X157292398Y-103200200D02*
X157197160Y-103104961D01*
X157197160Y-103104961D02*
X157149541Y-102914485D01*
X157149541Y-102914485D02*
X157149541Y-102581152D01*
X157149541Y-102581152D02*
X157197160Y-102390676D01*
X157197160Y-102390676D02*
X157292398Y-102295438D01*
X157292398Y-102295438D02*
X157387636Y-102247819D01*
X158435255Y-102247819D02*
X158625731Y-102247819D01*
X158625731Y-102247819D02*
X158720969Y-102295438D01*
X158720969Y-102295438D02*
X158816207Y-102390676D01*
X158816207Y-102390676D02*
X158863826Y-102581152D01*
X158863826Y-102581152D02*
X158863826Y-102914485D01*
X158863826Y-102914485D02*
X158816207Y-103104961D01*
X158816207Y-103104961D02*
X158720969Y-103200200D01*
X158720969Y-103200200D02*
X158625731Y-103247819D01*
X158625731Y-103247819D02*
X158435255Y-103247819D01*
X158435255Y-103247819D02*
X158340017Y-103200200D01*
X158340017Y-103200200D02*
X158244779Y-103104961D01*
X158244779Y-103104961D02*
X158197160Y-102914485D01*
X158197160Y-102914485D02*
X158197160Y-102581152D01*
X158197160Y-102581152D02*
X158244779Y-102390676D01*
X158244779Y-102390676D02*
X158340017Y-102295438D01*
X158340017Y-102295438D02*
X158435255Y-102247819D01*
X159863826Y-103247819D02*
X159530493Y-102771628D01*
X159292398Y-103247819D02*
X159292398Y-102247819D01*
X159292398Y-102247819D02*
X159673350Y-102247819D01*
X159673350Y-102247819D02*
X159768588Y-102295438D01*
X159768588Y-102295438D02*
X159816207Y-102343057D01*
X159816207Y-102343057D02*
X159863826Y-102438295D01*
X159863826Y-102438295D02*
X159863826Y-102581152D01*
X159863826Y-102581152D02*
X159816207Y-102676390D01*
X159816207Y-102676390D02*
X159768588Y-102724009D01*
X159768588Y-102724009D02*
X159673350Y-102771628D01*
X159673350Y-102771628D02*
X159292398Y-102771628D01*
X117160561Y-113030095D02*
X117208180Y-112934857D01*
X117208180Y-112934857D02*
X117208180Y-112792000D01*
X117208180Y-112792000D02*
X117160561Y-112649143D01*
X117160561Y-112649143D02*
X117065323Y-112553905D01*
X117065323Y-112553905D02*
X116970085Y-112506286D01*
X116970085Y-112506286D02*
X116779609Y-112458667D01*
X116779609Y-112458667D02*
X116636752Y-112458667D01*
X116636752Y-112458667D02*
X116446276Y-112506286D01*
X116446276Y-112506286D02*
X116351038Y-112553905D01*
X116351038Y-112553905D02*
X116255800Y-112649143D01*
X116255800Y-112649143D02*
X116208180Y-112792000D01*
X116208180Y-112792000D02*
X116208180Y-112887238D01*
X116208180Y-112887238D02*
X116255800Y-113030095D01*
X116255800Y-113030095D02*
X116303419Y-113077714D01*
X116303419Y-113077714D02*
X116636752Y-113077714D01*
X116636752Y-113077714D02*
X116636752Y-112887238D01*
X116208180Y-113506286D02*
X117208180Y-113506286D01*
X117208180Y-113506286D02*
X116208180Y-114077714D01*
X116208180Y-114077714D02*
X117208180Y-114077714D01*
X116208180Y-114553905D02*
X117208180Y-114553905D01*
X117208180Y-114553905D02*
X117208180Y-114792000D01*
X117208180Y-114792000D02*
X117160561Y-114934857D01*
X117160561Y-114934857D02*
X117065323Y-115030095D01*
X117065323Y-115030095D02*
X116970085Y-115077714D01*
X116970085Y-115077714D02*
X116779609Y-115125333D01*
X116779609Y-115125333D02*
X116636752Y-115125333D01*
X116636752Y-115125333D02*
X116446276Y-115077714D01*
X116446276Y-115077714D02*
X116351038Y-115030095D01*
X116351038Y-115030095D02*
X116255800Y-114934857D01*
X116255800Y-114934857D02*
X116208180Y-114792000D01*
X116208180Y-114792000D02*
X116208180Y-114553905D01*
X153149541Y-110121819D02*
X153387636Y-111121819D01*
X153387636Y-111121819D02*
X153578112Y-110407533D01*
X153578112Y-110407533D02*
X153768588Y-111121819D01*
X153768588Y-111121819D02*
X154006684Y-110121819D01*
X154387636Y-111121819D02*
X154387636Y-110121819D01*
X154387636Y-110598009D02*
X154959064Y-110598009D01*
X154959064Y-111121819D02*
X154959064Y-110121819D01*
X155292398Y-110121819D02*
X155863826Y-110121819D01*
X155578112Y-111121819D02*
X155578112Y-110121819D01*
X156911445Y-110074200D02*
X156054303Y-111359914D01*
X157768588Y-110169438D02*
X157673350Y-110121819D01*
X157673350Y-110121819D02*
X157530493Y-110121819D01*
X157530493Y-110121819D02*
X157387636Y-110169438D01*
X157387636Y-110169438D02*
X157292398Y-110264676D01*
X157292398Y-110264676D02*
X157244779Y-110359914D01*
X157244779Y-110359914D02*
X157197160Y-110550390D01*
X157197160Y-110550390D02*
X157197160Y-110693247D01*
X157197160Y-110693247D02*
X157244779Y-110883723D01*
X157244779Y-110883723D02*
X157292398Y-110978961D01*
X157292398Y-110978961D02*
X157387636Y-111074200D01*
X157387636Y-111074200D02*
X157530493Y-111121819D01*
X157530493Y-111121819D02*
X157625731Y-111121819D01*
X157625731Y-111121819D02*
X157768588Y-111074200D01*
X157768588Y-111074200D02*
X157816207Y-111026580D01*
X157816207Y-111026580D02*
X157816207Y-110693247D01*
X157816207Y-110693247D02*
X157625731Y-110693247D01*
X158244779Y-111121819D02*
X158244779Y-110121819D01*
X158244779Y-110121819D02*
X158816207Y-111121819D01*
X158816207Y-111121819D02*
X158816207Y-110121819D01*
X159292398Y-111121819D02*
X159292398Y-110121819D01*
X159292398Y-110121819D02*
X159530493Y-110121819D01*
X159530493Y-110121819D02*
X159673350Y-110169438D01*
X159673350Y-110169438D02*
X159768588Y-110264676D01*
X159768588Y-110264676D02*
X159816207Y-110359914D01*
X159816207Y-110359914D02*
X159863826Y-110550390D01*
X159863826Y-110550390D02*
X159863826Y-110693247D01*
X159863826Y-110693247D02*
X159816207Y-110883723D01*
X159816207Y-110883723D02*
X159768588Y-110978961D01*
X159768588Y-110978961D02*
X159673350Y-111074200D01*
X159673350Y-111074200D02*
X159530493Y-111121819D01*
X159530493Y-111121819D02*
X159292398Y-111121819D01*
X157435255Y-89547819D02*
X158054302Y-89547819D01*
X158054302Y-89547819D02*
X157720969Y-89928771D01*
X157720969Y-89928771D02*
X157863826Y-89928771D01*
X157863826Y-89928771D02*
X157959064Y-89976390D01*
X157959064Y-89976390D02*
X158006683Y-90024009D01*
X158006683Y-90024009D02*
X158054302Y-90119247D01*
X158054302Y-90119247D02*
X158054302Y-90357342D01*
X158054302Y-90357342D02*
X158006683Y-90452580D01*
X158006683Y-90452580D02*
X157959064Y-90500200D01*
X157959064Y-90500200D02*
X157863826Y-90547819D01*
X157863826Y-90547819D02*
X157578112Y-90547819D01*
X157578112Y-90547819D02*
X157482874Y-90500200D01*
X157482874Y-90500200D02*
X157435255Y-90452580D01*
X158340017Y-89547819D02*
X158673350Y-90547819D01*
X158673350Y-90547819D02*
X159006683Y-89547819D01*
X159244779Y-89547819D02*
X159863826Y-89547819D01*
X159863826Y-89547819D02*
X159530493Y-89928771D01*
X159530493Y-89928771D02*
X159673350Y-89928771D01*
X159673350Y-89928771D02*
X159768588Y-89976390D01*
X159768588Y-89976390D02*
X159816207Y-90024009D01*
X159816207Y-90024009D02*
X159863826Y-90119247D01*
X159863826Y-90119247D02*
X159863826Y-90357342D01*
X159863826Y-90357342D02*
X159816207Y-90452580D01*
X159816207Y-90452580D02*
X159768588Y-90500200D01*
X159768588Y-90500200D02*
X159673350Y-90547819D01*
X159673350Y-90547819D02*
X159387636Y-90547819D01*
X159387636Y-90547819D02*
X159292398Y-90500200D01*
X159292398Y-90500200D02*
X159244779Y-90452580D01*
X156482874Y-97421819D02*
X156673350Y-97421819D01*
X156673350Y-97421819D02*
X156768588Y-97469438D01*
X156768588Y-97469438D02*
X156863826Y-97564676D01*
X156863826Y-97564676D02*
X156911445Y-97755152D01*
X156911445Y-97755152D02*
X156911445Y-98088485D01*
X156911445Y-98088485D02*
X156863826Y-98278961D01*
X156863826Y-98278961D02*
X156768588Y-98374200D01*
X156768588Y-98374200D02*
X156673350Y-98421819D01*
X156673350Y-98421819D02*
X156482874Y-98421819D01*
X156482874Y-98421819D02*
X156387636Y-98374200D01*
X156387636Y-98374200D02*
X156292398Y-98278961D01*
X156292398Y-98278961D02*
X156244779Y-98088485D01*
X156244779Y-98088485D02*
X156244779Y-97755152D01*
X156244779Y-97755152D02*
X156292398Y-97564676D01*
X156292398Y-97564676D02*
X156387636Y-97469438D01*
X156387636Y-97469438D02*
X156482874Y-97421819D01*
X157340017Y-98421819D02*
X157340017Y-97421819D01*
X157340017Y-97421819D02*
X157720969Y-97421819D01*
X157720969Y-97421819D02*
X157816207Y-97469438D01*
X157816207Y-97469438D02*
X157863826Y-97517057D01*
X157863826Y-97517057D02*
X157911445Y-97612295D01*
X157911445Y-97612295D02*
X157911445Y-97755152D01*
X157911445Y-97755152D02*
X157863826Y-97850390D01*
X157863826Y-97850390D02*
X157816207Y-97898009D01*
X157816207Y-97898009D02*
X157720969Y-97945628D01*
X157720969Y-97945628D02*
X157340017Y-97945628D01*
X158340017Y-97898009D02*
X158673350Y-97898009D01*
X158816207Y-98421819D02*
X158340017Y-98421819D01*
X158340017Y-98421819D02*
X158340017Y-97421819D01*
X158340017Y-97421819D02*
X158816207Y-97421819D01*
X159244779Y-98421819D02*
X159244779Y-97421819D01*
X159244779Y-97421819D02*
X159816207Y-98421819D01*
X159816207Y-98421819D02*
X159816207Y-97421819D01*
X153006683Y-105264009D02*
X153149540Y-105311628D01*
X153149540Y-105311628D02*
X153197159Y-105359247D01*
X153197159Y-105359247D02*
X153244778Y-105454485D01*
X153244778Y-105454485D02*
X153244778Y-105597342D01*
X153244778Y-105597342D02*
X153197159Y-105692580D01*
X153197159Y-105692580D02*
X153149540Y-105740200D01*
X153149540Y-105740200D02*
X153054302Y-105787819D01*
X153054302Y-105787819D02*
X152673350Y-105787819D01*
X152673350Y-105787819D02*
X152673350Y-104787819D01*
X152673350Y-104787819D02*
X153006683Y-104787819D01*
X153006683Y-104787819D02*
X153101921Y-104835438D01*
X153101921Y-104835438D02*
X153149540Y-104883057D01*
X153149540Y-104883057D02*
X153197159Y-104978295D01*
X153197159Y-104978295D02*
X153197159Y-105073533D01*
X153197159Y-105073533D02*
X153149540Y-105168771D01*
X153149540Y-105168771D02*
X153101921Y-105216390D01*
X153101921Y-105216390D02*
X153006683Y-105264009D01*
X153006683Y-105264009D02*
X152673350Y-105264009D01*
X154149540Y-105787819D02*
X153673350Y-105787819D01*
X153673350Y-105787819D02*
X153673350Y-104787819D01*
X154482874Y-105787819D02*
X154482874Y-104787819D01*
X155054302Y-105787819D02*
X154625731Y-105216390D01*
X155054302Y-104787819D02*
X154482874Y-105359247D01*
X156197159Y-104740200D02*
X155340017Y-106025914D01*
X156720969Y-104787819D02*
X156911445Y-104787819D01*
X156911445Y-104787819D02*
X157006683Y-104835438D01*
X157006683Y-104835438D02*
X157101921Y-104930676D01*
X157101921Y-104930676D02*
X157149540Y-105121152D01*
X157149540Y-105121152D02*
X157149540Y-105454485D01*
X157149540Y-105454485D02*
X157101921Y-105644961D01*
X157101921Y-105644961D02*
X157006683Y-105740200D01*
X157006683Y-105740200D02*
X156911445Y-105787819D01*
X156911445Y-105787819D02*
X156720969Y-105787819D01*
X156720969Y-105787819D02*
X156625731Y-105740200D01*
X156625731Y-105740200D02*
X156530493Y-105644961D01*
X156530493Y-105644961D02*
X156482874Y-105454485D01*
X156482874Y-105454485D02*
X156482874Y-105121152D01*
X156482874Y-105121152D02*
X156530493Y-104930676D01*
X156530493Y-104930676D02*
X156625731Y-104835438D01*
X156625731Y-104835438D02*
X156720969Y-104787819D01*
X157911445Y-105264009D02*
X158054302Y-105311628D01*
X158054302Y-105311628D02*
X158101921Y-105359247D01*
X158101921Y-105359247D02*
X158149540Y-105454485D01*
X158149540Y-105454485D02*
X158149540Y-105597342D01*
X158149540Y-105597342D02*
X158101921Y-105692580D01*
X158101921Y-105692580D02*
X158054302Y-105740200D01*
X158054302Y-105740200D02*
X157959064Y-105787819D01*
X157959064Y-105787819D02*
X157578112Y-105787819D01*
X157578112Y-105787819D02*
X157578112Y-104787819D01*
X157578112Y-104787819D02*
X157911445Y-104787819D01*
X157911445Y-104787819D02*
X158006683Y-104835438D01*
X158006683Y-104835438D02*
X158054302Y-104883057D01*
X158054302Y-104883057D02*
X158101921Y-104978295D01*
X158101921Y-104978295D02*
X158101921Y-105073533D01*
X158101921Y-105073533D02*
X158054302Y-105168771D01*
X158054302Y-105168771D02*
X158006683Y-105216390D01*
X158006683Y-105216390D02*
X157911445Y-105264009D01*
X157911445Y-105264009D02*
X157578112Y-105264009D01*
X158530493Y-105740200D02*
X158673350Y-105787819D01*
X158673350Y-105787819D02*
X158911445Y-105787819D01*
X158911445Y-105787819D02*
X159006683Y-105740200D01*
X159006683Y-105740200D02*
X159054302Y-105692580D01*
X159054302Y-105692580D02*
X159101921Y-105597342D01*
X159101921Y-105597342D02*
X159101921Y-105502104D01*
X159101921Y-105502104D02*
X159054302Y-105406866D01*
X159054302Y-105406866D02*
X159006683Y-105359247D01*
X159006683Y-105359247D02*
X158911445Y-105311628D01*
X158911445Y-105311628D02*
X158720969Y-105264009D01*
X158720969Y-105264009D02*
X158625731Y-105216390D01*
X158625731Y-105216390D02*
X158578112Y-105168771D01*
X158578112Y-105168771D02*
X158530493Y-105073533D01*
X158530493Y-105073533D02*
X158530493Y-104978295D01*
X158530493Y-104978295D02*
X158578112Y-104883057D01*
X158578112Y-104883057D02*
X158625731Y-104835438D01*
X158625731Y-104835438D02*
X158720969Y-104787819D01*
X158720969Y-104787819D02*
X158959064Y-104787819D01*
X158959064Y-104787819D02*
X159101921Y-104835438D01*
X159387636Y-104787819D02*
X159959064Y-104787819D01*
X159673350Y-105787819D02*
X159673350Y-104787819D01*
X118341990Y-106354666D02*
X118294371Y-106497523D01*
X118294371Y-106497523D02*
X118246752Y-106545142D01*
X118246752Y-106545142D02*
X118151514Y-106592761D01*
X118151514Y-106592761D02*
X118008657Y-106592761D01*
X118008657Y-106592761D02*
X117913419Y-106545142D01*
X117913419Y-106545142D02*
X117865800Y-106497523D01*
X117865800Y-106497523D02*
X117818180Y-106402285D01*
X117818180Y-106402285D02*
X117818180Y-106021333D01*
X117818180Y-106021333D02*
X118818180Y-106021333D01*
X118818180Y-106021333D02*
X118818180Y-106354666D01*
X118818180Y-106354666D02*
X118770561Y-106449904D01*
X118770561Y-106449904D02*
X118722942Y-106497523D01*
X118722942Y-106497523D02*
X118627704Y-106545142D01*
X118627704Y-106545142D02*
X118532466Y-106545142D01*
X118532466Y-106545142D02*
X118437228Y-106497523D01*
X118437228Y-106497523D02*
X118389609Y-106449904D01*
X118389609Y-106449904D02*
X118341990Y-106354666D01*
X118341990Y-106354666D02*
X118341990Y-106021333D01*
X117818180Y-107497523D02*
X117818180Y-107021333D01*
X117818180Y-107021333D02*
X118818180Y-107021333D01*
X117818180Y-107830857D02*
X118818180Y-107830857D01*
X117818180Y-108402285D02*
X118389609Y-107973714D01*
X118818180Y-108402285D02*
X118246752Y-107830857D01*
X117208180Y-105735619D02*
X117208180Y-105926095D01*
X117208180Y-105926095D02*
X117160561Y-106021333D01*
X117160561Y-106021333D02*
X117065323Y-106116571D01*
X117065323Y-106116571D02*
X116874847Y-106164190D01*
X116874847Y-106164190D02*
X116541514Y-106164190D01*
X116541514Y-106164190D02*
X116351038Y-106116571D01*
X116351038Y-106116571D02*
X116255800Y-106021333D01*
X116255800Y-106021333D02*
X116208180Y-105926095D01*
X116208180Y-105926095D02*
X116208180Y-105735619D01*
X116208180Y-105735619D02*
X116255800Y-105640381D01*
X116255800Y-105640381D02*
X116351038Y-105545143D01*
X116351038Y-105545143D02*
X116541514Y-105497524D01*
X116541514Y-105497524D02*
X116874847Y-105497524D01*
X116874847Y-105497524D02*
X117065323Y-105545143D01*
X117065323Y-105545143D02*
X117160561Y-105640381D01*
X117160561Y-105640381D02*
X117208180Y-105735619D01*
X116731990Y-106926095D02*
X116684371Y-107068952D01*
X116684371Y-107068952D02*
X116636752Y-107116571D01*
X116636752Y-107116571D02*
X116541514Y-107164190D01*
X116541514Y-107164190D02*
X116398657Y-107164190D01*
X116398657Y-107164190D02*
X116303419Y-107116571D01*
X116303419Y-107116571D02*
X116255800Y-107068952D01*
X116255800Y-107068952D02*
X116208180Y-106973714D01*
X116208180Y-106973714D02*
X116208180Y-106592762D01*
X116208180Y-106592762D02*
X117208180Y-106592762D01*
X117208180Y-106592762D02*
X117208180Y-106926095D01*
X117208180Y-106926095D02*
X117160561Y-107021333D01*
X117160561Y-107021333D02*
X117112942Y-107068952D01*
X117112942Y-107068952D02*
X117017704Y-107116571D01*
X117017704Y-107116571D02*
X116922466Y-107116571D01*
X116922466Y-107116571D02*
X116827228Y-107068952D01*
X116827228Y-107068952D02*
X116779609Y-107021333D01*
X116779609Y-107021333D02*
X116731990Y-106926095D01*
X116731990Y-106926095D02*
X116731990Y-106592762D01*
X116255800Y-107545143D02*
X116208180Y-107688000D01*
X116208180Y-107688000D02*
X116208180Y-107926095D01*
X116208180Y-107926095D02*
X116255800Y-108021333D01*
X116255800Y-108021333D02*
X116303419Y-108068952D01*
X116303419Y-108068952D02*
X116398657Y-108116571D01*
X116398657Y-108116571D02*
X116493895Y-108116571D01*
X116493895Y-108116571D02*
X116589133Y-108068952D01*
X116589133Y-108068952D02*
X116636752Y-108021333D01*
X116636752Y-108021333D02*
X116684371Y-107926095D01*
X116684371Y-107926095D02*
X116731990Y-107735619D01*
X116731990Y-107735619D02*
X116779609Y-107640381D01*
X116779609Y-107640381D02*
X116827228Y-107592762D01*
X116827228Y-107592762D02*
X116922466Y-107545143D01*
X116922466Y-107545143D02*
X117017704Y-107545143D01*
X117017704Y-107545143D02*
X117112942Y-107592762D01*
X117112942Y-107592762D02*
X117160561Y-107640381D01*
X117160561Y-107640381D02*
X117208180Y-107735619D01*
X117208180Y-107735619D02*
X117208180Y-107973714D01*
X117208180Y-107973714D02*
X117160561Y-108116571D01*
X117208180Y-108402286D02*
X117208180Y-108973714D01*
X116208180Y-108688000D02*
X117208180Y-108688000D01*
X156720969Y-99707819D02*
X156911445Y-99707819D01*
X156911445Y-99707819D02*
X157006683Y-99755438D01*
X157006683Y-99755438D02*
X157101921Y-99850676D01*
X157101921Y-99850676D02*
X157149540Y-100041152D01*
X157149540Y-100041152D02*
X157149540Y-100374485D01*
X157149540Y-100374485D02*
X157101921Y-100564961D01*
X157101921Y-100564961D02*
X157006683Y-100660200D01*
X157006683Y-100660200D02*
X156911445Y-100707819D01*
X156911445Y-100707819D02*
X156720969Y-100707819D01*
X156720969Y-100707819D02*
X156625731Y-100660200D01*
X156625731Y-100660200D02*
X156530493Y-100564961D01*
X156530493Y-100564961D02*
X156482874Y-100374485D01*
X156482874Y-100374485D02*
X156482874Y-100041152D01*
X156482874Y-100041152D02*
X156530493Y-99850676D01*
X156530493Y-99850676D02*
X156625731Y-99755438D01*
X156625731Y-99755438D02*
X156720969Y-99707819D01*
X157911445Y-100184009D02*
X158054302Y-100231628D01*
X158054302Y-100231628D02*
X158101921Y-100279247D01*
X158101921Y-100279247D02*
X158149540Y-100374485D01*
X158149540Y-100374485D02*
X158149540Y-100517342D01*
X158149540Y-100517342D02*
X158101921Y-100612580D01*
X158101921Y-100612580D02*
X158054302Y-100660200D01*
X158054302Y-100660200D02*
X157959064Y-100707819D01*
X157959064Y-100707819D02*
X157578112Y-100707819D01*
X157578112Y-100707819D02*
X157578112Y-99707819D01*
X157578112Y-99707819D02*
X157911445Y-99707819D01*
X157911445Y-99707819D02*
X158006683Y-99755438D01*
X158006683Y-99755438D02*
X158054302Y-99803057D01*
X158054302Y-99803057D02*
X158101921Y-99898295D01*
X158101921Y-99898295D02*
X158101921Y-99993533D01*
X158101921Y-99993533D02*
X158054302Y-100088771D01*
X158054302Y-100088771D02*
X158006683Y-100136390D01*
X158006683Y-100136390D02*
X157911445Y-100184009D01*
X157911445Y-100184009D02*
X157578112Y-100184009D01*
X158530493Y-100660200D02*
X158673350Y-100707819D01*
X158673350Y-100707819D02*
X158911445Y-100707819D01*
X158911445Y-100707819D02*
X159006683Y-100660200D01*
X159006683Y-100660200D02*
X159054302Y-100612580D01*
X159054302Y-100612580D02*
X159101921Y-100517342D01*
X159101921Y-100517342D02*
X159101921Y-100422104D01*
X159101921Y-100422104D02*
X159054302Y-100326866D01*
X159054302Y-100326866D02*
X159006683Y-100279247D01*
X159006683Y-100279247D02*
X158911445Y-100231628D01*
X158911445Y-100231628D02*
X158720969Y-100184009D01*
X158720969Y-100184009D02*
X158625731Y-100136390D01*
X158625731Y-100136390D02*
X158578112Y-100088771D01*
X158578112Y-100088771D02*
X158530493Y-99993533D01*
X158530493Y-99993533D02*
X158530493Y-99898295D01*
X158530493Y-99898295D02*
X158578112Y-99803057D01*
X158578112Y-99803057D02*
X158625731Y-99755438D01*
X158625731Y-99755438D02*
X158720969Y-99707819D01*
X158720969Y-99707819D02*
X158959064Y-99707819D01*
X158959064Y-99707819D02*
X159101921Y-99755438D01*
X159387636Y-99707819D02*
X159959064Y-99707819D01*
X159673350Y-100707819D02*
X159673350Y-99707819D01*
X156149540Y-95532580D02*
X156101921Y-95580200D01*
X156101921Y-95580200D02*
X155959064Y-95627819D01*
X155959064Y-95627819D02*
X155863826Y-95627819D01*
X155863826Y-95627819D02*
X155720969Y-95580200D01*
X155720969Y-95580200D02*
X155625731Y-95484961D01*
X155625731Y-95484961D02*
X155578112Y-95389723D01*
X155578112Y-95389723D02*
X155530493Y-95199247D01*
X155530493Y-95199247D02*
X155530493Y-95056390D01*
X155530493Y-95056390D02*
X155578112Y-94865914D01*
X155578112Y-94865914D02*
X155625731Y-94770676D01*
X155625731Y-94770676D02*
X155720969Y-94675438D01*
X155720969Y-94675438D02*
X155863826Y-94627819D01*
X155863826Y-94627819D02*
X155959064Y-94627819D01*
X155959064Y-94627819D02*
X156101921Y-94675438D01*
X156101921Y-94675438D02*
X156149540Y-94723057D01*
X157054302Y-95627819D02*
X156578112Y-95627819D01*
X156578112Y-95627819D02*
X156578112Y-94627819D01*
X157578112Y-94627819D02*
X157768588Y-94627819D01*
X157768588Y-94627819D02*
X157863826Y-94675438D01*
X157863826Y-94675438D02*
X157959064Y-94770676D01*
X157959064Y-94770676D02*
X158006683Y-94961152D01*
X158006683Y-94961152D02*
X158006683Y-95294485D01*
X158006683Y-95294485D02*
X157959064Y-95484961D01*
X157959064Y-95484961D02*
X157863826Y-95580200D01*
X157863826Y-95580200D02*
X157768588Y-95627819D01*
X157768588Y-95627819D02*
X157578112Y-95627819D01*
X157578112Y-95627819D02*
X157482874Y-95580200D01*
X157482874Y-95580200D02*
X157387636Y-95484961D01*
X157387636Y-95484961D02*
X157340017Y-95294485D01*
X157340017Y-95294485D02*
X157340017Y-94961152D01*
X157340017Y-94961152D02*
X157387636Y-94770676D01*
X157387636Y-94770676D02*
X157482874Y-94675438D01*
X157482874Y-94675438D02*
X157578112Y-94627819D01*
X158387636Y-95580200D02*
X158530493Y-95627819D01*
X158530493Y-95627819D02*
X158768588Y-95627819D01*
X158768588Y-95627819D02*
X158863826Y-95580200D01*
X158863826Y-95580200D02*
X158911445Y-95532580D01*
X158911445Y-95532580D02*
X158959064Y-95437342D01*
X158959064Y-95437342D02*
X158959064Y-95342104D01*
X158959064Y-95342104D02*
X158911445Y-95246866D01*
X158911445Y-95246866D02*
X158863826Y-95199247D01*
X158863826Y-95199247D02*
X158768588Y-95151628D01*
X158768588Y-95151628D02*
X158578112Y-95104009D01*
X158578112Y-95104009D02*
X158482874Y-95056390D01*
X158482874Y-95056390D02*
X158435255Y-95008771D01*
X158435255Y-95008771D02*
X158387636Y-94913533D01*
X158387636Y-94913533D02*
X158387636Y-94818295D01*
X158387636Y-94818295D02*
X158435255Y-94723057D01*
X158435255Y-94723057D02*
X158482874Y-94675438D01*
X158482874Y-94675438D02*
X158578112Y-94627819D01*
X158578112Y-94627819D02*
X158816207Y-94627819D01*
X158816207Y-94627819D02*
X158959064Y-94675438D01*
X159387636Y-95104009D02*
X159720969Y-95104009D01*
X159863826Y-95627819D02*
X159387636Y-95627819D01*
X159387636Y-95627819D02*
X159387636Y-94627819D01*
X159387636Y-94627819D02*
X159863826Y-94627819D01*
X160869333Y-71574819D02*
X160536000Y-71098628D01*
X160297905Y-71574819D02*
X160297905Y-70574819D01*
X160297905Y-70574819D02*
X160678857Y-70574819D01*
X160678857Y-70574819D02*
X160774095Y-70622438D01*
X160774095Y-70622438D02*
X160821714Y-70670057D01*
X160821714Y-70670057D02*
X160869333Y-70765295D01*
X160869333Y-70765295D02*
X160869333Y-70908152D01*
X160869333Y-70908152D02*
X160821714Y-71003390D01*
X160821714Y-71003390D02*
X160774095Y-71051009D01*
X160774095Y-71051009D02*
X160678857Y-71098628D01*
X160678857Y-71098628D02*
X160297905Y-71098628D01*
X161440762Y-71003390D02*
X161345524Y-70955771D01*
X161345524Y-70955771D02*
X161297905Y-70908152D01*
X161297905Y-70908152D02*
X161250286Y-70812914D01*
X161250286Y-70812914D02*
X161250286Y-70765295D01*
X161250286Y-70765295D02*
X161297905Y-70670057D01*
X161297905Y-70670057D02*
X161345524Y-70622438D01*
X161345524Y-70622438D02*
X161440762Y-70574819D01*
X161440762Y-70574819D02*
X161631238Y-70574819D01*
X161631238Y-70574819D02*
X161726476Y-70622438D01*
X161726476Y-70622438D02*
X161774095Y-70670057D01*
X161774095Y-70670057D02*
X161821714Y-70765295D01*
X161821714Y-70765295D02*
X161821714Y-70812914D01*
X161821714Y-70812914D02*
X161774095Y-70908152D01*
X161774095Y-70908152D02*
X161726476Y-70955771D01*
X161726476Y-70955771D02*
X161631238Y-71003390D01*
X161631238Y-71003390D02*
X161440762Y-71003390D01*
X161440762Y-71003390D02*
X161345524Y-71051009D01*
X161345524Y-71051009D02*
X161297905Y-71098628D01*
X161297905Y-71098628D02*
X161250286Y-71193866D01*
X161250286Y-71193866D02*
X161250286Y-71384342D01*
X161250286Y-71384342D02*
X161297905Y-71479580D01*
X161297905Y-71479580D02*
X161345524Y-71527200D01*
X161345524Y-71527200D02*
X161440762Y-71574819D01*
X161440762Y-71574819D02*
X161631238Y-71574819D01*
X161631238Y-71574819D02*
X161726476Y-71527200D01*
X161726476Y-71527200D02*
X161774095Y-71479580D01*
X161774095Y-71479580D02*
X161821714Y-71384342D01*
X161821714Y-71384342D02*
X161821714Y-71193866D01*
X161821714Y-71193866D02*
X161774095Y-71098628D01*
X161774095Y-71098628D02*
X161726476Y-71051009D01*
X161726476Y-71051009D02*
X161631238Y-71003390D01*
X162663333Y-82242819D02*
X162330000Y-81766628D01*
X162091905Y-82242819D02*
X162091905Y-81242819D01*
X162091905Y-81242819D02*
X162472857Y-81242819D01*
X162472857Y-81242819D02*
X162568095Y-81290438D01*
X162568095Y-81290438D02*
X162615714Y-81338057D01*
X162615714Y-81338057D02*
X162663333Y-81433295D01*
X162663333Y-81433295D02*
X162663333Y-81576152D01*
X162663333Y-81576152D02*
X162615714Y-81671390D01*
X162615714Y-81671390D02*
X162568095Y-81719009D01*
X162568095Y-81719009D02*
X162472857Y-81766628D01*
X162472857Y-81766628D02*
X162091905Y-81766628D01*
X162996667Y-81242819D02*
X163663333Y-81242819D01*
X163663333Y-81242819D02*
X163234762Y-82242819D01*
X132421333Y-104626819D02*
X132088000Y-104150628D01*
X131849905Y-104626819D02*
X131849905Y-103626819D01*
X131849905Y-103626819D02*
X132230857Y-103626819D01*
X132230857Y-103626819D02*
X132326095Y-103674438D01*
X132326095Y-103674438D02*
X132373714Y-103722057D01*
X132373714Y-103722057D02*
X132421333Y-103817295D01*
X132421333Y-103817295D02*
X132421333Y-103960152D01*
X132421333Y-103960152D02*
X132373714Y-104055390D01*
X132373714Y-104055390D02*
X132326095Y-104103009D01*
X132326095Y-104103009D02*
X132230857Y-104150628D01*
X132230857Y-104150628D02*
X131849905Y-104150628D01*
X133278476Y-103626819D02*
X133088000Y-103626819D01*
X133088000Y-103626819D02*
X132992762Y-103674438D01*
X132992762Y-103674438D02*
X132945143Y-103722057D01*
X132945143Y-103722057D02*
X132849905Y-103864914D01*
X132849905Y-103864914D02*
X132802286Y-104055390D01*
X132802286Y-104055390D02*
X132802286Y-104436342D01*
X132802286Y-104436342D02*
X132849905Y-104531580D01*
X132849905Y-104531580D02*
X132897524Y-104579200D01*
X132897524Y-104579200D02*
X132992762Y-104626819D01*
X132992762Y-104626819D02*
X133183238Y-104626819D01*
X133183238Y-104626819D02*
X133278476Y-104579200D01*
X133278476Y-104579200D02*
X133326095Y-104531580D01*
X133326095Y-104531580D02*
X133373714Y-104436342D01*
X133373714Y-104436342D02*
X133373714Y-104198247D01*
X133373714Y-104198247D02*
X133326095Y-104103009D01*
X133326095Y-104103009D02*
X133278476Y-104055390D01*
X133278476Y-104055390D02*
X133183238Y-104007771D01*
X133183238Y-104007771D02*
X132992762Y-104007771D01*
X132992762Y-104007771D02*
X132897524Y-104055390D01*
X132897524Y-104055390D02*
X132849905Y-104103009D01*
X132849905Y-104103009D02*
X132802286Y-104198247D01*
X160869333Y-69034819D02*
X160536000Y-68558628D01*
X160297905Y-69034819D02*
X160297905Y-68034819D01*
X160297905Y-68034819D02*
X160678857Y-68034819D01*
X160678857Y-68034819D02*
X160774095Y-68082438D01*
X160774095Y-68082438D02*
X160821714Y-68130057D01*
X160821714Y-68130057D02*
X160869333Y-68225295D01*
X160869333Y-68225295D02*
X160869333Y-68368152D01*
X160869333Y-68368152D02*
X160821714Y-68463390D01*
X160821714Y-68463390D02*
X160774095Y-68511009D01*
X160774095Y-68511009D02*
X160678857Y-68558628D01*
X160678857Y-68558628D02*
X160297905Y-68558628D01*
X161202667Y-68034819D02*
X161821714Y-68034819D01*
X161821714Y-68034819D02*
X161488381Y-68415771D01*
X161488381Y-68415771D02*
X161631238Y-68415771D01*
X161631238Y-68415771D02*
X161726476Y-68463390D01*
X161726476Y-68463390D02*
X161774095Y-68511009D01*
X161774095Y-68511009D02*
X161821714Y-68606247D01*
X161821714Y-68606247D02*
X161821714Y-68844342D01*
X161821714Y-68844342D02*
X161774095Y-68939580D01*
X161774095Y-68939580D02*
X161726476Y-68987200D01*
X161726476Y-68987200D02*
X161631238Y-69034819D01*
X161631238Y-69034819D02*
X161345524Y-69034819D01*
X161345524Y-69034819D02*
X161250286Y-68987200D01*
X161250286Y-68987200D02*
X161202667Y-68939580D01*
X118776761Y-72178057D02*
X118681523Y-72130438D01*
X118681523Y-72130438D02*
X118586285Y-72035200D01*
X118586285Y-72035200D02*
X118443428Y-71892342D01*
X118443428Y-71892342D02*
X118348190Y-71844723D01*
X118348190Y-71844723D02*
X118252952Y-71844723D01*
X118300571Y-72082819D02*
X118205333Y-72035200D01*
X118205333Y-72035200D02*
X118110095Y-71939961D01*
X118110095Y-71939961D02*
X118062476Y-71749485D01*
X118062476Y-71749485D02*
X118062476Y-71416152D01*
X118062476Y-71416152D02*
X118110095Y-71225676D01*
X118110095Y-71225676D02*
X118205333Y-71130438D01*
X118205333Y-71130438D02*
X118300571Y-71082819D01*
X118300571Y-71082819D02*
X118491047Y-71082819D01*
X118491047Y-71082819D02*
X118586285Y-71130438D01*
X118586285Y-71130438D02*
X118681523Y-71225676D01*
X118681523Y-71225676D02*
X118729142Y-71416152D01*
X118729142Y-71416152D02*
X118729142Y-71749485D01*
X118729142Y-71749485D02*
X118681523Y-71939961D01*
X118681523Y-71939961D02*
X118586285Y-72035200D01*
X118586285Y-72035200D02*
X118491047Y-72082819D01*
X118491047Y-72082819D02*
X118300571Y-72082819D01*
X119062476Y-71082819D02*
X119681523Y-71082819D01*
X119681523Y-71082819D02*
X119348190Y-71463771D01*
X119348190Y-71463771D02*
X119491047Y-71463771D01*
X119491047Y-71463771D02*
X119586285Y-71511390D01*
X119586285Y-71511390D02*
X119633904Y-71559009D01*
X119633904Y-71559009D02*
X119681523Y-71654247D01*
X119681523Y-71654247D02*
X119681523Y-71892342D01*
X119681523Y-71892342D02*
X119633904Y-71987580D01*
X119633904Y-71987580D02*
X119586285Y-72035200D01*
X119586285Y-72035200D02*
X119491047Y-72082819D01*
X119491047Y-72082819D02*
X119205333Y-72082819D01*
X119205333Y-72082819D02*
X119110095Y-72035200D01*
X119110095Y-72035200D02*
X119062476Y-71987580D01*
X147998905Y-101038819D02*
X147998905Y-100038819D01*
X147998905Y-100038819D02*
X148237000Y-100038819D01*
X148237000Y-100038819D02*
X148379857Y-100086438D01*
X148379857Y-100086438D02*
X148475095Y-100181676D01*
X148475095Y-100181676D02*
X148522714Y-100276914D01*
X148522714Y-100276914D02*
X148570333Y-100467390D01*
X148570333Y-100467390D02*
X148570333Y-100610247D01*
X148570333Y-100610247D02*
X148522714Y-100800723D01*
X148522714Y-100800723D02*
X148475095Y-100895961D01*
X148475095Y-100895961D02*
X148379857Y-100991200D01*
X148379857Y-100991200D02*
X148237000Y-101038819D01*
X148237000Y-101038819D02*
X147998905Y-101038819D01*
X149522714Y-101038819D02*
X148951286Y-101038819D01*
X149237000Y-101038819D02*
X149237000Y-100038819D01*
X149237000Y-100038819D02*
X149141762Y-100181676D01*
X149141762Y-100181676D02*
X149046524Y-100276914D01*
X149046524Y-100276914D02*
X148951286Y-100324533D01*
X131341905Y-117040819D02*
X131341905Y-116040819D01*
X131341905Y-116040819D02*
X131580000Y-116040819D01*
X131580000Y-116040819D02*
X131722857Y-116088438D01*
X131722857Y-116088438D02*
X131818095Y-116183676D01*
X131818095Y-116183676D02*
X131865714Y-116278914D01*
X131865714Y-116278914D02*
X131913333Y-116469390D01*
X131913333Y-116469390D02*
X131913333Y-116612247D01*
X131913333Y-116612247D02*
X131865714Y-116802723D01*
X131865714Y-116802723D02*
X131818095Y-116897961D01*
X131818095Y-116897961D02*
X131722857Y-116993200D01*
X131722857Y-116993200D02*
X131580000Y-117040819D01*
X131580000Y-117040819D02*
X131341905Y-117040819D01*
X132770476Y-116374152D02*
X132770476Y-117040819D01*
X132532381Y-115993200D02*
X132294286Y-116707485D01*
X132294286Y-116707485D02*
X132913333Y-116707485D01*
X150785595Y-92494819D02*
X150785595Y-93304342D01*
X150785595Y-93304342D02*
X150833214Y-93399580D01*
X150833214Y-93399580D02*
X150880833Y-93447200D01*
X150880833Y-93447200D02*
X150976071Y-93494819D01*
X150976071Y-93494819D02*
X151166547Y-93494819D01*
X151166547Y-93494819D02*
X151261785Y-93447200D01*
X151261785Y-93447200D02*
X151309404Y-93399580D01*
X151309404Y-93399580D02*
X151357023Y-93304342D01*
X151357023Y-93304342D02*
X151357023Y-92494819D01*
X152357023Y-93494819D02*
X151785595Y-93494819D01*
X152071309Y-93494819D02*
X152071309Y-92494819D01*
X152071309Y-92494819D02*
X151976071Y-92637676D01*
X151976071Y-92637676D02*
X151880833Y-92732914D01*
X151880833Y-92732914D02*
X151785595Y-92780533D01*
X147407333Y-117686080D02*
X147359714Y-117733700D01*
X147359714Y-117733700D02*
X147216857Y-117781319D01*
X147216857Y-117781319D02*
X147121619Y-117781319D01*
X147121619Y-117781319D02*
X146978762Y-117733700D01*
X146978762Y-117733700D02*
X146883524Y-117638461D01*
X146883524Y-117638461D02*
X146835905Y-117543223D01*
X146835905Y-117543223D02*
X146788286Y-117352747D01*
X146788286Y-117352747D02*
X146788286Y-117209890D01*
X146788286Y-117209890D02*
X146835905Y-117019414D01*
X146835905Y-117019414D02*
X146883524Y-116924176D01*
X146883524Y-116924176D02*
X146978762Y-116828938D01*
X146978762Y-116828938D02*
X147121619Y-116781319D01*
X147121619Y-116781319D02*
X147216857Y-116781319D01*
X147216857Y-116781319D02*
X147359714Y-116828938D01*
X147359714Y-116828938D02*
X147407333Y-116876557D01*
X148359714Y-117781319D02*
X147788286Y-117781319D01*
X148074000Y-117781319D02*
X148074000Y-116781319D01*
X148074000Y-116781319D02*
X147978762Y-116924176D01*
X147978762Y-116924176D02*
X147883524Y-117019414D01*
X147883524Y-117019414D02*
X147788286Y-117067033D01*
X119030761Y-88180057D02*
X118935523Y-88132438D01*
X118935523Y-88132438D02*
X118840285Y-88037200D01*
X118840285Y-88037200D02*
X118697428Y-87894342D01*
X118697428Y-87894342D02*
X118602190Y-87846723D01*
X118602190Y-87846723D02*
X118506952Y-87846723D01*
X118554571Y-88084819D02*
X118459333Y-88037200D01*
X118459333Y-88037200D02*
X118364095Y-87941961D01*
X118364095Y-87941961D02*
X118316476Y-87751485D01*
X118316476Y-87751485D02*
X118316476Y-87418152D01*
X118316476Y-87418152D02*
X118364095Y-87227676D01*
X118364095Y-87227676D02*
X118459333Y-87132438D01*
X118459333Y-87132438D02*
X118554571Y-87084819D01*
X118554571Y-87084819D02*
X118745047Y-87084819D01*
X118745047Y-87084819D02*
X118840285Y-87132438D01*
X118840285Y-87132438D02*
X118935523Y-87227676D01*
X118935523Y-87227676D02*
X118983142Y-87418152D01*
X118983142Y-87418152D02*
X118983142Y-87751485D01*
X118983142Y-87751485D02*
X118935523Y-87941961D01*
X118935523Y-87941961D02*
X118840285Y-88037200D01*
X118840285Y-88037200D02*
X118745047Y-88084819D01*
X118745047Y-88084819D02*
X118554571Y-88084819D01*
X119840285Y-87418152D02*
X119840285Y-88084819D01*
X119602190Y-87037200D02*
X119364095Y-87751485D01*
X119364095Y-87751485D02*
X119983142Y-87751485D01*
X147998905Y-98498819D02*
X147998905Y-97498819D01*
X147998905Y-97498819D02*
X148237000Y-97498819D01*
X148237000Y-97498819D02*
X148379857Y-97546438D01*
X148379857Y-97546438D02*
X148475095Y-97641676D01*
X148475095Y-97641676D02*
X148522714Y-97736914D01*
X148522714Y-97736914D02*
X148570333Y-97927390D01*
X148570333Y-97927390D02*
X148570333Y-98070247D01*
X148570333Y-98070247D02*
X148522714Y-98260723D01*
X148522714Y-98260723D02*
X148475095Y-98355961D01*
X148475095Y-98355961D02*
X148379857Y-98451200D01*
X148379857Y-98451200D02*
X148237000Y-98498819D01*
X148237000Y-98498819D02*
X147998905Y-98498819D01*
X148951286Y-97594057D02*
X148998905Y-97546438D01*
X148998905Y-97546438D02*
X149094143Y-97498819D01*
X149094143Y-97498819D02*
X149332238Y-97498819D01*
X149332238Y-97498819D02*
X149427476Y-97546438D01*
X149427476Y-97546438D02*
X149475095Y-97594057D01*
X149475095Y-97594057D02*
X149522714Y-97689295D01*
X149522714Y-97689295D02*
X149522714Y-97784533D01*
X149522714Y-97784533D02*
X149475095Y-97927390D01*
X149475095Y-97927390D02*
X148903667Y-98498819D01*
X148903667Y-98498819D02*
X149522714Y-98498819D01*
X162547504Y-76015214D02*
X162452266Y-75967595D01*
X162452266Y-75967595D02*
X162357028Y-75872357D01*
X162357028Y-75872357D02*
X162214171Y-75729499D01*
X162214171Y-75729499D02*
X162118933Y-75681880D01*
X162118933Y-75681880D02*
X162023695Y-75681880D01*
X162071314Y-75919976D02*
X161976076Y-75872357D01*
X161976076Y-75872357D02*
X161880838Y-75777118D01*
X161880838Y-75777118D02*
X161833219Y-75586642D01*
X161833219Y-75586642D02*
X161833219Y-75253309D01*
X161833219Y-75253309D02*
X161880838Y-75062833D01*
X161880838Y-75062833D02*
X161976076Y-74967595D01*
X161976076Y-74967595D02*
X162071314Y-74919976D01*
X162071314Y-74919976D02*
X162261790Y-74919976D01*
X162261790Y-74919976D02*
X162357028Y-74967595D01*
X162357028Y-74967595D02*
X162452266Y-75062833D01*
X162452266Y-75062833D02*
X162499885Y-75253309D01*
X162499885Y-75253309D02*
X162499885Y-75586642D01*
X162499885Y-75586642D02*
X162452266Y-75777118D01*
X162452266Y-75777118D02*
X162357028Y-75872357D01*
X162357028Y-75872357D02*
X162261790Y-75919976D01*
X162261790Y-75919976D02*
X162071314Y-75919976D01*
X162880838Y-75015214D02*
X162928457Y-74967595D01*
X162928457Y-74967595D02*
X163023695Y-74919976D01*
X163023695Y-74919976D02*
X163261790Y-74919976D01*
X163261790Y-74919976D02*
X163357028Y-74967595D01*
X163357028Y-74967595D02*
X163404647Y-75015214D01*
X163404647Y-75015214D02*
X163452266Y-75110452D01*
X163452266Y-75110452D02*
X163452266Y-75205690D01*
X163452266Y-75205690D02*
X163404647Y-75348547D01*
X163404647Y-75348547D02*
X162833219Y-75919976D01*
X162833219Y-75919976D02*
X163452266Y-75919976D01*
X151623395Y-112281619D02*
X151623395Y-113091142D01*
X151623395Y-113091142D02*
X151671014Y-113186380D01*
X151671014Y-113186380D02*
X151718633Y-113234000D01*
X151718633Y-113234000D02*
X151813871Y-113281619D01*
X151813871Y-113281619D02*
X152004347Y-113281619D01*
X152004347Y-113281619D02*
X152099585Y-113234000D01*
X152099585Y-113234000D02*
X152147204Y-113186380D01*
X152147204Y-113186380D02*
X152194823Y-113091142D01*
X152194823Y-113091142D02*
X152194823Y-112281619D01*
X152623395Y-112376857D02*
X152671014Y-112329238D01*
X152671014Y-112329238D02*
X152766252Y-112281619D01*
X152766252Y-112281619D02*
X153004347Y-112281619D01*
X153004347Y-112281619D02*
X153099585Y-112329238D01*
X153099585Y-112329238D02*
X153147204Y-112376857D01*
X153147204Y-112376857D02*
X153194823Y-112472095D01*
X153194823Y-112472095D02*
X153194823Y-112567333D01*
X153194823Y-112567333D02*
X153147204Y-112710190D01*
X153147204Y-112710190D02*
X152575776Y-113281619D01*
X152575776Y-113281619D02*
X153194823Y-113281619D01*
X147998905Y-95958819D02*
X147998905Y-94958819D01*
X147998905Y-94958819D02*
X148237000Y-94958819D01*
X148237000Y-94958819D02*
X148379857Y-95006438D01*
X148379857Y-95006438D02*
X148475095Y-95101676D01*
X148475095Y-95101676D02*
X148522714Y-95196914D01*
X148522714Y-95196914D02*
X148570333Y-95387390D01*
X148570333Y-95387390D02*
X148570333Y-95530247D01*
X148570333Y-95530247D02*
X148522714Y-95720723D01*
X148522714Y-95720723D02*
X148475095Y-95815961D01*
X148475095Y-95815961D02*
X148379857Y-95911200D01*
X148379857Y-95911200D02*
X148237000Y-95958819D01*
X148237000Y-95958819D02*
X147998905Y-95958819D01*
X148903667Y-94958819D02*
X149522714Y-94958819D01*
X149522714Y-94958819D02*
X149189381Y-95339771D01*
X149189381Y-95339771D02*
X149332238Y-95339771D01*
X149332238Y-95339771D02*
X149427476Y-95387390D01*
X149427476Y-95387390D02*
X149475095Y-95435009D01*
X149475095Y-95435009D02*
X149522714Y-95530247D01*
X149522714Y-95530247D02*
X149522714Y-95768342D01*
X149522714Y-95768342D02*
X149475095Y-95863580D01*
X149475095Y-95863580D02*
X149427476Y-95911200D01*
X149427476Y-95911200D02*
X149332238Y-95958819D01*
X149332238Y-95958819D02*
X149046524Y-95958819D01*
X149046524Y-95958819D02*
X148951286Y-95911200D01*
X148951286Y-95911200D02*
X148903667Y-95863580D01*
X120245333Y-90624819D02*
X119912000Y-90148628D01*
X119673905Y-90624819D02*
X119673905Y-89624819D01*
X119673905Y-89624819D02*
X120054857Y-89624819D01*
X120054857Y-89624819D02*
X120150095Y-89672438D01*
X120150095Y-89672438D02*
X120197714Y-89720057D01*
X120197714Y-89720057D02*
X120245333Y-89815295D01*
X120245333Y-89815295D02*
X120245333Y-89958152D01*
X120245333Y-89958152D02*
X120197714Y-90053390D01*
X120197714Y-90053390D02*
X120150095Y-90101009D01*
X120150095Y-90101009D02*
X120054857Y-90148628D01*
X120054857Y-90148628D02*
X119673905Y-90148628D01*
X121150095Y-89624819D02*
X120673905Y-89624819D01*
X120673905Y-89624819D02*
X120626286Y-90101009D01*
X120626286Y-90101009D02*
X120673905Y-90053390D01*
X120673905Y-90053390D02*
X120769143Y-90005771D01*
X120769143Y-90005771D02*
X121007238Y-90005771D01*
X121007238Y-90005771D02*
X121102476Y-90053390D01*
X121102476Y-90053390D02*
X121150095Y-90101009D01*
X121150095Y-90101009D02*
X121197714Y-90196247D01*
X121197714Y-90196247D02*
X121197714Y-90434342D01*
X121197714Y-90434342D02*
X121150095Y-90529580D01*
X121150095Y-90529580D02*
X121102476Y-90577200D01*
X121102476Y-90577200D02*
X121007238Y-90624819D01*
X121007238Y-90624819D02*
X120769143Y-90624819D01*
X120769143Y-90624819D02*
X120673905Y-90577200D01*
X120673905Y-90577200D02*
X120626286Y-90529580D01*
X162547504Y-80302542D02*
X162452266Y-80254923D01*
X162452266Y-80254923D02*
X162357028Y-80159685D01*
X162357028Y-80159685D02*
X162214171Y-80016827D01*
X162214171Y-80016827D02*
X162118933Y-79969208D01*
X162118933Y-79969208D02*
X162023695Y-79969208D01*
X162071314Y-80207304D02*
X161976076Y-80159685D01*
X161976076Y-80159685D02*
X161880838Y-80064446D01*
X161880838Y-80064446D02*
X161833219Y-79873970D01*
X161833219Y-79873970D02*
X161833219Y-79540637D01*
X161833219Y-79540637D02*
X161880838Y-79350161D01*
X161880838Y-79350161D02*
X161976076Y-79254923D01*
X161976076Y-79254923D02*
X162071314Y-79207304D01*
X162071314Y-79207304D02*
X162261790Y-79207304D01*
X162261790Y-79207304D02*
X162357028Y-79254923D01*
X162357028Y-79254923D02*
X162452266Y-79350161D01*
X162452266Y-79350161D02*
X162499885Y-79540637D01*
X162499885Y-79540637D02*
X162499885Y-79873970D01*
X162499885Y-79873970D02*
X162452266Y-80064446D01*
X162452266Y-80064446D02*
X162357028Y-80159685D01*
X162357028Y-80159685D02*
X162261790Y-80207304D01*
X162261790Y-80207304D02*
X162071314Y-80207304D01*
X163452266Y-80207304D02*
X162880838Y-80207304D01*
X163166552Y-80207304D02*
X163166552Y-79207304D01*
X163166552Y-79207304D02*
X163071314Y-79350161D01*
X163071314Y-79350161D02*
X162976076Y-79445399D01*
X162976076Y-79445399D02*
X162880838Y-79493018D01*
X131035666Y-94958819D02*
X131035666Y-95673104D01*
X131035666Y-95673104D02*
X130988047Y-95815961D01*
X130988047Y-95815961D02*
X130892809Y-95911200D01*
X130892809Y-95911200D02*
X130749952Y-95958819D01*
X130749952Y-95958819D02*
X130654714Y-95958819D01*
X132035666Y-95958819D02*
X131464238Y-95958819D01*
X131749952Y-95958819D02*
X131749952Y-94958819D01*
X131749952Y-94958819D02*
X131654714Y-95101676D01*
X131654714Y-95101676D02*
X131559476Y-95196914D01*
X131559476Y-95196914D02*
X131464238Y-95244533D01*
X120245333Y-74876819D02*
X119912000Y-74400628D01*
X119673905Y-74876819D02*
X119673905Y-73876819D01*
X119673905Y-73876819D02*
X120054857Y-73876819D01*
X120054857Y-73876819D02*
X120150095Y-73924438D01*
X120150095Y-73924438D02*
X120197714Y-73972057D01*
X120197714Y-73972057D02*
X120245333Y-74067295D01*
X120245333Y-74067295D02*
X120245333Y-74210152D01*
X120245333Y-74210152D02*
X120197714Y-74305390D01*
X120197714Y-74305390D02*
X120150095Y-74353009D01*
X120150095Y-74353009D02*
X120054857Y-74400628D01*
X120054857Y-74400628D02*
X119673905Y-74400628D01*
X121102476Y-74210152D02*
X121102476Y-74876819D01*
X120864381Y-73829200D02*
X120626286Y-74543485D01*
X120626286Y-74543485D02*
X121245333Y-74543485D01*
X120245333Y-79195819D02*
X119912000Y-78719628D01*
X119673905Y-79195819D02*
X119673905Y-78195819D01*
X119673905Y-78195819D02*
X120054857Y-78195819D01*
X120054857Y-78195819D02*
X120150095Y-78243438D01*
X120150095Y-78243438D02*
X120197714Y-78291057D01*
X120197714Y-78291057D02*
X120245333Y-78386295D01*
X120245333Y-78386295D02*
X120245333Y-78529152D01*
X120245333Y-78529152D02*
X120197714Y-78624390D01*
X120197714Y-78624390D02*
X120150095Y-78672009D01*
X120150095Y-78672009D02*
X120054857Y-78719628D01*
X120054857Y-78719628D02*
X119673905Y-78719628D01*
X120626286Y-78291057D02*
X120673905Y-78243438D01*
X120673905Y-78243438D02*
X120769143Y-78195819D01*
X120769143Y-78195819D02*
X121007238Y-78195819D01*
X121007238Y-78195819D02*
X121102476Y-78243438D01*
X121102476Y-78243438D02*
X121150095Y-78291057D01*
X121150095Y-78291057D02*
X121197714Y-78386295D01*
X121197714Y-78386295D02*
X121197714Y-78481533D01*
X121197714Y-78481533D02*
X121150095Y-78624390D01*
X121150095Y-78624390D02*
X120578667Y-79195819D01*
X120578667Y-79195819D02*
X121197714Y-79195819D01*
X147407333Y-112649080D02*
X147359714Y-112696700D01*
X147359714Y-112696700D02*
X147216857Y-112744319D01*
X147216857Y-112744319D02*
X147121619Y-112744319D01*
X147121619Y-112744319D02*
X146978762Y-112696700D01*
X146978762Y-112696700D02*
X146883524Y-112601461D01*
X146883524Y-112601461D02*
X146835905Y-112506223D01*
X146835905Y-112506223D02*
X146788286Y-112315747D01*
X146788286Y-112315747D02*
X146788286Y-112172890D01*
X146788286Y-112172890D02*
X146835905Y-111982414D01*
X146835905Y-111982414D02*
X146883524Y-111887176D01*
X146883524Y-111887176D02*
X146978762Y-111791938D01*
X146978762Y-111791938D02*
X147121619Y-111744319D01*
X147121619Y-111744319D02*
X147216857Y-111744319D01*
X147216857Y-111744319D02*
X147359714Y-111791938D01*
X147359714Y-111791938D02*
X147407333Y-111839557D01*
X147788286Y-111839557D02*
X147835905Y-111791938D01*
X147835905Y-111791938D02*
X147931143Y-111744319D01*
X147931143Y-111744319D02*
X148169238Y-111744319D01*
X148169238Y-111744319D02*
X148264476Y-111791938D01*
X148264476Y-111791938D02*
X148312095Y-111839557D01*
X148312095Y-111839557D02*
X148359714Y-111934795D01*
X148359714Y-111934795D02*
X148359714Y-112030033D01*
X148359714Y-112030033D02*
X148312095Y-112172890D01*
X148312095Y-112172890D02*
X147740667Y-112744319D01*
X147740667Y-112744319D02*
X148359714Y-112744319D01*
X120229333Y-81734819D02*
X119896000Y-81258628D01*
X119657905Y-81734819D02*
X119657905Y-80734819D01*
X119657905Y-80734819D02*
X120038857Y-80734819D01*
X120038857Y-80734819D02*
X120134095Y-80782438D01*
X120134095Y-80782438D02*
X120181714Y-80830057D01*
X120181714Y-80830057D02*
X120229333Y-80925295D01*
X120229333Y-80925295D02*
X120229333Y-81068152D01*
X120229333Y-81068152D02*
X120181714Y-81163390D01*
X120181714Y-81163390D02*
X120134095Y-81211009D01*
X120134095Y-81211009D02*
X120038857Y-81258628D01*
X120038857Y-81258628D02*
X119657905Y-81258628D01*
X121181714Y-81734819D02*
X120610286Y-81734819D01*
X120896000Y-81734819D02*
X120896000Y-80734819D01*
X120896000Y-80734819D02*
X120800762Y-80877676D01*
X120800762Y-80877676D02*
X120705524Y-80972914D01*
X120705524Y-80972914D02*
X120610286Y-81020533D01*
X161464666Y-112274819D02*
X161464666Y-112989104D01*
X161464666Y-112989104D02*
X161417047Y-113131961D01*
X161417047Y-113131961D02*
X161321809Y-113227200D01*
X161321809Y-113227200D02*
X161178952Y-113274819D01*
X161178952Y-113274819D02*
X161083714Y-113274819D01*
X161893238Y-112370057D02*
X161940857Y-112322438D01*
X161940857Y-112322438D02*
X162036095Y-112274819D01*
X162036095Y-112274819D02*
X162274190Y-112274819D01*
X162274190Y-112274819D02*
X162369428Y-112322438D01*
X162369428Y-112322438D02*
X162417047Y-112370057D01*
X162417047Y-112370057D02*
X162464666Y-112465295D01*
X162464666Y-112465295D02*
X162464666Y-112560533D01*
X162464666Y-112560533D02*
X162417047Y-112703390D01*
X162417047Y-112703390D02*
X161845619Y-113274819D01*
X161845619Y-113274819D02*
X162464666Y-113274819D01*
X130984666Y-111214819D02*
X130984666Y-111929104D01*
X130984666Y-111929104D02*
X130937047Y-112071961D01*
X130937047Y-112071961D02*
X130841809Y-112167200D01*
X130841809Y-112167200D02*
X130698952Y-112214819D01*
X130698952Y-112214819D02*
X130603714Y-112214819D01*
X131365619Y-111214819D02*
X131984666Y-111214819D01*
X131984666Y-111214819D02*
X131651333Y-111595771D01*
X131651333Y-111595771D02*
X131794190Y-111595771D01*
X131794190Y-111595771D02*
X131889428Y-111643390D01*
X131889428Y-111643390D02*
X131937047Y-111691009D01*
X131937047Y-111691009D02*
X131984666Y-111786247D01*
X131984666Y-111786247D02*
X131984666Y-112024342D01*
X131984666Y-112024342D02*
X131937047Y-112119580D01*
X131937047Y-112119580D02*
X131889428Y-112167200D01*
X131889428Y-112167200D02*
X131794190Y-112214819D01*
X131794190Y-112214819D02*
X131508476Y-112214819D01*
X131508476Y-112214819D02*
X131413238Y-112167200D01*
X131413238Y-112167200D02*
X131365619Y-112119580D01*
D12*
%TO.C,R8*%
X158215064Y-71855000D02*
X157760936Y-71855000D01*
X158215064Y-70385000D02*
X157760936Y-70385000D01*
%TO.C,R7*%
X160009064Y-81053000D02*
X159554936Y-81053000D01*
X160009064Y-82523000D02*
X159554936Y-82523000D01*
%TO.C,R6*%
X131853000Y-107177064D02*
X131853000Y-106722936D01*
X133323000Y-107177064D02*
X133323000Y-106722936D01*
%TO.C,R3*%
X158215064Y-69315000D02*
X157760936Y-69315000D01*
X158215064Y-67845000D02*
X157760936Y-67845000D01*
%TO.C,Q3*%
X122152000Y-72192000D02*
X125312000Y-72192000D01*
X122152000Y-72192000D02*
X122152000Y-71262000D01*
X122152000Y-69032000D02*
X123612000Y-69032000D01*
X122152000Y-69032000D02*
X122152000Y-69962000D01*
%TO.C,D1*%
X154176000Y-101434000D02*
X154176000Y-99734000D01*
X154176000Y-101434000D02*
X150916000Y-101434000D01*
X154176000Y-99734000D02*
X150916000Y-99734000D01*
%TO.C,G\u002A\u002A\u002A*%
G36*
X140923105Y-95241784D02*
G01*
X141114752Y-95357842D01*
X141361777Y-95628989D01*
X141173863Y-95999228D01*
X141149219Y-96029236D01*
X140616299Y-96408991D01*
X140119422Y-96351319D01*
X139868315Y-96022559D01*
X139911142Y-95532670D01*
X140079455Y-95351165D01*
X140530245Y-95133553D01*
X140923105Y-95241784D01*
G37*
G36*
X139330063Y-92729927D02*
G01*
X139731610Y-93078942D01*
X139830669Y-93405645D01*
X140015558Y-93961397D01*
X140509759Y-94248788D01*
X140787593Y-94315878D01*
X141978355Y-94721368D01*
X142722871Y-95307042D01*
X143016189Y-95986075D01*
X142853357Y-96671639D01*
X142229425Y-97276908D01*
X141139441Y-97715057D01*
X140983478Y-97750914D01*
X140290613Y-97951328D01*
X140005054Y-98222538D01*
X139983695Y-98586370D01*
X139920030Y-99313154D01*
X139781238Y-99697376D01*
X139670992Y-100127035D01*
X140020554Y-100363213D01*
X140055404Y-100374544D01*
X140422721Y-100633329D01*
X140407011Y-100858783D01*
X140251239Y-101358188D01*
X140200428Y-101847664D01*
X140014808Y-102437308D01*
X139713510Y-102617340D01*
X139373624Y-102561017D01*
X139247782Y-102131097D01*
X139240638Y-101879218D01*
X139205101Y-101724298D01*
X139781064Y-101724298D01*
X139916170Y-101859405D01*
X140051276Y-101724298D01*
X139916170Y-101589192D01*
X139781064Y-101724298D01*
X139205101Y-101724298D01*
X139094087Y-101240336D01*
X138675225Y-101048930D01*
X138015241Y-101305317D01*
X137305606Y-101859405D01*
X136618213Y-102440425D01*
X136219604Y-102620565D01*
X136037255Y-102400833D01*
X135998085Y-101877614D01*
X135931012Y-101580711D01*
X136538510Y-101580711D01*
X136736578Y-101729386D01*
X136943830Y-101686908D01*
X137299366Y-101495115D01*
X137349149Y-101425176D01*
X137128498Y-101330717D01*
X136943830Y-101318979D01*
X136584171Y-101460390D01*
X136538510Y-101580711D01*
X135931012Y-101580711D01*
X135841984Y-101186620D01*
X135482622Y-100921583D01*
X134966844Y-100566191D01*
X134730234Y-100049823D01*
X135187447Y-100049823D01*
X135377797Y-100498394D01*
X135525213Y-100599597D01*
X136173951Y-100716751D01*
X137067718Y-100724355D01*
X137923870Y-100629579D01*
X138294893Y-100529331D01*
X138835319Y-100318092D01*
X138294893Y-100158395D01*
X137703376Y-100024364D01*
X136845778Y-99873672D01*
X136470957Y-99817519D01*
X135681317Y-99736771D01*
X135294675Y-99800835D01*
X135187671Y-100032039D01*
X135187447Y-100049823D01*
X134730234Y-100049823D01*
X134725569Y-100039643D01*
X134797198Y-99673318D01*
X135156807Y-99483334D01*
X135608713Y-99427490D01*
X136153261Y-99281886D01*
X136284069Y-98904095D01*
X136022371Y-98382644D01*
X135389400Y-97806060D01*
X135187447Y-97671107D01*
X134451234Y-97106689D01*
X134136649Y-96567501D01*
X134106596Y-96298889D01*
X134259451Y-95613100D01*
X134702875Y-95613100D01*
X134709541Y-96434255D01*
X135229340Y-97191228D01*
X135596111Y-97470931D01*
X136301816Y-98078429D01*
X136537822Y-98714311D01*
X136538510Y-98754442D01*
X136631318Y-99261066D01*
X136808723Y-99427490D01*
X136971112Y-99186248D01*
X136989941Y-99067206D01*
X137349149Y-99067206D01*
X137493752Y-99397118D01*
X137590452Y-99427490D01*
X137781950Y-99292383D01*
X138482677Y-99292383D01*
X138511885Y-99753859D01*
X138596474Y-99794489D01*
X138607242Y-99770398D01*
X138660696Y-99233976D01*
X138617255Y-98959760D01*
X138531242Y-98849567D01*
X138484459Y-99208471D01*
X138482677Y-99292383D01*
X137781950Y-99292383D01*
X137892211Y-99214591D01*
X137970009Y-99067206D01*
X137892500Y-98750579D01*
X137728706Y-98706922D01*
X137386834Y-98911153D01*
X137349149Y-99067206D01*
X136989941Y-99067206D01*
X137067472Y-98577046D01*
X137078936Y-98233632D01*
X137101633Y-97704193D01*
X137349149Y-97704193D01*
X137411607Y-97991703D01*
X137690550Y-97878136D01*
X137822021Y-97780654D01*
X138246711Y-97459518D01*
X138407482Y-97342249D01*
X138274779Y-97282562D01*
X137934610Y-97265788D01*
X137449646Y-97435539D01*
X137349149Y-97704193D01*
X137101633Y-97704193D01*
X137114786Y-97397383D01*
X137194927Y-96815433D01*
X138249858Y-96815433D01*
X138286950Y-96976074D01*
X138430000Y-96995575D01*
X138652416Y-96896708D01*
X138610142Y-96815433D01*
X138289462Y-96783094D01*
X138249858Y-96815433D01*
X137194927Y-96815433D01*
X137204502Y-96745904D01*
X137242952Y-96612356D01*
X137217866Y-96251087D01*
X136972739Y-96184937D01*
X136611568Y-95959469D01*
X136569849Y-95779617D01*
X136808723Y-95779617D01*
X136943830Y-95914724D01*
X137078936Y-95779617D01*
X136943830Y-95644511D01*
X136808723Y-95779617D01*
X136569849Y-95779617D01*
X136538510Y-95644511D01*
X136652681Y-95179144D01*
X136990929Y-95202593D01*
X137484255Y-95644511D01*
X137972913Y-96050671D01*
X138327266Y-96184937D01*
X138772401Y-96438096D01*
X139039744Y-97185241D01*
X139123018Y-98407871D01*
X139121532Y-98526116D01*
X139143285Y-99282506D01*
X139225379Y-99732826D01*
X139303950Y-99793680D01*
X139436053Y-99466319D01*
X139506995Y-98811984D01*
X139510851Y-98606052D01*
X139557375Y-97903176D01*
X139770101Y-97559088D01*
X140253936Y-97396085D01*
X141321376Y-97151950D01*
X141964724Y-96907956D01*
X142296250Y-96598095D01*
X142428222Y-96156358D01*
X142433366Y-96114694D01*
X142387054Y-95584397D01*
X142043197Y-95203150D01*
X141312303Y-94905425D01*
X140514959Y-94710013D01*
X139798829Y-94330862D01*
X139458288Y-93880673D01*
X139129210Y-93328445D01*
X138838592Y-93304769D01*
X138515394Y-93809888D01*
X138481042Y-93884010D01*
X138234711Y-94295789D01*
X137881295Y-94455071D01*
X137235004Y-94424907D01*
X136983800Y-94392134D01*
X136153218Y-94334600D01*
X135610340Y-94485707D01*
X135219748Y-94801572D01*
X134702875Y-95613100D01*
X134259451Y-95613100D01*
X134343568Y-95235704D01*
X134989985Y-94436249D01*
X135949099Y-93974976D01*
X137124161Y-93926333D01*
X137178824Y-93934757D01*
X137829058Y-94001685D01*
X138105880Y-93875061D01*
X138159787Y-93547074D01*
X138353401Y-92980138D01*
X138807077Y-92702374D01*
X139330063Y-92729927D01*
G37*
%TO.C,D4*%
X135964000Y-119618000D02*
X135964000Y-117618000D01*
X135964000Y-119618000D02*
X131954000Y-119618000D01*
X135964000Y-117618000D02*
X131954000Y-117618000D01*
%TO.C,U1*%
X128047500Y-85260000D02*
X128047500Y-59830000D01*
X128047500Y-85260000D02*
X130587500Y-85260000D01*
X130587500Y-85260000D02*
X130587500Y-92160000D01*
X130587500Y-92160000D02*
X153907500Y-92160000D01*
X151787500Y-57700000D02*
X130177500Y-57700000D01*
X153907500Y-92160000D02*
X153907500Y-59830000D01*
X130177500Y-57700000D02*
G75*
G03*
X128047500Y-59830000I2J-2130002D01*
G01*
X153907500Y-59830000D02*
G75*
G03*
X151777500Y-57700000I-2130000J0D01*
G01*
D10*
X127642500Y-66040000D02*
X127007500Y-66675000D01*
X127007500Y-65405000D01*
X127642500Y-66040000D01*
G36*
X127642500Y-66040000D02*
G01*
X127007500Y-66675000D01*
X127007500Y-65405000D01*
X127642500Y-66040000D01*
G37*
D12*
%TO.C,C1*%
X148871000Y-118603752D02*
X148871000Y-118081248D01*
X150341000Y-118603752D02*
X150341000Y-118081248D01*
%TO.C,Q4*%
X122430000Y-88260000D02*
X125590000Y-88260000D01*
X122430000Y-88260000D02*
X122430000Y-87330000D01*
X122430000Y-85100000D02*
X123890000Y-85100000D01*
X122430000Y-85100000D02*
X122430000Y-86030000D01*
%TO.C,D2*%
X154176000Y-98894000D02*
X154176000Y-97194000D01*
X154176000Y-98894000D02*
X150916000Y-98894000D01*
X154176000Y-97194000D02*
X150916000Y-97194000D01*
%TO.C,Q2*%
X159598000Y-72776000D02*
X156438000Y-72776000D01*
X159598000Y-72776000D02*
X159598000Y-73706000D01*
X159598000Y-75936000D02*
X158138000Y-75936000D01*
X159598000Y-75936000D02*
X159598000Y-75006000D01*
%TO.C,U2*%
X163290000Y-121440000D02*
X163290000Y-113890000D01*
X163290000Y-121440000D02*
X151670000Y-121440000D01*
X163290000Y-113890000D02*
X151670000Y-113890000D01*
X152725600Y-121615200D02*
X151485600Y-121615200D01*
X151670000Y-121440000D02*
X151670000Y-113890000D01*
X151485600Y-120375200D02*
X151485600Y-121615200D01*
%TO.C,D3*%
X154176000Y-96354000D02*
X154176000Y-94654000D01*
X154176000Y-96354000D02*
X150916000Y-96354000D01*
X154176000Y-94654000D02*
X150916000Y-94654000D01*
%TO.C,R5*%
X123941064Y-90905000D02*
X123486936Y-90905000D01*
X123941064Y-89435000D02*
X123486936Y-89435000D01*
%TO.C,Q1*%
X158078000Y-76906000D02*
X158078000Y-77836000D01*
X158078000Y-76906000D02*
X159538000Y-76906000D01*
X158078000Y-80066000D02*
X158078000Y-79136000D01*
X158078000Y-80066000D02*
X161238000Y-80066000D01*
%TO.C,J1*%
X120554000Y-94482000D02*
X119814000Y-94482000D01*
X119814000Y-94482000D02*
X119814000Y-94982000D01*
X129975000Y-94722000D02*
X120054000Y-94722000D01*
X129975000Y-94722000D02*
X129975000Y-109842000D01*
X127015000Y-94722000D02*
X127015000Y-109842000D01*
X122114000Y-94722000D02*
X122114000Y-109842000D01*
X120614000Y-94722000D02*
X120614000Y-109842000D01*
X120054000Y-94722000D02*
X120054000Y-109842000D01*
X123691000Y-101055000D02*
X123645000Y-101008000D01*
X123475000Y-101248000D02*
X123440000Y-101213000D01*
X125989000Y-103352000D02*
X125953000Y-103317000D01*
X125783000Y-103557000D02*
X125737000Y-103510000D01*
X123691000Y-106055000D02*
X123645000Y-106008000D01*
X123475000Y-106248000D02*
X123440000Y-106213000D01*
X125989000Y-108352000D02*
X125953000Y-108317000D01*
X125783000Y-108557000D02*
X125737000Y-108510000D01*
X129975000Y-109842000D02*
X120054000Y-109842000D01*
X125397999Y-95747001D02*
G75*
G03*
X124030958Y-95746574I-684000J-1534992D01*
G01*
X126248999Y-97965999D02*
G75*
G03*
X126249426Y-96598958I-1534992J684000D01*
G01*
X123179001Y-96598000D02*
G75*
G03*
X123033748Y-97310805I1535000J-683999D01*
G01*
X123034001Y-97282000D02*
G75*
G03*
X123179245Y-97965318I1679999J0D01*
G01*
X124030000Y-98817000D02*
G75*
G03*
X125397042Y-98817426I684000J1535000D01*
G01*
X126394000Y-102282000D02*
G75*
G03*
X126394000Y-102282000I-1680000J0D01*
G01*
X126394000Y-107282000D02*
G75*
G03*
X126394000Y-107282000I-1680000J0D01*
G01*
%TO.C,R4*%
X123687064Y-75157000D02*
X123232936Y-75157000D01*
X123687064Y-73687000D02*
X123232936Y-73687000D01*
%TO.C,R2*%
X123687064Y-79476000D02*
X123232936Y-79476000D01*
X123687064Y-78006000D02*
X123232936Y-78006000D01*
%TO.C,C2*%
X150341000Y-113044248D02*
X150341000Y-113566752D01*
X148871000Y-113044248D02*
X148871000Y-113566752D01*
%TO.C,R1*%
X123216936Y-80545000D02*
X123671064Y-80545000D01*
X123216936Y-82015000D02*
X123671064Y-82015000D01*
%TO.C,J2*%
X163128000Y-111820000D02*
X161798000Y-111820000D01*
X163128000Y-110490000D02*
X163128000Y-111820000D01*
X163128000Y-109220000D02*
X163128000Y-83760000D01*
X163128000Y-109220000D02*
X160468000Y-109220000D01*
X163128000Y-83760000D02*
X160468000Y-83760000D01*
X160468000Y-109220000D02*
X160468000Y-83760000D01*
%TO.C,J3*%
X120554000Y-110738000D02*
X119814000Y-110738000D01*
X119814000Y-110738000D02*
X119814000Y-111238000D01*
X129975000Y-110978000D02*
X120054000Y-110978000D01*
X129975000Y-110978000D02*
X129975000Y-121098000D01*
X127015000Y-110978000D02*
X127015000Y-121098000D01*
X122114000Y-110978000D02*
X122114000Y-121098000D01*
X120614000Y-110978000D02*
X120614000Y-121098000D01*
X120054000Y-110978000D02*
X120054000Y-121098000D01*
X123691000Y-117311000D02*
X123645000Y-117264000D01*
X123475000Y-117504000D02*
X123440000Y-117469000D01*
X125989000Y-119608000D02*
X125953000Y-119573000D01*
X125783000Y-119813000D02*
X125737000Y-119766000D01*
X129975000Y-121098000D02*
X120054000Y-121098000D01*
X125397999Y-112003001D02*
G75*
G03*
X124030958Y-112002574I-684000J-1534992D01*
G01*
X126248999Y-114221999D02*
G75*
G03*
X126249426Y-112854958I-1534992J684000D01*
G01*
X123179001Y-112854000D02*
G75*
G03*
X123033748Y-113566805I1535000J-683999D01*
G01*
X123034001Y-113538000D02*
G75*
G03*
X123179245Y-114221318I1679999J0D01*
G01*
X124030000Y-115073000D02*
G75*
G03*
X125397042Y-115073426I684000J1535000D01*
G01*
X126394000Y-118538000D02*
G75*
G03*
X126394000Y-118538000I-1680000J0D01*
G01*
%TD*%
M02*
