%TF.GenerationSoftware,KiCad,Pcbnew,7.0.9*%
%TF.CreationDate,2023-11-21T14:13:12-08:00*%
%TF.ProjectId,RatGDO-OpenSource-D1Mini-ESP8266-Tubez,52617447-444f-42d4-9f70-656e536f7572,2.5.0*%
%TF.SameCoordinates,Original*%
%TF.FileFunction,Soldermask,Top*%
%TF.FilePolarity,Negative*%
%FSLAX46Y46*%
G04 Gerber Fmt 4.6, Leading zero omitted, Abs format (unit mm)*
G04 Created by KiCad (PCBNEW 7.0.9) date 2023-11-21 14:13:12*
%MOMM*%
%LPD*%
G01*
G04 APERTURE LIST*
G04 Aperture macros list*
%AMRoundRect*
0 Rectangle with rounded corners*
0 $1 Rounding radius*
0 $2 $3 $4 $5 $6 $7 $8 $9 X,Y pos of 4 corners*
0 Add a 4 corners polygon primitive as box body*
4,1,4,$2,$3,$4,$5,$6,$7,$8,$9,$2,$3,0*
0 Add four circle primitives for the rounded corners*
1,1,$1+$1,$2,$3*
1,1,$1+$1,$4,$5*
1,1,$1+$1,$6,$7*
1,1,$1+$1,$8,$9*
0 Add four rect primitives between the rounded corners*
20,1,$1+$1,$2,$3,$4,$5,0*
20,1,$1+$1,$4,$5,$6,$7,0*
20,1,$1+$1,$6,$7,$8,$9,0*
20,1,$1+$1,$8,$9,$2,$3,0*%
G04 Aperture macros list end*
%ADD10RoundRect,0.250000X0.350000X0.450000X-0.350000X0.450000X-0.350000X-0.450000X0.350000X-0.450000X0*%
%ADD11RoundRect,0.250000X-0.350000X-0.450000X0.350000X-0.450000X0.350000X0.450000X-0.350000X0.450000X0*%
%ADD12R,1.900000X0.800000*%
%ADD13C,5.000000*%
%ADD14RoundRect,0.250000X0.250000X0.250000X-0.250000X0.250000X-0.250000X-0.250000X0.250000X-0.250000X0*%
%ADD15RoundRect,0.250000X0.325000X0.450000X-0.325000X0.450000X-0.325000X-0.450000X0.325000X-0.450000X0*%
%ADD16RoundRect,0.225000X0.375000X-0.225000X0.375000X0.225000X-0.375000X0.225000X-0.375000X-0.225000X0*%
%ADD17R,2.000000X2.000000*%
%ADD18O,2.000000X1.600000*%
%ADD19RoundRect,0.250000X0.450000X-0.350000X0.450000X0.350000X-0.450000X0.350000X-0.450000X-0.350000X0*%
%ADD20RoundRect,0.250000X0.475000X-0.337500X0.475000X0.337500X-0.475000X0.337500X-0.475000X-0.337500X0*%
%ADD21R,1.500000X2.000000*%
%ADD22O,1.500000X2.000000*%
%ADD23R,2.600000X2.600000*%
%ADD24C,2.600000*%
%ADD25RoundRect,0.250000X-0.475000X0.337500X-0.475000X-0.337500X0.475000X-0.337500X0.475000X0.337500X0*%
%ADD26RoundRect,0.250001X0.624999X-0.462499X0.624999X0.462499X-0.624999X0.462499X-0.624999X-0.462499X0*%
%ADD27R,2.300000X1.700000*%
%ADD28O,2.300000X1.700000*%
G04 APERTURE END LIST*
D10*
%TO.C,R10*%
X124698000Y-88137000D03*
X122698000Y-88137000D03*
%TD*%
%TO.C,R8*%
X158988000Y-71120000D03*
X156988000Y-71120000D03*
%TD*%
D11*
%TO.C,R3*%
X156988000Y-68580000D03*
X158988000Y-68580000D03*
%TD*%
D10*
%TO.C,R12*%
X144018000Y-93726000D03*
X142018000Y-93726000D03*
%TD*%
D12*
%TO.C,Q3*%
X124412000Y-71562000D03*
X124412000Y-69662000D03*
X121412000Y-70612000D03*
%TD*%
D13*
%TO.C,REF\u002A\u002A*%
X161544000Y-62484000D03*
%TD*%
D14*
%TO.C,D1*%
X153670000Y-103632000D03*
X151170000Y-103632000D03*
%TD*%
D13*
%TO.C,REF\u002A\u002A*%
X141478000Y-113792000D03*
%TD*%
D15*
%TO.C,D6 RX*%
X148352000Y-93726000D03*
X146302000Y-93726000D03*
%TD*%
D16*
%TO.C,D4*%
X135636000Y-120522000D03*
X135636000Y-117222000D03*
%TD*%
D17*
%TO.C,U1*%
X129547500Y-66040000D03*
D18*
X129547500Y-68580000D03*
X129547500Y-71120000D03*
X129547500Y-73660000D03*
X129547500Y-76200000D03*
X129547500Y-78740000D03*
X129547500Y-81280000D03*
X129547500Y-83820000D03*
X152407500Y-83820000D03*
X152407500Y-81280000D03*
X152407500Y-78740000D03*
X152407500Y-76200000D03*
X152407500Y-73660000D03*
X152407500Y-71120000D03*
X152407500Y-68580000D03*
X152407500Y-66040000D03*
%TD*%
D19*
%TO.C,R6*%
X132588000Y-107950000D03*
X132588000Y-105950000D03*
%TD*%
D20*
%TO.C,C1*%
X149606000Y-119380000D03*
X149606000Y-117305000D03*
%TD*%
D11*
%TO.C,R11*%
X142018000Y-96012000D03*
X144018000Y-96012000D03*
%TD*%
D10*
%TO.C,R7*%
X160782000Y-81788000D03*
X158782000Y-81788000D03*
%TD*%
D12*
%TO.C,Q4*%
X124206000Y-85974000D03*
X124206000Y-84074000D03*
X121206000Y-85024000D03*
%TD*%
D13*
%TO.C,REF\u002A\u002A*%
X120396000Y-62484000D03*
%TD*%
D14*
%TO.C,D2*%
X153670000Y-101092000D03*
X151170000Y-101092000D03*
%TD*%
D12*
%TO.C,Q2*%
X157338000Y-73406000D03*
X157338000Y-75306000D03*
X160338000Y-74356000D03*
%TD*%
D21*
%TO.C,U2*%
X154940000Y-119380000D03*
D22*
X157480000Y-119380000D03*
X160020000Y-119380000D03*
%TD*%
D14*
%TO.C,D3*%
X153670000Y-98552000D03*
X151170000Y-98552000D03*
%TD*%
D10*
%TO.C,R5*%
X124714000Y-90424000D03*
X122714000Y-90424000D03*
%TD*%
D15*
%TO.C,D5 TX*%
X148352000Y-96012000D03*
X146302000Y-96012000D03*
%TD*%
D12*
%TO.C,Q1*%
X160338000Y-79436000D03*
X160338000Y-77536000D03*
X157338000Y-78486000D03*
%TD*%
D10*
%TO.C,R9*%
X124714000Y-73914000D03*
X122714000Y-73914000D03*
%TD*%
D23*
%TO.C,J1*%
X124714000Y-97282000D03*
D24*
X124714000Y-102282000D03*
X124714000Y-107282000D03*
%TD*%
D10*
%TO.C,R4*%
X124714000Y-76200000D03*
X122714000Y-76200000D03*
%TD*%
%TO.C,R2*%
X124714000Y-78994000D03*
X122714000Y-78994000D03*
%TD*%
D25*
%TO.C,C2*%
X149606000Y-112268000D03*
X149606000Y-114343000D03*
%TD*%
D26*
%TO.C,F1*%
X132588000Y-120359500D03*
X132588000Y-117384500D03*
%TD*%
D11*
%TO.C,R1*%
X122698000Y-81280000D03*
X124698000Y-81280000D03*
%TD*%
D27*
%TO.C,J2*%
X161798000Y-110490000D03*
D28*
X161798000Y-107950000D03*
X161798000Y-105410000D03*
X161798000Y-102870000D03*
X161798000Y-100330000D03*
X161798000Y-97790000D03*
X161798000Y-95250000D03*
X161798000Y-92710000D03*
X161798000Y-90170000D03*
X161798000Y-87630000D03*
X161798000Y-85090000D03*
%TD*%
D23*
%TO.C,J3*%
X124714000Y-113538000D03*
D24*
X124714000Y-118538000D03*
%TD*%
M02*
