%TF.GenerationSoftware,KiCad,Pcbnew,7.0.8*%
%TF.CreationDate,2023-11-06T13:52:09-08:00*%
%TF.ProjectId,RatGDO-OpenSource-D1Mini-ESP8266,52617447-444f-42d4-9f70-656e536f7572,2.5.0*%
%TF.SameCoordinates,Original*%
%TF.FileFunction,Legend,Top*%
%TF.FilePolarity,Positive*%
%FSLAX46Y46*%
G04 Gerber Fmt 4.6, Leading zero omitted, Abs format (unit mm)*
G04 Created by KiCad (PCBNEW 7.0.8) date 2023-11-06 13:52:09*
%MOMM*%
%LPD*%
G01*
G04 APERTURE LIST*
%ADD10C,0.150000*%
%ADD11C,0.300000*%
%ADD12C,0.120000*%
G04 APERTURE END LIST*
D10*
X117208180Y-118427523D02*
X117208180Y-117951333D01*
X117208180Y-117951333D02*
X116731990Y-117903714D01*
X116731990Y-117903714D02*
X116779609Y-117951333D01*
X116779609Y-117951333D02*
X116827228Y-118046571D01*
X116827228Y-118046571D02*
X116827228Y-118284666D01*
X116827228Y-118284666D02*
X116779609Y-118379904D01*
X116779609Y-118379904D02*
X116731990Y-118427523D01*
X116731990Y-118427523D02*
X116636752Y-118475142D01*
X116636752Y-118475142D02*
X116398657Y-118475142D01*
X116398657Y-118475142D02*
X116303419Y-118427523D01*
X116303419Y-118427523D02*
X116255800Y-118379904D01*
X116255800Y-118379904D02*
X116208180Y-118284666D01*
X116208180Y-118284666D02*
X116208180Y-118046571D01*
X116208180Y-118046571D02*
X116255800Y-117951333D01*
X116255800Y-117951333D02*
X116303419Y-117903714D01*
X117208180Y-118760857D02*
X116208180Y-119094190D01*
X116208180Y-119094190D02*
X117208180Y-119427523D01*
X117208180Y-112553905D02*
X117208180Y-113172952D01*
X117208180Y-113172952D02*
X116827228Y-112839619D01*
X116827228Y-112839619D02*
X116827228Y-112982476D01*
X116827228Y-112982476D02*
X116779609Y-113077714D01*
X116779609Y-113077714D02*
X116731990Y-113125333D01*
X116731990Y-113125333D02*
X116636752Y-113172952D01*
X116636752Y-113172952D02*
X116398657Y-113172952D01*
X116398657Y-113172952D02*
X116303419Y-113125333D01*
X116303419Y-113125333D02*
X116255800Y-113077714D01*
X116255800Y-113077714D02*
X116208180Y-112982476D01*
X116208180Y-112982476D02*
X116208180Y-112696762D01*
X116208180Y-112696762D02*
X116255800Y-112601524D01*
X116255800Y-112601524D02*
X116303419Y-112553905D01*
X117208180Y-113458667D02*
X116208180Y-113792000D01*
X116208180Y-113792000D02*
X117208180Y-114125333D01*
X117208180Y-114363429D02*
X117208180Y-114982476D01*
X117208180Y-114982476D02*
X116827228Y-114649143D01*
X116827228Y-114649143D02*
X116827228Y-114792000D01*
X116827228Y-114792000D02*
X116779609Y-114887238D01*
X116779609Y-114887238D02*
X116731990Y-114934857D01*
X116731990Y-114934857D02*
X116636752Y-114982476D01*
X116636752Y-114982476D02*
X116398657Y-114982476D01*
X116398657Y-114982476D02*
X116303419Y-114934857D01*
X116303419Y-114934857D02*
X116255800Y-114887238D01*
X116255800Y-114887238D02*
X116208180Y-114792000D01*
X116208180Y-114792000D02*
X116208180Y-114506286D01*
X116208180Y-114506286D02*
X116255800Y-114411048D01*
X116255800Y-114411048D02*
X116303419Y-114363429D01*
X117818180Y-101465142D02*
X118294371Y-101131809D01*
X117818180Y-100893714D02*
X118818180Y-100893714D01*
X118818180Y-100893714D02*
X118818180Y-101274666D01*
X118818180Y-101274666D02*
X118770561Y-101369904D01*
X118770561Y-101369904D02*
X118722942Y-101417523D01*
X118722942Y-101417523D02*
X118627704Y-101465142D01*
X118627704Y-101465142D02*
X118484847Y-101465142D01*
X118484847Y-101465142D02*
X118389609Y-101417523D01*
X118389609Y-101417523D02*
X118341990Y-101369904D01*
X118341990Y-101369904D02*
X118294371Y-101274666D01*
X118294371Y-101274666D02*
X118294371Y-100893714D01*
X118341990Y-101893714D02*
X118341990Y-102227047D01*
X117818180Y-102369904D02*
X117818180Y-101893714D01*
X117818180Y-101893714D02*
X118818180Y-101893714D01*
X118818180Y-101893714D02*
X118818180Y-102369904D01*
X117818180Y-102798476D02*
X118818180Y-102798476D01*
X118818180Y-102798476D02*
X118818180Y-103036571D01*
X118818180Y-103036571D02*
X118770561Y-103179428D01*
X118770561Y-103179428D02*
X118675323Y-103274666D01*
X118675323Y-103274666D02*
X118580085Y-103322285D01*
X118580085Y-103322285D02*
X118389609Y-103369904D01*
X118389609Y-103369904D02*
X118246752Y-103369904D01*
X118246752Y-103369904D02*
X118056276Y-103322285D01*
X118056276Y-103322285D02*
X117961038Y-103274666D01*
X117961038Y-103274666D02*
X117865800Y-103179428D01*
X117865800Y-103179428D02*
X117818180Y-103036571D01*
X117818180Y-103036571D02*
X117818180Y-102798476D01*
X116303419Y-101131809D02*
X116255800Y-101084190D01*
X116255800Y-101084190D02*
X116208180Y-100941333D01*
X116208180Y-100941333D02*
X116208180Y-100846095D01*
X116208180Y-100846095D02*
X116255800Y-100703238D01*
X116255800Y-100703238D02*
X116351038Y-100608000D01*
X116351038Y-100608000D02*
X116446276Y-100560381D01*
X116446276Y-100560381D02*
X116636752Y-100512762D01*
X116636752Y-100512762D02*
X116779609Y-100512762D01*
X116779609Y-100512762D02*
X116970085Y-100560381D01*
X116970085Y-100560381D02*
X117065323Y-100608000D01*
X117065323Y-100608000D02*
X117160561Y-100703238D01*
X117160561Y-100703238D02*
X117208180Y-100846095D01*
X117208180Y-100846095D02*
X117208180Y-100941333D01*
X117208180Y-100941333D02*
X117160561Y-101084190D01*
X117160561Y-101084190D02*
X117112942Y-101131809D01*
X117208180Y-101417524D02*
X117208180Y-101988952D01*
X116208180Y-101703238D02*
X117208180Y-101703238D01*
X116208180Y-102893714D02*
X116684371Y-102560381D01*
X116208180Y-102322286D02*
X117208180Y-102322286D01*
X117208180Y-102322286D02*
X117208180Y-102703238D01*
X117208180Y-102703238D02*
X117160561Y-102798476D01*
X117160561Y-102798476D02*
X117112942Y-102846095D01*
X117112942Y-102846095D02*
X117017704Y-102893714D01*
X117017704Y-102893714D02*
X116874847Y-102893714D01*
X116874847Y-102893714D02*
X116779609Y-102846095D01*
X116779609Y-102846095D02*
X116731990Y-102798476D01*
X116731990Y-102798476D02*
X116684371Y-102703238D01*
X116684371Y-102703238D02*
X116684371Y-102322286D01*
X116208180Y-103798476D02*
X116208180Y-103322286D01*
X116208180Y-103322286D02*
X117208180Y-103322286D01*
X153594016Y-106041819D02*
X153260683Y-105565628D01*
X153022588Y-106041819D02*
X153022588Y-105041819D01*
X153022588Y-105041819D02*
X153403540Y-105041819D01*
X153403540Y-105041819D02*
X153498778Y-105089438D01*
X153498778Y-105089438D02*
X153546397Y-105137057D01*
X153546397Y-105137057D02*
X153594016Y-105232295D01*
X153594016Y-105232295D02*
X153594016Y-105375152D01*
X153594016Y-105375152D02*
X153546397Y-105470390D01*
X153546397Y-105470390D02*
X153498778Y-105518009D01*
X153498778Y-105518009D02*
X153403540Y-105565628D01*
X153403540Y-105565628D02*
X153022588Y-105565628D01*
X154022588Y-105518009D02*
X154355921Y-105518009D01*
X154498778Y-106041819D02*
X154022588Y-106041819D01*
X154022588Y-106041819D02*
X154022588Y-105041819D01*
X154022588Y-105041819D02*
X154498778Y-105041819D01*
X154927350Y-106041819D02*
X154927350Y-105041819D01*
X154927350Y-105041819D02*
X155165445Y-105041819D01*
X155165445Y-105041819D02*
X155308302Y-105089438D01*
X155308302Y-105089438D02*
X155403540Y-105184676D01*
X155403540Y-105184676D02*
X155451159Y-105279914D01*
X155451159Y-105279914D02*
X155498778Y-105470390D01*
X155498778Y-105470390D02*
X155498778Y-105613247D01*
X155498778Y-105613247D02*
X155451159Y-105803723D01*
X155451159Y-105803723D02*
X155403540Y-105898961D01*
X155403540Y-105898961D02*
X155308302Y-105994200D01*
X155308302Y-105994200D02*
X155165445Y-106041819D01*
X155165445Y-106041819D02*
X154927350Y-106041819D01*
X156641635Y-104994200D02*
X155784493Y-106279914D01*
X157546397Y-105946580D02*
X157498778Y-105994200D01*
X157498778Y-105994200D02*
X157355921Y-106041819D01*
X157355921Y-106041819D02*
X157260683Y-106041819D01*
X157260683Y-106041819D02*
X157117826Y-105994200D01*
X157117826Y-105994200D02*
X157022588Y-105898961D01*
X157022588Y-105898961D02*
X156974969Y-105803723D01*
X156974969Y-105803723D02*
X156927350Y-105613247D01*
X156927350Y-105613247D02*
X156927350Y-105470390D01*
X156927350Y-105470390D02*
X156974969Y-105279914D01*
X156974969Y-105279914D02*
X157022588Y-105184676D01*
X157022588Y-105184676D02*
X157117826Y-105089438D01*
X157117826Y-105089438D02*
X157260683Y-105041819D01*
X157260683Y-105041819D02*
X157355921Y-105041819D01*
X157355921Y-105041819D02*
X157498778Y-105089438D01*
X157498778Y-105089438D02*
X157546397Y-105137057D01*
X157832112Y-105041819D02*
X158403540Y-105041819D01*
X158117826Y-106041819D02*
X158117826Y-105041819D01*
X159308302Y-106041819D02*
X158974969Y-105565628D01*
X158736874Y-106041819D02*
X158736874Y-105041819D01*
X158736874Y-105041819D02*
X159117826Y-105041819D01*
X159117826Y-105041819D02*
X159213064Y-105089438D01*
X159213064Y-105089438D02*
X159260683Y-105137057D01*
X159260683Y-105137057D02*
X159308302Y-105232295D01*
X159308302Y-105232295D02*
X159308302Y-105375152D01*
X159308302Y-105375152D02*
X159260683Y-105470390D01*
X159260683Y-105470390D02*
X159213064Y-105518009D01*
X159213064Y-105518009D02*
X159117826Y-105565628D01*
X159117826Y-105565628D02*
X158736874Y-105565628D01*
X160213064Y-106041819D02*
X159736874Y-106041819D01*
X159736874Y-106041819D02*
X159736874Y-105041819D01*
D11*
X142381653Y-113842828D02*
X141881653Y-113128542D01*
X141524510Y-113842828D02*
X141524510Y-112342828D01*
X141524510Y-112342828D02*
X142095939Y-112342828D01*
X142095939Y-112342828D02*
X142238796Y-112414257D01*
X142238796Y-112414257D02*
X142310225Y-112485685D01*
X142310225Y-112485685D02*
X142381653Y-112628542D01*
X142381653Y-112628542D02*
X142381653Y-112842828D01*
X142381653Y-112842828D02*
X142310225Y-112985685D01*
X142310225Y-112985685D02*
X142238796Y-113057114D01*
X142238796Y-113057114D02*
X142095939Y-113128542D01*
X142095939Y-113128542D02*
X141524510Y-113128542D01*
X142953082Y-113414257D02*
X143667368Y-113414257D01*
X142810225Y-113842828D02*
X143310225Y-112342828D01*
X143310225Y-112342828D02*
X143810225Y-113842828D01*
X144095939Y-112342828D02*
X144953082Y-112342828D01*
X144524510Y-113842828D02*
X144524510Y-112342828D01*
X145453081Y-113271400D02*
X146595939Y-113271400D01*
X148167367Y-113842828D02*
X147667367Y-113128542D01*
X147310224Y-113842828D02*
X147310224Y-112342828D01*
X147310224Y-112342828D02*
X147881653Y-112342828D01*
X147881653Y-112342828D02*
X148024510Y-112414257D01*
X148024510Y-112414257D02*
X148095939Y-112485685D01*
X148095939Y-112485685D02*
X148167367Y-112628542D01*
X148167367Y-112628542D02*
X148167367Y-112842828D01*
X148167367Y-112842828D02*
X148095939Y-112985685D01*
X148095939Y-112985685D02*
X148024510Y-113057114D01*
X148024510Y-113057114D02*
X147881653Y-113128542D01*
X147881653Y-113128542D02*
X147310224Y-113128542D01*
X148738796Y-113414257D02*
X149453082Y-113414257D01*
X148595939Y-113842828D02*
X149095939Y-112342828D01*
X149095939Y-112342828D02*
X149595939Y-113842828D01*
X149881653Y-112342828D02*
X150738796Y-112342828D01*
X150310224Y-113842828D02*
X150310224Y-112342828D01*
X152024510Y-112414257D02*
X151881653Y-112342828D01*
X151881653Y-112342828D02*
X151667367Y-112342828D01*
X151667367Y-112342828D02*
X151453081Y-112414257D01*
X151453081Y-112414257D02*
X151310224Y-112557114D01*
X151310224Y-112557114D02*
X151238795Y-112699971D01*
X151238795Y-112699971D02*
X151167367Y-112985685D01*
X151167367Y-112985685D02*
X151167367Y-113199971D01*
X151167367Y-113199971D02*
X151238795Y-113485685D01*
X151238795Y-113485685D02*
X151310224Y-113628542D01*
X151310224Y-113628542D02*
X151453081Y-113771400D01*
X151453081Y-113771400D02*
X151667367Y-113842828D01*
X151667367Y-113842828D02*
X151810224Y-113842828D01*
X151810224Y-113842828D02*
X152024510Y-113771400D01*
X152024510Y-113771400D02*
X152095938Y-113699971D01*
X152095938Y-113699971D02*
X152095938Y-113199971D01*
X152095938Y-113199971D02*
X151810224Y-113199971D01*
X152738795Y-113842828D02*
X152738795Y-112342828D01*
X152738795Y-112342828D02*
X153095938Y-112342828D01*
X153095938Y-112342828D02*
X153310224Y-112414257D01*
X153310224Y-112414257D02*
X153453081Y-112557114D01*
X153453081Y-112557114D02*
X153524510Y-112699971D01*
X153524510Y-112699971D02*
X153595938Y-112985685D01*
X153595938Y-112985685D02*
X153595938Y-113199971D01*
X153595938Y-113199971D02*
X153524510Y-113485685D01*
X153524510Y-113485685D02*
X153453081Y-113628542D01*
X153453081Y-113628542D02*
X153310224Y-113771400D01*
X153310224Y-113771400D02*
X153095938Y-113842828D01*
X153095938Y-113842828D02*
X152738795Y-113842828D01*
X154524510Y-112342828D02*
X154810224Y-112342828D01*
X154810224Y-112342828D02*
X154953081Y-112414257D01*
X154953081Y-112414257D02*
X155095938Y-112557114D01*
X155095938Y-112557114D02*
X155167367Y-112842828D01*
X155167367Y-112842828D02*
X155167367Y-113342828D01*
X155167367Y-113342828D02*
X155095938Y-113628542D01*
X155095938Y-113628542D02*
X154953081Y-113771400D01*
X154953081Y-113771400D02*
X154810224Y-113842828D01*
X154810224Y-113842828D02*
X154524510Y-113842828D01*
X154524510Y-113842828D02*
X154381653Y-113771400D01*
X154381653Y-113771400D02*
X154238795Y-113628542D01*
X154238795Y-113628542D02*
X154167367Y-113342828D01*
X154167367Y-113342828D02*
X154167367Y-112842828D01*
X154167367Y-112842828D02*
X154238795Y-112557114D01*
X154238795Y-112557114D02*
X154381653Y-112414257D01*
X154381653Y-112414257D02*
X154524510Y-112342828D01*
X141310225Y-114757828D02*
X142167368Y-114757828D01*
X141738796Y-116257828D02*
X141738796Y-114757828D01*
X142667367Y-114757828D02*
X142667367Y-115972114D01*
X142667367Y-115972114D02*
X142738796Y-116114971D01*
X142738796Y-116114971D02*
X142810225Y-116186400D01*
X142810225Y-116186400D02*
X142953082Y-116257828D01*
X142953082Y-116257828D02*
X143238796Y-116257828D01*
X143238796Y-116257828D02*
X143381653Y-116186400D01*
X143381653Y-116186400D02*
X143453082Y-116114971D01*
X143453082Y-116114971D02*
X143524510Y-115972114D01*
X143524510Y-115972114D02*
X143524510Y-114757828D01*
X144738796Y-115472114D02*
X144953082Y-115543542D01*
X144953082Y-115543542D02*
X145024511Y-115614971D01*
X145024511Y-115614971D02*
X145095939Y-115757828D01*
X145095939Y-115757828D02*
X145095939Y-115972114D01*
X145095939Y-115972114D02*
X145024511Y-116114971D01*
X145024511Y-116114971D02*
X144953082Y-116186400D01*
X144953082Y-116186400D02*
X144810225Y-116257828D01*
X144810225Y-116257828D02*
X144238796Y-116257828D01*
X144238796Y-116257828D02*
X144238796Y-114757828D01*
X144238796Y-114757828D02*
X144738796Y-114757828D01*
X144738796Y-114757828D02*
X144881654Y-114829257D01*
X144881654Y-114829257D02*
X144953082Y-114900685D01*
X144953082Y-114900685D02*
X145024511Y-115043542D01*
X145024511Y-115043542D02*
X145024511Y-115186400D01*
X145024511Y-115186400D02*
X144953082Y-115329257D01*
X144953082Y-115329257D02*
X144881654Y-115400685D01*
X144881654Y-115400685D02*
X144738796Y-115472114D01*
X144738796Y-115472114D02*
X144238796Y-115472114D01*
X145738796Y-115472114D02*
X146238796Y-115472114D01*
X146453082Y-116257828D02*
X145738796Y-116257828D01*
X145738796Y-116257828D02*
X145738796Y-114757828D01*
X145738796Y-114757828D02*
X146453082Y-114757828D01*
X146953082Y-114757828D02*
X147953082Y-114757828D01*
X147953082Y-114757828D02*
X146953082Y-116257828D01*
X146953082Y-116257828D02*
X147953082Y-116257828D01*
X149595939Y-114900685D02*
X149667367Y-114829257D01*
X149667367Y-114829257D02*
X149810225Y-114757828D01*
X149810225Y-114757828D02*
X150167367Y-114757828D01*
X150167367Y-114757828D02*
X150310225Y-114829257D01*
X150310225Y-114829257D02*
X150381653Y-114900685D01*
X150381653Y-114900685D02*
X150453082Y-115043542D01*
X150453082Y-115043542D02*
X150453082Y-115186400D01*
X150453082Y-115186400D02*
X150381653Y-115400685D01*
X150381653Y-115400685D02*
X149524510Y-116257828D01*
X149524510Y-116257828D02*
X150453082Y-116257828D01*
X151095938Y-116114971D02*
X151167367Y-116186400D01*
X151167367Y-116186400D02*
X151095938Y-116257828D01*
X151095938Y-116257828D02*
X151024510Y-116186400D01*
X151024510Y-116186400D02*
X151095938Y-116114971D01*
X151095938Y-116114971D02*
X151095938Y-116257828D01*
X152524510Y-114757828D02*
X151810224Y-114757828D01*
X151810224Y-114757828D02*
X151738796Y-115472114D01*
X151738796Y-115472114D02*
X151810224Y-115400685D01*
X151810224Y-115400685D02*
X151953082Y-115329257D01*
X151953082Y-115329257D02*
X152310224Y-115329257D01*
X152310224Y-115329257D02*
X152453082Y-115400685D01*
X152453082Y-115400685D02*
X152524510Y-115472114D01*
X152524510Y-115472114D02*
X152595939Y-115614971D01*
X152595939Y-115614971D02*
X152595939Y-115972114D01*
X152595939Y-115972114D02*
X152524510Y-116114971D01*
X152524510Y-116114971D02*
X152453082Y-116186400D01*
X152453082Y-116186400D02*
X152310224Y-116257828D01*
X152310224Y-116257828D02*
X151953082Y-116257828D01*
X151953082Y-116257828D02*
X151810224Y-116186400D01*
X151810224Y-116186400D02*
X151738796Y-116114971D01*
X153238795Y-116114971D02*
X153310224Y-116186400D01*
X153310224Y-116186400D02*
X153238795Y-116257828D01*
X153238795Y-116257828D02*
X153167367Y-116186400D01*
X153167367Y-116186400D02*
X153238795Y-116114971D01*
X153238795Y-116114971D02*
X153238795Y-116257828D01*
X154238796Y-114757828D02*
X154381653Y-114757828D01*
X154381653Y-114757828D02*
X154524510Y-114829257D01*
X154524510Y-114829257D02*
X154595939Y-114900685D01*
X154595939Y-114900685D02*
X154667367Y-115043542D01*
X154667367Y-115043542D02*
X154738796Y-115329257D01*
X154738796Y-115329257D02*
X154738796Y-115686400D01*
X154738796Y-115686400D02*
X154667367Y-115972114D01*
X154667367Y-115972114D02*
X154595939Y-116114971D01*
X154595939Y-116114971D02*
X154524510Y-116186400D01*
X154524510Y-116186400D02*
X154381653Y-116257828D01*
X154381653Y-116257828D02*
X154238796Y-116257828D01*
X154238796Y-116257828D02*
X154095939Y-116186400D01*
X154095939Y-116186400D02*
X154024510Y-116114971D01*
X154024510Y-116114971D02*
X153953081Y-115972114D01*
X153953081Y-115972114D02*
X153881653Y-115686400D01*
X153881653Y-115686400D02*
X153881653Y-115329257D01*
X153881653Y-115329257D02*
X153953081Y-115043542D01*
X153953081Y-115043542D02*
X154024510Y-114900685D01*
X154024510Y-114900685D02*
X154095939Y-114829257D01*
X154095939Y-114829257D02*
X154238796Y-114757828D01*
X141310225Y-117172828D02*
X142167368Y-117172828D01*
X141738796Y-118672828D02*
X141738796Y-117172828D01*
X144310224Y-117887114D02*
X143810224Y-117887114D01*
X143810224Y-118672828D02*
X143810224Y-117172828D01*
X143810224Y-117172828D02*
X144524510Y-117172828D01*
X145381653Y-117172828D02*
X145667367Y-117172828D01*
X145667367Y-117172828D02*
X145810224Y-117244257D01*
X145810224Y-117244257D02*
X145953081Y-117387114D01*
X145953081Y-117387114D02*
X146024510Y-117672828D01*
X146024510Y-117672828D02*
X146024510Y-118172828D01*
X146024510Y-118172828D02*
X145953081Y-118458542D01*
X145953081Y-118458542D02*
X145810224Y-118601400D01*
X145810224Y-118601400D02*
X145667367Y-118672828D01*
X145667367Y-118672828D02*
X145381653Y-118672828D01*
X145381653Y-118672828D02*
X145238796Y-118601400D01*
X145238796Y-118601400D02*
X145095938Y-118458542D01*
X145095938Y-118458542D02*
X145024510Y-118172828D01*
X145024510Y-118172828D02*
X145024510Y-117672828D01*
X145024510Y-117672828D02*
X145095938Y-117387114D01*
X145095938Y-117387114D02*
X145238796Y-117244257D01*
X145238796Y-117244257D02*
X145381653Y-117172828D01*
X146524510Y-117172828D02*
X147524510Y-118672828D01*
X147524510Y-117172828D02*
X146524510Y-118672828D01*
X149167367Y-117315685D02*
X149238795Y-117244257D01*
X149238795Y-117244257D02*
X149381653Y-117172828D01*
X149381653Y-117172828D02*
X149738795Y-117172828D01*
X149738795Y-117172828D02*
X149881653Y-117244257D01*
X149881653Y-117244257D02*
X149953081Y-117315685D01*
X149953081Y-117315685D02*
X150024510Y-117458542D01*
X150024510Y-117458542D02*
X150024510Y-117601400D01*
X150024510Y-117601400D02*
X149953081Y-117815685D01*
X149953081Y-117815685D02*
X149095938Y-118672828D01*
X149095938Y-118672828D02*
X150024510Y-118672828D01*
X150953081Y-117172828D02*
X151095938Y-117172828D01*
X151095938Y-117172828D02*
X151238795Y-117244257D01*
X151238795Y-117244257D02*
X151310224Y-117315685D01*
X151310224Y-117315685D02*
X151381652Y-117458542D01*
X151381652Y-117458542D02*
X151453081Y-117744257D01*
X151453081Y-117744257D02*
X151453081Y-118101400D01*
X151453081Y-118101400D02*
X151381652Y-118387114D01*
X151381652Y-118387114D02*
X151310224Y-118529971D01*
X151310224Y-118529971D02*
X151238795Y-118601400D01*
X151238795Y-118601400D02*
X151095938Y-118672828D01*
X151095938Y-118672828D02*
X150953081Y-118672828D01*
X150953081Y-118672828D02*
X150810224Y-118601400D01*
X150810224Y-118601400D02*
X150738795Y-118529971D01*
X150738795Y-118529971D02*
X150667366Y-118387114D01*
X150667366Y-118387114D02*
X150595938Y-118101400D01*
X150595938Y-118101400D02*
X150595938Y-117744257D01*
X150595938Y-117744257D02*
X150667366Y-117458542D01*
X150667366Y-117458542D02*
X150738795Y-117315685D01*
X150738795Y-117315685D02*
X150810224Y-117244257D01*
X150810224Y-117244257D02*
X150953081Y-117172828D01*
X152024509Y-117315685D02*
X152095937Y-117244257D01*
X152095937Y-117244257D02*
X152238795Y-117172828D01*
X152238795Y-117172828D02*
X152595937Y-117172828D01*
X152595937Y-117172828D02*
X152738795Y-117244257D01*
X152738795Y-117244257D02*
X152810223Y-117315685D01*
X152810223Y-117315685D02*
X152881652Y-117458542D01*
X152881652Y-117458542D02*
X152881652Y-117601400D01*
X152881652Y-117601400D02*
X152810223Y-117815685D01*
X152810223Y-117815685D02*
X151953080Y-118672828D01*
X151953080Y-118672828D02*
X152881652Y-118672828D01*
X153381651Y-117172828D02*
X154310223Y-117172828D01*
X154310223Y-117172828D02*
X153810223Y-117744257D01*
X153810223Y-117744257D02*
X154024508Y-117744257D01*
X154024508Y-117744257D02*
X154167366Y-117815685D01*
X154167366Y-117815685D02*
X154238794Y-117887114D01*
X154238794Y-117887114D02*
X154310223Y-118029971D01*
X154310223Y-118029971D02*
X154310223Y-118387114D01*
X154310223Y-118387114D02*
X154238794Y-118529971D01*
X154238794Y-118529971D02*
X154167366Y-118601400D01*
X154167366Y-118601400D02*
X154024508Y-118672828D01*
X154024508Y-118672828D02*
X153595937Y-118672828D01*
X153595937Y-118672828D02*
X153453080Y-118601400D01*
X153453080Y-118601400D02*
X153381651Y-118529971D01*
D10*
X159213064Y-84721819D02*
X158736874Y-84721819D01*
X158736874Y-84721819D02*
X158689255Y-85198009D01*
X158689255Y-85198009D02*
X158736874Y-85150390D01*
X158736874Y-85150390D02*
X158832112Y-85102771D01*
X158832112Y-85102771D02*
X159070207Y-85102771D01*
X159070207Y-85102771D02*
X159165445Y-85150390D01*
X159165445Y-85150390D02*
X159213064Y-85198009D01*
X159213064Y-85198009D02*
X159260683Y-85293247D01*
X159260683Y-85293247D02*
X159260683Y-85531342D01*
X159260683Y-85531342D02*
X159213064Y-85626580D01*
X159213064Y-85626580D02*
X159165445Y-85674200D01*
X159165445Y-85674200D02*
X159070207Y-85721819D01*
X159070207Y-85721819D02*
X158832112Y-85721819D01*
X158832112Y-85721819D02*
X158736874Y-85674200D01*
X158736874Y-85674200D02*
X158689255Y-85626580D01*
X159546398Y-84721819D02*
X159879731Y-85721819D01*
X159879731Y-85721819D02*
X160213064Y-84721819D01*
X118818180Y-95694667D02*
X117818180Y-95932762D01*
X117818180Y-95932762D02*
X118532466Y-96123238D01*
X118532466Y-96123238D02*
X117818180Y-96313714D01*
X117818180Y-96313714D02*
X118818180Y-96551810D01*
X117818180Y-96932762D02*
X118818180Y-96932762D01*
X118341990Y-96932762D02*
X118341990Y-97504190D01*
X117818180Y-97504190D02*
X118818180Y-97504190D01*
X118818180Y-97837524D02*
X118818180Y-98408952D01*
X117818180Y-98123238D02*
X118818180Y-98123238D01*
X117160561Y-96266095D02*
X117208180Y-96170857D01*
X117208180Y-96170857D02*
X117208180Y-96028000D01*
X117208180Y-96028000D02*
X117160561Y-95885143D01*
X117160561Y-95885143D02*
X117065323Y-95789905D01*
X117065323Y-95789905D02*
X116970085Y-95742286D01*
X116970085Y-95742286D02*
X116779609Y-95694667D01*
X116779609Y-95694667D02*
X116636752Y-95694667D01*
X116636752Y-95694667D02*
X116446276Y-95742286D01*
X116446276Y-95742286D02*
X116351038Y-95789905D01*
X116351038Y-95789905D02*
X116255800Y-95885143D01*
X116255800Y-95885143D02*
X116208180Y-96028000D01*
X116208180Y-96028000D02*
X116208180Y-96123238D01*
X116208180Y-96123238D02*
X116255800Y-96266095D01*
X116255800Y-96266095D02*
X116303419Y-96313714D01*
X116303419Y-96313714D02*
X116636752Y-96313714D01*
X116636752Y-96313714D02*
X116636752Y-96123238D01*
X116208180Y-96742286D02*
X117208180Y-96742286D01*
X117208180Y-96742286D02*
X116208180Y-97313714D01*
X116208180Y-97313714D02*
X117208180Y-97313714D01*
X116208180Y-97789905D02*
X117208180Y-97789905D01*
X117208180Y-97789905D02*
X117208180Y-98028000D01*
X117208180Y-98028000D02*
X117160561Y-98170857D01*
X117160561Y-98170857D02*
X117065323Y-98266095D01*
X117065323Y-98266095D02*
X116970085Y-98313714D01*
X116970085Y-98313714D02*
X116779609Y-98361333D01*
X116779609Y-98361333D02*
X116636752Y-98361333D01*
X116636752Y-98361333D02*
X116446276Y-98313714D01*
X116446276Y-98313714D02*
X116351038Y-98266095D01*
X116351038Y-98266095D02*
X116255800Y-98170857D01*
X116255800Y-98170857D02*
X116208180Y-98028000D01*
X116208180Y-98028000D02*
X116208180Y-97789905D01*
X156927350Y-90547819D02*
X156451160Y-90547819D01*
X156451160Y-90547819D02*
X156451160Y-89547819D01*
X157260684Y-90547819D02*
X157260684Y-89547819D01*
X158260683Y-89595438D02*
X158165445Y-89547819D01*
X158165445Y-89547819D02*
X158022588Y-89547819D01*
X158022588Y-89547819D02*
X157879731Y-89595438D01*
X157879731Y-89595438D02*
X157784493Y-89690676D01*
X157784493Y-89690676D02*
X157736874Y-89785914D01*
X157736874Y-89785914D02*
X157689255Y-89976390D01*
X157689255Y-89976390D02*
X157689255Y-90119247D01*
X157689255Y-90119247D02*
X157736874Y-90309723D01*
X157736874Y-90309723D02*
X157784493Y-90404961D01*
X157784493Y-90404961D02*
X157879731Y-90500200D01*
X157879731Y-90500200D02*
X158022588Y-90547819D01*
X158022588Y-90547819D02*
X158117826Y-90547819D01*
X158117826Y-90547819D02*
X158260683Y-90500200D01*
X158260683Y-90500200D02*
X158308302Y-90452580D01*
X158308302Y-90452580D02*
X158308302Y-90119247D01*
X158308302Y-90119247D02*
X158117826Y-90119247D01*
X158736874Y-90547819D02*
X158736874Y-89547819D01*
X158736874Y-90024009D02*
X159308302Y-90024009D01*
X159308302Y-90547819D02*
X159308302Y-89547819D01*
X159641636Y-89547819D02*
X160213064Y-89547819D01*
X159927350Y-90547819D02*
X159927350Y-89547819D01*
X156451160Y-100707819D02*
X156451160Y-99707819D01*
X156451160Y-99707819D02*
X156689255Y-99707819D01*
X156689255Y-99707819D02*
X156832112Y-99755438D01*
X156832112Y-99755438D02*
X156927350Y-99850676D01*
X156927350Y-99850676D02*
X156974969Y-99945914D01*
X156974969Y-99945914D02*
X157022588Y-100136390D01*
X157022588Y-100136390D02*
X157022588Y-100279247D01*
X157022588Y-100279247D02*
X156974969Y-100469723D01*
X156974969Y-100469723D02*
X156927350Y-100564961D01*
X156927350Y-100564961D02*
X156832112Y-100660200D01*
X156832112Y-100660200D02*
X156689255Y-100707819D01*
X156689255Y-100707819D02*
X156451160Y-100707819D01*
X157641636Y-99707819D02*
X157832112Y-99707819D01*
X157832112Y-99707819D02*
X157927350Y-99755438D01*
X157927350Y-99755438D02*
X158022588Y-99850676D01*
X158022588Y-99850676D02*
X158070207Y-100041152D01*
X158070207Y-100041152D02*
X158070207Y-100374485D01*
X158070207Y-100374485D02*
X158022588Y-100564961D01*
X158022588Y-100564961D02*
X157927350Y-100660200D01*
X157927350Y-100660200D02*
X157832112Y-100707819D01*
X157832112Y-100707819D02*
X157641636Y-100707819D01*
X157641636Y-100707819D02*
X157546398Y-100660200D01*
X157546398Y-100660200D02*
X157451160Y-100564961D01*
X157451160Y-100564961D02*
X157403541Y-100374485D01*
X157403541Y-100374485D02*
X157403541Y-100041152D01*
X157403541Y-100041152D02*
X157451160Y-99850676D01*
X157451160Y-99850676D02*
X157546398Y-99755438D01*
X157546398Y-99755438D02*
X157641636Y-99707819D01*
X158689255Y-99707819D02*
X158879731Y-99707819D01*
X158879731Y-99707819D02*
X158974969Y-99755438D01*
X158974969Y-99755438D02*
X159070207Y-99850676D01*
X159070207Y-99850676D02*
X159117826Y-100041152D01*
X159117826Y-100041152D02*
X159117826Y-100374485D01*
X159117826Y-100374485D02*
X159070207Y-100564961D01*
X159070207Y-100564961D02*
X158974969Y-100660200D01*
X158974969Y-100660200D02*
X158879731Y-100707819D01*
X158879731Y-100707819D02*
X158689255Y-100707819D01*
X158689255Y-100707819D02*
X158594017Y-100660200D01*
X158594017Y-100660200D02*
X158498779Y-100564961D01*
X158498779Y-100564961D02*
X158451160Y-100374485D01*
X158451160Y-100374485D02*
X158451160Y-100041152D01*
X158451160Y-100041152D02*
X158498779Y-99850676D01*
X158498779Y-99850676D02*
X158594017Y-99755438D01*
X158594017Y-99755438D02*
X158689255Y-99707819D01*
X160117826Y-100707819D02*
X159784493Y-100231628D01*
X159546398Y-100707819D02*
X159546398Y-99707819D01*
X159546398Y-99707819D02*
X159927350Y-99707819D01*
X159927350Y-99707819D02*
X160022588Y-99755438D01*
X160022588Y-99755438D02*
X160070207Y-99803057D01*
X160070207Y-99803057D02*
X160117826Y-99898295D01*
X160117826Y-99898295D02*
X160117826Y-100041152D01*
X160117826Y-100041152D02*
X160070207Y-100136390D01*
X160070207Y-100136390D02*
X160022588Y-100184009D01*
X160022588Y-100184009D02*
X159927350Y-100231628D01*
X159927350Y-100231628D02*
X159546398Y-100231628D01*
X153403541Y-107581819D02*
X153641636Y-108581819D01*
X153641636Y-108581819D02*
X153832112Y-107867533D01*
X153832112Y-107867533D02*
X154022588Y-108581819D01*
X154022588Y-108581819D02*
X154260684Y-107581819D01*
X154641636Y-108581819D02*
X154641636Y-107581819D01*
X154641636Y-108058009D02*
X155213064Y-108058009D01*
X155213064Y-108581819D02*
X155213064Y-107581819D01*
X155546398Y-107581819D02*
X156117826Y-107581819D01*
X155832112Y-108581819D02*
X155832112Y-107581819D01*
X157165445Y-107534200D02*
X156308303Y-108819914D01*
X158022588Y-107629438D02*
X157927350Y-107581819D01*
X157927350Y-107581819D02*
X157784493Y-107581819D01*
X157784493Y-107581819D02*
X157641636Y-107629438D01*
X157641636Y-107629438D02*
X157546398Y-107724676D01*
X157546398Y-107724676D02*
X157498779Y-107819914D01*
X157498779Y-107819914D02*
X157451160Y-108010390D01*
X157451160Y-108010390D02*
X157451160Y-108153247D01*
X157451160Y-108153247D02*
X157498779Y-108343723D01*
X157498779Y-108343723D02*
X157546398Y-108438961D01*
X157546398Y-108438961D02*
X157641636Y-108534200D01*
X157641636Y-108534200D02*
X157784493Y-108581819D01*
X157784493Y-108581819D02*
X157879731Y-108581819D01*
X157879731Y-108581819D02*
X158022588Y-108534200D01*
X158022588Y-108534200D02*
X158070207Y-108486580D01*
X158070207Y-108486580D02*
X158070207Y-108153247D01*
X158070207Y-108153247D02*
X157879731Y-108153247D01*
X158498779Y-108581819D02*
X158498779Y-107581819D01*
X158498779Y-107581819D02*
X159070207Y-108581819D01*
X159070207Y-108581819D02*
X159070207Y-107581819D01*
X159546398Y-108581819D02*
X159546398Y-107581819D01*
X159546398Y-107581819D02*
X159784493Y-107581819D01*
X159784493Y-107581819D02*
X159927350Y-107629438D01*
X159927350Y-107629438D02*
X160022588Y-107724676D01*
X160022588Y-107724676D02*
X160070207Y-107819914D01*
X160070207Y-107819914D02*
X160117826Y-108010390D01*
X160117826Y-108010390D02*
X160117826Y-108153247D01*
X160117826Y-108153247D02*
X160070207Y-108343723D01*
X160070207Y-108343723D02*
X160022588Y-108438961D01*
X160022588Y-108438961D02*
X159927350Y-108534200D01*
X159927350Y-108534200D02*
X159784493Y-108581819D01*
X159784493Y-108581819D02*
X159546398Y-108581819D01*
X157689255Y-87007819D02*
X158308302Y-87007819D01*
X158308302Y-87007819D02*
X157974969Y-87388771D01*
X157974969Y-87388771D02*
X158117826Y-87388771D01*
X158117826Y-87388771D02*
X158213064Y-87436390D01*
X158213064Y-87436390D02*
X158260683Y-87484009D01*
X158260683Y-87484009D02*
X158308302Y-87579247D01*
X158308302Y-87579247D02*
X158308302Y-87817342D01*
X158308302Y-87817342D02*
X158260683Y-87912580D01*
X158260683Y-87912580D02*
X158213064Y-87960200D01*
X158213064Y-87960200D02*
X158117826Y-88007819D01*
X158117826Y-88007819D02*
X157832112Y-88007819D01*
X157832112Y-88007819D02*
X157736874Y-87960200D01*
X157736874Y-87960200D02*
X157689255Y-87912580D01*
X158594017Y-87007819D02*
X158927350Y-88007819D01*
X158927350Y-88007819D02*
X159260683Y-87007819D01*
X159498779Y-87007819D02*
X160117826Y-87007819D01*
X160117826Y-87007819D02*
X159784493Y-87388771D01*
X159784493Y-87388771D02*
X159927350Y-87388771D01*
X159927350Y-87388771D02*
X160022588Y-87436390D01*
X160022588Y-87436390D02*
X160070207Y-87484009D01*
X160070207Y-87484009D02*
X160117826Y-87579247D01*
X160117826Y-87579247D02*
X160117826Y-87817342D01*
X160117826Y-87817342D02*
X160070207Y-87912580D01*
X160070207Y-87912580D02*
X160022588Y-87960200D01*
X160022588Y-87960200D02*
X159927350Y-88007819D01*
X159927350Y-88007819D02*
X159641636Y-88007819D01*
X159641636Y-88007819D02*
X159546398Y-87960200D01*
X159546398Y-87960200D02*
X159498779Y-87912580D01*
X156736874Y-94881819D02*
X156927350Y-94881819D01*
X156927350Y-94881819D02*
X157022588Y-94929438D01*
X157022588Y-94929438D02*
X157117826Y-95024676D01*
X157117826Y-95024676D02*
X157165445Y-95215152D01*
X157165445Y-95215152D02*
X157165445Y-95548485D01*
X157165445Y-95548485D02*
X157117826Y-95738961D01*
X157117826Y-95738961D02*
X157022588Y-95834200D01*
X157022588Y-95834200D02*
X156927350Y-95881819D01*
X156927350Y-95881819D02*
X156736874Y-95881819D01*
X156736874Y-95881819D02*
X156641636Y-95834200D01*
X156641636Y-95834200D02*
X156546398Y-95738961D01*
X156546398Y-95738961D02*
X156498779Y-95548485D01*
X156498779Y-95548485D02*
X156498779Y-95215152D01*
X156498779Y-95215152D02*
X156546398Y-95024676D01*
X156546398Y-95024676D02*
X156641636Y-94929438D01*
X156641636Y-94929438D02*
X156736874Y-94881819D01*
X157594017Y-95881819D02*
X157594017Y-94881819D01*
X157594017Y-94881819D02*
X157974969Y-94881819D01*
X157974969Y-94881819D02*
X158070207Y-94929438D01*
X158070207Y-94929438D02*
X158117826Y-94977057D01*
X158117826Y-94977057D02*
X158165445Y-95072295D01*
X158165445Y-95072295D02*
X158165445Y-95215152D01*
X158165445Y-95215152D02*
X158117826Y-95310390D01*
X158117826Y-95310390D02*
X158070207Y-95358009D01*
X158070207Y-95358009D02*
X157974969Y-95405628D01*
X157974969Y-95405628D02*
X157594017Y-95405628D01*
X158594017Y-95358009D02*
X158927350Y-95358009D01*
X159070207Y-95881819D02*
X158594017Y-95881819D01*
X158594017Y-95881819D02*
X158594017Y-94881819D01*
X158594017Y-94881819D02*
X159070207Y-94881819D01*
X159498779Y-95881819D02*
X159498779Y-94881819D01*
X159498779Y-94881819D02*
X160070207Y-95881819D01*
X160070207Y-95881819D02*
X160070207Y-94881819D01*
X153260683Y-102724009D02*
X153403540Y-102771628D01*
X153403540Y-102771628D02*
X153451159Y-102819247D01*
X153451159Y-102819247D02*
X153498778Y-102914485D01*
X153498778Y-102914485D02*
X153498778Y-103057342D01*
X153498778Y-103057342D02*
X153451159Y-103152580D01*
X153451159Y-103152580D02*
X153403540Y-103200200D01*
X153403540Y-103200200D02*
X153308302Y-103247819D01*
X153308302Y-103247819D02*
X152927350Y-103247819D01*
X152927350Y-103247819D02*
X152927350Y-102247819D01*
X152927350Y-102247819D02*
X153260683Y-102247819D01*
X153260683Y-102247819D02*
X153355921Y-102295438D01*
X153355921Y-102295438D02*
X153403540Y-102343057D01*
X153403540Y-102343057D02*
X153451159Y-102438295D01*
X153451159Y-102438295D02*
X153451159Y-102533533D01*
X153451159Y-102533533D02*
X153403540Y-102628771D01*
X153403540Y-102628771D02*
X153355921Y-102676390D01*
X153355921Y-102676390D02*
X153260683Y-102724009D01*
X153260683Y-102724009D02*
X152927350Y-102724009D01*
X154403540Y-103247819D02*
X153927350Y-103247819D01*
X153927350Y-103247819D02*
X153927350Y-102247819D01*
X154736874Y-103247819D02*
X154736874Y-102247819D01*
X155308302Y-103247819D02*
X154879731Y-102676390D01*
X155308302Y-102247819D02*
X154736874Y-102819247D01*
X156451159Y-102200200D02*
X155594017Y-103485914D01*
X156974969Y-102247819D02*
X157165445Y-102247819D01*
X157165445Y-102247819D02*
X157260683Y-102295438D01*
X157260683Y-102295438D02*
X157355921Y-102390676D01*
X157355921Y-102390676D02*
X157403540Y-102581152D01*
X157403540Y-102581152D02*
X157403540Y-102914485D01*
X157403540Y-102914485D02*
X157355921Y-103104961D01*
X157355921Y-103104961D02*
X157260683Y-103200200D01*
X157260683Y-103200200D02*
X157165445Y-103247819D01*
X157165445Y-103247819D02*
X156974969Y-103247819D01*
X156974969Y-103247819D02*
X156879731Y-103200200D01*
X156879731Y-103200200D02*
X156784493Y-103104961D01*
X156784493Y-103104961D02*
X156736874Y-102914485D01*
X156736874Y-102914485D02*
X156736874Y-102581152D01*
X156736874Y-102581152D02*
X156784493Y-102390676D01*
X156784493Y-102390676D02*
X156879731Y-102295438D01*
X156879731Y-102295438D02*
X156974969Y-102247819D01*
X158165445Y-102724009D02*
X158308302Y-102771628D01*
X158308302Y-102771628D02*
X158355921Y-102819247D01*
X158355921Y-102819247D02*
X158403540Y-102914485D01*
X158403540Y-102914485D02*
X158403540Y-103057342D01*
X158403540Y-103057342D02*
X158355921Y-103152580D01*
X158355921Y-103152580D02*
X158308302Y-103200200D01*
X158308302Y-103200200D02*
X158213064Y-103247819D01*
X158213064Y-103247819D02*
X157832112Y-103247819D01*
X157832112Y-103247819D02*
X157832112Y-102247819D01*
X157832112Y-102247819D02*
X158165445Y-102247819D01*
X158165445Y-102247819D02*
X158260683Y-102295438D01*
X158260683Y-102295438D02*
X158308302Y-102343057D01*
X158308302Y-102343057D02*
X158355921Y-102438295D01*
X158355921Y-102438295D02*
X158355921Y-102533533D01*
X158355921Y-102533533D02*
X158308302Y-102628771D01*
X158308302Y-102628771D02*
X158260683Y-102676390D01*
X158260683Y-102676390D02*
X158165445Y-102724009D01*
X158165445Y-102724009D02*
X157832112Y-102724009D01*
X158784493Y-103200200D02*
X158927350Y-103247819D01*
X158927350Y-103247819D02*
X159165445Y-103247819D01*
X159165445Y-103247819D02*
X159260683Y-103200200D01*
X159260683Y-103200200D02*
X159308302Y-103152580D01*
X159308302Y-103152580D02*
X159355921Y-103057342D01*
X159355921Y-103057342D02*
X159355921Y-102962104D01*
X159355921Y-102962104D02*
X159308302Y-102866866D01*
X159308302Y-102866866D02*
X159260683Y-102819247D01*
X159260683Y-102819247D02*
X159165445Y-102771628D01*
X159165445Y-102771628D02*
X158974969Y-102724009D01*
X158974969Y-102724009D02*
X158879731Y-102676390D01*
X158879731Y-102676390D02*
X158832112Y-102628771D01*
X158832112Y-102628771D02*
X158784493Y-102533533D01*
X158784493Y-102533533D02*
X158784493Y-102438295D01*
X158784493Y-102438295D02*
X158832112Y-102343057D01*
X158832112Y-102343057D02*
X158879731Y-102295438D01*
X158879731Y-102295438D02*
X158974969Y-102247819D01*
X158974969Y-102247819D02*
X159213064Y-102247819D01*
X159213064Y-102247819D02*
X159355921Y-102295438D01*
X159641636Y-102247819D02*
X160213064Y-102247819D01*
X159927350Y-103247819D02*
X159927350Y-102247819D01*
X118341990Y-106354666D02*
X118294371Y-106497523D01*
X118294371Y-106497523D02*
X118246752Y-106545142D01*
X118246752Y-106545142D02*
X118151514Y-106592761D01*
X118151514Y-106592761D02*
X118008657Y-106592761D01*
X118008657Y-106592761D02*
X117913419Y-106545142D01*
X117913419Y-106545142D02*
X117865800Y-106497523D01*
X117865800Y-106497523D02*
X117818180Y-106402285D01*
X117818180Y-106402285D02*
X117818180Y-106021333D01*
X117818180Y-106021333D02*
X118818180Y-106021333D01*
X118818180Y-106021333D02*
X118818180Y-106354666D01*
X118818180Y-106354666D02*
X118770561Y-106449904D01*
X118770561Y-106449904D02*
X118722942Y-106497523D01*
X118722942Y-106497523D02*
X118627704Y-106545142D01*
X118627704Y-106545142D02*
X118532466Y-106545142D01*
X118532466Y-106545142D02*
X118437228Y-106497523D01*
X118437228Y-106497523D02*
X118389609Y-106449904D01*
X118389609Y-106449904D02*
X118341990Y-106354666D01*
X118341990Y-106354666D02*
X118341990Y-106021333D01*
X117818180Y-107497523D02*
X117818180Y-107021333D01*
X117818180Y-107021333D02*
X118818180Y-107021333D01*
X117818180Y-107830857D02*
X118818180Y-107830857D01*
X117818180Y-108402285D02*
X118389609Y-107973714D01*
X118818180Y-108402285D02*
X118246752Y-107830857D01*
X117208180Y-105735619D02*
X117208180Y-105926095D01*
X117208180Y-105926095D02*
X117160561Y-106021333D01*
X117160561Y-106021333D02*
X117065323Y-106116571D01*
X117065323Y-106116571D02*
X116874847Y-106164190D01*
X116874847Y-106164190D02*
X116541514Y-106164190D01*
X116541514Y-106164190D02*
X116351038Y-106116571D01*
X116351038Y-106116571D02*
X116255800Y-106021333D01*
X116255800Y-106021333D02*
X116208180Y-105926095D01*
X116208180Y-105926095D02*
X116208180Y-105735619D01*
X116208180Y-105735619D02*
X116255800Y-105640381D01*
X116255800Y-105640381D02*
X116351038Y-105545143D01*
X116351038Y-105545143D02*
X116541514Y-105497524D01*
X116541514Y-105497524D02*
X116874847Y-105497524D01*
X116874847Y-105497524D02*
X117065323Y-105545143D01*
X117065323Y-105545143D02*
X117160561Y-105640381D01*
X117160561Y-105640381D02*
X117208180Y-105735619D01*
X116731990Y-106926095D02*
X116684371Y-107068952D01*
X116684371Y-107068952D02*
X116636752Y-107116571D01*
X116636752Y-107116571D02*
X116541514Y-107164190D01*
X116541514Y-107164190D02*
X116398657Y-107164190D01*
X116398657Y-107164190D02*
X116303419Y-107116571D01*
X116303419Y-107116571D02*
X116255800Y-107068952D01*
X116255800Y-107068952D02*
X116208180Y-106973714D01*
X116208180Y-106973714D02*
X116208180Y-106592762D01*
X116208180Y-106592762D02*
X117208180Y-106592762D01*
X117208180Y-106592762D02*
X117208180Y-106926095D01*
X117208180Y-106926095D02*
X117160561Y-107021333D01*
X117160561Y-107021333D02*
X117112942Y-107068952D01*
X117112942Y-107068952D02*
X117017704Y-107116571D01*
X117017704Y-107116571D02*
X116922466Y-107116571D01*
X116922466Y-107116571D02*
X116827228Y-107068952D01*
X116827228Y-107068952D02*
X116779609Y-107021333D01*
X116779609Y-107021333D02*
X116731990Y-106926095D01*
X116731990Y-106926095D02*
X116731990Y-106592762D01*
X116255800Y-107545143D02*
X116208180Y-107688000D01*
X116208180Y-107688000D02*
X116208180Y-107926095D01*
X116208180Y-107926095D02*
X116255800Y-108021333D01*
X116255800Y-108021333D02*
X116303419Y-108068952D01*
X116303419Y-108068952D02*
X116398657Y-108116571D01*
X116398657Y-108116571D02*
X116493895Y-108116571D01*
X116493895Y-108116571D02*
X116589133Y-108068952D01*
X116589133Y-108068952D02*
X116636752Y-108021333D01*
X116636752Y-108021333D02*
X116684371Y-107926095D01*
X116684371Y-107926095D02*
X116731990Y-107735619D01*
X116731990Y-107735619D02*
X116779609Y-107640381D01*
X116779609Y-107640381D02*
X116827228Y-107592762D01*
X116827228Y-107592762D02*
X116922466Y-107545143D01*
X116922466Y-107545143D02*
X117017704Y-107545143D01*
X117017704Y-107545143D02*
X117112942Y-107592762D01*
X117112942Y-107592762D02*
X117160561Y-107640381D01*
X117160561Y-107640381D02*
X117208180Y-107735619D01*
X117208180Y-107735619D02*
X117208180Y-107973714D01*
X117208180Y-107973714D02*
X117160561Y-108116571D01*
X117208180Y-108402286D02*
X117208180Y-108973714D01*
X116208180Y-108688000D02*
X117208180Y-108688000D01*
X156974969Y-97167819D02*
X157165445Y-97167819D01*
X157165445Y-97167819D02*
X157260683Y-97215438D01*
X157260683Y-97215438D02*
X157355921Y-97310676D01*
X157355921Y-97310676D02*
X157403540Y-97501152D01*
X157403540Y-97501152D02*
X157403540Y-97834485D01*
X157403540Y-97834485D02*
X157355921Y-98024961D01*
X157355921Y-98024961D02*
X157260683Y-98120200D01*
X157260683Y-98120200D02*
X157165445Y-98167819D01*
X157165445Y-98167819D02*
X156974969Y-98167819D01*
X156974969Y-98167819D02*
X156879731Y-98120200D01*
X156879731Y-98120200D02*
X156784493Y-98024961D01*
X156784493Y-98024961D02*
X156736874Y-97834485D01*
X156736874Y-97834485D02*
X156736874Y-97501152D01*
X156736874Y-97501152D02*
X156784493Y-97310676D01*
X156784493Y-97310676D02*
X156879731Y-97215438D01*
X156879731Y-97215438D02*
X156974969Y-97167819D01*
X158165445Y-97644009D02*
X158308302Y-97691628D01*
X158308302Y-97691628D02*
X158355921Y-97739247D01*
X158355921Y-97739247D02*
X158403540Y-97834485D01*
X158403540Y-97834485D02*
X158403540Y-97977342D01*
X158403540Y-97977342D02*
X158355921Y-98072580D01*
X158355921Y-98072580D02*
X158308302Y-98120200D01*
X158308302Y-98120200D02*
X158213064Y-98167819D01*
X158213064Y-98167819D02*
X157832112Y-98167819D01*
X157832112Y-98167819D02*
X157832112Y-97167819D01*
X157832112Y-97167819D02*
X158165445Y-97167819D01*
X158165445Y-97167819D02*
X158260683Y-97215438D01*
X158260683Y-97215438D02*
X158308302Y-97263057D01*
X158308302Y-97263057D02*
X158355921Y-97358295D01*
X158355921Y-97358295D02*
X158355921Y-97453533D01*
X158355921Y-97453533D02*
X158308302Y-97548771D01*
X158308302Y-97548771D02*
X158260683Y-97596390D01*
X158260683Y-97596390D02*
X158165445Y-97644009D01*
X158165445Y-97644009D02*
X157832112Y-97644009D01*
X158784493Y-98120200D02*
X158927350Y-98167819D01*
X158927350Y-98167819D02*
X159165445Y-98167819D01*
X159165445Y-98167819D02*
X159260683Y-98120200D01*
X159260683Y-98120200D02*
X159308302Y-98072580D01*
X159308302Y-98072580D02*
X159355921Y-97977342D01*
X159355921Y-97977342D02*
X159355921Y-97882104D01*
X159355921Y-97882104D02*
X159308302Y-97786866D01*
X159308302Y-97786866D02*
X159260683Y-97739247D01*
X159260683Y-97739247D02*
X159165445Y-97691628D01*
X159165445Y-97691628D02*
X158974969Y-97644009D01*
X158974969Y-97644009D02*
X158879731Y-97596390D01*
X158879731Y-97596390D02*
X158832112Y-97548771D01*
X158832112Y-97548771D02*
X158784493Y-97453533D01*
X158784493Y-97453533D02*
X158784493Y-97358295D01*
X158784493Y-97358295D02*
X158832112Y-97263057D01*
X158832112Y-97263057D02*
X158879731Y-97215438D01*
X158879731Y-97215438D02*
X158974969Y-97167819D01*
X158974969Y-97167819D02*
X159213064Y-97167819D01*
X159213064Y-97167819D02*
X159355921Y-97215438D01*
X159641636Y-97167819D02*
X160213064Y-97167819D01*
X159927350Y-98167819D02*
X159927350Y-97167819D01*
X156403540Y-92992580D02*
X156355921Y-93040200D01*
X156355921Y-93040200D02*
X156213064Y-93087819D01*
X156213064Y-93087819D02*
X156117826Y-93087819D01*
X156117826Y-93087819D02*
X155974969Y-93040200D01*
X155974969Y-93040200D02*
X155879731Y-92944961D01*
X155879731Y-92944961D02*
X155832112Y-92849723D01*
X155832112Y-92849723D02*
X155784493Y-92659247D01*
X155784493Y-92659247D02*
X155784493Y-92516390D01*
X155784493Y-92516390D02*
X155832112Y-92325914D01*
X155832112Y-92325914D02*
X155879731Y-92230676D01*
X155879731Y-92230676D02*
X155974969Y-92135438D01*
X155974969Y-92135438D02*
X156117826Y-92087819D01*
X156117826Y-92087819D02*
X156213064Y-92087819D01*
X156213064Y-92087819D02*
X156355921Y-92135438D01*
X156355921Y-92135438D02*
X156403540Y-92183057D01*
X157308302Y-93087819D02*
X156832112Y-93087819D01*
X156832112Y-93087819D02*
X156832112Y-92087819D01*
X157832112Y-92087819D02*
X158022588Y-92087819D01*
X158022588Y-92087819D02*
X158117826Y-92135438D01*
X158117826Y-92135438D02*
X158213064Y-92230676D01*
X158213064Y-92230676D02*
X158260683Y-92421152D01*
X158260683Y-92421152D02*
X158260683Y-92754485D01*
X158260683Y-92754485D02*
X158213064Y-92944961D01*
X158213064Y-92944961D02*
X158117826Y-93040200D01*
X158117826Y-93040200D02*
X158022588Y-93087819D01*
X158022588Y-93087819D02*
X157832112Y-93087819D01*
X157832112Y-93087819D02*
X157736874Y-93040200D01*
X157736874Y-93040200D02*
X157641636Y-92944961D01*
X157641636Y-92944961D02*
X157594017Y-92754485D01*
X157594017Y-92754485D02*
X157594017Y-92421152D01*
X157594017Y-92421152D02*
X157641636Y-92230676D01*
X157641636Y-92230676D02*
X157736874Y-92135438D01*
X157736874Y-92135438D02*
X157832112Y-92087819D01*
X158641636Y-93040200D02*
X158784493Y-93087819D01*
X158784493Y-93087819D02*
X159022588Y-93087819D01*
X159022588Y-93087819D02*
X159117826Y-93040200D01*
X159117826Y-93040200D02*
X159165445Y-92992580D01*
X159165445Y-92992580D02*
X159213064Y-92897342D01*
X159213064Y-92897342D02*
X159213064Y-92802104D01*
X159213064Y-92802104D02*
X159165445Y-92706866D01*
X159165445Y-92706866D02*
X159117826Y-92659247D01*
X159117826Y-92659247D02*
X159022588Y-92611628D01*
X159022588Y-92611628D02*
X158832112Y-92564009D01*
X158832112Y-92564009D02*
X158736874Y-92516390D01*
X158736874Y-92516390D02*
X158689255Y-92468771D01*
X158689255Y-92468771D02*
X158641636Y-92373533D01*
X158641636Y-92373533D02*
X158641636Y-92278295D01*
X158641636Y-92278295D02*
X158689255Y-92183057D01*
X158689255Y-92183057D02*
X158736874Y-92135438D01*
X158736874Y-92135438D02*
X158832112Y-92087819D01*
X158832112Y-92087819D02*
X159070207Y-92087819D01*
X159070207Y-92087819D02*
X159213064Y-92135438D01*
X159641636Y-92564009D02*
X159974969Y-92564009D01*
X160117826Y-93087819D02*
X159641636Y-93087819D01*
X159641636Y-93087819D02*
X159641636Y-92087819D01*
X159641636Y-92087819D02*
X160117826Y-92087819D01*
X130984666Y-111214819D02*
X130984666Y-111929104D01*
X130984666Y-111929104D02*
X130937047Y-112071961D01*
X130937047Y-112071961D02*
X130841809Y-112167200D01*
X130841809Y-112167200D02*
X130698952Y-112214819D01*
X130698952Y-112214819D02*
X130603714Y-112214819D01*
X131365619Y-111214819D02*
X131984666Y-111214819D01*
X131984666Y-111214819D02*
X131651333Y-111595771D01*
X131651333Y-111595771D02*
X131794190Y-111595771D01*
X131794190Y-111595771D02*
X131889428Y-111643390D01*
X131889428Y-111643390D02*
X131937047Y-111691009D01*
X131937047Y-111691009D02*
X131984666Y-111786247D01*
X131984666Y-111786247D02*
X131984666Y-112024342D01*
X131984666Y-112024342D02*
X131937047Y-112119580D01*
X131937047Y-112119580D02*
X131889428Y-112167200D01*
X131889428Y-112167200D02*
X131794190Y-112214819D01*
X131794190Y-112214819D02*
X131508476Y-112214819D01*
X131508476Y-112214819D02*
X131413238Y-112167200D01*
X131413238Y-112167200D02*
X131365619Y-112119580D01*
X162139333Y-71828819D02*
X161806000Y-71352628D01*
X161567905Y-71828819D02*
X161567905Y-70828819D01*
X161567905Y-70828819D02*
X161948857Y-70828819D01*
X161948857Y-70828819D02*
X162044095Y-70876438D01*
X162044095Y-70876438D02*
X162091714Y-70924057D01*
X162091714Y-70924057D02*
X162139333Y-71019295D01*
X162139333Y-71019295D02*
X162139333Y-71162152D01*
X162139333Y-71162152D02*
X162091714Y-71257390D01*
X162091714Y-71257390D02*
X162044095Y-71305009D01*
X162044095Y-71305009D02*
X161948857Y-71352628D01*
X161948857Y-71352628D02*
X161567905Y-71352628D01*
X162472667Y-70828819D02*
X163091714Y-70828819D01*
X163091714Y-70828819D02*
X162758381Y-71209771D01*
X162758381Y-71209771D02*
X162901238Y-71209771D01*
X162901238Y-71209771D02*
X162996476Y-71257390D01*
X162996476Y-71257390D02*
X163044095Y-71305009D01*
X163044095Y-71305009D02*
X163091714Y-71400247D01*
X163091714Y-71400247D02*
X163091714Y-71638342D01*
X163091714Y-71638342D02*
X163044095Y-71733580D01*
X163044095Y-71733580D02*
X162996476Y-71781200D01*
X162996476Y-71781200D02*
X162901238Y-71828819D01*
X162901238Y-71828819D02*
X162615524Y-71828819D01*
X162615524Y-71828819D02*
X162520286Y-71781200D01*
X162520286Y-71781200D02*
X162472667Y-71733580D01*
X119792761Y-71162057D02*
X119697523Y-71114438D01*
X119697523Y-71114438D02*
X119602285Y-71019200D01*
X119602285Y-71019200D02*
X119459428Y-70876342D01*
X119459428Y-70876342D02*
X119364190Y-70828723D01*
X119364190Y-70828723D02*
X119268952Y-70828723D01*
X119316571Y-71066819D02*
X119221333Y-71019200D01*
X119221333Y-71019200D02*
X119126095Y-70923961D01*
X119126095Y-70923961D02*
X119078476Y-70733485D01*
X119078476Y-70733485D02*
X119078476Y-70400152D01*
X119078476Y-70400152D02*
X119126095Y-70209676D01*
X119126095Y-70209676D02*
X119221333Y-70114438D01*
X119221333Y-70114438D02*
X119316571Y-70066819D01*
X119316571Y-70066819D02*
X119507047Y-70066819D01*
X119507047Y-70066819D02*
X119602285Y-70114438D01*
X119602285Y-70114438D02*
X119697523Y-70209676D01*
X119697523Y-70209676D02*
X119745142Y-70400152D01*
X119745142Y-70400152D02*
X119745142Y-70733485D01*
X119745142Y-70733485D02*
X119697523Y-70923961D01*
X119697523Y-70923961D02*
X119602285Y-71019200D01*
X119602285Y-71019200D02*
X119507047Y-71066819D01*
X119507047Y-71066819D02*
X119316571Y-71066819D01*
X120078476Y-70066819D02*
X120697523Y-70066819D01*
X120697523Y-70066819D02*
X120364190Y-70447771D01*
X120364190Y-70447771D02*
X120507047Y-70447771D01*
X120507047Y-70447771D02*
X120602285Y-70495390D01*
X120602285Y-70495390D02*
X120649904Y-70543009D01*
X120649904Y-70543009D02*
X120697523Y-70638247D01*
X120697523Y-70638247D02*
X120697523Y-70876342D01*
X120697523Y-70876342D02*
X120649904Y-70971580D01*
X120649904Y-70971580D02*
X120602285Y-71019200D01*
X120602285Y-71019200D02*
X120507047Y-71066819D01*
X120507047Y-71066819D02*
X120221333Y-71066819D01*
X120221333Y-71066819D02*
X120126095Y-71019200D01*
X120126095Y-71019200D02*
X120078476Y-70971580D01*
X145438905Y-101038819D02*
X145438905Y-100038819D01*
X145438905Y-100038819D02*
X145677000Y-100038819D01*
X145677000Y-100038819D02*
X145819857Y-100086438D01*
X145819857Y-100086438D02*
X145915095Y-100181676D01*
X145915095Y-100181676D02*
X145962714Y-100276914D01*
X145962714Y-100276914D02*
X146010333Y-100467390D01*
X146010333Y-100467390D02*
X146010333Y-100610247D01*
X146010333Y-100610247D02*
X145962714Y-100800723D01*
X145962714Y-100800723D02*
X145915095Y-100895961D01*
X145915095Y-100895961D02*
X145819857Y-100991200D01*
X145819857Y-100991200D02*
X145677000Y-101038819D01*
X145677000Y-101038819D02*
X145438905Y-101038819D01*
X146962714Y-101038819D02*
X146391286Y-101038819D01*
X146677000Y-101038819D02*
X146677000Y-100038819D01*
X146677000Y-100038819D02*
X146581762Y-100181676D01*
X146581762Y-100181676D02*
X146486524Y-100276914D01*
X146486524Y-100276914D02*
X146391286Y-100324533D01*
X150785595Y-92494819D02*
X150785595Y-93304342D01*
X150785595Y-93304342D02*
X150833214Y-93399580D01*
X150833214Y-93399580D02*
X150880833Y-93447200D01*
X150880833Y-93447200D02*
X150976071Y-93494819D01*
X150976071Y-93494819D02*
X151166547Y-93494819D01*
X151166547Y-93494819D02*
X151261785Y-93447200D01*
X151261785Y-93447200D02*
X151309404Y-93399580D01*
X151309404Y-93399580D02*
X151357023Y-93304342D01*
X151357023Y-93304342D02*
X151357023Y-92494819D01*
X152357023Y-93494819D02*
X151785595Y-93494819D01*
X152071309Y-93494819D02*
X152071309Y-92494819D01*
X152071309Y-92494819D02*
X151976071Y-92637676D01*
X151976071Y-92637676D02*
X151880833Y-92732914D01*
X151880833Y-92732914D02*
X151785595Y-92780533D01*
X119792761Y-87169057D02*
X119697523Y-87121438D01*
X119697523Y-87121438D02*
X119602285Y-87026200D01*
X119602285Y-87026200D02*
X119459428Y-86883342D01*
X119459428Y-86883342D02*
X119364190Y-86835723D01*
X119364190Y-86835723D02*
X119268952Y-86835723D01*
X119316571Y-87073819D02*
X119221333Y-87026200D01*
X119221333Y-87026200D02*
X119126095Y-86930961D01*
X119126095Y-86930961D02*
X119078476Y-86740485D01*
X119078476Y-86740485D02*
X119078476Y-86407152D01*
X119078476Y-86407152D02*
X119126095Y-86216676D01*
X119126095Y-86216676D02*
X119221333Y-86121438D01*
X119221333Y-86121438D02*
X119316571Y-86073819D01*
X119316571Y-86073819D02*
X119507047Y-86073819D01*
X119507047Y-86073819D02*
X119602285Y-86121438D01*
X119602285Y-86121438D02*
X119697523Y-86216676D01*
X119697523Y-86216676D02*
X119745142Y-86407152D01*
X119745142Y-86407152D02*
X119745142Y-86740485D01*
X119745142Y-86740485D02*
X119697523Y-86930961D01*
X119697523Y-86930961D02*
X119602285Y-87026200D01*
X119602285Y-87026200D02*
X119507047Y-87073819D01*
X119507047Y-87073819D02*
X119316571Y-87073819D01*
X120602285Y-86407152D02*
X120602285Y-87073819D01*
X120364190Y-86026200D02*
X120126095Y-86740485D01*
X120126095Y-86740485D02*
X120745142Y-86740485D01*
X145438905Y-98498819D02*
X145438905Y-97498819D01*
X145438905Y-97498819D02*
X145677000Y-97498819D01*
X145677000Y-97498819D02*
X145819857Y-97546438D01*
X145819857Y-97546438D02*
X145915095Y-97641676D01*
X145915095Y-97641676D02*
X145962714Y-97736914D01*
X145962714Y-97736914D02*
X146010333Y-97927390D01*
X146010333Y-97927390D02*
X146010333Y-98070247D01*
X146010333Y-98070247D02*
X145962714Y-98260723D01*
X145962714Y-98260723D02*
X145915095Y-98355961D01*
X145915095Y-98355961D02*
X145819857Y-98451200D01*
X145819857Y-98451200D02*
X145677000Y-98498819D01*
X145677000Y-98498819D02*
X145438905Y-98498819D01*
X146391286Y-97594057D02*
X146438905Y-97546438D01*
X146438905Y-97546438D02*
X146534143Y-97498819D01*
X146534143Y-97498819D02*
X146772238Y-97498819D01*
X146772238Y-97498819D02*
X146867476Y-97546438D01*
X146867476Y-97546438D02*
X146915095Y-97594057D01*
X146915095Y-97594057D02*
X146962714Y-97689295D01*
X146962714Y-97689295D02*
X146962714Y-97784533D01*
X146962714Y-97784533D02*
X146915095Y-97927390D01*
X146915095Y-97927390D02*
X146343667Y-98498819D01*
X146343667Y-98498819D02*
X146962714Y-98498819D01*
X162234571Y-75132900D02*
X162139333Y-75085281D01*
X162139333Y-75085281D02*
X162044095Y-74990043D01*
X162044095Y-74990043D02*
X161901238Y-74847185D01*
X161901238Y-74847185D02*
X161806000Y-74799566D01*
X161806000Y-74799566D02*
X161710762Y-74799566D01*
X161758381Y-75037662D02*
X161663143Y-74990043D01*
X161663143Y-74990043D02*
X161567905Y-74894804D01*
X161567905Y-74894804D02*
X161520286Y-74704328D01*
X161520286Y-74704328D02*
X161520286Y-74370995D01*
X161520286Y-74370995D02*
X161567905Y-74180519D01*
X161567905Y-74180519D02*
X161663143Y-74085281D01*
X161663143Y-74085281D02*
X161758381Y-74037662D01*
X161758381Y-74037662D02*
X161948857Y-74037662D01*
X161948857Y-74037662D02*
X162044095Y-74085281D01*
X162044095Y-74085281D02*
X162139333Y-74180519D01*
X162139333Y-74180519D02*
X162186952Y-74370995D01*
X162186952Y-74370995D02*
X162186952Y-74704328D01*
X162186952Y-74704328D02*
X162139333Y-74894804D01*
X162139333Y-74894804D02*
X162044095Y-74990043D01*
X162044095Y-74990043D02*
X161948857Y-75037662D01*
X161948857Y-75037662D02*
X161758381Y-75037662D01*
X162567905Y-74132900D02*
X162615524Y-74085281D01*
X162615524Y-74085281D02*
X162710762Y-74037662D01*
X162710762Y-74037662D02*
X162948857Y-74037662D01*
X162948857Y-74037662D02*
X163044095Y-74085281D01*
X163044095Y-74085281D02*
X163091714Y-74132900D01*
X163091714Y-74132900D02*
X163139333Y-74228138D01*
X163139333Y-74228138D02*
X163139333Y-74323376D01*
X163139333Y-74323376D02*
X163091714Y-74466233D01*
X163091714Y-74466233D02*
X162520286Y-75037662D01*
X162520286Y-75037662D02*
X163139333Y-75037662D01*
X145438905Y-95958819D02*
X145438905Y-94958819D01*
X145438905Y-94958819D02*
X145677000Y-94958819D01*
X145677000Y-94958819D02*
X145819857Y-95006438D01*
X145819857Y-95006438D02*
X145915095Y-95101676D01*
X145915095Y-95101676D02*
X145962714Y-95196914D01*
X145962714Y-95196914D02*
X146010333Y-95387390D01*
X146010333Y-95387390D02*
X146010333Y-95530247D01*
X146010333Y-95530247D02*
X145962714Y-95720723D01*
X145962714Y-95720723D02*
X145915095Y-95815961D01*
X145915095Y-95815961D02*
X145819857Y-95911200D01*
X145819857Y-95911200D02*
X145677000Y-95958819D01*
X145677000Y-95958819D02*
X145438905Y-95958819D01*
X146343667Y-94958819D02*
X146962714Y-94958819D01*
X146962714Y-94958819D02*
X146629381Y-95339771D01*
X146629381Y-95339771D02*
X146772238Y-95339771D01*
X146772238Y-95339771D02*
X146867476Y-95387390D01*
X146867476Y-95387390D02*
X146915095Y-95435009D01*
X146915095Y-95435009D02*
X146962714Y-95530247D01*
X146962714Y-95530247D02*
X146962714Y-95768342D01*
X146962714Y-95768342D02*
X146915095Y-95863580D01*
X146915095Y-95863580D02*
X146867476Y-95911200D01*
X146867476Y-95911200D02*
X146772238Y-95958819D01*
X146772238Y-95958819D02*
X146486524Y-95958819D01*
X146486524Y-95958819D02*
X146391286Y-95911200D01*
X146391286Y-95911200D02*
X146343667Y-95863580D01*
X119745142Y-90563819D02*
X119411809Y-90087628D01*
X119173714Y-90563819D02*
X119173714Y-89563819D01*
X119173714Y-89563819D02*
X119554666Y-89563819D01*
X119554666Y-89563819D02*
X119649904Y-89611438D01*
X119649904Y-89611438D02*
X119697523Y-89659057D01*
X119697523Y-89659057D02*
X119745142Y-89754295D01*
X119745142Y-89754295D02*
X119745142Y-89897152D01*
X119745142Y-89897152D02*
X119697523Y-89992390D01*
X119697523Y-89992390D02*
X119649904Y-90040009D01*
X119649904Y-90040009D02*
X119554666Y-90087628D01*
X119554666Y-90087628D02*
X119173714Y-90087628D01*
X120649904Y-89563819D02*
X120173714Y-89563819D01*
X120173714Y-89563819D02*
X120126095Y-90040009D01*
X120126095Y-90040009D02*
X120173714Y-89992390D01*
X120173714Y-89992390D02*
X120268952Y-89944771D01*
X120268952Y-89944771D02*
X120507047Y-89944771D01*
X120507047Y-89944771D02*
X120602285Y-89992390D01*
X120602285Y-89992390D02*
X120649904Y-90040009D01*
X120649904Y-90040009D02*
X120697523Y-90135247D01*
X120697523Y-90135247D02*
X120697523Y-90373342D01*
X120697523Y-90373342D02*
X120649904Y-90468580D01*
X120649904Y-90468580D02*
X120602285Y-90516200D01*
X120602285Y-90516200D02*
X120507047Y-90563819D01*
X120507047Y-90563819D02*
X120268952Y-90563819D01*
X120268952Y-90563819D02*
X120173714Y-90516200D01*
X120173714Y-90516200D02*
X120126095Y-90468580D01*
X162085128Y-80309572D02*
X161989890Y-80261953D01*
X161989890Y-80261953D02*
X161894652Y-80166715D01*
X161894652Y-80166715D02*
X161751795Y-80023857D01*
X161751795Y-80023857D02*
X161656557Y-79976238D01*
X161656557Y-79976238D02*
X161561319Y-79976238D01*
X161608938Y-80214334D02*
X161513700Y-80166715D01*
X161513700Y-80166715D02*
X161418462Y-80071476D01*
X161418462Y-80071476D02*
X161370843Y-79881000D01*
X161370843Y-79881000D02*
X161370843Y-79547667D01*
X161370843Y-79547667D02*
X161418462Y-79357191D01*
X161418462Y-79357191D02*
X161513700Y-79261953D01*
X161513700Y-79261953D02*
X161608938Y-79214334D01*
X161608938Y-79214334D02*
X161799414Y-79214334D01*
X161799414Y-79214334D02*
X161894652Y-79261953D01*
X161894652Y-79261953D02*
X161989890Y-79357191D01*
X161989890Y-79357191D02*
X162037509Y-79547667D01*
X162037509Y-79547667D02*
X162037509Y-79881000D01*
X162037509Y-79881000D02*
X161989890Y-80071476D01*
X161989890Y-80071476D02*
X161894652Y-80166715D01*
X161894652Y-80166715D02*
X161799414Y-80214334D01*
X161799414Y-80214334D02*
X161608938Y-80214334D01*
X162989890Y-80214334D02*
X162418462Y-80214334D01*
X162704176Y-80214334D02*
X162704176Y-79214334D01*
X162704176Y-79214334D02*
X162608938Y-79357191D01*
X162608938Y-79357191D02*
X162513700Y-79452429D01*
X162513700Y-79452429D02*
X162418462Y-79500048D01*
X131035666Y-94958819D02*
X131035666Y-95673104D01*
X131035666Y-95673104D02*
X130988047Y-95815961D01*
X130988047Y-95815961D02*
X130892809Y-95911200D01*
X130892809Y-95911200D02*
X130749952Y-95958819D01*
X130749952Y-95958819D02*
X130654714Y-95958819D01*
X132035666Y-95958819D02*
X131464238Y-95958819D01*
X131749952Y-95958819D02*
X131749952Y-94958819D01*
X131749952Y-94958819D02*
X131654714Y-95101676D01*
X131654714Y-95101676D02*
X131559476Y-95196914D01*
X131559476Y-95196914D02*
X131464238Y-95244533D01*
X119745142Y-75323819D02*
X119411809Y-74847628D01*
X119173714Y-75323819D02*
X119173714Y-74323819D01*
X119173714Y-74323819D02*
X119554666Y-74323819D01*
X119554666Y-74323819D02*
X119649904Y-74371438D01*
X119649904Y-74371438D02*
X119697523Y-74419057D01*
X119697523Y-74419057D02*
X119745142Y-74514295D01*
X119745142Y-74514295D02*
X119745142Y-74657152D01*
X119745142Y-74657152D02*
X119697523Y-74752390D01*
X119697523Y-74752390D02*
X119649904Y-74800009D01*
X119649904Y-74800009D02*
X119554666Y-74847628D01*
X119554666Y-74847628D02*
X119173714Y-74847628D01*
X120602285Y-74657152D02*
X120602285Y-75323819D01*
X120364190Y-74276200D02*
X120126095Y-74990485D01*
X120126095Y-74990485D02*
X120745142Y-74990485D01*
X119745142Y-79133819D02*
X119411809Y-78657628D01*
X119173714Y-79133819D02*
X119173714Y-78133819D01*
X119173714Y-78133819D02*
X119554666Y-78133819D01*
X119554666Y-78133819D02*
X119649904Y-78181438D01*
X119649904Y-78181438D02*
X119697523Y-78229057D01*
X119697523Y-78229057D02*
X119745142Y-78324295D01*
X119745142Y-78324295D02*
X119745142Y-78467152D01*
X119745142Y-78467152D02*
X119697523Y-78562390D01*
X119697523Y-78562390D02*
X119649904Y-78610009D01*
X119649904Y-78610009D02*
X119554666Y-78657628D01*
X119554666Y-78657628D02*
X119173714Y-78657628D01*
X120126095Y-78229057D02*
X120173714Y-78181438D01*
X120173714Y-78181438D02*
X120268952Y-78133819D01*
X120268952Y-78133819D02*
X120507047Y-78133819D01*
X120507047Y-78133819D02*
X120602285Y-78181438D01*
X120602285Y-78181438D02*
X120649904Y-78229057D01*
X120649904Y-78229057D02*
X120697523Y-78324295D01*
X120697523Y-78324295D02*
X120697523Y-78419533D01*
X120697523Y-78419533D02*
X120649904Y-78562390D01*
X120649904Y-78562390D02*
X120078476Y-79133819D01*
X120078476Y-79133819D02*
X120697523Y-79133819D01*
X119745142Y-82943819D02*
X119411809Y-82467628D01*
X119173714Y-82943819D02*
X119173714Y-81943819D01*
X119173714Y-81943819D02*
X119554666Y-81943819D01*
X119554666Y-81943819D02*
X119649904Y-81991438D01*
X119649904Y-81991438D02*
X119697523Y-82039057D01*
X119697523Y-82039057D02*
X119745142Y-82134295D01*
X119745142Y-82134295D02*
X119745142Y-82277152D01*
X119745142Y-82277152D02*
X119697523Y-82372390D01*
X119697523Y-82372390D02*
X119649904Y-82420009D01*
X119649904Y-82420009D02*
X119554666Y-82467628D01*
X119554666Y-82467628D02*
X119173714Y-82467628D01*
X120697523Y-82943819D02*
X120126095Y-82943819D01*
X120411809Y-82943819D02*
X120411809Y-81943819D01*
X120411809Y-81943819D02*
X120316571Y-82086676D01*
X120316571Y-82086676D02*
X120221333Y-82181914D01*
X120221333Y-82181914D02*
X120126095Y-82229533D01*
X161464666Y-109734819D02*
X161464666Y-110449104D01*
X161464666Y-110449104D02*
X161417047Y-110591961D01*
X161417047Y-110591961D02*
X161321809Y-110687200D01*
X161321809Y-110687200D02*
X161178952Y-110734819D01*
X161178952Y-110734819D02*
X161083714Y-110734819D01*
X161893238Y-109830057D02*
X161940857Y-109782438D01*
X161940857Y-109782438D02*
X162036095Y-109734819D01*
X162036095Y-109734819D02*
X162274190Y-109734819D01*
X162274190Y-109734819D02*
X162369428Y-109782438D01*
X162369428Y-109782438D02*
X162417047Y-109830057D01*
X162417047Y-109830057D02*
X162464666Y-109925295D01*
X162464666Y-109925295D02*
X162464666Y-110020533D01*
X162464666Y-110020533D02*
X162417047Y-110163390D01*
X162417047Y-110163390D02*
X161845619Y-110734819D01*
X161845619Y-110734819D02*
X162464666Y-110734819D01*
D12*
%TO.C,J3*%
X129975000Y-110978000D02*
X129975000Y-121098000D01*
X119814000Y-110738000D02*
X119814000Y-111238000D01*
X120054000Y-110978000D02*
X120054000Y-121098000D01*
X123691000Y-117311000D02*
X123645000Y-117264000D01*
X122114000Y-110978000D02*
X122114000Y-121098000D01*
X123475000Y-117504000D02*
X123440000Y-117469000D01*
X120554000Y-110738000D02*
X119814000Y-110738000D01*
X129975000Y-110978000D02*
X120054000Y-110978000D01*
X129975000Y-121098000D02*
X120054000Y-121098000D01*
X125783000Y-119813000D02*
X125737000Y-119766000D01*
X125989000Y-119608000D02*
X125953000Y-119573000D01*
X127015000Y-110978000D02*
X127015000Y-121098000D01*
X120614000Y-110978000D02*
X120614000Y-121098000D01*
X124030000Y-115073000D02*
G75*
G03*
X125397042Y-115073426I684000J1535000D01*
G01*
X123179001Y-112854000D02*
G75*
G03*
X123033748Y-113566805I1535000J-683999D01*
G01*
X123034001Y-113538000D02*
G75*
G03*
X123179245Y-114221318I1679999J0D01*
G01*
X125397999Y-112003001D02*
G75*
G03*
X124030958Y-112002574I-684000J-1534992D01*
G01*
X126248999Y-114221999D02*
G75*
G03*
X126249426Y-112854958I-1534992J684000D01*
G01*
X126394000Y-118538000D02*
G75*
G03*
X126394000Y-118538000I-1680000J0D01*
G01*
%TO.C,R3*%
X158880436Y-70480222D02*
X159334564Y-70480222D01*
X158880436Y-71950222D02*
X159334564Y-71950222D01*
%TO.C,Q3*%
X123190000Y-72172000D02*
X124865000Y-72172000D01*
X123190000Y-72172000D02*
X122540000Y-72172000D01*
X123190000Y-69052000D02*
X123840000Y-69052000D01*
X123190000Y-69052000D02*
X122540000Y-69052000D01*
%TO.C,D1*%
X151616000Y-101434000D02*
X151616000Y-99734000D01*
X151616000Y-101434000D02*
X148356000Y-101434000D01*
X151616000Y-99734000D02*
X148356000Y-99734000D01*
%TO.C,G\u002A\u002A\u002A*%
G36*
X138383105Y-114037784D02*
G01*
X138574752Y-114153842D01*
X138821777Y-114424989D01*
X138633863Y-114795228D01*
X138609219Y-114825236D01*
X138076299Y-115204991D01*
X137579422Y-115147319D01*
X137328315Y-114818559D01*
X137371142Y-114328670D01*
X137539455Y-114147165D01*
X137990245Y-113929553D01*
X138383105Y-114037784D01*
G37*
G36*
X136790063Y-111525927D02*
G01*
X137191610Y-111874942D01*
X137290669Y-112201645D01*
X137475558Y-112757397D01*
X137969759Y-113044788D01*
X138247593Y-113111878D01*
X139438355Y-113517368D01*
X140182871Y-114103042D01*
X140476189Y-114782075D01*
X140313357Y-115467639D01*
X139689425Y-116072908D01*
X138599441Y-116511057D01*
X138443478Y-116546914D01*
X137750613Y-116747328D01*
X137465054Y-117018538D01*
X137443695Y-117382370D01*
X137380030Y-118109154D01*
X137241238Y-118493376D01*
X137130992Y-118923035D01*
X137480554Y-119159213D01*
X137515404Y-119170544D01*
X137882721Y-119429329D01*
X137867011Y-119654783D01*
X137711239Y-120154188D01*
X137660428Y-120643664D01*
X137474808Y-121233308D01*
X137173510Y-121413340D01*
X136833624Y-121357017D01*
X136707782Y-120927097D01*
X136700638Y-120675218D01*
X136665101Y-120520298D01*
X137241064Y-120520298D01*
X137376170Y-120655405D01*
X137511276Y-120520298D01*
X137376170Y-120385192D01*
X137241064Y-120520298D01*
X136665101Y-120520298D01*
X136554087Y-120036336D01*
X136135225Y-119844930D01*
X135475241Y-120101317D01*
X134765606Y-120655405D01*
X134078213Y-121236425D01*
X133679604Y-121416565D01*
X133497255Y-121196833D01*
X133458085Y-120673614D01*
X133391012Y-120376711D01*
X133998510Y-120376711D01*
X134196578Y-120525386D01*
X134403830Y-120482908D01*
X134759366Y-120291115D01*
X134809149Y-120221176D01*
X134588498Y-120126717D01*
X134403830Y-120114979D01*
X134044171Y-120256390D01*
X133998510Y-120376711D01*
X133391012Y-120376711D01*
X133301984Y-119982620D01*
X132942622Y-119717583D01*
X132426844Y-119362191D01*
X132190234Y-118845823D01*
X132647447Y-118845823D01*
X132837797Y-119294394D01*
X132985213Y-119395597D01*
X133633951Y-119512751D01*
X134527718Y-119520355D01*
X135383870Y-119425579D01*
X135754893Y-119325331D01*
X136295319Y-119114092D01*
X135754893Y-118954395D01*
X135163376Y-118820364D01*
X134305778Y-118669672D01*
X133930957Y-118613519D01*
X133141317Y-118532771D01*
X132754675Y-118596835D01*
X132647671Y-118828039D01*
X132647447Y-118845823D01*
X132190234Y-118845823D01*
X132185569Y-118835643D01*
X132257198Y-118469318D01*
X132616807Y-118279334D01*
X133068713Y-118223490D01*
X133613261Y-118077886D01*
X133744069Y-117700095D01*
X133482371Y-117178644D01*
X132849400Y-116602060D01*
X132647447Y-116467107D01*
X131911234Y-115902689D01*
X131596649Y-115363501D01*
X131566596Y-115094889D01*
X131719451Y-114409100D01*
X132162875Y-114409100D01*
X132169541Y-115230255D01*
X132689340Y-115987228D01*
X133056111Y-116266931D01*
X133761816Y-116874429D01*
X133997822Y-117510311D01*
X133998510Y-117550442D01*
X134091318Y-118057066D01*
X134268723Y-118223490D01*
X134431112Y-117982248D01*
X134449941Y-117863206D01*
X134809149Y-117863206D01*
X134953752Y-118193118D01*
X135050452Y-118223490D01*
X135241950Y-118088383D01*
X135942677Y-118088383D01*
X135971885Y-118549859D01*
X136056474Y-118590489D01*
X136067242Y-118566398D01*
X136120696Y-118029976D01*
X136077255Y-117755760D01*
X135991242Y-117645567D01*
X135944459Y-118004471D01*
X135942677Y-118088383D01*
X135241950Y-118088383D01*
X135352211Y-118010591D01*
X135430009Y-117863206D01*
X135352500Y-117546579D01*
X135188706Y-117502922D01*
X134846834Y-117707153D01*
X134809149Y-117863206D01*
X134449941Y-117863206D01*
X134527472Y-117373046D01*
X134538936Y-117029632D01*
X134561633Y-116500193D01*
X134809149Y-116500193D01*
X134871607Y-116787703D01*
X135150550Y-116674136D01*
X135282021Y-116576654D01*
X135706711Y-116255518D01*
X135867482Y-116138249D01*
X135734779Y-116078562D01*
X135394610Y-116061788D01*
X134909646Y-116231539D01*
X134809149Y-116500193D01*
X134561633Y-116500193D01*
X134574786Y-116193383D01*
X134654927Y-115611433D01*
X135709858Y-115611433D01*
X135746950Y-115772074D01*
X135890000Y-115791575D01*
X136112416Y-115692708D01*
X136070142Y-115611433D01*
X135749462Y-115579094D01*
X135709858Y-115611433D01*
X134654927Y-115611433D01*
X134664502Y-115541904D01*
X134702952Y-115408356D01*
X134677866Y-115047087D01*
X134432739Y-114980937D01*
X134071568Y-114755469D01*
X134029849Y-114575617D01*
X134268723Y-114575617D01*
X134403830Y-114710724D01*
X134538936Y-114575617D01*
X134403830Y-114440511D01*
X134268723Y-114575617D01*
X134029849Y-114575617D01*
X133998510Y-114440511D01*
X134112681Y-113975144D01*
X134450929Y-113998593D01*
X134944255Y-114440511D01*
X135432913Y-114846671D01*
X135787266Y-114980937D01*
X136232401Y-115234096D01*
X136499744Y-115981241D01*
X136583018Y-117203871D01*
X136581532Y-117322116D01*
X136603285Y-118078506D01*
X136685379Y-118528826D01*
X136763950Y-118589680D01*
X136896053Y-118262319D01*
X136966995Y-117607984D01*
X136970851Y-117402052D01*
X137017375Y-116699176D01*
X137230101Y-116355088D01*
X137713936Y-116192085D01*
X138781376Y-115947950D01*
X139424724Y-115703956D01*
X139756250Y-115394095D01*
X139888222Y-114952358D01*
X139893366Y-114910694D01*
X139847054Y-114380397D01*
X139503197Y-113999150D01*
X138772303Y-113701425D01*
X137974959Y-113506013D01*
X137258829Y-113126862D01*
X136918288Y-112676673D01*
X136589210Y-112124445D01*
X136298592Y-112100769D01*
X135975394Y-112605888D01*
X135941042Y-112680010D01*
X135694711Y-113091789D01*
X135341295Y-113251071D01*
X134695004Y-113220907D01*
X134443800Y-113188134D01*
X133613218Y-113130600D01*
X133070340Y-113281707D01*
X132679748Y-113597572D01*
X132162875Y-114409100D01*
X131719451Y-114409100D01*
X131803568Y-114031704D01*
X132449985Y-113232249D01*
X133409099Y-112770976D01*
X134584161Y-112722333D01*
X134638824Y-112730757D01*
X135289058Y-112797685D01*
X135565880Y-112671061D01*
X135619787Y-112343074D01*
X135813401Y-111776138D01*
X136267077Y-111498374D01*
X136790063Y-111525927D01*
G37*
%TO.C,U1*%
X128047500Y-85260000D02*
X128047500Y-59830000D01*
X128047500Y-85260000D02*
X130587500Y-85260000D01*
X130587500Y-85260000D02*
X130587500Y-92160000D01*
X130587500Y-92160000D02*
X153907500Y-92160000D01*
X151787500Y-57700000D02*
X130177500Y-57700000D01*
X153907500Y-92160000D02*
X153907500Y-59830000D01*
X130177500Y-57700000D02*
G75*
G03*
X128047500Y-59830000I2J-2130002D01*
G01*
X153907500Y-59830000D02*
G75*
G03*
X151777500Y-57700000I-2130000J0D01*
G01*
D10*
X127642500Y-66040000D02*
X127007500Y-66675000D01*
X127007500Y-65405000D01*
X127642500Y-66040000D01*
G36*
X127642500Y-66040000D02*
G01*
X127007500Y-66675000D01*
X127007500Y-65405000D01*
X127642500Y-66040000D01*
G37*
D12*
%TO.C,Q4*%
X123190000Y-88240000D02*
X124865000Y-88240000D01*
X123190000Y-88240000D02*
X122540000Y-88240000D01*
X123190000Y-85120000D02*
X123840000Y-85120000D01*
X123190000Y-85120000D02*
X122540000Y-85120000D01*
%TO.C,D2*%
X151616000Y-98894000D02*
X151616000Y-97194000D01*
X151616000Y-98894000D02*
X148356000Y-98894000D01*
X151616000Y-97194000D02*
X148356000Y-97194000D01*
%TO.C,Q2*%
X159009257Y-73022843D02*
X157334257Y-73022843D01*
X159009257Y-73022843D02*
X159659257Y-73022843D01*
X159009257Y-76142843D02*
X158359257Y-76142843D01*
X159009257Y-76142843D02*
X159659257Y-76142843D01*
%TO.C,D3*%
X151616000Y-96354000D02*
X151616000Y-94654000D01*
X151616000Y-96354000D02*
X148356000Y-96354000D01*
X151616000Y-94654000D02*
X148356000Y-94654000D01*
%TO.C,R5*%
X123417064Y-90905000D02*
X122962936Y-90905000D01*
X123417064Y-89435000D02*
X122962936Y-89435000D01*
%TO.C,Q1*%
X159009257Y-81319515D02*
X160684257Y-81319515D01*
X159009257Y-81319515D02*
X158359257Y-81319515D01*
X159009257Y-78199515D02*
X159659257Y-78199515D01*
X159009257Y-78199515D02*
X158359257Y-78199515D01*
%TO.C,J1*%
X120554000Y-94482000D02*
X119814000Y-94482000D01*
X119814000Y-94482000D02*
X119814000Y-94982000D01*
X129975000Y-94722000D02*
X120054000Y-94722000D01*
X129975000Y-94722000D02*
X129975000Y-109842000D01*
X127015000Y-94722000D02*
X127015000Y-109842000D01*
X122114000Y-94722000D02*
X122114000Y-109842000D01*
X120614000Y-94722000D02*
X120614000Y-109842000D01*
X120054000Y-94722000D02*
X120054000Y-109842000D01*
X123691000Y-101055000D02*
X123645000Y-101008000D01*
X123475000Y-101248000D02*
X123440000Y-101213000D01*
X125989000Y-103352000D02*
X125953000Y-103317000D01*
X125783000Y-103557000D02*
X125737000Y-103510000D01*
X123691000Y-106055000D02*
X123645000Y-106008000D01*
X123475000Y-106248000D02*
X123440000Y-106213000D01*
X125989000Y-108352000D02*
X125953000Y-108317000D01*
X125783000Y-108557000D02*
X125737000Y-108510000D01*
X129975000Y-109842000D02*
X120054000Y-109842000D01*
X125397999Y-95747001D02*
G75*
G03*
X124030958Y-95746574I-684000J-1534992D01*
G01*
X126248999Y-97965999D02*
G75*
G03*
X126249426Y-96598958I-1534992J684000D01*
G01*
X123179001Y-96598000D02*
G75*
G03*
X123033748Y-97310805I1535000J-683999D01*
G01*
X123034001Y-97282000D02*
G75*
G03*
X123179245Y-97965318I1679999J0D01*
G01*
X124030000Y-98817000D02*
G75*
G03*
X125397042Y-98817426I684000J1535000D01*
G01*
X126394000Y-102282000D02*
G75*
G03*
X126394000Y-102282000I-1680000J0D01*
G01*
X126394000Y-107282000D02*
G75*
G03*
X126394000Y-107282000I-1680000J0D01*
G01*
%TO.C,R4*%
X123417064Y-75665000D02*
X122962936Y-75665000D01*
X123417064Y-74195000D02*
X122962936Y-74195000D01*
%TO.C,R2*%
X123417064Y-79475000D02*
X122962936Y-79475000D01*
X123417064Y-78005000D02*
X122962936Y-78005000D01*
%TO.C,R1*%
X122962936Y-81815000D02*
X123417064Y-81815000D01*
X122962936Y-83285000D02*
X123417064Y-83285000D01*
%TO.C,J2*%
X163128000Y-109280000D02*
X161798000Y-109280000D01*
X163128000Y-107950000D02*
X163128000Y-109280000D01*
X163128000Y-106680000D02*
X163128000Y-83760000D01*
X163128000Y-106680000D02*
X160468000Y-106680000D01*
X163128000Y-83760000D02*
X160468000Y-83760000D01*
X160468000Y-106680000D02*
X160468000Y-83760000D01*
%TD*%
M02*
