%TF.GenerationSoftware,KiCad,Pcbnew,7.0.9*%
%TF.CreationDate,2023-11-08T11:29:51-08:00*%
%TF.ProjectId,RatGDO-OpenSource-D1Mini-ESP8266,52617447-444f-42d4-9f70-656e536f7572,2.5.0*%
%TF.SameCoordinates,Original*%
%TF.FileFunction,Legend,Top*%
%TF.FilePolarity,Positive*%
%FSLAX46Y46*%
G04 Gerber Fmt 4.6, Leading zero omitted, Abs format (unit mm)*
G04 Created by KiCad (PCBNEW 7.0.9) date 2023-11-08 11:29:51*
%MOMM*%
%LPD*%
G01*
G04 APERTURE LIST*
%ADD10C,0.150000*%
%ADD11C,0.300000*%
%ADD12C,0.120000*%
G04 APERTURE END LIST*
D10*
X158244683Y-84197819D02*
X157673255Y-84197819D01*
X157958969Y-84197819D02*
X157958969Y-83197819D01*
X157958969Y-83197819D02*
X157863731Y-83340676D01*
X157863731Y-83340676D02*
X157768493Y-83435914D01*
X157768493Y-83435914D02*
X157673255Y-83483533D01*
X158625636Y-83293057D02*
X158673255Y-83245438D01*
X158673255Y-83245438D02*
X158768493Y-83197819D01*
X158768493Y-83197819D02*
X159006588Y-83197819D01*
X159006588Y-83197819D02*
X159101826Y-83245438D01*
X159101826Y-83245438D02*
X159149445Y-83293057D01*
X159149445Y-83293057D02*
X159197064Y-83388295D01*
X159197064Y-83388295D02*
X159197064Y-83483533D01*
X159197064Y-83483533D02*
X159149445Y-83626390D01*
X159149445Y-83626390D02*
X158578017Y-84197819D01*
X158578017Y-84197819D02*
X159197064Y-84197819D01*
X159482779Y-83197819D02*
X159816112Y-84197819D01*
X159816112Y-84197819D02*
X160149445Y-83197819D01*
X117818180Y-101465142D02*
X118294371Y-101131809D01*
X117818180Y-100893714D02*
X118818180Y-100893714D01*
X118818180Y-100893714D02*
X118818180Y-101274666D01*
X118818180Y-101274666D02*
X118770561Y-101369904D01*
X118770561Y-101369904D02*
X118722942Y-101417523D01*
X118722942Y-101417523D02*
X118627704Y-101465142D01*
X118627704Y-101465142D02*
X118484847Y-101465142D01*
X118484847Y-101465142D02*
X118389609Y-101417523D01*
X118389609Y-101417523D02*
X118341990Y-101369904D01*
X118341990Y-101369904D02*
X118294371Y-101274666D01*
X118294371Y-101274666D02*
X118294371Y-100893714D01*
X118341990Y-101893714D02*
X118341990Y-102227047D01*
X117818180Y-102369904D02*
X117818180Y-101893714D01*
X117818180Y-101893714D02*
X118818180Y-101893714D01*
X118818180Y-101893714D02*
X118818180Y-102369904D01*
X117818180Y-102798476D02*
X118818180Y-102798476D01*
X118818180Y-102798476D02*
X118818180Y-103036571D01*
X118818180Y-103036571D02*
X118770561Y-103179428D01*
X118770561Y-103179428D02*
X118675323Y-103274666D01*
X118675323Y-103274666D02*
X118580085Y-103322285D01*
X118580085Y-103322285D02*
X118389609Y-103369904D01*
X118389609Y-103369904D02*
X118246752Y-103369904D01*
X118246752Y-103369904D02*
X118056276Y-103322285D01*
X118056276Y-103322285D02*
X117961038Y-103274666D01*
X117961038Y-103274666D02*
X117865800Y-103179428D01*
X117865800Y-103179428D02*
X117818180Y-103036571D01*
X117818180Y-103036571D02*
X117818180Y-102798476D01*
X116303419Y-101131809D02*
X116255800Y-101084190D01*
X116255800Y-101084190D02*
X116208180Y-100941333D01*
X116208180Y-100941333D02*
X116208180Y-100846095D01*
X116208180Y-100846095D02*
X116255800Y-100703238D01*
X116255800Y-100703238D02*
X116351038Y-100608000D01*
X116351038Y-100608000D02*
X116446276Y-100560381D01*
X116446276Y-100560381D02*
X116636752Y-100512762D01*
X116636752Y-100512762D02*
X116779609Y-100512762D01*
X116779609Y-100512762D02*
X116970085Y-100560381D01*
X116970085Y-100560381D02*
X117065323Y-100608000D01*
X117065323Y-100608000D02*
X117160561Y-100703238D01*
X117160561Y-100703238D02*
X117208180Y-100846095D01*
X117208180Y-100846095D02*
X117208180Y-100941333D01*
X117208180Y-100941333D02*
X117160561Y-101084190D01*
X117160561Y-101084190D02*
X117112942Y-101131809D01*
X117208180Y-101417524D02*
X117208180Y-101988952D01*
X116208180Y-101703238D02*
X117208180Y-101703238D01*
X116208180Y-102893714D02*
X116684371Y-102560381D01*
X116208180Y-102322286D02*
X117208180Y-102322286D01*
X117208180Y-102322286D02*
X117208180Y-102703238D01*
X117208180Y-102703238D02*
X117160561Y-102798476D01*
X117160561Y-102798476D02*
X117112942Y-102846095D01*
X117112942Y-102846095D02*
X117017704Y-102893714D01*
X117017704Y-102893714D02*
X116874847Y-102893714D01*
X116874847Y-102893714D02*
X116779609Y-102846095D01*
X116779609Y-102846095D02*
X116731990Y-102798476D01*
X116731990Y-102798476D02*
X116684371Y-102703238D01*
X116684371Y-102703238D02*
X116684371Y-102322286D01*
X116208180Y-103798476D02*
X116208180Y-103322286D01*
X116208180Y-103322286D02*
X117208180Y-103322286D01*
X153594016Y-107311819D02*
X153260683Y-106835628D01*
X153022588Y-107311819D02*
X153022588Y-106311819D01*
X153022588Y-106311819D02*
X153403540Y-106311819D01*
X153403540Y-106311819D02*
X153498778Y-106359438D01*
X153498778Y-106359438D02*
X153546397Y-106407057D01*
X153546397Y-106407057D02*
X153594016Y-106502295D01*
X153594016Y-106502295D02*
X153594016Y-106645152D01*
X153594016Y-106645152D02*
X153546397Y-106740390D01*
X153546397Y-106740390D02*
X153498778Y-106788009D01*
X153498778Y-106788009D02*
X153403540Y-106835628D01*
X153403540Y-106835628D02*
X153022588Y-106835628D01*
X154022588Y-106788009D02*
X154355921Y-106788009D01*
X154498778Y-107311819D02*
X154022588Y-107311819D01*
X154022588Y-107311819D02*
X154022588Y-106311819D01*
X154022588Y-106311819D02*
X154498778Y-106311819D01*
X154927350Y-107311819D02*
X154927350Y-106311819D01*
X154927350Y-106311819D02*
X155165445Y-106311819D01*
X155165445Y-106311819D02*
X155308302Y-106359438D01*
X155308302Y-106359438D02*
X155403540Y-106454676D01*
X155403540Y-106454676D02*
X155451159Y-106549914D01*
X155451159Y-106549914D02*
X155498778Y-106740390D01*
X155498778Y-106740390D02*
X155498778Y-106883247D01*
X155498778Y-106883247D02*
X155451159Y-107073723D01*
X155451159Y-107073723D02*
X155403540Y-107168961D01*
X155403540Y-107168961D02*
X155308302Y-107264200D01*
X155308302Y-107264200D02*
X155165445Y-107311819D01*
X155165445Y-107311819D02*
X154927350Y-107311819D01*
X156641635Y-106264200D02*
X155784493Y-107549914D01*
X157546397Y-107216580D02*
X157498778Y-107264200D01*
X157498778Y-107264200D02*
X157355921Y-107311819D01*
X157355921Y-107311819D02*
X157260683Y-107311819D01*
X157260683Y-107311819D02*
X157117826Y-107264200D01*
X157117826Y-107264200D02*
X157022588Y-107168961D01*
X157022588Y-107168961D02*
X156974969Y-107073723D01*
X156974969Y-107073723D02*
X156927350Y-106883247D01*
X156927350Y-106883247D02*
X156927350Y-106740390D01*
X156927350Y-106740390D02*
X156974969Y-106549914D01*
X156974969Y-106549914D02*
X157022588Y-106454676D01*
X157022588Y-106454676D02*
X157117826Y-106359438D01*
X157117826Y-106359438D02*
X157260683Y-106311819D01*
X157260683Y-106311819D02*
X157355921Y-106311819D01*
X157355921Y-106311819D02*
X157498778Y-106359438D01*
X157498778Y-106359438D02*
X157546397Y-106407057D01*
X157832112Y-106311819D02*
X158403540Y-106311819D01*
X158117826Y-107311819D02*
X158117826Y-106311819D01*
X159308302Y-107311819D02*
X158974969Y-106835628D01*
X158736874Y-107311819D02*
X158736874Y-106311819D01*
X158736874Y-106311819D02*
X159117826Y-106311819D01*
X159117826Y-106311819D02*
X159213064Y-106359438D01*
X159213064Y-106359438D02*
X159260683Y-106407057D01*
X159260683Y-106407057D02*
X159308302Y-106502295D01*
X159308302Y-106502295D02*
X159308302Y-106645152D01*
X159308302Y-106645152D02*
X159260683Y-106740390D01*
X159260683Y-106740390D02*
X159213064Y-106788009D01*
X159213064Y-106788009D02*
X159117826Y-106835628D01*
X159117826Y-106835628D02*
X158736874Y-106835628D01*
X160213064Y-107311819D02*
X159736874Y-107311819D01*
X159736874Y-107311819D02*
X159736874Y-106311819D01*
X117208180Y-116808476D02*
X117208180Y-116618000D01*
X117208180Y-116618000D02*
X117160561Y-116522762D01*
X117160561Y-116522762D02*
X117112942Y-116475143D01*
X117112942Y-116475143D02*
X116970085Y-116379905D01*
X116970085Y-116379905D02*
X116779609Y-116332286D01*
X116779609Y-116332286D02*
X116398657Y-116332286D01*
X116398657Y-116332286D02*
X116303419Y-116379905D01*
X116303419Y-116379905D02*
X116255800Y-116427524D01*
X116255800Y-116427524D02*
X116208180Y-116522762D01*
X116208180Y-116522762D02*
X116208180Y-116713238D01*
X116208180Y-116713238D02*
X116255800Y-116808476D01*
X116255800Y-116808476D02*
X116303419Y-116856095D01*
X116303419Y-116856095D02*
X116398657Y-116903714D01*
X116398657Y-116903714D02*
X116636752Y-116903714D01*
X116636752Y-116903714D02*
X116731990Y-116856095D01*
X116731990Y-116856095D02*
X116779609Y-116808476D01*
X116779609Y-116808476D02*
X116827228Y-116713238D01*
X116827228Y-116713238D02*
X116827228Y-116522762D01*
X116827228Y-116522762D02*
X116779609Y-116427524D01*
X116779609Y-116427524D02*
X116731990Y-116379905D01*
X116731990Y-116379905D02*
X116636752Y-116332286D01*
X116589133Y-117332286D02*
X116589133Y-118094191D01*
X117208180Y-118475143D02*
X117208180Y-119094190D01*
X117208180Y-119094190D02*
X116827228Y-118760857D01*
X116827228Y-118760857D02*
X116827228Y-118903714D01*
X116827228Y-118903714D02*
X116779609Y-118998952D01*
X116779609Y-118998952D02*
X116731990Y-119046571D01*
X116731990Y-119046571D02*
X116636752Y-119094190D01*
X116636752Y-119094190D02*
X116398657Y-119094190D01*
X116398657Y-119094190D02*
X116303419Y-119046571D01*
X116303419Y-119046571D02*
X116255800Y-118998952D01*
X116255800Y-118998952D02*
X116208180Y-118903714D01*
X116208180Y-118903714D02*
X116208180Y-118618000D01*
X116208180Y-118618000D02*
X116255800Y-118522762D01*
X116255800Y-118522762D02*
X116303419Y-118475143D01*
X117208180Y-119713238D02*
X117208180Y-119808476D01*
X117208180Y-119808476D02*
X117160561Y-119903714D01*
X117160561Y-119903714D02*
X117112942Y-119951333D01*
X117112942Y-119951333D02*
X117017704Y-119998952D01*
X117017704Y-119998952D02*
X116827228Y-120046571D01*
X116827228Y-120046571D02*
X116589133Y-120046571D01*
X116589133Y-120046571D02*
X116398657Y-119998952D01*
X116398657Y-119998952D02*
X116303419Y-119951333D01*
X116303419Y-119951333D02*
X116255800Y-119903714D01*
X116255800Y-119903714D02*
X116208180Y-119808476D01*
X116208180Y-119808476D02*
X116208180Y-119713238D01*
X116208180Y-119713238D02*
X116255800Y-119618000D01*
X116255800Y-119618000D02*
X116303419Y-119570381D01*
X116303419Y-119570381D02*
X116398657Y-119522762D01*
X116398657Y-119522762D02*
X116589133Y-119475143D01*
X116589133Y-119475143D02*
X116827228Y-119475143D01*
X116827228Y-119475143D02*
X117017704Y-119522762D01*
X117017704Y-119522762D02*
X117112942Y-119570381D01*
X117112942Y-119570381D02*
X117160561Y-119618000D01*
X117160561Y-119618000D02*
X117208180Y-119713238D01*
X117208180Y-120332286D02*
X116208180Y-120665619D01*
X116208180Y-120665619D02*
X117208180Y-120998952D01*
D11*
X135523653Y-104952828D02*
X135023653Y-104238542D01*
X134666510Y-104952828D02*
X134666510Y-103452828D01*
X134666510Y-103452828D02*
X135237939Y-103452828D01*
X135237939Y-103452828D02*
X135380796Y-103524257D01*
X135380796Y-103524257D02*
X135452225Y-103595685D01*
X135452225Y-103595685D02*
X135523653Y-103738542D01*
X135523653Y-103738542D02*
X135523653Y-103952828D01*
X135523653Y-103952828D02*
X135452225Y-104095685D01*
X135452225Y-104095685D02*
X135380796Y-104167114D01*
X135380796Y-104167114D02*
X135237939Y-104238542D01*
X135237939Y-104238542D02*
X134666510Y-104238542D01*
X136095082Y-104524257D02*
X136809368Y-104524257D01*
X135952225Y-104952828D02*
X136452225Y-103452828D01*
X136452225Y-103452828D02*
X136952225Y-104952828D01*
X137237939Y-103452828D02*
X138095082Y-103452828D01*
X137666510Y-104952828D02*
X137666510Y-103452828D01*
X138595081Y-104381400D02*
X139737939Y-104381400D01*
X141309367Y-104952828D02*
X140809367Y-104238542D01*
X140452224Y-104952828D02*
X140452224Y-103452828D01*
X140452224Y-103452828D02*
X141023653Y-103452828D01*
X141023653Y-103452828D02*
X141166510Y-103524257D01*
X141166510Y-103524257D02*
X141237939Y-103595685D01*
X141237939Y-103595685D02*
X141309367Y-103738542D01*
X141309367Y-103738542D02*
X141309367Y-103952828D01*
X141309367Y-103952828D02*
X141237939Y-104095685D01*
X141237939Y-104095685D02*
X141166510Y-104167114D01*
X141166510Y-104167114D02*
X141023653Y-104238542D01*
X141023653Y-104238542D02*
X140452224Y-104238542D01*
X141880796Y-104524257D02*
X142595082Y-104524257D01*
X141737939Y-104952828D02*
X142237939Y-103452828D01*
X142237939Y-103452828D02*
X142737939Y-104952828D01*
X143023653Y-103452828D02*
X143880796Y-103452828D01*
X143452224Y-104952828D02*
X143452224Y-103452828D01*
X145166510Y-103524257D02*
X145023653Y-103452828D01*
X145023653Y-103452828D02*
X144809367Y-103452828D01*
X144809367Y-103452828D02*
X144595081Y-103524257D01*
X144595081Y-103524257D02*
X144452224Y-103667114D01*
X144452224Y-103667114D02*
X144380795Y-103809971D01*
X144380795Y-103809971D02*
X144309367Y-104095685D01*
X144309367Y-104095685D02*
X144309367Y-104309971D01*
X144309367Y-104309971D02*
X144380795Y-104595685D01*
X144380795Y-104595685D02*
X144452224Y-104738542D01*
X144452224Y-104738542D02*
X144595081Y-104881400D01*
X144595081Y-104881400D02*
X144809367Y-104952828D01*
X144809367Y-104952828D02*
X144952224Y-104952828D01*
X144952224Y-104952828D02*
X145166510Y-104881400D01*
X145166510Y-104881400D02*
X145237938Y-104809971D01*
X145237938Y-104809971D02*
X145237938Y-104309971D01*
X145237938Y-104309971D02*
X144952224Y-104309971D01*
X145880795Y-104952828D02*
X145880795Y-103452828D01*
X145880795Y-103452828D02*
X146237938Y-103452828D01*
X146237938Y-103452828D02*
X146452224Y-103524257D01*
X146452224Y-103524257D02*
X146595081Y-103667114D01*
X146595081Y-103667114D02*
X146666510Y-103809971D01*
X146666510Y-103809971D02*
X146737938Y-104095685D01*
X146737938Y-104095685D02*
X146737938Y-104309971D01*
X146737938Y-104309971D02*
X146666510Y-104595685D01*
X146666510Y-104595685D02*
X146595081Y-104738542D01*
X146595081Y-104738542D02*
X146452224Y-104881400D01*
X146452224Y-104881400D02*
X146237938Y-104952828D01*
X146237938Y-104952828D02*
X145880795Y-104952828D01*
X147666510Y-103452828D02*
X147952224Y-103452828D01*
X147952224Y-103452828D02*
X148095081Y-103524257D01*
X148095081Y-103524257D02*
X148237938Y-103667114D01*
X148237938Y-103667114D02*
X148309367Y-103952828D01*
X148309367Y-103952828D02*
X148309367Y-104452828D01*
X148309367Y-104452828D02*
X148237938Y-104738542D01*
X148237938Y-104738542D02*
X148095081Y-104881400D01*
X148095081Y-104881400D02*
X147952224Y-104952828D01*
X147952224Y-104952828D02*
X147666510Y-104952828D01*
X147666510Y-104952828D02*
X147523653Y-104881400D01*
X147523653Y-104881400D02*
X147380795Y-104738542D01*
X147380795Y-104738542D02*
X147309367Y-104452828D01*
X147309367Y-104452828D02*
X147309367Y-103952828D01*
X147309367Y-103952828D02*
X147380795Y-103667114D01*
X147380795Y-103667114D02*
X147523653Y-103524257D01*
X147523653Y-103524257D02*
X147666510Y-103452828D01*
X134452225Y-105867828D02*
X135309368Y-105867828D01*
X134880796Y-107367828D02*
X134880796Y-105867828D01*
X135809367Y-105867828D02*
X135809367Y-107082114D01*
X135809367Y-107082114D02*
X135880796Y-107224971D01*
X135880796Y-107224971D02*
X135952225Y-107296400D01*
X135952225Y-107296400D02*
X136095082Y-107367828D01*
X136095082Y-107367828D02*
X136380796Y-107367828D01*
X136380796Y-107367828D02*
X136523653Y-107296400D01*
X136523653Y-107296400D02*
X136595082Y-107224971D01*
X136595082Y-107224971D02*
X136666510Y-107082114D01*
X136666510Y-107082114D02*
X136666510Y-105867828D01*
X137880796Y-106582114D02*
X138095082Y-106653542D01*
X138095082Y-106653542D02*
X138166511Y-106724971D01*
X138166511Y-106724971D02*
X138237939Y-106867828D01*
X138237939Y-106867828D02*
X138237939Y-107082114D01*
X138237939Y-107082114D02*
X138166511Y-107224971D01*
X138166511Y-107224971D02*
X138095082Y-107296400D01*
X138095082Y-107296400D02*
X137952225Y-107367828D01*
X137952225Y-107367828D02*
X137380796Y-107367828D01*
X137380796Y-107367828D02*
X137380796Y-105867828D01*
X137380796Y-105867828D02*
X137880796Y-105867828D01*
X137880796Y-105867828D02*
X138023654Y-105939257D01*
X138023654Y-105939257D02*
X138095082Y-106010685D01*
X138095082Y-106010685D02*
X138166511Y-106153542D01*
X138166511Y-106153542D02*
X138166511Y-106296400D01*
X138166511Y-106296400D02*
X138095082Y-106439257D01*
X138095082Y-106439257D02*
X138023654Y-106510685D01*
X138023654Y-106510685D02*
X137880796Y-106582114D01*
X137880796Y-106582114D02*
X137380796Y-106582114D01*
X138880796Y-106582114D02*
X139380796Y-106582114D01*
X139595082Y-107367828D02*
X138880796Y-107367828D01*
X138880796Y-107367828D02*
X138880796Y-105867828D01*
X138880796Y-105867828D02*
X139595082Y-105867828D01*
X140095082Y-105867828D02*
X141095082Y-105867828D01*
X141095082Y-105867828D02*
X140095082Y-107367828D01*
X140095082Y-107367828D02*
X141095082Y-107367828D01*
X142737939Y-106010685D02*
X142809367Y-105939257D01*
X142809367Y-105939257D02*
X142952225Y-105867828D01*
X142952225Y-105867828D02*
X143309367Y-105867828D01*
X143309367Y-105867828D02*
X143452225Y-105939257D01*
X143452225Y-105939257D02*
X143523653Y-106010685D01*
X143523653Y-106010685D02*
X143595082Y-106153542D01*
X143595082Y-106153542D02*
X143595082Y-106296400D01*
X143595082Y-106296400D02*
X143523653Y-106510685D01*
X143523653Y-106510685D02*
X142666510Y-107367828D01*
X142666510Y-107367828D02*
X143595082Y-107367828D01*
X144237938Y-107224971D02*
X144309367Y-107296400D01*
X144309367Y-107296400D02*
X144237938Y-107367828D01*
X144237938Y-107367828D02*
X144166510Y-107296400D01*
X144166510Y-107296400D02*
X144237938Y-107224971D01*
X144237938Y-107224971D02*
X144237938Y-107367828D01*
X145666510Y-105867828D02*
X144952224Y-105867828D01*
X144952224Y-105867828D02*
X144880796Y-106582114D01*
X144880796Y-106582114D02*
X144952224Y-106510685D01*
X144952224Y-106510685D02*
X145095082Y-106439257D01*
X145095082Y-106439257D02*
X145452224Y-106439257D01*
X145452224Y-106439257D02*
X145595082Y-106510685D01*
X145595082Y-106510685D02*
X145666510Y-106582114D01*
X145666510Y-106582114D02*
X145737939Y-106724971D01*
X145737939Y-106724971D02*
X145737939Y-107082114D01*
X145737939Y-107082114D02*
X145666510Y-107224971D01*
X145666510Y-107224971D02*
X145595082Y-107296400D01*
X145595082Y-107296400D02*
X145452224Y-107367828D01*
X145452224Y-107367828D02*
X145095082Y-107367828D01*
X145095082Y-107367828D02*
X144952224Y-107296400D01*
X144952224Y-107296400D02*
X144880796Y-107224971D01*
X146380795Y-107224971D02*
X146452224Y-107296400D01*
X146452224Y-107296400D02*
X146380795Y-107367828D01*
X146380795Y-107367828D02*
X146309367Y-107296400D01*
X146309367Y-107296400D02*
X146380795Y-107224971D01*
X146380795Y-107224971D02*
X146380795Y-107367828D01*
X147380796Y-105867828D02*
X147523653Y-105867828D01*
X147523653Y-105867828D02*
X147666510Y-105939257D01*
X147666510Y-105939257D02*
X147737939Y-106010685D01*
X147737939Y-106010685D02*
X147809367Y-106153542D01*
X147809367Y-106153542D02*
X147880796Y-106439257D01*
X147880796Y-106439257D02*
X147880796Y-106796400D01*
X147880796Y-106796400D02*
X147809367Y-107082114D01*
X147809367Y-107082114D02*
X147737939Y-107224971D01*
X147737939Y-107224971D02*
X147666510Y-107296400D01*
X147666510Y-107296400D02*
X147523653Y-107367828D01*
X147523653Y-107367828D02*
X147380796Y-107367828D01*
X147380796Y-107367828D02*
X147237939Y-107296400D01*
X147237939Y-107296400D02*
X147166510Y-107224971D01*
X147166510Y-107224971D02*
X147095081Y-107082114D01*
X147095081Y-107082114D02*
X147023653Y-106796400D01*
X147023653Y-106796400D02*
X147023653Y-106439257D01*
X147023653Y-106439257D02*
X147095081Y-106153542D01*
X147095081Y-106153542D02*
X147166510Y-106010685D01*
X147166510Y-106010685D02*
X147237939Y-105939257D01*
X147237939Y-105939257D02*
X147380796Y-105867828D01*
X134452225Y-108282828D02*
X135309368Y-108282828D01*
X134880796Y-109782828D02*
X134880796Y-108282828D01*
X137452224Y-108997114D02*
X136952224Y-108997114D01*
X136952224Y-109782828D02*
X136952224Y-108282828D01*
X136952224Y-108282828D02*
X137666510Y-108282828D01*
X138523653Y-108282828D02*
X138809367Y-108282828D01*
X138809367Y-108282828D02*
X138952224Y-108354257D01*
X138952224Y-108354257D02*
X139095081Y-108497114D01*
X139095081Y-108497114D02*
X139166510Y-108782828D01*
X139166510Y-108782828D02*
X139166510Y-109282828D01*
X139166510Y-109282828D02*
X139095081Y-109568542D01*
X139095081Y-109568542D02*
X138952224Y-109711400D01*
X138952224Y-109711400D02*
X138809367Y-109782828D01*
X138809367Y-109782828D02*
X138523653Y-109782828D01*
X138523653Y-109782828D02*
X138380796Y-109711400D01*
X138380796Y-109711400D02*
X138237938Y-109568542D01*
X138237938Y-109568542D02*
X138166510Y-109282828D01*
X138166510Y-109282828D02*
X138166510Y-108782828D01*
X138166510Y-108782828D02*
X138237938Y-108497114D01*
X138237938Y-108497114D02*
X138380796Y-108354257D01*
X138380796Y-108354257D02*
X138523653Y-108282828D01*
X139666510Y-108282828D02*
X140666510Y-109782828D01*
X140666510Y-108282828D02*
X139666510Y-109782828D01*
X142309367Y-108425685D02*
X142380795Y-108354257D01*
X142380795Y-108354257D02*
X142523653Y-108282828D01*
X142523653Y-108282828D02*
X142880795Y-108282828D01*
X142880795Y-108282828D02*
X143023653Y-108354257D01*
X143023653Y-108354257D02*
X143095081Y-108425685D01*
X143095081Y-108425685D02*
X143166510Y-108568542D01*
X143166510Y-108568542D02*
X143166510Y-108711400D01*
X143166510Y-108711400D02*
X143095081Y-108925685D01*
X143095081Y-108925685D02*
X142237938Y-109782828D01*
X142237938Y-109782828D02*
X143166510Y-109782828D01*
X144095081Y-108282828D02*
X144237938Y-108282828D01*
X144237938Y-108282828D02*
X144380795Y-108354257D01*
X144380795Y-108354257D02*
X144452224Y-108425685D01*
X144452224Y-108425685D02*
X144523652Y-108568542D01*
X144523652Y-108568542D02*
X144595081Y-108854257D01*
X144595081Y-108854257D02*
X144595081Y-109211400D01*
X144595081Y-109211400D02*
X144523652Y-109497114D01*
X144523652Y-109497114D02*
X144452224Y-109639971D01*
X144452224Y-109639971D02*
X144380795Y-109711400D01*
X144380795Y-109711400D02*
X144237938Y-109782828D01*
X144237938Y-109782828D02*
X144095081Y-109782828D01*
X144095081Y-109782828D02*
X143952224Y-109711400D01*
X143952224Y-109711400D02*
X143880795Y-109639971D01*
X143880795Y-109639971D02*
X143809366Y-109497114D01*
X143809366Y-109497114D02*
X143737938Y-109211400D01*
X143737938Y-109211400D02*
X143737938Y-108854257D01*
X143737938Y-108854257D02*
X143809366Y-108568542D01*
X143809366Y-108568542D02*
X143880795Y-108425685D01*
X143880795Y-108425685D02*
X143952224Y-108354257D01*
X143952224Y-108354257D02*
X144095081Y-108282828D01*
X145166509Y-108425685D02*
X145237937Y-108354257D01*
X145237937Y-108354257D02*
X145380795Y-108282828D01*
X145380795Y-108282828D02*
X145737937Y-108282828D01*
X145737937Y-108282828D02*
X145880795Y-108354257D01*
X145880795Y-108354257D02*
X145952223Y-108425685D01*
X145952223Y-108425685D02*
X146023652Y-108568542D01*
X146023652Y-108568542D02*
X146023652Y-108711400D01*
X146023652Y-108711400D02*
X145952223Y-108925685D01*
X145952223Y-108925685D02*
X145095080Y-109782828D01*
X145095080Y-109782828D02*
X146023652Y-109782828D01*
X146523651Y-108282828D02*
X147452223Y-108282828D01*
X147452223Y-108282828D02*
X146952223Y-108854257D01*
X146952223Y-108854257D02*
X147166508Y-108854257D01*
X147166508Y-108854257D02*
X147309366Y-108925685D01*
X147309366Y-108925685D02*
X147380794Y-108997114D01*
X147380794Y-108997114D02*
X147452223Y-109139971D01*
X147452223Y-109139971D02*
X147452223Y-109497114D01*
X147452223Y-109497114D02*
X147380794Y-109639971D01*
X147380794Y-109639971D02*
X147309366Y-109711400D01*
X147309366Y-109711400D02*
X147166508Y-109782828D01*
X147166508Y-109782828D02*
X146737937Y-109782828D01*
X146737937Y-109782828D02*
X146595080Y-109711400D01*
X146595080Y-109711400D02*
X146523651Y-109639971D01*
D10*
X159213064Y-85737819D02*
X158736874Y-85737819D01*
X158736874Y-85737819D02*
X158689255Y-86214009D01*
X158689255Y-86214009D02*
X158736874Y-86166390D01*
X158736874Y-86166390D02*
X158832112Y-86118771D01*
X158832112Y-86118771D02*
X159070207Y-86118771D01*
X159070207Y-86118771D02*
X159165445Y-86166390D01*
X159165445Y-86166390D02*
X159213064Y-86214009D01*
X159213064Y-86214009D02*
X159260683Y-86309247D01*
X159260683Y-86309247D02*
X159260683Y-86547342D01*
X159260683Y-86547342D02*
X159213064Y-86642580D01*
X159213064Y-86642580D02*
X159165445Y-86690200D01*
X159165445Y-86690200D02*
X159070207Y-86737819D01*
X159070207Y-86737819D02*
X158832112Y-86737819D01*
X158832112Y-86737819D02*
X158736874Y-86690200D01*
X158736874Y-86690200D02*
X158689255Y-86642580D01*
X159546398Y-85737819D02*
X159879731Y-86737819D01*
X159879731Y-86737819D02*
X160213064Y-85737819D01*
X118818180Y-95694667D02*
X117818180Y-95932762D01*
X117818180Y-95932762D02*
X118532466Y-96123238D01*
X118532466Y-96123238D02*
X117818180Y-96313714D01*
X117818180Y-96313714D02*
X118818180Y-96551810D01*
X117818180Y-96932762D02*
X118818180Y-96932762D01*
X118341990Y-96932762D02*
X118341990Y-97504190D01*
X117818180Y-97504190D02*
X118818180Y-97504190D01*
X118818180Y-97837524D02*
X118818180Y-98408952D01*
X117818180Y-98123238D02*
X118818180Y-98123238D01*
X117160561Y-96266095D02*
X117208180Y-96170857D01*
X117208180Y-96170857D02*
X117208180Y-96028000D01*
X117208180Y-96028000D02*
X117160561Y-95885143D01*
X117160561Y-95885143D02*
X117065323Y-95789905D01*
X117065323Y-95789905D02*
X116970085Y-95742286D01*
X116970085Y-95742286D02*
X116779609Y-95694667D01*
X116779609Y-95694667D02*
X116636752Y-95694667D01*
X116636752Y-95694667D02*
X116446276Y-95742286D01*
X116446276Y-95742286D02*
X116351038Y-95789905D01*
X116351038Y-95789905D02*
X116255800Y-95885143D01*
X116255800Y-95885143D02*
X116208180Y-96028000D01*
X116208180Y-96028000D02*
X116208180Y-96123238D01*
X116208180Y-96123238D02*
X116255800Y-96266095D01*
X116255800Y-96266095D02*
X116303419Y-96313714D01*
X116303419Y-96313714D02*
X116636752Y-96313714D01*
X116636752Y-96313714D02*
X116636752Y-96123238D01*
X116208180Y-96742286D02*
X117208180Y-96742286D01*
X117208180Y-96742286D02*
X116208180Y-97313714D01*
X116208180Y-97313714D02*
X117208180Y-97313714D01*
X116208180Y-97789905D02*
X117208180Y-97789905D01*
X117208180Y-97789905D02*
X117208180Y-98028000D01*
X117208180Y-98028000D02*
X117160561Y-98170857D01*
X117160561Y-98170857D02*
X117065323Y-98266095D01*
X117065323Y-98266095D02*
X116970085Y-98313714D01*
X116970085Y-98313714D02*
X116779609Y-98361333D01*
X116779609Y-98361333D02*
X116636752Y-98361333D01*
X116636752Y-98361333D02*
X116446276Y-98313714D01*
X116446276Y-98313714D02*
X116351038Y-98266095D01*
X116351038Y-98266095D02*
X116255800Y-98170857D01*
X116255800Y-98170857D02*
X116208180Y-98028000D01*
X116208180Y-98028000D02*
X116208180Y-97789905D01*
X156927350Y-91817819D02*
X156451160Y-91817819D01*
X156451160Y-91817819D02*
X156451160Y-90817819D01*
X157260684Y-91817819D02*
X157260684Y-90817819D01*
X158260683Y-90865438D02*
X158165445Y-90817819D01*
X158165445Y-90817819D02*
X158022588Y-90817819D01*
X158022588Y-90817819D02*
X157879731Y-90865438D01*
X157879731Y-90865438D02*
X157784493Y-90960676D01*
X157784493Y-90960676D02*
X157736874Y-91055914D01*
X157736874Y-91055914D02*
X157689255Y-91246390D01*
X157689255Y-91246390D02*
X157689255Y-91389247D01*
X157689255Y-91389247D02*
X157736874Y-91579723D01*
X157736874Y-91579723D02*
X157784493Y-91674961D01*
X157784493Y-91674961D02*
X157879731Y-91770200D01*
X157879731Y-91770200D02*
X158022588Y-91817819D01*
X158022588Y-91817819D02*
X158117826Y-91817819D01*
X158117826Y-91817819D02*
X158260683Y-91770200D01*
X158260683Y-91770200D02*
X158308302Y-91722580D01*
X158308302Y-91722580D02*
X158308302Y-91389247D01*
X158308302Y-91389247D02*
X158117826Y-91389247D01*
X158736874Y-91817819D02*
X158736874Y-90817819D01*
X158736874Y-91294009D02*
X159308302Y-91294009D01*
X159308302Y-91817819D02*
X159308302Y-90817819D01*
X159641636Y-90817819D02*
X160213064Y-90817819D01*
X159927350Y-91817819D02*
X159927350Y-90817819D01*
X156451160Y-101977819D02*
X156451160Y-100977819D01*
X156451160Y-100977819D02*
X156689255Y-100977819D01*
X156689255Y-100977819D02*
X156832112Y-101025438D01*
X156832112Y-101025438D02*
X156927350Y-101120676D01*
X156927350Y-101120676D02*
X156974969Y-101215914D01*
X156974969Y-101215914D02*
X157022588Y-101406390D01*
X157022588Y-101406390D02*
X157022588Y-101549247D01*
X157022588Y-101549247D02*
X156974969Y-101739723D01*
X156974969Y-101739723D02*
X156927350Y-101834961D01*
X156927350Y-101834961D02*
X156832112Y-101930200D01*
X156832112Y-101930200D02*
X156689255Y-101977819D01*
X156689255Y-101977819D02*
X156451160Y-101977819D01*
X157641636Y-100977819D02*
X157832112Y-100977819D01*
X157832112Y-100977819D02*
X157927350Y-101025438D01*
X157927350Y-101025438D02*
X158022588Y-101120676D01*
X158022588Y-101120676D02*
X158070207Y-101311152D01*
X158070207Y-101311152D02*
X158070207Y-101644485D01*
X158070207Y-101644485D02*
X158022588Y-101834961D01*
X158022588Y-101834961D02*
X157927350Y-101930200D01*
X157927350Y-101930200D02*
X157832112Y-101977819D01*
X157832112Y-101977819D02*
X157641636Y-101977819D01*
X157641636Y-101977819D02*
X157546398Y-101930200D01*
X157546398Y-101930200D02*
X157451160Y-101834961D01*
X157451160Y-101834961D02*
X157403541Y-101644485D01*
X157403541Y-101644485D02*
X157403541Y-101311152D01*
X157403541Y-101311152D02*
X157451160Y-101120676D01*
X157451160Y-101120676D02*
X157546398Y-101025438D01*
X157546398Y-101025438D02*
X157641636Y-100977819D01*
X158689255Y-100977819D02*
X158879731Y-100977819D01*
X158879731Y-100977819D02*
X158974969Y-101025438D01*
X158974969Y-101025438D02*
X159070207Y-101120676D01*
X159070207Y-101120676D02*
X159117826Y-101311152D01*
X159117826Y-101311152D02*
X159117826Y-101644485D01*
X159117826Y-101644485D02*
X159070207Y-101834961D01*
X159070207Y-101834961D02*
X158974969Y-101930200D01*
X158974969Y-101930200D02*
X158879731Y-101977819D01*
X158879731Y-101977819D02*
X158689255Y-101977819D01*
X158689255Y-101977819D02*
X158594017Y-101930200D01*
X158594017Y-101930200D02*
X158498779Y-101834961D01*
X158498779Y-101834961D02*
X158451160Y-101644485D01*
X158451160Y-101644485D02*
X158451160Y-101311152D01*
X158451160Y-101311152D02*
X158498779Y-101120676D01*
X158498779Y-101120676D02*
X158594017Y-101025438D01*
X158594017Y-101025438D02*
X158689255Y-100977819D01*
X160117826Y-101977819D02*
X159784493Y-101501628D01*
X159546398Y-101977819D02*
X159546398Y-100977819D01*
X159546398Y-100977819D02*
X159927350Y-100977819D01*
X159927350Y-100977819D02*
X160022588Y-101025438D01*
X160022588Y-101025438D02*
X160070207Y-101073057D01*
X160070207Y-101073057D02*
X160117826Y-101168295D01*
X160117826Y-101168295D02*
X160117826Y-101311152D01*
X160117826Y-101311152D02*
X160070207Y-101406390D01*
X160070207Y-101406390D02*
X160022588Y-101454009D01*
X160022588Y-101454009D02*
X159927350Y-101501628D01*
X159927350Y-101501628D02*
X159546398Y-101501628D01*
X117160561Y-113030095D02*
X117208180Y-112934857D01*
X117208180Y-112934857D02*
X117208180Y-112792000D01*
X117208180Y-112792000D02*
X117160561Y-112649143D01*
X117160561Y-112649143D02*
X117065323Y-112553905D01*
X117065323Y-112553905D02*
X116970085Y-112506286D01*
X116970085Y-112506286D02*
X116779609Y-112458667D01*
X116779609Y-112458667D02*
X116636752Y-112458667D01*
X116636752Y-112458667D02*
X116446276Y-112506286D01*
X116446276Y-112506286D02*
X116351038Y-112553905D01*
X116351038Y-112553905D02*
X116255800Y-112649143D01*
X116255800Y-112649143D02*
X116208180Y-112792000D01*
X116208180Y-112792000D02*
X116208180Y-112887238D01*
X116208180Y-112887238D02*
X116255800Y-113030095D01*
X116255800Y-113030095D02*
X116303419Y-113077714D01*
X116303419Y-113077714D02*
X116636752Y-113077714D01*
X116636752Y-113077714D02*
X116636752Y-112887238D01*
X116208180Y-113506286D02*
X117208180Y-113506286D01*
X117208180Y-113506286D02*
X116208180Y-114077714D01*
X116208180Y-114077714D02*
X117208180Y-114077714D01*
X116208180Y-114553905D02*
X117208180Y-114553905D01*
X117208180Y-114553905D02*
X117208180Y-114792000D01*
X117208180Y-114792000D02*
X117160561Y-114934857D01*
X117160561Y-114934857D02*
X117065323Y-115030095D01*
X117065323Y-115030095D02*
X116970085Y-115077714D01*
X116970085Y-115077714D02*
X116779609Y-115125333D01*
X116779609Y-115125333D02*
X116636752Y-115125333D01*
X116636752Y-115125333D02*
X116446276Y-115077714D01*
X116446276Y-115077714D02*
X116351038Y-115030095D01*
X116351038Y-115030095D02*
X116255800Y-114934857D01*
X116255800Y-114934857D02*
X116208180Y-114792000D01*
X116208180Y-114792000D02*
X116208180Y-114553905D01*
X153403541Y-108851819D02*
X153641636Y-109851819D01*
X153641636Y-109851819D02*
X153832112Y-109137533D01*
X153832112Y-109137533D02*
X154022588Y-109851819D01*
X154022588Y-109851819D02*
X154260684Y-108851819D01*
X154641636Y-109851819D02*
X154641636Y-108851819D01*
X154641636Y-109328009D02*
X155213064Y-109328009D01*
X155213064Y-109851819D02*
X155213064Y-108851819D01*
X155546398Y-108851819D02*
X156117826Y-108851819D01*
X155832112Y-109851819D02*
X155832112Y-108851819D01*
X157165445Y-108804200D02*
X156308303Y-110089914D01*
X158022588Y-108899438D02*
X157927350Y-108851819D01*
X157927350Y-108851819D02*
X157784493Y-108851819D01*
X157784493Y-108851819D02*
X157641636Y-108899438D01*
X157641636Y-108899438D02*
X157546398Y-108994676D01*
X157546398Y-108994676D02*
X157498779Y-109089914D01*
X157498779Y-109089914D02*
X157451160Y-109280390D01*
X157451160Y-109280390D02*
X157451160Y-109423247D01*
X157451160Y-109423247D02*
X157498779Y-109613723D01*
X157498779Y-109613723D02*
X157546398Y-109708961D01*
X157546398Y-109708961D02*
X157641636Y-109804200D01*
X157641636Y-109804200D02*
X157784493Y-109851819D01*
X157784493Y-109851819D02*
X157879731Y-109851819D01*
X157879731Y-109851819D02*
X158022588Y-109804200D01*
X158022588Y-109804200D02*
X158070207Y-109756580D01*
X158070207Y-109756580D02*
X158070207Y-109423247D01*
X158070207Y-109423247D02*
X157879731Y-109423247D01*
X158498779Y-109851819D02*
X158498779Y-108851819D01*
X158498779Y-108851819D02*
X159070207Y-109851819D01*
X159070207Y-109851819D02*
X159070207Y-108851819D01*
X159546398Y-109851819D02*
X159546398Y-108851819D01*
X159546398Y-108851819D02*
X159784493Y-108851819D01*
X159784493Y-108851819D02*
X159927350Y-108899438D01*
X159927350Y-108899438D02*
X160022588Y-108994676D01*
X160022588Y-108994676D02*
X160070207Y-109089914D01*
X160070207Y-109089914D02*
X160117826Y-109280390D01*
X160117826Y-109280390D02*
X160117826Y-109423247D01*
X160117826Y-109423247D02*
X160070207Y-109613723D01*
X160070207Y-109613723D02*
X160022588Y-109708961D01*
X160022588Y-109708961D02*
X159927350Y-109804200D01*
X159927350Y-109804200D02*
X159784493Y-109851819D01*
X159784493Y-109851819D02*
X159546398Y-109851819D01*
X157689255Y-88277819D02*
X158308302Y-88277819D01*
X158308302Y-88277819D02*
X157974969Y-88658771D01*
X157974969Y-88658771D02*
X158117826Y-88658771D01*
X158117826Y-88658771D02*
X158213064Y-88706390D01*
X158213064Y-88706390D02*
X158260683Y-88754009D01*
X158260683Y-88754009D02*
X158308302Y-88849247D01*
X158308302Y-88849247D02*
X158308302Y-89087342D01*
X158308302Y-89087342D02*
X158260683Y-89182580D01*
X158260683Y-89182580D02*
X158213064Y-89230200D01*
X158213064Y-89230200D02*
X158117826Y-89277819D01*
X158117826Y-89277819D02*
X157832112Y-89277819D01*
X157832112Y-89277819D02*
X157736874Y-89230200D01*
X157736874Y-89230200D02*
X157689255Y-89182580D01*
X158594017Y-88277819D02*
X158927350Y-89277819D01*
X158927350Y-89277819D02*
X159260683Y-88277819D01*
X159498779Y-88277819D02*
X160117826Y-88277819D01*
X160117826Y-88277819D02*
X159784493Y-88658771D01*
X159784493Y-88658771D02*
X159927350Y-88658771D01*
X159927350Y-88658771D02*
X160022588Y-88706390D01*
X160022588Y-88706390D02*
X160070207Y-88754009D01*
X160070207Y-88754009D02*
X160117826Y-88849247D01*
X160117826Y-88849247D02*
X160117826Y-89087342D01*
X160117826Y-89087342D02*
X160070207Y-89182580D01*
X160070207Y-89182580D02*
X160022588Y-89230200D01*
X160022588Y-89230200D02*
X159927350Y-89277819D01*
X159927350Y-89277819D02*
X159641636Y-89277819D01*
X159641636Y-89277819D02*
X159546398Y-89230200D01*
X159546398Y-89230200D02*
X159498779Y-89182580D01*
X156736874Y-96151819D02*
X156927350Y-96151819D01*
X156927350Y-96151819D02*
X157022588Y-96199438D01*
X157022588Y-96199438D02*
X157117826Y-96294676D01*
X157117826Y-96294676D02*
X157165445Y-96485152D01*
X157165445Y-96485152D02*
X157165445Y-96818485D01*
X157165445Y-96818485D02*
X157117826Y-97008961D01*
X157117826Y-97008961D02*
X157022588Y-97104200D01*
X157022588Y-97104200D02*
X156927350Y-97151819D01*
X156927350Y-97151819D02*
X156736874Y-97151819D01*
X156736874Y-97151819D02*
X156641636Y-97104200D01*
X156641636Y-97104200D02*
X156546398Y-97008961D01*
X156546398Y-97008961D02*
X156498779Y-96818485D01*
X156498779Y-96818485D02*
X156498779Y-96485152D01*
X156498779Y-96485152D02*
X156546398Y-96294676D01*
X156546398Y-96294676D02*
X156641636Y-96199438D01*
X156641636Y-96199438D02*
X156736874Y-96151819D01*
X157594017Y-97151819D02*
X157594017Y-96151819D01*
X157594017Y-96151819D02*
X157974969Y-96151819D01*
X157974969Y-96151819D02*
X158070207Y-96199438D01*
X158070207Y-96199438D02*
X158117826Y-96247057D01*
X158117826Y-96247057D02*
X158165445Y-96342295D01*
X158165445Y-96342295D02*
X158165445Y-96485152D01*
X158165445Y-96485152D02*
X158117826Y-96580390D01*
X158117826Y-96580390D02*
X158070207Y-96628009D01*
X158070207Y-96628009D02*
X157974969Y-96675628D01*
X157974969Y-96675628D02*
X157594017Y-96675628D01*
X158594017Y-96628009D02*
X158927350Y-96628009D01*
X159070207Y-97151819D02*
X158594017Y-97151819D01*
X158594017Y-97151819D02*
X158594017Y-96151819D01*
X158594017Y-96151819D02*
X159070207Y-96151819D01*
X159498779Y-97151819D02*
X159498779Y-96151819D01*
X159498779Y-96151819D02*
X160070207Y-97151819D01*
X160070207Y-97151819D02*
X160070207Y-96151819D01*
X153260683Y-103994009D02*
X153403540Y-104041628D01*
X153403540Y-104041628D02*
X153451159Y-104089247D01*
X153451159Y-104089247D02*
X153498778Y-104184485D01*
X153498778Y-104184485D02*
X153498778Y-104327342D01*
X153498778Y-104327342D02*
X153451159Y-104422580D01*
X153451159Y-104422580D02*
X153403540Y-104470200D01*
X153403540Y-104470200D02*
X153308302Y-104517819D01*
X153308302Y-104517819D02*
X152927350Y-104517819D01*
X152927350Y-104517819D02*
X152927350Y-103517819D01*
X152927350Y-103517819D02*
X153260683Y-103517819D01*
X153260683Y-103517819D02*
X153355921Y-103565438D01*
X153355921Y-103565438D02*
X153403540Y-103613057D01*
X153403540Y-103613057D02*
X153451159Y-103708295D01*
X153451159Y-103708295D02*
X153451159Y-103803533D01*
X153451159Y-103803533D02*
X153403540Y-103898771D01*
X153403540Y-103898771D02*
X153355921Y-103946390D01*
X153355921Y-103946390D02*
X153260683Y-103994009D01*
X153260683Y-103994009D02*
X152927350Y-103994009D01*
X154403540Y-104517819D02*
X153927350Y-104517819D01*
X153927350Y-104517819D02*
X153927350Y-103517819D01*
X154736874Y-104517819D02*
X154736874Y-103517819D01*
X155308302Y-104517819D02*
X154879731Y-103946390D01*
X155308302Y-103517819D02*
X154736874Y-104089247D01*
X156451159Y-103470200D02*
X155594017Y-104755914D01*
X156974969Y-103517819D02*
X157165445Y-103517819D01*
X157165445Y-103517819D02*
X157260683Y-103565438D01*
X157260683Y-103565438D02*
X157355921Y-103660676D01*
X157355921Y-103660676D02*
X157403540Y-103851152D01*
X157403540Y-103851152D02*
X157403540Y-104184485D01*
X157403540Y-104184485D02*
X157355921Y-104374961D01*
X157355921Y-104374961D02*
X157260683Y-104470200D01*
X157260683Y-104470200D02*
X157165445Y-104517819D01*
X157165445Y-104517819D02*
X156974969Y-104517819D01*
X156974969Y-104517819D02*
X156879731Y-104470200D01*
X156879731Y-104470200D02*
X156784493Y-104374961D01*
X156784493Y-104374961D02*
X156736874Y-104184485D01*
X156736874Y-104184485D02*
X156736874Y-103851152D01*
X156736874Y-103851152D02*
X156784493Y-103660676D01*
X156784493Y-103660676D02*
X156879731Y-103565438D01*
X156879731Y-103565438D02*
X156974969Y-103517819D01*
X158165445Y-103994009D02*
X158308302Y-104041628D01*
X158308302Y-104041628D02*
X158355921Y-104089247D01*
X158355921Y-104089247D02*
X158403540Y-104184485D01*
X158403540Y-104184485D02*
X158403540Y-104327342D01*
X158403540Y-104327342D02*
X158355921Y-104422580D01*
X158355921Y-104422580D02*
X158308302Y-104470200D01*
X158308302Y-104470200D02*
X158213064Y-104517819D01*
X158213064Y-104517819D02*
X157832112Y-104517819D01*
X157832112Y-104517819D02*
X157832112Y-103517819D01*
X157832112Y-103517819D02*
X158165445Y-103517819D01*
X158165445Y-103517819D02*
X158260683Y-103565438D01*
X158260683Y-103565438D02*
X158308302Y-103613057D01*
X158308302Y-103613057D02*
X158355921Y-103708295D01*
X158355921Y-103708295D02*
X158355921Y-103803533D01*
X158355921Y-103803533D02*
X158308302Y-103898771D01*
X158308302Y-103898771D02*
X158260683Y-103946390D01*
X158260683Y-103946390D02*
X158165445Y-103994009D01*
X158165445Y-103994009D02*
X157832112Y-103994009D01*
X158784493Y-104470200D02*
X158927350Y-104517819D01*
X158927350Y-104517819D02*
X159165445Y-104517819D01*
X159165445Y-104517819D02*
X159260683Y-104470200D01*
X159260683Y-104470200D02*
X159308302Y-104422580D01*
X159308302Y-104422580D02*
X159355921Y-104327342D01*
X159355921Y-104327342D02*
X159355921Y-104232104D01*
X159355921Y-104232104D02*
X159308302Y-104136866D01*
X159308302Y-104136866D02*
X159260683Y-104089247D01*
X159260683Y-104089247D02*
X159165445Y-104041628D01*
X159165445Y-104041628D02*
X158974969Y-103994009D01*
X158974969Y-103994009D02*
X158879731Y-103946390D01*
X158879731Y-103946390D02*
X158832112Y-103898771D01*
X158832112Y-103898771D02*
X158784493Y-103803533D01*
X158784493Y-103803533D02*
X158784493Y-103708295D01*
X158784493Y-103708295D02*
X158832112Y-103613057D01*
X158832112Y-103613057D02*
X158879731Y-103565438D01*
X158879731Y-103565438D02*
X158974969Y-103517819D01*
X158974969Y-103517819D02*
X159213064Y-103517819D01*
X159213064Y-103517819D02*
X159355921Y-103565438D01*
X159641636Y-103517819D02*
X160213064Y-103517819D01*
X159927350Y-104517819D02*
X159927350Y-103517819D01*
X118341990Y-106354666D02*
X118294371Y-106497523D01*
X118294371Y-106497523D02*
X118246752Y-106545142D01*
X118246752Y-106545142D02*
X118151514Y-106592761D01*
X118151514Y-106592761D02*
X118008657Y-106592761D01*
X118008657Y-106592761D02*
X117913419Y-106545142D01*
X117913419Y-106545142D02*
X117865800Y-106497523D01*
X117865800Y-106497523D02*
X117818180Y-106402285D01*
X117818180Y-106402285D02*
X117818180Y-106021333D01*
X117818180Y-106021333D02*
X118818180Y-106021333D01*
X118818180Y-106021333D02*
X118818180Y-106354666D01*
X118818180Y-106354666D02*
X118770561Y-106449904D01*
X118770561Y-106449904D02*
X118722942Y-106497523D01*
X118722942Y-106497523D02*
X118627704Y-106545142D01*
X118627704Y-106545142D02*
X118532466Y-106545142D01*
X118532466Y-106545142D02*
X118437228Y-106497523D01*
X118437228Y-106497523D02*
X118389609Y-106449904D01*
X118389609Y-106449904D02*
X118341990Y-106354666D01*
X118341990Y-106354666D02*
X118341990Y-106021333D01*
X117818180Y-107497523D02*
X117818180Y-107021333D01*
X117818180Y-107021333D02*
X118818180Y-107021333D01*
X117818180Y-107830857D02*
X118818180Y-107830857D01*
X117818180Y-108402285D02*
X118389609Y-107973714D01*
X118818180Y-108402285D02*
X118246752Y-107830857D01*
X117208180Y-105735619D02*
X117208180Y-105926095D01*
X117208180Y-105926095D02*
X117160561Y-106021333D01*
X117160561Y-106021333D02*
X117065323Y-106116571D01*
X117065323Y-106116571D02*
X116874847Y-106164190D01*
X116874847Y-106164190D02*
X116541514Y-106164190D01*
X116541514Y-106164190D02*
X116351038Y-106116571D01*
X116351038Y-106116571D02*
X116255800Y-106021333D01*
X116255800Y-106021333D02*
X116208180Y-105926095D01*
X116208180Y-105926095D02*
X116208180Y-105735619D01*
X116208180Y-105735619D02*
X116255800Y-105640381D01*
X116255800Y-105640381D02*
X116351038Y-105545143D01*
X116351038Y-105545143D02*
X116541514Y-105497524D01*
X116541514Y-105497524D02*
X116874847Y-105497524D01*
X116874847Y-105497524D02*
X117065323Y-105545143D01*
X117065323Y-105545143D02*
X117160561Y-105640381D01*
X117160561Y-105640381D02*
X117208180Y-105735619D01*
X116731990Y-106926095D02*
X116684371Y-107068952D01*
X116684371Y-107068952D02*
X116636752Y-107116571D01*
X116636752Y-107116571D02*
X116541514Y-107164190D01*
X116541514Y-107164190D02*
X116398657Y-107164190D01*
X116398657Y-107164190D02*
X116303419Y-107116571D01*
X116303419Y-107116571D02*
X116255800Y-107068952D01*
X116255800Y-107068952D02*
X116208180Y-106973714D01*
X116208180Y-106973714D02*
X116208180Y-106592762D01*
X116208180Y-106592762D02*
X117208180Y-106592762D01*
X117208180Y-106592762D02*
X117208180Y-106926095D01*
X117208180Y-106926095D02*
X117160561Y-107021333D01*
X117160561Y-107021333D02*
X117112942Y-107068952D01*
X117112942Y-107068952D02*
X117017704Y-107116571D01*
X117017704Y-107116571D02*
X116922466Y-107116571D01*
X116922466Y-107116571D02*
X116827228Y-107068952D01*
X116827228Y-107068952D02*
X116779609Y-107021333D01*
X116779609Y-107021333D02*
X116731990Y-106926095D01*
X116731990Y-106926095D02*
X116731990Y-106592762D01*
X116255800Y-107545143D02*
X116208180Y-107688000D01*
X116208180Y-107688000D02*
X116208180Y-107926095D01*
X116208180Y-107926095D02*
X116255800Y-108021333D01*
X116255800Y-108021333D02*
X116303419Y-108068952D01*
X116303419Y-108068952D02*
X116398657Y-108116571D01*
X116398657Y-108116571D02*
X116493895Y-108116571D01*
X116493895Y-108116571D02*
X116589133Y-108068952D01*
X116589133Y-108068952D02*
X116636752Y-108021333D01*
X116636752Y-108021333D02*
X116684371Y-107926095D01*
X116684371Y-107926095D02*
X116731990Y-107735619D01*
X116731990Y-107735619D02*
X116779609Y-107640381D01*
X116779609Y-107640381D02*
X116827228Y-107592762D01*
X116827228Y-107592762D02*
X116922466Y-107545143D01*
X116922466Y-107545143D02*
X117017704Y-107545143D01*
X117017704Y-107545143D02*
X117112942Y-107592762D01*
X117112942Y-107592762D02*
X117160561Y-107640381D01*
X117160561Y-107640381D02*
X117208180Y-107735619D01*
X117208180Y-107735619D02*
X117208180Y-107973714D01*
X117208180Y-107973714D02*
X117160561Y-108116571D01*
X117208180Y-108402286D02*
X117208180Y-108973714D01*
X116208180Y-108688000D02*
X117208180Y-108688000D01*
X156974969Y-98437819D02*
X157165445Y-98437819D01*
X157165445Y-98437819D02*
X157260683Y-98485438D01*
X157260683Y-98485438D02*
X157355921Y-98580676D01*
X157355921Y-98580676D02*
X157403540Y-98771152D01*
X157403540Y-98771152D02*
X157403540Y-99104485D01*
X157403540Y-99104485D02*
X157355921Y-99294961D01*
X157355921Y-99294961D02*
X157260683Y-99390200D01*
X157260683Y-99390200D02*
X157165445Y-99437819D01*
X157165445Y-99437819D02*
X156974969Y-99437819D01*
X156974969Y-99437819D02*
X156879731Y-99390200D01*
X156879731Y-99390200D02*
X156784493Y-99294961D01*
X156784493Y-99294961D02*
X156736874Y-99104485D01*
X156736874Y-99104485D02*
X156736874Y-98771152D01*
X156736874Y-98771152D02*
X156784493Y-98580676D01*
X156784493Y-98580676D02*
X156879731Y-98485438D01*
X156879731Y-98485438D02*
X156974969Y-98437819D01*
X158165445Y-98914009D02*
X158308302Y-98961628D01*
X158308302Y-98961628D02*
X158355921Y-99009247D01*
X158355921Y-99009247D02*
X158403540Y-99104485D01*
X158403540Y-99104485D02*
X158403540Y-99247342D01*
X158403540Y-99247342D02*
X158355921Y-99342580D01*
X158355921Y-99342580D02*
X158308302Y-99390200D01*
X158308302Y-99390200D02*
X158213064Y-99437819D01*
X158213064Y-99437819D02*
X157832112Y-99437819D01*
X157832112Y-99437819D02*
X157832112Y-98437819D01*
X157832112Y-98437819D02*
X158165445Y-98437819D01*
X158165445Y-98437819D02*
X158260683Y-98485438D01*
X158260683Y-98485438D02*
X158308302Y-98533057D01*
X158308302Y-98533057D02*
X158355921Y-98628295D01*
X158355921Y-98628295D02*
X158355921Y-98723533D01*
X158355921Y-98723533D02*
X158308302Y-98818771D01*
X158308302Y-98818771D02*
X158260683Y-98866390D01*
X158260683Y-98866390D02*
X158165445Y-98914009D01*
X158165445Y-98914009D02*
X157832112Y-98914009D01*
X158784493Y-99390200D02*
X158927350Y-99437819D01*
X158927350Y-99437819D02*
X159165445Y-99437819D01*
X159165445Y-99437819D02*
X159260683Y-99390200D01*
X159260683Y-99390200D02*
X159308302Y-99342580D01*
X159308302Y-99342580D02*
X159355921Y-99247342D01*
X159355921Y-99247342D02*
X159355921Y-99152104D01*
X159355921Y-99152104D02*
X159308302Y-99056866D01*
X159308302Y-99056866D02*
X159260683Y-99009247D01*
X159260683Y-99009247D02*
X159165445Y-98961628D01*
X159165445Y-98961628D02*
X158974969Y-98914009D01*
X158974969Y-98914009D02*
X158879731Y-98866390D01*
X158879731Y-98866390D02*
X158832112Y-98818771D01*
X158832112Y-98818771D02*
X158784493Y-98723533D01*
X158784493Y-98723533D02*
X158784493Y-98628295D01*
X158784493Y-98628295D02*
X158832112Y-98533057D01*
X158832112Y-98533057D02*
X158879731Y-98485438D01*
X158879731Y-98485438D02*
X158974969Y-98437819D01*
X158974969Y-98437819D02*
X159213064Y-98437819D01*
X159213064Y-98437819D02*
X159355921Y-98485438D01*
X159641636Y-98437819D02*
X160213064Y-98437819D01*
X159927350Y-99437819D02*
X159927350Y-98437819D01*
X156403540Y-94262580D02*
X156355921Y-94310200D01*
X156355921Y-94310200D02*
X156213064Y-94357819D01*
X156213064Y-94357819D02*
X156117826Y-94357819D01*
X156117826Y-94357819D02*
X155974969Y-94310200D01*
X155974969Y-94310200D02*
X155879731Y-94214961D01*
X155879731Y-94214961D02*
X155832112Y-94119723D01*
X155832112Y-94119723D02*
X155784493Y-93929247D01*
X155784493Y-93929247D02*
X155784493Y-93786390D01*
X155784493Y-93786390D02*
X155832112Y-93595914D01*
X155832112Y-93595914D02*
X155879731Y-93500676D01*
X155879731Y-93500676D02*
X155974969Y-93405438D01*
X155974969Y-93405438D02*
X156117826Y-93357819D01*
X156117826Y-93357819D02*
X156213064Y-93357819D01*
X156213064Y-93357819D02*
X156355921Y-93405438D01*
X156355921Y-93405438D02*
X156403540Y-93453057D01*
X157308302Y-94357819D02*
X156832112Y-94357819D01*
X156832112Y-94357819D02*
X156832112Y-93357819D01*
X157832112Y-93357819D02*
X158022588Y-93357819D01*
X158022588Y-93357819D02*
X158117826Y-93405438D01*
X158117826Y-93405438D02*
X158213064Y-93500676D01*
X158213064Y-93500676D02*
X158260683Y-93691152D01*
X158260683Y-93691152D02*
X158260683Y-94024485D01*
X158260683Y-94024485D02*
X158213064Y-94214961D01*
X158213064Y-94214961D02*
X158117826Y-94310200D01*
X158117826Y-94310200D02*
X158022588Y-94357819D01*
X158022588Y-94357819D02*
X157832112Y-94357819D01*
X157832112Y-94357819D02*
X157736874Y-94310200D01*
X157736874Y-94310200D02*
X157641636Y-94214961D01*
X157641636Y-94214961D02*
X157594017Y-94024485D01*
X157594017Y-94024485D02*
X157594017Y-93691152D01*
X157594017Y-93691152D02*
X157641636Y-93500676D01*
X157641636Y-93500676D02*
X157736874Y-93405438D01*
X157736874Y-93405438D02*
X157832112Y-93357819D01*
X158641636Y-94310200D02*
X158784493Y-94357819D01*
X158784493Y-94357819D02*
X159022588Y-94357819D01*
X159022588Y-94357819D02*
X159117826Y-94310200D01*
X159117826Y-94310200D02*
X159165445Y-94262580D01*
X159165445Y-94262580D02*
X159213064Y-94167342D01*
X159213064Y-94167342D02*
X159213064Y-94072104D01*
X159213064Y-94072104D02*
X159165445Y-93976866D01*
X159165445Y-93976866D02*
X159117826Y-93929247D01*
X159117826Y-93929247D02*
X159022588Y-93881628D01*
X159022588Y-93881628D02*
X158832112Y-93834009D01*
X158832112Y-93834009D02*
X158736874Y-93786390D01*
X158736874Y-93786390D02*
X158689255Y-93738771D01*
X158689255Y-93738771D02*
X158641636Y-93643533D01*
X158641636Y-93643533D02*
X158641636Y-93548295D01*
X158641636Y-93548295D02*
X158689255Y-93453057D01*
X158689255Y-93453057D02*
X158736874Y-93405438D01*
X158736874Y-93405438D02*
X158832112Y-93357819D01*
X158832112Y-93357819D02*
X159070207Y-93357819D01*
X159070207Y-93357819D02*
X159213064Y-93405438D01*
X159641636Y-93834009D02*
X159974969Y-93834009D01*
X160117826Y-94357819D02*
X159641636Y-94357819D01*
X159641636Y-94357819D02*
X159641636Y-93357819D01*
X159641636Y-93357819D02*
X160117826Y-93357819D01*
X151638095Y-111705319D02*
X151638095Y-112514842D01*
X151638095Y-112514842D02*
X151685714Y-112610080D01*
X151685714Y-112610080D02*
X151733333Y-112657700D01*
X151733333Y-112657700D02*
X151828571Y-112705319D01*
X151828571Y-112705319D02*
X152019047Y-112705319D01*
X152019047Y-112705319D02*
X152114285Y-112657700D01*
X152114285Y-112657700D02*
X152161904Y-112610080D01*
X152161904Y-112610080D02*
X152209523Y-112514842D01*
X152209523Y-112514842D02*
X152209523Y-111705319D01*
X152638095Y-111800557D02*
X152685714Y-111752938D01*
X152685714Y-111752938D02*
X152780952Y-111705319D01*
X152780952Y-111705319D02*
X153019047Y-111705319D01*
X153019047Y-111705319D02*
X153114285Y-111752938D01*
X153114285Y-111752938D02*
X153161904Y-111800557D01*
X153161904Y-111800557D02*
X153209523Y-111895795D01*
X153209523Y-111895795D02*
X153209523Y-111991033D01*
X153209523Y-111991033D02*
X153161904Y-112133890D01*
X153161904Y-112133890D02*
X152590476Y-112705319D01*
X152590476Y-112705319D02*
X153209523Y-112705319D01*
X161464666Y-111004819D02*
X161464666Y-111719104D01*
X161464666Y-111719104D02*
X161417047Y-111861961D01*
X161417047Y-111861961D02*
X161321809Y-111957200D01*
X161321809Y-111957200D02*
X161178952Y-112004819D01*
X161178952Y-112004819D02*
X161083714Y-112004819D01*
X161893238Y-111100057D02*
X161940857Y-111052438D01*
X161940857Y-111052438D02*
X162036095Y-111004819D01*
X162036095Y-111004819D02*
X162274190Y-111004819D01*
X162274190Y-111004819D02*
X162369428Y-111052438D01*
X162369428Y-111052438D02*
X162417047Y-111100057D01*
X162417047Y-111100057D02*
X162464666Y-111195295D01*
X162464666Y-111195295D02*
X162464666Y-111290533D01*
X162464666Y-111290533D02*
X162417047Y-111433390D01*
X162417047Y-111433390D02*
X161845619Y-112004819D01*
X161845619Y-112004819D02*
X162464666Y-112004819D01*
X131341905Y-117040819D02*
X131341905Y-116040819D01*
X131341905Y-116040819D02*
X131580000Y-116040819D01*
X131580000Y-116040819D02*
X131722857Y-116088438D01*
X131722857Y-116088438D02*
X131818095Y-116183676D01*
X131818095Y-116183676D02*
X131865714Y-116278914D01*
X131865714Y-116278914D02*
X131913333Y-116469390D01*
X131913333Y-116469390D02*
X131913333Y-116612247D01*
X131913333Y-116612247D02*
X131865714Y-116802723D01*
X131865714Y-116802723D02*
X131818095Y-116897961D01*
X131818095Y-116897961D02*
X131722857Y-116993200D01*
X131722857Y-116993200D02*
X131580000Y-117040819D01*
X131580000Y-117040819D02*
X131341905Y-117040819D01*
X132770476Y-116374152D02*
X132770476Y-117040819D01*
X132532381Y-115993200D02*
X132294286Y-116707485D01*
X132294286Y-116707485D02*
X132913333Y-116707485D01*
X161273833Y-71828819D02*
X160940500Y-71352628D01*
X160702405Y-71828819D02*
X160702405Y-70828819D01*
X160702405Y-70828819D02*
X161083357Y-70828819D01*
X161083357Y-70828819D02*
X161178595Y-70876438D01*
X161178595Y-70876438D02*
X161226214Y-70924057D01*
X161226214Y-70924057D02*
X161273833Y-71019295D01*
X161273833Y-71019295D02*
X161273833Y-71162152D01*
X161273833Y-71162152D02*
X161226214Y-71257390D01*
X161226214Y-71257390D02*
X161178595Y-71305009D01*
X161178595Y-71305009D02*
X161083357Y-71352628D01*
X161083357Y-71352628D02*
X160702405Y-71352628D01*
X161607167Y-70828819D02*
X162226214Y-70828819D01*
X162226214Y-70828819D02*
X161892881Y-71209771D01*
X161892881Y-71209771D02*
X162035738Y-71209771D01*
X162035738Y-71209771D02*
X162130976Y-71257390D01*
X162130976Y-71257390D02*
X162178595Y-71305009D01*
X162178595Y-71305009D02*
X162226214Y-71400247D01*
X162226214Y-71400247D02*
X162226214Y-71638342D01*
X162226214Y-71638342D02*
X162178595Y-71733580D01*
X162178595Y-71733580D02*
X162130976Y-71781200D01*
X162130976Y-71781200D02*
X162035738Y-71828819D01*
X162035738Y-71828819D02*
X161750024Y-71828819D01*
X161750024Y-71828819D02*
X161654786Y-71781200D01*
X161654786Y-71781200D02*
X161607167Y-71733580D01*
X118776761Y-72178057D02*
X118681523Y-72130438D01*
X118681523Y-72130438D02*
X118586285Y-72035200D01*
X118586285Y-72035200D02*
X118443428Y-71892342D01*
X118443428Y-71892342D02*
X118348190Y-71844723D01*
X118348190Y-71844723D02*
X118252952Y-71844723D01*
X118300571Y-72082819D02*
X118205333Y-72035200D01*
X118205333Y-72035200D02*
X118110095Y-71939961D01*
X118110095Y-71939961D02*
X118062476Y-71749485D01*
X118062476Y-71749485D02*
X118062476Y-71416152D01*
X118062476Y-71416152D02*
X118110095Y-71225676D01*
X118110095Y-71225676D02*
X118205333Y-71130438D01*
X118205333Y-71130438D02*
X118300571Y-71082819D01*
X118300571Y-71082819D02*
X118491047Y-71082819D01*
X118491047Y-71082819D02*
X118586285Y-71130438D01*
X118586285Y-71130438D02*
X118681523Y-71225676D01*
X118681523Y-71225676D02*
X118729142Y-71416152D01*
X118729142Y-71416152D02*
X118729142Y-71749485D01*
X118729142Y-71749485D02*
X118681523Y-71939961D01*
X118681523Y-71939961D02*
X118586285Y-72035200D01*
X118586285Y-72035200D02*
X118491047Y-72082819D01*
X118491047Y-72082819D02*
X118300571Y-72082819D01*
X119062476Y-71082819D02*
X119681523Y-71082819D01*
X119681523Y-71082819D02*
X119348190Y-71463771D01*
X119348190Y-71463771D02*
X119491047Y-71463771D01*
X119491047Y-71463771D02*
X119586285Y-71511390D01*
X119586285Y-71511390D02*
X119633904Y-71559009D01*
X119633904Y-71559009D02*
X119681523Y-71654247D01*
X119681523Y-71654247D02*
X119681523Y-71892342D01*
X119681523Y-71892342D02*
X119633904Y-71987580D01*
X119633904Y-71987580D02*
X119586285Y-72035200D01*
X119586285Y-72035200D02*
X119491047Y-72082819D01*
X119491047Y-72082819D02*
X119205333Y-72082819D01*
X119205333Y-72082819D02*
X119110095Y-72035200D01*
X119110095Y-72035200D02*
X119062476Y-71987580D01*
X147998905Y-101038819D02*
X147998905Y-100038819D01*
X147998905Y-100038819D02*
X148237000Y-100038819D01*
X148237000Y-100038819D02*
X148379857Y-100086438D01*
X148379857Y-100086438D02*
X148475095Y-100181676D01*
X148475095Y-100181676D02*
X148522714Y-100276914D01*
X148522714Y-100276914D02*
X148570333Y-100467390D01*
X148570333Y-100467390D02*
X148570333Y-100610247D01*
X148570333Y-100610247D02*
X148522714Y-100800723D01*
X148522714Y-100800723D02*
X148475095Y-100895961D01*
X148475095Y-100895961D02*
X148379857Y-100991200D01*
X148379857Y-100991200D02*
X148237000Y-101038819D01*
X148237000Y-101038819D02*
X147998905Y-101038819D01*
X149522714Y-101038819D02*
X148951286Y-101038819D01*
X149237000Y-101038819D02*
X149237000Y-100038819D01*
X149237000Y-100038819D02*
X149141762Y-100181676D01*
X149141762Y-100181676D02*
X149046524Y-100276914D01*
X149046524Y-100276914D02*
X148951286Y-100324533D01*
X150785595Y-92494819D02*
X150785595Y-93304342D01*
X150785595Y-93304342D02*
X150833214Y-93399580D01*
X150833214Y-93399580D02*
X150880833Y-93447200D01*
X150880833Y-93447200D02*
X150976071Y-93494819D01*
X150976071Y-93494819D02*
X151166547Y-93494819D01*
X151166547Y-93494819D02*
X151261785Y-93447200D01*
X151261785Y-93447200D02*
X151309404Y-93399580D01*
X151309404Y-93399580D02*
X151357023Y-93304342D01*
X151357023Y-93304342D02*
X151357023Y-92494819D01*
X152357023Y-93494819D02*
X151785595Y-93494819D01*
X152071309Y-93494819D02*
X152071309Y-92494819D01*
X152071309Y-92494819D02*
X151976071Y-92637676D01*
X151976071Y-92637676D02*
X151880833Y-92732914D01*
X151880833Y-92732914D02*
X151785595Y-92780533D01*
X147407333Y-116967080D02*
X147359714Y-117014700D01*
X147359714Y-117014700D02*
X147216857Y-117062319D01*
X147216857Y-117062319D02*
X147121619Y-117062319D01*
X147121619Y-117062319D02*
X146978762Y-117014700D01*
X146978762Y-117014700D02*
X146883524Y-116919461D01*
X146883524Y-116919461D02*
X146835905Y-116824223D01*
X146835905Y-116824223D02*
X146788286Y-116633747D01*
X146788286Y-116633747D02*
X146788286Y-116490890D01*
X146788286Y-116490890D02*
X146835905Y-116300414D01*
X146835905Y-116300414D02*
X146883524Y-116205176D01*
X146883524Y-116205176D02*
X146978762Y-116109938D01*
X146978762Y-116109938D02*
X147121619Y-116062319D01*
X147121619Y-116062319D02*
X147216857Y-116062319D01*
X147216857Y-116062319D02*
X147359714Y-116109938D01*
X147359714Y-116109938D02*
X147407333Y-116157557D01*
X148359714Y-117062319D02*
X147788286Y-117062319D01*
X148074000Y-117062319D02*
X148074000Y-116062319D01*
X148074000Y-116062319D02*
X147978762Y-116205176D01*
X147978762Y-116205176D02*
X147883524Y-116300414D01*
X147883524Y-116300414D02*
X147788286Y-116348033D01*
X119030761Y-88180057D02*
X118935523Y-88132438D01*
X118935523Y-88132438D02*
X118840285Y-88037200D01*
X118840285Y-88037200D02*
X118697428Y-87894342D01*
X118697428Y-87894342D02*
X118602190Y-87846723D01*
X118602190Y-87846723D02*
X118506952Y-87846723D01*
X118554571Y-88084819D02*
X118459333Y-88037200D01*
X118459333Y-88037200D02*
X118364095Y-87941961D01*
X118364095Y-87941961D02*
X118316476Y-87751485D01*
X118316476Y-87751485D02*
X118316476Y-87418152D01*
X118316476Y-87418152D02*
X118364095Y-87227676D01*
X118364095Y-87227676D02*
X118459333Y-87132438D01*
X118459333Y-87132438D02*
X118554571Y-87084819D01*
X118554571Y-87084819D02*
X118745047Y-87084819D01*
X118745047Y-87084819D02*
X118840285Y-87132438D01*
X118840285Y-87132438D02*
X118935523Y-87227676D01*
X118935523Y-87227676D02*
X118983142Y-87418152D01*
X118983142Y-87418152D02*
X118983142Y-87751485D01*
X118983142Y-87751485D02*
X118935523Y-87941961D01*
X118935523Y-87941961D02*
X118840285Y-88037200D01*
X118840285Y-88037200D02*
X118745047Y-88084819D01*
X118745047Y-88084819D02*
X118554571Y-88084819D01*
X119840285Y-87418152D02*
X119840285Y-88084819D01*
X119602190Y-87037200D02*
X119364095Y-87751485D01*
X119364095Y-87751485D02*
X119983142Y-87751485D01*
X147998905Y-98498819D02*
X147998905Y-97498819D01*
X147998905Y-97498819D02*
X148237000Y-97498819D01*
X148237000Y-97498819D02*
X148379857Y-97546438D01*
X148379857Y-97546438D02*
X148475095Y-97641676D01*
X148475095Y-97641676D02*
X148522714Y-97736914D01*
X148522714Y-97736914D02*
X148570333Y-97927390D01*
X148570333Y-97927390D02*
X148570333Y-98070247D01*
X148570333Y-98070247D02*
X148522714Y-98260723D01*
X148522714Y-98260723D02*
X148475095Y-98355961D01*
X148475095Y-98355961D02*
X148379857Y-98451200D01*
X148379857Y-98451200D02*
X148237000Y-98498819D01*
X148237000Y-98498819D02*
X147998905Y-98498819D01*
X148951286Y-97594057D02*
X148998905Y-97546438D01*
X148998905Y-97546438D02*
X149094143Y-97498819D01*
X149094143Y-97498819D02*
X149332238Y-97498819D01*
X149332238Y-97498819D02*
X149427476Y-97546438D01*
X149427476Y-97546438D02*
X149475095Y-97594057D01*
X149475095Y-97594057D02*
X149522714Y-97689295D01*
X149522714Y-97689295D02*
X149522714Y-97784533D01*
X149522714Y-97784533D02*
X149475095Y-97927390D01*
X149475095Y-97927390D02*
X148903667Y-98498819D01*
X148903667Y-98498819D02*
X149522714Y-98498819D01*
X162718761Y-76242057D02*
X162623523Y-76194438D01*
X162623523Y-76194438D02*
X162528285Y-76099200D01*
X162528285Y-76099200D02*
X162385428Y-75956342D01*
X162385428Y-75956342D02*
X162290190Y-75908723D01*
X162290190Y-75908723D02*
X162194952Y-75908723D01*
X162242571Y-76146819D02*
X162147333Y-76099200D01*
X162147333Y-76099200D02*
X162052095Y-76003961D01*
X162052095Y-76003961D02*
X162004476Y-75813485D01*
X162004476Y-75813485D02*
X162004476Y-75480152D01*
X162004476Y-75480152D02*
X162052095Y-75289676D01*
X162052095Y-75289676D02*
X162147333Y-75194438D01*
X162147333Y-75194438D02*
X162242571Y-75146819D01*
X162242571Y-75146819D02*
X162433047Y-75146819D01*
X162433047Y-75146819D02*
X162528285Y-75194438D01*
X162528285Y-75194438D02*
X162623523Y-75289676D01*
X162623523Y-75289676D02*
X162671142Y-75480152D01*
X162671142Y-75480152D02*
X162671142Y-75813485D01*
X162671142Y-75813485D02*
X162623523Y-76003961D01*
X162623523Y-76003961D02*
X162528285Y-76099200D01*
X162528285Y-76099200D02*
X162433047Y-76146819D01*
X162433047Y-76146819D02*
X162242571Y-76146819D01*
X163052095Y-75242057D02*
X163099714Y-75194438D01*
X163099714Y-75194438D02*
X163194952Y-75146819D01*
X163194952Y-75146819D02*
X163433047Y-75146819D01*
X163433047Y-75146819D02*
X163528285Y-75194438D01*
X163528285Y-75194438D02*
X163575904Y-75242057D01*
X163575904Y-75242057D02*
X163623523Y-75337295D01*
X163623523Y-75337295D02*
X163623523Y-75432533D01*
X163623523Y-75432533D02*
X163575904Y-75575390D01*
X163575904Y-75575390D02*
X163004476Y-76146819D01*
X163004476Y-76146819D02*
X163623523Y-76146819D01*
X147998905Y-95958819D02*
X147998905Y-94958819D01*
X147998905Y-94958819D02*
X148237000Y-94958819D01*
X148237000Y-94958819D02*
X148379857Y-95006438D01*
X148379857Y-95006438D02*
X148475095Y-95101676D01*
X148475095Y-95101676D02*
X148522714Y-95196914D01*
X148522714Y-95196914D02*
X148570333Y-95387390D01*
X148570333Y-95387390D02*
X148570333Y-95530247D01*
X148570333Y-95530247D02*
X148522714Y-95720723D01*
X148522714Y-95720723D02*
X148475095Y-95815961D01*
X148475095Y-95815961D02*
X148379857Y-95911200D01*
X148379857Y-95911200D02*
X148237000Y-95958819D01*
X148237000Y-95958819D02*
X147998905Y-95958819D01*
X148903667Y-94958819D02*
X149522714Y-94958819D01*
X149522714Y-94958819D02*
X149189381Y-95339771D01*
X149189381Y-95339771D02*
X149332238Y-95339771D01*
X149332238Y-95339771D02*
X149427476Y-95387390D01*
X149427476Y-95387390D02*
X149475095Y-95435009D01*
X149475095Y-95435009D02*
X149522714Y-95530247D01*
X149522714Y-95530247D02*
X149522714Y-95768342D01*
X149522714Y-95768342D02*
X149475095Y-95863580D01*
X149475095Y-95863580D02*
X149427476Y-95911200D01*
X149427476Y-95911200D02*
X149332238Y-95958819D01*
X149332238Y-95958819D02*
X149046524Y-95958819D01*
X149046524Y-95958819D02*
X148951286Y-95911200D01*
X148951286Y-95911200D02*
X148903667Y-95863580D01*
X120245333Y-90624819D02*
X119912000Y-90148628D01*
X119673905Y-90624819D02*
X119673905Y-89624819D01*
X119673905Y-89624819D02*
X120054857Y-89624819D01*
X120054857Y-89624819D02*
X120150095Y-89672438D01*
X120150095Y-89672438D02*
X120197714Y-89720057D01*
X120197714Y-89720057D02*
X120245333Y-89815295D01*
X120245333Y-89815295D02*
X120245333Y-89958152D01*
X120245333Y-89958152D02*
X120197714Y-90053390D01*
X120197714Y-90053390D02*
X120150095Y-90101009D01*
X120150095Y-90101009D02*
X120054857Y-90148628D01*
X120054857Y-90148628D02*
X119673905Y-90148628D01*
X121150095Y-89624819D02*
X120673905Y-89624819D01*
X120673905Y-89624819D02*
X120626286Y-90101009D01*
X120626286Y-90101009D02*
X120673905Y-90053390D01*
X120673905Y-90053390D02*
X120769143Y-90005771D01*
X120769143Y-90005771D02*
X121007238Y-90005771D01*
X121007238Y-90005771D02*
X121102476Y-90053390D01*
X121102476Y-90053390D02*
X121150095Y-90101009D01*
X121150095Y-90101009D02*
X121197714Y-90196247D01*
X121197714Y-90196247D02*
X121197714Y-90434342D01*
X121197714Y-90434342D02*
X121150095Y-90529580D01*
X121150095Y-90529580D02*
X121102476Y-90577200D01*
X121102476Y-90577200D02*
X121007238Y-90624819D01*
X121007238Y-90624819D02*
X120769143Y-90624819D01*
X120769143Y-90624819D02*
X120673905Y-90577200D01*
X120673905Y-90577200D02*
X120626286Y-90529580D01*
X162718761Y-81576057D02*
X162623523Y-81528438D01*
X162623523Y-81528438D02*
X162528285Y-81433200D01*
X162528285Y-81433200D02*
X162385428Y-81290342D01*
X162385428Y-81290342D02*
X162290190Y-81242723D01*
X162290190Y-81242723D02*
X162194952Y-81242723D01*
X162242571Y-81480819D02*
X162147333Y-81433200D01*
X162147333Y-81433200D02*
X162052095Y-81337961D01*
X162052095Y-81337961D02*
X162004476Y-81147485D01*
X162004476Y-81147485D02*
X162004476Y-80814152D01*
X162004476Y-80814152D02*
X162052095Y-80623676D01*
X162052095Y-80623676D02*
X162147333Y-80528438D01*
X162147333Y-80528438D02*
X162242571Y-80480819D01*
X162242571Y-80480819D02*
X162433047Y-80480819D01*
X162433047Y-80480819D02*
X162528285Y-80528438D01*
X162528285Y-80528438D02*
X162623523Y-80623676D01*
X162623523Y-80623676D02*
X162671142Y-80814152D01*
X162671142Y-80814152D02*
X162671142Y-81147485D01*
X162671142Y-81147485D02*
X162623523Y-81337961D01*
X162623523Y-81337961D02*
X162528285Y-81433200D01*
X162528285Y-81433200D02*
X162433047Y-81480819D01*
X162433047Y-81480819D02*
X162242571Y-81480819D01*
X163623523Y-81480819D02*
X163052095Y-81480819D01*
X163337809Y-81480819D02*
X163337809Y-80480819D01*
X163337809Y-80480819D02*
X163242571Y-80623676D01*
X163242571Y-80623676D02*
X163147333Y-80718914D01*
X163147333Y-80718914D02*
X163052095Y-80766533D01*
X131035666Y-94958819D02*
X131035666Y-95673104D01*
X131035666Y-95673104D02*
X130988047Y-95815961D01*
X130988047Y-95815961D02*
X130892809Y-95911200D01*
X130892809Y-95911200D02*
X130749952Y-95958819D01*
X130749952Y-95958819D02*
X130654714Y-95958819D01*
X132035666Y-95958819D02*
X131464238Y-95958819D01*
X131749952Y-95958819D02*
X131749952Y-94958819D01*
X131749952Y-94958819D02*
X131654714Y-95101676D01*
X131654714Y-95101676D02*
X131559476Y-95196914D01*
X131559476Y-95196914D02*
X131464238Y-95244533D01*
X120245333Y-75385819D02*
X119912000Y-74909628D01*
X119673905Y-75385819D02*
X119673905Y-74385819D01*
X119673905Y-74385819D02*
X120054857Y-74385819D01*
X120054857Y-74385819D02*
X120150095Y-74433438D01*
X120150095Y-74433438D02*
X120197714Y-74481057D01*
X120197714Y-74481057D02*
X120245333Y-74576295D01*
X120245333Y-74576295D02*
X120245333Y-74719152D01*
X120245333Y-74719152D02*
X120197714Y-74814390D01*
X120197714Y-74814390D02*
X120150095Y-74862009D01*
X120150095Y-74862009D02*
X120054857Y-74909628D01*
X120054857Y-74909628D02*
X119673905Y-74909628D01*
X121102476Y-74719152D02*
X121102476Y-75385819D01*
X120864381Y-74338200D02*
X120626286Y-75052485D01*
X120626286Y-75052485D02*
X121245333Y-75052485D01*
X120245333Y-79195819D02*
X119912000Y-78719628D01*
X119673905Y-79195819D02*
X119673905Y-78195819D01*
X119673905Y-78195819D02*
X120054857Y-78195819D01*
X120054857Y-78195819D02*
X120150095Y-78243438D01*
X120150095Y-78243438D02*
X120197714Y-78291057D01*
X120197714Y-78291057D02*
X120245333Y-78386295D01*
X120245333Y-78386295D02*
X120245333Y-78529152D01*
X120245333Y-78529152D02*
X120197714Y-78624390D01*
X120197714Y-78624390D02*
X120150095Y-78672009D01*
X120150095Y-78672009D02*
X120054857Y-78719628D01*
X120054857Y-78719628D02*
X119673905Y-78719628D01*
X120626286Y-78291057D02*
X120673905Y-78243438D01*
X120673905Y-78243438D02*
X120769143Y-78195819D01*
X120769143Y-78195819D02*
X121007238Y-78195819D01*
X121007238Y-78195819D02*
X121102476Y-78243438D01*
X121102476Y-78243438D02*
X121150095Y-78291057D01*
X121150095Y-78291057D02*
X121197714Y-78386295D01*
X121197714Y-78386295D02*
X121197714Y-78481533D01*
X121197714Y-78481533D02*
X121150095Y-78624390D01*
X121150095Y-78624390D02*
X120578667Y-79195819D01*
X120578667Y-79195819D02*
X121197714Y-79195819D01*
X147407333Y-112649080D02*
X147359714Y-112696700D01*
X147359714Y-112696700D02*
X147216857Y-112744319D01*
X147216857Y-112744319D02*
X147121619Y-112744319D01*
X147121619Y-112744319D02*
X146978762Y-112696700D01*
X146978762Y-112696700D02*
X146883524Y-112601461D01*
X146883524Y-112601461D02*
X146835905Y-112506223D01*
X146835905Y-112506223D02*
X146788286Y-112315747D01*
X146788286Y-112315747D02*
X146788286Y-112172890D01*
X146788286Y-112172890D02*
X146835905Y-111982414D01*
X146835905Y-111982414D02*
X146883524Y-111887176D01*
X146883524Y-111887176D02*
X146978762Y-111791938D01*
X146978762Y-111791938D02*
X147121619Y-111744319D01*
X147121619Y-111744319D02*
X147216857Y-111744319D01*
X147216857Y-111744319D02*
X147359714Y-111791938D01*
X147359714Y-111791938D02*
X147407333Y-111839557D01*
X147788286Y-111839557D02*
X147835905Y-111791938D01*
X147835905Y-111791938D02*
X147931143Y-111744319D01*
X147931143Y-111744319D02*
X148169238Y-111744319D01*
X148169238Y-111744319D02*
X148264476Y-111791938D01*
X148264476Y-111791938D02*
X148312095Y-111839557D01*
X148312095Y-111839557D02*
X148359714Y-111934795D01*
X148359714Y-111934795D02*
X148359714Y-112030033D01*
X148359714Y-112030033D02*
X148312095Y-112172890D01*
X148312095Y-112172890D02*
X147740667Y-112744319D01*
X147740667Y-112744319D02*
X148359714Y-112744319D01*
X120245333Y-83005819D02*
X119912000Y-82529628D01*
X119673905Y-83005819D02*
X119673905Y-82005819D01*
X119673905Y-82005819D02*
X120054857Y-82005819D01*
X120054857Y-82005819D02*
X120150095Y-82053438D01*
X120150095Y-82053438D02*
X120197714Y-82101057D01*
X120197714Y-82101057D02*
X120245333Y-82196295D01*
X120245333Y-82196295D02*
X120245333Y-82339152D01*
X120245333Y-82339152D02*
X120197714Y-82434390D01*
X120197714Y-82434390D02*
X120150095Y-82482009D01*
X120150095Y-82482009D02*
X120054857Y-82529628D01*
X120054857Y-82529628D02*
X119673905Y-82529628D01*
X121197714Y-83005819D02*
X120626286Y-83005819D01*
X120912000Y-83005819D02*
X120912000Y-82005819D01*
X120912000Y-82005819D02*
X120816762Y-82148676D01*
X120816762Y-82148676D02*
X120721524Y-82243914D01*
X120721524Y-82243914D02*
X120626286Y-82291533D01*
X130984666Y-111214819D02*
X130984666Y-111929104D01*
X130984666Y-111929104D02*
X130937047Y-112071961D01*
X130937047Y-112071961D02*
X130841809Y-112167200D01*
X130841809Y-112167200D02*
X130698952Y-112214819D01*
X130698952Y-112214819D02*
X130603714Y-112214819D01*
X131365619Y-111214819D02*
X131984666Y-111214819D01*
X131984666Y-111214819D02*
X131651333Y-111595771D01*
X131651333Y-111595771D02*
X131794190Y-111595771D01*
X131794190Y-111595771D02*
X131889428Y-111643390D01*
X131889428Y-111643390D02*
X131937047Y-111691009D01*
X131937047Y-111691009D02*
X131984666Y-111786247D01*
X131984666Y-111786247D02*
X131984666Y-112024342D01*
X131984666Y-112024342D02*
X131937047Y-112119580D01*
X131937047Y-112119580D02*
X131889428Y-112167200D01*
X131889428Y-112167200D02*
X131794190Y-112214819D01*
X131794190Y-112214819D02*
X131508476Y-112214819D01*
X131508476Y-112214819D02*
X131413238Y-112167200D01*
X131413238Y-112167200D02*
X131365619Y-112119580D01*
D12*
%TO.C,U2*%
X163304700Y-120863700D02*
X163304700Y-113313700D01*
X163304700Y-120863700D02*
X151684700Y-120863700D01*
X163304700Y-113313700D02*
X151684700Y-113313700D01*
X152740300Y-121038900D02*
X151500300Y-121038900D01*
X151684700Y-120863700D02*
X151684700Y-113313700D01*
X151500300Y-119798900D02*
X151500300Y-121038900D01*
%TO.C,J2*%
X163128000Y-110550000D02*
X161798000Y-110550000D01*
X163128000Y-107950000D02*
X163128000Y-82490000D01*
X163128000Y-82490000D02*
X160468000Y-82490000D01*
X163128000Y-107950000D02*
X160468000Y-107950000D01*
X160468000Y-107950000D02*
X160468000Y-82490000D01*
X163128000Y-109220000D02*
X163128000Y-110550000D01*
%TO.C,D4*%
X135964000Y-119618000D02*
X135964000Y-117618000D01*
X135964000Y-119618000D02*
X131954000Y-119618000D01*
X135964000Y-117618000D02*
X131954000Y-117618000D01*
%TO.C,R3*%
X158268936Y-70480222D02*
X158723064Y-70480222D01*
X158268936Y-71950222D02*
X158723064Y-71950222D01*
%TO.C,Q3*%
X122152000Y-72192000D02*
X125312000Y-72192000D01*
X122152000Y-72192000D02*
X122152000Y-71262000D01*
X122152000Y-69032000D02*
X123612000Y-69032000D01*
X122152000Y-69032000D02*
X122152000Y-69962000D01*
%TO.C,D1*%
X154176000Y-101434000D02*
X154176000Y-99734000D01*
X154176000Y-101434000D02*
X150916000Y-101434000D01*
X154176000Y-99734000D02*
X150916000Y-99734000D01*
%TO.C,G\u002A\u002A\u002A*%
G36*
X140923105Y-95241784D02*
G01*
X141114752Y-95357842D01*
X141361777Y-95628989D01*
X141173863Y-95999228D01*
X141149219Y-96029236D01*
X140616299Y-96408991D01*
X140119422Y-96351319D01*
X139868315Y-96022559D01*
X139911142Y-95532670D01*
X140079455Y-95351165D01*
X140530245Y-95133553D01*
X140923105Y-95241784D01*
G37*
G36*
X139330063Y-92729927D02*
G01*
X139731610Y-93078942D01*
X139830669Y-93405645D01*
X140015558Y-93961397D01*
X140509759Y-94248788D01*
X140787593Y-94315878D01*
X141978355Y-94721368D01*
X142722871Y-95307042D01*
X143016189Y-95986075D01*
X142853357Y-96671639D01*
X142229425Y-97276908D01*
X141139441Y-97715057D01*
X140983478Y-97750914D01*
X140290613Y-97951328D01*
X140005054Y-98222538D01*
X139983695Y-98586370D01*
X139920030Y-99313154D01*
X139781238Y-99697376D01*
X139670992Y-100127035D01*
X140020554Y-100363213D01*
X140055404Y-100374544D01*
X140422721Y-100633329D01*
X140407011Y-100858783D01*
X140251239Y-101358188D01*
X140200428Y-101847664D01*
X140014808Y-102437308D01*
X139713510Y-102617340D01*
X139373624Y-102561017D01*
X139247782Y-102131097D01*
X139240638Y-101879218D01*
X139205101Y-101724298D01*
X139781064Y-101724298D01*
X139916170Y-101859405D01*
X140051276Y-101724298D01*
X139916170Y-101589192D01*
X139781064Y-101724298D01*
X139205101Y-101724298D01*
X139094087Y-101240336D01*
X138675225Y-101048930D01*
X138015241Y-101305317D01*
X137305606Y-101859405D01*
X136618213Y-102440425D01*
X136219604Y-102620565D01*
X136037255Y-102400833D01*
X135998085Y-101877614D01*
X135931012Y-101580711D01*
X136538510Y-101580711D01*
X136736578Y-101729386D01*
X136943830Y-101686908D01*
X137299366Y-101495115D01*
X137349149Y-101425176D01*
X137128498Y-101330717D01*
X136943830Y-101318979D01*
X136584171Y-101460390D01*
X136538510Y-101580711D01*
X135931012Y-101580711D01*
X135841984Y-101186620D01*
X135482622Y-100921583D01*
X134966844Y-100566191D01*
X134730234Y-100049823D01*
X135187447Y-100049823D01*
X135377797Y-100498394D01*
X135525213Y-100599597D01*
X136173951Y-100716751D01*
X137067718Y-100724355D01*
X137923870Y-100629579D01*
X138294893Y-100529331D01*
X138835319Y-100318092D01*
X138294893Y-100158395D01*
X137703376Y-100024364D01*
X136845778Y-99873672D01*
X136470957Y-99817519D01*
X135681317Y-99736771D01*
X135294675Y-99800835D01*
X135187671Y-100032039D01*
X135187447Y-100049823D01*
X134730234Y-100049823D01*
X134725569Y-100039643D01*
X134797198Y-99673318D01*
X135156807Y-99483334D01*
X135608713Y-99427490D01*
X136153261Y-99281886D01*
X136284069Y-98904095D01*
X136022371Y-98382644D01*
X135389400Y-97806060D01*
X135187447Y-97671107D01*
X134451234Y-97106689D01*
X134136649Y-96567501D01*
X134106596Y-96298889D01*
X134259451Y-95613100D01*
X134702875Y-95613100D01*
X134709541Y-96434255D01*
X135229340Y-97191228D01*
X135596111Y-97470931D01*
X136301816Y-98078429D01*
X136537822Y-98714311D01*
X136538510Y-98754442D01*
X136631318Y-99261066D01*
X136808723Y-99427490D01*
X136971112Y-99186248D01*
X136989941Y-99067206D01*
X137349149Y-99067206D01*
X137493752Y-99397118D01*
X137590452Y-99427490D01*
X137781950Y-99292383D01*
X138482677Y-99292383D01*
X138511885Y-99753859D01*
X138596474Y-99794489D01*
X138607242Y-99770398D01*
X138660696Y-99233976D01*
X138617255Y-98959760D01*
X138531242Y-98849567D01*
X138484459Y-99208471D01*
X138482677Y-99292383D01*
X137781950Y-99292383D01*
X137892211Y-99214591D01*
X137970009Y-99067206D01*
X137892500Y-98750579D01*
X137728706Y-98706922D01*
X137386834Y-98911153D01*
X137349149Y-99067206D01*
X136989941Y-99067206D01*
X137067472Y-98577046D01*
X137078936Y-98233632D01*
X137101633Y-97704193D01*
X137349149Y-97704193D01*
X137411607Y-97991703D01*
X137690550Y-97878136D01*
X137822021Y-97780654D01*
X138246711Y-97459518D01*
X138407482Y-97342249D01*
X138274779Y-97282562D01*
X137934610Y-97265788D01*
X137449646Y-97435539D01*
X137349149Y-97704193D01*
X137101633Y-97704193D01*
X137114786Y-97397383D01*
X137194927Y-96815433D01*
X138249858Y-96815433D01*
X138286950Y-96976074D01*
X138430000Y-96995575D01*
X138652416Y-96896708D01*
X138610142Y-96815433D01*
X138289462Y-96783094D01*
X138249858Y-96815433D01*
X137194927Y-96815433D01*
X137204502Y-96745904D01*
X137242952Y-96612356D01*
X137217866Y-96251087D01*
X136972739Y-96184937D01*
X136611568Y-95959469D01*
X136569849Y-95779617D01*
X136808723Y-95779617D01*
X136943830Y-95914724D01*
X137078936Y-95779617D01*
X136943830Y-95644511D01*
X136808723Y-95779617D01*
X136569849Y-95779617D01*
X136538510Y-95644511D01*
X136652681Y-95179144D01*
X136990929Y-95202593D01*
X137484255Y-95644511D01*
X137972913Y-96050671D01*
X138327266Y-96184937D01*
X138772401Y-96438096D01*
X139039744Y-97185241D01*
X139123018Y-98407871D01*
X139121532Y-98526116D01*
X139143285Y-99282506D01*
X139225379Y-99732826D01*
X139303950Y-99793680D01*
X139436053Y-99466319D01*
X139506995Y-98811984D01*
X139510851Y-98606052D01*
X139557375Y-97903176D01*
X139770101Y-97559088D01*
X140253936Y-97396085D01*
X141321376Y-97151950D01*
X141964724Y-96907956D01*
X142296250Y-96598095D01*
X142428222Y-96156358D01*
X142433366Y-96114694D01*
X142387054Y-95584397D01*
X142043197Y-95203150D01*
X141312303Y-94905425D01*
X140514959Y-94710013D01*
X139798829Y-94330862D01*
X139458288Y-93880673D01*
X139129210Y-93328445D01*
X138838592Y-93304769D01*
X138515394Y-93809888D01*
X138481042Y-93884010D01*
X138234711Y-94295789D01*
X137881295Y-94455071D01*
X137235004Y-94424907D01*
X136983800Y-94392134D01*
X136153218Y-94334600D01*
X135610340Y-94485707D01*
X135219748Y-94801572D01*
X134702875Y-95613100D01*
X134259451Y-95613100D01*
X134343568Y-95235704D01*
X134989985Y-94436249D01*
X135949099Y-93974976D01*
X137124161Y-93926333D01*
X137178824Y-93934757D01*
X137829058Y-94001685D01*
X138105880Y-93875061D01*
X138159787Y-93547074D01*
X138353401Y-92980138D01*
X138807077Y-92702374D01*
X139330063Y-92729927D01*
G37*
%TO.C,U1*%
D10*
X127642500Y-66040000D02*
X127007500Y-66675000D01*
X127007500Y-65405000D01*
X127642500Y-66040000D01*
G36*
X127642500Y-66040000D02*
G01*
X127007500Y-66675000D01*
X127007500Y-65405000D01*
X127642500Y-66040000D01*
G37*
D12*
X153907500Y-59830000D02*
G75*
G03*
X151777500Y-57700000I-2130000J0D01*
G01*
X130177500Y-57700000D02*
G75*
G03*
X128047500Y-59830000I2J-2130002D01*
G01*
X153907500Y-92160000D02*
X153907500Y-59830000D01*
X151787500Y-57700000D02*
X130177500Y-57700000D01*
X130587500Y-92160000D02*
X153907500Y-92160000D01*
X130587500Y-85260000D02*
X130587500Y-92160000D01*
X128047500Y-85260000D02*
X130587500Y-85260000D01*
X128047500Y-85260000D02*
X128047500Y-59830000D01*
%TO.C,C1*%
X150341000Y-117884752D02*
X150341000Y-117362248D01*
X148871000Y-117884752D02*
X148871000Y-117362248D01*
%TO.C,Q4*%
X122430000Y-88260000D02*
X125590000Y-88260000D01*
X122430000Y-88260000D02*
X122430000Y-87330000D01*
X122430000Y-85100000D02*
X123890000Y-85100000D01*
X122430000Y-85100000D02*
X122430000Y-86030000D01*
%TO.C,D2*%
X154176000Y-98894000D02*
X154176000Y-97194000D01*
X154176000Y-98894000D02*
X150916000Y-98894000D01*
X154176000Y-97194000D02*
X150916000Y-97194000D01*
%TO.C,Q2*%
X159769257Y-73002843D02*
X156609257Y-73002843D01*
X159769257Y-73002843D02*
X159769257Y-73932843D01*
X159769257Y-76162843D02*
X158309257Y-76162843D01*
X159769257Y-76162843D02*
X159769257Y-75232843D01*
%TO.C,D3*%
X154176000Y-96354000D02*
X154176000Y-94654000D01*
X154176000Y-96354000D02*
X150916000Y-96354000D01*
X154176000Y-94654000D02*
X150916000Y-94654000D01*
%TO.C,R5*%
X123941064Y-90905000D02*
X123486936Y-90905000D01*
X123941064Y-89435000D02*
X123486936Y-89435000D01*
%TO.C,Q1*%
X158249257Y-81339515D02*
X161409257Y-81339515D01*
X158249257Y-81339515D02*
X158249257Y-80409515D01*
X158249257Y-78179515D02*
X159709257Y-78179515D01*
X158249257Y-78179515D02*
X158249257Y-79109515D01*
%TO.C,J1*%
X120554000Y-94482000D02*
X119814000Y-94482000D01*
X119814000Y-94482000D02*
X119814000Y-94982000D01*
X129975000Y-94722000D02*
X120054000Y-94722000D01*
X129975000Y-94722000D02*
X129975000Y-109842000D01*
X127015000Y-94722000D02*
X127015000Y-109842000D01*
X122114000Y-94722000D02*
X122114000Y-109842000D01*
X120614000Y-94722000D02*
X120614000Y-109842000D01*
X120054000Y-94722000D02*
X120054000Y-109842000D01*
X123691000Y-101055000D02*
X123645000Y-101008000D01*
X123475000Y-101248000D02*
X123440000Y-101213000D01*
X125989000Y-103352000D02*
X125953000Y-103317000D01*
X125783000Y-103557000D02*
X125737000Y-103510000D01*
X123691000Y-106055000D02*
X123645000Y-106008000D01*
X123475000Y-106248000D02*
X123440000Y-106213000D01*
X125989000Y-108352000D02*
X125953000Y-108317000D01*
X125783000Y-108557000D02*
X125737000Y-108510000D01*
X129975000Y-109842000D02*
X120054000Y-109842000D01*
X125397999Y-95747001D02*
G75*
G03*
X124030958Y-95746574I-684000J-1534992D01*
G01*
X126248999Y-97965999D02*
G75*
G03*
X126249426Y-96598958I-1534992J684000D01*
G01*
X123179001Y-96598000D02*
G75*
G03*
X123033748Y-97310805I1535000J-683999D01*
G01*
X123034001Y-97282000D02*
G75*
G03*
X123179245Y-97965318I1679999J0D01*
G01*
X124030000Y-98817000D02*
G75*
G03*
X125397042Y-98817426I684000J1535000D01*
G01*
X126394000Y-102282000D02*
G75*
G03*
X126394000Y-102282000I-1680000J0D01*
G01*
X126394000Y-107282000D02*
G75*
G03*
X126394000Y-107282000I-1680000J0D01*
G01*
%TO.C,R4*%
X123687064Y-75666000D02*
X123232936Y-75666000D01*
X123687064Y-74196000D02*
X123232936Y-74196000D01*
%TO.C,R2*%
X123687064Y-79476000D02*
X123232936Y-79476000D01*
X123687064Y-78006000D02*
X123232936Y-78006000D01*
%TO.C,C2*%
X148871000Y-113044248D02*
X148871000Y-113566752D01*
X150341000Y-113044248D02*
X150341000Y-113566752D01*
%TO.C,R1*%
X123232936Y-81816000D02*
X123687064Y-81816000D01*
X123232936Y-83286000D02*
X123687064Y-83286000D01*
%TO.C,J3*%
X120554000Y-110738000D02*
X119814000Y-110738000D01*
X119814000Y-110738000D02*
X119814000Y-111238000D01*
X129975000Y-110978000D02*
X120054000Y-110978000D01*
X129975000Y-110978000D02*
X129975000Y-121098000D01*
X127015000Y-110978000D02*
X127015000Y-121098000D01*
X122114000Y-110978000D02*
X122114000Y-121098000D01*
X120614000Y-110978000D02*
X120614000Y-121098000D01*
X120054000Y-110978000D02*
X120054000Y-121098000D01*
X123691000Y-117311000D02*
X123645000Y-117264000D01*
X123475000Y-117504000D02*
X123440000Y-117469000D01*
X125989000Y-119608000D02*
X125953000Y-119573000D01*
X125783000Y-119813000D02*
X125737000Y-119766000D01*
X129975000Y-121098000D02*
X120054000Y-121098000D01*
X125397999Y-112003001D02*
G75*
G03*
X124030958Y-112002574I-684000J-1534992D01*
G01*
X126248999Y-114221999D02*
G75*
G03*
X126249426Y-112854958I-1534992J684000D01*
G01*
X123179001Y-112854000D02*
G75*
G03*
X123033748Y-113566805I1535000J-683999D01*
G01*
X123034001Y-113538000D02*
G75*
G03*
X123179245Y-114221318I1679999J0D01*
G01*
X124030000Y-115073000D02*
G75*
G03*
X125397042Y-115073426I684000J1535000D01*
G01*
X126394000Y-118538000D02*
G75*
G03*
X126394000Y-118538000I-1680000J0D01*
G01*
%TD*%
M02*
