%TF.GenerationSoftware,KiCad,Pcbnew,7.0.8*%
%TF.CreationDate,2023-11-02T17:35:01-07:00*%
%TF.ProjectId,RatGDO-OpenSource-D1Mini-ESP8266,52617447-444f-42d4-9f70-656e536f7572,rev?*%
%TF.SameCoordinates,Original*%
%TF.FileFunction,Legend,Bot*%
%TF.FilePolarity,Positive*%
%FSLAX46Y46*%
G04 Gerber Fmt 4.6, Leading zero omitted, Abs format (unit mm)*
G04 Created by KiCad (PCBNEW 7.0.8) date 2023-11-02 17:35:01*
%MOMM*%
%LPD*%
G01*
G04 APERTURE LIST*
%ADD10C,0.150000*%
G04 APERTURE END LIST*
D10*
X143125819Y-104755792D02*
X142649628Y-105089125D01*
X143125819Y-105327220D02*
X142125819Y-105327220D01*
X142125819Y-105327220D02*
X142125819Y-104946268D01*
X142125819Y-104946268D02*
X142173438Y-104851030D01*
X142173438Y-104851030D02*
X142221057Y-104803411D01*
X142221057Y-104803411D02*
X142316295Y-104755792D01*
X142316295Y-104755792D02*
X142459152Y-104755792D01*
X142459152Y-104755792D02*
X142554390Y-104803411D01*
X142554390Y-104803411D02*
X142602009Y-104851030D01*
X142602009Y-104851030D02*
X142649628Y-104946268D01*
X142649628Y-104946268D02*
X142649628Y-105327220D01*
X142602009Y-104327220D02*
X142602009Y-103993887D01*
X143125819Y-103851030D02*
X143125819Y-104327220D01*
X143125819Y-104327220D02*
X142125819Y-104327220D01*
X142125819Y-104327220D02*
X142125819Y-103851030D01*
X143125819Y-103422458D02*
X142125819Y-103422458D01*
X142125819Y-103422458D02*
X142125819Y-103184363D01*
X142125819Y-103184363D02*
X142173438Y-103041506D01*
X142173438Y-103041506D02*
X142268676Y-102946268D01*
X142268676Y-102946268D02*
X142363914Y-102898649D01*
X142363914Y-102898649D02*
X142554390Y-102851030D01*
X142554390Y-102851030D02*
X142697247Y-102851030D01*
X142697247Y-102851030D02*
X142887723Y-102898649D01*
X142887723Y-102898649D02*
X142982961Y-102946268D01*
X142982961Y-102946268D02*
X143078200Y-103041506D01*
X143078200Y-103041506D02*
X143125819Y-103184363D01*
X143125819Y-103184363D02*
X143125819Y-103422458D01*
X142078200Y-101708173D02*
X143363914Y-102565315D01*
X143030580Y-100803411D02*
X143078200Y-100851030D01*
X143078200Y-100851030D02*
X143125819Y-100993887D01*
X143125819Y-100993887D02*
X143125819Y-101089125D01*
X143125819Y-101089125D02*
X143078200Y-101231982D01*
X143078200Y-101231982D02*
X142982961Y-101327220D01*
X142982961Y-101327220D02*
X142887723Y-101374839D01*
X142887723Y-101374839D02*
X142697247Y-101422458D01*
X142697247Y-101422458D02*
X142554390Y-101422458D01*
X142554390Y-101422458D02*
X142363914Y-101374839D01*
X142363914Y-101374839D02*
X142268676Y-101327220D01*
X142268676Y-101327220D02*
X142173438Y-101231982D01*
X142173438Y-101231982D02*
X142125819Y-101089125D01*
X142125819Y-101089125D02*
X142125819Y-100993887D01*
X142125819Y-100993887D02*
X142173438Y-100851030D01*
X142173438Y-100851030D02*
X142221057Y-100803411D01*
X142125819Y-100517696D02*
X142125819Y-99946268D01*
X143125819Y-100231982D02*
X142125819Y-100231982D01*
X143125819Y-99041506D02*
X142649628Y-99374839D01*
X143125819Y-99612934D02*
X142125819Y-99612934D01*
X142125819Y-99612934D02*
X142125819Y-99231982D01*
X142125819Y-99231982D02*
X142173438Y-99136744D01*
X142173438Y-99136744D02*
X142221057Y-99089125D01*
X142221057Y-99089125D02*
X142316295Y-99041506D01*
X142316295Y-99041506D02*
X142459152Y-99041506D01*
X142459152Y-99041506D02*
X142554390Y-99089125D01*
X142554390Y-99089125D02*
X142602009Y-99136744D01*
X142602009Y-99136744D02*
X142649628Y-99231982D01*
X142649628Y-99231982D02*
X142649628Y-99612934D01*
X143125819Y-98136744D02*
X143125819Y-98612934D01*
X143125819Y-98612934D02*
X142125819Y-98612934D01*
X158365819Y-104851030D02*
X158365819Y-105327220D01*
X158365819Y-105327220D02*
X157365819Y-105327220D01*
X158365819Y-104517696D02*
X157365819Y-104517696D01*
X157842009Y-104517696D02*
X157842009Y-103946268D01*
X158365819Y-103946268D02*
X157365819Y-103946268D01*
X157365819Y-103612934D02*
X157365819Y-103041506D01*
X158365819Y-103327220D02*
X157365819Y-103327220D01*
X162445819Y-104851030D02*
X162445819Y-105327220D01*
X162445819Y-105327220D02*
X162922009Y-105374839D01*
X162922009Y-105374839D02*
X162874390Y-105327220D01*
X162874390Y-105327220D02*
X162826771Y-105231982D01*
X162826771Y-105231982D02*
X162826771Y-104993887D01*
X162826771Y-104993887D02*
X162874390Y-104898649D01*
X162874390Y-104898649D02*
X162922009Y-104851030D01*
X162922009Y-104851030D02*
X163017247Y-104803411D01*
X163017247Y-104803411D02*
X163255342Y-104803411D01*
X163255342Y-104803411D02*
X163350580Y-104851030D01*
X163350580Y-104851030D02*
X163398200Y-104898649D01*
X163398200Y-104898649D02*
X163445819Y-104993887D01*
X163445819Y-104993887D02*
X163445819Y-105231982D01*
X163445819Y-105231982D02*
X163398200Y-105327220D01*
X163398200Y-105327220D02*
X163350580Y-105374839D01*
X162445819Y-104517696D02*
X163445819Y-104184363D01*
X163445819Y-104184363D02*
X162445819Y-103851030D01*
X148459819Y-105327220D02*
X147459819Y-105327220D01*
X147459819Y-105327220D02*
X147459819Y-105089125D01*
X147459819Y-105089125D02*
X147507438Y-104946268D01*
X147507438Y-104946268D02*
X147602676Y-104851030D01*
X147602676Y-104851030D02*
X147697914Y-104803411D01*
X147697914Y-104803411D02*
X147888390Y-104755792D01*
X147888390Y-104755792D02*
X148031247Y-104755792D01*
X148031247Y-104755792D02*
X148221723Y-104803411D01*
X148221723Y-104803411D02*
X148316961Y-104851030D01*
X148316961Y-104851030D02*
X148412200Y-104946268D01*
X148412200Y-104946268D02*
X148459819Y-105089125D01*
X148459819Y-105089125D02*
X148459819Y-105327220D01*
X147459819Y-104136744D02*
X147459819Y-103946268D01*
X147459819Y-103946268D02*
X147507438Y-103851030D01*
X147507438Y-103851030D02*
X147602676Y-103755792D01*
X147602676Y-103755792D02*
X147793152Y-103708173D01*
X147793152Y-103708173D02*
X148126485Y-103708173D01*
X148126485Y-103708173D02*
X148316961Y-103755792D01*
X148316961Y-103755792D02*
X148412200Y-103851030D01*
X148412200Y-103851030D02*
X148459819Y-103946268D01*
X148459819Y-103946268D02*
X148459819Y-104136744D01*
X148459819Y-104136744D02*
X148412200Y-104231982D01*
X148412200Y-104231982D02*
X148316961Y-104327220D01*
X148316961Y-104327220D02*
X148126485Y-104374839D01*
X148126485Y-104374839D02*
X147793152Y-104374839D01*
X147793152Y-104374839D02*
X147602676Y-104327220D01*
X147602676Y-104327220D02*
X147507438Y-104231982D01*
X147507438Y-104231982D02*
X147459819Y-104136744D01*
X147459819Y-103089125D02*
X147459819Y-102898649D01*
X147459819Y-102898649D02*
X147507438Y-102803411D01*
X147507438Y-102803411D02*
X147602676Y-102708173D01*
X147602676Y-102708173D02*
X147793152Y-102660554D01*
X147793152Y-102660554D02*
X148126485Y-102660554D01*
X148126485Y-102660554D02*
X148316961Y-102708173D01*
X148316961Y-102708173D02*
X148412200Y-102803411D01*
X148412200Y-102803411D02*
X148459819Y-102898649D01*
X148459819Y-102898649D02*
X148459819Y-103089125D01*
X148459819Y-103089125D02*
X148412200Y-103184363D01*
X148412200Y-103184363D02*
X148316961Y-103279601D01*
X148316961Y-103279601D02*
X148126485Y-103327220D01*
X148126485Y-103327220D02*
X147793152Y-103327220D01*
X147793152Y-103327220D02*
X147602676Y-103279601D01*
X147602676Y-103279601D02*
X147507438Y-103184363D01*
X147507438Y-103184363D02*
X147459819Y-103089125D01*
X148459819Y-101660554D02*
X147983628Y-101993887D01*
X148459819Y-102231982D02*
X147459819Y-102231982D01*
X147459819Y-102231982D02*
X147459819Y-101851030D01*
X147459819Y-101851030D02*
X147507438Y-101755792D01*
X147507438Y-101755792D02*
X147555057Y-101708173D01*
X147555057Y-101708173D02*
X147650295Y-101660554D01*
X147650295Y-101660554D02*
X147793152Y-101660554D01*
X147793152Y-101660554D02*
X147888390Y-101708173D01*
X147888390Y-101708173D02*
X147936009Y-101755792D01*
X147936009Y-101755792D02*
X147983628Y-101851030D01*
X147983628Y-101851030D02*
X147983628Y-102231982D01*
X152285819Y-105136744D02*
X152285819Y-104946268D01*
X152285819Y-104946268D02*
X152333438Y-104851030D01*
X152333438Y-104851030D02*
X152428676Y-104755792D01*
X152428676Y-104755792D02*
X152619152Y-104708173D01*
X152619152Y-104708173D02*
X152952485Y-104708173D01*
X152952485Y-104708173D02*
X153142961Y-104755792D01*
X153142961Y-104755792D02*
X153238200Y-104851030D01*
X153238200Y-104851030D02*
X153285819Y-104946268D01*
X153285819Y-104946268D02*
X153285819Y-105136744D01*
X153285819Y-105136744D02*
X153238200Y-105231982D01*
X153238200Y-105231982D02*
X153142961Y-105327220D01*
X153142961Y-105327220D02*
X152952485Y-105374839D01*
X152952485Y-105374839D02*
X152619152Y-105374839D01*
X152619152Y-105374839D02*
X152428676Y-105327220D01*
X152428676Y-105327220D02*
X152333438Y-105231982D01*
X152333438Y-105231982D02*
X152285819Y-105136744D01*
X153285819Y-104279601D02*
X152285819Y-104279601D01*
X152285819Y-104279601D02*
X152285819Y-103898649D01*
X152285819Y-103898649D02*
X152333438Y-103803411D01*
X152333438Y-103803411D02*
X152381057Y-103755792D01*
X152381057Y-103755792D02*
X152476295Y-103708173D01*
X152476295Y-103708173D02*
X152619152Y-103708173D01*
X152619152Y-103708173D02*
X152714390Y-103755792D01*
X152714390Y-103755792D02*
X152762009Y-103803411D01*
X152762009Y-103803411D02*
X152809628Y-103898649D01*
X152809628Y-103898649D02*
X152809628Y-104279601D01*
X153285819Y-103279601D02*
X152285819Y-103279601D01*
X152285819Y-103279601D02*
X153285819Y-102708173D01*
X153285819Y-102708173D02*
X152285819Y-102708173D01*
X145396009Y-104993887D02*
X145443628Y-104851030D01*
X145443628Y-104851030D02*
X145491247Y-104803411D01*
X145491247Y-104803411D02*
X145586485Y-104755792D01*
X145586485Y-104755792D02*
X145729342Y-104755792D01*
X145729342Y-104755792D02*
X145824580Y-104803411D01*
X145824580Y-104803411D02*
X145872200Y-104851030D01*
X145872200Y-104851030D02*
X145919819Y-104946268D01*
X145919819Y-104946268D02*
X145919819Y-105327220D01*
X145919819Y-105327220D02*
X144919819Y-105327220D01*
X144919819Y-105327220D02*
X144919819Y-104993887D01*
X144919819Y-104993887D02*
X144967438Y-104898649D01*
X144967438Y-104898649D02*
X145015057Y-104851030D01*
X145015057Y-104851030D02*
X145110295Y-104803411D01*
X145110295Y-104803411D02*
X145205533Y-104803411D01*
X145205533Y-104803411D02*
X145300771Y-104851030D01*
X145300771Y-104851030D02*
X145348390Y-104898649D01*
X145348390Y-104898649D02*
X145396009Y-104993887D01*
X145396009Y-104993887D02*
X145396009Y-105327220D01*
X145919819Y-103851030D02*
X145919819Y-104327220D01*
X145919819Y-104327220D02*
X144919819Y-104327220D01*
X145919819Y-103517696D02*
X144919819Y-103517696D01*
X145919819Y-102946268D02*
X145348390Y-103374839D01*
X144919819Y-102946268D02*
X145491247Y-103517696D01*
X144872200Y-101803411D02*
X146157914Y-102660553D01*
X144919819Y-101279601D02*
X144919819Y-101089125D01*
X144919819Y-101089125D02*
X144967438Y-100993887D01*
X144967438Y-100993887D02*
X145062676Y-100898649D01*
X145062676Y-100898649D02*
X145253152Y-100851030D01*
X145253152Y-100851030D02*
X145586485Y-100851030D01*
X145586485Y-100851030D02*
X145776961Y-100898649D01*
X145776961Y-100898649D02*
X145872200Y-100993887D01*
X145872200Y-100993887D02*
X145919819Y-101089125D01*
X145919819Y-101089125D02*
X145919819Y-101279601D01*
X145919819Y-101279601D02*
X145872200Y-101374839D01*
X145872200Y-101374839D02*
X145776961Y-101470077D01*
X145776961Y-101470077D02*
X145586485Y-101517696D01*
X145586485Y-101517696D02*
X145253152Y-101517696D01*
X145253152Y-101517696D02*
X145062676Y-101470077D01*
X145062676Y-101470077D02*
X144967438Y-101374839D01*
X144967438Y-101374839D02*
X144919819Y-101279601D01*
X145396009Y-100089125D02*
X145443628Y-99946268D01*
X145443628Y-99946268D02*
X145491247Y-99898649D01*
X145491247Y-99898649D02*
X145586485Y-99851030D01*
X145586485Y-99851030D02*
X145729342Y-99851030D01*
X145729342Y-99851030D02*
X145824580Y-99898649D01*
X145824580Y-99898649D02*
X145872200Y-99946268D01*
X145872200Y-99946268D02*
X145919819Y-100041506D01*
X145919819Y-100041506D02*
X145919819Y-100422458D01*
X145919819Y-100422458D02*
X144919819Y-100422458D01*
X144919819Y-100422458D02*
X144919819Y-100089125D01*
X144919819Y-100089125D02*
X144967438Y-99993887D01*
X144967438Y-99993887D02*
X145015057Y-99946268D01*
X145015057Y-99946268D02*
X145110295Y-99898649D01*
X145110295Y-99898649D02*
X145205533Y-99898649D01*
X145205533Y-99898649D02*
X145300771Y-99946268D01*
X145300771Y-99946268D02*
X145348390Y-99993887D01*
X145348390Y-99993887D02*
X145396009Y-100089125D01*
X145396009Y-100089125D02*
X145396009Y-100422458D01*
X145872200Y-99470077D02*
X145919819Y-99327220D01*
X145919819Y-99327220D02*
X145919819Y-99089125D01*
X145919819Y-99089125D02*
X145872200Y-98993887D01*
X145872200Y-98993887D02*
X145824580Y-98946268D01*
X145824580Y-98946268D02*
X145729342Y-98898649D01*
X145729342Y-98898649D02*
X145634104Y-98898649D01*
X145634104Y-98898649D02*
X145538866Y-98946268D01*
X145538866Y-98946268D02*
X145491247Y-98993887D01*
X145491247Y-98993887D02*
X145443628Y-99089125D01*
X145443628Y-99089125D02*
X145396009Y-99279601D01*
X145396009Y-99279601D02*
X145348390Y-99374839D01*
X145348390Y-99374839D02*
X145300771Y-99422458D01*
X145300771Y-99422458D02*
X145205533Y-99470077D01*
X145205533Y-99470077D02*
X145110295Y-99470077D01*
X145110295Y-99470077D02*
X145015057Y-99422458D01*
X145015057Y-99422458D02*
X144967438Y-99374839D01*
X144967438Y-99374839D02*
X144919819Y-99279601D01*
X144919819Y-99279601D02*
X144919819Y-99041506D01*
X144919819Y-99041506D02*
X144967438Y-98898649D01*
X144919819Y-98612934D02*
X144919819Y-98041506D01*
X145919819Y-98327220D02*
X144919819Y-98327220D01*
X149999819Y-105136744D02*
X149999819Y-104946268D01*
X149999819Y-104946268D02*
X150047438Y-104851030D01*
X150047438Y-104851030D02*
X150142676Y-104755792D01*
X150142676Y-104755792D02*
X150333152Y-104708173D01*
X150333152Y-104708173D02*
X150666485Y-104708173D01*
X150666485Y-104708173D02*
X150856961Y-104755792D01*
X150856961Y-104755792D02*
X150952200Y-104851030D01*
X150952200Y-104851030D02*
X150999819Y-104946268D01*
X150999819Y-104946268D02*
X150999819Y-105136744D01*
X150999819Y-105136744D02*
X150952200Y-105231982D01*
X150952200Y-105231982D02*
X150856961Y-105327220D01*
X150856961Y-105327220D02*
X150666485Y-105374839D01*
X150666485Y-105374839D02*
X150333152Y-105374839D01*
X150333152Y-105374839D02*
X150142676Y-105327220D01*
X150142676Y-105327220D02*
X150047438Y-105231982D01*
X150047438Y-105231982D02*
X149999819Y-105136744D01*
X150476009Y-103946268D02*
X150523628Y-103803411D01*
X150523628Y-103803411D02*
X150571247Y-103755792D01*
X150571247Y-103755792D02*
X150666485Y-103708173D01*
X150666485Y-103708173D02*
X150809342Y-103708173D01*
X150809342Y-103708173D02*
X150904580Y-103755792D01*
X150904580Y-103755792D02*
X150952200Y-103803411D01*
X150952200Y-103803411D02*
X150999819Y-103898649D01*
X150999819Y-103898649D02*
X150999819Y-104279601D01*
X150999819Y-104279601D02*
X149999819Y-104279601D01*
X149999819Y-104279601D02*
X149999819Y-103946268D01*
X149999819Y-103946268D02*
X150047438Y-103851030D01*
X150047438Y-103851030D02*
X150095057Y-103803411D01*
X150095057Y-103803411D02*
X150190295Y-103755792D01*
X150190295Y-103755792D02*
X150285533Y-103755792D01*
X150285533Y-103755792D02*
X150380771Y-103803411D01*
X150380771Y-103803411D02*
X150428390Y-103851030D01*
X150428390Y-103851030D02*
X150476009Y-103946268D01*
X150476009Y-103946268D02*
X150476009Y-104279601D01*
X150952200Y-103327220D02*
X150999819Y-103184363D01*
X150999819Y-103184363D02*
X150999819Y-102946268D01*
X150999819Y-102946268D02*
X150952200Y-102851030D01*
X150952200Y-102851030D02*
X150904580Y-102803411D01*
X150904580Y-102803411D02*
X150809342Y-102755792D01*
X150809342Y-102755792D02*
X150714104Y-102755792D01*
X150714104Y-102755792D02*
X150618866Y-102803411D01*
X150618866Y-102803411D02*
X150571247Y-102851030D01*
X150571247Y-102851030D02*
X150523628Y-102946268D01*
X150523628Y-102946268D02*
X150476009Y-103136744D01*
X150476009Y-103136744D02*
X150428390Y-103231982D01*
X150428390Y-103231982D02*
X150380771Y-103279601D01*
X150380771Y-103279601D02*
X150285533Y-103327220D01*
X150285533Y-103327220D02*
X150190295Y-103327220D01*
X150190295Y-103327220D02*
X150095057Y-103279601D01*
X150095057Y-103279601D02*
X150047438Y-103231982D01*
X150047438Y-103231982D02*
X149999819Y-103136744D01*
X149999819Y-103136744D02*
X149999819Y-102898649D01*
X149999819Y-102898649D02*
X150047438Y-102755792D01*
X155984580Y-104755792D02*
X156032200Y-104803411D01*
X156032200Y-104803411D02*
X156079819Y-104946268D01*
X156079819Y-104946268D02*
X156079819Y-105041506D01*
X156079819Y-105041506D02*
X156032200Y-105184363D01*
X156032200Y-105184363D02*
X155936961Y-105279601D01*
X155936961Y-105279601D02*
X155841723Y-105327220D01*
X155841723Y-105327220D02*
X155651247Y-105374839D01*
X155651247Y-105374839D02*
X155508390Y-105374839D01*
X155508390Y-105374839D02*
X155317914Y-105327220D01*
X155317914Y-105327220D02*
X155222676Y-105279601D01*
X155222676Y-105279601D02*
X155127438Y-105184363D01*
X155127438Y-105184363D02*
X155079819Y-105041506D01*
X155079819Y-105041506D02*
X155079819Y-104946268D01*
X155079819Y-104946268D02*
X155127438Y-104803411D01*
X155127438Y-104803411D02*
X155175057Y-104755792D01*
X156079819Y-103851030D02*
X156079819Y-104327220D01*
X156079819Y-104327220D02*
X155079819Y-104327220D01*
X156032200Y-103565315D02*
X156079819Y-103422458D01*
X156079819Y-103422458D02*
X156079819Y-103184363D01*
X156079819Y-103184363D02*
X156032200Y-103089125D01*
X156032200Y-103089125D02*
X155984580Y-103041506D01*
X155984580Y-103041506D02*
X155889342Y-102993887D01*
X155889342Y-102993887D02*
X155794104Y-102993887D01*
X155794104Y-102993887D02*
X155698866Y-103041506D01*
X155698866Y-103041506D02*
X155651247Y-103089125D01*
X155651247Y-103089125D02*
X155603628Y-103184363D01*
X155603628Y-103184363D02*
X155556009Y-103374839D01*
X155556009Y-103374839D02*
X155508390Y-103470077D01*
X155508390Y-103470077D02*
X155460771Y-103517696D01*
X155460771Y-103517696D02*
X155365533Y-103565315D01*
X155365533Y-103565315D02*
X155270295Y-103565315D01*
X155270295Y-103565315D02*
X155175057Y-103517696D01*
X155175057Y-103517696D02*
X155127438Y-103470077D01*
X155127438Y-103470077D02*
X155079819Y-103374839D01*
X155079819Y-103374839D02*
X155079819Y-103136744D01*
X155079819Y-103136744D02*
X155127438Y-102993887D01*
X159905819Y-105422458D02*
X159905819Y-104803411D01*
X159905819Y-104803411D02*
X160286771Y-105136744D01*
X160286771Y-105136744D02*
X160286771Y-104993887D01*
X160286771Y-104993887D02*
X160334390Y-104898649D01*
X160334390Y-104898649D02*
X160382009Y-104851030D01*
X160382009Y-104851030D02*
X160477247Y-104803411D01*
X160477247Y-104803411D02*
X160715342Y-104803411D01*
X160715342Y-104803411D02*
X160810580Y-104851030D01*
X160810580Y-104851030D02*
X160858200Y-104898649D01*
X160858200Y-104898649D02*
X160905819Y-104993887D01*
X160905819Y-104993887D02*
X160905819Y-105279601D01*
X160905819Y-105279601D02*
X160858200Y-105374839D01*
X160858200Y-105374839D02*
X160810580Y-105422458D01*
X159905819Y-104517696D02*
X160905819Y-104184363D01*
X160905819Y-104184363D02*
X159905819Y-103851030D01*
X159905819Y-103612934D02*
X159905819Y-102993887D01*
X159905819Y-102993887D02*
X160286771Y-103327220D01*
X160286771Y-103327220D02*
X160286771Y-103184363D01*
X160286771Y-103184363D02*
X160334390Y-103089125D01*
X160334390Y-103089125D02*
X160382009Y-103041506D01*
X160382009Y-103041506D02*
X160477247Y-102993887D01*
X160477247Y-102993887D02*
X160715342Y-102993887D01*
X160715342Y-102993887D02*
X160810580Y-103041506D01*
X160810580Y-103041506D02*
X160858200Y-103089125D01*
X160858200Y-103089125D02*
X160905819Y-103184363D01*
X160905819Y-103184363D02*
X160905819Y-103470077D01*
X160905819Y-103470077D02*
X160858200Y-103565315D01*
X160858200Y-103565315D02*
X160810580Y-103612934D01*
X139585819Y-105422458D02*
X140585819Y-105184363D01*
X140585819Y-105184363D02*
X139871533Y-104993887D01*
X139871533Y-104993887D02*
X140585819Y-104803411D01*
X140585819Y-104803411D02*
X139585819Y-104565316D01*
X140585819Y-104184363D02*
X139585819Y-104184363D01*
X140062009Y-104184363D02*
X140062009Y-103612935D01*
X140585819Y-103612935D02*
X139585819Y-103612935D01*
X139585819Y-103279601D02*
X139585819Y-102708173D01*
X140585819Y-102993887D02*
X139585819Y-102993887D01*
X139538200Y-101660554D02*
X140823914Y-102517696D01*
X139633438Y-100803411D02*
X139585819Y-100898649D01*
X139585819Y-100898649D02*
X139585819Y-101041506D01*
X139585819Y-101041506D02*
X139633438Y-101184363D01*
X139633438Y-101184363D02*
X139728676Y-101279601D01*
X139728676Y-101279601D02*
X139823914Y-101327220D01*
X139823914Y-101327220D02*
X140014390Y-101374839D01*
X140014390Y-101374839D02*
X140157247Y-101374839D01*
X140157247Y-101374839D02*
X140347723Y-101327220D01*
X140347723Y-101327220D02*
X140442961Y-101279601D01*
X140442961Y-101279601D02*
X140538200Y-101184363D01*
X140538200Y-101184363D02*
X140585819Y-101041506D01*
X140585819Y-101041506D02*
X140585819Y-100946268D01*
X140585819Y-100946268D02*
X140538200Y-100803411D01*
X140538200Y-100803411D02*
X140490580Y-100755792D01*
X140490580Y-100755792D02*
X140157247Y-100755792D01*
X140157247Y-100755792D02*
X140157247Y-100946268D01*
X140585819Y-100327220D02*
X139585819Y-100327220D01*
X139585819Y-100327220D02*
X140585819Y-99755792D01*
X140585819Y-99755792D02*
X139585819Y-99755792D01*
X140585819Y-99279601D02*
X139585819Y-99279601D01*
X139585819Y-99279601D02*
X139585819Y-99041506D01*
X139585819Y-99041506D02*
X139633438Y-98898649D01*
X139633438Y-98898649D02*
X139728676Y-98803411D01*
X139728676Y-98803411D02*
X139823914Y-98755792D01*
X139823914Y-98755792D02*
X140014390Y-98708173D01*
X140014390Y-98708173D02*
X140157247Y-98708173D01*
X140157247Y-98708173D02*
X140347723Y-98755792D01*
X140347723Y-98755792D02*
X140442961Y-98803411D01*
X140442961Y-98803411D02*
X140538200Y-98898649D01*
X140538200Y-98898649D02*
X140585819Y-99041506D01*
X140585819Y-99041506D02*
X140585819Y-99279601D01*
X157820651Y-75773427D02*
X157915889Y-75725808D01*
X157915889Y-75725808D02*
X158058746Y-75725808D01*
X158058746Y-75725808D02*
X158201603Y-75773427D01*
X158201603Y-75773427D02*
X158296841Y-75868665D01*
X158296841Y-75868665D02*
X158344460Y-75963903D01*
X158344460Y-75963903D02*
X158392079Y-76154379D01*
X158392079Y-76154379D02*
X158392079Y-76297236D01*
X158392079Y-76297236D02*
X158344460Y-76487712D01*
X158344460Y-76487712D02*
X158296841Y-76582950D01*
X158296841Y-76582950D02*
X158201603Y-76678189D01*
X158201603Y-76678189D02*
X158058746Y-76725808D01*
X158058746Y-76725808D02*
X157963508Y-76725808D01*
X157963508Y-76725808D02*
X157820651Y-76678189D01*
X157820651Y-76678189D02*
X157773032Y-76630569D01*
X157773032Y-76630569D02*
X157773032Y-76297236D01*
X157773032Y-76297236D02*
X157963508Y-76297236D01*
X157344460Y-76725808D02*
X157344460Y-75725808D01*
X157344460Y-75725808D02*
X156963508Y-75725808D01*
X156963508Y-75725808D02*
X156868270Y-75773427D01*
X156868270Y-75773427D02*
X156820651Y-75821046D01*
X156820651Y-75821046D02*
X156773032Y-75916284D01*
X156773032Y-75916284D02*
X156773032Y-76059141D01*
X156773032Y-76059141D02*
X156820651Y-76154379D01*
X156820651Y-76154379D02*
X156868270Y-76201998D01*
X156868270Y-76201998D02*
X156963508Y-76249617D01*
X156963508Y-76249617D02*
X157344460Y-76249617D01*
X156344460Y-76725808D02*
X156344460Y-75725808D01*
X155677794Y-75725808D02*
X155487318Y-75725808D01*
X155487318Y-75725808D02*
X155392080Y-75773427D01*
X155392080Y-75773427D02*
X155296842Y-75868665D01*
X155296842Y-75868665D02*
X155249223Y-76059141D01*
X155249223Y-76059141D02*
X155249223Y-76392474D01*
X155249223Y-76392474D02*
X155296842Y-76582950D01*
X155296842Y-76582950D02*
X155392080Y-76678189D01*
X155392080Y-76678189D02*
X155487318Y-76725808D01*
X155487318Y-76725808D02*
X155677794Y-76725808D01*
X155677794Y-76725808D02*
X155773032Y-76678189D01*
X155773032Y-76678189D02*
X155868270Y-76582950D01*
X155868270Y-76582950D02*
X155915889Y-76392474D01*
X155915889Y-76392474D02*
X155915889Y-76059141D01*
X155915889Y-76059141D02*
X155868270Y-75868665D01*
X155868270Y-75868665D02*
X155773032Y-75773427D01*
X155773032Y-75773427D02*
X155677794Y-75725808D01*
X154630175Y-75725808D02*
X154534937Y-75725808D01*
X154534937Y-75725808D02*
X154439699Y-75773427D01*
X154439699Y-75773427D02*
X154392080Y-75821046D01*
X154392080Y-75821046D02*
X154344461Y-75916284D01*
X154344461Y-75916284D02*
X154296842Y-76106760D01*
X154296842Y-76106760D02*
X154296842Y-76344855D01*
X154296842Y-76344855D02*
X154344461Y-76535331D01*
X154344461Y-76535331D02*
X154392080Y-76630569D01*
X154392080Y-76630569D02*
X154439699Y-76678189D01*
X154439699Y-76678189D02*
X154534937Y-76725808D01*
X154534937Y-76725808D02*
X154630175Y-76725808D01*
X154630175Y-76725808D02*
X154725413Y-76678189D01*
X154725413Y-76678189D02*
X154773032Y-76630569D01*
X154773032Y-76630569D02*
X154820651Y-76535331D01*
X154820651Y-76535331D02*
X154868270Y-76344855D01*
X154868270Y-76344855D02*
X154868270Y-76106760D01*
X154868270Y-76106760D02*
X154820651Y-75916284D01*
X154820651Y-75916284D02*
X154773032Y-75821046D01*
X154773032Y-75821046D02*
X154725413Y-75773427D01*
X154725413Y-75773427D02*
X154630175Y-75725808D01*
X126877700Y-66395116D02*
X127211033Y-65918925D01*
X127449128Y-66395116D02*
X127449128Y-65395116D01*
X127449128Y-65395116D02*
X127068176Y-65395116D01*
X127068176Y-65395116D02*
X126972938Y-65442735D01*
X126972938Y-65442735D02*
X126925319Y-65490354D01*
X126925319Y-65490354D02*
X126877700Y-65585592D01*
X126877700Y-65585592D02*
X126877700Y-65728449D01*
X126877700Y-65728449D02*
X126925319Y-65823687D01*
X126925319Y-65823687D02*
X126972938Y-65871306D01*
X126972938Y-65871306D02*
X127068176Y-65918925D01*
X127068176Y-65918925D02*
X127449128Y-65918925D01*
X126496747Y-66347497D02*
X126353890Y-66395116D01*
X126353890Y-66395116D02*
X126115795Y-66395116D01*
X126115795Y-66395116D02*
X126020557Y-66347497D01*
X126020557Y-66347497D02*
X125972938Y-66299877D01*
X125972938Y-66299877D02*
X125925319Y-66204639D01*
X125925319Y-66204639D02*
X125925319Y-66109401D01*
X125925319Y-66109401D02*
X125972938Y-66014163D01*
X125972938Y-66014163D02*
X126020557Y-65966544D01*
X126020557Y-65966544D02*
X126115795Y-65918925D01*
X126115795Y-65918925D02*
X126306271Y-65871306D01*
X126306271Y-65871306D02*
X126401509Y-65823687D01*
X126401509Y-65823687D02*
X126449128Y-65776068D01*
X126449128Y-65776068D02*
X126496747Y-65680830D01*
X126496747Y-65680830D02*
X126496747Y-65585592D01*
X126496747Y-65585592D02*
X126449128Y-65490354D01*
X126449128Y-65490354D02*
X126401509Y-65442735D01*
X126401509Y-65442735D02*
X126306271Y-65395116D01*
X126306271Y-65395116D02*
X126068176Y-65395116D01*
X126068176Y-65395116D02*
X125925319Y-65442735D01*
X125639604Y-65395116D02*
X125068176Y-65395116D01*
X125353890Y-66395116D02*
X125353890Y-65395116D01*
X157820651Y-70693427D02*
X157915889Y-70645808D01*
X157915889Y-70645808D02*
X158058746Y-70645808D01*
X158058746Y-70645808D02*
X158201603Y-70693427D01*
X158201603Y-70693427D02*
X158296841Y-70788665D01*
X158296841Y-70788665D02*
X158344460Y-70883903D01*
X158344460Y-70883903D02*
X158392079Y-71074379D01*
X158392079Y-71074379D02*
X158392079Y-71217236D01*
X158392079Y-71217236D02*
X158344460Y-71407712D01*
X158344460Y-71407712D02*
X158296841Y-71502950D01*
X158296841Y-71502950D02*
X158201603Y-71598189D01*
X158201603Y-71598189D02*
X158058746Y-71645808D01*
X158058746Y-71645808D02*
X157963508Y-71645808D01*
X157963508Y-71645808D02*
X157820651Y-71598189D01*
X157820651Y-71598189D02*
X157773032Y-71550569D01*
X157773032Y-71550569D02*
X157773032Y-71217236D01*
X157773032Y-71217236D02*
X157963508Y-71217236D01*
X157344460Y-71645808D02*
X157344460Y-70645808D01*
X157344460Y-70645808D02*
X156963508Y-70645808D01*
X156963508Y-70645808D02*
X156868270Y-70693427D01*
X156868270Y-70693427D02*
X156820651Y-70741046D01*
X156820651Y-70741046D02*
X156773032Y-70836284D01*
X156773032Y-70836284D02*
X156773032Y-70979141D01*
X156773032Y-70979141D02*
X156820651Y-71074379D01*
X156820651Y-71074379D02*
X156868270Y-71121998D01*
X156868270Y-71121998D02*
X156963508Y-71169617D01*
X156963508Y-71169617D02*
X157344460Y-71169617D01*
X156344460Y-71645808D02*
X156344460Y-70645808D01*
X155677794Y-70645808D02*
X155487318Y-70645808D01*
X155487318Y-70645808D02*
X155392080Y-70693427D01*
X155392080Y-70693427D02*
X155296842Y-70788665D01*
X155296842Y-70788665D02*
X155249223Y-70979141D01*
X155249223Y-70979141D02*
X155249223Y-71312474D01*
X155249223Y-71312474D02*
X155296842Y-71502950D01*
X155296842Y-71502950D02*
X155392080Y-71598189D01*
X155392080Y-71598189D02*
X155487318Y-71645808D01*
X155487318Y-71645808D02*
X155677794Y-71645808D01*
X155677794Y-71645808D02*
X155773032Y-71598189D01*
X155773032Y-71598189D02*
X155868270Y-71502950D01*
X155868270Y-71502950D02*
X155915889Y-71312474D01*
X155915889Y-71312474D02*
X155915889Y-70979141D01*
X155915889Y-70979141D02*
X155868270Y-70788665D01*
X155868270Y-70788665D02*
X155773032Y-70693427D01*
X155773032Y-70693427D02*
X155677794Y-70645808D01*
X154344461Y-70645808D02*
X154820651Y-70645808D01*
X154820651Y-70645808D02*
X154868270Y-71121998D01*
X154868270Y-71121998D02*
X154820651Y-71074379D01*
X154820651Y-71074379D02*
X154725413Y-71026760D01*
X154725413Y-71026760D02*
X154487318Y-71026760D01*
X154487318Y-71026760D02*
X154392080Y-71074379D01*
X154392080Y-71074379D02*
X154344461Y-71121998D01*
X154344461Y-71121998D02*
X154296842Y-71217236D01*
X154296842Y-71217236D02*
X154296842Y-71455331D01*
X154296842Y-71455331D02*
X154344461Y-71550569D01*
X154344461Y-71550569D02*
X154392080Y-71598189D01*
X154392080Y-71598189D02*
X154487318Y-71645808D01*
X154487318Y-71645808D02*
X154725413Y-71645808D01*
X154725413Y-71645808D02*
X154820651Y-71598189D01*
X154820651Y-71598189D02*
X154868270Y-71550569D01*
X157820651Y-68153427D02*
X157915889Y-68105808D01*
X157915889Y-68105808D02*
X158058746Y-68105808D01*
X158058746Y-68105808D02*
X158201603Y-68153427D01*
X158201603Y-68153427D02*
X158296841Y-68248665D01*
X158296841Y-68248665D02*
X158344460Y-68343903D01*
X158344460Y-68343903D02*
X158392079Y-68534379D01*
X158392079Y-68534379D02*
X158392079Y-68677236D01*
X158392079Y-68677236D02*
X158344460Y-68867712D01*
X158344460Y-68867712D02*
X158296841Y-68962950D01*
X158296841Y-68962950D02*
X158201603Y-69058189D01*
X158201603Y-69058189D02*
X158058746Y-69105808D01*
X158058746Y-69105808D02*
X157963508Y-69105808D01*
X157963508Y-69105808D02*
X157820651Y-69058189D01*
X157820651Y-69058189D02*
X157773032Y-69010569D01*
X157773032Y-69010569D02*
X157773032Y-68677236D01*
X157773032Y-68677236D02*
X157963508Y-68677236D01*
X157344460Y-69105808D02*
X157344460Y-68105808D01*
X157344460Y-68105808D02*
X156963508Y-68105808D01*
X156963508Y-68105808D02*
X156868270Y-68153427D01*
X156868270Y-68153427D02*
X156820651Y-68201046D01*
X156820651Y-68201046D02*
X156773032Y-68296284D01*
X156773032Y-68296284D02*
X156773032Y-68439141D01*
X156773032Y-68439141D02*
X156820651Y-68534379D01*
X156820651Y-68534379D02*
X156868270Y-68581998D01*
X156868270Y-68581998D02*
X156963508Y-68629617D01*
X156963508Y-68629617D02*
X157344460Y-68629617D01*
X156344460Y-69105808D02*
X156344460Y-68105808D01*
X155677794Y-68105808D02*
X155487318Y-68105808D01*
X155487318Y-68105808D02*
X155392080Y-68153427D01*
X155392080Y-68153427D02*
X155296842Y-68248665D01*
X155296842Y-68248665D02*
X155249223Y-68439141D01*
X155249223Y-68439141D02*
X155249223Y-68772474D01*
X155249223Y-68772474D02*
X155296842Y-68962950D01*
X155296842Y-68962950D02*
X155392080Y-69058189D01*
X155392080Y-69058189D02*
X155487318Y-69105808D01*
X155487318Y-69105808D02*
X155677794Y-69105808D01*
X155677794Y-69105808D02*
X155773032Y-69058189D01*
X155773032Y-69058189D02*
X155868270Y-68962950D01*
X155868270Y-68962950D02*
X155915889Y-68772474D01*
X155915889Y-68772474D02*
X155915889Y-68439141D01*
X155915889Y-68439141D02*
X155868270Y-68248665D01*
X155868270Y-68248665D02*
X155773032Y-68153427D01*
X155773032Y-68153427D02*
X155677794Y-68105808D01*
X154915889Y-68105808D02*
X154296842Y-68105808D01*
X154296842Y-68105808D02*
X154630175Y-68486760D01*
X154630175Y-68486760D02*
X154487318Y-68486760D01*
X154487318Y-68486760D02*
X154392080Y-68534379D01*
X154392080Y-68534379D02*
X154344461Y-68581998D01*
X154344461Y-68581998D02*
X154296842Y-68677236D01*
X154296842Y-68677236D02*
X154296842Y-68915331D01*
X154296842Y-68915331D02*
X154344461Y-69010569D01*
X154344461Y-69010569D02*
X154392080Y-69058189D01*
X154392080Y-69058189D02*
X154487318Y-69105808D01*
X154487318Y-69105808D02*
X154773032Y-69105808D01*
X154773032Y-69105808D02*
X154868270Y-69058189D01*
X154868270Y-69058189D02*
X154915889Y-69010569D01*
X157820651Y-78313427D02*
X157915889Y-78265808D01*
X157915889Y-78265808D02*
X158058746Y-78265808D01*
X158058746Y-78265808D02*
X158201603Y-78313427D01*
X158201603Y-78313427D02*
X158296841Y-78408665D01*
X158296841Y-78408665D02*
X158344460Y-78503903D01*
X158344460Y-78503903D02*
X158392079Y-78694379D01*
X158392079Y-78694379D02*
X158392079Y-78837236D01*
X158392079Y-78837236D02*
X158344460Y-79027712D01*
X158344460Y-79027712D02*
X158296841Y-79122950D01*
X158296841Y-79122950D02*
X158201603Y-79218189D01*
X158201603Y-79218189D02*
X158058746Y-79265808D01*
X158058746Y-79265808D02*
X157963508Y-79265808D01*
X157963508Y-79265808D02*
X157820651Y-79218189D01*
X157820651Y-79218189D02*
X157773032Y-79170569D01*
X157773032Y-79170569D02*
X157773032Y-78837236D01*
X157773032Y-78837236D02*
X157963508Y-78837236D01*
X157344460Y-79265808D02*
X157344460Y-78265808D01*
X157344460Y-78265808D02*
X156963508Y-78265808D01*
X156963508Y-78265808D02*
X156868270Y-78313427D01*
X156868270Y-78313427D02*
X156820651Y-78361046D01*
X156820651Y-78361046D02*
X156773032Y-78456284D01*
X156773032Y-78456284D02*
X156773032Y-78599141D01*
X156773032Y-78599141D02*
X156820651Y-78694379D01*
X156820651Y-78694379D02*
X156868270Y-78741998D01*
X156868270Y-78741998D02*
X156963508Y-78789617D01*
X156963508Y-78789617D02*
X157344460Y-78789617D01*
X156344460Y-79265808D02*
X156344460Y-78265808D01*
X155677794Y-78265808D02*
X155487318Y-78265808D01*
X155487318Y-78265808D02*
X155392080Y-78313427D01*
X155392080Y-78313427D02*
X155296842Y-78408665D01*
X155296842Y-78408665D02*
X155249223Y-78599141D01*
X155249223Y-78599141D02*
X155249223Y-78932474D01*
X155249223Y-78932474D02*
X155296842Y-79122950D01*
X155296842Y-79122950D02*
X155392080Y-79218189D01*
X155392080Y-79218189D02*
X155487318Y-79265808D01*
X155487318Y-79265808D02*
X155677794Y-79265808D01*
X155677794Y-79265808D02*
X155773032Y-79218189D01*
X155773032Y-79218189D02*
X155868270Y-79122950D01*
X155868270Y-79122950D02*
X155915889Y-78932474D01*
X155915889Y-78932474D02*
X155915889Y-78599141D01*
X155915889Y-78599141D02*
X155868270Y-78408665D01*
X155868270Y-78408665D02*
X155773032Y-78313427D01*
X155773032Y-78313427D02*
X155677794Y-78265808D01*
X154868270Y-78361046D02*
X154820651Y-78313427D01*
X154820651Y-78313427D02*
X154725413Y-78265808D01*
X154725413Y-78265808D02*
X154487318Y-78265808D01*
X154487318Y-78265808D02*
X154392080Y-78313427D01*
X154392080Y-78313427D02*
X154344461Y-78361046D01*
X154344461Y-78361046D02*
X154296842Y-78456284D01*
X154296842Y-78456284D02*
X154296842Y-78551522D01*
X154296842Y-78551522D02*
X154344461Y-78694379D01*
X154344461Y-78694379D02*
X154915889Y-79265808D01*
X154915889Y-79265808D02*
X154296842Y-79265808D01*
X126925319Y-78142735D02*
X127020557Y-78095116D01*
X127020557Y-78095116D02*
X127163414Y-78095116D01*
X127163414Y-78095116D02*
X127306271Y-78142735D01*
X127306271Y-78142735D02*
X127401509Y-78237973D01*
X127401509Y-78237973D02*
X127449128Y-78333211D01*
X127449128Y-78333211D02*
X127496747Y-78523687D01*
X127496747Y-78523687D02*
X127496747Y-78666544D01*
X127496747Y-78666544D02*
X127449128Y-78857020D01*
X127449128Y-78857020D02*
X127401509Y-78952258D01*
X127401509Y-78952258D02*
X127306271Y-79047497D01*
X127306271Y-79047497D02*
X127163414Y-79095116D01*
X127163414Y-79095116D02*
X127068176Y-79095116D01*
X127068176Y-79095116D02*
X126925319Y-79047497D01*
X126925319Y-79047497D02*
X126877700Y-78999877D01*
X126877700Y-78999877D02*
X126877700Y-78666544D01*
X126877700Y-78666544D02*
X127068176Y-78666544D01*
X126449128Y-79095116D02*
X126449128Y-78095116D01*
X126449128Y-78095116D02*
X126068176Y-78095116D01*
X126068176Y-78095116D02*
X125972938Y-78142735D01*
X125972938Y-78142735D02*
X125925319Y-78190354D01*
X125925319Y-78190354D02*
X125877700Y-78285592D01*
X125877700Y-78285592D02*
X125877700Y-78428449D01*
X125877700Y-78428449D02*
X125925319Y-78523687D01*
X125925319Y-78523687D02*
X125972938Y-78571306D01*
X125972938Y-78571306D02*
X126068176Y-78618925D01*
X126068176Y-78618925D02*
X126449128Y-78618925D01*
X125449128Y-79095116D02*
X125449128Y-78095116D01*
X124782462Y-78095116D02*
X124591986Y-78095116D01*
X124591986Y-78095116D02*
X124496748Y-78142735D01*
X124496748Y-78142735D02*
X124401510Y-78237973D01*
X124401510Y-78237973D02*
X124353891Y-78428449D01*
X124353891Y-78428449D02*
X124353891Y-78761782D01*
X124353891Y-78761782D02*
X124401510Y-78952258D01*
X124401510Y-78952258D02*
X124496748Y-79047497D01*
X124496748Y-79047497D02*
X124591986Y-79095116D01*
X124591986Y-79095116D02*
X124782462Y-79095116D01*
X124782462Y-79095116D02*
X124877700Y-79047497D01*
X124877700Y-79047497D02*
X124972938Y-78952258D01*
X124972938Y-78952258D02*
X125020557Y-78761782D01*
X125020557Y-78761782D02*
X125020557Y-78428449D01*
X125020557Y-78428449D02*
X124972938Y-78237973D01*
X124972938Y-78237973D02*
X124877700Y-78142735D01*
X124877700Y-78142735D02*
X124782462Y-78095116D01*
X123401510Y-79095116D02*
X123972938Y-79095116D01*
X123687224Y-79095116D02*
X123687224Y-78095116D01*
X123687224Y-78095116D02*
X123782462Y-78237973D01*
X123782462Y-78237973D02*
X123877700Y-78333211D01*
X123877700Y-78333211D02*
X123972938Y-78380830D01*
X123068176Y-78095116D02*
X122449129Y-78095116D01*
X122449129Y-78095116D02*
X122782462Y-78476068D01*
X122782462Y-78476068D02*
X122639605Y-78476068D01*
X122639605Y-78476068D02*
X122544367Y-78523687D01*
X122544367Y-78523687D02*
X122496748Y-78571306D01*
X122496748Y-78571306D02*
X122449129Y-78666544D01*
X122449129Y-78666544D02*
X122449129Y-78904639D01*
X122449129Y-78904639D02*
X122496748Y-78999877D01*
X122496748Y-78999877D02*
X122544367Y-79047497D01*
X122544367Y-79047497D02*
X122639605Y-79095116D01*
X122639605Y-79095116D02*
X122925319Y-79095116D01*
X122925319Y-79095116D02*
X123020557Y-79047497D01*
X123020557Y-79047497D02*
X123068176Y-78999877D01*
X155106366Y-83345808D02*
X155582556Y-83345808D01*
X155582556Y-83345808D02*
X155630175Y-83821998D01*
X155630175Y-83821998D02*
X155582556Y-83774379D01*
X155582556Y-83774379D02*
X155487318Y-83726760D01*
X155487318Y-83726760D02*
X155249223Y-83726760D01*
X155249223Y-83726760D02*
X155153985Y-83774379D01*
X155153985Y-83774379D02*
X155106366Y-83821998D01*
X155106366Y-83821998D02*
X155058747Y-83917236D01*
X155058747Y-83917236D02*
X155058747Y-84155331D01*
X155058747Y-84155331D02*
X155106366Y-84250569D01*
X155106366Y-84250569D02*
X155153985Y-84298189D01*
X155153985Y-84298189D02*
X155249223Y-84345808D01*
X155249223Y-84345808D02*
X155487318Y-84345808D01*
X155487318Y-84345808D02*
X155582556Y-84298189D01*
X155582556Y-84298189D02*
X155630175Y-84250569D01*
X154725413Y-83679141D02*
X154487318Y-84345808D01*
X154487318Y-84345808D02*
X154249223Y-83679141D01*
X126925319Y-80682735D02*
X127020557Y-80635116D01*
X127020557Y-80635116D02*
X127163414Y-80635116D01*
X127163414Y-80635116D02*
X127306271Y-80682735D01*
X127306271Y-80682735D02*
X127401509Y-80777973D01*
X127401509Y-80777973D02*
X127449128Y-80873211D01*
X127449128Y-80873211D02*
X127496747Y-81063687D01*
X127496747Y-81063687D02*
X127496747Y-81206544D01*
X127496747Y-81206544D02*
X127449128Y-81397020D01*
X127449128Y-81397020D02*
X127401509Y-81492258D01*
X127401509Y-81492258D02*
X127306271Y-81587497D01*
X127306271Y-81587497D02*
X127163414Y-81635116D01*
X127163414Y-81635116D02*
X127068176Y-81635116D01*
X127068176Y-81635116D02*
X126925319Y-81587497D01*
X126925319Y-81587497D02*
X126877700Y-81539877D01*
X126877700Y-81539877D02*
X126877700Y-81206544D01*
X126877700Y-81206544D02*
X127068176Y-81206544D01*
X126449128Y-81635116D02*
X126449128Y-80635116D01*
X126449128Y-80635116D02*
X126068176Y-80635116D01*
X126068176Y-80635116D02*
X125972938Y-80682735D01*
X125972938Y-80682735D02*
X125925319Y-80730354D01*
X125925319Y-80730354D02*
X125877700Y-80825592D01*
X125877700Y-80825592D02*
X125877700Y-80968449D01*
X125877700Y-80968449D02*
X125925319Y-81063687D01*
X125925319Y-81063687D02*
X125972938Y-81111306D01*
X125972938Y-81111306D02*
X126068176Y-81158925D01*
X126068176Y-81158925D02*
X126449128Y-81158925D01*
X125449128Y-81635116D02*
X125449128Y-80635116D01*
X124782462Y-80635116D02*
X124591986Y-80635116D01*
X124591986Y-80635116D02*
X124496748Y-80682735D01*
X124496748Y-80682735D02*
X124401510Y-80777973D01*
X124401510Y-80777973D02*
X124353891Y-80968449D01*
X124353891Y-80968449D02*
X124353891Y-81301782D01*
X124353891Y-81301782D02*
X124401510Y-81492258D01*
X124401510Y-81492258D02*
X124496748Y-81587497D01*
X124496748Y-81587497D02*
X124591986Y-81635116D01*
X124591986Y-81635116D02*
X124782462Y-81635116D01*
X124782462Y-81635116D02*
X124877700Y-81587497D01*
X124877700Y-81587497D02*
X124972938Y-81492258D01*
X124972938Y-81492258D02*
X125020557Y-81301782D01*
X125020557Y-81301782D02*
X125020557Y-80968449D01*
X125020557Y-80968449D02*
X124972938Y-80777973D01*
X124972938Y-80777973D02*
X124877700Y-80682735D01*
X124877700Y-80682735D02*
X124782462Y-80635116D01*
X123401510Y-81635116D02*
X123972938Y-81635116D01*
X123687224Y-81635116D02*
X123687224Y-80635116D01*
X123687224Y-80635116D02*
X123782462Y-80777973D01*
X123782462Y-80777973D02*
X123877700Y-80873211D01*
X123877700Y-80873211D02*
X123972938Y-80920830D01*
X122496748Y-80635116D02*
X122972938Y-80635116D01*
X122972938Y-80635116D02*
X123020557Y-81111306D01*
X123020557Y-81111306D02*
X122972938Y-81063687D01*
X122972938Y-81063687D02*
X122877700Y-81016068D01*
X122877700Y-81016068D02*
X122639605Y-81016068D01*
X122639605Y-81016068D02*
X122544367Y-81063687D01*
X122544367Y-81063687D02*
X122496748Y-81111306D01*
X122496748Y-81111306D02*
X122449129Y-81206544D01*
X122449129Y-81206544D02*
X122449129Y-81444639D01*
X122449129Y-81444639D02*
X122496748Y-81539877D01*
X122496748Y-81539877D02*
X122544367Y-81587497D01*
X122544367Y-81587497D02*
X122639605Y-81635116D01*
X122639605Y-81635116D02*
X122877700Y-81635116D01*
X122877700Y-81635116D02*
X122972938Y-81587497D01*
X122972938Y-81587497D02*
X123020557Y-81539877D01*
X127449128Y-68411306D02*
X127115795Y-68411306D01*
X126972938Y-68935116D02*
X127449128Y-68935116D01*
X127449128Y-68935116D02*
X127449128Y-67935116D01*
X127449128Y-67935116D02*
X126972938Y-67935116D01*
X126544366Y-68935116D02*
X126544366Y-67935116D01*
X126544366Y-67935116D02*
X125972938Y-68935116D01*
X125972938Y-68935116D02*
X125972938Y-67935116D01*
X126925319Y-75602735D02*
X127020557Y-75555116D01*
X127020557Y-75555116D02*
X127163414Y-75555116D01*
X127163414Y-75555116D02*
X127306271Y-75602735D01*
X127306271Y-75602735D02*
X127401509Y-75697973D01*
X127401509Y-75697973D02*
X127449128Y-75793211D01*
X127449128Y-75793211D02*
X127496747Y-75983687D01*
X127496747Y-75983687D02*
X127496747Y-76126544D01*
X127496747Y-76126544D02*
X127449128Y-76317020D01*
X127449128Y-76317020D02*
X127401509Y-76412258D01*
X127401509Y-76412258D02*
X127306271Y-76507497D01*
X127306271Y-76507497D02*
X127163414Y-76555116D01*
X127163414Y-76555116D02*
X127068176Y-76555116D01*
X127068176Y-76555116D02*
X126925319Y-76507497D01*
X126925319Y-76507497D02*
X126877700Y-76459877D01*
X126877700Y-76459877D02*
X126877700Y-76126544D01*
X126877700Y-76126544D02*
X127068176Y-76126544D01*
X126449128Y-76555116D02*
X126449128Y-75555116D01*
X126449128Y-75555116D02*
X126068176Y-75555116D01*
X126068176Y-75555116D02*
X125972938Y-75602735D01*
X125972938Y-75602735D02*
X125925319Y-75650354D01*
X125925319Y-75650354D02*
X125877700Y-75745592D01*
X125877700Y-75745592D02*
X125877700Y-75888449D01*
X125877700Y-75888449D02*
X125925319Y-75983687D01*
X125925319Y-75983687D02*
X125972938Y-76031306D01*
X125972938Y-76031306D02*
X126068176Y-76078925D01*
X126068176Y-76078925D02*
X126449128Y-76078925D01*
X125449128Y-76555116D02*
X125449128Y-75555116D01*
X124782462Y-75555116D02*
X124591986Y-75555116D01*
X124591986Y-75555116D02*
X124496748Y-75602735D01*
X124496748Y-75602735D02*
X124401510Y-75697973D01*
X124401510Y-75697973D02*
X124353891Y-75888449D01*
X124353891Y-75888449D02*
X124353891Y-76221782D01*
X124353891Y-76221782D02*
X124401510Y-76412258D01*
X124401510Y-76412258D02*
X124496748Y-76507497D01*
X124496748Y-76507497D02*
X124591986Y-76555116D01*
X124591986Y-76555116D02*
X124782462Y-76555116D01*
X124782462Y-76555116D02*
X124877700Y-76507497D01*
X124877700Y-76507497D02*
X124972938Y-76412258D01*
X124972938Y-76412258D02*
X125020557Y-76221782D01*
X125020557Y-76221782D02*
X125020557Y-75888449D01*
X125020557Y-75888449D02*
X124972938Y-75697973D01*
X124972938Y-75697973D02*
X124877700Y-75602735D01*
X124877700Y-75602735D02*
X124782462Y-75555116D01*
X123401510Y-76555116D02*
X123972938Y-76555116D01*
X123687224Y-76555116D02*
X123687224Y-75555116D01*
X123687224Y-75555116D02*
X123782462Y-75697973D01*
X123782462Y-75697973D02*
X123877700Y-75793211D01*
X123877700Y-75793211D02*
X123972938Y-75840830D01*
X123020557Y-75650354D02*
X122972938Y-75602735D01*
X122972938Y-75602735D02*
X122877700Y-75555116D01*
X122877700Y-75555116D02*
X122639605Y-75555116D01*
X122639605Y-75555116D02*
X122544367Y-75602735D01*
X122544367Y-75602735D02*
X122496748Y-75650354D01*
X122496748Y-75650354D02*
X122449129Y-75745592D01*
X122449129Y-75745592D02*
X122449129Y-75840830D01*
X122449129Y-75840830D02*
X122496748Y-75983687D01*
X122496748Y-75983687D02*
X123068176Y-76555116D01*
X123068176Y-76555116D02*
X122449129Y-76555116D01*
X157820651Y-65613427D02*
X157915889Y-65565808D01*
X157915889Y-65565808D02*
X158058746Y-65565808D01*
X158058746Y-65565808D02*
X158201603Y-65613427D01*
X158201603Y-65613427D02*
X158296841Y-65708665D01*
X158296841Y-65708665D02*
X158344460Y-65803903D01*
X158344460Y-65803903D02*
X158392079Y-65994379D01*
X158392079Y-65994379D02*
X158392079Y-66137236D01*
X158392079Y-66137236D02*
X158344460Y-66327712D01*
X158344460Y-66327712D02*
X158296841Y-66422950D01*
X158296841Y-66422950D02*
X158201603Y-66518189D01*
X158201603Y-66518189D02*
X158058746Y-66565808D01*
X158058746Y-66565808D02*
X157963508Y-66565808D01*
X157963508Y-66565808D02*
X157820651Y-66518189D01*
X157820651Y-66518189D02*
X157773032Y-66470569D01*
X157773032Y-66470569D02*
X157773032Y-66137236D01*
X157773032Y-66137236D02*
X157963508Y-66137236D01*
X157344460Y-66565808D02*
X157344460Y-65565808D01*
X157344460Y-65565808D02*
X156963508Y-65565808D01*
X156963508Y-65565808D02*
X156868270Y-65613427D01*
X156868270Y-65613427D02*
X156820651Y-65661046D01*
X156820651Y-65661046D02*
X156773032Y-65756284D01*
X156773032Y-65756284D02*
X156773032Y-65899141D01*
X156773032Y-65899141D02*
X156820651Y-65994379D01*
X156820651Y-65994379D02*
X156868270Y-66041998D01*
X156868270Y-66041998D02*
X156963508Y-66089617D01*
X156963508Y-66089617D02*
X157344460Y-66089617D01*
X156344460Y-66565808D02*
X156344460Y-65565808D01*
X155677794Y-65565808D02*
X155487318Y-65565808D01*
X155487318Y-65565808D02*
X155392080Y-65613427D01*
X155392080Y-65613427D02*
X155296842Y-65708665D01*
X155296842Y-65708665D02*
X155249223Y-65899141D01*
X155249223Y-65899141D02*
X155249223Y-66232474D01*
X155249223Y-66232474D02*
X155296842Y-66422950D01*
X155296842Y-66422950D02*
X155392080Y-66518189D01*
X155392080Y-66518189D02*
X155487318Y-66565808D01*
X155487318Y-66565808D02*
X155677794Y-66565808D01*
X155677794Y-66565808D02*
X155773032Y-66518189D01*
X155773032Y-66518189D02*
X155868270Y-66422950D01*
X155868270Y-66422950D02*
X155915889Y-66232474D01*
X155915889Y-66232474D02*
X155915889Y-65899141D01*
X155915889Y-65899141D02*
X155868270Y-65708665D01*
X155868270Y-65708665D02*
X155773032Y-65613427D01*
X155773032Y-65613427D02*
X155677794Y-65565808D01*
X154296842Y-66565808D02*
X154868270Y-66565808D01*
X154582556Y-66565808D02*
X154582556Y-65565808D01*
X154582556Y-65565808D02*
X154677794Y-65708665D01*
X154677794Y-65708665D02*
X154773032Y-65803903D01*
X154773032Y-65803903D02*
X154868270Y-65851522D01*
X127591985Y-83175116D02*
X127258652Y-84175116D01*
X127258652Y-84175116D02*
X126925319Y-83175116D01*
X126020557Y-84079877D02*
X126068176Y-84127497D01*
X126068176Y-84127497D02*
X126211033Y-84175116D01*
X126211033Y-84175116D02*
X126306271Y-84175116D01*
X126306271Y-84175116D02*
X126449128Y-84127497D01*
X126449128Y-84127497D02*
X126544366Y-84032258D01*
X126544366Y-84032258D02*
X126591985Y-83937020D01*
X126591985Y-83937020D02*
X126639604Y-83746544D01*
X126639604Y-83746544D02*
X126639604Y-83603687D01*
X126639604Y-83603687D02*
X126591985Y-83413211D01*
X126591985Y-83413211D02*
X126544366Y-83317973D01*
X126544366Y-83317973D02*
X126449128Y-83222735D01*
X126449128Y-83222735D02*
X126306271Y-83175116D01*
X126306271Y-83175116D02*
X126211033Y-83175116D01*
X126211033Y-83175116D02*
X126068176Y-83222735D01*
X126068176Y-83222735D02*
X126020557Y-83270354D01*
X125020557Y-84079877D02*
X125068176Y-84127497D01*
X125068176Y-84127497D02*
X125211033Y-84175116D01*
X125211033Y-84175116D02*
X125306271Y-84175116D01*
X125306271Y-84175116D02*
X125449128Y-84127497D01*
X125449128Y-84127497D02*
X125544366Y-84032258D01*
X125544366Y-84032258D02*
X125591985Y-83937020D01*
X125591985Y-83937020D02*
X125639604Y-83746544D01*
X125639604Y-83746544D02*
X125639604Y-83603687D01*
X125639604Y-83603687D02*
X125591985Y-83413211D01*
X125591985Y-83413211D02*
X125544366Y-83317973D01*
X125544366Y-83317973D02*
X125449128Y-83222735D01*
X125449128Y-83222735D02*
X125306271Y-83175116D01*
X125306271Y-83175116D02*
X125211033Y-83175116D01*
X125211033Y-83175116D02*
X125068176Y-83222735D01*
X125068176Y-83222735D02*
X125020557Y-83270354D01*
X124591985Y-83794163D02*
X123830081Y-83794163D01*
X123449128Y-83175116D02*
X122830081Y-83175116D01*
X122830081Y-83175116D02*
X123163414Y-83556068D01*
X123163414Y-83556068D02*
X123020557Y-83556068D01*
X123020557Y-83556068D02*
X122925319Y-83603687D01*
X122925319Y-83603687D02*
X122877700Y-83651306D01*
X122877700Y-83651306D02*
X122830081Y-83746544D01*
X122830081Y-83746544D02*
X122830081Y-83984639D01*
X122830081Y-83984639D02*
X122877700Y-84079877D01*
X122877700Y-84079877D02*
X122925319Y-84127497D01*
X122925319Y-84127497D02*
X123020557Y-84175116D01*
X123020557Y-84175116D02*
X123306271Y-84175116D01*
X123306271Y-84175116D02*
X123401509Y-84127497D01*
X123401509Y-84127497D02*
X123449128Y-84079877D01*
X122496747Y-83508449D02*
X122258652Y-84175116D01*
X122258652Y-84175116D02*
X122020557Y-83508449D01*
X121734842Y-83175116D02*
X121115795Y-83175116D01*
X121115795Y-83175116D02*
X121449128Y-83556068D01*
X121449128Y-83556068D02*
X121306271Y-83556068D01*
X121306271Y-83556068D02*
X121211033Y-83603687D01*
X121211033Y-83603687D02*
X121163414Y-83651306D01*
X121163414Y-83651306D02*
X121115795Y-83746544D01*
X121115795Y-83746544D02*
X121115795Y-83984639D01*
X121115795Y-83984639D02*
X121163414Y-84079877D01*
X121163414Y-84079877D02*
X121211033Y-84127497D01*
X121211033Y-84127497D02*
X121306271Y-84175116D01*
X121306271Y-84175116D02*
X121591985Y-84175116D01*
X121591985Y-84175116D02*
X121687223Y-84127497D01*
X121687223Y-84127497D02*
X121734842Y-84079877D01*
X156392080Y-80853427D02*
X156487318Y-80805808D01*
X156487318Y-80805808D02*
X156630175Y-80805808D01*
X156630175Y-80805808D02*
X156773032Y-80853427D01*
X156773032Y-80853427D02*
X156868270Y-80948665D01*
X156868270Y-80948665D02*
X156915889Y-81043903D01*
X156915889Y-81043903D02*
X156963508Y-81234379D01*
X156963508Y-81234379D02*
X156963508Y-81377236D01*
X156963508Y-81377236D02*
X156915889Y-81567712D01*
X156915889Y-81567712D02*
X156868270Y-81662950D01*
X156868270Y-81662950D02*
X156773032Y-81758189D01*
X156773032Y-81758189D02*
X156630175Y-81805808D01*
X156630175Y-81805808D02*
X156534937Y-81805808D01*
X156534937Y-81805808D02*
X156392080Y-81758189D01*
X156392080Y-81758189D02*
X156344461Y-81710569D01*
X156344461Y-81710569D02*
X156344461Y-81377236D01*
X156344461Y-81377236D02*
X156534937Y-81377236D01*
X155915889Y-81805808D02*
X155915889Y-80805808D01*
X155915889Y-80805808D02*
X155344461Y-81805808D01*
X155344461Y-81805808D02*
X155344461Y-80805808D01*
X154868270Y-81805808D02*
X154868270Y-80805808D01*
X154868270Y-80805808D02*
X154630175Y-80805808D01*
X154630175Y-80805808D02*
X154487318Y-80853427D01*
X154487318Y-80853427D02*
X154392080Y-80948665D01*
X154392080Y-80948665D02*
X154344461Y-81043903D01*
X154344461Y-81043903D02*
X154296842Y-81234379D01*
X154296842Y-81234379D02*
X154296842Y-81377236D01*
X154296842Y-81377236D02*
X154344461Y-81567712D01*
X154344461Y-81567712D02*
X154392080Y-81662950D01*
X154392080Y-81662950D02*
X154487318Y-81758189D01*
X154487318Y-81758189D02*
X154630175Y-81805808D01*
X154630175Y-81805808D02*
X154868270Y-81805808D01*
X126925319Y-73062735D02*
X127020557Y-73015116D01*
X127020557Y-73015116D02*
X127163414Y-73015116D01*
X127163414Y-73015116D02*
X127306271Y-73062735D01*
X127306271Y-73062735D02*
X127401509Y-73157973D01*
X127401509Y-73157973D02*
X127449128Y-73253211D01*
X127449128Y-73253211D02*
X127496747Y-73443687D01*
X127496747Y-73443687D02*
X127496747Y-73586544D01*
X127496747Y-73586544D02*
X127449128Y-73777020D01*
X127449128Y-73777020D02*
X127401509Y-73872258D01*
X127401509Y-73872258D02*
X127306271Y-73967497D01*
X127306271Y-73967497D02*
X127163414Y-74015116D01*
X127163414Y-74015116D02*
X127068176Y-74015116D01*
X127068176Y-74015116D02*
X126925319Y-73967497D01*
X126925319Y-73967497D02*
X126877700Y-73919877D01*
X126877700Y-73919877D02*
X126877700Y-73586544D01*
X126877700Y-73586544D02*
X127068176Y-73586544D01*
X126449128Y-74015116D02*
X126449128Y-73015116D01*
X126449128Y-73015116D02*
X126068176Y-73015116D01*
X126068176Y-73015116D02*
X125972938Y-73062735D01*
X125972938Y-73062735D02*
X125925319Y-73110354D01*
X125925319Y-73110354D02*
X125877700Y-73205592D01*
X125877700Y-73205592D02*
X125877700Y-73348449D01*
X125877700Y-73348449D02*
X125925319Y-73443687D01*
X125925319Y-73443687D02*
X125972938Y-73491306D01*
X125972938Y-73491306D02*
X126068176Y-73538925D01*
X126068176Y-73538925D02*
X126449128Y-73538925D01*
X125449128Y-74015116D02*
X125449128Y-73015116D01*
X124782462Y-73015116D02*
X124591986Y-73015116D01*
X124591986Y-73015116D02*
X124496748Y-73062735D01*
X124496748Y-73062735D02*
X124401510Y-73157973D01*
X124401510Y-73157973D02*
X124353891Y-73348449D01*
X124353891Y-73348449D02*
X124353891Y-73681782D01*
X124353891Y-73681782D02*
X124401510Y-73872258D01*
X124401510Y-73872258D02*
X124496748Y-73967497D01*
X124496748Y-73967497D02*
X124591986Y-74015116D01*
X124591986Y-74015116D02*
X124782462Y-74015116D01*
X124782462Y-74015116D02*
X124877700Y-73967497D01*
X124877700Y-73967497D02*
X124972938Y-73872258D01*
X124972938Y-73872258D02*
X125020557Y-73681782D01*
X125020557Y-73681782D02*
X125020557Y-73348449D01*
X125020557Y-73348449D02*
X124972938Y-73157973D01*
X124972938Y-73157973D02*
X124877700Y-73062735D01*
X124877700Y-73062735D02*
X124782462Y-73015116D01*
X123401510Y-74015116D02*
X123972938Y-74015116D01*
X123687224Y-74015116D02*
X123687224Y-73015116D01*
X123687224Y-73015116D02*
X123782462Y-73157973D01*
X123782462Y-73157973D02*
X123877700Y-73253211D01*
X123877700Y-73253211D02*
X123972938Y-73300830D01*
X122544367Y-73348449D02*
X122544367Y-74015116D01*
X122782462Y-72967497D02*
X123020557Y-73681782D01*
X123020557Y-73681782D02*
X122401510Y-73681782D01*
X126925319Y-70522735D02*
X127020557Y-70475116D01*
X127020557Y-70475116D02*
X127163414Y-70475116D01*
X127163414Y-70475116D02*
X127306271Y-70522735D01*
X127306271Y-70522735D02*
X127401509Y-70617973D01*
X127401509Y-70617973D02*
X127449128Y-70713211D01*
X127449128Y-70713211D02*
X127496747Y-70903687D01*
X127496747Y-70903687D02*
X127496747Y-71046544D01*
X127496747Y-71046544D02*
X127449128Y-71237020D01*
X127449128Y-71237020D02*
X127401509Y-71332258D01*
X127401509Y-71332258D02*
X127306271Y-71427497D01*
X127306271Y-71427497D02*
X127163414Y-71475116D01*
X127163414Y-71475116D02*
X127068176Y-71475116D01*
X127068176Y-71475116D02*
X126925319Y-71427497D01*
X126925319Y-71427497D02*
X126877700Y-71379877D01*
X126877700Y-71379877D02*
X126877700Y-71046544D01*
X126877700Y-71046544D02*
X127068176Y-71046544D01*
X126449128Y-71475116D02*
X126449128Y-70475116D01*
X126449128Y-70475116D02*
X126068176Y-70475116D01*
X126068176Y-70475116D02*
X125972938Y-70522735D01*
X125972938Y-70522735D02*
X125925319Y-70570354D01*
X125925319Y-70570354D02*
X125877700Y-70665592D01*
X125877700Y-70665592D02*
X125877700Y-70808449D01*
X125877700Y-70808449D02*
X125925319Y-70903687D01*
X125925319Y-70903687D02*
X125972938Y-70951306D01*
X125972938Y-70951306D02*
X126068176Y-70998925D01*
X126068176Y-70998925D02*
X126449128Y-70998925D01*
X125449128Y-71475116D02*
X125449128Y-70475116D01*
X124782462Y-70475116D02*
X124591986Y-70475116D01*
X124591986Y-70475116D02*
X124496748Y-70522735D01*
X124496748Y-70522735D02*
X124401510Y-70617973D01*
X124401510Y-70617973D02*
X124353891Y-70808449D01*
X124353891Y-70808449D02*
X124353891Y-71141782D01*
X124353891Y-71141782D02*
X124401510Y-71332258D01*
X124401510Y-71332258D02*
X124496748Y-71427497D01*
X124496748Y-71427497D02*
X124591986Y-71475116D01*
X124591986Y-71475116D02*
X124782462Y-71475116D01*
X124782462Y-71475116D02*
X124877700Y-71427497D01*
X124877700Y-71427497D02*
X124972938Y-71332258D01*
X124972938Y-71332258D02*
X125020557Y-71141782D01*
X125020557Y-71141782D02*
X125020557Y-70808449D01*
X125020557Y-70808449D02*
X124972938Y-70617973D01*
X124972938Y-70617973D02*
X124877700Y-70522735D01*
X124877700Y-70522735D02*
X124782462Y-70475116D01*
X123401510Y-71475116D02*
X123972938Y-71475116D01*
X123687224Y-71475116D02*
X123687224Y-70475116D01*
X123687224Y-70475116D02*
X123782462Y-70617973D01*
X123782462Y-70617973D02*
X123877700Y-70713211D01*
X123877700Y-70713211D02*
X123972938Y-70760830D01*
X122544367Y-70475116D02*
X122734843Y-70475116D01*
X122734843Y-70475116D02*
X122830081Y-70522735D01*
X122830081Y-70522735D02*
X122877700Y-70570354D01*
X122877700Y-70570354D02*
X122972938Y-70713211D01*
X122972938Y-70713211D02*
X123020557Y-70903687D01*
X123020557Y-70903687D02*
X123020557Y-71284639D01*
X123020557Y-71284639D02*
X122972938Y-71379877D01*
X122972938Y-71379877D02*
X122925319Y-71427497D01*
X122925319Y-71427497D02*
X122830081Y-71475116D01*
X122830081Y-71475116D02*
X122639605Y-71475116D01*
X122639605Y-71475116D02*
X122544367Y-71427497D01*
X122544367Y-71427497D02*
X122496748Y-71379877D01*
X122496748Y-71379877D02*
X122449129Y-71284639D01*
X122449129Y-71284639D02*
X122449129Y-71046544D01*
X122449129Y-71046544D02*
X122496748Y-70951306D01*
X122496748Y-70951306D02*
X122544367Y-70903687D01*
X122544367Y-70903687D02*
X122639605Y-70856068D01*
X122639605Y-70856068D02*
X122830081Y-70856068D01*
X122830081Y-70856068D02*
X122925319Y-70903687D01*
X122925319Y-70903687D02*
X122972938Y-70951306D01*
X122972938Y-70951306D02*
X123020557Y-71046544D01*
X157820651Y-73233427D02*
X157915889Y-73185808D01*
X157915889Y-73185808D02*
X158058746Y-73185808D01*
X158058746Y-73185808D02*
X158201603Y-73233427D01*
X158201603Y-73233427D02*
X158296841Y-73328665D01*
X158296841Y-73328665D02*
X158344460Y-73423903D01*
X158344460Y-73423903D02*
X158392079Y-73614379D01*
X158392079Y-73614379D02*
X158392079Y-73757236D01*
X158392079Y-73757236D02*
X158344460Y-73947712D01*
X158344460Y-73947712D02*
X158296841Y-74042950D01*
X158296841Y-74042950D02*
X158201603Y-74138189D01*
X158201603Y-74138189D02*
X158058746Y-74185808D01*
X158058746Y-74185808D02*
X157963508Y-74185808D01*
X157963508Y-74185808D02*
X157820651Y-74138189D01*
X157820651Y-74138189D02*
X157773032Y-74090569D01*
X157773032Y-74090569D02*
X157773032Y-73757236D01*
X157773032Y-73757236D02*
X157963508Y-73757236D01*
X157344460Y-74185808D02*
X157344460Y-73185808D01*
X157344460Y-73185808D02*
X156963508Y-73185808D01*
X156963508Y-73185808D02*
X156868270Y-73233427D01*
X156868270Y-73233427D02*
X156820651Y-73281046D01*
X156820651Y-73281046D02*
X156773032Y-73376284D01*
X156773032Y-73376284D02*
X156773032Y-73519141D01*
X156773032Y-73519141D02*
X156820651Y-73614379D01*
X156820651Y-73614379D02*
X156868270Y-73661998D01*
X156868270Y-73661998D02*
X156963508Y-73709617D01*
X156963508Y-73709617D02*
X157344460Y-73709617D01*
X156344460Y-74185808D02*
X156344460Y-73185808D01*
X155677794Y-73185808D02*
X155487318Y-73185808D01*
X155487318Y-73185808D02*
X155392080Y-73233427D01*
X155392080Y-73233427D02*
X155296842Y-73328665D01*
X155296842Y-73328665D02*
X155249223Y-73519141D01*
X155249223Y-73519141D02*
X155249223Y-73852474D01*
X155249223Y-73852474D02*
X155296842Y-74042950D01*
X155296842Y-74042950D02*
X155392080Y-74138189D01*
X155392080Y-74138189D02*
X155487318Y-74185808D01*
X155487318Y-74185808D02*
X155677794Y-74185808D01*
X155677794Y-74185808D02*
X155773032Y-74138189D01*
X155773032Y-74138189D02*
X155868270Y-74042950D01*
X155868270Y-74042950D02*
X155915889Y-73852474D01*
X155915889Y-73852474D02*
X155915889Y-73519141D01*
X155915889Y-73519141D02*
X155868270Y-73328665D01*
X155868270Y-73328665D02*
X155773032Y-73233427D01*
X155773032Y-73233427D02*
X155677794Y-73185808D01*
X154392080Y-73519141D02*
X154392080Y-74185808D01*
X154630175Y-73138189D02*
X154868270Y-73852474D01*
X154868270Y-73852474D02*
X154249223Y-73852474D01*
M02*
