%TF.GenerationSoftware,KiCad,Pcbnew,7.0.9*%
%TF.CreationDate,2023-11-08T11:29:51-08:00*%
%TF.ProjectId,RatGDO-OpenSource-D1Mini-ESP8266,52617447-444f-42d4-9f70-656e536f7572,2.5.0*%
%TF.SameCoordinates,Original*%
%TF.FileFunction,Soldermask,Top*%
%TF.FilePolarity,Negative*%
%FSLAX46Y46*%
G04 Gerber Fmt 4.6, Leading zero omitted, Abs format (unit mm)*
G04 Created by KiCad (PCBNEW 7.0.9) date 2023-11-08 11:29:51*
%MOMM*%
%LPD*%
G01*
G04 APERTURE LIST*
G04 Aperture macros list*
%AMRoundRect*
0 Rectangle with rounded corners*
0 $1 Rounding radius*
0 $2 $3 $4 $5 $6 $7 $8 $9 X,Y pos of 4 corners*
0 Add a 4 corners polygon primitive as box body*
4,1,4,$2,$3,$4,$5,$6,$7,$8,$9,$2,$3,0*
0 Add four circle primitives for the rounded corners*
1,1,$1+$1,$2,$3*
1,1,$1+$1,$4,$5*
1,1,$1+$1,$6,$7*
1,1,$1+$1,$8,$9*
0 Add four rect primitives between the rounded corners*
20,1,$1+$1,$2,$3,$4,$5,0*
20,1,$1+$1,$4,$5,$6,$7,0*
20,1,$1+$1,$6,$7,$8,$9,0*
20,1,$1+$1,$8,$9,$2,$3,0*%
G04 Aperture macros list end*
%ADD10R,1.500000X2.000000*%
%ADD11O,1.500000X2.000000*%
%ADD12R,2.300000X1.700000*%
%ADD13O,2.300000X1.700000*%
%ADD14RoundRect,0.225000X0.225000X0.375000X-0.225000X0.375000X-0.225000X-0.375000X0.225000X-0.375000X0*%
%ADD15RoundRect,0.250000X-0.350000X-0.450000X0.350000X-0.450000X0.350000X0.450000X-0.350000X0.450000X0*%
%ADD16R,1.900000X0.800000*%
%ADD17C,5.000000*%
%ADD18RoundRect,0.250000X0.250000X0.250000X-0.250000X0.250000X-0.250000X-0.250000X0.250000X-0.250000X0*%
%ADD19O,2.000000X1.600000*%
%ADD20R,2.000000X2.000000*%
%ADD21RoundRect,0.250000X0.475000X-0.337500X0.475000X0.337500X-0.475000X0.337500X-0.475000X-0.337500X0*%
%ADD22RoundRect,0.250000X0.350000X0.450000X-0.350000X0.450000X-0.350000X-0.450000X0.350000X-0.450000X0*%
%ADD23R,2.600000X2.600000*%
%ADD24C,2.600000*%
%ADD25RoundRect,0.250000X-0.475000X0.337500X-0.475000X-0.337500X0.475000X-0.337500X0.475000X0.337500X0*%
G04 APERTURE END LIST*
D10*
%TO.C,U2*%
X154954700Y-118803700D03*
D11*
X157494700Y-118803700D03*
X160034700Y-118803700D03*
%TD*%
D12*
%TO.C,J2*%
X161798000Y-109220000D03*
D13*
X161798000Y-106680000D03*
X161798000Y-104140000D03*
X161798000Y-101600000D03*
X161798000Y-99060000D03*
X161798000Y-96520000D03*
X161798000Y-93980000D03*
X161798000Y-91440000D03*
X161798000Y-88900000D03*
X161798000Y-86360000D03*
X161798000Y-83820000D03*
%TD*%
D14*
%TO.C,D4*%
X131954000Y-118618000D03*
X135254000Y-118618000D03*
%TD*%
D15*
%TO.C,R3*%
X157496000Y-71215222D03*
X159496000Y-71215222D03*
%TD*%
D16*
%TO.C,Q3*%
X124412000Y-71562000D03*
X124412000Y-69662000D03*
X121412000Y-70612000D03*
%TD*%
D17*
%TO.C,REF\u002A\u002A*%
X161544000Y-62484000D03*
%TD*%
D18*
%TO.C,D1*%
X153416000Y-100584000D03*
X150916000Y-100584000D03*
%TD*%
D17*
%TO.C,REF\u002A\u002A*%
X141478000Y-113792000D03*
%TD*%
D19*
%TO.C,U1*%
X152407500Y-66040000D03*
X152407500Y-68580000D03*
X152407500Y-71120000D03*
X152407500Y-73660000D03*
X152407500Y-76200000D03*
X152407500Y-78740000D03*
X152407500Y-81280000D03*
X152407500Y-83820000D03*
X129547500Y-83820000D03*
X129547500Y-81280000D03*
X129547500Y-78740000D03*
X129547500Y-76200000D03*
X129547500Y-73660000D03*
X129547500Y-71120000D03*
X129547500Y-68580000D03*
D20*
X129547500Y-66040000D03*
%TD*%
D21*
%TO.C,C1*%
X149606000Y-116586000D03*
X149606000Y-118661000D03*
%TD*%
D16*
%TO.C,Q4*%
X124690000Y-87630000D03*
X124690000Y-85730000D03*
X121690000Y-86680000D03*
%TD*%
D17*
%TO.C,REF\u002A\u002A*%
X120396000Y-62484000D03*
%TD*%
D18*
%TO.C,D2*%
X153416000Y-98044000D03*
X150916000Y-98044000D03*
%TD*%
D16*
%TO.C,Q2*%
X157509257Y-73632843D03*
X157509257Y-75532843D03*
X160509257Y-74582843D03*
%TD*%
D18*
%TO.C,D3*%
X153416000Y-95504000D03*
X150916000Y-95504000D03*
%TD*%
D22*
%TO.C,R5*%
X124714000Y-90170000D03*
X122714000Y-90170000D03*
%TD*%
D16*
%TO.C,Q1*%
X160509257Y-80709515D03*
X160509257Y-78809515D03*
X157509257Y-79759515D03*
%TD*%
D23*
%TO.C,J1*%
X124714000Y-97282000D03*
D24*
X124714000Y-102282000D03*
X124714000Y-107282000D03*
%TD*%
D22*
%TO.C,R4*%
X124460000Y-74931000D03*
X122460000Y-74931000D03*
%TD*%
%TO.C,R2*%
X124460000Y-78741000D03*
X122460000Y-78741000D03*
%TD*%
D25*
%TO.C,C2*%
X149606000Y-114343000D03*
X149606000Y-112268000D03*
%TD*%
D15*
%TO.C,R1*%
X122460000Y-82551000D03*
X124460000Y-82551000D03*
%TD*%
D23*
%TO.C,J3*%
X124714000Y-113538000D03*
D24*
X124714000Y-118538000D03*
%TD*%
M02*
