%TF.GenerationSoftware,KiCad,Pcbnew,7.0.8*%
%TF.CreationDate,2023-11-03T12:49:23-07:00*%
%TF.ProjectId,RatGDO-OpenSource-D1Mini-ESP8266,52617447-444f-42d4-9f70-656e536f7572,2.5.0*%
%TF.SameCoordinates,Original*%
%TF.FileFunction,Legend,Bot*%
%TF.FilePolarity,Positive*%
%FSLAX46Y46*%
G04 Gerber Fmt 4.6, Leading zero omitted, Abs format (unit mm)*
G04 Created by KiCad (PCBNEW 7.0.8) date 2023-11-03 12:49:23*
%MOMM*%
%LPD*%
G01*
G04 APERTURE LIST*
%ADD10C,0.150000*%
G04 APERTURE END LIST*
D10*
X147205506Y-118249819D02*
X147205506Y-118964104D01*
X147205506Y-118964104D02*
X147253125Y-119106961D01*
X147253125Y-119106961D02*
X147348363Y-119202200D01*
X147348363Y-119202200D02*
X147491220Y-119249819D01*
X147491220Y-119249819D02*
X147586458Y-119249819D01*
X146253125Y-119249819D02*
X146729315Y-119249819D01*
X146729315Y-119249819D02*
X146729315Y-118249819D01*
X145348363Y-119154580D02*
X145395982Y-119202200D01*
X145395982Y-119202200D02*
X145538839Y-119249819D01*
X145538839Y-119249819D02*
X145634077Y-119249819D01*
X145634077Y-119249819D02*
X145776934Y-119202200D01*
X145776934Y-119202200D02*
X145872172Y-119106961D01*
X145872172Y-119106961D02*
X145919791Y-119011723D01*
X145919791Y-119011723D02*
X145967410Y-118821247D01*
X145967410Y-118821247D02*
X145967410Y-118678390D01*
X145967410Y-118678390D02*
X145919791Y-118487914D01*
X145919791Y-118487914D02*
X145872172Y-118392676D01*
X145872172Y-118392676D02*
X145776934Y-118297438D01*
X145776934Y-118297438D02*
X145634077Y-118249819D01*
X145634077Y-118249819D02*
X145538839Y-118249819D01*
X145538839Y-118249819D02*
X145395982Y-118297438D01*
X145395982Y-118297438D02*
X145348363Y-118345057D01*
X144634077Y-118249819D02*
X144634077Y-118964104D01*
X144634077Y-118964104D02*
X144681696Y-119106961D01*
X144681696Y-119106961D02*
X144776934Y-119202200D01*
X144776934Y-119202200D02*
X144919791Y-119249819D01*
X144919791Y-119249819D02*
X145015029Y-119249819D01*
X143681696Y-119249819D02*
X144157886Y-119249819D01*
X144157886Y-119249819D02*
X144157886Y-118249819D01*
X142776934Y-119154580D02*
X142824553Y-119202200D01*
X142824553Y-119202200D02*
X142967410Y-119249819D01*
X142967410Y-119249819D02*
X143062648Y-119249819D01*
X143062648Y-119249819D02*
X143205505Y-119202200D01*
X143205505Y-119202200D02*
X143300743Y-119106961D01*
X143300743Y-119106961D02*
X143348362Y-119011723D01*
X143348362Y-119011723D02*
X143395981Y-118821247D01*
X143395981Y-118821247D02*
X143395981Y-118678390D01*
X143395981Y-118678390D02*
X143348362Y-118487914D01*
X143348362Y-118487914D02*
X143300743Y-118392676D01*
X143300743Y-118392676D02*
X143205505Y-118297438D01*
X143205505Y-118297438D02*
X143062648Y-118249819D01*
X143062648Y-118249819D02*
X142967410Y-118249819D01*
X142967410Y-118249819D02*
X142824553Y-118297438D01*
X142824553Y-118297438D02*
X142776934Y-118345057D01*
X142062648Y-118249819D02*
X142062648Y-118964104D01*
X142062648Y-118964104D02*
X142110267Y-119106961D01*
X142110267Y-119106961D02*
X142205505Y-119202200D01*
X142205505Y-119202200D02*
X142348362Y-119249819D01*
X142348362Y-119249819D02*
X142443600Y-119249819D01*
X141110267Y-119249819D02*
X141586457Y-119249819D01*
X141586457Y-119249819D02*
X141586457Y-118249819D01*
X140205505Y-119154580D02*
X140253124Y-119202200D01*
X140253124Y-119202200D02*
X140395981Y-119249819D01*
X140395981Y-119249819D02*
X140491219Y-119249819D01*
X140491219Y-119249819D02*
X140634076Y-119202200D01*
X140634076Y-119202200D02*
X140729314Y-119106961D01*
X140729314Y-119106961D02*
X140776933Y-119011723D01*
X140776933Y-119011723D02*
X140824552Y-118821247D01*
X140824552Y-118821247D02*
X140824552Y-118678390D01*
X140824552Y-118678390D02*
X140776933Y-118487914D01*
X140776933Y-118487914D02*
X140729314Y-118392676D01*
X140729314Y-118392676D02*
X140634076Y-118297438D01*
X140634076Y-118297438D02*
X140491219Y-118249819D01*
X140491219Y-118249819D02*
X140395981Y-118249819D01*
X140395981Y-118249819D02*
X140253124Y-118297438D01*
X140253124Y-118297438D02*
X140205505Y-118345057D01*
X139491219Y-118249819D02*
X139491219Y-118964104D01*
X139491219Y-118964104D02*
X139538838Y-119106961D01*
X139538838Y-119106961D02*
X139634076Y-119202200D01*
X139634076Y-119202200D02*
X139776933Y-119249819D01*
X139776933Y-119249819D02*
X139872171Y-119249819D01*
X138538838Y-119249819D02*
X139015028Y-119249819D01*
X139015028Y-119249819D02*
X139015028Y-118249819D01*
X137634076Y-119154580D02*
X137681695Y-119202200D01*
X137681695Y-119202200D02*
X137824552Y-119249819D01*
X137824552Y-119249819D02*
X137919790Y-119249819D01*
X137919790Y-119249819D02*
X138062647Y-119202200D01*
X138062647Y-119202200D02*
X138157885Y-119106961D01*
X138157885Y-119106961D02*
X138205504Y-119011723D01*
X138205504Y-119011723D02*
X138253123Y-118821247D01*
X138253123Y-118821247D02*
X138253123Y-118678390D01*
X138253123Y-118678390D02*
X138205504Y-118487914D01*
X138205504Y-118487914D02*
X138157885Y-118392676D01*
X138157885Y-118392676D02*
X138062647Y-118297438D01*
X138062647Y-118297438D02*
X137919790Y-118249819D01*
X137919790Y-118249819D02*
X137824552Y-118249819D01*
X137824552Y-118249819D02*
X137681695Y-118297438D01*
X137681695Y-118297438D02*
X137634076Y-118345057D01*
X159207030Y-84721819D02*
X159683220Y-84721819D01*
X159683220Y-84721819D02*
X159730839Y-85198009D01*
X159730839Y-85198009D02*
X159683220Y-85150390D01*
X159683220Y-85150390D02*
X159587982Y-85102771D01*
X159587982Y-85102771D02*
X159349887Y-85102771D01*
X159349887Y-85102771D02*
X159254649Y-85150390D01*
X159254649Y-85150390D02*
X159207030Y-85198009D01*
X159207030Y-85198009D02*
X159159411Y-85293247D01*
X159159411Y-85293247D02*
X159159411Y-85531342D01*
X159159411Y-85531342D02*
X159207030Y-85626580D01*
X159207030Y-85626580D02*
X159254649Y-85674200D01*
X159254649Y-85674200D02*
X159349887Y-85721819D01*
X159349887Y-85721819D02*
X159587982Y-85721819D01*
X159587982Y-85721819D02*
X159683220Y-85674200D01*
X159683220Y-85674200D02*
X159730839Y-85626580D01*
X158873696Y-84721819D02*
X158540363Y-85721819D01*
X158540363Y-85721819D02*
X158207030Y-84721819D01*
X159778458Y-107581819D02*
X159540363Y-108581819D01*
X159540363Y-108581819D02*
X159349887Y-107867533D01*
X159349887Y-107867533D02*
X159159411Y-108581819D01*
X159159411Y-108581819D02*
X158921316Y-107581819D01*
X158540363Y-108581819D02*
X158540363Y-107581819D01*
X158540363Y-108058009D02*
X157968935Y-108058009D01*
X157968935Y-108581819D02*
X157968935Y-107581819D01*
X157635601Y-107581819D02*
X157064173Y-107581819D01*
X157349887Y-108581819D02*
X157349887Y-107581819D01*
X156016554Y-107534200D02*
X156873696Y-108819914D01*
X155159411Y-107629438D02*
X155254649Y-107581819D01*
X155254649Y-107581819D02*
X155397506Y-107581819D01*
X155397506Y-107581819D02*
X155540363Y-107629438D01*
X155540363Y-107629438D02*
X155635601Y-107724676D01*
X155635601Y-107724676D02*
X155683220Y-107819914D01*
X155683220Y-107819914D02*
X155730839Y-108010390D01*
X155730839Y-108010390D02*
X155730839Y-108153247D01*
X155730839Y-108153247D02*
X155683220Y-108343723D01*
X155683220Y-108343723D02*
X155635601Y-108438961D01*
X155635601Y-108438961D02*
X155540363Y-108534200D01*
X155540363Y-108534200D02*
X155397506Y-108581819D01*
X155397506Y-108581819D02*
X155302268Y-108581819D01*
X155302268Y-108581819D02*
X155159411Y-108534200D01*
X155159411Y-108534200D02*
X155111792Y-108486580D01*
X155111792Y-108486580D02*
X155111792Y-108153247D01*
X155111792Y-108153247D02*
X155302268Y-108153247D01*
X154683220Y-108581819D02*
X154683220Y-107581819D01*
X154683220Y-107581819D02*
X154111792Y-108581819D01*
X154111792Y-108581819D02*
X154111792Y-107581819D01*
X153635601Y-108581819D02*
X153635601Y-107581819D01*
X153635601Y-107581819D02*
X153397506Y-107581819D01*
X153397506Y-107581819D02*
X153254649Y-107629438D01*
X153254649Y-107629438D02*
X153159411Y-107724676D01*
X153159411Y-107724676D02*
X153111792Y-107819914D01*
X153111792Y-107819914D02*
X153064173Y-108010390D01*
X153064173Y-108010390D02*
X153064173Y-108153247D01*
X153064173Y-108153247D02*
X153111792Y-108343723D01*
X153111792Y-108343723D02*
X153159411Y-108438961D01*
X153159411Y-108438961D02*
X153254649Y-108534200D01*
X153254649Y-108534200D02*
X153397506Y-108581819D01*
X153397506Y-108581819D02*
X153635601Y-108581819D01*
X156111315Y-76831819D02*
X156111315Y-75831819D01*
X156111315Y-75831819D02*
X155873220Y-75831819D01*
X155873220Y-75831819D02*
X155730363Y-75879438D01*
X155730363Y-75879438D02*
X155635125Y-75974676D01*
X155635125Y-75974676D02*
X155587506Y-76069914D01*
X155587506Y-76069914D02*
X155539887Y-76260390D01*
X155539887Y-76260390D02*
X155539887Y-76403247D01*
X155539887Y-76403247D02*
X155587506Y-76593723D01*
X155587506Y-76593723D02*
X155635125Y-76688961D01*
X155635125Y-76688961D02*
X155730363Y-76784200D01*
X155730363Y-76784200D02*
X155873220Y-76831819D01*
X155873220Y-76831819D02*
X156111315Y-76831819D01*
X155206553Y-75831819D02*
X154587506Y-75831819D01*
X154587506Y-75831819D02*
X154920839Y-76212771D01*
X154920839Y-76212771D02*
X154777982Y-76212771D01*
X154777982Y-76212771D02*
X154682744Y-76260390D01*
X154682744Y-76260390D02*
X154635125Y-76308009D01*
X154635125Y-76308009D02*
X154587506Y-76403247D01*
X154587506Y-76403247D02*
X154587506Y-76641342D01*
X154587506Y-76641342D02*
X154635125Y-76736580D01*
X154635125Y-76736580D02*
X154682744Y-76784200D01*
X154682744Y-76784200D02*
X154777982Y-76831819D01*
X154777982Y-76831819D02*
X155063696Y-76831819D01*
X155063696Y-76831819D02*
X155158934Y-76784200D01*
X155158934Y-76784200D02*
X155206553Y-76736580D01*
X159492744Y-94881819D02*
X159302268Y-94881819D01*
X159302268Y-94881819D02*
X159207030Y-94929438D01*
X159207030Y-94929438D02*
X159111792Y-95024676D01*
X159111792Y-95024676D02*
X159064173Y-95215152D01*
X159064173Y-95215152D02*
X159064173Y-95548485D01*
X159064173Y-95548485D02*
X159111792Y-95738961D01*
X159111792Y-95738961D02*
X159207030Y-95834200D01*
X159207030Y-95834200D02*
X159302268Y-95881819D01*
X159302268Y-95881819D02*
X159492744Y-95881819D01*
X159492744Y-95881819D02*
X159587982Y-95834200D01*
X159587982Y-95834200D02*
X159683220Y-95738961D01*
X159683220Y-95738961D02*
X159730839Y-95548485D01*
X159730839Y-95548485D02*
X159730839Y-95215152D01*
X159730839Y-95215152D02*
X159683220Y-95024676D01*
X159683220Y-95024676D02*
X159587982Y-94929438D01*
X159587982Y-94929438D02*
X159492744Y-94881819D01*
X158635601Y-95881819D02*
X158635601Y-94881819D01*
X158635601Y-94881819D02*
X158254649Y-94881819D01*
X158254649Y-94881819D02*
X158159411Y-94929438D01*
X158159411Y-94929438D02*
X158111792Y-94977057D01*
X158111792Y-94977057D02*
X158064173Y-95072295D01*
X158064173Y-95072295D02*
X158064173Y-95215152D01*
X158064173Y-95215152D02*
X158111792Y-95310390D01*
X158111792Y-95310390D02*
X158159411Y-95358009D01*
X158159411Y-95358009D02*
X158254649Y-95405628D01*
X158254649Y-95405628D02*
X158635601Y-95405628D01*
X157635601Y-95358009D02*
X157302268Y-95358009D01*
X157159411Y-95881819D02*
X157635601Y-95881819D01*
X157635601Y-95881819D02*
X157635601Y-94881819D01*
X157635601Y-94881819D02*
X157159411Y-94881819D01*
X156730839Y-95881819D02*
X156730839Y-94881819D01*
X156730839Y-94881819D02*
X156159411Y-95881819D01*
X156159411Y-95881819D02*
X156159411Y-94881819D01*
X126877700Y-66395116D02*
X127211033Y-65918925D01*
X127449128Y-66395116D02*
X127449128Y-65395116D01*
X127449128Y-65395116D02*
X127068176Y-65395116D01*
X127068176Y-65395116D02*
X126972938Y-65442735D01*
X126972938Y-65442735D02*
X126925319Y-65490354D01*
X126925319Y-65490354D02*
X126877700Y-65585592D01*
X126877700Y-65585592D02*
X126877700Y-65728449D01*
X126877700Y-65728449D02*
X126925319Y-65823687D01*
X126925319Y-65823687D02*
X126972938Y-65871306D01*
X126972938Y-65871306D02*
X127068176Y-65918925D01*
X127068176Y-65918925D02*
X127449128Y-65918925D01*
X126496747Y-66347497D02*
X126353890Y-66395116D01*
X126353890Y-66395116D02*
X126115795Y-66395116D01*
X126115795Y-66395116D02*
X126020557Y-66347497D01*
X126020557Y-66347497D02*
X125972938Y-66299877D01*
X125972938Y-66299877D02*
X125925319Y-66204639D01*
X125925319Y-66204639D02*
X125925319Y-66109401D01*
X125925319Y-66109401D02*
X125972938Y-66014163D01*
X125972938Y-66014163D02*
X126020557Y-65966544D01*
X126020557Y-65966544D02*
X126115795Y-65918925D01*
X126115795Y-65918925D02*
X126306271Y-65871306D01*
X126306271Y-65871306D02*
X126401509Y-65823687D01*
X126401509Y-65823687D02*
X126449128Y-65776068D01*
X126449128Y-65776068D02*
X126496747Y-65680830D01*
X126496747Y-65680830D02*
X126496747Y-65585592D01*
X126496747Y-65585592D02*
X126449128Y-65490354D01*
X126449128Y-65490354D02*
X126401509Y-65442735D01*
X126401509Y-65442735D02*
X126306271Y-65395116D01*
X126306271Y-65395116D02*
X126068176Y-65395116D01*
X126068176Y-65395116D02*
X125925319Y-65442735D01*
X125639604Y-65395116D02*
X125068176Y-65395116D01*
X125353890Y-66395116D02*
X125353890Y-65395116D01*
X159920839Y-71751819D02*
X159920839Y-70751819D01*
X159920839Y-70751819D02*
X159682744Y-70751819D01*
X159682744Y-70751819D02*
X159539887Y-70799438D01*
X159539887Y-70799438D02*
X159444649Y-70894676D01*
X159444649Y-70894676D02*
X159397030Y-70989914D01*
X159397030Y-70989914D02*
X159349411Y-71180390D01*
X159349411Y-71180390D02*
X159349411Y-71323247D01*
X159349411Y-71323247D02*
X159397030Y-71513723D01*
X159397030Y-71513723D02*
X159444649Y-71608961D01*
X159444649Y-71608961D02*
X159539887Y-71704200D01*
X159539887Y-71704200D02*
X159682744Y-71751819D01*
X159682744Y-71751819D02*
X159920839Y-71751819D01*
X158397030Y-71751819D02*
X158968458Y-71751819D01*
X158682744Y-71751819D02*
X158682744Y-70751819D01*
X158682744Y-70751819D02*
X158777982Y-70894676D01*
X158777982Y-70894676D02*
X158873220Y-70989914D01*
X158873220Y-70989914D02*
X158968458Y-71037533D01*
X157254173Y-70704200D02*
X158111315Y-71989914D01*
X156968458Y-71704200D02*
X156825601Y-71751819D01*
X156825601Y-71751819D02*
X156587506Y-71751819D01*
X156587506Y-71751819D02*
X156492268Y-71704200D01*
X156492268Y-71704200D02*
X156444649Y-71656580D01*
X156444649Y-71656580D02*
X156397030Y-71561342D01*
X156397030Y-71561342D02*
X156397030Y-71466104D01*
X156397030Y-71466104D02*
X156444649Y-71370866D01*
X156444649Y-71370866D02*
X156492268Y-71323247D01*
X156492268Y-71323247D02*
X156587506Y-71275628D01*
X156587506Y-71275628D02*
X156777982Y-71228009D01*
X156777982Y-71228009D02*
X156873220Y-71180390D01*
X156873220Y-71180390D02*
X156920839Y-71132771D01*
X156920839Y-71132771D02*
X156968458Y-71037533D01*
X156968458Y-71037533D02*
X156968458Y-70942295D01*
X156968458Y-70942295D02*
X156920839Y-70847057D01*
X156920839Y-70847057D02*
X156873220Y-70799438D01*
X156873220Y-70799438D02*
X156777982Y-70751819D01*
X156777982Y-70751819D02*
X156539887Y-70751819D01*
X156539887Y-70751819D02*
X156397030Y-70799438D01*
X155397030Y-71656580D02*
X155444649Y-71704200D01*
X155444649Y-71704200D02*
X155587506Y-71751819D01*
X155587506Y-71751819D02*
X155682744Y-71751819D01*
X155682744Y-71751819D02*
X155825601Y-71704200D01*
X155825601Y-71704200D02*
X155920839Y-71608961D01*
X155920839Y-71608961D02*
X155968458Y-71513723D01*
X155968458Y-71513723D02*
X156016077Y-71323247D01*
X156016077Y-71323247D02*
X156016077Y-71180390D01*
X156016077Y-71180390D02*
X155968458Y-70989914D01*
X155968458Y-70989914D02*
X155920839Y-70894676D01*
X155920839Y-70894676D02*
X155825601Y-70799438D01*
X155825601Y-70799438D02*
X155682744Y-70751819D01*
X155682744Y-70751819D02*
X155587506Y-70751819D01*
X155587506Y-70751819D02*
X155444649Y-70799438D01*
X155444649Y-70799438D02*
X155397030Y-70847057D01*
X154492268Y-71751819D02*
X154968458Y-71751819D01*
X154968458Y-71751819D02*
X154968458Y-70751819D01*
X155539887Y-69211819D02*
X155873220Y-68735628D01*
X156111315Y-69211819D02*
X156111315Y-68211819D01*
X156111315Y-68211819D02*
X155730363Y-68211819D01*
X155730363Y-68211819D02*
X155635125Y-68259438D01*
X155635125Y-68259438D02*
X155587506Y-68307057D01*
X155587506Y-68307057D02*
X155539887Y-68402295D01*
X155539887Y-68402295D02*
X155539887Y-68545152D01*
X155539887Y-68545152D02*
X155587506Y-68640390D01*
X155587506Y-68640390D02*
X155635125Y-68688009D01*
X155635125Y-68688009D02*
X155730363Y-68735628D01*
X155730363Y-68735628D02*
X156111315Y-68735628D01*
X155206553Y-68211819D02*
X154539887Y-69211819D01*
X154539887Y-68211819D02*
X155206553Y-69211819D01*
X159207030Y-90547819D02*
X159683220Y-90547819D01*
X159683220Y-90547819D02*
X159683220Y-89547819D01*
X158873696Y-90547819D02*
X158873696Y-89547819D01*
X157873697Y-89595438D02*
X157968935Y-89547819D01*
X157968935Y-89547819D02*
X158111792Y-89547819D01*
X158111792Y-89547819D02*
X158254649Y-89595438D01*
X158254649Y-89595438D02*
X158349887Y-89690676D01*
X158349887Y-89690676D02*
X158397506Y-89785914D01*
X158397506Y-89785914D02*
X158445125Y-89976390D01*
X158445125Y-89976390D02*
X158445125Y-90119247D01*
X158445125Y-90119247D02*
X158397506Y-90309723D01*
X158397506Y-90309723D02*
X158349887Y-90404961D01*
X158349887Y-90404961D02*
X158254649Y-90500200D01*
X158254649Y-90500200D02*
X158111792Y-90547819D01*
X158111792Y-90547819D02*
X158016554Y-90547819D01*
X158016554Y-90547819D02*
X157873697Y-90500200D01*
X157873697Y-90500200D02*
X157826078Y-90452580D01*
X157826078Y-90452580D02*
X157826078Y-90119247D01*
X157826078Y-90119247D02*
X158016554Y-90119247D01*
X157397506Y-90547819D02*
X157397506Y-89547819D01*
X157397506Y-90024009D02*
X156826078Y-90024009D01*
X156826078Y-90547819D02*
X156826078Y-89547819D01*
X156492744Y-89547819D02*
X155921316Y-89547819D01*
X156207030Y-90547819D02*
X156207030Y-89547819D01*
X156111315Y-79371819D02*
X156111315Y-78371819D01*
X156111315Y-78371819D02*
X155873220Y-78371819D01*
X155873220Y-78371819D02*
X155730363Y-78419438D01*
X155730363Y-78419438D02*
X155635125Y-78514676D01*
X155635125Y-78514676D02*
X155587506Y-78609914D01*
X155587506Y-78609914D02*
X155539887Y-78800390D01*
X155539887Y-78800390D02*
X155539887Y-78943247D01*
X155539887Y-78943247D02*
X155587506Y-79133723D01*
X155587506Y-79133723D02*
X155635125Y-79228961D01*
X155635125Y-79228961D02*
X155730363Y-79324200D01*
X155730363Y-79324200D02*
X155873220Y-79371819D01*
X155873220Y-79371819D02*
X156111315Y-79371819D01*
X154682744Y-78705152D02*
X154682744Y-79371819D01*
X154920839Y-78324200D02*
X155158934Y-79038485D01*
X155158934Y-79038485D02*
X154539887Y-79038485D01*
X127449128Y-79095116D02*
X127449128Y-78095116D01*
X127449128Y-78095116D02*
X127211033Y-78095116D01*
X127211033Y-78095116D02*
X127068176Y-78142735D01*
X127068176Y-78142735D02*
X126972938Y-78237973D01*
X126972938Y-78237973D02*
X126925319Y-78333211D01*
X126925319Y-78333211D02*
X126877700Y-78523687D01*
X126877700Y-78523687D02*
X126877700Y-78666544D01*
X126877700Y-78666544D02*
X126925319Y-78857020D01*
X126925319Y-78857020D02*
X126972938Y-78952258D01*
X126972938Y-78952258D02*
X127068176Y-79047497D01*
X127068176Y-79047497D02*
X127211033Y-79095116D01*
X127211033Y-79095116D02*
X127449128Y-79095116D01*
X126544366Y-78095116D02*
X125877700Y-78095116D01*
X125877700Y-78095116D02*
X126306271Y-79095116D01*
X124782462Y-78047497D02*
X125639604Y-79333211D01*
X124449128Y-79095116D02*
X124449128Y-78095116D01*
X124449128Y-78095116D02*
X124115795Y-78809401D01*
X124115795Y-78809401D02*
X123782462Y-78095116D01*
X123782462Y-78095116D02*
X123782462Y-79095116D01*
X123115795Y-78095116D02*
X122925319Y-78095116D01*
X122925319Y-78095116D02*
X122830081Y-78142735D01*
X122830081Y-78142735D02*
X122734843Y-78237973D01*
X122734843Y-78237973D02*
X122687224Y-78428449D01*
X122687224Y-78428449D02*
X122687224Y-78761782D01*
X122687224Y-78761782D02*
X122734843Y-78952258D01*
X122734843Y-78952258D02*
X122830081Y-79047497D01*
X122830081Y-79047497D02*
X122925319Y-79095116D01*
X122925319Y-79095116D02*
X123115795Y-79095116D01*
X123115795Y-79095116D02*
X123211033Y-79047497D01*
X123211033Y-79047497D02*
X123306271Y-78952258D01*
X123306271Y-78952258D02*
X123353890Y-78761782D01*
X123353890Y-78761782D02*
X123353890Y-78428449D01*
X123353890Y-78428449D02*
X123306271Y-78237973D01*
X123306271Y-78237973D02*
X123211033Y-78142735D01*
X123211033Y-78142735D02*
X123115795Y-78095116D01*
X122306271Y-79047497D02*
X122163414Y-79095116D01*
X122163414Y-79095116D02*
X121925319Y-79095116D01*
X121925319Y-79095116D02*
X121830081Y-79047497D01*
X121830081Y-79047497D02*
X121782462Y-78999877D01*
X121782462Y-78999877D02*
X121734843Y-78904639D01*
X121734843Y-78904639D02*
X121734843Y-78809401D01*
X121734843Y-78809401D02*
X121782462Y-78714163D01*
X121782462Y-78714163D02*
X121830081Y-78666544D01*
X121830081Y-78666544D02*
X121925319Y-78618925D01*
X121925319Y-78618925D02*
X122115795Y-78571306D01*
X122115795Y-78571306D02*
X122211033Y-78523687D01*
X122211033Y-78523687D02*
X122258652Y-78476068D01*
X122258652Y-78476068D02*
X122306271Y-78380830D01*
X122306271Y-78380830D02*
X122306271Y-78285592D01*
X122306271Y-78285592D02*
X122258652Y-78190354D01*
X122258652Y-78190354D02*
X122211033Y-78142735D01*
X122211033Y-78142735D02*
X122115795Y-78095116D01*
X122115795Y-78095116D02*
X121877700Y-78095116D01*
X121877700Y-78095116D02*
X121734843Y-78142735D01*
X121306271Y-79095116D02*
X121306271Y-78095116D01*
X155492268Y-83451819D02*
X155968458Y-83451819D01*
X155968458Y-83451819D02*
X156016077Y-83928009D01*
X156016077Y-83928009D02*
X155968458Y-83880390D01*
X155968458Y-83880390D02*
X155873220Y-83832771D01*
X155873220Y-83832771D02*
X155635125Y-83832771D01*
X155635125Y-83832771D02*
X155539887Y-83880390D01*
X155539887Y-83880390D02*
X155492268Y-83928009D01*
X155492268Y-83928009D02*
X155444649Y-84023247D01*
X155444649Y-84023247D02*
X155444649Y-84261342D01*
X155444649Y-84261342D02*
X155492268Y-84356580D01*
X155492268Y-84356580D02*
X155539887Y-84404200D01*
X155539887Y-84404200D02*
X155635125Y-84451819D01*
X155635125Y-84451819D02*
X155873220Y-84451819D01*
X155873220Y-84451819D02*
X155968458Y-84404200D01*
X155968458Y-84404200D02*
X156016077Y-84356580D01*
X155158934Y-83451819D02*
X154825601Y-84451819D01*
X154825601Y-84451819D02*
X154492268Y-83451819D01*
X159683220Y-100707819D02*
X159683220Y-99707819D01*
X159683220Y-99707819D02*
X159445125Y-99707819D01*
X159445125Y-99707819D02*
X159302268Y-99755438D01*
X159302268Y-99755438D02*
X159207030Y-99850676D01*
X159207030Y-99850676D02*
X159159411Y-99945914D01*
X159159411Y-99945914D02*
X159111792Y-100136390D01*
X159111792Y-100136390D02*
X159111792Y-100279247D01*
X159111792Y-100279247D02*
X159159411Y-100469723D01*
X159159411Y-100469723D02*
X159207030Y-100564961D01*
X159207030Y-100564961D02*
X159302268Y-100660200D01*
X159302268Y-100660200D02*
X159445125Y-100707819D01*
X159445125Y-100707819D02*
X159683220Y-100707819D01*
X158492744Y-99707819D02*
X158302268Y-99707819D01*
X158302268Y-99707819D02*
X158207030Y-99755438D01*
X158207030Y-99755438D02*
X158111792Y-99850676D01*
X158111792Y-99850676D02*
X158064173Y-100041152D01*
X158064173Y-100041152D02*
X158064173Y-100374485D01*
X158064173Y-100374485D02*
X158111792Y-100564961D01*
X158111792Y-100564961D02*
X158207030Y-100660200D01*
X158207030Y-100660200D02*
X158302268Y-100707819D01*
X158302268Y-100707819D02*
X158492744Y-100707819D01*
X158492744Y-100707819D02*
X158587982Y-100660200D01*
X158587982Y-100660200D02*
X158683220Y-100564961D01*
X158683220Y-100564961D02*
X158730839Y-100374485D01*
X158730839Y-100374485D02*
X158730839Y-100041152D01*
X158730839Y-100041152D02*
X158683220Y-99850676D01*
X158683220Y-99850676D02*
X158587982Y-99755438D01*
X158587982Y-99755438D02*
X158492744Y-99707819D01*
X157445125Y-99707819D02*
X157254649Y-99707819D01*
X157254649Y-99707819D02*
X157159411Y-99755438D01*
X157159411Y-99755438D02*
X157064173Y-99850676D01*
X157064173Y-99850676D02*
X157016554Y-100041152D01*
X157016554Y-100041152D02*
X157016554Y-100374485D01*
X157016554Y-100374485D02*
X157064173Y-100564961D01*
X157064173Y-100564961D02*
X157159411Y-100660200D01*
X157159411Y-100660200D02*
X157254649Y-100707819D01*
X157254649Y-100707819D02*
X157445125Y-100707819D01*
X157445125Y-100707819D02*
X157540363Y-100660200D01*
X157540363Y-100660200D02*
X157635601Y-100564961D01*
X157635601Y-100564961D02*
X157683220Y-100374485D01*
X157683220Y-100374485D02*
X157683220Y-100041152D01*
X157683220Y-100041152D02*
X157635601Y-99850676D01*
X157635601Y-99850676D02*
X157540363Y-99755438D01*
X157540363Y-99755438D02*
X157445125Y-99707819D01*
X156016554Y-100707819D02*
X156349887Y-100231628D01*
X156587982Y-100707819D02*
X156587982Y-99707819D01*
X156587982Y-99707819D02*
X156207030Y-99707819D01*
X156207030Y-99707819D02*
X156111792Y-99755438D01*
X156111792Y-99755438D02*
X156064173Y-99803057D01*
X156064173Y-99803057D02*
X156016554Y-99898295D01*
X156016554Y-99898295D02*
X156016554Y-100041152D01*
X156016554Y-100041152D02*
X156064173Y-100136390D01*
X156064173Y-100136390D02*
X156111792Y-100184009D01*
X156111792Y-100184009D02*
X156207030Y-100231628D01*
X156207030Y-100231628D02*
X156587982Y-100231628D01*
X127449128Y-81635116D02*
X127449128Y-80635116D01*
X127449128Y-80635116D02*
X127211033Y-80635116D01*
X127211033Y-80635116D02*
X127068176Y-80682735D01*
X127068176Y-80682735D02*
X126972938Y-80777973D01*
X126972938Y-80777973D02*
X126925319Y-80873211D01*
X126925319Y-80873211D02*
X126877700Y-81063687D01*
X126877700Y-81063687D02*
X126877700Y-81206544D01*
X126877700Y-81206544D02*
X126925319Y-81397020D01*
X126925319Y-81397020D02*
X126972938Y-81492258D01*
X126972938Y-81492258D02*
X127068176Y-81587497D01*
X127068176Y-81587497D02*
X127211033Y-81635116D01*
X127211033Y-81635116D02*
X127449128Y-81635116D01*
X126306271Y-81063687D02*
X126401509Y-81016068D01*
X126401509Y-81016068D02*
X126449128Y-80968449D01*
X126449128Y-80968449D02*
X126496747Y-80873211D01*
X126496747Y-80873211D02*
X126496747Y-80825592D01*
X126496747Y-80825592D02*
X126449128Y-80730354D01*
X126449128Y-80730354D02*
X126401509Y-80682735D01*
X126401509Y-80682735D02*
X126306271Y-80635116D01*
X126306271Y-80635116D02*
X126115795Y-80635116D01*
X126115795Y-80635116D02*
X126020557Y-80682735D01*
X126020557Y-80682735D02*
X125972938Y-80730354D01*
X125972938Y-80730354D02*
X125925319Y-80825592D01*
X125925319Y-80825592D02*
X125925319Y-80873211D01*
X125925319Y-80873211D02*
X125972938Y-80968449D01*
X125972938Y-80968449D02*
X126020557Y-81016068D01*
X126020557Y-81016068D02*
X126115795Y-81063687D01*
X126115795Y-81063687D02*
X126306271Y-81063687D01*
X126306271Y-81063687D02*
X126401509Y-81111306D01*
X126401509Y-81111306D02*
X126449128Y-81158925D01*
X126449128Y-81158925D02*
X126496747Y-81254163D01*
X126496747Y-81254163D02*
X126496747Y-81444639D01*
X126496747Y-81444639D02*
X126449128Y-81539877D01*
X126449128Y-81539877D02*
X126401509Y-81587497D01*
X126401509Y-81587497D02*
X126306271Y-81635116D01*
X126306271Y-81635116D02*
X126115795Y-81635116D01*
X126115795Y-81635116D02*
X126020557Y-81587497D01*
X126020557Y-81587497D02*
X125972938Y-81539877D01*
X125972938Y-81539877D02*
X125925319Y-81444639D01*
X125925319Y-81444639D02*
X125925319Y-81254163D01*
X125925319Y-81254163D02*
X125972938Y-81158925D01*
X125972938Y-81158925D02*
X126020557Y-81111306D01*
X126020557Y-81111306D02*
X126115795Y-81063687D01*
X127496747Y-68649401D02*
X127020557Y-68649401D01*
X127591985Y-68935116D02*
X127258652Y-67935116D01*
X127258652Y-67935116D02*
X126925319Y-68935116D01*
X126401509Y-67935116D02*
X126306271Y-67935116D01*
X126306271Y-67935116D02*
X126211033Y-67982735D01*
X126211033Y-67982735D02*
X126163414Y-68030354D01*
X126163414Y-68030354D02*
X126115795Y-68125592D01*
X126115795Y-68125592D02*
X126068176Y-68316068D01*
X126068176Y-68316068D02*
X126068176Y-68554163D01*
X126068176Y-68554163D02*
X126115795Y-68744639D01*
X126115795Y-68744639D02*
X126163414Y-68839877D01*
X126163414Y-68839877D02*
X126211033Y-68887497D01*
X126211033Y-68887497D02*
X126306271Y-68935116D01*
X126306271Y-68935116D02*
X126401509Y-68935116D01*
X126401509Y-68935116D02*
X126496747Y-68887497D01*
X126496747Y-68887497D02*
X126544366Y-68839877D01*
X126544366Y-68839877D02*
X126591985Y-68744639D01*
X126591985Y-68744639D02*
X126639604Y-68554163D01*
X126639604Y-68554163D02*
X126639604Y-68316068D01*
X126639604Y-68316068D02*
X126591985Y-68125592D01*
X126591985Y-68125592D02*
X126544366Y-68030354D01*
X126544366Y-68030354D02*
X126496747Y-67982735D01*
X126496747Y-67982735D02*
X126401509Y-67935116D01*
X127449128Y-76555116D02*
X127449128Y-75555116D01*
X127449128Y-75555116D02*
X127211033Y-75555116D01*
X127211033Y-75555116D02*
X127068176Y-75602735D01*
X127068176Y-75602735D02*
X126972938Y-75697973D01*
X126972938Y-75697973D02*
X126925319Y-75793211D01*
X126925319Y-75793211D02*
X126877700Y-75983687D01*
X126877700Y-75983687D02*
X126877700Y-76126544D01*
X126877700Y-76126544D02*
X126925319Y-76317020D01*
X126925319Y-76317020D02*
X126972938Y-76412258D01*
X126972938Y-76412258D02*
X127068176Y-76507497D01*
X127068176Y-76507497D02*
X127211033Y-76555116D01*
X127211033Y-76555116D02*
X127449128Y-76555116D01*
X126020557Y-75555116D02*
X126211033Y-75555116D01*
X126211033Y-75555116D02*
X126306271Y-75602735D01*
X126306271Y-75602735D02*
X126353890Y-75650354D01*
X126353890Y-75650354D02*
X126449128Y-75793211D01*
X126449128Y-75793211D02*
X126496747Y-75983687D01*
X126496747Y-75983687D02*
X126496747Y-76364639D01*
X126496747Y-76364639D02*
X126449128Y-76459877D01*
X126449128Y-76459877D02*
X126401509Y-76507497D01*
X126401509Y-76507497D02*
X126306271Y-76555116D01*
X126306271Y-76555116D02*
X126115795Y-76555116D01*
X126115795Y-76555116D02*
X126020557Y-76507497D01*
X126020557Y-76507497D02*
X125972938Y-76459877D01*
X125972938Y-76459877D02*
X125925319Y-76364639D01*
X125925319Y-76364639D02*
X125925319Y-76126544D01*
X125925319Y-76126544D02*
X125972938Y-76031306D01*
X125972938Y-76031306D02*
X126020557Y-75983687D01*
X126020557Y-75983687D02*
X126115795Y-75936068D01*
X126115795Y-75936068D02*
X126306271Y-75936068D01*
X126306271Y-75936068D02*
X126401509Y-75983687D01*
X126401509Y-75983687D02*
X126449128Y-76031306D01*
X126449128Y-76031306D02*
X126496747Y-76126544D01*
X124782462Y-75507497D02*
X125639604Y-76793211D01*
X124449128Y-76555116D02*
X124449128Y-75555116D01*
X124449128Y-75555116D02*
X124115795Y-76269401D01*
X124115795Y-76269401D02*
X123782462Y-75555116D01*
X123782462Y-75555116D02*
X123782462Y-76555116D01*
X123306271Y-76555116D02*
X123306271Y-75555116D01*
X122877700Y-76507497D02*
X122734843Y-76555116D01*
X122734843Y-76555116D02*
X122496748Y-76555116D01*
X122496748Y-76555116D02*
X122401510Y-76507497D01*
X122401510Y-76507497D02*
X122353891Y-76459877D01*
X122353891Y-76459877D02*
X122306272Y-76364639D01*
X122306272Y-76364639D02*
X122306272Y-76269401D01*
X122306272Y-76269401D02*
X122353891Y-76174163D01*
X122353891Y-76174163D02*
X122401510Y-76126544D01*
X122401510Y-76126544D02*
X122496748Y-76078925D01*
X122496748Y-76078925D02*
X122687224Y-76031306D01*
X122687224Y-76031306D02*
X122782462Y-75983687D01*
X122782462Y-75983687D02*
X122830081Y-75936068D01*
X122830081Y-75936068D02*
X122877700Y-75840830D01*
X122877700Y-75840830D02*
X122877700Y-75745592D01*
X122877700Y-75745592D02*
X122830081Y-75650354D01*
X122830081Y-75650354D02*
X122782462Y-75602735D01*
X122782462Y-75602735D02*
X122687224Y-75555116D01*
X122687224Y-75555116D02*
X122449129Y-75555116D01*
X122449129Y-75555116D02*
X122306272Y-75602735D01*
X121687224Y-75555116D02*
X121496748Y-75555116D01*
X121496748Y-75555116D02*
X121401510Y-75602735D01*
X121401510Y-75602735D02*
X121306272Y-75697973D01*
X121306272Y-75697973D02*
X121258653Y-75888449D01*
X121258653Y-75888449D02*
X121258653Y-76221782D01*
X121258653Y-76221782D02*
X121306272Y-76412258D01*
X121306272Y-76412258D02*
X121401510Y-76507497D01*
X121401510Y-76507497D02*
X121496748Y-76555116D01*
X121496748Y-76555116D02*
X121687224Y-76555116D01*
X121687224Y-76555116D02*
X121782462Y-76507497D01*
X121782462Y-76507497D02*
X121877700Y-76412258D01*
X121877700Y-76412258D02*
X121925319Y-76221782D01*
X121925319Y-76221782D02*
X121925319Y-75888449D01*
X121925319Y-75888449D02*
X121877700Y-75697973D01*
X121877700Y-75697973D02*
X121782462Y-75602735D01*
X121782462Y-75602735D02*
X121687224Y-75555116D01*
X156016077Y-65671819D02*
X155444649Y-65671819D01*
X155730363Y-66671819D02*
X155730363Y-65671819D01*
X155206553Y-65671819D02*
X154539887Y-66671819D01*
X154539887Y-65671819D02*
X155206553Y-66671819D01*
X159492744Y-97167819D02*
X159302268Y-97167819D01*
X159302268Y-97167819D02*
X159207030Y-97215438D01*
X159207030Y-97215438D02*
X159111792Y-97310676D01*
X159111792Y-97310676D02*
X159064173Y-97501152D01*
X159064173Y-97501152D02*
X159064173Y-97834485D01*
X159064173Y-97834485D02*
X159111792Y-98024961D01*
X159111792Y-98024961D02*
X159207030Y-98120200D01*
X159207030Y-98120200D02*
X159302268Y-98167819D01*
X159302268Y-98167819D02*
X159492744Y-98167819D01*
X159492744Y-98167819D02*
X159587982Y-98120200D01*
X159587982Y-98120200D02*
X159683220Y-98024961D01*
X159683220Y-98024961D02*
X159730839Y-97834485D01*
X159730839Y-97834485D02*
X159730839Y-97501152D01*
X159730839Y-97501152D02*
X159683220Y-97310676D01*
X159683220Y-97310676D02*
X159587982Y-97215438D01*
X159587982Y-97215438D02*
X159492744Y-97167819D01*
X158302268Y-97644009D02*
X158159411Y-97691628D01*
X158159411Y-97691628D02*
X158111792Y-97739247D01*
X158111792Y-97739247D02*
X158064173Y-97834485D01*
X158064173Y-97834485D02*
X158064173Y-97977342D01*
X158064173Y-97977342D02*
X158111792Y-98072580D01*
X158111792Y-98072580D02*
X158159411Y-98120200D01*
X158159411Y-98120200D02*
X158254649Y-98167819D01*
X158254649Y-98167819D02*
X158635601Y-98167819D01*
X158635601Y-98167819D02*
X158635601Y-97167819D01*
X158635601Y-97167819D02*
X158302268Y-97167819D01*
X158302268Y-97167819D02*
X158207030Y-97215438D01*
X158207030Y-97215438D02*
X158159411Y-97263057D01*
X158159411Y-97263057D02*
X158111792Y-97358295D01*
X158111792Y-97358295D02*
X158111792Y-97453533D01*
X158111792Y-97453533D02*
X158159411Y-97548771D01*
X158159411Y-97548771D02*
X158207030Y-97596390D01*
X158207030Y-97596390D02*
X158302268Y-97644009D01*
X158302268Y-97644009D02*
X158635601Y-97644009D01*
X157683220Y-98120200D02*
X157540363Y-98167819D01*
X157540363Y-98167819D02*
X157302268Y-98167819D01*
X157302268Y-98167819D02*
X157207030Y-98120200D01*
X157207030Y-98120200D02*
X157159411Y-98072580D01*
X157159411Y-98072580D02*
X157111792Y-97977342D01*
X157111792Y-97977342D02*
X157111792Y-97882104D01*
X157111792Y-97882104D02*
X157159411Y-97786866D01*
X157159411Y-97786866D02*
X157207030Y-97739247D01*
X157207030Y-97739247D02*
X157302268Y-97691628D01*
X157302268Y-97691628D02*
X157492744Y-97644009D01*
X157492744Y-97644009D02*
X157587982Y-97596390D01*
X157587982Y-97596390D02*
X157635601Y-97548771D01*
X157635601Y-97548771D02*
X157683220Y-97453533D01*
X157683220Y-97453533D02*
X157683220Y-97358295D01*
X157683220Y-97358295D02*
X157635601Y-97263057D01*
X157635601Y-97263057D02*
X157587982Y-97215438D01*
X157587982Y-97215438D02*
X157492744Y-97167819D01*
X157492744Y-97167819D02*
X157254649Y-97167819D01*
X157254649Y-97167819D02*
X157111792Y-97215438D01*
X156826077Y-97167819D02*
X156254649Y-97167819D01*
X156540363Y-98167819D02*
X156540363Y-97167819D01*
X127544366Y-83175116D02*
X126925319Y-83175116D01*
X126925319Y-83175116D02*
X127258652Y-83556068D01*
X127258652Y-83556068D02*
X127115795Y-83556068D01*
X127115795Y-83556068D02*
X127020557Y-83603687D01*
X127020557Y-83603687D02*
X126972938Y-83651306D01*
X126972938Y-83651306D02*
X126925319Y-83746544D01*
X126925319Y-83746544D02*
X126925319Y-83984639D01*
X126925319Y-83984639D02*
X126972938Y-84079877D01*
X126972938Y-84079877D02*
X127020557Y-84127497D01*
X127020557Y-84127497D02*
X127115795Y-84175116D01*
X127115795Y-84175116D02*
X127401509Y-84175116D01*
X127401509Y-84175116D02*
X127496747Y-84127497D01*
X127496747Y-84127497D02*
X127544366Y-84079877D01*
X126639604Y-83175116D02*
X126306271Y-84175116D01*
X126306271Y-84175116D02*
X125972938Y-83175116D01*
X125734842Y-83175116D02*
X125115795Y-83175116D01*
X125115795Y-83175116D02*
X125449128Y-83556068D01*
X125449128Y-83556068D02*
X125306271Y-83556068D01*
X125306271Y-83556068D02*
X125211033Y-83603687D01*
X125211033Y-83603687D02*
X125163414Y-83651306D01*
X125163414Y-83651306D02*
X125115795Y-83746544D01*
X125115795Y-83746544D02*
X125115795Y-83984639D01*
X125115795Y-83984639D02*
X125163414Y-84079877D01*
X125163414Y-84079877D02*
X125211033Y-84127497D01*
X125211033Y-84127497D02*
X125306271Y-84175116D01*
X125306271Y-84175116D02*
X125591985Y-84175116D01*
X125591985Y-84175116D02*
X125687223Y-84127497D01*
X125687223Y-84127497D02*
X125734842Y-84079877D01*
X159349887Y-102724009D02*
X159207030Y-102771628D01*
X159207030Y-102771628D02*
X159159411Y-102819247D01*
X159159411Y-102819247D02*
X159111792Y-102914485D01*
X159111792Y-102914485D02*
X159111792Y-103057342D01*
X159111792Y-103057342D02*
X159159411Y-103152580D01*
X159159411Y-103152580D02*
X159207030Y-103200200D01*
X159207030Y-103200200D02*
X159302268Y-103247819D01*
X159302268Y-103247819D02*
X159683220Y-103247819D01*
X159683220Y-103247819D02*
X159683220Y-102247819D01*
X159683220Y-102247819D02*
X159349887Y-102247819D01*
X159349887Y-102247819D02*
X159254649Y-102295438D01*
X159254649Y-102295438D02*
X159207030Y-102343057D01*
X159207030Y-102343057D02*
X159159411Y-102438295D01*
X159159411Y-102438295D02*
X159159411Y-102533533D01*
X159159411Y-102533533D02*
X159207030Y-102628771D01*
X159207030Y-102628771D02*
X159254649Y-102676390D01*
X159254649Y-102676390D02*
X159349887Y-102724009D01*
X159349887Y-102724009D02*
X159683220Y-102724009D01*
X158207030Y-103247819D02*
X158683220Y-103247819D01*
X158683220Y-103247819D02*
X158683220Y-102247819D01*
X157873696Y-103247819D02*
X157873696Y-102247819D01*
X157302268Y-103247819D02*
X157730839Y-102676390D01*
X157302268Y-102247819D02*
X157873696Y-102819247D01*
X156159411Y-102200200D02*
X157016553Y-103485914D01*
X155635601Y-102247819D02*
X155445125Y-102247819D01*
X155445125Y-102247819D02*
X155349887Y-102295438D01*
X155349887Y-102295438D02*
X155254649Y-102390676D01*
X155254649Y-102390676D02*
X155207030Y-102581152D01*
X155207030Y-102581152D02*
X155207030Y-102914485D01*
X155207030Y-102914485D02*
X155254649Y-103104961D01*
X155254649Y-103104961D02*
X155349887Y-103200200D01*
X155349887Y-103200200D02*
X155445125Y-103247819D01*
X155445125Y-103247819D02*
X155635601Y-103247819D01*
X155635601Y-103247819D02*
X155730839Y-103200200D01*
X155730839Y-103200200D02*
X155826077Y-103104961D01*
X155826077Y-103104961D02*
X155873696Y-102914485D01*
X155873696Y-102914485D02*
X155873696Y-102581152D01*
X155873696Y-102581152D02*
X155826077Y-102390676D01*
X155826077Y-102390676D02*
X155730839Y-102295438D01*
X155730839Y-102295438D02*
X155635601Y-102247819D01*
X154445125Y-102724009D02*
X154302268Y-102771628D01*
X154302268Y-102771628D02*
X154254649Y-102819247D01*
X154254649Y-102819247D02*
X154207030Y-102914485D01*
X154207030Y-102914485D02*
X154207030Y-103057342D01*
X154207030Y-103057342D02*
X154254649Y-103152580D01*
X154254649Y-103152580D02*
X154302268Y-103200200D01*
X154302268Y-103200200D02*
X154397506Y-103247819D01*
X154397506Y-103247819D02*
X154778458Y-103247819D01*
X154778458Y-103247819D02*
X154778458Y-102247819D01*
X154778458Y-102247819D02*
X154445125Y-102247819D01*
X154445125Y-102247819D02*
X154349887Y-102295438D01*
X154349887Y-102295438D02*
X154302268Y-102343057D01*
X154302268Y-102343057D02*
X154254649Y-102438295D01*
X154254649Y-102438295D02*
X154254649Y-102533533D01*
X154254649Y-102533533D02*
X154302268Y-102628771D01*
X154302268Y-102628771D02*
X154349887Y-102676390D01*
X154349887Y-102676390D02*
X154445125Y-102724009D01*
X154445125Y-102724009D02*
X154778458Y-102724009D01*
X153826077Y-103200200D02*
X153683220Y-103247819D01*
X153683220Y-103247819D02*
X153445125Y-103247819D01*
X153445125Y-103247819D02*
X153349887Y-103200200D01*
X153349887Y-103200200D02*
X153302268Y-103152580D01*
X153302268Y-103152580D02*
X153254649Y-103057342D01*
X153254649Y-103057342D02*
X153254649Y-102962104D01*
X153254649Y-102962104D02*
X153302268Y-102866866D01*
X153302268Y-102866866D02*
X153349887Y-102819247D01*
X153349887Y-102819247D02*
X153445125Y-102771628D01*
X153445125Y-102771628D02*
X153635601Y-102724009D01*
X153635601Y-102724009D02*
X153730839Y-102676390D01*
X153730839Y-102676390D02*
X153778458Y-102628771D01*
X153778458Y-102628771D02*
X153826077Y-102533533D01*
X153826077Y-102533533D02*
X153826077Y-102438295D01*
X153826077Y-102438295D02*
X153778458Y-102343057D01*
X153778458Y-102343057D02*
X153730839Y-102295438D01*
X153730839Y-102295438D02*
X153635601Y-102247819D01*
X153635601Y-102247819D02*
X153397506Y-102247819D01*
X153397506Y-102247819D02*
X153254649Y-102295438D01*
X152968934Y-102247819D02*
X152397506Y-102247819D01*
X152683220Y-103247819D02*
X152683220Y-102247819D01*
X156682744Y-80959438D02*
X156777982Y-80911819D01*
X156777982Y-80911819D02*
X156920839Y-80911819D01*
X156920839Y-80911819D02*
X157063696Y-80959438D01*
X157063696Y-80959438D02*
X157158934Y-81054676D01*
X157158934Y-81054676D02*
X157206553Y-81149914D01*
X157206553Y-81149914D02*
X157254172Y-81340390D01*
X157254172Y-81340390D02*
X157254172Y-81483247D01*
X157254172Y-81483247D02*
X157206553Y-81673723D01*
X157206553Y-81673723D02*
X157158934Y-81768961D01*
X157158934Y-81768961D02*
X157063696Y-81864200D01*
X157063696Y-81864200D02*
X156920839Y-81911819D01*
X156920839Y-81911819D02*
X156825601Y-81911819D01*
X156825601Y-81911819D02*
X156682744Y-81864200D01*
X156682744Y-81864200D02*
X156635125Y-81816580D01*
X156635125Y-81816580D02*
X156635125Y-81483247D01*
X156635125Y-81483247D02*
X156825601Y-81483247D01*
X156206553Y-81911819D02*
X156206553Y-80911819D01*
X156206553Y-80911819D02*
X155635125Y-81911819D01*
X155635125Y-81911819D02*
X155635125Y-80911819D01*
X155158934Y-81911819D02*
X155158934Y-80911819D01*
X155158934Y-80911819D02*
X154920839Y-80911819D01*
X154920839Y-80911819D02*
X154777982Y-80959438D01*
X154777982Y-80959438D02*
X154682744Y-81054676D01*
X154682744Y-81054676D02*
X154635125Y-81149914D01*
X154635125Y-81149914D02*
X154587506Y-81340390D01*
X154587506Y-81340390D02*
X154587506Y-81483247D01*
X154587506Y-81483247D02*
X154635125Y-81673723D01*
X154635125Y-81673723D02*
X154682744Y-81768961D01*
X154682744Y-81768961D02*
X154777982Y-81864200D01*
X154777982Y-81864200D02*
X154920839Y-81911819D01*
X154920839Y-81911819D02*
X155158934Y-81911819D01*
X127449128Y-74015116D02*
X127449128Y-73015116D01*
X127449128Y-73015116D02*
X127211033Y-73015116D01*
X127211033Y-73015116D02*
X127068176Y-73062735D01*
X127068176Y-73062735D02*
X126972938Y-73157973D01*
X126972938Y-73157973D02*
X126925319Y-73253211D01*
X126925319Y-73253211D02*
X126877700Y-73443687D01*
X126877700Y-73443687D02*
X126877700Y-73586544D01*
X126877700Y-73586544D02*
X126925319Y-73777020D01*
X126925319Y-73777020D02*
X126972938Y-73872258D01*
X126972938Y-73872258D02*
X127068176Y-73967497D01*
X127068176Y-73967497D02*
X127211033Y-74015116D01*
X127211033Y-74015116D02*
X127449128Y-74015116D01*
X125972938Y-73015116D02*
X126449128Y-73015116D01*
X126449128Y-73015116D02*
X126496747Y-73491306D01*
X126496747Y-73491306D02*
X126449128Y-73443687D01*
X126449128Y-73443687D02*
X126353890Y-73396068D01*
X126353890Y-73396068D02*
X126115795Y-73396068D01*
X126115795Y-73396068D02*
X126020557Y-73443687D01*
X126020557Y-73443687D02*
X125972938Y-73491306D01*
X125972938Y-73491306D02*
X125925319Y-73586544D01*
X125925319Y-73586544D02*
X125925319Y-73824639D01*
X125925319Y-73824639D02*
X125972938Y-73919877D01*
X125972938Y-73919877D02*
X126020557Y-73967497D01*
X126020557Y-73967497D02*
X126115795Y-74015116D01*
X126115795Y-74015116D02*
X126353890Y-74015116D01*
X126353890Y-74015116D02*
X126449128Y-73967497D01*
X126449128Y-73967497D02*
X126496747Y-73919877D01*
X124782462Y-72967497D02*
X125639604Y-74253211D01*
X124496747Y-73967497D02*
X124353890Y-74015116D01*
X124353890Y-74015116D02*
X124115795Y-74015116D01*
X124115795Y-74015116D02*
X124020557Y-73967497D01*
X124020557Y-73967497D02*
X123972938Y-73919877D01*
X123972938Y-73919877D02*
X123925319Y-73824639D01*
X123925319Y-73824639D02*
X123925319Y-73729401D01*
X123925319Y-73729401D02*
X123972938Y-73634163D01*
X123972938Y-73634163D02*
X124020557Y-73586544D01*
X124020557Y-73586544D02*
X124115795Y-73538925D01*
X124115795Y-73538925D02*
X124306271Y-73491306D01*
X124306271Y-73491306D02*
X124401509Y-73443687D01*
X124401509Y-73443687D02*
X124449128Y-73396068D01*
X124449128Y-73396068D02*
X124496747Y-73300830D01*
X124496747Y-73300830D02*
X124496747Y-73205592D01*
X124496747Y-73205592D02*
X124449128Y-73110354D01*
X124449128Y-73110354D02*
X124401509Y-73062735D01*
X124401509Y-73062735D02*
X124306271Y-73015116D01*
X124306271Y-73015116D02*
X124068176Y-73015116D01*
X124068176Y-73015116D02*
X123925319Y-73062735D01*
X122925319Y-73919877D02*
X122972938Y-73967497D01*
X122972938Y-73967497D02*
X123115795Y-74015116D01*
X123115795Y-74015116D02*
X123211033Y-74015116D01*
X123211033Y-74015116D02*
X123353890Y-73967497D01*
X123353890Y-73967497D02*
X123449128Y-73872258D01*
X123449128Y-73872258D02*
X123496747Y-73777020D01*
X123496747Y-73777020D02*
X123544366Y-73586544D01*
X123544366Y-73586544D02*
X123544366Y-73443687D01*
X123544366Y-73443687D02*
X123496747Y-73253211D01*
X123496747Y-73253211D02*
X123449128Y-73157973D01*
X123449128Y-73157973D02*
X123353890Y-73062735D01*
X123353890Y-73062735D02*
X123211033Y-73015116D01*
X123211033Y-73015116D02*
X123115795Y-73015116D01*
X123115795Y-73015116D02*
X122972938Y-73062735D01*
X122972938Y-73062735D02*
X122925319Y-73110354D01*
X122496747Y-74015116D02*
X122496747Y-73015116D01*
X121925319Y-74015116D02*
X122353890Y-73443687D01*
X121925319Y-73015116D02*
X122496747Y-73586544D01*
X159778458Y-87007819D02*
X159159411Y-87007819D01*
X159159411Y-87007819D02*
X159492744Y-87388771D01*
X159492744Y-87388771D02*
X159349887Y-87388771D01*
X159349887Y-87388771D02*
X159254649Y-87436390D01*
X159254649Y-87436390D02*
X159207030Y-87484009D01*
X159207030Y-87484009D02*
X159159411Y-87579247D01*
X159159411Y-87579247D02*
X159159411Y-87817342D01*
X159159411Y-87817342D02*
X159207030Y-87912580D01*
X159207030Y-87912580D02*
X159254649Y-87960200D01*
X159254649Y-87960200D02*
X159349887Y-88007819D01*
X159349887Y-88007819D02*
X159635601Y-88007819D01*
X159635601Y-88007819D02*
X159730839Y-87960200D01*
X159730839Y-87960200D02*
X159778458Y-87912580D01*
X158873696Y-87007819D02*
X158540363Y-88007819D01*
X158540363Y-88007819D02*
X158207030Y-87007819D01*
X157968934Y-87007819D02*
X157349887Y-87007819D01*
X157349887Y-87007819D02*
X157683220Y-87388771D01*
X157683220Y-87388771D02*
X157540363Y-87388771D01*
X157540363Y-87388771D02*
X157445125Y-87436390D01*
X157445125Y-87436390D02*
X157397506Y-87484009D01*
X157397506Y-87484009D02*
X157349887Y-87579247D01*
X157349887Y-87579247D02*
X157349887Y-87817342D01*
X157349887Y-87817342D02*
X157397506Y-87912580D01*
X157397506Y-87912580D02*
X157445125Y-87960200D01*
X157445125Y-87960200D02*
X157540363Y-88007819D01*
X157540363Y-88007819D02*
X157826077Y-88007819D01*
X157826077Y-88007819D02*
X157921315Y-87960200D01*
X157921315Y-87960200D02*
X157968934Y-87912580D01*
X159111792Y-106041819D02*
X159445125Y-105565628D01*
X159683220Y-106041819D02*
X159683220Y-105041819D01*
X159683220Y-105041819D02*
X159302268Y-105041819D01*
X159302268Y-105041819D02*
X159207030Y-105089438D01*
X159207030Y-105089438D02*
X159159411Y-105137057D01*
X159159411Y-105137057D02*
X159111792Y-105232295D01*
X159111792Y-105232295D02*
X159111792Y-105375152D01*
X159111792Y-105375152D02*
X159159411Y-105470390D01*
X159159411Y-105470390D02*
X159207030Y-105518009D01*
X159207030Y-105518009D02*
X159302268Y-105565628D01*
X159302268Y-105565628D02*
X159683220Y-105565628D01*
X158683220Y-105518009D02*
X158349887Y-105518009D01*
X158207030Y-106041819D02*
X158683220Y-106041819D01*
X158683220Y-106041819D02*
X158683220Y-105041819D01*
X158683220Y-105041819D02*
X158207030Y-105041819D01*
X157778458Y-106041819D02*
X157778458Y-105041819D01*
X157778458Y-105041819D02*
X157540363Y-105041819D01*
X157540363Y-105041819D02*
X157397506Y-105089438D01*
X157397506Y-105089438D02*
X157302268Y-105184676D01*
X157302268Y-105184676D02*
X157254649Y-105279914D01*
X157254649Y-105279914D02*
X157207030Y-105470390D01*
X157207030Y-105470390D02*
X157207030Y-105613247D01*
X157207030Y-105613247D02*
X157254649Y-105803723D01*
X157254649Y-105803723D02*
X157302268Y-105898961D01*
X157302268Y-105898961D02*
X157397506Y-105994200D01*
X157397506Y-105994200D02*
X157540363Y-106041819D01*
X157540363Y-106041819D02*
X157778458Y-106041819D01*
X156064173Y-104994200D02*
X156921315Y-106279914D01*
X155159411Y-105946580D02*
X155207030Y-105994200D01*
X155207030Y-105994200D02*
X155349887Y-106041819D01*
X155349887Y-106041819D02*
X155445125Y-106041819D01*
X155445125Y-106041819D02*
X155587982Y-105994200D01*
X155587982Y-105994200D02*
X155683220Y-105898961D01*
X155683220Y-105898961D02*
X155730839Y-105803723D01*
X155730839Y-105803723D02*
X155778458Y-105613247D01*
X155778458Y-105613247D02*
X155778458Y-105470390D01*
X155778458Y-105470390D02*
X155730839Y-105279914D01*
X155730839Y-105279914D02*
X155683220Y-105184676D01*
X155683220Y-105184676D02*
X155587982Y-105089438D01*
X155587982Y-105089438D02*
X155445125Y-105041819D01*
X155445125Y-105041819D02*
X155349887Y-105041819D01*
X155349887Y-105041819D02*
X155207030Y-105089438D01*
X155207030Y-105089438D02*
X155159411Y-105137057D01*
X154873696Y-105041819D02*
X154302268Y-105041819D01*
X154587982Y-106041819D02*
X154587982Y-105041819D01*
X153397506Y-106041819D02*
X153730839Y-105565628D01*
X153968934Y-106041819D02*
X153968934Y-105041819D01*
X153968934Y-105041819D02*
X153587982Y-105041819D01*
X153587982Y-105041819D02*
X153492744Y-105089438D01*
X153492744Y-105089438D02*
X153445125Y-105137057D01*
X153445125Y-105137057D02*
X153397506Y-105232295D01*
X153397506Y-105232295D02*
X153397506Y-105375152D01*
X153397506Y-105375152D02*
X153445125Y-105470390D01*
X153445125Y-105470390D02*
X153492744Y-105518009D01*
X153492744Y-105518009D02*
X153587982Y-105565628D01*
X153587982Y-105565628D02*
X153968934Y-105565628D01*
X152492744Y-106041819D02*
X152968934Y-106041819D01*
X152968934Y-106041819D02*
X152968934Y-105041819D01*
X127449128Y-71475116D02*
X127449128Y-70475116D01*
X127449128Y-70475116D02*
X127211033Y-70475116D01*
X127211033Y-70475116D02*
X127068176Y-70522735D01*
X127068176Y-70522735D02*
X126972938Y-70617973D01*
X126972938Y-70617973D02*
X126925319Y-70713211D01*
X126925319Y-70713211D02*
X126877700Y-70903687D01*
X126877700Y-70903687D02*
X126877700Y-71046544D01*
X126877700Y-71046544D02*
X126925319Y-71237020D01*
X126925319Y-71237020D02*
X126972938Y-71332258D01*
X126972938Y-71332258D02*
X127068176Y-71427497D01*
X127068176Y-71427497D02*
X127211033Y-71475116D01*
X127211033Y-71475116D02*
X127449128Y-71475116D01*
X126258652Y-70475116D02*
X126163414Y-70475116D01*
X126163414Y-70475116D02*
X126068176Y-70522735D01*
X126068176Y-70522735D02*
X126020557Y-70570354D01*
X126020557Y-70570354D02*
X125972938Y-70665592D01*
X125972938Y-70665592D02*
X125925319Y-70856068D01*
X125925319Y-70856068D02*
X125925319Y-71094163D01*
X125925319Y-71094163D02*
X125972938Y-71284639D01*
X125972938Y-71284639D02*
X126020557Y-71379877D01*
X126020557Y-71379877D02*
X126068176Y-71427497D01*
X126068176Y-71427497D02*
X126163414Y-71475116D01*
X126163414Y-71475116D02*
X126258652Y-71475116D01*
X126258652Y-71475116D02*
X126353890Y-71427497D01*
X126353890Y-71427497D02*
X126401509Y-71379877D01*
X126401509Y-71379877D02*
X126449128Y-71284639D01*
X126449128Y-71284639D02*
X126496747Y-71094163D01*
X126496747Y-71094163D02*
X126496747Y-70856068D01*
X126496747Y-70856068D02*
X126449128Y-70665592D01*
X126449128Y-70665592D02*
X126401509Y-70570354D01*
X126401509Y-70570354D02*
X126353890Y-70522735D01*
X126353890Y-70522735D02*
X126258652Y-70475116D01*
X159968458Y-74291819D02*
X159968458Y-73291819D01*
X159968458Y-73291819D02*
X159730363Y-73291819D01*
X159730363Y-73291819D02*
X159587506Y-73339438D01*
X159587506Y-73339438D02*
X159492268Y-73434676D01*
X159492268Y-73434676D02*
X159444649Y-73529914D01*
X159444649Y-73529914D02*
X159397030Y-73720390D01*
X159397030Y-73720390D02*
X159397030Y-73863247D01*
X159397030Y-73863247D02*
X159444649Y-74053723D01*
X159444649Y-74053723D02*
X159492268Y-74148961D01*
X159492268Y-74148961D02*
X159587506Y-74244200D01*
X159587506Y-74244200D02*
X159730363Y-74291819D01*
X159730363Y-74291819D02*
X159968458Y-74291819D01*
X159016077Y-73387057D02*
X158968458Y-73339438D01*
X158968458Y-73339438D02*
X158873220Y-73291819D01*
X158873220Y-73291819D02*
X158635125Y-73291819D01*
X158635125Y-73291819D02*
X158539887Y-73339438D01*
X158539887Y-73339438D02*
X158492268Y-73387057D01*
X158492268Y-73387057D02*
X158444649Y-73482295D01*
X158444649Y-73482295D02*
X158444649Y-73577533D01*
X158444649Y-73577533D02*
X158492268Y-73720390D01*
X158492268Y-73720390D02*
X159063696Y-74291819D01*
X159063696Y-74291819D02*
X158444649Y-74291819D01*
X157301792Y-73244200D02*
X158158934Y-74529914D01*
X157016077Y-74244200D02*
X156873220Y-74291819D01*
X156873220Y-74291819D02*
X156635125Y-74291819D01*
X156635125Y-74291819D02*
X156539887Y-74244200D01*
X156539887Y-74244200D02*
X156492268Y-74196580D01*
X156492268Y-74196580D02*
X156444649Y-74101342D01*
X156444649Y-74101342D02*
X156444649Y-74006104D01*
X156444649Y-74006104D02*
X156492268Y-73910866D01*
X156492268Y-73910866D02*
X156539887Y-73863247D01*
X156539887Y-73863247D02*
X156635125Y-73815628D01*
X156635125Y-73815628D02*
X156825601Y-73768009D01*
X156825601Y-73768009D02*
X156920839Y-73720390D01*
X156920839Y-73720390D02*
X156968458Y-73672771D01*
X156968458Y-73672771D02*
X157016077Y-73577533D01*
X157016077Y-73577533D02*
X157016077Y-73482295D01*
X157016077Y-73482295D02*
X156968458Y-73387057D01*
X156968458Y-73387057D02*
X156920839Y-73339438D01*
X156920839Y-73339438D02*
X156825601Y-73291819D01*
X156825601Y-73291819D02*
X156587506Y-73291819D01*
X156587506Y-73291819D02*
X156444649Y-73339438D01*
X156016077Y-74291819D02*
X156016077Y-73291819D01*
X156016077Y-73291819D02*
X155777982Y-73291819D01*
X155777982Y-73291819D02*
X155635125Y-73339438D01*
X155635125Y-73339438D02*
X155539887Y-73434676D01*
X155539887Y-73434676D02*
X155492268Y-73529914D01*
X155492268Y-73529914D02*
X155444649Y-73720390D01*
X155444649Y-73720390D02*
X155444649Y-73863247D01*
X155444649Y-73863247D02*
X155492268Y-74053723D01*
X155492268Y-74053723D02*
X155539887Y-74148961D01*
X155539887Y-74148961D02*
X155635125Y-74244200D01*
X155635125Y-74244200D02*
X155777982Y-74291819D01*
X155777982Y-74291819D02*
X156016077Y-74291819D01*
X155063696Y-74006104D02*
X154587506Y-74006104D01*
X155158934Y-74291819D02*
X154825601Y-73291819D01*
X154825601Y-73291819D02*
X154492268Y-74291819D01*
X159111792Y-92992580D02*
X159159411Y-93040200D01*
X159159411Y-93040200D02*
X159302268Y-93087819D01*
X159302268Y-93087819D02*
X159397506Y-93087819D01*
X159397506Y-93087819D02*
X159540363Y-93040200D01*
X159540363Y-93040200D02*
X159635601Y-92944961D01*
X159635601Y-92944961D02*
X159683220Y-92849723D01*
X159683220Y-92849723D02*
X159730839Y-92659247D01*
X159730839Y-92659247D02*
X159730839Y-92516390D01*
X159730839Y-92516390D02*
X159683220Y-92325914D01*
X159683220Y-92325914D02*
X159635601Y-92230676D01*
X159635601Y-92230676D02*
X159540363Y-92135438D01*
X159540363Y-92135438D02*
X159397506Y-92087819D01*
X159397506Y-92087819D02*
X159302268Y-92087819D01*
X159302268Y-92087819D02*
X159159411Y-92135438D01*
X159159411Y-92135438D02*
X159111792Y-92183057D01*
X158207030Y-93087819D02*
X158683220Y-93087819D01*
X158683220Y-93087819D02*
X158683220Y-92087819D01*
X157683220Y-92087819D02*
X157492744Y-92087819D01*
X157492744Y-92087819D02*
X157397506Y-92135438D01*
X157397506Y-92135438D02*
X157302268Y-92230676D01*
X157302268Y-92230676D02*
X157254649Y-92421152D01*
X157254649Y-92421152D02*
X157254649Y-92754485D01*
X157254649Y-92754485D02*
X157302268Y-92944961D01*
X157302268Y-92944961D02*
X157397506Y-93040200D01*
X157397506Y-93040200D02*
X157492744Y-93087819D01*
X157492744Y-93087819D02*
X157683220Y-93087819D01*
X157683220Y-93087819D02*
X157778458Y-93040200D01*
X157778458Y-93040200D02*
X157873696Y-92944961D01*
X157873696Y-92944961D02*
X157921315Y-92754485D01*
X157921315Y-92754485D02*
X157921315Y-92421152D01*
X157921315Y-92421152D02*
X157873696Y-92230676D01*
X157873696Y-92230676D02*
X157778458Y-92135438D01*
X157778458Y-92135438D02*
X157683220Y-92087819D01*
X156873696Y-93040200D02*
X156730839Y-93087819D01*
X156730839Y-93087819D02*
X156492744Y-93087819D01*
X156492744Y-93087819D02*
X156397506Y-93040200D01*
X156397506Y-93040200D02*
X156349887Y-92992580D01*
X156349887Y-92992580D02*
X156302268Y-92897342D01*
X156302268Y-92897342D02*
X156302268Y-92802104D01*
X156302268Y-92802104D02*
X156349887Y-92706866D01*
X156349887Y-92706866D02*
X156397506Y-92659247D01*
X156397506Y-92659247D02*
X156492744Y-92611628D01*
X156492744Y-92611628D02*
X156683220Y-92564009D01*
X156683220Y-92564009D02*
X156778458Y-92516390D01*
X156778458Y-92516390D02*
X156826077Y-92468771D01*
X156826077Y-92468771D02*
X156873696Y-92373533D01*
X156873696Y-92373533D02*
X156873696Y-92278295D01*
X156873696Y-92278295D02*
X156826077Y-92183057D01*
X156826077Y-92183057D02*
X156778458Y-92135438D01*
X156778458Y-92135438D02*
X156683220Y-92087819D01*
X156683220Y-92087819D02*
X156445125Y-92087819D01*
X156445125Y-92087819D02*
X156302268Y-92135438D01*
X155873696Y-92564009D02*
X155540363Y-92564009D01*
X155397506Y-93087819D02*
X155873696Y-93087819D01*
X155873696Y-93087819D02*
X155873696Y-92087819D01*
X155873696Y-92087819D02*
X155397506Y-92087819D01*
M02*
