%TF.GenerationSoftware,KiCad,Pcbnew,7.0.9*%
%TF.CreationDate,2023-11-08T10:56:30-08:00*%
%TF.ProjectId,RatGDO-OpenSource-D1Mini-ESP8266,52617447-444f-42d4-9f70-656e536f7572,2.5.0*%
%TF.SameCoordinates,Original*%
%TF.FileFunction,Drillmap*%
%TF.FilePolarity,Positive*%
%FSLAX45Y45*%
G04 Gerber Fmt 4.5, Leading zero omitted, Abs format (unit mm)*
G04 Created by KiCad (PCBNEW 7.0.9) date 2023-11-08 10:56:30*
%MOMM*%
%LPD*%
G01*
G04 APERTURE LIST*
%ADD10C,0.100000*%
%ADD11C,0.200000*%
%ADD12C,0.130000*%
G04 APERTURE END LIST*
D10*
X11506200Y-5715000D02*
X16687800Y-5715000D01*
X16687800Y-12293600D01*
X11506200Y-12293600D01*
X11506200Y-5715000D01*
D11*
D10*
X12197400Y-7244400D02*
X12237400Y-7284400D01*
X12237400Y-7244400D02*
X12197400Y-7284400D01*
X14585000Y-9784400D02*
X14625000Y-9824400D01*
X14625000Y-9784400D02*
X14585000Y-9824400D01*
X13004750Y-6604000D02*
G75*
G03*
X13004750Y-6604000I-50000J0D01*
G01*
X13004750Y-6858000D02*
G75*
G03*
X13004750Y-6858000I-50000J0D01*
G01*
X13004750Y-7112000D02*
G75*
G03*
X13004750Y-7112000I-50000J0D01*
G01*
X13004750Y-7366000D02*
G75*
G03*
X13004750Y-7366000I-50000J0D01*
G01*
X13004750Y-7620000D02*
G75*
G03*
X13004750Y-7620000I-50000J0D01*
G01*
X13004750Y-7874000D02*
G75*
G03*
X13004750Y-7874000I-50000J0D01*
G01*
X13004750Y-8128000D02*
G75*
G03*
X13004750Y-8128000I-50000J0D01*
G01*
X13004750Y-8382000D02*
G75*
G03*
X13004750Y-8382000I-50000J0D01*
G01*
X15290750Y-6604000D02*
G75*
G03*
X15290750Y-6604000I-50000J0D01*
G01*
X15290750Y-6858000D02*
G75*
G03*
X15290750Y-6858000I-50000J0D01*
G01*
X15290750Y-7112000D02*
G75*
G03*
X15290750Y-7112000I-50000J0D01*
G01*
X15290750Y-7366000D02*
G75*
G03*
X15290750Y-7366000I-50000J0D01*
G01*
X15290750Y-7620000D02*
G75*
G03*
X15290750Y-7620000I-50000J0D01*
G01*
X15290750Y-7874000D02*
G75*
G03*
X15290750Y-7874000I-50000J0D01*
G01*
X15290750Y-8128000D02*
G75*
G03*
X15290750Y-8128000I-50000J0D01*
G01*
X15290750Y-8382000D02*
G75*
G03*
X15290750Y-8382000I-50000J0D01*
G01*
X15545470Y-11880370D02*
G75*
G03*
X15545470Y-11880370I-50000J0D01*
G01*
X15799470Y-11880370D02*
G75*
G03*
X15799470Y-11880370I-50000J0D01*
G01*
X16053470Y-11880370D02*
G75*
G03*
X16053470Y-11880370I-50000J0D01*
G01*
X16229800Y-8382000D02*
G75*
G03*
X16229800Y-8382000I-50000J0D01*
G01*
X16229800Y-8636000D02*
G75*
G03*
X16229800Y-8636000I-50000J0D01*
G01*
X16229800Y-8890000D02*
G75*
G03*
X16229800Y-8890000I-50000J0D01*
G01*
X16229800Y-9144000D02*
G75*
G03*
X16229800Y-9144000I-50000J0D01*
G01*
X16229800Y-9398000D02*
G75*
G03*
X16229800Y-9398000I-50000J0D01*
G01*
X16229800Y-9652000D02*
G75*
G03*
X16229800Y-9652000I-50000J0D01*
G01*
X16229800Y-9906000D02*
G75*
G03*
X16229800Y-9906000I-50000J0D01*
G01*
X16229800Y-10160000D02*
G75*
G03*
X16229800Y-10160000I-50000J0D01*
G01*
X16229800Y-10414000D02*
G75*
G03*
X16229800Y-10414000I-50000J0D01*
G01*
X16229800Y-10668000D02*
G75*
G03*
X16229800Y-10668000I-50000J0D01*
G01*
X16229800Y-10922000D02*
G75*
G03*
X16229800Y-10922000I-50000J0D01*
G01*
D12*
X12471400Y-9663200D02*
X12471400Y-9793200D01*
X12406400Y-9728200D02*
X12536400Y-9728200D01*
X12471400Y-10163200D02*
X12471400Y-10293200D01*
X12406400Y-10228200D02*
X12536400Y-10228200D01*
X12471400Y-10663200D02*
X12471400Y-10793200D01*
X12406400Y-10728200D02*
X12536400Y-10728200D01*
X12471400Y-11288800D02*
X12471400Y-11418800D01*
X12406400Y-11353800D02*
X12536400Y-11353800D01*
X12471400Y-11788800D02*
X12471400Y-11918800D01*
X12406400Y-11853800D02*
X12536400Y-11853800D01*
D11*
X11761977Y-12610084D02*
X11761977Y-12410084D01*
X11761977Y-12410084D02*
X11809596Y-12410084D01*
X11809596Y-12410084D02*
X11838167Y-12419608D01*
X11838167Y-12419608D02*
X11857215Y-12438655D01*
X11857215Y-12438655D02*
X11866739Y-12457703D01*
X11866739Y-12457703D02*
X11876262Y-12495798D01*
X11876262Y-12495798D02*
X11876262Y-12524369D01*
X11876262Y-12524369D02*
X11866739Y-12562465D01*
X11866739Y-12562465D02*
X11857215Y-12581512D01*
X11857215Y-12581512D02*
X11838167Y-12600560D01*
X11838167Y-12600560D02*
X11809596Y-12610084D01*
X11809596Y-12610084D02*
X11761977Y-12610084D01*
X11961977Y-12610084D02*
X11961977Y-12476750D01*
X11961977Y-12514846D02*
X11971501Y-12495798D01*
X11971501Y-12495798D02*
X11981024Y-12486274D01*
X11981024Y-12486274D02*
X12000072Y-12476750D01*
X12000072Y-12476750D02*
X12019120Y-12476750D01*
X12085786Y-12610084D02*
X12085786Y-12476750D01*
X12085786Y-12410084D02*
X12076262Y-12419608D01*
X12076262Y-12419608D02*
X12085786Y-12429131D01*
X12085786Y-12429131D02*
X12095310Y-12419608D01*
X12095310Y-12419608D02*
X12085786Y-12410084D01*
X12085786Y-12410084D02*
X12085786Y-12429131D01*
X12209596Y-12610084D02*
X12190548Y-12600560D01*
X12190548Y-12600560D02*
X12181024Y-12581512D01*
X12181024Y-12581512D02*
X12181024Y-12410084D01*
X12314358Y-12610084D02*
X12295310Y-12600560D01*
X12295310Y-12600560D02*
X12285786Y-12581512D01*
X12285786Y-12581512D02*
X12285786Y-12410084D01*
X12542929Y-12610084D02*
X12542929Y-12410084D01*
X12542929Y-12410084D02*
X12609596Y-12552941D01*
X12609596Y-12552941D02*
X12676262Y-12410084D01*
X12676262Y-12410084D02*
X12676262Y-12610084D01*
X12857215Y-12610084D02*
X12857215Y-12505322D01*
X12857215Y-12505322D02*
X12847691Y-12486274D01*
X12847691Y-12486274D02*
X12828643Y-12476750D01*
X12828643Y-12476750D02*
X12790548Y-12476750D01*
X12790548Y-12476750D02*
X12771501Y-12486274D01*
X12857215Y-12600560D02*
X12838167Y-12610084D01*
X12838167Y-12610084D02*
X12790548Y-12610084D01*
X12790548Y-12610084D02*
X12771501Y-12600560D01*
X12771501Y-12600560D02*
X12761977Y-12581512D01*
X12761977Y-12581512D02*
X12761977Y-12562465D01*
X12761977Y-12562465D02*
X12771501Y-12543417D01*
X12771501Y-12543417D02*
X12790548Y-12533893D01*
X12790548Y-12533893D02*
X12838167Y-12533893D01*
X12838167Y-12533893D02*
X12857215Y-12524369D01*
X12952453Y-12476750D02*
X12952453Y-12676750D01*
X12952453Y-12486274D02*
X12971501Y-12476750D01*
X12971501Y-12476750D02*
X13009596Y-12476750D01*
X13009596Y-12476750D02*
X13028643Y-12486274D01*
X13028643Y-12486274D02*
X13038167Y-12495798D01*
X13038167Y-12495798D02*
X13047691Y-12514846D01*
X13047691Y-12514846D02*
X13047691Y-12571988D01*
X13047691Y-12571988D02*
X13038167Y-12591036D01*
X13038167Y-12591036D02*
X13028643Y-12600560D01*
X13028643Y-12600560D02*
X13009596Y-12610084D01*
X13009596Y-12610084D02*
X12971501Y-12610084D01*
X12971501Y-12610084D02*
X12952453Y-12600560D01*
X13133405Y-12591036D02*
X13142929Y-12600560D01*
X13142929Y-12600560D02*
X13133405Y-12610084D01*
X13133405Y-12610084D02*
X13123882Y-12600560D01*
X13123882Y-12600560D02*
X13133405Y-12591036D01*
X13133405Y-12591036D02*
X13133405Y-12610084D01*
X13133405Y-12486274D02*
X13142929Y-12495798D01*
X13142929Y-12495798D02*
X13133405Y-12505322D01*
X13133405Y-12505322D02*
X13123882Y-12495798D01*
X13123882Y-12495798D02*
X13133405Y-12486274D01*
X13133405Y-12486274D02*
X13133405Y-12505322D01*
D10*
X11461200Y-12918600D02*
X11501200Y-12958600D01*
X11501200Y-12918600D02*
X11461200Y-12958600D01*
D11*
X11800072Y-12830084D02*
X11819120Y-12830084D01*
X11819120Y-12830084D02*
X11838167Y-12839608D01*
X11838167Y-12839608D02*
X11847691Y-12849131D01*
X11847691Y-12849131D02*
X11857215Y-12868179D01*
X11857215Y-12868179D02*
X11866739Y-12906274D01*
X11866739Y-12906274D02*
X11866739Y-12953893D01*
X11866739Y-12953893D02*
X11857215Y-12991988D01*
X11857215Y-12991988D02*
X11847691Y-13011036D01*
X11847691Y-13011036D02*
X11838167Y-13020560D01*
X11838167Y-13020560D02*
X11819120Y-13030084D01*
X11819120Y-13030084D02*
X11800072Y-13030084D01*
X11800072Y-13030084D02*
X11781024Y-13020560D01*
X11781024Y-13020560D02*
X11771501Y-13011036D01*
X11771501Y-13011036D02*
X11761977Y-12991988D01*
X11761977Y-12991988D02*
X11752453Y-12953893D01*
X11752453Y-12953893D02*
X11752453Y-12906274D01*
X11752453Y-12906274D02*
X11761977Y-12868179D01*
X11761977Y-12868179D02*
X11771501Y-12849131D01*
X11771501Y-12849131D02*
X11781024Y-12839608D01*
X11781024Y-12839608D02*
X11800072Y-12830084D01*
X11952453Y-13011036D02*
X11961977Y-13020560D01*
X11961977Y-13020560D02*
X11952453Y-13030084D01*
X11952453Y-13030084D02*
X11942929Y-13020560D01*
X11942929Y-13020560D02*
X11952453Y-13011036D01*
X11952453Y-13011036D02*
X11952453Y-13030084D01*
X12133405Y-12896750D02*
X12133405Y-13030084D01*
X12085786Y-12820560D02*
X12038167Y-12963417D01*
X12038167Y-12963417D02*
X12161977Y-12963417D01*
X12276262Y-12830084D02*
X12295310Y-12830084D01*
X12295310Y-12830084D02*
X12314358Y-12839608D01*
X12314358Y-12839608D02*
X12323882Y-12849131D01*
X12323882Y-12849131D02*
X12333405Y-12868179D01*
X12333405Y-12868179D02*
X12342929Y-12906274D01*
X12342929Y-12906274D02*
X12342929Y-12953893D01*
X12342929Y-12953893D02*
X12333405Y-12991988D01*
X12333405Y-12991988D02*
X12323882Y-13011036D01*
X12323882Y-13011036D02*
X12314358Y-13020560D01*
X12314358Y-13020560D02*
X12295310Y-13030084D01*
X12295310Y-13030084D02*
X12276262Y-13030084D01*
X12276262Y-13030084D02*
X12257215Y-13020560D01*
X12257215Y-13020560D02*
X12247691Y-13011036D01*
X12247691Y-13011036D02*
X12238167Y-12991988D01*
X12238167Y-12991988D02*
X12228643Y-12953893D01*
X12228643Y-12953893D02*
X12228643Y-12906274D01*
X12228643Y-12906274D02*
X12238167Y-12868179D01*
X12238167Y-12868179D02*
X12247691Y-12849131D01*
X12247691Y-12849131D02*
X12257215Y-12839608D01*
X12257215Y-12839608D02*
X12276262Y-12830084D01*
X12466739Y-12830084D02*
X12485786Y-12830084D01*
X12485786Y-12830084D02*
X12504834Y-12839608D01*
X12504834Y-12839608D02*
X12514358Y-12849131D01*
X12514358Y-12849131D02*
X12523882Y-12868179D01*
X12523882Y-12868179D02*
X12533405Y-12906274D01*
X12533405Y-12906274D02*
X12533405Y-12953893D01*
X12533405Y-12953893D02*
X12523882Y-12991988D01*
X12523882Y-12991988D02*
X12514358Y-13011036D01*
X12514358Y-13011036D02*
X12504834Y-13020560D01*
X12504834Y-13020560D02*
X12485786Y-13030084D01*
X12485786Y-13030084D02*
X12466739Y-13030084D01*
X12466739Y-13030084D02*
X12447691Y-13020560D01*
X12447691Y-13020560D02*
X12438167Y-13011036D01*
X12438167Y-13011036D02*
X12428643Y-12991988D01*
X12428643Y-12991988D02*
X12419120Y-12953893D01*
X12419120Y-12953893D02*
X12419120Y-12906274D01*
X12419120Y-12906274D02*
X12428643Y-12868179D01*
X12428643Y-12868179D02*
X12438167Y-12849131D01*
X12438167Y-12849131D02*
X12447691Y-12839608D01*
X12447691Y-12839608D02*
X12466739Y-12830084D01*
X12619120Y-13030084D02*
X12619120Y-12896750D01*
X12619120Y-12915798D02*
X12628643Y-12906274D01*
X12628643Y-12906274D02*
X12647691Y-12896750D01*
X12647691Y-12896750D02*
X12676263Y-12896750D01*
X12676263Y-12896750D02*
X12695310Y-12906274D01*
X12695310Y-12906274D02*
X12704834Y-12925322D01*
X12704834Y-12925322D02*
X12704834Y-13030084D01*
X12704834Y-12925322D02*
X12714358Y-12906274D01*
X12714358Y-12906274D02*
X12733405Y-12896750D01*
X12733405Y-12896750D02*
X12761977Y-12896750D01*
X12761977Y-12896750D02*
X12781024Y-12906274D01*
X12781024Y-12906274D02*
X12790548Y-12925322D01*
X12790548Y-12925322D02*
X12790548Y-13030084D01*
X12885786Y-13030084D02*
X12885786Y-12896750D01*
X12885786Y-12915798D02*
X12895310Y-12906274D01*
X12895310Y-12906274D02*
X12914358Y-12896750D01*
X12914358Y-12896750D02*
X12942929Y-12896750D01*
X12942929Y-12896750D02*
X12961977Y-12906274D01*
X12961977Y-12906274D02*
X12971501Y-12925322D01*
X12971501Y-12925322D02*
X12971501Y-13030084D01*
X12971501Y-12925322D02*
X12981024Y-12906274D01*
X12981024Y-12906274D02*
X13000072Y-12896750D01*
X13000072Y-12896750D02*
X13028643Y-12896750D01*
X13028643Y-12896750D02*
X13047691Y-12906274D01*
X13047691Y-12906274D02*
X13057215Y-12925322D01*
X13057215Y-12925322D02*
X13057215Y-13030084D01*
X13447691Y-12820560D02*
X13276263Y-13077703D01*
X13704834Y-12830084D02*
X13723882Y-12830084D01*
X13723882Y-12830084D02*
X13742929Y-12839608D01*
X13742929Y-12839608D02*
X13752453Y-12849131D01*
X13752453Y-12849131D02*
X13761977Y-12868179D01*
X13761977Y-12868179D02*
X13771501Y-12906274D01*
X13771501Y-12906274D02*
X13771501Y-12953893D01*
X13771501Y-12953893D02*
X13761977Y-12991988D01*
X13761977Y-12991988D02*
X13752453Y-13011036D01*
X13752453Y-13011036D02*
X13742929Y-13020560D01*
X13742929Y-13020560D02*
X13723882Y-13030084D01*
X13723882Y-13030084D02*
X13704834Y-13030084D01*
X13704834Y-13030084D02*
X13685786Y-13020560D01*
X13685786Y-13020560D02*
X13676263Y-13011036D01*
X13676263Y-13011036D02*
X13666739Y-12991988D01*
X13666739Y-12991988D02*
X13657215Y-12953893D01*
X13657215Y-12953893D02*
X13657215Y-12906274D01*
X13657215Y-12906274D02*
X13666739Y-12868179D01*
X13666739Y-12868179D02*
X13676263Y-12849131D01*
X13676263Y-12849131D02*
X13685786Y-12839608D01*
X13685786Y-12839608D02*
X13704834Y-12830084D01*
X13857215Y-13011036D02*
X13866739Y-13020560D01*
X13866739Y-13020560D02*
X13857215Y-13030084D01*
X13857215Y-13030084D02*
X13847691Y-13020560D01*
X13847691Y-13020560D02*
X13857215Y-13011036D01*
X13857215Y-13011036D02*
X13857215Y-13030084D01*
X13990548Y-12830084D02*
X14009596Y-12830084D01*
X14009596Y-12830084D02*
X14028644Y-12839608D01*
X14028644Y-12839608D02*
X14038167Y-12849131D01*
X14038167Y-12849131D02*
X14047691Y-12868179D01*
X14047691Y-12868179D02*
X14057215Y-12906274D01*
X14057215Y-12906274D02*
X14057215Y-12953893D01*
X14057215Y-12953893D02*
X14047691Y-12991988D01*
X14047691Y-12991988D02*
X14038167Y-13011036D01*
X14038167Y-13011036D02*
X14028644Y-13020560D01*
X14028644Y-13020560D02*
X14009596Y-13030084D01*
X14009596Y-13030084D02*
X13990548Y-13030084D01*
X13990548Y-13030084D02*
X13971501Y-13020560D01*
X13971501Y-13020560D02*
X13961977Y-13011036D01*
X13961977Y-13011036D02*
X13952453Y-12991988D01*
X13952453Y-12991988D02*
X13942929Y-12953893D01*
X13942929Y-12953893D02*
X13942929Y-12906274D01*
X13942929Y-12906274D02*
X13952453Y-12868179D01*
X13952453Y-12868179D02*
X13961977Y-12849131D01*
X13961977Y-12849131D02*
X13971501Y-12839608D01*
X13971501Y-12839608D02*
X13990548Y-12830084D01*
X14247691Y-13030084D02*
X14133406Y-13030084D01*
X14190548Y-13030084D02*
X14190548Y-12830084D01*
X14190548Y-12830084D02*
X14171501Y-12858655D01*
X14171501Y-12858655D02*
X14152453Y-12877703D01*
X14152453Y-12877703D02*
X14133406Y-12887227D01*
X14428644Y-12830084D02*
X14333406Y-12830084D01*
X14333406Y-12830084D02*
X14323882Y-12925322D01*
X14323882Y-12925322D02*
X14333406Y-12915798D01*
X14333406Y-12915798D02*
X14352453Y-12906274D01*
X14352453Y-12906274D02*
X14400072Y-12906274D01*
X14400072Y-12906274D02*
X14419120Y-12915798D01*
X14419120Y-12915798D02*
X14428644Y-12925322D01*
X14428644Y-12925322D02*
X14438167Y-12944369D01*
X14438167Y-12944369D02*
X14438167Y-12991988D01*
X14438167Y-12991988D02*
X14428644Y-13011036D01*
X14428644Y-13011036D02*
X14419120Y-13020560D01*
X14419120Y-13020560D02*
X14400072Y-13030084D01*
X14400072Y-13030084D02*
X14352453Y-13030084D01*
X14352453Y-13030084D02*
X14333406Y-13020560D01*
X14333406Y-13020560D02*
X14323882Y-13011036D01*
X14504834Y-12830084D02*
X14638167Y-12830084D01*
X14638167Y-12830084D02*
X14552453Y-13030084D01*
X14704834Y-12830084D02*
X14704834Y-12868179D01*
X14781025Y-12830084D02*
X14781025Y-12868179D01*
X15076263Y-13106274D02*
X15066739Y-13096750D01*
X15066739Y-13096750D02*
X15047691Y-13068179D01*
X15047691Y-13068179D02*
X15038168Y-13049131D01*
X15038168Y-13049131D02*
X15028644Y-13020560D01*
X15028644Y-13020560D02*
X15019120Y-12972941D01*
X15019120Y-12972941D02*
X15019120Y-12934846D01*
X15019120Y-12934846D02*
X15028644Y-12887227D01*
X15028644Y-12887227D02*
X15038168Y-12858655D01*
X15038168Y-12858655D02*
X15047691Y-12839608D01*
X15047691Y-12839608D02*
X15066739Y-12811036D01*
X15066739Y-12811036D02*
X15076263Y-12801512D01*
X15142929Y-12849131D02*
X15152453Y-12839608D01*
X15152453Y-12839608D02*
X15171501Y-12830084D01*
X15171501Y-12830084D02*
X15219120Y-12830084D01*
X15219120Y-12830084D02*
X15238168Y-12839608D01*
X15238168Y-12839608D02*
X15247691Y-12849131D01*
X15247691Y-12849131D02*
X15257215Y-12868179D01*
X15257215Y-12868179D02*
X15257215Y-12887227D01*
X15257215Y-12887227D02*
X15247691Y-12915798D01*
X15247691Y-12915798D02*
X15133406Y-13030084D01*
X15133406Y-13030084D02*
X15257215Y-13030084D01*
X15495310Y-13030084D02*
X15495310Y-12830084D01*
X15581025Y-13030084D02*
X15581025Y-12925322D01*
X15581025Y-12925322D02*
X15571501Y-12906274D01*
X15571501Y-12906274D02*
X15552453Y-12896750D01*
X15552453Y-12896750D02*
X15523882Y-12896750D01*
X15523882Y-12896750D02*
X15504834Y-12906274D01*
X15504834Y-12906274D02*
X15495310Y-12915798D01*
X15704834Y-13030084D02*
X15685787Y-13020560D01*
X15685787Y-13020560D02*
X15676263Y-13011036D01*
X15676263Y-13011036D02*
X15666739Y-12991988D01*
X15666739Y-12991988D02*
X15666739Y-12934846D01*
X15666739Y-12934846D02*
X15676263Y-12915798D01*
X15676263Y-12915798D02*
X15685787Y-12906274D01*
X15685787Y-12906274D02*
X15704834Y-12896750D01*
X15704834Y-12896750D02*
X15733406Y-12896750D01*
X15733406Y-12896750D02*
X15752453Y-12906274D01*
X15752453Y-12906274D02*
X15761977Y-12915798D01*
X15761977Y-12915798D02*
X15771501Y-12934846D01*
X15771501Y-12934846D02*
X15771501Y-12991988D01*
X15771501Y-12991988D02*
X15761977Y-13011036D01*
X15761977Y-13011036D02*
X15752453Y-13020560D01*
X15752453Y-13020560D02*
X15733406Y-13030084D01*
X15733406Y-13030084D02*
X15704834Y-13030084D01*
X15885787Y-13030084D02*
X15866739Y-13020560D01*
X15866739Y-13020560D02*
X15857215Y-13001512D01*
X15857215Y-13001512D02*
X15857215Y-12830084D01*
X16038168Y-13020560D02*
X16019120Y-13030084D01*
X16019120Y-13030084D02*
X15981025Y-13030084D01*
X15981025Y-13030084D02*
X15961977Y-13020560D01*
X15961977Y-13020560D02*
X15952453Y-13001512D01*
X15952453Y-13001512D02*
X15952453Y-12925322D01*
X15952453Y-12925322D02*
X15961977Y-12906274D01*
X15961977Y-12906274D02*
X15981025Y-12896750D01*
X15981025Y-12896750D02*
X16019120Y-12896750D01*
X16019120Y-12896750D02*
X16038168Y-12906274D01*
X16038168Y-12906274D02*
X16047691Y-12925322D01*
X16047691Y-12925322D02*
X16047691Y-12944369D01*
X16047691Y-12944369D02*
X15952453Y-12963417D01*
X16123882Y-13020560D02*
X16142930Y-13030084D01*
X16142930Y-13030084D02*
X16181025Y-13030084D01*
X16181025Y-13030084D02*
X16200072Y-13020560D01*
X16200072Y-13020560D02*
X16209596Y-13001512D01*
X16209596Y-13001512D02*
X16209596Y-12991988D01*
X16209596Y-12991988D02*
X16200072Y-12972941D01*
X16200072Y-12972941D02*
X16181025Y-12963417D01*
X16181025Y-12963417D02*
X16152453Y-12963417D01*
X16152453Y-12963417D02*
X16133406Y-12953893D01*
X16133406Y-12953893D02*
X16123882Y-12934846D01*
X16123882Y-12934846D02*
X16123882Y-12925322D01*
X16123882Y-12925322D02*
X16133406Y-12906274D01*
X16133406Y-12906274D02*
X16152453Y-12896750D01*
X16152453Y-12896750D02*
X16181025Y-12896750D01*
X16181025Y-12896750D02*
X16200072Y-12906274D01*
X16276263Y-13106274D02*
X16285787Y-13096750D01*
X16285787Y-13096750D02*
X16304834Y-13068179D01*
X16304834Y-13068179D02*
X16314358Y-13049131D01*
X16314358Y-13049131D02*
X16323882Y-13020560D01*
X16323882Y-13020560D02*
X16333406Y-12972941D01*
X16333406Y-12972941D02*
X16333406Y-12934846D01*
X16333406Y-12934846D02*
X16323882Y-12887227D01*
X16323882Y-12887227D02*
X16314358Y-12858655D01*
X16314358Y-12858655D02*
X16304834Y-12839608D01*
X16304834Y-12839608D02*
X16285787Y-12811036D01*
X16285787Y-12811036D02*
X16276263Y-12801512D01*
D10*
X11501200Y-13202600D02*
G75*
G03*
X11501200Y-13202600I-50000J0D01*
G01*
D11*
X11866739Y-13294084D02*
X11752453Y-13294084D01*
X11809596Y-13294084D02*
X11809596Y-13094084D01*
X11809596Y-13094084D02*
X11790548Y-13122655D01*
X11790548Y-13122655D02*
X11771501Y-13141703D01*
X11771501Y-13141703D02*
X11752453Y-13151227D01*
X11952453Y-13275036D02*
X11961977Y-13284560D01*
X11961977Y-13284560D02*
X11952453Y-13294084D01*
X11952453Y-13294084D02*
X11942929Y-13284560D01*
X11942929Y-13284560D02*
X11952453Y-13275036D01*
X11952453Y-13275036D02*
X11952453Y-13294084D01*
X12085786Y-13094084D02*
X12104834Y-13094084D01*
X12104834Y-13094084D02*
X12123882Y-13103608D01*
X12123882Y-13103608D02*
X12133405Y-13113131D01*
X12133405Y-13113131D02*
X12142929Y-13132179D01*
X12142929Y-13132179D02*
X12152453Y-13170274D01*
X12152453Y-13170274D02*
X12152453Y-13217893D01*
X12152453Y-13217893D02*
X12142929Y-13255988D01*
X12142929Y-13255988D02*
X12133405Y-13275036D01*
X12133405Y-13275036D02*
X12123882Y-13284560D01*
X12123882Y-13284560D02*
X12104834Y-13294084D01*
X12104834Y-13294084D02*
X12085786Y-13294084D01*
X12085786Y-13294084D02*
X12066739Y-13284560D01*
X12066739Y-13284560D02*
X12057215Y-13275036D01*
X12057215Y-13275036D02*
X12047691Y-13255988D01*
X12047691Y-13255988D02*
X12038167Y-13217893D01*
X12038167Y-13217893D02*
X12038167Y-13170274D01*
X12038167Y-13170274D02*
X12047691Y-13132179D01*
X12047691Y-13132179D02*
X12057215Y-13113131D01*
X12057215Y-13113131D02*
X12066739Y-13103608D01*
X12066739Y-13103608D02*
X12085786Y-13094084D01*
X12276262Y-13094084D02*
X12295310Y-13094084D01*
X12295310Y-13094084D02*
X12314358Y-13103608D01*
X12314358Y-13103608D02*
X12323882Y-13113131D01*
X12323882Y-13113131D02*
X12333405Y-13132179D01*
X12333405Y-13132179D02*
X12342929Y-13170274D01*
X12342929Y-13170274D02*
X12342929Y-13217893D01*
X12342929Y-13217893D02*
X12333405Y-13255988D01*
X12333405Y-13255988D02*
X12323882Y-13275036D01*
X12323882Y-13275036D02*
X12314358Y-13284560D01*
X12314358Y-13284560D02*
X12295310Y-13294084D01*
X12295310Y-13294084D02*
X12276262Y-13294084D01*
X12276262Y-13294084D02*
X12257215Y-13284560D01*
X12257215Y-13284560D02*
X12247691Y-13275036D01*
X12247691Y-13275036D02*
X12238167Y-13255988D01*
X12238167Y-13255988D02*
X12228643Y-13217893D01*
X12228643Y-13217893D02*
X12228643Y-13170274D01*
X12228643Y-13170274D02*
X12238167Y-13132179D01*
X12238167Y-13132179D02*
X12247691Y-13113131D01*
X12247691Y-13113131D02*
X12257215Y-13103608D01*
X12257215Y-13103608D02*
X12276262Y-13094084D01*
X12466739Y-13094084D02*
X12485786Y-13094084D01*
X12485786Y-13094084D02*
X12504834Y-13103608D01*
X12504834Y-13103608D02*
X12514358Y-13113131D01*
X12514358Y-13113131D02*
X12523882Y-13132179D01*
X12523882Y-13132179D02*
X12533405Y-13170274D01*
X12533405Y-13170274D02*
X12533405Y-13217893D01*
X12533405Y-13217893D02*
X12523882Y-13255988D01*
X12523882Y-13255988D02*
X12514358Y-13275036D01*
X12514358Y-13275036D02*
X12504834Y-13284560D01*
X12504834Y-13284560D02*
X12485786Y-13294084D01*
X12485786Y-13294084D02*
X12466739Y-13294084D01*
X12466739Y-13294084D02*
X12447691Y-13284560D01*
X12447691Y-13284560D02*
X12438167Y-13275036D01*
X12438167Y-13275036D02*
X12428643Y-13255988D01*
X12428643Y-13255988D02*
X12419120Y-13217893D01*
X12419120Y-13217893D02*
X12419120Y-13170274D01*
X12419120Y-13170274D02*
X12428643Y-13132179D01*
X12428643Y-13132179D02*
X12438167Y-13113131D01*
X12438167Y-13113131D02*
X12447691Y-13103608D01*
X12447691Y-13103608D02*
X12466739Y-13094084D01*
X12619120Y-13294084D02*
X12619120Y-13160750D01*
X12619120Y-13179798D02*
X12628643Y-13170274D01*
X12628643Y-13170274D02*
X12647691Y-13160750D01*
X12647691Y-13160750D02*
X12676263Y-13160750D01*
X12676263Y-13160750D02*
X12695310Y-13170274D01*
X12695310Y-13170274D02*
X12704834Y-13189322D01*
X12704834Y-13189322D02*
X12704834Y-13294084D01*
X12704834Y-13189322D02*
X12714358Y-13170274D01*
X12714358Y-13170274D02*
X12733405Y-13160750D01*
X12733405Y-13160750D02*
X12761977Y-13160750D01*
X12761977Y-13160750D02*
X12781024Y-13170274D01*
X12781024Y-13170274D02*
X12790548Y-13189322D01*
X12790548Y-13189322D02*
X12790548Y-13294084D01*
X12885786Y-13294084D02*
X12885786Y-13160750D01*
X12885786Y-13179798D02*
X12895310Y-13170274D01*
X12895310Y-13170274D02*
X12914358Y-13160750D01*
X12914358Y-13160750D02*
X12942929Y-13160750D01*
X12942929Y-13160750D02*
X12961977Y-13170274D01*
X12961977Y-13170274D02*
X12971501Y-13189322D01*
X12971501Y-13189322D02*
X12971501Y-13294084D01*
X12971501Y-13189322D02*
X12981024Y-13170274D01*
X12981024Y-13170274D02*
X13000072Y-13160750D01*
X13000072Y-13160750D02*
X13028643Y-13160750D01*
X13028643Y-13160750D02*
X13047691Y-13170274D01*
X13047691Y-13170274D02*
X13057215Y-13189322D01*
X13057215Y-13189322D02*
X13057215Y-13294084D01*
X13447691Y-13084560D02*
X13276263Y-13341703D01*
X13704834Y-13094084D02*
X13723882Y-13094084D01*
X13723882Y-13094084D02*
X13742929Y-13103608D01*
X13742929Y-13103608D02*
X13752453Y-13113131D01*
X13752453Y-13113131D02*
X13761977Y-13132179D01*
X13761977Y-13132179D02*
X13771501Y-13170274D01*
X13771501Y-13170274D02*
X13771501Y-13217893D01*
X13771501Y-13217893D02*
X13761977Y-13255988D01*
X13761977Y-13255988D02*
X13752453Y-13275036D01*
X13752453Y-13275036D02*
X13742929Y-13284560D01*
X13742929Y-13284560D02*
X13723882Y-13294084D01*
X13723882Y-13294084D02*
X13704834Y-13294084D01*
X13704834Y-13294084D02*
X13685786Y-13284560D01*
X13685786Y-13284560D02*
X13676263Y-13275036D01*
X13676263Y-13275036D02*
X13666739Y-13255988D01*
X13666739Y-13255988D02*
X13657215Y-13217893D01*
X13657215Y-13217893D02*
X13657215Y-13170274D01*
X13657215Y-13170274D02*
X13666739Y-13132179D01*
X13666739Y-13132179D02*
X13676263Y-13113131D01*
X13676263Y-13113131D02*
X13685786Y-13103608D01*
X13685786Y-13103608D02*
X13704834Y-13094084D01*
X13857215Y-13275036D02*
X13866739Y-13284560D01*
X13866739Y-13284560D02*
X13857215Y-13294084D01*
X13857215Y-13294084D02*
X13847691Y-13284560D01*
X13847691Y-13284560D02*
X13857215Y-13275036D01*
X13857215Y-13275036D02*
X13857215Y-13294084D01*
X13990548Y-13094084D02*
X14009596Y-13094084D01*
X14009596Y-13094084D02*
X14028644Y-13103608D01*
X14028644Y-13103608D02*
X14038167Y-13113131D01*
X14038167Y-13113131D02*
X14047691Y-13132179D01*
X14047691Y-13132179D02*
X14057215Y-13170274D01*
X14057215Y-13170274D02*
X14057215Y-13217893D01*
X14057215Y-13217893D02*
X14047691Y-13255988D01*
X14047691Y-13255988D02*
X14038167Y-13275036D01*
X14038167Y-13275036D02*
X14028644Y-13284560D01*
X14028644Y-13284560D02*
X14009596Y-13294084D01*
X14009596Y-13294084D02*
X13990548Y-13294084D01*
X13990548Y-13294084D02*
X13971501Y-13284560D01*
X13971501Y-13284560D02*
X13961977Y-13275036D01*
X13961977Y-13275036D02*
X13952453Y-13255988D01*
X13952453Y-13255988D02*
X13942929Y-13217893D01*
X13942929Y-13217893D02*
X13942929Y-13170274D01*
X13942929Y-13170274D02*
X13952453Y-13132179D01*
X13952453Y-13132179D02*
X13961977Y-13113131D01*
X13961977Y-13113131D02*
X13971501Y-13103608D01*
X13971501Y-13103608D02*
X13990548Y-13094084D01*
X14123882Y-13094084D02*
X14247691Y-13094084D01*
X14247691Y-13094084D02*
X14181025Y-13170274D01*
X14181025Y-13170274D02*
X14209596Y-13170274D01*
X14209596Y-13170274D02*
X14228644Y-13179798D01*
X14228644Y-13179798D02*
X14238167Y-13189322D01*
X14238167Y-13189322D02*
X14247691Y-13208369D01*
X14247691Y-13208369D02*
X14247691Y-13255988D01*
X14247691Y-13255988D02*
X14238167Y-13275036D01*
X14238167Y-13275036D02*
X14228644Y-13284560D01*
X14228644Y-13284560D02*
X14209596Y-13294084D01*
X14209596Y-13294084D02*
X14152453Y-13294084D01*
X14152453Y-13294084D02*
X14133406Y-13284560D01*
X14133406Y-13284560D02*
X14123882Y-13275036D01*
X14342929Y-13294084D02*
X14381025Y-13294084D01*
X14381025Y-13294084D02*
X14400072Y-13284560D01*
X14400072Y-13284560D02*
X14409596Y-13275036D01*
X14409596Y-13275036D02*
X14428644Y-13246465D01*
X14428644Y-13246465D02*
X14438167Y-13208369D01*
X14438167Y-13208369D02*
X14438167Y-13132179D01*
X14438167Y-13132179D02*
X14428644Y-13113131D01*
X14428644Y-13113131D02*
X14419120Y-13103608D01*
X14419120Y-13103608D02*
X14400072Y-13094084D01*
X14400072Y-13094084D02*
X14361977Y-13094084D01*
X14361977Y-13094084D02*
X14342929Y-13103608D01*
X14342929Y-13103608D02*
X14333406Y-13113131D01*
X14333406Y-13113131D02*
X14323882Y-13132179D01*
X14323882Y-13132179D02*
X14323882Y-13179798D01*
X14323882Y-13179798D02*
X14333406Y-13198846D01*
X14333406Y-13198846D02*
X14342929Y-13208369D01*
X14342929Y-13208369D02*
X14361977Y-13217893D01*
X14361977Y-13217893D02*
X14400072Y-13217893D01*
X14400072Y-13217893D02*
X14419120Y-13208369D01*
X14419120Y-13208369D02*
X14428644Y-13198846D01*
X14428644Y-13198846D02*
X14438167Y-13179798D01*
X14609596Y-13160750D02*
X14609596Y-13294084D01*
X14561977Y-13084560D02*
X14514358Y-13227417D01*
X14514358Y-13227417D02*
X14638167Y-13227417D01*
X14704834Y-13094084D02*
X14704834Y-13132179D01*
X14781025Y-13094084D02*
X14781025Y-13132179D01*
X15076263Y-13370274D02*
X15066739Y-13360750D01*
X15066739Y-13360750D02*
X15047691Y-13332179D01*
X15047691Y-13332179D02*
X15038168Y-13313131D01*
X15038168Y-13313131D02*
X15028644Y-13284560D01*
X15028644Y-13284560D02*
X15019120Y-13236941D01*
X15019120Y-13236941D02*
X15019120Y-13198846D01*
X15019120Y-13198846D02*
X15028644Y-13151227D01*
X15028644Y-13151227D02*
X15038168Y-13122655D01*
X15038168Y-13122655D02*
X15047691Y-13103608D01*
X15047691Y-13103608D02*
X15066739Y-13075036D01*
X15066739Y-13075036D02*
X15076263Y-13065512D01*
X15133406Y-13094084D02*
X15257215Y-13094084D01*
X15257215Y-13094084D02*
X15190548Y-13170274D01*
X15190548Y-13170274D02*
X15219120Y-13170274D01*
X15219120Y-13170274D02*
X15238168Y-13179798D01*
X15238168Y-13179798D02*
X15247691Y-13189322D01*
X15247691Y-13189322D02*
X15257215Y-13208369D01*
X15257215Y-13208369D02*
X15257215Y-13255988D01*
X15257215Y-13255988D02*
X15247691Y-13275036D01*
X15247691Y-13275036D02*
X15238168Y-13284560D01*
X15238168Y-13284560D02*
X15219120Y-13294084D01*
X15219120Y-13294084D02*
X15161977Y-13294084D01*
X15161977Y-13294084D02*
X15142929Y-13284560D01*
X15142929Y-13284560D02*
X15133406Y-13275036D01*
X15381025Y-13094084D02*
X15400072Y-13094084D01*
X15400072Y-13094084D02*
X15419120Y-13103608D01*
X15419120Y-13103608D02*
X15428644Y-13113131D01*
X15428644Y-13113131D02*
X15438168Y-13132179D01*
X15438168Y-13132179D02*
X15447691Y-13170274D01*
X15447691Y-13170274D02*
X15447691Y-13217893D01*
X15447691Y-13217893D02*
X15438168Y-13255988D01*
X15438168Y-13255988D02*
X15428644Y-13275036D01*
X15428644Y-13275036D02*
X15419120Y-13284560D01*
X15419120Y-13284560D02*
X15400072Y-13294084D01*
X15400072Y-13294084D02*
X15381025Y-13294084D01*
X15381025Y-13294084D02*
X15361977Y-13284560D01*
X15361977Y-13284560D02*
X15352453Y-13275036D01*
X15352453Y-13275036D02*
X15342929Y-13255988D01*
X15342929Y-13255988D02*
X15333406Y-13217893D01*
X15333406Y-13217893D02*
X15333406Y-13170274D01*
X15333406Y-13170274D02*
X15342929Y-13132179D01*
X15342929Y-13132179D02*
X15352453Y-13113131D01*
X15352453Y-13113131D02*
X15361977Y-13103608D01*
X15361977Y-13103608D02*
X15381025Y-13094084D01*
X15685787Y-13294084D02*
X15685787Y-13094084D01*
X15771501Y-13294084D02*
X15771501Y-13189322D01*
X15771501Y-13189322D02*
X15761977Y-13170274D01*
X15761977Y-13170274D02*
X15742930Y-13160750D01*
X15742930Y-13160750D02*
X15714358Y-13160750D01*
X15714358Y-13160750D02*
X15695310Y-13170274D01*
X15695310Y-13170274D02*
X15685787Y-13179798D01*
X15895310Y-13294084D02*
X15876263Y-13284560D01*
X15876263Y-13284560D02*
X15866739Y-13275036D01*
X15866739Y-13275036D02*
X15857215Y-13255988D01*
X15857215Y-13255988D02*
X15857215Y-13198846D01*
X15857215Y-13198846D02*
X15866739Y-13179798D01*
X15866739Y-13179798D02*
X15876263Y-13170274D01*
X15876263Y-13170274D02*
X15895310Y-13160750D01*
X15895310Y-13160750D02*
X15923882Y-13160750D01*
X15923882Y-13160750D02*
X15942930Y-13170274D01*
X15942930Y-13170274D02*
X15952453Y-13179798D01*
X15952453Y-13179798D02*
X15961977Y-13198846D01*
X15961977Y-13198846D02*
X15961977Y-13255988D01*
X15961977Y-13255988D02*
X15952453Y-13275036D01*
X15952453Y-13275036D02*
X15942930Y-13284560D01*
X15942930Y-13284560D02*
X15923882Y-13294084D01*
X15923882Y-13294084D02*
X15895310Y-13294084D01*
X16076263Y-13294084D02*
X16057215Y-13284560D01*
X16057215Y-13284560D02*
X16047691Y-13265512D01*
X16047691Y-13265512D02*
X16047691Y-13094084D01*
X16228644Y-13284560D02*
X16209596Y-13294084D01*
X16209596Y-13294084D02*
X16171501Y-13294084D01*
X16171501Y-13294084D02*
X16152453Y-13284560D01*
X16152453Y-13284560D02*
X16142930Y-13265512D01*
X16142930Y-13265512D02*
X16142930Y-13189322D01*
X16142930Y-13189322D02*
X16152453Y-13170274D01*
X16152453Y-13170274D02*
X16171501Y-13160750D01*
X16171501Y-13160750D02*
X16209596Y-13160750D01*
X16209596Y-13160750D02*
X16228644Y-13170274D01*
X16228644Y-13170274D02*
X16238168Y-13189322D01*
X16238168Y-13189322D02*
X16238168Y-13208369D01*
X16238168Y-13208369D02*
X16142930Y-13227417D01*
X16314358Y-13284560D02*
X16333406Y-13294084D01*
X16333406Y-13294084D02*
X16371501Y-13294084D01*
X16371501Y-13294084D02*
X16390549Y-13284560D01*
X16390549Y-13284560D02*
X16400072Y-13265512D01*
X16400072Y-13265512D02*
X16400072Y-13255988D01*
X16400072Y-13255988D02*
X16390549Y-13236941D01*
X16390549Y-13236941D02*
X16371501Y-13227417D01*
X16371501Y-13227417D02*
X16342930Y-13227417D01*
X16342930Y-13227417D02*
X16323882Y-13217893D01*
X16323882Y-13217893D02*
X16314358Y-13198846D01*
X16314358Y-13198846D02*
X16314358Y-13189322D01*
X16314358Y-13189322D02*
X16323882Y-13170274D01*
X16323882Y-13170274D02*
X16342930Y-13160750D01*
X16342930Y-13160750D02*
X16371501Y-13160750D01*
X16371501Y-13160750D02*
X16390549Y-13170274D01*
X16466739Y-13370274D02*
X16476263Y-13360750D01*
X16476263Y-13360750D02*
X16495311Y-13332179D01*
X16495311Y-13332179D02*
X16504834Y-13313131D01*
X16504834Y-13313131D02*
X16514358Y-13284560D01*
X16514358Y-13284560D02*
X16523882Y-13236941D01*
X16523882Y-13236941D02*
X16523882Y-13198846D01*
X16523882Y-13198846D02*
X16514358Y-13151227D01*
X16514358Y-13151227D02*
X16504834Y-13122655D01*
X16504834Y-13122655D02*
X16495311Y-13103608D01*
X16495311Y-13103608D02*
X16476263Y-13075036D01*
X16476263Y-13075036D02*
X16466739Y-13065512D01*
D12*
X11436200Y-13401600D02*
X11436200Y-13531600D01*
X11371200Y-13466600D02*
X11501200Y-13466600D01*
D11*
X11866739Y-13558084D02*
X11752453Y-13558084D01*
X11809596Y-13558084D02*
X11809596Y-13358084D01*
X11809596Y-13358084D02*
X11790548Y-13386655D01*
X11790548Y-13386655D02*
X11771501Y-13405703D01*
X11771501Y-13405703D02*
X11752453Y-13415227D01*
X11952453Y-13539036D02*
X11961977Y-13548560D01*
X11961977Y-13548560D02*
X11952453Y-13558084D01*
X11952453Y-13558084D02*
X11942929Y-13548560D01*
X11942929Y-13548560D02*
X11952453Y-13539036D01*
X11952453Y-13539036D02*
X11952453Y-13558084D01*
X12028643Y-13358084D02*
X12152453Y-13358084D01*
X12152453Y-13358084D02*
X12085786Y-13434274D01*
X12085786Y-13434274D02*
X12114358Y-13434274D01*
X12114358Y-13434274D02*
X12133405Y-13443798D01*
X12133405Y-13443798D02*
X12142929Y-13453322D01*
X12142929Y-13453322D02*
X12152453Y-13472369D01*
X12152453Y-13472369D02*
X12152453Y-13519988D01*
X12152453Y-13519988D02*
X12142929Y-13539036D01*
X12142929Y-13539036D02*
X12133405Y-13548560D01*
X12133405Y-13548560D02*
X12114358Y-13558084D01*
X12114358Y-13558084D02*
X12057215Y-13558084D01*
X12057215Y-13558084D02*
X12038167Y-13548560D01*
X12038167Y-13548560D02*
X12028643Y-13539036D01*
X12276262Y-13358084D02*
X12295310Y-13358084D01*
X12295310Y-13358084D02*
X12314358Y-13367608D01*
X12314358Y-13367608D02*
X12323882Y-13377131D01*
X12323882Y-13377131D02*
X12333405Y-13396179D01*
X12333405Y-13396179D02*
X12342929Y-13434274D01*
X12342929Y-13434274D02*
X12342929Y-13481893D01*
X12342929Y-13481893D02*
X12333405Y-13519988D01*
X12333405Y-13519988D02*
X12323882Y-13539036D01*
X12323882Y-13539036D02*
X12314358Y-13548560D01*
X12314358Y-13548560D02*
X12295310Y-13558084D01*
X12295310Y-13558084D02*
X12276262Y-13558084D01*
X12276262Y-13558084D02*
X12257215Y-13548560D01*
X12257215Y-13548560D02*
X12247691Y-13539036D01*
X12247691Y-13539036D02*
X12238167Y-13519988D01*
X12238167Y-13519988D02*
X12228643Y-13481893D01*
X12228643Y-13481893D02*
X12228643Y-13434274D01*
X12228643Y-13434274D02*
X12238167Y-13396179D01*
X12238167Y-13396179D02*
X12247691Y-13377131D01*
X12247691Y-13377131D02*
X12257215Y-13367608D01*
X12257215Y-13367608D02*
X12276262Y-13358084D01*
X12466739Y-13358084D02*
X12485786Y-13358084D01*
X12485786Y-13358084D02*
X12504834Y-13367608D01*
X12504834Y-13367608D02*
X12514358Y-13377131D01*
X12514358Y-13377131D02*
X12523882Y-13396179D01*
X12523882Y-13396179D02*
X12533405Y-13434274D01*
X12533405Y-13434274D02*
X12533405Y-13481893D01*
X12533405Y-13481893D02*
X12523882Y-13519988D01*
X12523882Y-13519988D02*
X12514358Y-13539036D01*
X12514358Y-13539036D02*
X12504834Y-13548560D01*
X12504834Y-13548560D02*
X12485786Y-13558084D01*
X12485786Y-13558084D02*
X12466739Y-13558084D01*
X12466739Y-13558084D02*
X12447691Y-13548560D01*
X12447691Y-13548560D02*
X12438167Y-13539036D01*
X12438167Y-13539036D02*
X12428643Y-13519988D01*
X12428643Y-13519988D02*
X12419120Y-13481893D01*
X12419120Y-13481893D02*
X12419120Y-13434274D01*
X12419120Y-13434274D02*
X12428643Y-13396179D01*
X12428643Y-13396179D02*
X12438167Y-13377131D01*
X12438167Y-13377131D02*
X12447691Y-13367608D01*
X12447691Y-13367608D02*
X12466739Y-13358084D01*
X12619120Y-13558084D02*
X12619120Y-13424750D01*
X12619120Y-13443798D02*
X12628643Y-13434274D01*
X12628643Y-13434274D02*
X12647691Y-13424750D01*
X12647691Y-13424750D02*
X12676263Y-13424750D01*
X12676263Y-13424750D02*
X12695310Y-13434274D01*
X12695310Y-13434274D02*
X12704834Y-13453322D01*
X12704834Y-13453322D02*
X12704834Y-13558084D01*
X12704834Y-13453322D02*
X12714358Y-13434274D01*
X12714358Y-13434274D02*
X12733405Y-13424750D01*
X12733405Y-13424750D02*
X12761977Y-13424750D01*
X12761977Y-13424750D02*
X12781024Y-13434274D01*
X12781024Y-13434274D02*
X12790548Y-13453322D01*
X12790548Y-13453322D02*
X12790548Y-13558084D01*
X12885786Y-13558084D02*
X12885786Y-13424750D01*
X12885786Y-13443798D02*
X12895310Y-13434274D01*
X12895310Y-13434274D02*
X12914358Y-13424750D01*
X12914358Y-13424750D02*
X12942929Y-13424750D01*
X12942929Y-13424750D02*
X12961977Y-13434274D01*
X12961977Y-13434274D02*
X12971501Y-13453322D01*
X12971501Y-13453322D02*
X12971501Y-13558084D01*
X12971501Y-13453322D02*
X12981024Y-13434274D01*
X12981024Y-13434274D02*
X13000072Y-13424750D01*
X13000072Y-13424750D02*
X13028643Y-13424750D01*
X13028643Y-13424750D02*
X13047691Y-13434274D01*
X13047691Y-13434274D02*
X13057215Y-13453322D01*
X13057215Y-13453322D02*
X13057215Y-13558084D01*
X13447691Y-13348560D02*
X13276263Y-13605703D01*
X13704834Y-13358084D02*
X13723882Y-13358084D01*
X13723882Y-13358084D02*
X13742929Y-13367608D01*
X13742929Y-13367608D02*
X13752453Y-13377131D01*
X13752453Y-13377131D02*
X13761977Y-13396179D01*
X13761977Y-13396179D02*
X13771501Y-13434274D01*
X13771501Y-13434274D02*
X13771501Y-13481893D01*
X13771501Y-13481893D02*
X13761977Y-13519988D01*
X13761977Y-13519988D02*
X13752453Y-13539036D01*
X13752453Y-13539036D02*
X13742929Y-13548560D01*
X13742929Y-13548560D02*
X13723882Y-13558084D01*
X13723882Y-13558084D02*
X13704834Y-13558084D01*
X13704834Y-13558084D02*
X13685786Y-13548560D01*
X13685786Y-13548560D02*
X13676263Y-13539036D01*
X13676263Y-13539036D02*
X13666739Y-13519988D01*
X13666739Y-13519988D02*
X13657215Y-13481893D01*
X13657215Y-13481893D02*
X13657215Y-13434274D01*
X13657215Y-13434274D02*
X13666739Y-13396179D01*
X13666739Y-13396179D02*
X13676263Y-13377131D01*
X13676263Y-13377131D02*
X13685786Y-13367608D01*
X13685786Y-13367608D02*
X13704834Y-13358084D01*
X13857215Y-13539036D02*
X13866739Y-13548560D01*
X13866739Y-13548560D02*
X13857215Y-13558084D01*
X13857215Y-13558084D02*
X13847691Y-13548560D01*
X13847691Y-13548560D02*
X13857215Y-13539036D01*
X13857215Y-13539036D02*
X13857215Y-13558084D01*
X13990548Y-13358084D02*
X14009596Y-13358084D01*
X14009596Y-13358084D02*
X14028644Y-13367608D01*
X14028644Y-13367608D02*
X14038167Y-13377131D01*
X14038167Y-13377131D02*
X14047691Y-13396179D01*
X14047691Y-13396179D02*
X14057215Y-13434274D01*
X14057215Y-13434274D02*
X14057215Y-13481893D01*
X14057215Y-13481893D02*
X14047691Y-13519988D01*
X14047691Y-13519988D02*
X14038167Y-13539036D01*
X14038167Y-13539036D02*
X14028644Y-13548560D01*
X14028644Y-13548560D02*
X14009596Y-13558084D01*
X14009596Y-13558084D02*
X13990548Y-13558084D01*
X13990548Y-13558084D02*
X13971501Y-13548560D01*
X13971501Y-13548560D02*
X13961977Y-13539036D01*
X13961977Y-13539036D02*
X13952453Y-13519988D01*
X13952453Y-13519988D02*
X13942929Y-13481893D01*
X13942929Y-13481893D02*
X13942929Y-13434274D01*
X13942929Y-13434274D02*
X13952453Y-13396179D01*
X13952453Y-13396179D02*
X13961977Y-13377131D01*
X13961977Y-13377131D02*
X13971501Y-13367608D01*
X13971501Y-13367608D02*
X13990548Y-13358084D01*
X14238167Y-13358084D02*
X14142929Y-13358084D01*
X14142929Y-13358084D02*
X14133406Y-13453322D01*
X14133406Y-13453322D02*
X14142929Y-13443798D01*
X14142929Y-13443798D02*
X14161977Y-13434274D01*
X14161977Y-13434274D02*
X14209596Y-13434274D01*
X14209596Y-13434274D02*
X14228644Y-13443798D01*
X14228644Y-13443798D02*
X14238167Y-13453322D01*
X14238167Y-13453322D02*
X14247691Y-13472369D01*
X14247691Y-13472369D02*
X14247691Y-13519988D01*
X14247691Y-13519988D02*
X14238167Y-13539036D01*
X14238167Y-13539036D02*
X14228644Y-13548560D01*
X14228644Y-13548560D02*
X14209596Y-13558084D01*
X14209596Y-13558084D02*
X14161977Y-13558084D01*
X14161977Y-13558084D02*
X14142929Y-13548560D01*
X14142929Y-13548560D02*
X14133406Y-13539036D01*
X14438167Y-13558084D02*
X14323882Y-13558084D01*
X14381025Y-13558084D02*
X14381025Y-13358084D01*
X14381025Y-13358084D02*
X14361977Y-13386655D01*
X14361977Y-13386655D02*
X14342929Y-13405703D01*
X14342929Y-13405703D02*
X14323882Y-13415227D01*
X14514358Y-13377131D02*
X14523882Y-13367608D01*
X14523882Y-13367608D02*
X14542929Y-13358084D01*
X14542929Y-13358084D02*
X14590548Y-13358084D01*
X14590548Y-13358084D02*
X14609596Y-13367608D01*
X14609596Y-13367608D02*
X14619120Y-13377131D01*
X14619120Y-13377131D02*
X14628644Y-13396179D01*
X14628644Y-13396179D02*
X14628644Y-13415227D01*
X14628644Y-13415227D02*
X14619120Y-13443798D01*
X14619120Y-13443798D02*
X14504834Y-13558084D01*
X14504834Y-13558084D02*
X14628644Y-13558084D01*
X14704834Y-13358084D02*
X14704834Y-13396179D01*
X14781025Y-13358084D02*
X14781025Y-13396179D01*
X15076263Y-13634274D02*
X15066739Y-13624750D01*
X15066739Y-13624750D02*
X15047691Y-13596179D01*
X15047691Y-13596179D02*
X15038168Y-13577131D01*
X15038168Y-13577131D02*
X15028644Y-13548560D01*
X15028644Y-13548560D02*
X15019120Y-13500941D01*
X15019120Y-13500941D02*
X15019120Y-13462846D01*
X15019120Y-13462846D02*
X15028644Y-13415227D01*
X15028644Y-13415227D02*
X15038168Y-13386655D01*
X15038168Y-13386655D02*
X15047691Y-13367608D01*
X15047691Y-13367608D02*
X15066739Y-13339036D01*
X15066739Y-13339036D02*
X15076263Y-13329512D01*
X15247691Y-13358084D02*
X15152453Y-13358084D01*
X15152453Y-13358084D02*
X15142929Y-13453322D01*
X15142929Y-13453322D02*
X15152453Y-13443798D01*
X15152453Y-13443798D02*
X15171501Y-13434274D01*
X15171501Y-13434274D02*
X15219120Y-13434274D01*
X15219120Y-13434274D02*
X15238168Y-13443798D01*
X15238168Y-13443798D02*
X15247691Y-13453322D01*
X15247691Y-13453322D02*
X15257215Y-13472369D01*
X15257215Y-13472369D02*
X15257215Y-13519988D01*
X15257215Y-13519988D02*
X15247691Y-13539036D01*
X15247691Y-13539036D02*
X15238168Y-13548560D01*
X15238168Y-13548560D02*
X15219120Y-13558084D01*
X15219120Y-13558084D02*
X15171501Y-13558084D01*
X15171501Y-13558084D02*
X15152453Y-13548560D01*
X15152453Y-13548560D02*
X15142929Y-13539036D01*
X15495310Y-13558084D02*
X15495310Y-13358084D01*
X15581025Y-13558084D02*
X15581025Y-13453322D01*
X15581025Y-13453322D02*
X15571501Y-13434274D01*
X15571501Y-13434274D02*
X15552453Y-13424750D01*
X15552453Y-13424750D02*
X15523882Y-13424750D01*
X15523882Y-13424750D02*
X15504834Y-13434274D01*
X15504834Y-13434274D02*
X15495310Y-13443798D01*
X15704834Y-13558084D02*
X15685787Y-13548560D01*
X15685787Y-13548560D02*
X15676263Y-13539036D01*
X15676263Y-13539036D02*
X15666739Y-13519988D01*
X15666739Y-13519988D02*
X15666739Y-13462846D01*
X15666739Y-13462846D02*
X15676263Y-13443798D01*
X15676263Y-13443798D02*
X15685787Y-13434274D01*
X15685787Y-13434274D02*
X15704834Y-13424750D01*
X15704834Y-13424750D02*
X15733406Y-13424750D01*
X15733406Y-13424750D02*
X15752453Y-13434274D01*
X15752453Y-13434274D02*
X15761977Y-13443798D01*
X15761977Y-13443798D02*
X15771501Y-13462846D01*
X15771501Y-13462846D02*
X15771501Y-13519988D01*
X15771501Y-13519988D02*
X15761977Y-13539036D01*
X15761977Y-13539036D02*
X15752453Y-13548560D01*
X15752453Y-13548560D02*
X15733406Y-13558084D01*
X15733406Y-13558084D02*
X15704834Y-13558084D01*
X15885787Y-13558084D02*
X15866739Y-13548560D01*
X15866739Y-13548560D02*
X15857215Y-13529512D01*
X15857215Y-13529512D02*
X15857215Y-13358084D01*
X16038168Y-13548560D02*
X16019120Y-13558084D01*
X16019120Y-13558084D02*
X15981025Y-13558084D01*
X15981025Y-13558084D02*
X15961977Y-13548560D01*
X15961977Y-13548560D02*
X15952453Y-13529512D01*
X15952453Y-13529512D02*
X15952453Y-13453322D01*
X15952453Y-13453322D02*
X15961977Y-13434274D01*
X15961977Y-13434274D02*
X15981025Y-13424750D01*
X15981025Y-13424750D02*
X16019120Y-13424750D01*
X16019120Y-13424750D02*
X16038168Y-13434274D01*
X16038168Y-13434274D02*
X16047691Y-13453322D01*
X16047691Y-13453322D02*
X16047691Y-13472369D01*
X16047691Y-13472369D02*
X15952453Y-13491417D01*
X16123882Y-13548560D02*
X16142930Y-13558084D01*
X16142930Y-13558084D02*
X16181025Y-13558084D01*
X16181025Y-13558084D02*
X16200072Y-13548560D01*
X16200072Y-13548560D02*
X16209596Y-13529512D01*
X16209596Y-13529512D02*
X16209596Y-13519988D01*
X16209596Y-13519988D02*
X16200072Y-13500941D01*
X16200072Y-13500941D02*
X16181025Y-13491417D01*
X16181025Y-13491417D02*
X16152453Y-13491417D01*
X16152453Y-13491417D02*
X16133406Y-13481893D01*
X16133406Y-13481893D02*
X16123882Y-13462846D01*
X16123882Y-13462846D02*
X16123882Y-13453322D01*
X16123882Y-13453322D02*
X16133406Y-13434274D01*
X16133406Y-13434274D02*
X16152453Y-13424750D01*
X16152453Y-13424750D02*
X16181025Y-13424750D01*
X16181025Y-13424750D02*
X16200072Y-13434274D01*
X16276263Y-13634274D02*
X16285787Y-13624750D01*
X16285787Y-13624750D02*
X16304834Y-13596179D01*
X16304834Y-13596179D02*
X16314358Y-13577131D01*
X16314358Y-13577131D02*
X16323882Y-13548560D01*
X16323882Y-13548560D02*
X16333406Y-13500941D01*
X16333406Y-13500941D02*
X16333406Y-13462846D01*
X16333406Y-13462846D02*
X16323882Y-13415227D01*
X16323882Y-13415227D02*
X16314358Y-13386655D01*
X16314358Y-13386655D02*
X16304834Y-13367608D01*
X16304834Y-13367608D02*
X16285787Y-13339036D01*
X16285787Y-13339036D02*
X16276263Y-13329512D01*
M02*
