%TF.GenerationSoftware,KiCad,Pcbnew,7.0.8*%
%TF.CreationDate,2023-11-02T18:23:29-07:00*%
%TF.ProjectId,RatGDO-OpenSource-D1Mini-ESP8266,52617447-444f-42d4-9f70-656e536f7572,2.5.0*%
%TF.SameCoordinates,Original*%
%TF.FileFunction,Soldermask,Top*%
%TF.FilePolarity,Negative*%
%FSLAX46Y46*%
G04 Gerber Fmt 4.6, Leading zero omitted, Abs format (unit mm)*
G04 Created by KiCad (PCBNEW 7.0.8) date 2023-11-02 18:23:29*
%MOMM*%
%LPD*%
G01*
G04 APERTURE LIST*
G04 Aperture macros list*
%AMRoundRect*
0 Rectangle with rounded corners*
0 $1 Rounding radius*
0 $2 $3 $4 $5 $6 $7 $8 $9 X,Y pos of 4 corners*
0 Add a 4 corners polygon primitive as box body*
4,1,4,$2,$3,$4,$5,$6,$7,$8,$9,$2,$3,0*
0 Add four circle primitives for the rounded corners*
1,1,$1+$1,$2,$3*
1,1,$1+$1,$4,$5*
1,1,$1+$1,$6,$7*
1,1,$1+$1,$8,$9*
0 Add four rect primitives between the rounded corners*
20,1,$1+$1,$2,$3,$4,$5,0*
20,1,$1+$1,$4,$5,$6,$7,0*
20,1,$1+$1,$6,$7,$8,$9,0*
20,1,$1+$1,$8,$9,$2,$3,0*%
G04 Aperture macros list end*
%ADD10RoundRect,0.250000X-0.262500X-0.450000X0.262500X-0.450000X0.262500X0.450000X-0.262500X0.450000X0*%
%ADD11RoundRect,0.150000X0.587500X0.150000X-0.587500X0.150000X-0.587500X-0.150000X0.587500X-0.150000X0*%
%ADD12C,5.000000*%
%ADD13RoundRect,0.250000X0.250000X-0.250000X0.250000X0.250000X-0.250000X0.250000X-0.250000X-0.250000X0*%
%ADD14R,2.000000X2.000000*%
%ADD15O,2.000000X1.600000*%
%ADD16RoundRect,0.150000X-0.587500X-0.150000X0.587500X-0.150000X0.587500X0.150000X-0.587500X0.150000X0*%
%ADD17RoundRect,0.250000X0.262500X0.450000X-0.262500X0.450000X-0.262500X-0.450000X0.262500X-0.450000X0*%
%ADD18R,2.600000X2.600000*%
%ADD19C,2.600000*%
%ADD20R,1.700000X1.700000*%
%ADD21O,1.700000X1.700000*%
G04 APERTURE END LIST*
D10*
%TO.C,R3*%
X158195000Y-71215222D03*
X160020000Y-71215222D03*
%TD*%
D11*
%TO.C,Q3*%
X124127500Y-71562000D03*
X124127500Y-69662000D03*
X122252500Y-70612000D03*
%TD*%
D12*
%TO.C,REF\u002A\u002A*%
X162560000Y-63500000D03*
%TD*%
D13*
%TO.C,D1*%
X152908000Y-100056000D03*
X152908000Y-97556000D03*
%TD*%
D12*
%TO.C,REF\u002A\u002A*%
X162560000Y-116840000D03*
%TD*%
D14*
%TO.C,U1*%
X129547500Y-66040000D03*
D15*
X129547500Y-68580000D03*
X129547500Y-71120000D03*
X129547500Y-73660000D03*
X129547500Y-76200000D03*
X129547500Y-78740000D03*
X129547500Y-81280000D03*
X129547500Y-83820000D03*
X152407500Y-83820000D03*
X152407500Y-81280000D03*
X152407500Y-78740000D03*
X152407500Y-76200000D03*
X152407500Y-73660000D03*
X152407500Y-71120000D03*
X152407500Y-68580000D03*
X152407500Y-66040000D03*
%TD*%
D12*
%TO.C,REF\u002A\u002A*%
X120650000Y-116840000D03*
%TD*%
D11*
%TO.C,Q4*%
X124127500Y-87630000D03*
X124127500Y-85730000D03*
X122252500Y-86680000D03*
%TD*%
D12*
%TO.C,REF\u002A\u002A*%
X120650000Y-63500000D03*
%TD*%
D13*
%TO.C,D2*%
X155448000Y-100056000D03*
X155448000Y-97556000D03*
%TD*%
D16*
%TO.C,Q2*%
X158071757Y-73632843D03*
X158071757Y-75532843D03*
X159946757Y-74582843D03*
%TD*%
D13*
%TO.C,D3*%
X157988000Y-100056000D03*
X157988000Y-97556000D03*
%TD*%
D17*
%TO.C,R5*%
X124102500Y-90170000D03*
X122277500Y-90170000D03*
%TD*%
D11*
%TO.C,Q1*%
X159946757Y-80709515D03*
X159946757Y-78809515D03*
X158071757Y-79759515D03*
%TD*%
D18*
%TO.C,J1*%
X124714000Y-98298000D03*
D19*
X124714000Y-103298000D03*
X124714000Y-108298000D03*
%TD*%
D17*
%TO.C,R4*%
X124102500Y-74930000D03*
X122277500Y-74930000D03*
%TD*%
%TO.C,R2*%
X124102500Y-78740000D03*
X122277500Y-78740000D03*
%TD*%
D10*
%TO.C,R1*%
X122277500Y-82550000D03*
X124102500Y-82550000D03*
%TD*%
D20*
%TO.C,J2*%
X140208000Y-107061000D03*
D21*
X142748000Y-107061000D03*
X145288000Y-107061000D03*
X147828000Y-107061000D03*
X150368000Y-107061000D03*
X152908000Y-107061000D03*
X155448000Y-107061000D03*
X157988000Y-107061000D03*
X160528000Y-107061000D03*
X163068000Y-107061000D03*
%TD*%
M02*
