M48
; DRILL file {KiCad 7.0.8} date Thu Nov  2 18:20:30 2023
; FORMAT={-:-/ absolute / inch / decimal}
; #@! TF.CreationDate,2023-11-02T18:20:30-07:00
; #@! TF.GenerationSoftware,Kicad,Pcbnew,7.0.8
; #@! TF.FileFunction,Plated,1,2,PTH
FMAT,2
INCH
; #@! TA.AperFunction,Plated,PTH,ViaDrill
T1C0.0157
; #@! TA.AperFunction,Plated,PTH,ComponentDrill
T2C0.0394
; #@! TA.AperFunction,Plated,PTH,ComponentDrill
T3C0.0512
%
G90
G05
T1
X4.81Y-2.86
X5.82Y-3.93
T2
X5.1003Y-2.6
X5.1003Y-2.7
X5.1003Y-2.8
X5.1003Y-2.9
X5.1003Y-3.0
X5.1003Y-3.1
X5.1003Y-3.2
X5.1003Y-3.3
X5.52Y-4.215
X5.62Y-4.215
X5.72Y-4.215
X5.82Y-4.215
X5.92Y-4.215
X6.0003Y-2.6
X6.0003Y-2.7
X6.0003Y-2.8
X6.0003Y-2.9
X6.0003Y-3.0
X6.0003Y-3.1
X6.0003Y-3.2
X6.0003Y-3.3
X6.02Y-4.215
X6.12Y-4.215
X6.22Y-4.215
X6.32Y-4.215
X6.42Y-4.215
T3
X4.91Y-3.87
X4.91Y-4.0669
X4.91Y-4.2637
T0
M30
