%TF.GenerationSoftware,KiCad,Pcbnew,7.0.8*%
%TF.CreationDate,2023-11-03T12:49:23-07:00*%
%TF.ProjectId,RatGDO-OpenSource-D1Mini-ESP8266,52617447-444f-42d4-9f70-656e536f7572,2.5.0*%
%TF.SameCoordinates,Original*%
%TF.FileFunction,Legend,Top*%
%TF.FilePolarity,Positive*%
%FSLAX46Y46*%
G04 Gerber Fmt 4.6, Leading zero omitted, Abs format (unit mm)*
G04 Created by KiCad (PCBNEW 7.0.8) date 2023-11-03 12:49:23*
%MOMM*%
%LPD*%
G01*
G04 APERTURE LIST*
%ADD10C,0.150000*%
%ADD11C,0.300000*%
%ADD12C,0.120000*%
G04 APERTURE END LIST*
D10*
X117818180Y-102735142D02*
X118294371Y-102401809D01*
X117818180Y-102163714D02*
X118818180Y-102163714D01*
X118818180Y-102163714D02*
X118818180Y-102544666D01*
X118818180Y-102544666D02*
X118770561Y-102639904D01*
X118770561Y-102639904D02*
X118722942Y-102687523D01*
X118722942Y-102687523D02*
X118627704Y-102735142D01*
X118627704Y-102735142D02*
X118484847Y-102735142D01*
X118484847Y-102735142D02*
X118389609Y-102687523D01*
X118389609Y-102687523D02*
X118341990Y-102639904D01*
X118341990Y-102639904D02*
X118294371Y-102544666D01*
X118294371Y-102544666D02*
X118294371Y-102163714D01*
X118341990Y-103163714D02*
X118341990Y-103497047D01*
X117818180Y-103639904D02*
X117818180Y-103163714D01*
X117818180Y-103163714D02*
X118818180Y-103163714D01*
X118818180Y-103163714D02*
X118818180Y-103639904D01*
X117818180Y-104068476D02*
X118818180Y-104068476D01*
X118818180Y-104068476D02*
X118818180Y-104306571D01*
X118818180Y-104306571D02*
X118770561Y-104449428D01*
X118770561Y-104449428D02*
X118675323Y-104544666D01*
X118675323Y-104544666D02*
X118580085Y-104592285D01*
X118580085Y-104592285D02*
X118389609Y-104639904D01*
X118389609Y-104639904D02*
X118246752Y-104639904D01*
X118246752Y-104639904D02*
X118056276Y-104592285D01*
X118056276Y-104592285D02*
X117961038Y-104544666D01*
X117961038Y-104544666D02*
X117865800Y-104449428D01*
X117865800Y-104449428D02*
X117818180Y-104306571D01*
X117818180Y-104306571D02*
X117818180Y-104068476D01*
X116303419Y-102401809D02*
X116255800Y-102354190D01*
X116255800Y-102354190D02*
X116208180Y-102211333D01*
X116208180Y-102211333D02*
X116208180Y-102116095D01*
X116208180Y-102116095D02*
X116255800Y-101973238D01*
X116255800Y-101973238D02*
X116351038Y-101878000D01*
X116351038Y-101878000D02*
X116446276Y-101830381D01*
X116446276Y-101830381D02*
X116636752Y-101782762D01*
X116636752Y-101782762D02*
X116779609Y-101782762D01*
X116779609Y-101782762D02*
X116970085Y-101830381D01*
X116970085Y-101830381D02*
X117065323Y-101878000D01*
X117065323Y-101878000D02*
X117160561Y-101973238D01*
X117160561Y-101973238D02*
X117208180Y-102116095D01*
X117208180Y-102116095D02*
X117208180Y-102211333D01*
X117208180Y-102211333D02*
X117160561Y-102354190D01*
X117160561Y-102354190D02*
X117112942Y-102401809D01*
X117208180Y-102687524D02*
X117208180Y-103258952D01*
X116208180Y-102973238D02*
X117208180Y-102973238D01*
X116208180Y-104163714D02*
X116684371Y-103830381D01*
X116208180Y-103592286D02*
X117208180Y-103592286D01*
X117208180Y-103592286D02*
X117208180Y-103973238D01*
X117208180Y-103973238D02*
X117160561Y-104068476D01*
X117160561Y-104068476D02*
X117112942Y-104116095D01*
X117112942Y-104116095D02*
X117017704Y-104163714D01*
X117017704Y-104163714D02*
X116874847Y-104163714D01*
X116874847Y-104163714D02*
X116779609Y-104116095D01*
X116779609Y-104116095D02*
X116731990Y-104068476D01*
X116731990Y-104068476D02*
X116684371Y-103973238D01*
X116684371Y-103973238D02*
X116684371Y-103592286D01*
X116208180Y-105068476D02*
X116208180Y-104592286D01*
X116208180Y-104592286D02*
X117208180Y-104592286D01*
X153594016Y-106041819D02*
X153260683Y-105565628D01*
X153022588Y-106041819D02*
X153022588Y-105041819D01*
X153022588Y-105041819D02*
X153403540Y-105041819D01*
X153403540Y-105041819D02*
X153498778Y-105089438D01*
X153498778Y-105089438D02*
X153546397Y-105137057D01*
X153546397Y-105137057D02*
X153594016Y-105232295D01*
X153594016Y-105232295D02*
X153594016Y-105375152D01*
X153594016Y-105375152D02*
X153546397Y-105470390D01*
X153546397Y-105470390D02*
X153498778Y-105518009D01*
X153498778Y-105518009D02*
X153403540Y-105565628D01*
X153403540Y-105565628D02*
X153022588Y-105565628D01*
X154022588Y-105518009D02*
X154355921Y-105518009D01*
X154498778Y-106041819D02*
X154022588Y-106041819D01*
X154022588Y-106041819D02*
X154022588Y-105041819D01*
X154022588Y-105041819D02*
X154498778Y-105041819D01*
X154927350Y-106041819D02*
X154927350Y-105041819D01*
X154927350Y-105041819D02*
X155165445Y-105041819D01*
X155165445Y-105041819D02*
X155308302Y-105089438D01*
X155308302Y-105089438D02*
X155403540Y-105184676D01*
X155403540Y-105184676D02*
X155451159Y-105279914D01*
X155451159Y-105279914D02*
X155498778Y-105470390D01*
X155498778Y-105470390D02*
X155498778Y-105613247D01*
X155498778Y-105613247D02*
X155451159Y-105803723D01*
X155451159Y-105803723D02*
X155403540Y-105898961D01*
X155403540Y-105898961D02*
X155308302Y-105994200D01*
X155308302Y-105994200D02*
X155165445Y-106041819D01*
X155165445Y-106041819D02*
X154927350Y-106041819D01*
X156641635Y-104994200D02*
X155784493Y-106279914D01*
X157546397Y-105946580D02*
X157498778Y-105994200D01*
X157498778Y-105994200D02*
X157355921Y-106041819D01*
X157355921Y-106041819D02*
X157260683Y-106041819D01*
X157260683Y-106041819D02*
X157117826Y-105994200D01*
X157117826Y-105994200D02*
X157022588Y-105898961D01*
X157022588Y-105898961D02*
X156974969Y-105803723D01*
X156974969Y-105803723D02*
X156927350Y-105613247D01*
X156927350Y-105613247D02*
X156927350Y-105470390D01*
X156927350Y-105470390D02*
X156974969Y-105279914D01*
X156974969Y-105279914D02*
X157022588Y-105184676D01*
X157022588Y-105184676D02*
X157117826Y-105089438D01*
X157117826Y-105089438D02*
X157260683Y-105041819D01*
X157260683Y-105041819D02*
X157355921Y-105041819D01*
X157355921Y-105041819D02*
X157498778Y-105089438D01*
X157498778Y-105089438D02*
X157546397Y-105137057D01*
X157832112Y-105041819D02*
X158403540Y-105041819D01*
X158117826Y-106041819D02*
X158117826Y-105041819D01*
X159308302Y-106041819D02*
X158974969Y-105565628D01*
X158736874Y-106041819D02*
X158736874Y-105041819D01*
X158736874Y-105041819D02*
X159117826Y-105041819D01*
X159117826Y-105041819D02*
X159213064Y-105089438D01*
X159213064Y-105089438D02*
X159260683Y-105137057D01*
X159260683Y-105137057D02*
X159308302Y-105232295D01*
X159308302Y-105232295D02*
X159308302Y-105375152D01*
X159308302Y-105375152D02*
X159260683Y-105470390D01*
X159260683Y-105470390D02*
X159213064Y-105518009D01*
X159213064Y-105518009D02*
X159117826Y-105565628D01*
X159117826Y-105565628D02*
X158736874Y-105565628D01*
X160213064Y-106041819D02*
X159736874Y-106041819D01*
X159736874Y-106041819D02*
X159736874Y-105041819D01*
D11*
X141365653Y-114604828D02*
X140865653Y-113890542D01*
X140508510Y-114604828D02*
X140508510Y-113104828D01*
X140508510Y-113104828D02*
X141079939Y-113104828D01*
X141079939Y-113104828D02*
X141222796Y-113176257D01*
X141222796Y-113176257D02*
X141294225Y-113247685D01*
X141294225Y-113247685D02*
X141365653Y-113390542D01*
X141365653Y-113390542D02*
X141365653Y-113604828D01*
X141365653Y-113604828D02*
X141294225Y-113747685D01*
X141294225Y-113747685D02*
X141222796Y-113819114D01*
X141222796Y-113819114D02*
X141079939Y-113890542D01*
X141079939Y-113890542D02*
X140508510Y-113890542D01*
X141937082Y-114176257D02*
X142651368Y-114176257D01*
X141794225Y-114604828D02*
X142294225Y-113104828D01*
X142294225Y-113104828D02*
X142794225Y-114604828D01*
X143079939Y-113104828D02*
X143937082Y-113104828D01*
X143508510Y-114604828D02*
X143508510Y-113104828D01*
X144437081Y-114033400D02*
X145579939Y-114033400D01*
X147151367Y-114604828D02*
X146651367Y-113890542D01*
X146294224Y-114604828D02*
X146294224Y-113104828D01*
X146294224Y-113104828D02*
X146865653Y-113104828D01*
X146865653Y-113104828D02*
X147008510Y-113176257D01*
X147008510Y-113176257D02*
X147079939Y-113247685D01*
X147079939Y-113247685D02*
X147151367Y-113390542D01*
X147151367Y-113390542D02*
X147151367Y-113604828D01*
X147151367Y-113604828D02*
X147079939Y-113747685D01*
X147079939Y-113747685D02*
X147008510Y-113819114D01*
X147008510Y-113819114D02*
X146865653Y-113890542D01*
X146865653Y-113890542D02*
X146294224Y-113890542D01*
X147722796Y-114176257D02*
X148437082Y-114176257D01*
X147579939Y-114604828D02*
X148079939Y-113104828D01*
X148079939Y-113104828D02*
X148579939Y-114604828D01*
X148865653Y-113104828D02*
X149722796Y-113104828D01*
X149294224Y-114604828D02*
X149294224Y-113104828D01*
X151008510Y-113176257D02*
X150865653Y-113104828D01*
X150865653Y-113104828D02*
X150651367Y-113104828D01*
X150651367Y-113104828D02*
X150437081Y-113176257D01*
X150437081Y-113176257D02*
X150294224Y-113319114D01*
X150294224Y-113319114D02*
X150222795Y-113461971D01*
X150222795Y-113461971D02*
X150151367Y-113747685D01*
X150151367Y-113747685D02*
X150151367Y-113961971D01*
X150151367Y-113961971D02*
X150222795Y-114247685D01*
X150222795Y-114247685D02*
X150294224Y-114390542D01*
X150294224Y-114390542D02*
X150437081Y-114533400D01*
X150437081Y-114533400D02*
X150651367Y-114604828D01*
X150651367Y-114604828D02*
X150794224Y-114604828D01*
X150794224Y-114604828D02*
X151008510Y-114533400D01*
X151008510Y-114533400D02*
X151079938Y-114461971D01*
X151079938Y-114461971D02*
X151079938Y-113961971D01*
X151079938Y-113961971D02*
X150794224Y-113961971D01*
X151722795Y-114604828D02*
X151722795Y-113104828D01*
X151722795Y-113104828D02*
X152079938Y-113104828D01*
X152079938Y-113104828D02*
X152294224Y-113176257D01*
X152294224Y-113176257D02*
X152437081Y-113319114D01*
X152437081Y-113319114D02*
X152508510Y-113461971D01*
X152508510Y-113461971D02*
X152579938Y-113747685D01*
X152579938Y-113747685D02*
X152579938Y-113961971D01*
X152579938Y-113961971D02*
X152508510Y-114247685D01*
X152508510Y-114247685D02*
X152437081Y-114390542D01*
X152437081Y-114390542D02*
X152294224Y-114533400D01*
X152294224Y-114533400D02*
X152079938Y-114604828D01*
X152079938Y-114604828D02*
X151722795Y-114604828D01*
X153508510Y-113104828D02*
X153794224Y-113104828D01*
X153794224Y-113104828D02*
X153937081Y-113176257D01*
X153937081Y-113176257D02*
X154079938Y-113319114D01*
X154079938Y-113319114D02*
X154151367Y-113604828D01*
X154151367Y-113604828D02*
X154151367Y-114104828D01*
X154151367Y-114104828D02*
X154079938Y-114390542D01*
X154079938Y-114390542D02*
X153937081Y-114533400D01*
X153937081Y-114533400D02*
X153794224Y-114604828D01*
X153794224Y-114604828D02*
X153508510Y-114604828D01*
X153508510Y-114604828D02*
X153365653Y-114533400D01*
X153365653Y-114533400D02*
X153222795Y-114390542D01*
X153222795Y-114390542D02*
X153151367Y-114104828D01*
X153151367Y-114104828D02*
X153151367Y-113604828D01*
X153151367Y-113604828D02*
X153222795Y-113319114D01*
X153222795Y-113319114D02*
X153365653Y-113176257D01*
X153365653Y-113176257D02*
X153508510Y-113104828D01*
X140294225Y-115519828D02*
X141151368Y-115519828D01*
X140722796Y-117019828D02*
X140722796Y-115519828D01*
X141651367Y-115519828D02*
X141651367Y-116734114D01*
X141651367Y-116734114D02*
X141722796Y-116876971D01*
X141722796Y-116876971D02*
X141794225Y-116948400D01*
X141794225Y-116948400D02*
X141937082Y-117019828D01*
X141937082Y-117019828D02*
X142222796Y-117019828D01*
X142222796Y-117019828D02*
X142365653Y-116948400D01*
X142365653Y-116948400D02*
X142437082Y-116876971D01*
X142437082Y-116876971D02*
X142508510Y-116734114D01*
X142508510Y-116734114D02*
X142508510Y-115519828D01*
X143722796Y-116234114D02*
X143937082Y-116305542D01*
X143937082Y-116305542D02*
X144008511Y-116376971D01*
X144008511Y-116376971D02*
X144079939Y-116519828D01*
X144079939Y-116519828D02*
X144079939Y-116734114D01*
X144079939Y-116734114D02*
X144008511Y-116876971D01*
X144008511Y-116876971D02*
X143937082Y-116948400D01*
X143937082Y-116948400D02*
X143794225Y-117019828D01*
X143794225Y-117019828D02*
X143222796Y-117019828D01*
X143222796Y-117019828D02*
X143222796Y-115519828D01*
X143222796Y-115519828D02*
X143722796Y-115519828D01*
X143722796Y-115519828D02*
X143865654Y-115591257D01*
X143865654Y-115591257D02*
X143937082Y-115662685D01*
X143937082Y-115662685D02*
X144008511Y-115805542D01*
X144008511Y-115805542D02*
X144008511Y-115948400D01*
X144008511Y-115948400D02*
X143937082Y-116091257D01*
X143937082Y-116091257D02*
X143865654Y-116162685D01*
X143865654Y-116162685D02*
X143722796Y-116234114D01*
X143722796Y-116234114D02*
X143222796Y-116234114D01*
X144722796Y-116234114D02*
X145222796Y-116234114D01*
X145437082Y-117019828D02*
X144722796Y-117019828D01*
X144722796Y-117019828D02*
X144722796Y-115519828D01*
X144722796Y-115519828D02*
X145437082Y-115519828D01*
X145937082Y-115519828D02*
X146937082Y-115519828D01*
X146937082Y-115519828D02*
X145937082Y-117019828D01*
X145937082Y-117019828D02*
X146937082Y-117019828D01*
X148579939Y-115662685D02*
X148651367Y-115591257D01*
X148651367Y-115591257D02*
X148794225Y-115519828D01*
X148794225Y-115519828D02*
X149151367Y-115519828D01*
X149151367Y-115519828D02*
X149294225Y-115591257D01*
X149294225Y-115591257D02*
X149365653Y-115662685D01*
X149365653Y-115662685D02*
X149437082Y-115805542D01*
X149437082Y-115805542D02*
X149437082Y-115948400D01*
X149437082Y-115948400D02*
X149365653Y-116162685D01*
X149365653Y-116162685D02*
X148508510Y-117019828D01*
X148508510Y-117019828D02*
X149437082Y-117019828D01*
X150079938Y-116876971D02*
X150151367Y-116948400D01*
X150151367Y-116948400D02*
X150079938Y-117019828D01*
X150079938Y-117019828D02*
X150008510Y-116948400D01*
X150008510Y-116948400D02*
X150079938Y-116876971D01*
X150079938Y-116876971D02*
X150079938Y-117019828D01*
X151508510Y-115519828D02*
X150794224Y-115519828D01*
X150794224Y-115519828D02*
X150722796Y-116234114D01*
X150722796Y-116234114D02*
X150794224Y-116162685D01*
X150794224Y-116162685D02*
X150937082Y-116091257D01*
X150937082Y-116091257D02*
X151294224Y-116091257D01*
X151294224Y-116091257D02*
X151437082Y-116162685D01*
X151437082Y-116162685D02*
X151508510Y-116234114D01*
X151508510Y-116234114D02*
X151579939Y-116376971D01*
X151579939Y-116376971D02*
X151579939Y-116734114D01*
X151579939Y-116734114D02*
X151508510Y-116876971D01*
X151508510Y-116876971D02*
X151437082Y-116948400D01*
X151437082Y-116948400D02*
X151294224Y-117019828D01*
X151294224Y-117019828D02*
X150937082Y-117019828D01*
X150937082Y-117019828D02*
X150794224Y-116948400D01*
X150794224Y-116948400D02*
X150722796Y-116876971D01*
X152222795Y-116876971D02*
X152294224Y-116948400D01*
X152294224Y-116948400D02*
X152222795Y-117019828D01*
X152222795Y-117019828D02*
X152151367Y-116948400D01*
X152151367Y-116948400D02*
X152222795Y-116876971D01*
X152222795Y-116876971D02*
X152222795Y-117019828D01*
X153222796Y-115519828D02*
X153365653Y-115519828D01*
X153365653Y-115519828D02*
X153508510Y-115591257D01*
X153508510Y-115591257D02*
X153579939Y-115662685D01*
X153579939Y-115662685D02*
X153651367Y-115805542D01*
X153651367Y-115805542D02*
X153722796Y-116091257D01*
X153722796Y-116091257D02*
X153722796Y-116448400D01*
X153722796Y-116448400D02*
X153651367Y-116734114D01*
X153651367Y-116734114D02*
X153579939Y-116876971D01*
X153579939Y-116876971D02*
X153508510Y-116948400D01*
X153508510Y-116948400D02*
X153365653Y-117019828D01*
X153365653Y-117019828D02*
X153222796Y-117019828D01*
X153222796Y-117019828D02*
X153079939Y-116948400D01*
X153079939Y-116948400D02*
X153008510Y-116876971D01*
X153008510Y-116876971D02*
X152937081Y-116734114D01*
X152937081Y-116734114D02*
X152865653Y-116448400D01*
X152865653Y-116448400D02*
X152865653Y-116091257D01*
X152865653Y-116091257D02*
X152937081Y-115805542D01*
X152937081Y-115805542D02*
X153008510Y-115662685D01*
X153008510Y-115662685D02*
X153079939Y-115591257D01*
X153079939Y-115591257D02*
X153222796Y-115519828D01*
X140294225Y-117934828D02*
X141151368Y-117934828D01*
X140722796Y-119434828D02*
X140722796Y-117934828D01*
X143294224Y-118649114D02*
X142794224Y-118649114D01*
X142794224Y-119434828D02*
X142794224Y-117934828D01*
X142794224Y-117934828D02*
X143508510Y-117934828D01*
X144365653Y-117934828D02*
X144651367Y-117934828D01*
X144651367Y-117934828D02*
X144794224Y-118006257D01*
X144794224Y-118006257D02*
X144937081Y-118149114D01*
X144937081Y-118149114D02*
X145008510Y-118434828D01*
X145008510Y-118434828D02*
X145008510Y-118934828D01*
X145008510Y-118934828D02*
X144937081Y-119220542D01*
X144937081Y-119220542D02*
X144794224Y-119363400D01*
X144794224Y-119363400D02*
X144651367Y-119434828D01*
X144651367Y-119434828D02*
X144365653Y-119434828D01*
X144365653Y-119434828D02*
X144222796Y-119363400D01*
X144222796Y-119363400D02*
X144079938Y-119220542D01*
X144079938Y-119220542D02*
X144008510Y-118934828D01*
X144008510Y-118934828D02*
X144008510Y-118434828D01*
X144008510Y-118434828D02*
X144079938Y-118149114D01*
X144079938Y-118149114D02*
X144222796Y-118006257D01*
X144222796Y-118006257D02*
X144365653Y-117934828D01*
X145508510Y-117934828D02*
X146508510Y-119434828D01*
X146508510Y-117934828D02*
X145508510Y-119434828D01*
X148151367Y-118077685D02*
X148222795Y-118006257D01*
X148222795Y-118006257D02*
X148365653Y-117934828D01*
X148365653Y-117934828D02*
X148722795Y-117934828D01*
X148722795Y-117934828D02*
X148865653Y-118006257D01*
X148865653Y-118006257D02*
X148937081Y-118077685D01*
X148937081Y-118077685D02*
X149008510Y-118220542D01*
X149008510Y-118220542D02*
X149008510Y-118363400D01*
X149008510Y-118363400D02*
X148937081Y-118577685D01*
X148937081Y-118577685D02*
X148079938Y-119434828D01*
X148079938Y-119434828D02*
X149008510Y-119434828D01*
X149937081Y-117934828D02*
X150079938Y-117934828D01*
X150079938Y-117934828D02*
X150222795Y-118006257D01*
X150222795Y-118006257D02*
X150294224Y-118077685D01*
X150294224Y-118077685D02*
X150365652Y-118220542D01*
X150365652Y-118220542D02*
X150437081Y-118506257D01*
X150437081Y-118506257D02*
X150437081Y-118863400D01*
X150437081Y-118863400D02*
X150365652Y-119149114D01*
X150365652Y-119149114D02*
X150294224Y-119291971D01*
X150294224Y-119291971D02*
X150222795Y-119363400D01*
X150222795Y-119363400D02*
X150079938Y-119434828D01*
X150079938Y-119434828D02*
X149937081Y-119434828D01*
X149937081Y-119434828D02*
X149794224Y-119363400D01*
X149794224Y-119363400D02*
X149722795Y-119291971D01*
X149722795Y-119291971D02*
X149651366Y-119149114D01*
X149651366Y-119149114D02*
X149579938Y-118863400D01*
X149579938Y-118863400D02*
X149579938Y-118506257D01*
X149579938Y-118506257D02*
X149651366Y-118220542D01*
X149651366Y-118220542D02*
X149722795Y-118077685D01*
X149722795Y-118077685D02*
X149794224Y-118006257D01*
X149794224Y-118006257D02*
X149937081Y-117934828D01*
X151008509Y-118077685D02*
X151079937Y-118006257D01*
X151079937Y-118006257D02*
X151222795Y-117934828D01*
X151222795Y-117934828D02*
X151579937Y-117934828D01*
X151579937Y-117934828D02*
X151722795Y-118006257D01*
X151722795Y-118006257D02*
X151794223Y-118077685D01*
X151794223Y-118077685D02*
X151865652Y-118220542D01*
X151865652Y-118220542D02*
X151865652Y-118363400D01*
X151865652Y-118363400D02*
X151794223Y-118577685D01*
X151794223Y-118577685D02*
X150937080Y-119434828D01*
X150937080Y-119434828D02*
X151865652Y-119434828D01*
X152365651Y-117934828D02*
X153294223Y-117934828D01*
X153294223Y-117934828D02*
X152794223Y-118506257D01*
X152794223Y-118506257D02*
X153008508Y-118506257D01*
X153008508Y-118506257D02*
X153151366Y-118577685D01*
X153151366Y-118577685D02*
X153222794Y-118649114D01*
X153222794Y-118649114D02*
X153294223Y-118791971D01*
X153294223Y-118791971D02*
X153294223Y-119149114D01*
X153294223Y-119149114D02*
X153222794Y-119291971D01*
X153222794Y-119291971D02*
X153151366Y-119363400D01*
X153151366Y-119363400D02*
X153008508Y-119434828D01*
X153008508Y-119434828D02*
X152579937Y-119434828D01*
X152579937Y-119434828D02*
X152437080Y-119363400D01*
X152437080Y-119363400D02*
X152365651Y-119291971D01*
D10*
X159213064Y-84721819D02*
X158736874Y-84721819D01*
X158736874Y-84721819D02*
X158689255Y-85198009D01*
X158689255Y-85198009D02*
X158736874Y-85150390D01*
X158736874Y-85150390D02*
X158832112Y-85102771D01*
X158832112Y-85102771D02*
X159070207Y-85102771D01*
X159070207Y-85102771D02*
X159165445Y-85150390D01*
X159165445Y-85150390D02*
X159213064Y-85198009D01*
X159213064Y-85198009D02*
X159260683Y-85293247D01*
X159260683Y-85293247D02*
X159260683Y-85531342D01*
X159260683Y-85531342D02*
X159213064Y-85626580D01*
X159213064Y-85626580D02*
X159165445Y-85674200D01*
X159165445Y-85674200D02*
X159070207Y-85721819D01*
X159070207Y-85721819D02*
X158832112Y-85721819D01*
X158832112Y-85721819D02*
X158736874Y-85674200D01*
X158736874Y-85674200D02*
X158689255Y-85626580D01*
X159546398Y-84721819D02*
X159879731Y-85721819D01*
X159879731Y-85721819D02*
X160213064Y-84721819D01*
X118818180Y-96964667D02*
X117818180Y-97202762D01*
X117818180Y-97202762D02*
X118532466Y-97393238D01*
X118532466Y-97393238D02*
X117818180Y-97583714D01*
X117818180Y-97583714D02*
X118818180Y-97821810D01*
X117818180Y-98202762D02*
X118818180Y-98202762D01*
X118341990Y-98202762D02*
X118341990Y-98774190D01*
X117818180Y-98774190D02*
X118818180Y-98774190D01*
X118818180Y-99107524D02*
X118818180Y-99678952D01*
X117818180Y-99393238D02*
X118818180Y-99393238D01*
X117160561Y-97536095D02*
X117208180Y-97440857D01*
X117208180Y-97440857D02*
X117208180Y-97298000D01*
X117208180Y-97298000D02*
X117160561Y-97155143D01*
X117160561Y-97155143D02*
X117065323Y-97059905D01*
X117065323Y-97059905D02*
X116970085Y-97012286D01*
X116970085Y-97012286D02*
X116779609Y-96964667D01*
X116779609Y-96964667D02*
X116636752Y-96964667D01*
X116636752Y-96964667D02*
X116446276Y-97012286D01*
X116446276Y-97012286D02*
X116351038Y-97059905D01*
X116351038Y-97059905D02*
X116255800Y-97155143D01*
X116255800Y-97155143D02*
X116208180Y-97298000D01*
X116208180Y-97298000D02*
X116208180Y-97393238D01*
X116208180Y-97393238D02*
X116255800Y-97536095D01*
X116255800Y-97536095D02*
X116303419Y-97583714D01*
X116303419Y-97583714D02*
X116636752Y-97583714D01*
X116636752Y-97583714D02*
X116636752Y-97393238D01*
X116208180Y-98012286D02*
X117208180Y-98012286D01*
X117208180Y-98012286D02*
X116208180Y-98583714D01*
X116208180Y-98583714D02*
X117208180Y-98583714D01*
X116208180Y-99059905D02*
X117208180Y-99059905D01*
X117208180Y-99059905D02*
X117208180Y-99298000D01*
X117208180Y-99298000D02*
X117160561Y-99440857D01*
X117160561Y-99440857D02*
X117065323Y-99536095D01*
X117065323Y-99536095D02*
X116970085Y-99583714D01*
X116970085Y-99583714D02*
X116779609Y-99631333D01*
X116779609Y-99631333D02*
X116636752Y-99631333D01*
X116636752Y-99631333D02*
X116446276Y-99583714D01*
X116446276Y-99583714D02*
X116351038Y-99536095D01*
X116351038Y-99536095D02*
X116255800Y-99440857D01*
X116255800Y-99440857D02*
X116208180Y-99298000D01*
X116208180Y-99298000D02*
X116208180Y-99059905D01*
X156927350Y-90547819D02*
X156451160Y-90547819D01*
X156451160Y-90547819D02*
X156451160Y-89547819D01*
X157260684Y-90547819D02*
X157260684Y-89547819D01*
X158260683Y-89595438D02*
X158165445Y-89547819D01*
X158165445Y-89547819D02*
X158022588Y-89547819D01*
X158022588Y-89547819D02*
X157879731Y-89595438D01*
X157879731Y-89595438D02*
X157784493Y-89690676D01*
X157784493Y-89690676D02*
X157736874Y-89785914D01*
X157736874Y-89785914D02*
X157689255Y-89976390D01*
X157689255Y-89976390D02*
X157689255Y-90119247D01*
X157689255Y-90119247D02*
X157736874Y-90309723D01*
X157736874Y-90309723D02*
X157784493Y-90404961D01*
X157784493Y-90404961D02*
X157879731Y-90500200D01*
X157879731Y-90500200D02*
X158022588Y-90547819D01*
X158022588Y-90547819D02*
X158117826Y-90547819D01*
X158117826Y-90547819D02*
X158260683Y-90500200D01*
X158260683Y-90500200D02*
X158308302Y-90452580D01*
X158308302Y-90452580D02*
X158308302Y-90119247D01*
X158308302Y-90119247D02*
X158117826Y-90119247D01*
X158736874Y-90547819D02*
X158736874Y-89547819D01*
X158736874Y-90024009D02*
X159308302Y-90024009D01*
X159308302Y-90547819D02*
X159308302Y-89547819D01*
X159641636Y-89547819D02*
X160213064Y-89547819D01*
X159927350Y-90547819D02*
X159927350Y-89547819D01*
X156451160Y-100707819D02*
X156451160Y-99707819D01*
X156451160Y-99707819D02*
X156689255Y-99707819D01*
X156689255Y-99707819D02*
X156832112Y-99755438D01*
X156832112Y-99755438D02*
X156927350Y-99850676D01*
X156927350Y-99850676D02*
X156974969Y-99945914D01*
X156974969Y-99945914D02*
X157022588Y-100136390D01*
X157022588Y-100136390D02*
X157022588Y-100279247D01*
X157022588Y-100279247D02*
X156974969Y-100469723D01*
X156974969Y-100469723D02*
X156927350Y-100564961D01*
X156927350Y-100564961D02*
X156832112Y-100660200D01*
X156832112Y-100660200D02*
X156689255Y-100707819D01*
X156689255Y-100707819D02*
X156451160Y-100707819D01*
X157641636Y-99707819D02*
X157832112Y-99707819D01*
X157832112Y-99707819D02*
X157927350Y-99755438D01*
X157927350Y-99755438D02*
X158022588Y-99850676D01*
X158022588Y-99850676D02*
X158070207Y-100041152D01*
X158070207Y-100041152D02*
X158070207Y-100374485D01*
X158070207Y-100374485D02*
X158022588Y-100564961D01*
X158022588Y-100564961D02*
X157927350Y-100660200D01*
X157927350Y-100660200D02*
X157832112Y-100707819D01*
X157832112Y-100707819D02*
X157641636Y-100707819D01*
X157641636Y-100707819D02*
X157546398Y-100660200D01*
X157546398Y-100660200D02*
X157451160Y-100564961D01*
X157451160Y-100564961D02*
X157403541Y-100374485D01*
X157403541Y-100374485D02*
X157403541Y-100041152D01*
X157403541Y-100041152D02*
X157451160Y-99850676D01*
X157451160Y-99850676D02*
X157546398Y-99755438D01*
X157546398Y-99755438D02*
X157641636Y-99707819D01*
X158689255Y-99707819D02*
X158879731Y-99707819D01*
X158879731Y-99707819D02*
X158974969Y-99755438D01*
X158974969Y-99755438D02*
X159070207Y-99850676D01*
X159070207Y-99850676D02*
X159117826Y-100041152D01*
X159117826Y-100041152D02*
X159117826Y-100374485D01*
X159117826Y-100374485D02*
X159070207Y-100564961D01*
X159070207Y-100564961D02*
X158974969Y-100660200D01*
X158974969Y-100660200D02*
X158879731Y-100707819D01*
X158879731Y-100707819D02*
X158689255Y-100707819D01*
X158689255Y-100707819D02*
X158594017Y-100660200D01*
X158594017Y-100660200D02*
X158498779Y-100564961D01*
X158498779Y-100564961D02*
X158451160Y-100374485D01*
X158451160Y-100374485D02*
X158451160Y-100041152D01*
X158451160Y-100041152D02*
X158498779Y-99850676D01*
X158498779Y-99850676D02*
X158594017Y-99755438D01*
X158594017Y-99755438D02*
X158689255Y-99707819D01*
X160117826Y-100707819D02*
X159784493Y-100231628D01*
X159546398Y-100707819D02*
X159546398Y-99707819D01*
X159546398Y-99707819D02*
X159927350Y-99707819D01*
X159927350Y-99707819D02*
X160022588Y-99755438D01*
X160022588Y-99755438D02*
X160070207Y-99803057D01*
X160070207Y-99803057D02*
X160117826Y-99898295D01*
X160117826Y-99898295D02*
X160117826Y-100041152D01*
X160117826Y-100041152D02*
X160070207Y-100136390D01*
X160070207Y-100136390D02*
X160022588Y-100184009D01*
X160022588Y-100184009D02*
X159927350Y-100231628D01*
X159927350Y-100231628D02*
X159546398Y-100231628D01*
X153403541Y-107581819D02*
X153641636Y-108581819D01*
X153641636Y-108581819D02*
X153832112Y-107867533D01*
X153832112Y-107867533D02*
X154022588Y-108581819D01*
X154022588Y-108581819D02*
X154260684Y-107581819D01*
X154641636Y-108581819D02*
X154641636Y-107581819D01*
X154641636Y-108058009D02*
X155213064Y-108058009D01*
X155213064Y-108581819D02*
X155213064Y-107581819D01*
X155546398Y-107581819D02*
X156117826Y-107581819D01*
X155832112Y-108581819D02*
X155832112Y-107581819D01*
X157165445Y-107534200D02*
X156308303Y-108819914D01*
X158022588Y-107629438D02*
X157927350Y-107581819D01*
X157927350Y-107581819D02*
X157784493Y-107581819D01*
X157784493Y-107581819D02*
X157641636Y-107629438D01*
X157641636Y-107629438D02*
X157546398Y-107724676D01*
X157546398Y-107724676D02*
X157498779Y-107819914D01*
X157498779Y-107819914D02*
X157451160Y-108010390D01*
X157451160Y-108010390D02*
X157451160Y-108153247D01*
X157451160Y-108153247D02*
X157498779Y-108343723D01*
X157498779Y-108343723D02*
X157546398Y-108438961D01*
X157546398Y-108438961D02*
X157641636Y-108534200D01*
X157641636Y-108534200D02*
X157784493Y-108581819D01*
X157784493Y-108581819D02*
X157879731Y-108581819D01*
X157879731Y-108581819D02*
X158022588Y-108534200D01*
X158022588Y-108534200D02*
X158070207Y-108486580D01*
X158070207Y-108486580D02*
X158070207Y-108153247D01*
X158070207Y-108153247D02*
X157879731Y-108153247D01*
X158498779Y-108581819D02*
X158498779Y-107581819D01*
X158498779Y-107581819D02*
X159070207Y-108581819D01*
X159070207Y-108581819D02*
X159070207Y-107581819D01*
X159546398Y-108581819D02*
X159546398Y-107581819D01*
X159546398Y-107581819D02*
X159784493Y-107581819D01*
X159784493Y-107581819D02*
X159927350Y-107629438D01*
X159927350Y-107629438D02*
X160022588Y-107724676D01*
X160022588Y-107724676D02*
X160070207Y-107819914D01*
X160070207Y-107819914D02*
X160117826Y-108010390D01*
X160117826Y-108010390D02*
X160117826Y-108153247D01*
X160117826Y-108153247D02*
X160070207Y-108343723D01*
X160070207Y-108343723D02*
X160022588Y-108438961D01*
X160022588Y-108438961D02*
X159927350Y-108534200D01*
X159927350Y-108534200D02*
X159784493Y-108581819D01*
X159784493Y-108581819D02*
X159546398Y-108581819D01*
X157689255Y-87007819D02*
X158308302Y-87007819D01*
X158308302Y-87007819D02*
X157974969Y-87388771D01*
X157974969Y-87388771D02*
X158117826Y-87388771D01*
X158117826Y-87388771D02*
X158213064Y-87436390D01*
X158213064Y-87436390D02*
X158260683Y-87484009D01*
X158260683Y-87484009D02*
X158308302Y-87579247D01*
X158308302Y-87579247D02*
X158308302Y-87817342D01*
X158308302Y-87817342D02*
X158260683Y-87912580D01*
X158260683Y-87912580D02*
X158213064Y-87960200D01*
X158213064Y-87960200D02*
X158117826Y-88007819D01*
X158117826Y-88007819D02*
X157832112Y-88007819D01*
X157832112Y-88007819D02*
X157736874Y-87960200D01*
X157736874Y-87960200D02*
X157689255Y-87912580D01*
X158594017Y-87007819D02*
X158927350Y-88007819D01*
X158927350Y-88007819D02*
X159260683Y-87007819D01*
X159498779Y-87007819D02*
X160117826Y-87007819D01*
X160117826Y-87007819D02*
X159784493Y-87388771D01*
X159784493Y-87388771D02*
X159927350Y-87388771D01*
X159927350Y-87388771D02*
X160022588Y-87436390D01*
X160022588Y-87436390D02*
X160070207Y-87484009D01*
X160070207Y-87484009D02*
X160117826Y-87579247D01*
X160117826Y-87579247D02*
X160117826Y-87817342D01*
X160117826Y-87817342D02*
X160070207Y-87912580D01*
X160070207Y-87912580D02*
X160022588Y-87960200D01*
X160022588Y-87960200D02*
X159927350Y-88007819D01*
X159927350Y-88007819D02*
X159641636Y-88007819D01*
X159641636Y-88007819D02*
X159546398Y-87960200D01*
X159546398Y-87960200D02*
X159498779Y-87912580D01*
X156736874Y-94881819D02*
X156927350Y-94881819D01*
X156927350Y-94881819D02*
X157022588Y-94929438D01*
X157022588Y-94929438D02*
X157117826Y-95024676D01*
X157117826Y-95024676D02*
X157165445Y-95215152D01*
X157165445Y-95215152D02*
X157165445Y-95548485D01*
X157165445Y-95548485D02*
X157117826Y-95738961D01*
X157117826Y-95738961D02*
X157022588Y-95834200D01*
X157022588Y-95834200D02*
X156927350Y-95881819D01*
X156927350Y-95881819D02*
X156736874Y-95881819D01*
X156736874Y-95881819D02*
X156641636Y-95834200D01*
X156641636Y-95834200D02*
X156546398Y-95738961D01*
X156546398Y-95738961D02*
X156498779Y-95548485D01*
X156498779Y-95548485D02*
X156498779Y-95215152D01*
X156498779Y-95215152D02*
X156546398Y-95024676D01*
X156546398Y-95024676D02*
X156641636Y-94929438D01*
X156641636Y-94929438D02*
X156736874Y-94881819D01*
X157594017Y-95881819D02*
X157594017Y-94881819D01*
X157594017Y-94881819D02*
X157974969Y-94881819D01*
X157974969Y-94881819D02*
X158070207Y-94929438D01*
X158070207Y-94929438D02*
X158117826Y-94977057D01*
X158117826Y-94977057D02*
X158165445Y-95072295D01*
X158165445Y-95072295D02*
X158165445Y-95215152D01*
X158165445Y-95215152D02*
X158117826Y-95310390D01*
X158117826Y-95310390D02*
X158070207Y-95358009D01*
X158070207Y-95358009D02*
X157974969Y-95405628D01*
X157974969Y-95405628D02*
X157594017Y-95405628D01*
X158594017Y-95358009D02*
X158927350Y-95358009D01*
X159070207Y-95881819D02*
X158594017Y-95881819D01*
X158594017Y-95881819D02*
X158594017Y-94881819D01*
X158594017Y-94881819D02*
X159070207Y-94881819D01*
X159498779Y-95881819D02*
X159498779Y-94881819D01*
X159498779Y-94881819D02*
X160070207Y-95881819D01*
X160070207Y-95881819D02*
X160070207Y-94881819D01*
X153260683Y-102724009D02*
X153403540Y-102771628D01*
X153403540Y-102771628D02*
X153451159Y-102819247D01*
X153451159Y-102819247D02*
X153498778Y-102914485D01*
X153498778Y-102914485D02*
X153498778Y-103057342D01*
X153498778Y-103057342D02*
X153451159Y-103152580D01*
X153451159Y-103152580D02*
X153403540Y-103200200D01*
X153403540Y-103200200D02*
X153308302Y-103247819D01*
X153308302Y-103247819D02*
X152927350Y-103247819D01*
X152927350Y-103247819D02*
X152927350Y-102247819D01*
X152927350Y-102247819D02*
X153260683Y-102247819D01*
X153260683Y-102247819D02*
X153355921Y-102295438D01*
X153355921Y-102295438D02*
X153403540Y-102343057D01*
X153403540Y-102343057D02*
X153451159Y-102438295D01*
X153451159Y-102438295D02*
X153451159Y-102533533D01*
X153451159Y-102533533D02*
X153403540Y-102628771D01*
X153403540Y-102628771D02*
X153355921Y-102676390D01*
X153355921Y-102676390D02*
X153260683Y-102724009D01*
X153260683Y-102724009D02*
X152927350Y-102724009D01*
X154403540Y-103247819D02*
X153927350Y-103247819D01*
X153927350Y-103247819D02*
X153927350Y-102247819D01*
X154736874Y-103247819D02*
X154736874Y-102247819D01*
X155308302Y-103247819D02*
X154879731Y-102676390D01*
X155308302Y-102247819D02*
X154736874Y-102819247D01*
X156451159Y-102200200D02*
X155594017Y-103485914D01*
X156974969Y-102247819D02*
X157165445Y-102247819D01*
X157165445Y-102247819D02*
X157260683Y-102295438D01*
X157260683Y-102295438D02*
X157355921Y-102390676D01*
X157355921Y-102390676D02*
X157403540Y-102581152D01*
X157403540Y-102581152D02*
X157403540Y-102914485D01*
X157403540Y-102914485D02*
X157355921Y-103104961D01*
X157355921Y-103104961D02*
X157260683Y-103200200D01*
X157260683Y-103200200D02*
X157165445Y-103247819D01*
X157165445Y-103247819D02*
X156974969Y-103247819D01*
X156974969Y-103247819D02*
X156879731Y-103200200D01*
X156879731Y-103200200D02*
X156784493Y-103104961D01*
X156784493Y-103104961D02*
X156736874Y-102914485D01*
X156736874Y-102914485D02*
X156736874Y-102581152D01*
X156736874Y-102581152D02*
X156784493Y-102390676D01*
X156784493Y-102390676D02*
X156879731Y-102295438D01*
X156879731Y-102295438D02*
X156974969Y-102247819D01*
X158165445Y-102724009D02*
X158308302Y-102771628D01*
X158308302Y-102771628D02*
X158355921Y-102819247D01*
X158355921Y-102819247D02*
X158403540Y-102914485D01*
X158403540Y-102914485D02*
X158403540Y-103057342D01*
X158403540Y-103057342D02*
X158355921Y-103152580D01*
X158355921Y-103152580D02*
X158308302Y-103200200D01*
X158308302Y-103200200D02*
X158213064Y-103247819D01*
X158213064Y-103247819D02*
X157832112Y-103247819D01*
X157832112Y-103247819D02*
X157832112Y-102247819D01*
X157832112Y-102247819D02*
X158165445Y-102247819D01*
X158165445Y-102247819D02*
X158260683Y-102295438D01*
X158260683Y-102295438D02*
X158308302Y-102343057D01*
X158308302Y-102343057D02*
X158355921Y-102438295D01*
X158355921Y-102438295D02*
X158355921Y-102533533D01*
X158355921Y-102533533D02*
X158308302Y-102628771D01*
X158308302Y-102628771D02*
X158260683Y-102676390D01*
X158260683Y-102676390D02*
X158165445Y-102724009D01*
X158165445Y-102724009D02*
X157832112Y-102724009D01*
X158784493Y-103200200D02*
X158927350Y-103247819D01*
X158927350Y-103247819D02*
X159165445Y-103247819D01*
X159165445Y-103247819D02*
X159260683Y-103200200D01*
X159260683Y-103200200D02*
X159308302Y-103152580D01*
X159308302Y-103152580D02*
X159355921Y-103057342D01*
X159355921Y-103057342D02*
X159355921Y-102962104D01*
X159355921Y-102962104D02*
X159308302Y-102866866D01*
X159308302Y-102866866D02*
X159260683Y-102819247D01*
X159260683Y-102819247D02*
X159165445Y-102771628D01*
X159165445Y-102771628D02*
X158974969Y-102724009D01*
X158974969Y-102724009D02*
X158879731Y-102676390D01*
X158879731Y-102676390D02*
X158832112Y-102628771D01*
X158832112Y-102628771D02*
X158784493Y-102533533D01*
X158784493Y-102533533D02*
X158784493Y-102438295D01*
X158784493Y-102438295D02*
X158832112Y-102343057D01*
X158832112Y-102343057D02*
X158879731Y-102295438D01*
X158879731Y-102295438D02*
X158974969Y-102247819D01*
X158974969Y-102247819D02*
X159213064Y-102247819D01*
X159213064Y-102247819D02*
X159355921Y-102295438D01*
X159641636Y-102247819D02*
X160213064Y-102247819D01*
X159927350Y-103247819D02*
X159927350Y-102247819D01*
X118341990Y-107624666D02*
X118294371Y-107767523D01*
X118294371Y-107767523D02*
X118246752Y-107815142D01*
X118246752Y-107815142D02*
X118151514Y-107862761D01*
X118151514Y-107862761D02*
X118008657Y-107862761D01*
X118008657Y-107862761D02*
X117913419Y-107815142D01*
X117913419Y-107815142D02*
X117865800Y-107767523D01*
X117865800Y-107767523D02*
X117818180Y-107672285D01*
X117818180Y-107672285D02*
X117818180Y-107291333D01*
X117818180Y-107291333D02*
X118818180Y-107291333D01*
X118818180Y-107291333D02*
X118818180Y-107624666D01*
X118818180Y-107624666D02*
X118770561Y-107719904D01*
X118770561Y-107719904D02*
X118722942Y-107767523D01*
X118722942Y-107767523D02*
X118627704Y-107815142D01*
X118627704Y-107815142D02*
X118532466Y-107815142D01*
X118532466Y-107815142D02*
X118437228Y-107767523D01*
X118437228Y-107767523D02*
X118389609Y-107719904D01*
X118389609Y-107719904D02*
X118341990Y-107624666D01*
X118341990Y-107624666D02*
X118341990Y-107291333D01*
X117818180Y-108767523D02*
X117818180Y-108291333D01*
X117818180Y-108291333D02*
X118818180Y-108291333D01*
X117818180Y-109100857D02*
X118818180Y-109100857D01*
X117818180Y-109672285D02*
X118389609Y-109243714D01*
X118818180Y-109672285D02*
X118246752Y-109100857D01*
X117208180Y-107005619D02*
X117208180Y-107196095D01*
X117208180Y-107196095D02*
X117160561Y-107291333D01*
X117160561Y-107291333D02*
X117065323Y-107386571D01*
X117065323Y-107386571D02*
X116874847Y-107434190D01*
X116874847Y-107434190D02*
X116541514Y-107434190D01*
X116541514Y-107434190D02*
X116351038Y-107386571D01*
X116351038Y-107386571D02*
X116255800Y-107291333D01*
X116255800Y-107291333D02*
X116208180Y-107196095D01*
X116208180Y-107196095D02*
X116208180Y-107005619D01*
X116208180Y-107005619D02*
X116255800Y-106910381D01*
X116255800Y-106910381D02*
X116351038Y-106815143D01*
X116351038Y-106815143D02*
X116541514Y-106767524D01*
X116541514Y-106767524D02*
X116874847Y-106767524D01*
X116874847Y-106767524D02*
X117065323Y-106815143D01*
X117065323Y-106815143D02*
X117160561Y-106910381D01*
X117160561Y-106910381D02*
X117208180Y-107005619D01*
X116731990Y-108196095D02*
X116684371Y-108338952D01*
X116684371Y-108338952D02*
X116636752Y-108386571D01*
X116636752Y-108386571D02*
X116541514Y-108434190D01*
X116541514Y-108434190D02*
X116398657Y-108434190D01*
X116398657Y-108434190D02*
X116303419Y-108386571D01*
X116303419Y-108386571D02*
X116255800Y-108338952D01*
X116255800Y-108338952D02*
X116208180Y-108243714D01*
X116208180Y-108243714D02*
X116208180Y-107862762D01*
X116208180Y-107862762D02*
X117208180Y-107862762D01*
X117208180Y-107862762D02*
X117208180Y-108196095D01*
X117208180Y-108196095D02*
X117160561Y-108291333D01*
X117160561Y-108291333D02*
X117112942Y-108338952D01*
X117112942Y-108338952D02*
X117017704Y-108386571D01*
X117017704Y-108386571D02*
X116922466Y-108386571D01*
X116922466Y-108386571D02*
X116827228Y-108338952D01*
X116827228Y-108338952D02*
X116779609Y-108291333D01*
X116779609Y-108291333D02*
X116731990Y-108196095D01*
X116731990Y-108196095D02*
X116731990Y-107862762D01*
X116255800Y-108815143D02*
X116208180Y-108958000D01*
X116208180Y-108958000D02*
X116208180Y-109196095D01*
X116208180Y-109196095D02*
X116255800Y-109291333D01*
X116255800Y-109291333D02*
X116303419Y-109338952D01*
X116303419Y-109338952D02*
X116398657Y-109386571D01*
X116398657Y-109386571D02*
X116493895Y-109386571D01*
X116493895Y-109386571D02*
X116589133Y-109338952D01*
X116589133Y-109338952D02*
X116636752Y-109291333D01*
X116636752Y-109291333D02*
X116684371Y-109196095D01*
X116684371Y-109196095D02*
X116731990Y-109005619D01*
X116731990Y-109005619D02*
X116779609Y-108910381D01*
X116779609Y-108910381D02*
X116827228Y-108862762D01*
X116827228Y-108862762D02*
X116922466Y-108815143D01*
X116922466Y-108815143D02*
X117017704Y-108815143D01*
X117017704Y-108815143D02*
X117112942Y-108862762D01*
X117112942Y-108862762D02*
X117160561Y-108910381D01*
X117160561Y-108910381D02*
X117208180Y-109005619D01*
X117208180Y-109005619D02*
X117208180Y-109243714D01*
X117208180Y-109243714D02*
X117160561Y-109386571D01*
X117208180Y-109672286D02*
X117208180Y-110243714D01*
X116208180Y-109958000D02*
X117208180Y-109958000D01*
X156974969Y-97167819D02*
X157165445Y-97167819D01*
X157165445Y-97167819D02*
X157260683Y-97215438D01*
X157260683Y-97215438D02*
X157355921Y-97310676D01*
X157355921Y-97310676D02*
X157403540Y-97501152D01*
X157403540Y-97501152D02*
X157403540Y-97834485D01*
X157403540Y-97834485D02*
X157355921Y-98024961D01*
X157355921Y-98024961D02*
X157260683Y-98120200D01*
X157260683Y-98120200D02*
X157165445Y-98167819D01*
X157165445Y-98167819D02*
X156974969Y-98167819D01*
X156974969Y-98167819D02*
X156879731Y-98120200D01*
X156879731Y-98120200D02*
X156784493Y-98024961D01*
X156784493Y-98024961D02*
X156736874Y-97834485D01*
X156736874Y-97834485D02*
X156736874Y-97501152D01*
X156736874Y-97501152D02*
X156784493Y-97310676D01*
X156784493Y-97310676D02*
X156879731Y-97215438D01*
X156879731Y-97215438D02*
X156974969Y-97167819D01*
X158165445Y-97644009D02*
X158308302Y-97691628D01*
X158308302Y-97691628D02*
X158355921Y-97739247D01*
X158355921Y-97739247D02*
X158403540Y-97834485D01*
X158403540Y-97834485D02*
X158403540Y-97977342D01*
X158403540Y-97977342D02*
X158355921Y-98072580D01*
X158355921Y-98072580D02*
X158308302Y-98120200D01*
X158308302Y-98120200D02*
X158213064Y-98167819D01*
X158213064Y-98167819D02*
X157832112Y-98167819D01*
X157832112Y-98167819D02*
X157832112Y-97167819D01*
X157832112Y-97167819D02*
X158165445Y-97167819D01*
X158165445Y-97167819D02*
X158260683Y-97215438D01*
X158260683Y-97215438D02*
X158308302Y-97263057D01*
X158308302Y-97263057D02*
X158355921Y-97358295D01*
X158355921Y-97358295D02*
X158355921Y-97453533D01*
X158355921Y-97453533D02*
X158308302Y-97548771D01*
X158308302Y-97548771D02*
X158260683Y-97596390D01*
X158260683Y-97596390D02*
X158165445Y-97644009D01*
X158165445Y-97644009D02*
X157832112Y-97644009D01*
X158784493Y-98120200D02*
X158927350Y-98167819D01*
X158927350Y-98167819D02*
X159165445Y-98167819D01*
X159165445Y-98167819D02*
X159260683Y-98120200D01*
X159260683Y-98120200D02*
X159308302Y-98072580D01*
X159308302Y-98072580D02*
X159355921Y-97977342D01*
X159355921Y-97977342D02*
X159355921Y-97882104D01*
X159355921Y-97882104D02*
X159308302Y-97786866D01*
X159308302Y-97786866D02*
X159260683Y-97739247D01*
X159260683Y-97739247D02*
X159165445Y-97691628D01*
X159165445Y-97691628D02*
X158974969Y-97644009D01*
X158974969Y-97644009D02*
X158879731Y-97596390D01*
X158879731Y-97596390D02*
X158832112Y-97548771D01*
X158832112Y-97548771D02*
X158784493Y-97453533D01*
X158784493Y-97453533D02*
X158784493Y-97358295D01*
X158784493Y-97358295D02*
X158832112Y-97263057D01*
X158832112Y-97263057D02*
X158879731Y-97215438D01*
X158879731Y-97215438D02*
X158974969Y-97167819D01*
X158974969Y-97167819D02*
X159213064Y-97167819D01*
X159213064Y-97167819D02*
X159355921Y-97215438D01*
X159641636Y-97167819D02*
X160213064Y-97167819D01*
X159927350Y-98167819D02*
X159927350Y-97167819D01*
X156403540Y-92992580D02*
X156355921Y-93040200D01*
X156355921Y-93040200D02*
X156213064Y-93087819D01*
X156213064Y-93087819D02*
X156117826Y-93087819D01*
X156117826Y-93087819D02*
X155974969Y-93040200D01*
X155974969Y-93040200D02*
X155879731Y-92944961D01*
X155879731Y-92944961D02*
X155832112Y-92849723D01*
X155832112Y-92849723D02*
X155784493Y-92659247D01*
X155784493Y-92659247D02*
X155784493Y-92516390D01*
X155784493Y-92516390D02*
X155832112Y-92325914D01*
X155832112Y-92325914D02*
X155879731Y-92230676D01*
X155879731Y-92230676D02*
X155974969Y-92135438D01*
X155974969Y-92135438D02*
X156117826Y-92087819D01*
X156117826Y-92087819D02*
X156213064Y-92087819D01*
X156213064Y-92087819D02*
X156355921Y-92135438D01*
X156355921Y-92135438D02*
X156403540Y-92183057D01*
X157308302Y-93087819D02*
X156832112Y-93087819D01*
X156832112Y-93087819D02*
X156832112Y-92087819D01*
X157832112Y-92087819D02*
X158022588Y-92087819D01*
X158022588Y-92087819D02*
X158117826Y-92135438D01*
X158117826Y-92135438D02*
X158213064Y-92230676D01*
X158213064Y-92230676D02*
X158260683Y-92421152D01*
X158260683Y-92421152D02*
X158260683Y-92754485D01*
X158260683Y-92754485D02*
X158213064Y-92944961D01*
X158213064Y-92944961D02*
X158117826Y-93040200D01*
X158117826Y-93040200D02*
X158022588Y-93087819D01*
X158022588Y-93087819D02*
X157832112Y-93087819D01*
X157832112Y-93087819D02*
X157736874Y-93040200D01*
X157736874Y-93040200D02*
X157641636Y-92944961D01*
X157641636Y-92944961D02*
X157594017Y-92754485D01*
X157594017Y-92754485D02*
X157594017Y-92421152D01*
X157594017Y-92421152D02*
X157641636Y-92230676D01*
X157641636Y-92230676D02*
X157736874Y-92135438D01*
X157736874Y-92135438D02*
X157832112Y-92087819D01*
X158641636Y-93040200D02*
X158784493Y-93087819D01*
X158784493Y-93087819D02*
X159022588Y-93087819D01*
X159022588Y-93087819D02*
X159117826Y-93040200D01*
X159117826Y-93040200D02*
X159165445Y-92992580D01*
X159165445Y-92992580D02*
X159213064Y-92897342D01*
X159213064Y-92897342D02*
X159213064Y-92802104D01*
X159213064Y-92802104D02*
X159165445Y-92706866D01*
X159165445Y-92706866D02*
X159117826Y-92659247D01*
X159117826Y-92659247D02*
X159022588Y-92611628D01*
X159022588Y-92611628D02*
X158832112Y-92564009D01*
X158832112Y-92564009D02*
X158736874Y-92516390D01*
X158736874Y-92516390D02*
X158689255Y-92468771D01*
X158689255Y-92468771D02*
X158641636Y-92373533D01*
X158641636Y-92373533D02*
X158641636Y-92278295D01*
X158641636Y-92278295D02*
X158689255Y-92183057D01*
X158689255Y-92183057D02*
X158736874Y-92135438D01*
X158736874Y-92135438D02*
X158832112Y-92087819D01*
X158832112Y-92087819D02*
X159070207Y-92087819D01*
X159070207Y-92087819D02*
X159213064Y-92135438D01*
X159641636Y-92564009D02*
X159974969Y-92564009D01*
X160117826Y-93087819D02*
X159641636Y-93087819D01*
X159641636Y-93087819D02*
X159641636Y-92087819D01*
X159641636Y-92087819D02*
X160117826Y-92087819D01*
X128495666Y-93942819D02*
X128495666Y-94657104D01*
X128495666Y-94657104D02*
X128448047Y-94799961D01*
X128448047Y-94799961D02*
X128352809Y-94895200D01*
X128352809Y-94895200D02*
X128209952Y-94942819D01*
X128209952Y-94942819D02*
X128114714Y-94942819D01*
X129495666Y-94942819D02*
X128924238Y-94942819D01*
X129209952Y-94942819D02*
X129209952Y-93942819D01*
X129209952Y-93942819D02*
X129114714Y-94085676D01*
X129114714Y-94085676D02*
X129019476Y-94180914D01*
X129019476Y-94180914D02*
X128924238Y-94228533D01*
X150785595Y-92494819D02*
X150785595Y-93304342D01*
X150785595Y-93304342D02*
X150833214Y-93399580D01*
X150833214Y-93399580D02*
X150880833Y-93447200D01*
X150880833Y-93447200D02*
X150976071Y-93494819D01*
X150976071Y-93494819D02*
X151166547Y-93494819D01*
X151166547Y-93494819D02*
X151261785Y-93447200D01*
X151261785Y-93447200D02*
X151309404Y-93399580D01*
X151309404Y-93399580D02*
X151357023Y-93304342D01*
X151357023Y-93304342D02*
X151357023Y-92494819D01*
X152357023Y-93494819D02*
X151785595Y-93494819D01*
X152071309Y-93494819D02*
X152071309Y-92494819D01*
X152071309Y-92494819D02*
X151976071Y-92637676D01*
X151976071Y-92637676D02*
X151880833Y-92732914D01*
X151880833Y-92732914D02*
X151785595Y-92780533D01*
X162139333Y-71828819D02*
X161806000Y-71352628D01*
X161567905Y-71828819D02*
X161567905Y-70828819D01*
X161567905Y-70828819D02*
X161948857Y-70828819D01*
X161948857Y-70828819D02*
X162044095Y-70876438D01*
X162044095Y-70876438D02*
X162091714Y-70924057D01*
X162091714Y-70924057D02*
X162139333Y-71019295D01*
X162139333Y-71019295D02*
X162139333Y-71162152D01*
X162139333Y-71162152D02*
X162091714Y-71257390D01*
X162091714Y-71257390D02*
X162044095Y-71305009D01*
X162044095Y-71305009D02*
X161948857Y-71352628D01*
X161948857Y-71352628D02*
X161567905Y-71352628D01*
X162472667Y-70828819D02*
X163091714Y-70828819D01*
X163091714Y-70828819D02*
X162758381Y-71209771D01*
X162758381Y-71209771D02*
X162901238Y-71209771D01*
X162901238Y-71209771D02*
X162996476Y-71257390D01*
X162996476Y-71257390D02*
X163044095Y-71305009D01*
X163044095Y-71305009D02*
X163091714Y-71400247D01*
X163091714Y-71400247D02*
X163091714Y-71638342D01*
X163091714Y-71638342D02*
X163044095Y-71733580D01*
X163044095Y-71733580D02*
X162996476Y-71781200D01*
X162996476Y-71781200D02*
X162901238Y-71828819D01*
X162901238Y-71828819D02*
X162615524Y-71828819D01*
X162615524Y-71828819D02*
X162520286Y-71781200D01*
X162520286Y-71781200D02*
X162472667Y-71733580D01*
X119792761Y-71162057D02*
X119697523Y-71114438D01*
X119697523Y-71114438D02*
X119602285Y-71019200D01*
X119602285Y-71019200D02*
X119459428Y-70876342D01*
X119459428Y-70876342D02*
X119364190Y-70828723D01*
X119364190Y-70828723D02*
X119268952Y-70828723D01*
X119316571Y-71066819D02*
X119221333Y-71019200D01*
X119221333Y-71019200D02*
X119126095Y-70923961D01*
X119126095Y-70923961D02*
X119078476Y-70733485D01*
X119078476Y-70733485D02*
X119078476Y-70400152D01*
X119078476Y-70400152D02*
X119126095Y-70209676D01*
X119126095Y-70209676D02*
X119221333Y-70114438D01*
X119221333Y-70114438D02*
X119316571Y-70066819D01*
X119316571Y-70066819D02*
X119507047Y-70066819D01*
X119507047Y-70066819D02*
X119602285Y-70114438D01*
X119602285Y-70114438D02*
X119697523Y-70209676D01*
X119697523Y-70209676D02*
X119745142Y-70400152D01*
X119745142Y-70400152D02*
X119745142Y-70733485D01*
X119745142Y-70733485D02*
X119697523Y-70923961D01*
X119697523Y-70923961D02*
X119602285Y-71019200D01*
X119602285Y-71019200D02*
X119507047Y-71066819D01*
X119507047Y-71066819D02*
X119316571Y-71066819D01*
X120078476Y-70066819D02*
X120697523Y-70066819D01*
X120697523Y-70066819D02*
X120364190Y-70447771D01*
X120364190Y-70447771D02*
X120507047Y-70447771D01*
X120507047Y-70447771D02*
X120602285Y-70495390D01*
X120602285Y-70495390D02*
X120649904Y-70543009D01*
X120649904Y-70543009D02*
X120697523Y-70638247D01*
X120697523Y-70638247D02*
X120697523Y-70876342D01*
X120697523Y-70876342D02*
X120649904Y-70971580D01*
X120649904Y-70971580D02*
X120602285Y-71019200D01*
X120602285Y-71019200D02*
X120507047Y-71066819D01*
X120507047Y-71066819D02*
X120221333Y-71066819D01*
X120221333Y-71066819D02*
X120126095Y-71019200D01*
X120126095Y-71019200D02*
X120078476Y-70971580D01*
X145438905Y-101038819D02*
X145438905Y-100038819D01*
X145438905Y-100038819D02*
X145677000Y-100038819D01*
X145677000Y-100038819D02*
X145819857Y-100086438D01*
X145819857Y-100086438D02*
X145915095Y-100181676D01*
X145915095Y-100181676D02*
X145962714Y-100276914D01*
X145962714Y-100276914D02*
X146010333Y-100467390D01*
X146010333Y-100467390D02*
X146010333Y-100610247D01*
X146010333Y-100610247D02*
X145962714Y-100800723D01*
X145962714Y-100800723D02*
X145915095Y-100895961D01*
X145915095Y-100895961D02*
X145819857Y-100991200D01*
X145819857Y-100991200D02*
X145677000Y-101038819D01*
X145677000Y-101038819D02*
X145438905Y-101038819D01*
X146962714Y-101038819D02*
X146391286Y-101038819D01*
X146677000Y-101038819D02*
X146677000Y-100038819D01*
X146677000Y-100038819D02*
X146581762Y-100181676D01*
X146581762Y-100181676D02*
X146486524Y-100276914D01*
X146486524Y-100276914D02*
X146391286Y-100324533D01*
X119792761Y-87169057D02*
X119697523Y-87121438D01*
X119697523Y-87121438D02*
X119602285Y-87026200D01*
X119602285Y-87026200D02*
X119459428Y-86883342D01*
X119459428Y-86883342D02*
X119364190Y-86835723D01*
X119364190Y-86835723D02*
X119268952Y-86835723D01*
X119316571Y-87073819D02*
X119221333Y-87026200D01*
X119221333Y-87026200D02*
X119126095Y-86930961D01*
X119126095Y-86930961D02*
X119078476Y-86740485D01*
X119078476Y-86740485D02*
X119078476Y-86407152D01*
X119078476Y-86407152D02*
X119126095Y-86216676D01*
X119126095Y-86216676D02*
X119221333Y-86121438D01*
X119221333Y-86121438D02*
X119316571Y-86073819D01*
X119316571Y-86073819D02*
X119507047Y-86073819D01*
X119507047Y-86073819D02*
X119602285Y-86121438D01*
X119602285Y-86121438D02*
X119697523Y-86216676D01*
X119697523Y-86216676D02*
X119745142Y-86407152D01*
X119745142Y-86407152D02*
X119745142Y-86740485D01*
X119745142Y-86740485D02*
X119697523Y-86930961D01*
X119697523Y-86930961D02*
X119602285Y-87026200D01*
X119602285Y-87026200D02*
X119507047Y-87073819D01*
X119507047Y-87073819D02*
X119316571Y-87073819D01*
X120602285Y-86407152D02*
X120602285Y-87073819D01*
X120364190Y-86026200D02*
X120126095Y-86740485D01*
X120126095Y-86740485D02*
X120745142Y-86740485D01*
X145438905Y-98498819D02*
X145438905Y-97498819D01*
X145438905Y-97498819D02*
X145677000Y-97498819D01*
X145677000Y-97498819D02*
X145819857Y-97546438D01*
X145819857Y-97546438D02*
X145915095Y-97641676D01*
X145915095Y-97641676D02*
X145962714Y-97736914D01*
X145962714Y-97736914D02*
X146010333Y-97927390D01*
X146010333Y-97927390D02*
X146010333Y-98070247D01*
X146010333Y-98070247D02*
X145962714Y-98260723D01*
X145962714Y-98260723D02*
X145915095Y-98355961D01*
X145915095Y-98355961D02*
X145819857Y-98451200D01*
X145819857Y-98451200D02*
X145677000Y-98498819D01*
X145677000Y-98498819D02*
X145438905Y-98498819D01*
X146391286Y-97594057D02*
X146438905Y-97546438D01*
X146438905Y-97546438D02*
X146534143Y-97498819D01*
X146534143Y-97498819D02*
X146772238Y-97498819D01*
X146772238Y-97498819D02*
X146867476Y-97546438D01*
X146867476Y-97546438D02*
X146915095Y-97594057D01*
X146915095Y-97594057D02*
X146962714Y-97689295D01*
X146962714Y-97689295D02*
X146962714Y-97784533D01*
X146962714Y-97784533D02*
X146915095Y-97927390D01*
X146915095Y-97927390D02*
X146343667Y-98498819D01*
X146343667Y-98498819D02*
X146962714Y-98498819D01*
X162234571Y-75132900D02*
X162139333Y-75085281D01*
X162139333Y-75085281D02*
X162044095Y-74990043D01*
X162044095Y-74990043D02*
X161901238Y-74847185D01*
X161901238Y-74847185D02*
X161806000Y-74799566D01*
X161806000Y-74799566D02*
X161710762Y-74799566D01*
X161758381Y-75037662D02*
X161663143Y-74990043D01*
X161663143Y-74990043D02*
X161567905Y-74894804D01*
X161567905Y-74894804D02*
X161520286Y-74704328D01*
X161520286Y-74704328D02*
X161520286Y-74370995D01*
X161520286Y-74370995D02*
X161567905Y-74180519D01*
X161567905Y-74180519D02*
X161663143Y-74085281D01*
X161663143Y-74085281D02*
X161758381Y-74037662D01*
X161758381Y-74037662D02*
X161948857Y-74037662D01*
X161948857Y-74037662D02*
X162044095Y-74085281D01*
X162044095Y-74085281D02*
X162139333Y-74180519D01*
X162139333Y-74180519D02*
X162186952Y-74370995D01*
X162186952Y-74370995D02*
X162186952Y-74704328D01*
X162186952Y-74704328D02*
X162139333Y-74894804D01*
X162139333Y-74894804D02*
X162044095Y-74990043D01*
X162044095Y-74990043D02*
X161948857Y-75037662D01*
X161948857Y-75037662D02*
X161758381Y-75037662D01*
X162567905Y-74132900D02*
X162615524Y-74085281D01*
X162615524Y-74085281D02*
X162710762Y-74037662D01*
X162710762Y-74037662D02*
X162948857Y-74037662D01*
X162948857Y-74037662D02*
X163044095Y-74085281D01*
X163044095Y-74085281D02*
X163091714Y-74132900D01*
X163091714Y-74132900D02*
X163139333Y-74228138D01*
X163139333Y-74228138D02*
X163139333Y-74323376D01*
X163139333Y-74323376D02*
X163091714Y-74466233D01*
X163091714Y-74466233D02*
X162520286Y-75037662D01*
X162520286Y-75037662D02*
X163139333Y-75037662D01*
X145438905Y-95958819D02*
X145438905Y-94958819D01*
X145438905Y-94958819D02*
X145677000Y-94958819D01*
X145677000Y-94958819D02*
X145819857Y-95006438D01*
X145819857Y-95006438D02*
X145915095Y-95101676D01*
X145915095Y-95101676D02*
X145962714Y-95196914D01*
X145962714Y-95196914D02*
X146010333Y-95387390D01*
X146010333Y-95387390D02*
X146010333Y-95530247D01*
X146010333Y-95530247D02*
X145962714Y-95720723D01*
X145962714Y-95720723D02*
X145915095Y-95815961D01*
X145915095Y-95815961D02*
X145819857Y-95911200D01*
X145819857Y-95911200D02*
X145677000Y-95958819D01*
X145677000Y-95958819D02*
X145438905Y-95958819D01*
X146343667Y-94958819D02*
X146962714Y-94958819D01*
X146962714Y-94958819D02*
X146629381Y-95339771D01*
X146629381Y-95339771D02*
X146772238Y-95339771D01*
X146772238Y-95339771D02*
X146867476Y-95387390D01*
X146867476Y-95387390D02*
X146915095Y-95435009D01*
X146915095Y-95435009D02*
X146962714Y-95530247D01*
X146962714Y-95530247D02*
X146962714Y-95768342D01*
X146962714Y-95768342D02*
X146915095Y-95863580D01*
X146915095Y-95863580D02*
X146867476Y-95911200D01*
X146867476Y-95911200D02*
X146772238Y-95958819D01*
X146772238Y-95958819D02*
X146486524Y-95958819D01*
X146486524Y-95958819D02*
X146391286Y-95911200D01*
X146391286Y-95911200D02*
X146343667Y-95863580D01*
X119745142Y-90563819D02*
X119411809Y-90087628D01*
X119173714Y-90563819D02*
X119173714Y-89563819D01*
X119173714Y-89563819D02*
X119554666Y-89563819D01*
X119554666Y-89563819D02*
X119649904Y-89611438D01*
X119649904Y-89611438D02*
X119697523Y-89659057D01*
X119697523Y-89659057D02*
X119745142Y-89754295D01*
X119745142Y-89754295D02*
X119745142Y-89897152D01*
X119745142Y-89897152D02*
X119697523Y-89992390D01*
X119697523Y-89992390D02*
X119649904Y-90040009D01*
X119649904Y-90040009D02*
X119554666Y-90087628D01*
X119554666Y-90087628D02*
X119173714Y-90087628D01*
X120649904Y-89563819D02*
X120173714Y-89563819D01*
X120173714Y-89563819D02*
X120126095Y-90040009D01*
X120126095Y-90040009D02*
X120173714Y-89992390D01*
X120173714Y-89992390D02*
X120268952Y-89944771D01*
X120268952Y-89944771D02*
X120507047Y-89944771D01*
X120507047Y-89944771D02*
X120602285Y-89992390D01*
X120602285Y-89992390D02*
X120649904Y-90040009D01*
X120649904Y-90040009D02*
X120697523Y-90135247D01*
X120697523Y-90135247D02*
X120697523Y-90373342D01*
X120697523Y-90373342D02*
X120649904Y-90468580D01*
X120649904Y-90468580D02*
X120602285Y-90516200D01*
X120602285Y-90516200D02*
X120507047Y-90563819D01*
X120507047Y-90563819D02*
X120268952Y-90563819D01*
X120268952Y-90563819D02*
X120173714Y-90516200D01*
X120173714Y-90516200D02*
X120126095Y-90468580D01*
X162085128Y-80309572D02*
X161989890Y-80261953D01*
X161989890Y-80261953D02*
X161894652Y-80166715D01*
X161894652Y-80166715D02*
X161751795Y-80023857D01*
X161751795Y-80023857D02*
X161656557Y-79976238D01*
X161656557Y-79976238D02*
X161561319Y-79976238D01*
X161608938Y-80214334D02*
X161513700Y-80166715D01*
X161513700Y-80166715D02*
X161418462Y-80071476D01*
X161418462Y-80071476D02*
X161370843Y-79881000D01*
X161370843Y-79881000D02*
X161370843Y-79547667D01*
X161370843Y-79547667D02*
X161418462Y-79357191D01*
X161418462Y-79357191D02*
X161513700Y-79261953D01*
X161513700Y-79261953D02*
X161608938Y-79214334D01*
X161608938Y-79214334D02*
X161799414Y-79214334D01*
X161799414Y-79214334D02*
X161894652Y-79261953D01*
X161894652Y-79261953D02*
X161989890Y-79357191D01*
X161989890Y-79357191D02*
X162037509Y-79547667D01*
X162037509Y-79547667D02*
X162037509Y-79881000D01*
X162037509Y-79881000D02*
X161989890Y-80071476D01*
X161989890Y-80071476D02*
X161894652Y-80166715D01*
X161894652Y-80166715D02*
X161799414Y-80214334D01*
X161799414Y-80214334D02*
X161608938Y-80214334D01*
X162989890Y-80214334D02*
X162418462Y-80214334D01*
X162704176Y-80214334D02*
X162704176Y-79214334D01*
X162704176Y-79214334D02*
X162608938Y-79357191D01*
X162608938Y-79357191D02*
X162513700Y-79452429D01*
X162513700Y-79452429D02*
X162418462Y-79500048D01*
X119745142Y-75323819D02*
X119411809Y-74847628D01*
X119173714Y-75323819D02*
X119173714Y-74323819D01*
X119173714Y-74323819D02*
X119554666Y-74323819D01*
X119554666Y-74323819D02*
X119649904Y-74371438D01*
X119649904Y-74371438D02*
X119697523Y-74419057D01*
X119697523Y-74419057D02*
X119745142Y-74514295D01*
X119745142Y-74514295D02*
X119745142Y-74657152D01*
X119745142Y-74657152D02*
X119697523Y-74752390D01*
X119697523Y-74752390D02*
X119649904Y-74800009D01*
X119649904Y-74800009D02*
X119554666Y-74847628D01*
X119554666Y-74847628D02*
X119173714Y-74847628D01*
X120602285Y-74657152D02*
X120602285Y-75323819D01*
X120364190Y-74276200D02*
X120126095Y-74990485D01*
X120126095Y-74990485D02*
X120745142Y-74990485D01*
X119745142Y-79133819D02*
X119411809Y-78657628D01*
X119173714Y-79133819D02*
X119173714Y-78133819D01*
X119173714Y-78133819D02*
X119554666Y-78133819D01*
X119554666Y-78133819D02*
X119649904Y-78181438D01*
X119649904Y-78181438D02*
X119697523Y-78229057D01*
X119697523Y-78229057D02*
X119745142Y-78324295D01*
X119745142Y-78324295D02*
X119745142Y-78467152D01*
X119745142Y-78467152D02*
X119697523Y-78562390D01*
X119697523Y-78562390D02*
X119649904Y-78610009D01*
X119649904Y-78610009D02*
X119554666Y-78657628D01*
X119554666Y-78657628D02*
X119173714Y-78657628D01*
X120126095Y-78229057D02*
X120173714Y-78181438D01*
X120173714Y-78181438D02*
X120268952Y-78133819D01*
X120268952Y-78133819D02*
X120507047Y-78133819D01*
X120507047Y-78133819D02*
X120602285Y-78181438D01*
X120602285Y-78181438D02*
X120649904Y-78229057D01*
X120649904Y-78229057D02*
X120697523Y-78324295D01*
X120697523Y-78324295D02*
X120697523Y-78419533D01*
X120697523Y-78419533D02*
X120649904Y-78562390D01*
X120649904Y-78562390D02*
X120078476Y-79133819D01*
X120078476Y-79133819D02*
X120697523Y-79133819D01*
X119745142Y-82943819D02*
X119411809Y-82467628D01*
X119173714Y-82943819D02*
X119173714Y-81943819D01*
X119173714Y-81943819D02*
X119554666Y-81943819D01*
X119554666Y-81943819D02*
X119649904Y-81991438D01*
X119649904Y-81991438D02*
X119697523Y-82039057D01*
X119697523Y-82039057D02*
X119745142Y-82134295D01*
X119745142Y-82134295D02*
X119745142Y-82277152D01*
X119745142Y-82277152D02*
X119697523Y-82372390D01*
X119697523Y-82372390D02*
X119649904Y-82420009D01*
X119649904Y-82420009D02*
X119554666Y-82467628D01*
X119554666Y-82467628D02*
X119173714Y-82467628D01*
X120697523Y-82943819D02*
X120126095Y-82943819D01*
X120411809Y-82943819D02*
X120411809Y-81943819D01*
X120411809Y-81943819D02*
X120316571Y-82086676D01*
X120316571Y-82086676D02*
X120221333Y-82181914D01*
X120221333Y-82181914D02*
X120126095Y-82229533D01*
X161464666Y-109734819D02*
X161464666Y-110449104D01*
X161464666Y-110449104D02*
X161417047Y-110591961D01*
X161417047Y-110591961D02*
X161321809Y-110687200D01*
X161321809Y-110687200D02*
X161178952Y-110734819D01*
X161178952Y-110734819D02*
X161083714Y-110734819D01*
X161893238Y-109830057D02*
X161940857Y-109782438D01*
X161940857Y-109782438D02*
X162036095Y-109734819D01*
X162036095Y-109734819D02*
X162274190Y-109734819D01*
X162274190Y-109734819D02*
X162369428Y-109782438D01*
X162369428Y-109782438D02*
X162417047Y-109830057D01*
X162417047Y-109830057D02*
X162464666Y-109925295D01*
X162464666Y-109925295D02*
X162464666Y-110020533D01*
X162464666Y-110020533D02*
X162417047Y-110163390D01*
X162417047Y-110163390D02*
X161845619Y-110734819D01*
X161845619Y-110734819D02*
X162464666Y-110734819D01*
D12*
%TO.C,J1*%
X126394000Y-108298000D02*
G75*
G03*
X126394000Y-108298000I-1680000J0D01*
G01*
X126394000Y-103298000D02*
G75*
G03*
X126394000Y-103298000I-1680000J0D01*
G01*
X124030000Y-99833000D02*
G75*
G03*
X125397042Y-99833426I684000J1535000D01*
G01*
X123034001Y-98298000D02*
G75*
G03*
X123179245Y-98981318I1679999J0D01*
G01*
X123179001Y-97614000D02*
G75*
G03*
X123033748Y-98326805I1535000J-683999D01*
G01*
X126248999Y-98981999D02*
G75*
G03*
X126249426Y-97614958I-1534992J684000D01*
G01*
X125397999Y-96763001D02*
G75*
G03*
X124030958Y-96762574I-684000J-1534992D01*
G01*
X129975000Y-110858000D02*
X120054000Y-110858000D01*
X125783000Y-109573000D02*
X125737000Y-109526000D01*
X125989000Y-109368000D02*
X125953000Y-109333000D01*
X123475000Y-107264000D02*
X123440000Y-107229000D01*
X123691000Y-107071000D02*
X123645000Y-107024000D01*
X125783000Y-104573000D02*
X125737000Y-104526000D01*
X125989000Y-104368000D02*
X125953000Y-104333000D01*
X123475000Y-102264000D02*
X123440000Y-102229000D01*
X123691000Y-102071000D02*
X123645000Y-102024000D01*
X120054000Y-95738000D02*
X120054000Y-110858000D01*
X120614000Y-95738000D02*
X120614000Y-110858000D01*
X122114000Y-95738000D02*
X122114000Y-110858000D01*
X127015000Y-95738000D02*
X127015000Y-110858000D01*
X129975000Y-95738000D02*
X129975000Y-110858000D01*
X129975000Y-95738000D02*
X120054000Y-95738000D01*
X119814000Y-95498000D02*
X119814000Y-95998000D01*
X120554000Y-95498000D02*
X119814000Y-95498000D01*
%TO.C,U1*%
D10*
X127642500Y-66040000D02*
X127007500Y-66675000D01*
X127007500Y-65405000D01*
X127642500Y-66040000D01*
G36*
X127642500Y-66040000D02*
G01*
X127007500Y-66675000D01*
X127007500Y-65405000D01*
X127642500Y-66040000D01*
G37*
D12*
X153907500Y-59830000D02*
G75*
G03*
X151777500Y-57700000I-2130000J0D01*
G01*
X130177500Y-57700000D02*
G75*
G03*
X128047500Y-59830000I2J-2130002D01*
G01*
X153907500Y-92160000D02*
X153907500Y-59830000D01*
X151787500Y-57700000D02*
X130177500Y-57700000D01*
X130587500Y-92160000D02*
X153907500Y-92160000D01*
X130587500Y-85260000D02*
X130587500Y-92160000D01*
X128047500Y-85260000D02*
X130587500Y-85260000D01*
X128047500Y-85260000D02*
X128047500Y-59830000D01*
%TO.C,R3*%
X158880436Y-71950222D02*
X159334564Y-71950222D01*
X158880436Y-70480222D02*
X159334564Y-70480222D01*
%TO.C,Q3*%
X123190000Y-69052000D02*
X122540000Y-69052000D01*
X123190000Y-69052000D02*
X123840000Y-69052000D01*
X123190000Y-72172000D02*
X122540000Y-72172000D01*
X123190000Y-72172000D02*
X124865000Y-72172000D01*
%TO.C,D1*%
X151616000Y-101434000D02*
X151616000Y-99734000D01*
X151616000Y-101434000D02*
X148356000Y-101434000D01*
X151616000Y-99734000D02*
X148356000Y-99734000D01*
%TO.C,G\u002A\u002A\u002A*%
G36*
X134758063Y-110763927D02*
G01*
X135159610Y-111112942D01*
X135258669Y-111439645D01*
X135443558Y-111995397D01*
X135937759Y-112282788D01*
X136215593Y-112349878D01*
X137406355Y-112755368D01*
X138150871Y-113341042D01*
X138444189Y-114020075D01*
X138281357Y-114705639D01*
X137657425Y-115310908D01*
X136567441Y-115749057D01*
X136411478Y-115784914D01*
X135718613Y-115985328D01*
X135433054Y-116256538D01*
X135411695Y-116620370D01*
X135348030Y-117347154D01*
X135209238Y-117731376D01*
X135098992Y-118161035D01*
X135448554Y-118397213D01*
X135483404Y-118408544D01*
X135850721Y-118667329D01*
X135835011Y-118892783D01*
X135679239Y-119392188D01*
X135628428Y-119881664D01*
X135442808Y-120471308D01*
X135141510Y-120651340D01*
X134801624Y-120595017D01*
X134675782Y-120165097D01*
X134668638Y-119913218D01*
X134633101Y-119758298D01*
X135209064Y-119758298D01*
X135344170Y-119893405D01*
X135479276Y-119758298D01*
X135344170Y-119623192D01*
X135209064Y-119758298D01*
X134633101Y-119758298D01*
X134522087Y-119274336D01*
X134103225Y-119082930D01*
X133443241Y-119339317D01*
X132733606Y-119893405D01*
X132046213Y-120474425D01*
X131647604Y-120654565D01*
X131465255Y-120434833D01*
X131426085Y-119911614D01*
X131359012Y-119614711D01*
X131966510Y-119614711D01*
X132164578Y-119763386D01*
X132371830Y-119720908D01*
X132727366Y-119529115D01*
X132777149Y-119459176D01*
X132556498Y-119364717D01*
X132371830Y-119352979D01*
X132012171Y-119494390D01*
X131966510Y-119614711D01*
X131359012Y-119614711D01*
X131269984Y-119220620D01*
X130910622Y-118955583D01*
X130394844Y-118600191D01*
X130158234Y-118083823D01*
X130615447Y-118083823D01*
X130805797Y-118532394D01*
X130953213Y-118633597D01*
X131601951Y-118750751D01*
X132495718Y-118758355D01*
X133351870Y-118663579D01*
X133722893Y-118563331D01*
X134263319Y-118352092D01*
X133722893Y-118192395D01*
X133131376Y-118058364D01*
X132273778Y-117907672D01*
X131898957Y-117851519D01*
X131109317Y-117770771D01*
X130722675Y-117834835D01*
X130615671Y-118066039D01*
X130615447Y-118083823D01*
X130158234Y-118083823D01*
X130153569Y-118073643D01*
X130225198Y-117707318D01*
X130584807Y-117517334D01*
X131036713Y-117461490D01*
X131581261Y-117315886D01*
X131712069Y-116938095D01*
X131450371Y-116416644D01*
X130817400Y-115840060D01*
X130615447Y-115705107D01*
X129879234Y-115140689D01*
X129564649Y-114601501D01*
X129534596Y-114332889D01*
X129687451Y-113647100D01*
X130130875Y-113647100D01*
X130137541Y-114468255D01*
X130657340Y-115225228D01*
X131024111Y-115504931D01*
X131729816Y-116112429D01*
X131965822Y-116748311D01*
X131966510Y-116788442D01*
X132059318Y-117295066D01*
X132236723Y-117461490D01*
X132399112Y-117220248D01*
X132417941Y-117101206D01*
X132777149Y-117101206D01*
X132921752Y-117431118D01*
X133018452Y-117461490D01*
X133209950Y-117326383D01*
X133910677Y-117326383D01*
X133939885Y-117787859D01*
X134024474Y-117828489D01*
X134035242Y-117804398D01*
X134088696Y-117267976D01*
X134045255Y-116993760D01*
X133959242Y-116883567D01*
X133912459Y-117242471D01*
X133910677Y-117326383D01*
X133209950Y-117326383D01*
X133320211Y-117248591D01*
X133398009Y-117101206D01*
X133320500Y-116784579D01*
X133156706Y-116740922D01*
X132814834Y-116945153D01*
X132777149Y-117101206D01*
X132417941Y-117101206D01*
X132495472Y-116611046D01*
X132506936Y-116267632D01*
X132529633Y-115738193D01*
X132777149Y-115738193D01*
X132839607Y-116025703D01*
X133118550Y-115912136D01*
X133250021Y-115814654D01*
X133674711Y-115493518D01*
X133835482Y-115376249D01*
X133702779Y-115316562D01*
X133362610Y-115299788D01*
X132877646Y-115469539D01*
X132777149Y-115738193D01*
X132529633Y-115738193D01*
X132542786Y-115431383D01*
X132622927Y-114849433D01*
X133677858Y-114849433D01*
X133714950Y-115010074D01*
X133858000Y-115029575D01*
X134080416Y-114930708D01*
X134038142Y-114849433D01*
X133717462Y-114817094D01*
X133677858Y-114849433D01*
X132622927Y-114849433D01*
X132632502Y-114779904D01*
X132670952Y-114646356D01*
X132645866Y-114285087D01*
X132400739Y-114218937D01*
X132039568Y-113993469D01*
X131997849Y-113813617D01*
X132236723Y-113813617D01*
X132371830Y-113948724D01*
X132506936Y-113813617D01*
X132371830Y-113678511D01*
X132236723Y-113813617D01*
X131997849Y-113813617D01*
X131966510Y-113678511D01*
X132080681Y-113213144D01*
X132418929Y-113236593D01*
X132912255Y-113678511D01*
X133400913Y-114084671D01*
X133755266Y-114218937D01*
X134200401Y-114472096D01*
X134467744Y-115219241D01*
X134551018Y-116441871D01*
X134549532Y-116560116D01*
X134571285Y-117316506D01*
X134653379Y-117766826D01*
X134731950Y-117827680D01*
X134864053Y-117500319D01*
X134934995Y-116845984D01*
X134938851Y-116640052D01*
X134985375Y-115937176D01*
X135198101Y-115593088D01*
X135681936Y-115430085D01*
X136749376Y-115185950D01*
X137392724Y-114941956D01*
X137724250Y-114632095D01*
X137856222Y-114190358D01*
X137861366Y-114148694D01*
X137815054Y-113618397D01*
X137471197Y-113237150D01*
X136740303Y-112939425D01*
X135942959Y-112744013D01*
X135226829Y-112364862D01*
X134886288Y-111914673D01*
X134557210Y-111362445D01*
X134266592Y-111338769D01*
X133943394Y-111843888D01*
X133909042Y-111918010D01*
X133662711Y-112329789D01*
X133309295Y-112489071D01*
X132663004Y-112458907D01*
X132411800Y-112426134D01*
X131581218Y-112368600D01*
X131038340Y-112519707D01*
X130647748Y-112835572D01*
X130130875Y-113647100D01*
X129687451Y-113647100D01*
X129771568Y-113269704D01*
X130417985Y-112470249D01*
X131377099Y-112008976D01*
X132552161Y-111960333D01*
X132606824Y-111968757D01*
X133257058Y-112035685D01*
X133533880Y-111909061D01*
X133587787Y-111581074D01*
X133781401Y-111014138D01*
X134235077Y-110736374D01*
X134758063Y-110763927D01*
G37*
G36*
X136351105Y-113275784D02*
G01*
X136542752Y-113391842D01*
X136789777Y-113662989D01*
X136601863Y-114033228D01*
X136577219Y-114063236D01*
X136044299Y-114442991D01*
X135547422Y-114385319D01*
X135296315Y-114056559D01*
X135339142Y-113566670D01*
X135507455Y-113385165D01*
X135958245Y-113167553D01*
X136351105Y-113275784D01*
G37*
%TO.C,Q4*%
X123190000Y-85120000D02*
X122540000Y-85120000D01*
X123190000Y-85120000D02*
X123840000Y-85120000D01*
X123190000Y-88240000D02*
X122540000Y-88240000D01*
X123190000Y-88240000D02*
X124865000Y-88240000D01*
%TO.C,D2*%
X151616000Y-97194000D02*
X148356000Y-97194000D01*
X151616000Y-98894000D02*
X148356000Y-98894000D01*
X151616000Y-98894000D02*
X151616000Y-97194000D01*
%TO.C,Q2*%
X159009257Y-76142843D02*
X159659257Y-76142843D01*
X159009257Y-76142843D02*
X158359257Y-76142843D01*
X159009257Y-73022843D02*
X159659257Y-73022843D01*
X159009257Y-73022843D02*
X157334257Y-73022843D01*
%TO.C,D3*%
X151616000Y-96354000D02*
X151616000Y-94654000D01*
X151616000Y-96354000D02*
X148356000Y-96354000D01*
X151616000Y-94654000D02*
X148356000Y-94654000D01*
%TO.C,R5*%
X123417064Y-89435000D02*
X122962936Y-89435000D01*
X123417064Y-90905000D02*
X122962936Y-90905000D01*
%TO.C,Q1*%
X159009257Y-78199515D02*
X158359257Y-78199515D01*
X159009257Y-78199515D02*
X159659257Y-78199515D01*
X159009257Y-81319515D02*
X158359257Y-81319515D01*
X159009257Y-81319515D02*
X160684257Y-81319515D01*
%TO.C,R4*%
X123417064Y-74195000D02*
X122962936Y-74195000D01*
X123417064Y-75665000D02*
X122962936Y-75665000D01*
%TO.C,R2*%
X123417064Y-78005000D02*
X122962936Y-78005000D01*
X123417064Y-79475000D02*
X122962936Y-79475000D01*
%TO.C,R1*%
X122962936Y-83285000D02*
X123417064Y-83285000D01*
X122962936Y-81815000D02*
X123417064Y-81815000D01*
%TO.C,J2*%
X163128000Y-109280000D02*
X161798000Y-109280000D01*
X163128000Y-107950000D02*
X163128000Y-109280000D01*
X163128000Y-106680000D02*
X163128000Y-83760000D01*
X163128000Y-106680000D02*
X160468000Y-106680000D01*
X163128000Y-83760000D02*
X160468000Y-83760000D01*
X160468000Y-106680000D02*
X160468000Y-83760000D01*
%TD*%
M02*
