%TF.GenerationSoftware,KiCad,Pcbnew,7.0.9*%
%TF.CreationDate,2023-11-08T10:56:30-08:00*%
%TF.ProjectId,RatGDO-OpenSource-D1Mini-ESP8266,52617447-444f-42d4-9f70-656e536f7572,2.5.0*%
%TF.SameCoordinates,Original*%
%TF.FileFunction,Drillmap*%
%TF.FilePolarity,Positive*%
%FSLAX45Y45*%
G04 Gerber Fmt 4.5, Leading zero omitted, Abs format (unit mm)*
G04 Created by KiCad (PCBNEW 7.0.9) date 2023-11-08 10:56:30*
%MOMM*%
%LPD*%
G01*
G04 APERTURE LIST*
%ADD10C,0.100000*%
%ADD11C,0.200000*%
%ADD12C,0.500000*%
G04 APERTURE END LIST*
D10*
X11506200Y-5715000D02*
X16687800Y-5715000D01*
X16687800Y-12293600D01*
X11506200Y-12293600D01*
X11506200Y-5715000D01*
D11*
D12*
X11789600Y-5998400D02*
X12289600Y-6498400D01*
X12289600Y-5998400D02*
X11789600Y-6498400D01*
X13897800Y-11129200D02*
X14397800Y-11629200D01*
X14397800Y-11129200D02*
X13897800Y-11629200D01*
X15904400Y-5998400D02*
X16404400Y-6498400D01*
X16404400Y-5998400D02*
X15904400Y-6498400D01*
D11*
X11761977Y-12610084D02*
X11761977Y-12410084D01*
X11761977Y-12410084D02*
X11809596Y-12410084D01*
X11809596Y-12410084D02*
X11838167Y-12419608D01*
X11838167Y-12419608D02*
X11857215Y-12438655D01*
X11857215Y-12438655D02*
X11866739Y-12457703D01*
X11866739Y-12457703D02*
X11876262Y-12495798D01*
X11876262Y-12495798D02*
X11876262Y-12524369D01*
X11876262Y-12524369D02*
X11866739Y-12562465D01*
X11866739Y-12562465D02*
X11857215Y-12581512D01*
X11857215Y-12581512D02*
X11838167Y-12600560D01*
X11838167Y-12600560D02*
X11809596Y-12610084D01*
X11809596Y-12610084D02*
X11761977Y-12610084D01*
X11961977Y-12610084D02*
X11961977Y-12476750D01*
X11961977Y-12514846D02*
X11971501Y-12495798D01*
X11971501Y-12495798D02*
X11981024Y-12486274D01*
X11981024Y-12486274D02*
X12000072Y-12476750D01*
X12000072Y-12476750D02*
X12019120Y-12476750D01*
X12085786Y-12610084D02*
X12085786Y-12476750D01*
X12085786Y-12410084D02*
X12076262Y-12419608D01*
X12076262Y-12419608D02*
X12085786Y-12429131D01*
X12085786Y-12429131D02*
X12095310Y-12419608D01*
X12095310Y-12419608D02*
X12085786Y-12410084D01*
X12085786Y-12410084D02*
X12085786Y-12429131D01*
X12209596Y-12610084D02*
X12190548Y-12600560D01*
X12190548Y-12600560D02*
X12181024Y-12581512D01*
X12181024Y-12581512D02*
X12181024Y-12410084D01*
X12314358Y-12610084D02*
X12295310Y-12600560D01*
X12295310Y-12600560D02*
X12285786Y-12581512D01*
X12285786Y-12581512D02*
X12285786Y-12410084D01*
X12542929Y-12610084D02*
X12542929Y-12410084D01*
X12542929Y-12410084D02*
X12609596Y-12552941D01*
X12609596Y-12552941D02*
X12676262Y-12410084D01*
X12676262Y-12410084D02*
X12676262Y-12610084D01*
X12857215Y-12610084D02*
X12857215Y-12505322D01*
X12857215Y-12505322D02*
X12847691Y-12486274D01*
X12847691Y-12486274D02*
X12828643Y-12476750D01*
X12828643Y-12476750D02*
X12790548Y-12476750D01*
X12790548Y-12476750D02*
X12771501Y-12486274D01*
X12857215Y-12600560D02*
X12838167Y-12610084D01*
X12838167Y-12610084D02*
X12790548Y-12610084D01*
X12790548Y-12610084D02*
X12771501Y-12600560D01*
X12771501Y-12600560D02*
X12761977Y-12581512D01*
X12761977Y-12581512D02*
X12761977Y-12562465D01*
X12761977Y-12562465D02*
X12771501Y-12543417D01*
X12771501Y-12543417D02*
X12790548Y-12533893D01*
X12790548Y-12533893D02*
X12838167Y-12533893D01*
X12838167Y-12533893D02*
X12857215Y-12524369D01*
X12952453Y-12476750D02*
X12952453Y-12676750D01*
X12952453Y-12486274D02*
X12971501Y-12476750D01*
X12971501Y-12476750D02*
X13009596Y-12476750D01*
X13009596Y-12476750D02*
X13028643Y-12486274D01*
X13028643Y-12486274D02*
X13038167Y-12495798D01*
X13038167Y-12495798D02*
X13047691Y-12514846D01*
X13047691Y-12514846D02*
X13047691Y-12571988D01*
X13047691Y-12571988D02*
X13038167Y-12591036D01*
X13038167Y-12591036D02*
X13028643Y-12600560D01*
X13028643Y-12600560D02*
X13009596Y-12610084D01*
X13009596Y-12610084D02*
X12971501Y-12610084D01*
X12971501Y-12610084D02*
X12952453Y-12600560D01*
X13133405Y-12591036D02*
X13142929Y-12600560D01*
X13142929Y-12600560D02*
X13133405Y-12610084D01*
X13133405Y-12610084D02*
X13123882Y-12600560D01*
X13123882Y-12600560D02*
X13133405Y-12591036D01*
X13133405Y-12591036D02*
X13133405Y-12610084D01*
X13133405Y-12486274D02*
X13142929Y-12495798D01*
X13142929Y-12495798D02*
X13133405Y-12505322D01*
X13133405Y-12505322D02*
X13123882Y-12495798D01*
X13123882Y-12495798D02*
X13133405Y-12486274D01*
X13133405Y-12486274D02*
X13133405Y-12505322D01*
X11301200Y-12838600D02*
X11501200Y-13038600D01*
X11501200Y-12838600D02*
X11301200Y-13038600D01*
X11857215Y-12830084D02*
X11761977Y-12830084D01*
X11761977Y-12830084D02*
X11752453Y-12925322D01*
X11752453Y-12925322D02*
X11761977Y-12915798D01*
X11761977Y-12915798D02*
X11781024Y-12906274D01*
X11781024Y-12906274D02*
X11828643Y-12906274D01*
X11828643Y-12906274D02*
X11847691Y-12915798D01*
X11847691Y-12915798D02*
X11857215Y-12925322D01*
X11857215Y-12925322D02*
X11866739Y-12944369D01*
X11866739Y-12944369D02*
X11866739Y-12991988D01*
X11866739Y-12991988D02*
X11857215Y-13011036D01*
X11857215Y-13011036D02*
X11847691Y-13020560D01*
X11847691Y-13020560D02*
X11828643Y-13030084D01*
X11828643Y-13030084D02*
X11781024Y-13030084D01*
X11781024Y-13030084D02*
X11761977Y-13020560D01*
X11761977Y-13020560D02*
X11752453Y-13011036D01*
X11952453Y-13011036D02*
X11961977Y-13020560D01*
X11961977Y-13020560D02*
X11952453Y-13030084D01*
X11952453Y-13030084D02*
X11942929Y-13020560D01*
X11942929Y-13020560D02*
X11952453Y-13011036D01*
X11952453Y-13011036D02*
X11952453Y-13030084D01*
X12085786Y-12830084D02*
X12104834Y-12830084D01*
X12104834Y-12830084D02*
X12123882Y-12839608D01*
X12123882Y-12839608D02*
X12133405Y-12849131D01*
X12133405Y-12849131D02*
X12142929Y-12868179D01*
X12142929Y-12868179D02*
X12152453Y-12906274D01*
X12152453Y-12906274D02*
X12152453Y-12953893D01*
X12152453Y-12953893D02*
X12142929Y-12991988D01*
X12142929Y-12991988D02*
X12133405Y-13011036D01*
X12133405Y-13011036D02*
X12123882Y-13020560D01*
X12123882Y-13020560D02*
X12104834Y-13030084D01*
X12104834Y-13030084D02*
X12085786Y-13030084D01*
X12085786Y-13030084D02*
X12066739Y-13020560D01*
X12066739Y-13020560D02*
X12057215Y-13011036D01*
X12057215Y-13011036D02*
X12047691Y-12991988D01*
X12047691Y-12991988D02*
X12038167Y-12953893D01*
X12038167Y-12953893D02*
X12038167Y-12906274D01*
X12038167Y-12906274D02*
X12047691Y-12868179D01*
X12047691Y-12868179D02*
X12057215Y-12849131D01*
X12057215Y-12849131D02*
X12066739Y-12839608D01*
X12066739Y-12839608D02*
X12085786Y-12830084D01*
X12276262Y-12830084D02*
X12295310Y-12830084D01*
X12295310Y-12830084D02*
X12314358Y-12839608D01*
X12314358Y-12839608D02*
X12323882Y-12849131D01*
X12323882Y-12849131D02*
X12333405Y-12868179D01*
X12333405Y-12868179D02*
X12342929Y-12906274D01*
X12342929Y-12906274D02*
X12342929Y-12953893D01*
X12342929Y-12953893D02*
X12333405Y-12991988D01*
X12333405Y-12991988D02*
X12323882Y-13011036D01*
X12323882Y-13011036D02*
X12314358Y-13020560D01*
X12314358Y-13020560D02*
X12295310Y-13030084D01*
X12295310Y-13030084D02*
X12276262Y-13030084D01*
X12276262Y-13030084D02*
X12257215Y-13020560D01*
X12257215Y-13020560D02*
X12247691Y-13011036D01*
X12247691Y-13011036D02*
X12238167Y-12991988D01*
X12238167Y-12991988D02*
X12228643Y-12953893D01*
X12228643Y-12953893D02*
X12228643Y-12906274D01*
X12228643Y-12906274D02*
X12238167Y-12868179D01*
X12238167Y-12868179D02*
X12247691Y-12849131D01*
X12247691Y-12849131D02*
X12257215Y-12839608D01*
X12257215Y-12839608D02*
X12276262Y-12830084D01*
X12466739Y-12830084D02*
X12485786Y-12830084D01*
X12485786Y-12830084D02*
X12504834Y-12839608D01*
X12504834Y-12839608D02*
X12514358Y-12849131D01*
X12514358Y-12849131D02*
X12523882Y-12868179D01*
X12523882Y-12868179D02*
X12533405Y-12906274D01*
X12533405Y-12906274D02*
X12533405Y-12953893D01*
X12533405Y-12953893D02*
X12523882Y-12991988D01*
X12523882Y-12991988D02*
X12514358Y-13011036D01*
X12514358Y-13011036D02*
X12504834Y-13020560D01*
X12504834Y-13020560D02*
X12485786Y-13030084D01*
X12485786Y-13030084D02*
X12466739Y-13030084D01*
X12466739Y-13030084D02*
X12447691Y-13020560D01*
X12447691Y-13020560D02*
X12438167Y-13011036D01*
X12438167Y-13011036D02*
X12428643Y-12991988D01*
X12428643Y-12991988D02*
X12419120Y-12953893D01*
X12419120Y-12953893D02*
X12419120Y-12906274D01*
X12419120Y-12906274D02*
X12428643Y-12868179D01*
X12428643Y-12868179D02*
X12438167Y-12849131D01*
X12438167Y-12849131D02*
X12447691Y-12839608D01*
X12447691Y-12839608D02*
X12466739Y-12830084D01*
X12619120Y-13030084D02*
X12619120Y-12896750D01*
X12619120Y-12915798D02*
X12628643Y-12906274D01*
X12628643Y-12906274D02*
X12647691Y-12896750D01*
X12647691Y-12896750D02*
X12676263Y-12896750D01*
X12676263Y-12896750D02*
X12695310Y-12906274D01*
X12695310Y-12906274D02*
X12704834Y-12925322D01*
X12704834Y-12925322D02*
X12704834Y-13030084D01*
X12704834Y-12925322D02*
X12714358Y-12906274D01*
X12714358Y-12906274D02*
X12733405Y-12896750D01*
X12733405Y-12896750D02*
X12761977Y-12896750D01*
X12761977Y-12896750D02*
X12781024Y-12906274D01*
X12781024Y-12906274D02*
X12790548Y-12925322D01*
X12790548Y-12925322D02*
X12790548Y-13030084D01*
X12885786Y-13030084D02*
X12885786Y-12896750D01*
X12885786Y-12915798D02*
X12895310Y-12906274D01*
X12895310Y-12906274D02*
X12914358Y-12896750D01*
X12914358Y-12896750D02*
X12942929Y-12896750D01*
X12942929Y-12896750D02*
X12961977Y-12906274D01*
X12961977Y-12906274D02*
X12971501Y-12925322D01*
X12971501Y-12925322D02*
X12971501Y-13030084D01*
X12971501Y-12925322D02*
X12981024Y-12906274D01*
X12981024Y-12906274D02*
X13000072Y-12896750D01*
X13000072Y-12896750D02*
X13028643Y-12896750D01*
X13028643Y-12896750D02*
X13047691Y-12906274D01*
X13047691Y-12906274D02*
X13057215Y-12925322D01*
X13057215Y-12925322D02*
X13057215Y-13030084D01*
X13447691Y-12820560D02*
X13276263Y-13077703D01*
X13704834Y-12830084D02*
X13723882Y-12830084D01*
X13723882Y-12830084D02*
X13742929Y-12839608D01*
X13742929Y-12839608D02*
X13752453Y-12849131D01*
X13752453Y-12849131D02*
X13761977Y-12868179D01*
X13761977Y-12868179D02*
X13771501Y-12906274D01*
X13771501Y-12906274D02*
X13771501Y-12953893D01*
X13771501Y-12953893D02*
X13761977Y-12991988D01*
X13761977Y-12991988D02*
X13752453Y-13011036D01*
X13752453Y-13011036D02*
X13742929Y-13020560D01*
X13742929Y-13020560D02*
X13723882Y-13030084D01*
X13723882Y-13030084D02*
X13704834Y-13030084D01*
X13704834Y-13030084D02*
X13685786Y-13020560D01*
X13685786Y-13020560D02*
X13676263Y-13011036D01*
X13676263Y-13011036D02*
X13666739Y-12991988D01*
X13666739Y-12991988D02*
X13657215Y-12953893D01*
X13657215Y-12953893D02*
X13657215Y-12906274D01*
X13657215Y-12906274D02*
X13666739Y-12868179D01*
X13666739Y-12868179D02*
X13676263Y-12849131D01*
X13676263Y-12849131D02*
X13685786Y-12839608D01*
X13685786Y-12839608D02*
X13704834Y-12830084D01*
X13857215Y-13011036D02*
X13866739Y-13020560D01*
X13866739Y-13020560D02*
X13857215Y-13030084D01*
X13857215Y-13030084D02*
X13847691Y-13020560D01*
X13847691Y-13020560D02*
X13857215Y-13011036D01*
X13857215Y-13011036D02*
X13857215Y-13030084D01*
X14057215Y-13030084D02*
X13942929Y-13030084D01*
X14000072Y-13030084D02*
X14000072Y-12830084D01*
X14000072Y-12830084D02*
X13981025Y-12858655D01*
X13981025Y-12858655D02*
X13961977Y-12877703D01*
X13961977Y-12877703D02*
X13942929Y-12887227D01*
X14152453Y-13030084D02*
X14190548Y-13030084D01*
X14190548Y-13030084D02*
X14209596Y-13020560D01*
X14209596Y-13020560D02*
X14219120Y-13011036D01*
X14219120Y-13011036D02*
X14238167Y-12982465D01*
X14238167Y-12982465D02*
X14247691Y-12944369D01*
X14247691Y-12944369D02*
X14247691Y-12868179D01*
X14247691Y-12868179D02*
X14238167Y-12849131D01*
X14238167Y-12849131D02*
X14228644Y-12839608D01*
X14228644Y-12839608D02*
X14209596Y-12830084D01*
X14209596Y-12830084D02*
X14171501Y-12830084D01*
X14171501Y-12830084D02*
X14152453Y-12839608D01*
X14152453Y-12839608D02*
X14142929Y-12849131D01*
X14142929Y-12849131D02*
X14133406Y-12868179D01*
X14133406Y-12868179D02*
X14133406Y-12915798D01*
X14133406Y-12915798D02*
X14142929Y-12934846D01*
X14142929Y-12934846D02*
X14152453Y-12944369D01*
X14152453Y-12944369D02*
X14171501Y-12953893D01*
X14171501Y-12953893D02*
X14209596Y-12953893D01*
X14209596Y-12953893D02*
X14228644Y-12944369D01*
X14228644Y-12944369D02*
X14238167Y-12934846D01*
X14238167Y-12934846D02*
X14247691Y-12915798D01*
X14419120Y-12830084D02*
X14381025Y-12830084D01*
X14381025Y-12830084D02*
X14361977Y-12839608D01*
X14361977Y-12839608D02*
X14352453Y-12849131D01*
X14352453Y-12849131D02*
X14333406Y-12877703D01*
X14333406Y-12877703D02*
X14323882Y-12915798D01*
X14323882Y-12915798D02*
X14323882Y-12991988D01*
X14323882Y-12991988D02*
X14333406Y-13011036D01*
X14333406Y-13011036D02*
X14342929Y-13020560D01*
X14342929Y-13020560D02*
X14361977Y-13030084D01*
X14361977Y-13030084D02*
X14400072Y-13030084D01*
X14400072Y-13030084D02*
X14419120Y-13020560D01*
X14419120Y-13020560D02*
X14428644Y-13011036D01*
X14428644Y-13011036D02*
X14438167Y-12991988D01*
X14438167Y-12991988D02*
X14438167Y-12944369D01*
X14438167Y-12944369D02*
X14428644Y-12925322D01*
X14428644Y-12925322D02*
X14419120Y-12915798D01*
X14419120Y-12915798D02*
X14400072Y-12906274D01*
X14400072Y-12906274D02*
X14361977Y-12906274D01*
X14361977Y-12906274D02*
X14342929Y-12915798D01*
X14342929Y-12915798D02*
X14333406Y-12925322D01*
X14333406Y-12925322D02*
X14323882Y-12944369D01*
X14533406Y-13030084D02*
X14571501Y-13030084D01*
X14571501Y-13030084D02*
X14590548Y-13020560D01*
X14590548Y-13020560D02*
X14600072Y-13011036D01*
X14600072Y-13011036D02*
X14619120Y-12982465D01*
X14619120Y-12982465D02*
X14628644Y-12944369D01*
X14628644Y-12944369D02*
X14628644Y-12868179D01*
X14628644Y-12868179D02*
X14619120Y-12849131D01*
X14619120Y-12849131D02*
X14609596Y-12839608D01*
X14609596Y-12839608D02*
X14590548Y-12830084D01*
X14590548Y-12830084D02*
X14552453Y-12830084D01*
X14552453Y-12830084D02*
X14533406Y-12839608D01*
X14533406Y-12839608D02*
X14523882Y-12849131D01*
X14523882Y-12849131D02*
X14514358Y-12868179D01*
X14514358Y-12868179D02*
X14514358Y-12915798D01*
X14514358Y-12915798D02*
X14523882Y-12934846D01*
X14523882Y-12934846D02*
X14533406Y-12944369D01*
X14533406Y-12944369D02*
X14552453Y-12953893D01*
X14552453Y-12953893D02*
X14590548Y-12953893D01*
X14590548Y-12953893D02*
X14609596Y-12944369D01*
X14609596Y-12944369D02*
X14619120Y-12934846D01*
X14619120Y-12934846D02*
X14628644Y-12915798D01*
X14704834Y-12830084D02*
X14704834Y-12868179D01*
X14781025Y-12830084D02*
X14781025Y-12868179D01*
X15076263Y-13106274D02*
X15066739Y-13096750D01*
X15066739Y-13096750D02*
X15047691Y-13068179D01*
X15047691Y-13068179D02*
X15038168Y-13049131D01*
X15038168Y-13049131D02*
X15028644Y-13020560D01*
X15028644Y-13020560D02*
X15019120Y-12972941D01*
X15019120Y-12972941D02*
X15019120Y-12934846D01*
X15019120Y-12934846D02*
X15028644Y-12887227D01*
X15028644Y-12887227D02*
X15038168Y-12858655D01*
X15038168Y-12858655D02*
X15047691Y-12839608D01*
X15047691Y-12839608D02*
X15066739Y-12811036D01*
X15066739Y-12811036D02*
X15076263Y-12801512D01*
X15133406Y-12830084D02*
X15257215Y-12830084D01*
X15257215Y-12830084D02*
X15190548Y-12906274D01*
X15190548Y-12906274D02*
X15219120Y-12906274D01*
X15219120Y-12906274D02*
X15238168Y-12915798D01*
X15238168Y-12915798D02*
X15247691Y-12925322D01*
X15247691Y-12925322D02*
X15257215Y-12944369D01*
X15257215Y-12944369D02*
X15257215Y-12991988D01*
X15257215Y-12991988D02*
X15247691Y-13011036D01*
X15247691Y-13011036D02*
X15238168Y-13020560D01*
X15238168Y-13020560D02*
X15219120Y-13030084D01*
X15219120Y-13030084D02*
X15161977Y-13030084D01*
X15161977Y-13030084D02*
X15142929Y-13020560D01*
X15142929Y-13020560D02*
X15133406Y-13011036D01*
X15495310Y-13030084D02*
X15495310Y-12830084D01*
X15581025Y-13030084D02*
X15581025Y-12925322D01*
X15581025Y-12925322D02*
X15571501Y-12906274D01*
X15571501Y-12906274D02*
X15552453Y-12896750D01*
X15552453Y-12896750D02*
X15523882Y-12896750D01*
X15523882Y-12896750D02*
X15504834Y-12906274D01*
X15504834Y-12906274D02*
X15495310Y-12915798D01*
X15704834Y-13030084D02*
X15685787Y-13020560D01*
X15685787Y-13020560D02*
X15676263Y-13011036D01*
X15676263Y-13011036D02*
X15666739Y-12991988D01*
X15666739Y-12991988D02*
X15666739Y-12934846D01*
X15666739Y-12934846D02*
X15676263Y-12915798D01*
X15676263Y-12915798D02*
X15685787Y-12906274D01*
X15685787Y-12906274D02*
X15704834Y-12896750D01*
X15704834Y-12896750D02*
X15733406Y-12896750D01*
X15733406Y-12896750D02*
X15752453Y-12906274D01*
X15752453Y-12906274D02*
X15761977Y-12915798D01*
X15761977Y-12915798D02*
X15771501Y-12934846D01*
X15771501Y-12934846D02*
X15771501Y-12991988D01*
X15771501Y-12991988D02*
X15761977Y-13011036D01*
X15761977Y-13011036D02*
X15752453Y-13020560D01*
X15752453Y-13020560D02*
X15733406Y-13030084D01*
X15733406Y-13030084D02*
X15704834Y-13030084D01*
X15885787Y-13030084D02*
X15866739Y-13020560D01*
X15866739Y-13020560D02*
X15857215Y-13001512D01*
X15857215Y-13001512D02*
X15857215Y-12830084D01*
X16038168Y-13020560D02*
X16019120Y-13030084D01*
X16019120Y-13030084D02*
X15981025Y-13030084D01*
X15981025Y-13030084D02*
X15961977Y-13020560D01*
X15961977Y-13020560D02*
X15952453Y-13001512D01*
X15952453Y-13001512D02*
X15952453Y-12925322D01*
X15952453Y-12925322D02*
X15961977Y-12906274D01*
X15961977Y-12906274D02*
X15981025Y-12896750D01*
X15981025Y-12896750D02*
X16019120Y-12896750D01*
X16019120Y-12896750D02*
X16038168Y-12906274D01*
X16038168Y-12906274D02*
X16047691Y-12925322D01*
X16047691Y-12925322D02*
X16047691Y-12944369D01*
X16047691Y-12944369D02*
X15952453Y-12963417D01*
X16123882Y-13020560D02*
X16142930Y-13030084D01*
X16142930Y-13030084D02*
X16181025Y-13030084D01*
X16181025Y-13030084D02*
X16200072Y-13020560D01*
X16200072Y-13020560D02*
X16209596Y-13001512D01*
X16209596Y-13001512D02*
X16209596Y-12991988D01*
X16209596Y-12991988D02*
X16200072Y-12972941D01*
X16200072Y-12972941D02*
X16181025Y-12963417D01*
X16181025Y-12963417D02*
X16152453Y-12963417D01*
X16152453Y-12963417D02*
X16133406Y-12953893D01*
X16133406Y-12953893D02*
X16123882Y-12934846D01*
X16123882Y-12934846D02*
X16123882Y-12925322D01*
X16123882Y-12925322D02*
X16133406Y-12906274D01*
X16133406Y-12906274D02*
X16152453Y-12896750D01*
X16152453Y-12896750D02*
X16181025Y-12896750D01*
X16181025Y-12896750D02*
X16200072Y-12906274D01*
X16276263Y-13106274D02*
X16285787Y-13096750D01*
X16285787Y-13096750D02*
X16304834Y-13068179D01*
X16304834Y-13068179D02*
X16314358Y-13049131D01*
X16314358Y-13049131D02*
X16323882Y-13020560D01*
X16323882Y-13020560D02*
X16333406Y-12972941D01*
X16333406Y-12972941D02*
X16333406Y-12934846D01*
X16333406Y-12934846D02*
X16323882Y-12887227D01*
X16323882Y-12887227D02*
X16314358Y-12858655D01*
X16314358Y-12858655D02*
X16304834Y-12839608D01*
X16304834Y-12839608D02*
X16285787Y-12811036D01*
X16285787Y-12811036D02*
X16276263Y-12801512D01*
X16638168Y-13106274D02*
X16628644Y-13096750D01*
X16628644Y-13096750D02*
X16609596Y-13068179D01*
X16609596Y-13068179D02*
X16600072Y-13049131D01*
X16600072Y-13049131D02*
X16590549Y-13020560D01*
X16590549Y-13020560D02*
X16581025Y-12972941D01*
X16581025Y-12972941D02*
X16581025Y-12934846D01*
X16581025Y-12934846D02*
X16590549Y-12887227D01*
X16590549Y-12887227D02*
X16600072Y-12858655D01*
X16600072Y-12858655D02*
X16609596Y-12839608D01*
X16609596Y-12839608D02*
X16628644Y-12811036D01*
X16628644Y-12811036D02*
X16638168Y-12801512D01*
X16714358Y-12896750D02*
X16714358Y-13030084D01*
X16714358Y-12915798D02*
X16723882Y-12906274D01*
X16723882Y-12906274D02*
X16742930Y-12896750D01*
X16742930Y-12896750D02*
X16771501Y-12896750D01*
X16771501Y-12896750D02*
X16790549Y-12906274D01*
X16790549Y-12906274D02*
X16800073Y-12925322D01*
X16800073Y-12925322D02*
X16800073Y-13030084D01*
X16923882Y-13030084D02*
X16904834Y-13020560D01*
X16904834Y-13020560D02*
X16895311Y-13011036D01*
X16895311Y-13011036D02*
X16885787Y-12991988D01*
X16885787Y-12991988D02*
X16885787Y-12934846D01*
X16885787Y-12934846D02*
X16895311Y-12915798D01*
X16895311Y-12915798D02*
X16904834Y-12906274D01*
X16904834Y-12906274D02*
X16923882Y-12896750D01*
X16923882Y-12896750D02*
X16952454Y-12896750D01*
X16952454Y-12896750D02*
X16971501Y-12906274D01*
X16971501Y-12906274D02*
X16981025Y-12915798D01*
X16981025Y-12915798D02*
X16990549Y-12934846D01*
X16990549Y-12934846D02*
X16990549Y-12991988D01*
X16990549Y-12991988D02*
X16981025Y-13011036D01*
X16981025Y-13011036D02*
X16971501Y-13020560D01*
X16971501Y-13020560D02*
X16952454Y-13030084D01*
X16952454Y-13030084D02*
X16923882Y-13030084D01*
X17047692Y-12896750D02*
X17123882Y-12896750D01*
X17076263Y-12830084D02*
X17076263Y-13001512D01*
X17076263Y-13001512D02*
X17085787Y-13020560D01*
X17085787Y-13020560D02*
X17104834Y-13030084D01*
X17104834Y-13030084D02*
X17123882Y-13030084D01*
X17342930Y-12896750D02*
X17342930Y-13096750D01*
X17342930Y-12906274D02*
X17361977Y-12896750D01*
X17361977Y-12896750D02*
X17400073Y-12896750D01*
X17400073Y-12896750D02*
X17419120Y-12906274D01*
X17419120Y-12906274D02*
X17428644Y-12915798D01*
X17428644Y-12915798D02*
X17438168Y-12934846D01*
X17438168Y-12934846D02*
X17438168Y-12991988D01*
X17438168Y-12991988D02*
X17428644Y-13011036D01*
X17428644Y-13011036D02*
X17419120Y-13020560D01*
X17419120Y-13020560D02*
X17400073Y-13030084D01*
X17400073Y-13030084D02*
X17361977Y-13030084D01*
X17361977Y-13030084D02*
X17342930Y-13020560D01*
X17552454Y-13030084D02*
X17533406Y-13020560D01*
X17533406Y-13020560D02*
X17523882Y-13001512D01*
X17523882Y-13001512D02*
X17523882Y-12830084D01*
X17714358Y-13030084D02*
X17714358Y-12925322D01*
X17714358Y-12925322D02*
X17704835Y-12906274D01*
X17704835Y-12906274D02*
X17685787Y-12896750D01*
X17685787Y-12896750D02*
X17647692Y-12896750D01*
X17647692Y-12896750D02*
X17628644Y-12906274D01*
X17714358Y-13020560D02*
X17695311Y-13030084D01*
X17695311Y-13030084D02*
X17647692Y-13030084D01*
X17647692Y-13030084D02*
X17628644Y-13020560D01*
X17628644Y-13020560D02*
X17619120Y-13001512D01*
X17619120Y-13001512D02*
X17619120Y-12982465D01*
X17619120Y-12982465D02*
X17628644Y-12963417D01*
X17628644Y-12963417D02*
X17647692Y-12953893D01*
X17647692Y-12953893D02*
X17695311Y-12953893D01*
X17695311Y-12953893D02*
X17714358Y-12944369D01*
X17781025Y-12896750D02*
X17857215Y-12896750D01*
X17809596Y-12830084D02*
X17809596Y-13001512D01*
X17809596Y-13001512D02*
X17819120Y-13020560D01*
X17819120Y-13020560D02*
X17838168Y-13030084D01*
X17838168Y-13030084D02*
X17857215Y-13030084D01*
X18000073Y-13020560D02*
X17981025Y-13030084D01*
X17981025Y-13030084D02*
X17942930Y-13030084D01*
X17942930Y-13030084D02*
X17923882Y-13020560D01*
X17923882Y-13020560D02*
X17914358Y-13001512D01*
X17914358Y-13001512D02*
X17914358Y-12925322D01*
X17914358Y-12925322D02*
X17923882Y-12906274D01*
X17923882Y-12906274D02*
X17942930Y-12896750D01*
X17942930Y-12896750D02*
X17981025Y-12896750D01*
X17981025Y-12896750D02*
X18000073Y-12906274D01*
X18000073Y-12906274D02*
X18009596Y-12925322D01*
X18009596Y-12925322D02*
X18009596Y-12944369D01*
X18009596Y-12944369D02*
X17914358Y-12963417D01*
X18181025Y-13030084D02*
X18181025Y-12830084D01*
X18181025Y-13020560D02*
X18161977Y-13030084D01*
X18161977Y-13030084D02*
X18123882Y-13030084D01*
X18123882Y-13030084D02*
X18104835Y-13020560D01*
X18104835Y-13020560D02*
X18095311Y-13011036D01*
X18095311Y-13011036D02*
X18085787Y-12991988D01*
X18085787Y-12991988D02*
X18085787Y-12934846D01*
X18085787Y-12934846D02*
X18095311Y-12915798D01*
X18095311Y-12915798D02*
X18104835Y-12906274D01*
X18104835Y-12906274D02*
X18123882Y-12896750D01*
X18123882Y-12896750D02*
X18161977Y-12896750D01*
X18161977Y-12896750D02*
X18181025Y-12906274D01*
X18257216Y-13106274D02*
X18266739Y-13096750D01*
X18266739Y-13096750D02*
X18285787Y-13068179D01*
X18285787Y-13068179D02*
X18295311Y-13049131D01*
X18295311Y-13049131D02*
X18304835Y-13020560D01*
X18304835Y-13020560D02*
X18314358Y-12972941D01*
X18314358Y-12972941D02*
X18314358Y-12934846D01*
X18314358Y-12934846D02*
X18304835Y-12887227D01*
X18304835Y-12887227D02*
X18295311Y-12858655D01*
X18295311Y-12858655D02*
X18285787Y-12839608D01*
X18285787Y-12839608D02*
X18266739Y-12811036D01*
X18266739Y-12811036D02*
X18257216Y-12801512D01*
M02*
