M48
; DRILL file {KiCad 7.0.8} date Fri Nov  3 12:49:25 2023
; FORMAT={-:-/ absolute / inch / decimal}
; #@! TF.CreationDate,2023-11-03T12:49:25-07:00
; #@! TF.GenerationSoftware,Kicad,Pcbnew,7.0.8
; #@! TF.FileFunction,Plated,1,2,PTH
FMAT,2
INCH
; #@! TA.AperFunction,Plated,PTH,ViaDrill
T1C0.0157
; #@! TA.AperFunction,Plated,PTH,ComponentDrill
T2C0.0394
; #@! TA.AperFunction,Plated,PTH,ComponentDrill
T3C0.0512
%
G90
G05
T1
X4.81Y-2.86
X5.66Y-3.86
T2
X5.1003Y-2.6
X5.1003Y-2.7
X5.1003Y-2.8
X5.1003Y-2.9
X5.1003Y-3.0
X5.1003Y-3.1
X5.1003Y-3.2
X5.1003Y-3.3
X6.0003Y-2.6
X6.0003Y-2.7
X6.0003Y-2.8
X6.0003Y-2.9
X6.0003Y-3.0
X6.0003Y-3.1
X6.0003Y-3.2
X6.0003Y-3.3
X6.37Y-3.35
X6.37Y-3.45
X6.37Y-3.55
X6.37Y-3.65
X6.37Y-3.75
X6.37Y-3.85
X6.37Y-3.95
X6.37Y-4.05
X6.37Y-4.15
X6.37Y-4.25
T3
X4.91Y-3.87
X4.91Y-4.0669
X4.91Y-4.2637
T0
M30
