%TF.GenerationSoftware,KiCad,Pcbnew,7.0.8*%
%TF.CreationDate,2023-11-06T13:52:09-08:00*%
%TF.ProjectId,RatGDO-OpenSource-D1Mini-ESP8266,52617447-444f-42d4-9f70-656e536f7572,2.5.0*%
%TF.SameCoordinates,Original*%
%TF.FileFunction,Copper,L2,Bot*%
%TF.FilePolarity,Positive*%
%FSLAX46Y46*%
G04 Gerber Fmt 4.6, Leading zero omitted, Abs format (unit mm)*
G04 Created by KiCad (PCBNEW 7.0.8) date 2023-11-06 13:52:09*
%MOMM*%
%LPD*%
G01*
G04 APERTURE LIST*
%TA.AperFunction,ComponentPad*%
%ADD10R,2.600000X2.600000*%
%TD*%
%TA.AperFunction,ComponentPad*%
%ADD11C,2.600000*%
%TD*%
%TA.AperFunction,ComponentPad*%
%ADD12R,2.000000X2.000000*%
%TD*%
%TA.AperFunction,ComponentPad*%
%ADD13O,2.000000X1.600000*%
%TD*%
%TA.AperFunction,ComponentPad*%
%ADD14R,1.700000X1.700000*%
%TD*%
%TA.AperFunction,ComponentPad*%
%ADD15O,1.700000X1.700000*%
%TD*%
%TA.AperFunction,ViaPad*%
%ADD16C,0.800000*%
%TD*%
%TA.AperFunction,Conductor*%
%ADD17C,0.250000*%
%TD*%
G04 APERTURE END LIST*
D10*
%TO.P,J3,1,3V3*%
%TO.N,+3V3*%
X124714000Y-113538000D03*
D11*
%TO.P,J3,2,5V*%
%TO.N,+5V*%
X124714000Y-118538000D03*
%TD*%
D12*
%TO.P,U1,1,~{RST}*%
%TO.N,unconnected-(U1-~{RST}-Pad1)*%
X129547500Y-66040000D03*
D13*
%TO.P,U1,2,A0*%
%TO.N,unconnected-(U1-A0-Pad2)*%
X129547500Y-68580000D03*
%TO.P,U1,3,D0*%
%TO.N,Net-(Q3-G)*%
X129547500Y-71120000D03*
%TO.P,U1,4,SCK/D5*%
%TO.N,Net-(D1-A)*%
X129547500Y-73660000D03*
%TO.P,U1,5,MISO/D6*%
%TO.N,Net-(D2-A)*%
X129547500Y-76200000D03*
%TO.P,U1,6,MOSI/D7*%
%TO.N,Net-(U1-MOSI{slash}D7)*%
X129547500Y-78740000D03*
%TO.P,U1,7,CS/D8*%
%TO.N,Net-(Q4-G)*%
X129547500Y-81280000D03*
%TO.P,U1,8,3V3*%
%TO.N,+3V3*%
X129547500Y-83820000D03*
%TO.P,U1,9,5V*%
%TO.N,+5V*%
X152407500Y-83820000D03*
%TO.P,U1,10,GND*%
%TO.N,GND*%
X152407500Y-81280000D03*
%TO.P,U1,11,D4*%
%TO.N,unconnected-(U1-D4-Pad11)*%
X152407500Y-78740000D03*
%TO.P,U1,12,D3*%
%TO.N,Net-(D3-A)*%
X152407500Y-76200000D03*
%TO.P,U1,13,SDA/D2*%
%TO.N,/ESP_RX*%
X152407500Y-73660000D03*
%TO.P,U1,14,SCL/D1*%
%TO.N,/ESP_TX*%
X152407500Y-71120000D03*
%TO.P,U1,15,RX*%
%TO.N,unconnected-(U1-RX-Pad15)*%
X152407500Y-68580000D03*
%TO.P,U1,16,TX*%
%TO.N,unconnected-(U1-TX-Pad16)*%
X152407500Y-66040000D03*
%TD*%
D10*
%TO.P,J1,1,WHT/GND*%
%TO.N,GND*%
X124714000Y-97282000D03*
D11*
%TO.P,J1,2,RED/CTRL*%
%TO.N,RED{slash}CTRL*%
X124714000Y-102282000D03*
%TO.P,J1,3,BLK/OBST*%
%TO.N,BLK{slash}OBST*%
X124714000Y-107282000D03*
%TD*%
D14*
%TO.P,J2,1,WHT/GND*%
%TO.N,GND*%
X161798000Y-107950000D03*
D15*
%TO.P,J2,2,RED/CTRL*%
%TO.N,RED{slash}CTRL*%
X161798000Y-105410000D03*
%TO.P,J2,3,BLK/OBST*%
%TO.N,BLK{slash}OBST*%
X161798000Y-102870000D03*
%TO.P,J2,4,STS_DOOR*%
%TO.N,STS_DOOR*%
X161798000Y-100330000D03*
%TO.P,J2,5,STS_OBST*%
%TO.N,STS_OBST*%
X161798000Y-97790000D03*
%TO.P,J2,6,DC_OPEN*%
%TO.N,DC_OPEN*%
X161798000Y-95250000D03*
%TO.P,J2,7,DC_CLOSE*%
%TO.N,DC_CLOSE*%
X161798000Y-92710000D03*
%TO.P,J2,8,DC_LIGHT*%
%TO.N,DC_LIGHT*%
X161798000Y-90170000D03*
%TO.P,J2,9,3V3*%
%TO.N,+3V3*%
X161798000Y-87630000D03*
%TO.P,J2,10,5V*%
%TO.N,+5V*%
X161798000Y-85090000D03*
%TD*%
D16*
%TO.N,Net-(D2-A)*%
X143764000Y-98044000D03*
%TO.N,STS_DOOR*%
X122174000Y-72644000D03*
%TD*%
D17*
%TO.N,BLK{slash}OBST*%
X157226000Y-107442000D02*
X161798000Y-102870000D01*
X125585000Y-107442000D02*
X157226000Y-107442000D01*
%TO.N,+5V*%
X165100000Y-88392000D02*
X161798000Y-85090000D01*
X134620000Y-111506000D02*
X163068000Y-111506000D01*
X127508000Y-118618000D02*
X134620000Y-111506000D01*
X125385000Y-118618000D02*
X127508000Y-118618000D01*
X163068000Y-111506000D02*
X165100000Y-109474000D01*
X165100000Y-109474000D02*
X165100000Y-88392000D01*
%TO.N,+3V3*%
X163830000Y-108966000D02*
X163830000Y-89154000D01*
X131064000Y-110236000D02*
X162560000Y-110236000D01*
X163830000Y-89154000D02*
X162306000Y-87630000D01*
X125465000Y-113538000D02*
X127762000Y-113538000D01*
X127762000Y-113538000D02*
X131064000Y-110236000D01*
X162560000Y-110236000D02*
X163830000Y-108966000D01*
%TO.N,Net-(D2-A)*%
X127254000Y-77216000D02*
X128270000Y-76200000D01*
X127254000Y-89916000D02*
X127254000Y-77216000D01*
X135382000Y-98044000D02*
X127254000Y-89916000D01*
X128270000Y-76200000D02*
X129547500Y-76200000D01*
X143764000Y-98044000D02*
X135382000Y-98044000D01*
%TO.N,+5V*%
X152407500Y-83820000D02*
X160528000Y-83820000D01*
X160528000Y-83820000D02*
X161798000Y-85090000D01*
%TO.N,STS_DOOR*%
X125476000Y-90678000D02*
X135128000Y-100330000D01*
X125476000Y-73660000D02*
X125476000Y-90678000D01*
X135128000Y-100330000D02*
X161798000Y-100330000D01*
X124460000Y-72644000D02*
X125476000Y-73660000D01*
X122174000Y-72644000D02*
X124460000Y-72644000D01*
%TO.N,+3V3*%
X151892000Y-87630000D02*
X148082000Y-83820000D01*
X148082000Y-83820000D02*
X129547500Y-83820000D01*
X161798000Y-87630000D02*
X151892000Y-87630000D01*
%TD*%
%TA.AperFunction,Conductor*%
%TO.N,GND*%
G36*
X128129387Y-67329685D02*
G01*
X128161612Y-67359686D01*
X128189954Y-67397546D01*
X128236143Y-67432123D01*
X128305164Y-67483793D01*
X128305169Y-67483796D01*
X128342413Y-67497687D01*
X128398346Y-67539556D01*
X128422765Y-67605020D01*
X128407914Y-67673293D01*
X128386763Y-67701549D01*
X128347454Y-67740858D01*
X128216932Y-67927265D01*
X128216931Y-67927267D01*
X128120761Y-68133502D01*
X128120758Y-68133511D01*
X128061866Y-68353302D01*
X128061864Y-68353313D01*
X128042032Y-68579998D01*
X128042032Y-68580001D01*
X128061864Y-68806686D01*
X128061866Y-68806697D01*
X128120758Y-69026488D01*
X128120761Y-69026497D01*
X128216931Y-69232732D01*
X128216932Y-69232734D01*
X128347454Y-69419141D01*
X128508358Y-69580045D01*
X128508361Y-69580047D01*
X128694766Y-69710568D01*
X128752775Y-69737618D01*
X128805214Y-69783791D01*
X128824366Y-69850984D01*
X128804150Y-69917865D01*
X128752775Y-69962382D01*
X128694767Y-69989431D01*
X128694765Y-69989432D01*
X128508358Y-70119954D01*
X128347454Y-70280858D01*
X128216932Y-70467265D01*
X128216931Y-70467267D01*
X128120761Y-70673502D01*
X128120758Y-70673511D01*
X128061866Y-70893302D01*
X128061864Y-70893313D01*
X128042032Y-71119998D01*
X128042032Y-71120001D01*
X128061864Y-71346686D01*
X128061866Y-71346697D01*
X128120758Y-71566488D01*
X128120761Y-71566497D01*
X128216931Y-71772732D01*
X128216932Y-71772734D01*
X128347454Y-71959141D01*
X128508358Y-72120045D01*
X128508361Y-72120047D01*
X128694766Y-72250568D01*
X128748694Y-72275715D01*
X128752775Y-72277618D01*
X128805214Y-72323791D01*
X128824366Y-72390984D01*
X128804150Y-72457865D01*
X128752775Y-72502382D01*
X128694767Y-72529431D01*
X128694765Y-72529432D01*
X128508358Y-72659954D01*
X128347454Y-72820858D01*
X128216932Y-73007265D01*
X128216931Y-73007267D01*
X128120761Y-73213502D01*
X128120758Y-73213511D01*
X128061866Y-73433302D01*
X128061864Y-73433313D01*
X128042032Y-73659998D01*
X128042032Y-73660001D01*
X128061864Y-73886686D01*
X128061866Y-73886697D01*
X128120758Y-74106488D01*
X128120761Y-74106497D01*
X128216931Y-74312732D01*
X128216932Y-74312734D01*
X128347454Y-74499141D01*
X128508358Y-74660045D01*
X128508361Y-74660047D01*
X128694766Y-74790568D01*
X128752775Y-74817618D01*
X128805214Y-74863791D01*
X128824366Y-74930984D01*
X128804150Y-74997865D01*
X128752775Y-75042382D01*
X128694767Y-75069431D01*
X128694765Y-75069432D01*
X128508366Y-75199948D01*
X128508357Y-75199956D01*
X128469502Y-75238810D01*
X128449274Y-75255177D01*
X128442247Y-75259732D01*
X128442242Y-75259735D01*
X128051011Y-75601377D01*
X128026127Y-75617087D01*
X128026321Y-75617414D01*
X128002364Y-75631580D01*
X127984905Y-75640133D01*
X127966274Y-75647510D01*
X127966262Y-75647517D01*
X127928570Y-75674902D01*
X127923687Y-75678109D01*
X127883580Y-75701829D01*
X127869414Y-75715995D01*
X127854624Y-75728627D01*
X127838414Y-75740404D01*
X127838411Y-75740407D01*
X127808710Y-75776309D01*
X127804777Y-75780631D01*
X127524064Y-76061345D01*
X127521005Y-76064204D01*
X127482524Y-76097809D01*
X127482523Y-76097810D01*
X127475588Y-76104300D01*
X127427405Y-76156186D01*
X127427404Y-76156187D01*
X127427399Y-76156193D01*
X127427343Y-76156268D01*
X127415720Y-76169688D01*
X126870208Y-76715199D01*
X126857951Y-76725020D01*
X126858134Y-76725241D01*
X126852123Y-76730213D01*
X126804772Y-76780636D01*
X126783889Y-76801519D01*
X126783877Y-76801532D01*
X126779621Y-76807017D01*
X126775837Y-76811447D01*
X126743937Y-76845418D01*
X126743936Y-76845420D01*
X126734284Y-76862976D01*
X126723610Y-76879226D01*
X126711329Y-76895061D01*
X126711324Y-76895068D01*
X126692815Y-76937838D01*
X126690245Y-76943084D01*
X126667803Y-76983906D01*
X126662822Y-77003307D01*
X126656521Y-77021710D01*
X126648562Y-77040102D01*
X126648561Y-77040105D01*
X126641271Y-77086127D01*
X126640087Y-77091846D01*
X126628501Y-77136972D01*
X126628500Y-77136982D01*
X126628500Y-77157016D01*
X126626973Y-77176415D01*
X126623840Y-77196194D01*
X126623840Y-77196195D01*
X126628225Y-77242583D01*
X126628500Y-77248421D01*
X126628500Y-89833255D01*
X126626775Y-89848872D01*
X126627061Y-89848899D01*
X126626326Y-89856665D01*
X126628500Y-89925814D01*
X126628500Y-89955343D01*
X126628501Y-89955360D01*
X126629368Y-89962231D01*
X126629826Y-89968050D01*
X126631290Y-90014624D01*
X126631291Y-90014627D01*
X126636880Y-90033867D01*
X126640824Y-90052911D01*
X126643336Y-90072791D01*
X126660490Y-90116119D01*
X126662382Y-90121647D01*
X126675381Y-90166388D01*
X126685580Y-90183634D01*
X126694138Y-90201103D01*
X126701514Y-90219732D01*
X126728898Y-90257423D01*
X126732106Y-90262307D01*
X126755827Y-90302416D01*
X126755833Y-90302424D01*
X126769990Y-90316580D01*
X126782628Y-90331376D01*
X126794405Y-90347586D01*
X126794406Y-90347587D01*
X126830309Y-90377288D01*
X126834620Y-90381210D01*
X132871834Y-96418425D01*
X134881197Y-98427788D01*
X134891022Y-98440051D01*
X134891243Y-98439869D01*
X134896214Y-98445878D01*
X134919599Y-98467837D01*
X134946635Y-98493226D01*
X134967529Y-98514120D01*
X134973011Y-98518373D01*
X134977443Y-98522157D01*
X135011418Y-98554062D01*
X135028976Y-98563714D01*
X135045233Y-98574393D01*
X135061064Y-98586673D01*
X135080737Y-98595186D01*
X135103833Y-98605182D01*
X135109077Y-98607750D01*
X135149908Y-98630197D01*
X135162523Y-98633435D01*
X135169305Y-98635177D01*
X135187719Y-98641481D01*
X135206104Y-98649438D01*
X135252157Y-98656732D01*
X135257826Y-98657906D01*
X135302981Y-98669500D01*
X135323016Y-98669500D01*
X135342413Y-98671026D01*
X135362196Y-98674160D01*
X135408584Y-98669775D01*
X135414422Y-98669500D01*
X142835766Y-98669500D01*
X142879610Y-98677510D01*
X143421599Y-98882394D01*
X143461986Y-98895611D01*
X143467915Y-98897894D01*
X143476073Y-98901527D01*
X143484194Y-98905143D01*
X143484197Y-98905144D01*
X143669354Y-98944500D01*
X143669355Y-98944500D01*
X143858644Y-98944500D01*
X143858646Y-98944500D01*
X144043803Y-98905144D01*
X144216730Y-98828151D01*
X144369871Y-98716888D01*
X144496533Y-98576216D01*
X144591179Y-98412284D01*
X144649674Y-98232256D01*
X144669460Y-98044000D01*
X144649674Y-97855744D01*
X144591179Y-97675716D01*
X144496533Y-97511784D01*
X144369871Y-97371112D01*
X144369870Y-97371111D01*
X144216734Y-97259851D01*
X144216729Y-97259848D01*
X144043807Y-97182857D01*
X144043802Y-97182855D01*
X143898001Y-97151865D01*
X143858646Y-97143500D01*
X143669354Y-97143500D01*
X143629999Y-97151865D01*
X143484198Y-97182855D01*
X143484193Y-97182857D01*
X143455938Y-97195437D01*
X143432400Y-97203205D01*
X143421607Y-97205602D01*
X143421593Y-97205607D01*
X142879609Y-97410489D01*
X142835763Y-97418500D01*
X135692452Y-97418500D01*
X135625413Y-97398815D01*
X135604771Y-97382181D01*
X127915819Y-89693228D01*
X127882334Y-89631905D01*
X127879500Y-89605547D01*
X127879500Y-84306876D01*
X127899185Y-84239837D01*
X127951989Y-84194082D01*
X128021147Y-84184138D01*
X128084703Y-84213163D01*
X128118147Y-84261740D01*
X128118473Y-84261589D01*
X128119375Y-84263524D01*
X128120021Y-84264462D01*
X128120759Y-84266488D01*
X128120761Y-84266496D01*
X128206150Y-84449613D01*
X128216931Y-84472732D01*
X128216932Y-84472734D01*
X128347454Y-84659141D01*
X128508358Y-84820045D01*
X128508361Y-84820047D01*
X128694766Y-84950568D01*
X128901004Y-85046739D01*
X129120808Y-85105635D01*
X129290716Y-85120500D01*
X129804284Y-85120500D01*
X129974192Y-85105635D01*
X130193996Y-85046739D01*
X130246283Y-85022355D01*
X130254144Y-85019321D01*
X130279415Y-85011496D01*
X131446672Y-84457477D01*
X131499841Y-84445500D01*
X147771548Y-84445500D01*
X147838587Y-84465185D01*
X147859229Y-84481819D01*
X151391194Y-88013784D01*
X151401019Y-88026048D01*
X151401240Y-88025866D01*
X151406210Y-88031873D01*
X151406213Y-88031876D01*
X151406214Y-88031877D01*
X151456651Y-88079241D01*
X151477530Y-88100120D01*
X151483004Y-88104366D01*
X151487442Y-88108156D01*
X151521418Y-88140062D01*
X151538973Y-88149713D01*
X151555231Y-88160392D01*
X151571064Y-88172674D01*
X151593015Y-88182172D01*
X151613837Y-88191183D01*
X151619081Y-88193752D01*
X151659908Y-88216197D01*
X151679312Y-88221179D01*
X151697710Y-88227478D01*
X151716105Y-88235438D01*
X151762129Y-88242726D01*
X151767832Y-88243907D01*
X151812981Y-88255500D01*
X151833016Y-88255500D01*
X151852413Y-88257026D01*
X151872196Y-88260160D01*
X151918584Y-88255775D01*
X151924422Y-88255500D01*
X159944251Y-88255500D01*
X159997938Y-88267725D01*
X161089385Y-88791963D01*
X161141292Y-88838731D01*
X161159674Y-88906140D01*
X161138694Y-88972785D01*
X161106821Y-89005312D01*
X160926594Y-89131508D01*
X160759505Y-89298597D01*
X160623965Y-89492169D01*
X160623964Y-89492171D01*
X160524098Y-89706335D01*
X160524094Y-89706344D01*
X160462938Y-89934586D01*
X160462936Y-89934596D01*
X160442341Y-90169999D01*
X160442341Y-90170000D01*
X160462936Y-90405403D01*
X160462938Y-90405413D01*
X160524094Y-90633655D01*
X160524096Y-90633659D01*
X160524097Y-90633663D01*
X160599730Y-90795858D01*
X160623965Y-90847830D01*
X160623967Y-90847834D01*
X160704680Y-90963103D01*
X160745777Y-91021796D01*
X160759501Y-91041395D01*
X160759506Y-91041402D01*
X160926597Y-91208493D01*
X160926603Y-91208498D01*
X161112158Y-91338425D01*
X161155783Y-91393002D01*
X161162977Y-91462500D01*
X161131454Y-91524855D01*
X161112158Y-91541575D01*
X160926597Y-91671505D01*
X160759505Y-91838597D01*
X160623965Y-92032169D01*
X160623964Y-92032171D01*
X160524098Y-92246335D01*
X160524094Y-92246344D01*
X160462938Y-92474586D01*
X160462936Y-92474596D01*
X160442341Y-92709999D01*
X160442341Y-92710000D01*
X160462936Y-92945403D01*
X160462938Y-92945413D01*
X160524094Y-93173655D01*
X160524096Y-93173659D01*
X160524097Y-93173663D01*
X160600613Y-93337751D01*
X160623965Y-93387830D01*
X160623967Y-93387834D01*
X160759501Y-93581395D01*
X160759506Y-93581402D01*
X160926597Y-93748493D01*
X160926603Y-93748498D01*
X161112158Y-93878425D01*
X161155783Y-93933002D01*
X161162977Y-94002500D01*
X161131454Y-94064855D01*
X161112158Y-94081575D01*
X160926597Y-94211505D01*
X160759505Y-94378597D01*
X160623965Y-94572169D01*
X160623964Y-94572171D01*
X160524098Y-94786335D01*
X160524094Y-94786344D01*
X160462938Y-95014586D01*
X160462936Y-95014596D01*
X160442341Y-95249999D01*
X160442341Y-95250000D01*
X160462936Y-95485403D01*
X160462938Y-95485413D01*
X160524094Y-95713655D01*
X160524096Y-95713659D01*
X160524097Y-95713663D01*
X160599153Y-95874620D01*
X160623965Y-95927830D01*
X160623967Y-95927834D01*
X160759501Y-96121395D01*
X160759506Y-96121402D01*
X160926597Y-96288493D01*
X160926603Y-96288498D01*
X161112158Y-96418425D01*
X161155783Y-96473002D01*
X161162977Y-96542500D01*
X161131454Y-96604855D01*
X161112158Y-96621575D01*
X160926597Y-96751505D01*
X160759505Y-96918597D01*
X160623965Y-97112169D01*
X160623964Y-97112171D01*
X160524098Y-97326335D01*
X160524094Y-97326344D01*
X160462938Y-97554586D01*
X160462936Y-97554596D01*
X160442341Y-97789999D01*
X160442341Y-97790000D01*
X160462936Y-98025403D01*
X160462938Y-98025413D01*
X160524094Y-98253655D01*
X160524096Y-98253659D01*
X160524097Y-98253663D01*
X160600613Y-98417751D01*
X160623965Y-98467830D01*
X160623967Y-98467834D01*
X160732281Y-98622521D01*
X160751128Y-98649438D01*
X160759501Y-98661395D01*
X160759506Y-98661402D01*
X160926597Y-98828493D01*
X160926603Y-98828498D01*
X161106818Y-98954686D01*
X161150443Y-99009263D01*
X161157637Y-99078761D01*
X161126114Y-99141116D01*
X161089382Y-99168036D01*
X159997935Y-99692275D01*
X159944248Y-99704500D01*
X135438453Y-99704500D01*
X135371414Y-99684815D01*
X135350772Y-99668181D01*
X126137819Y-90455228D01*
X126104334Y-90393905D01*
X126101500Y-90367547D01*
X126101500Y-73742742D01*
X126103224Y-73727122D01*
X126102939Y-73727096D01*
X126103671Y-73719340D01*
X126103673Y-73719333D01*
X126101500Y-73650185D01*
X126101500Y-73620650D01*
X126100631Y-73613772D01*
X126100172Y-73607943D01*
X126098709Y-73561372D01*
X126093122Y-73542144D01*
X126089174Y-73523084D01*
X126086664Y-73503208D01*
X126086663Y-73503206D01*
X126086663Y-73503204D01*
X126069512Y-73459887D01*
X126067619Y-73454358D01*
X126054618Y-73409609D01*
X126054616Y-73409606D01*
X126044423Y-73392371D01*
X126035861Y-73374894D01*
X126028487Y-73356270D01*
X126028486Y-73356268D01*
X126001079Y-73318545D01*
X125997888Y-73313686D01*
X125974172Y-73273583D01*
X125974165Y-73273574D01*
X125960006Y-73259415D01*
X125947368Y-73244619D01*
X125935594Y-73228413D01*
X125917580Y-73213511D01*
X125899688Y-73198709D01*
X125895376Y-73194786D01*
X124960803Y-72260212D01*
X124950980Y-72247950D01*
X124950759Y-72248134D01*
X124945786Y-72242123D01*
X124895364Y-72194773D01*
X124884919Y-72184328D01*
X124874475Y-72173883D01*
X124868986Y-72169625D01*
X124864561Y-72165847D01*
X124830582Y-72133938D01*
X124830580Y-72133936D01*
X124830577Y-72133935D01*
X124813029Y-72124288D01*
X124796763Y-72113604D01*
X124780933Y-72101325D01*
X124738168Y-72082818D01*
X124732922Y-72080248D01*
X124692093Y-72057803D01*
X124692092Y-72057802D01*
X124672693Y-72052822D01*
X124654281Y-72046518D01*
X124635898Y-72038562D01*
X124635892Y-72038560D01*
X124589874Y-72031272D01*
X124584152Y-72030087D01*
X124539021Y-72018500D01*
X124539019Y-72018500D01*
X124518984Y-72018500D01*
X124499586Y-72016973D01*
X124492162Y-72015797D01*
X124479805Y-72013840D01*
X124479804Y-72013840D01*
X124433416Y-72018225D01*
X124427578Y-72018500D01*
X123102236Y-72018500D01*
X123058391Y-72010489D01*
X122852022Y-71932477D01*
X122533437Y-71812045D01*
X122516407Y-71805608D01*
X122516401Y-71805606D01*
X122516393Y-71805603D01*
X122476016Y-71792388D01*
X122470088Y-71790106D01*
X122464567Y-71787648D01*
X122453804Y-71782856D01*
X122361224Y-71763178D01*
X122268646Y-71743500D01*
X122079354Y-71743500D01*
X122046897Y-71750398D01*
X121894197Y-71782855D01*
X121894192Y-71782857D01*
X121721270Y-71859848D01*
X121721265Y-71859851D01*
X121568129Y-71971111D01*
X121441466Y-72111785D01*
X121346821Y-72275715D01*
X121346818Y-72275722D01*
X121295631Y-72433261D01*
X121288326Y-72455744D01*
X121268540Y-72644000D01*
X121288326Y-72832256D01*
X121288327Y-72832259D01*
X121346818Y-73012277D01*
X121346821Y-73012284D01*
X121441467Y-73176216D01*
X121475048Y-73213511D01*
X121568129Y-73316888D01*
X121721265Y-73428148D01*
X121721270Y-73428151D01*
X121894192Y-73505142D01*
X121894197Y-73505144D01*
X122079354Y-73544500D01*
X122079355Y-73544500D01*
X122268644Y-73544500D01*
X122268646Y-73544500D01*
X122453803Y-73505144D01*
X122482056Y-73492563D01*
X122505607Y-73484792D01*
X122513286Y-73483085D01*
X122516400Y-73482394D01*
X123058389Y-73277510D01*
X123102234Y-73269500D01*
X124149548Y-73269500D01*
X124216587Y-73289185D01*
X124237229Y-73305819D01*
X124814181Y-73882771D01*
X124847666Y-73944094D01*
X124850500Y-73970452D01*
X124850500Y-90595255D01*
X124848775Y-90610872D01*
X124849061Y-90610899D01*
X124848326Y-90618665D01*
X124850500Y-90687814D01*
X124850500Y-90717343D01*
X124850501Y-90717360D01*
X124851368Y-90724231D01*
X124851826Y-90730050D01*
X124853290Y-90776624D01*
X124853291Y-90776627D01*
X124858880Y-90795867D01*
X124862824Y-90814911D01*
X124865336Y-90834792D01*
X124882490Y-90878119D01*
X124884382Y-90883647D01*
X124897381Y-90928388D01*
X124907580Y-90945634D01*
X124916138Y-90963103D01*
X124923514Y-90981732D01*
X124950898Y-91019423D01*
X124954106Y-91024307D01*
X124977827Y-91064416D01*
X124977833Y-91064424D01*
X124991990Y-91078580D01*
X125004628Y-91093376D01*
X125016405Y-91109586D01*
X125016406Y-91109587D01*
X125052309Y-91139288D01*
X125056620Y-91143210D01*
X132317932Y-98404523D01*
X134627197Y-100713788D01*
X134637022Y-100726051D01*
X134637243Y-100725869D01*
X134642214Y-100731878D01*
X134668217Y-100756295D01*
X134692635Y-100779226D01*
X134713529Y-100800120D01*
X134719011Y-100804373D01*
X134723443Y-100808157D01*
X134757418Y-100840062D01*
X134774976Y-100849714D01*
X134791235Y-100860395D01*
X134807064Y-100872673D01*
X134849838Y-100891182D01*
X134855056Y-100893738D01*
X134895908Y-100916197D01*
X134915316Y-100921180D01*
X134933717Y-100927480D01*
X134952104Y-100935437D01*
X134995488Y-100942308D01*
X134998119Y-100942725D01*
X135003839Y-100943909D01*
X135048981Y-100955500D01*
X135069016Y-100955500D01*
X135088414Y-100957026D01*
X135108194Y-100960159D01*
X135108195Y-100960160D01*
X135108195Y-100960159D01*
X135108196Y-100960160D01*
X135154584Y-100955775D01*
X135160422Y-100955500D01*
X159944251Y-100955500D01*
X159997938Y-100967725D01*
X161089385Y-101491963D01*
X161141292Y-101538731D01*
X161159674Y-101606140D01*
X161138694Y-101672785D01*
X161106821Y-101705312D01*
X160926594Y-101831508D01*
X160759505Y-101998597D01*
X160623965Y-102192169D01*
X160623964Y-102192171D01*
X160537036Y-102378587D01*
X160531649Y-102388924D01*
X160531645Y-102388933D01*
X160530930Y-102390969D01*
X160528629Y-102396614D01*
X160524097Y-102406334D01*
X160524097Y-102406336D01*
X160520064Y-102421385D01*
X160518677Y-102425874D01*
X160074222Y-103691897D01*
X160044903Y-103738504D01*
X157003228Y-106780181D01*
X156941905Y-106813666D01*
X156915547Y-106816500D01*
X127190565Y-106816500D01*
X127123526Y-106796815D01*
X127119701Y-106794256D01*
X127000627Y-106711332D01*
X126051694Y-106050485D01*
X125983784Y-106003192D01*
X125977038Y-105997756D01*
X125839741Y-105870365D01*
X125616775Y-105718349D01*
X125616769Y-105718346D01*
X125616768Y-105718345D01*
X125616767Y-105718344D01*
X125373643Y-105601263D01*
X125373645Y-105601263D01*
X125115773Y-105521720D01*
X125115767Y-105521718D01*
X124848936Y-105481500D01*
X124848929Y-105481500D01*
X124579071Y-105481500D01*
X124579063Y-105481500D01*
X124312232Y-105521718D01*
X124312226Y-105521720D01*
X124054358Y-105601262D01*
X123811230Y-105718346D01*
X123588258Y-105870365D01*
X123390442Y-106053910D01*
X123222185Y-106264898D01*
X123087258Y-106498599D01*
X123087256Y-106498603D01*
X122988666Y-106749804D01*
X122988664Y-106749811D01*
X122928616Y-107012898D01*
X122908451Y-107281995D01*
X122908451Y-107282004D01*
X122928616Y-107551101D01*
X122988664Y-107814188D01*
X122988666Y-107814195D01*
X123087256Y-108065396D01*
X123087258Y-108065400D01*
X123089725Y-108069673D01*
X123222185Y-108299102D01*
X123282674Y-108374952D01*
X123390442Y-108510089D01*
X123577183Y-108683358D01*
X123588259Y-108693635D01*
X123811226Y-108845651D01*
X124054359Y-108962738D01*
X124312228Y-109042280D01*
X124312229Y-109042280D01*
X124312232Y-109042281D01*
X124579063Y-109082499D01*
X124579068Y-109082499D01*
X124579071Y-109082500D01*
X124579072Y-109082500D01*
X124848928Y-109082500D01*
X124848929Y-109082500D01*
X124848936Y-109082499D01*
X125115767Y-109042281D01*
X125115768Y-109042280D01*
X125115772Y-109042280D01*
X125373641Y-108962738D01*
X125616775Y-108845651D01*
X125767421Y-108742940D01*
X125774578Y-108738734D01*
X127089043Y-108080620D01*
X127144557Y-108067500D01*
X157143257Y-108067500D01*
X157158877Y-108069224D01*
X157158904Y-108068939D01*
X157166660Y-108069671D01*
X157166667Y-108069673D01*
X157235814Y-108067500D01*
X157265350Y-108067500D01*
X157272228Y-108066630D01*
X157278041Y-108066172D01*
X157324627Y-108064709D01*
X157343869Y-108059117D01*
X157362912Y-108055174D01*
X157382792Y-108052664D01*
X157426122Y-108035507D01*
X157431646Y-108033617D01*
X157435396Y-108032527D01*
X157476390Y-108020618D01*
X157493629Y-108010422D01*
X157511103Y-108001862D01*
X157529727Y-107994488D01*
X157529727Y-107994487D01*
X157529732Y-107994486D01*
X157567449Y-107967082D01*
X157572305Y-107963892D01*
X157612420Y-107940170D01*
X157626589Y-107925999D01*
X157641379Y-107913368D01*
X157657587Y-107901594D01*
X157687299Y-107865676D01*
X157691212Y-107861376D01*
X160230661Y-105321927D01*
X160291983Y-105288444D01*
X160361675Y-105293428D01*
X160417608Y-105335300D01*
X160442025Y-105400764D01*
X160442341Y-105409610D01*
X160442341Y-105410000D01*
X160462936Y-105645403D01*
X160462938Y-105645413D01*
X160524094Y-105873655D01*
X160524096Y-105873659D01*
X160524097Y-105873663D01*
X160600613Y-106037751D01*
X160623965Y-106087830D01*
X160623967Y-106087834D01*
X160732281Y-106242521D01*
X160759501Y-106281396D01*
X160759506Y-106281402D01*
X160881818Y-106403714D01*
X160915303Y-106465037D01*
X160910319Y-106534729D01*
X160868447Y-106590662D01*
X160837471Y-106607577D01*
X160705912Y-106656646D01*
X160705906Y-106656649D01*
X160590812Y-106742809D01*
X160590809Y-106742812D01*
X160504649Y-106857906D01*
X160504645Y-106857913D01*
X160454403Y-106992620D01*
X160454401Y-106992627D01*
X160448000Y-107052155D01*
X160448000Y-107700000D01*
X161364314Y-107700000D01*
X161338507Y-107740156D01*
X161298000Y-107878111D01*
X161298000Y-108021889D01*
X161338507Y-108159844D01*
X161364314Y-108200000D01*
X160448000Y-108200000D01*
X160448000Y-108847844D01*
X160454401Y-108907372D01*
X160454403Y-108907379D01*
X160504645Y-109042086D01*
X160504649Y-109042093D01*
X160590809Y-109157187D01*
X160590812Y-109157190D01*
X160705906Y-109243350D01*
X160705913Y-109243354D01*
X160840620Y-109293596D01*
X160840627Y-109293598D01*
X160900155Y-109299999D01*
X160900172Y-109300000D01*
X161548000Y-109300000D01*
X161548000Y-108385501D01*
X161655685Y-108434680D01*
X161762237Y-108450000D01*
X161833763Y-108450000D01*
X161940315Y-108434680D01*
X162048000Y-108385501D01*
X162048000Y-109300000D01*
X162312047Y-109300000D01*
X162379086Y-109319685D01*
X162424841Y-109372489D01*
X162434785Y-109441647D01*
X162405760Y-109505203D01*
X162399728Y-109511681D01*
X162337228Y-109574181D01*
X162275905Y-109607666D01*
X162249547Y-109610500D01*
X131146737Y-109610500D01*
X131131120Y-109608776D01*
X131131093Y-109609062D01*
X131123331Y-109608327D01*
X131054203Y-109610500D01*
X131024650Y-109610500D01*
X131023929Y-109610590D01*
X131017757Y-109611369D01*
X131011945Y-109611826D01*
X130965373Y-109613290D01*
X130965372Y-109613290D01*
X130946129Y-109618881D01*
X130927079Y-109622825D01*
X130907211Y-109625334D01*
X130907209Y-109625335D01*
X130863884Y-109642488D01*
X130858357Y-109644380D01*
X130813610Y-109657381D01*
X130813609Y-109657382D01*
X130796367Y-109667579D01*
X130778899Y-109676137D01*
X130760269Y-109683513D01*
X130760267Y-109683514D01*
X130722576Y-109710898D01*
X130717694Y-109714105D01*
X130677579Y-109737830D01*
X130663408Y-109752000D01*
X130648623Y-109764628D01*
X130632412Y-109776407D01*
X130602709Y-109812310D01*
X130598777Y-109816631D01*
X127539228Y-112876181D01*
X127477905Y-112909666D01*
X127451547Y-112912500D01*
X127256240Y-112912500D01*
X127189201Y-112892815D01*
X127174585Y-112881819D01*
X126556844Y-112341294D01*
X126519354Y-112282334D01*
X126514499Y-112247975D01*
X126514499Y-112190129D01*
X126514498Y-112190123D01*
X126514497Y-112190116D01*
X126508091Y-112130517D01*
X126507962Y-112130172D01*
X126457797Y-111995671D01*
X126457793Y-111995664D01*
X126371547Y-111880455D01*
X126371544Y-111880452D01*
X126256335Y-111794206D01*
X126256328Y-111794202D01*
X126121482Y-111743908D01*
X126121483Y-111743908D01*
X126061883Y-111737501D01*
X126061881Y-111737500D01*
X126061873Y-111737500D01*
X126061864Y-111737500D01*
X123366129Y-111737500D01*
X123366123Y-111737501D01*
X123306516Y-111743908D01*
X123171671Y-111794202D01*
X123171664Y-111794206D01*
X123056455Y-111880452D01*
X123056452Y-111880455D01*
X122970206Y-111995664D01*
X122970202Y-111995671D01*
X122919908Y-112130517D01*
X122915898Y-112167819D01*
X122913501Y-112190123D01*
X122913500Y-112190135D01*
X122913500Y-114885870D01*
X122913501Y-114885876D01*
X122919908Y-114945483D01*
X122970202Y-115080328D01*
X122970206Y-115080335D01*
X123056452Y-115195544D01*
X123056455Y-115195547D01*
X123171664Y-115281793D01*
X123171671Y-115281797D01*
X123306517Y-115332091D01*
X123306516Y-115332091D01*
X123313444Y-115332835D01*
X123366127Y-115338500D01*
X126061872Y-115338499D01*
X126121483Y-115332091D01*
X126256331Y-115281796D01*
X126371546Y-115195546D01*
X126457796Y-115080331D01*
X126508091Y-114945483D01*
X126514500Y-114885873D01*
X126514499Y-114828020D01*
X126534182Y-114760982D01*
X126556840Y-114734705D01*
X127174585Y-114194179D01*
X127237999Y-114164849D01*
X127256239Y-114163500D01*
X127679257Y-114163500D01*
X127694877Y-114165224D01*
X127694904Y-114164939D01*
X127702660Y-114165671D01*
X127702667Y-114165673D01*
X127771814Y-114163500D01*
X127801350Y-114163500D01*
X127808228Y-114162630D01*
X127814041Y-114162172D01*
X127860627Y-114160709D01*
X127879869Y-114155117D01*
X127898912Y-114151174D01*
X127918792Y-114148664D01*
X127962122Y-114131507D01*
X127967646Y-114129617D01*
X127971396Y-114128527D01*
X128012390Y-114116618D01*
X128029629Y-114106422D01*
X128047103Y-114097862D01*
X128065727Y-114090488D01*
X128065727Y-114090487D01*
X128065732Y-114090486D01*
X128103449Y-114063082D01*
X128108305Y-114059892D01*
X128148420Y-114036170D01*
X128162589Y-114021999D01*
X128177379Y-114009368D01*
X128193587Y-113997594D01*
X128223299Y-113961676D01*
X128227212Y-113957376D01*
X131286772Y-110897819D01*
X131348095Y-110864334D01*
X131374453Y-110861500D01*
X134077867Y-110861500D01*
X134144906Y-110881185D01*
X134190661Y-110933989D01*
X134200605Y-111003147D01*
X134173407Y-111064544D01*
X134158708Y-111082311D01*
X134154777Y-111086632D01*
X127285228Y-117956181D01*
X127223905Y-117989666D01*
X127197547Y-117992500D01*
X127191460Y-117992500D01*
X127124760Y-117973033D01*
X127063810Y-117934142D01*
X125941380Y-117217937D01*
X125923740Y-117204304D01*
X125839745Y-117126368D01*
X125839741Y-117126365D01*
X125616775Y-116974349D01*
X125616769Y-116974346D01*
X125616768Y-116974345D01*
X125616767Y-116974344D01*
X125373643Y-116857263D01*
X125373645Y-116857263D01*
X125115773Y-116777720D01*
X125115767Y-116777718D01*
X124848936Y-116737500D01*
X124848929Y-116737500D01*
X124579071Y-116737500D01*
X124579063Y-116737500D01*
X124312232Y-116777718D01*
X124312226Y-116777720D01*
X124054358Y-116857262D01*
X123811230Y-116974346D01*
X123588258Y-117126365D01*
X123390442Y-117309910D01*
X123222185Y-117520898D01*
X123087258Y-117754599D01*
X123087256Y-117754603D01*
X122988666Y-118005804D01*
X122988664Y-118005811D01*
X122928616Y-118268898D01*
X122908451Y-118537995D01*
X122908451Y-118538004D01*
X122928616Y-118807101D01*
X122988664Y-119070188D01*
X122988666Y-119070195D01*
X123057360Y-119245224D01*
X123087257Y-119321398D01*
X123222185Y-119555102D01*
X123309461Y-119664542D01*
X123390442Y-119766089D01*
X123571268Y-119933870D01*
X123588259Y-119949635D01*
X123811226Y-120101651D01*
X124054359Y-120218738D01*
X124312228Y-120298280D01*
X124312229Y-120298280D01*
X124312232Y-120298281D01*
X124579063Y-120338499D01*
X124579068Y-120338499D01*
X124579071Y-120338500D01*
X124579072Y-120338500D01*
X124848928Y-120338500D01*
X124848929Y-120338500D01*
X124848936Y-120338499D01*
X125115767Y-120298281D01*
X125115768Y-120298280D01*
X125115772Y-120298280D01*
X125373641Y-120218738D01*
X125616775Y-120101651D01*
X125839741Y-119949635D01*
X125839751Y-119949625D01*
X125843373Y-119946738D01*
X125843797Y-119947270D01*
X125862471Y-119933871D01*
X127109588Y-119258463D01*
X127168639Y-119243500D01*
X127425257Y-119243500D01*
X127440877Y-119245224D01*
X127440904Y-119244939D01*
X127448660Y-119245671D01*
X127448667Y-119245673D01*
X127517814Y-119243500D01*
X127547350Y-119243500D01*
X127554228Y-119242630D01*
X127560041Y-119242172D01*
X127606627Y-119240709D01*
X127625869Y-119235117D01*
X127644912Y-119231174D01*
X127664792Y-119228664D01*
X127708122Y-119211507D01*
X127713646Y-119209617D01*
X127717396Y-119208527D01*
X127758390Y-119196618D01*
X127775629Y-119186422D01*
X127793103Y-119177862D01*
X127811727Y-119170488D01*
X127811727Y-119170487D01*
X127811732Y-119170486D01*
X127849449Y-119143082D01*
X127854305Y-119139892D01*
X127894420Y-119116170D01*
X127908589Y-119101999D01*
X127923379Y-119089368D01*
X127939587Y-119077594D01*
X127969299Y-119041676D01*
X127973212Y-119037376D01*
X129408589Y-117602000D01*
X158788473Y-117602000D01*
X158808563Y-117934136D01*
X158808563Y-117934141D01*
X158808564Y-117934142D01*
X158868544Y-118261441D01*
X158868545Y-118261445D01*
X158868546Y-118261449D01*
X158967530Y-118579104D01*
X158967534Y-118579116D01*
X158967537Y-118579123D01*
X159104102Y-118882557D01*
X159200301Y-119041689D01*
X159276251Y-119167326D01*
X159481460Y-119429255D01*
X159716744Y-119664539D01*
X159978673Y-119869748D01*
X159978678Y-119869751D01*
X159978682Y-119869754D01*
X160263443Y-120041898D01*
X160566877Y-120178463D01*
X160566890Y-120178467D01*
X160566895Y-120178469D01*
X160771248Y-120242147D01*
X160884559Y-120277456D01*
X161211858Y-120337436D01*
X161389740Y-120348196D01*
X161460892Y-120352500D01*
X161460894Y-120352500D01*
X161627108Y-120352500D01*
X161689365Y-120348734D01*
X161876142Y-120337436D01*
X162203441Y-120277456D01*
X162521123Y-120178463D01*
X162824557Y-120041898D01*
X163109318Y-119869754D01*
X163371252Y-119664542D01*
X163606542Y-119429252D01*
X163800680Y-119181453D01*
X163811748Y-119167326D01*
X163811748Y-119167324D01*
X163811754Y-119167318D01*
X163983898Y-118882557D01*
X164120463Y-118579123D01*
X164219456Y-118261441D01*
X164279436Y-117934142D01*
X164299527Y-117602000D01*
X164279436Y-117269858D01*
X164219456Y-116942559D01*
X164186458Y-116836665D01*
X164120469Y-116624895D01*
X164120467Y-116624890D01*
X164120463Y-116624877D01*
X163983898Y-116321443D01*
X163811754Y-116036682D01*
X163811751Y-116036678D01*
X163811748Y-116036673D01*
X163606539Y-115774744D01*
X163371255Y-115539460D01*
X163109326Y-115334251D01*
X163105753Y-115332091D01*
X162824557Y-115162102D01*
X162521123Y-115025537D01*
X162521116Y-115025534D01*
X162521104Y-115025530D01*
X162203449Y-114926546D01*
X162203445Y-114926545D01*
X162203441Y-114926544D01*
X161876142Y-114866564D01*
X161876141Y-114866563D01*
X161876136Y-114866563D01*
X161627108Y-114851500D01*
X161627106Y-114851500D01*
X161460894Y-114851500D01*
X161460892Y-114851500D01*
X161211863Y-114866563D01*
X161211858Y-114866564D01*
X160884559Y-114926544D01*
X160884556Y-114926544D01*
X160884550Y-114926546D01*
X160566895Y-115025530D01*
X160566879Y-115025536D01*
X160566877Y-115025537D01*
X160373656Y-115112498D01*
X160263447Y-115162100D01*
X160263445Y-115162101D01*
X159978673Y-115334251D01*
X159716744Y-115539460D01*
X159481460Y-115774744D01*
X159276251Y-116036673D01*
X159104101Y-116321445D01*
X159104100Y-116321447D01*
X158967536Y-116624880D01*
X158967530Y-116624895D01*
X158868546Y-116942550D01*
X158868544Y-116942556D01*
X158868544Y-116942559D01*
X158834860Y-117126365D01*
X158808563Y-117269863D01*
X158788473Y-117602000D01*
X129408589Y-117602000D01*
X134842772Y-112167819D01*
X134904095Y-112134334D01*
X134930453Y-112131500D01*
X162985257Y-112131500D01*
X163000877Y-112133224D01*
X163000904Y-112132939D01*
X163008660Y-112133671D01*
X163008667Y-112133673D01*
X163077814Y-112131500D01*
X163107350Y-112131500D01*
X163114228Y-112130630D01*
X163120041Y-112130172D01*
X163166627Y-112128709D01*
X163185869Y-112123117D01*
X163204912Y-112119174D01*
X163224792Y-112116664D01*
X163268122Y-112099507D01*
X163273646Y-112097617D01*
X163277396Y-112096527D01*
X163318390Y-112084618D01*
X163335629Y-112074422D01*
X163353103Y-112065862D01*
X163371727Y-112058488D01*
X163371727Y-112058487D01*
X163371732Y-112058486D01*
X163409449Y-112031082D01*
X163414305Y-112027892D01*
X163454420Y-112004170D01*
X163468589Y-111989999D01*
X163483379Y-111977368D01*
X163499587Y-111965594D01*
X163529299Y-111929676D01*
X163533212Y-111925376D01*
X165483788Y-109974801D01*
X165496042Y-109964986D01*
X165495859Y-109964764D01*
X165501866Y-109959792D01*
X165501877Y-109959786D01*
X165532775Y-109926882D01*
X165549227Y-109909364D01*
X165559671Y-109898918D01*
X165570120Y-109888471D01*
X165574379Y-109882978D01*
X165578152Y-109878561D01*
X165610062Y-109844582D01*
X165619715Y-109827020D01*
X165630389Y-109810770D01*
X165642673Y-109794936D01*
X165661180Y-109752167D01*
X165663749Y-109746924D01*
X165665953Y-109742913D01*
X165686197Y-109706092D01*
X165691177Y-109686691D01*
X165697478Y-109668288D01*
X165705438Y-109649896D01*
X165712730Y-109603849D01*
X165713911Y-109598152D01*
X165725500Y-109553019D01*
X165725500Y-109532983D01*
X165727027Y-109513582D01*
X165730160Y-109493804D01*
X165725775Y-109447415D01*
X165725500Y-109441577D01*
X165725500Y-88474737D01*
X165727223Y-88459120D01*
X165726938Y-88459093D01*
X165727672Y-88451331D01*
X165725500Y-88382203D01*
X165725500Y-88352651D01*
X165725500Y-88352650D01*
X165724629Y-88345759D01*
X165724172Y-88339945D01*
X165722709Y-88293372D01*
X165717122Y-88274144D01*
X165713174Y-88255084D01*
X165711613Y-88242726D01*
X165710664Y-88235208D01*
X165693507Y-88191875D01*
X165691619Y-88186359D01*
X165678619Y-88141612D01*
X165668418Y-88124363D01*
X165659860Y-88106894D01*
X165652486Y-88088268D01*
X165652483Y-88088264D01*
X165652483Y-88088263D01*
X165625098Y-88050571D01*
X165621890Y-88045687D01*
X165598172Y-88005582D01*
X165598163Y-88005571D01*
X165584005Y-87991413D01*
X165571370Y-87976620D01*
X165559593Y-87960412D01*
X165523693Y-87930713D01*
X165519381Y-87926790D01*
X163551094Y-85958503D01*
X163521775Y-85911896D01*
X163471198Y-85767829D01*
X163077323Y-84645879D01*
X163075935Y-84641386D01*
X163071903Y-84626337D01*
X163067371Y-84616618D01*
X163065059Y-84610946D01*
X163062113Y-84602553D01*
X163059483Y-84595658D01*
X163031093Y-84534001D01*
X163027768Y-84528410D01*
X163027996Y-84528273D01*
X163019720Y-84514431D01*
X162972035Y-84412171D01*
X162972034Y-84412169D01*
X162836494Y-84218597D01*
X162669402Y-84051506D01*
X162669395Y-84051501D01*
X162475831Y-83915965D01*
X162475829Y-83915964D01*
X162369144Y-83866216D01*
X162289401Y-83829031D01*
X162284424Y-83826437D01*
X162279078Y-83823651D01*
X162279074Y-83823649D01*
X162279073Y-83823649D01*
X162277045Y-83822937D01*
X162271389Y-83820632D01*
X162265266Y-83817777D01*
X162261664Y-83816097D01*
X162246614Y-83812064D01*
X162242126Y-83810677D01*
X160972735Y-83365040D01*
X160928924Y-83338431D01*
X160898585Y-83309940D01*
X160898577Y-83309935D01*
X160881029Y-83300288D01*
X160864763Y-83289604D01*
X160848933Y-83277325D01*
X160806168Y-83258818D01*
X160800922Y-83256248D01*
X160760093Y-83233803D01*
X160760092Y-83233802D01*
X160740693Y-83228822D01*
X160722281Y-83222518D01*
X160703898Y-83214562D01*
X160703892Y-83214560D01*
X160657874Y-83207272D01*
X160652152Y-83206087D01*
X160607021Y-83194500D01*
X160607019Y-83194500D01*
X160586984Y-83194500D01*
X160567586Y-83192973D01*
X160560162Y-83191797D01*
X160547805Y-83189840D01*
X160547804Y-83189840D01*
X160501416Y-83194225D01*
X160495578Y-83194500D01*
X154359843Y-83194500D01*
X154306674Y-83182522D01*
X153881789Y-82980858D01*
X153205199Y-82659726D01*
X153153076Y-82613198D01*
X153134382Y-82545875D01*
X153155054Y-82479133D01*
X153205966Y-82435321D01*
X153259983Y-82410133D01*
X153446320Y-82279657D01*
X153607157Y-82118820D01*
X153737634Y-81932482D01*
X153833765Y-81726326D01*
X153833769Y-81726317D01*
X153886372Y-81530000D01*
X152841186Y-81530000D01*
X152866993Y-81489844D01*
X152907500Y-81351889D01*
X152907500Y-81208111D01*
X152866993Y-81070156D01*
X152841186Y-81030000D01*
X153886372Y-81030000D01*
X153886372Y-81029999D01*
X153833769Y-80833682D01*
X153833765Y-80833673D01*
X153737634Y-80627517D01*
X153607157Y-80441179D01*
X153446320Y-80280342D01*
X153259982Y-80149865D01*
X153201633Y-80122657D01*
X153149194Y-80076484D01*
X153130042Y-80009291D01*
X153150258Y-79942410D01*
X153201629Y-79897895D01*
X153260234Y-79870568D01*
X153446639Y-79740047D01*
X153607547Y-79579139D01*
X153738068Y-79392734D01*
X153834239Y-79186496D01*
X153893135Y-78966692D01*
X153912968Y-78740000D01*
X153893135Y-78513308D01*
X153834239Y-78293504D01*
X153738068Y-78087266D01*
X153607547Y-77900861D01*
X153607545Y-77900858D01*
X153446641Y-77739954D01*
X153260234Y-77609432D01*
X153260228Y-77609429D01*
X153232538Y-77596517D01*
X153202224Y-77582381D01*
X153149785Y-77536210D01*
X153130633Y-77469017D01*
X153150848Y-77402135D01*
X153202225Y-77357618D01*
X153260234Y-77330568D01*
X153446639Y-77200047D01*
X153607547Y-77039139D01*
X153738068Y-76852734D01*
X153834239Y-76646496D01*
X153893135Y-76426692D01*
X153912968Y-76200000D01*
X153893135Y-75973308D01*
X153834239Y-75753504D01*
X153738068Y-75547266D01*
X153607547Y-75360861D01*
X153607545Y-75360858D01*
X153446641Y-75199954D01*
X153260234Y-75069432D01*
X153260228Y-75069429D01*
X153202225Y-75042382D01*
X153149785Y-74996210D01*
X153130633Y-74929017D01*
X153150848Y-74862135D01*
X153202225Y-74817618D01*
X153260234Y-74790568D01*
X153446639Y-74660047D01*
X153607547Y-74499139D01*
X153738068Y-74312734D01*
X153834239Y-74106496D01*
X153893135Y-73886692D01*
X153912968Y-73660000D01*
X153893135Y-73433308D01*
X153834239Y-73213504D01*
X153738068Y-73007266D01*
X153607547Y-72820861D01*
X153607545Y-72820858D01*
X153446641Y-72659954D01*
X153260234Y-72529432D01*
X153260228Y-72529429D01*
X153202225Y-72502382D01*
X153149785Y-72456210D01*
X153130633Y-72389017D01*
X153150848Y-72322135D01*
X153202225Y-72277618D01*
X153206306Y-72275715D01*
X153260234Y-72250568D01*
X153446639Y-72120047D01*
X153607547Y-71959139D01*
X153738068Y-71772734D01*
X153834239Y-71566496D01*
X153893135Y-71346692D01*
X153912968Y-71120000D01*
X153893135Y-70893308D01*
X153834239Y-70673504D01*
X153738068Y-70467266D01*
X153607547Y-70280861D01*
X153607545Y-70280858D01*
X153446641Y-70119954D01*
X153260234Y-69989432D01*
X153260228Y-69989429D01*
X153202225Y-69962382D01*
X153149785Y-69916210D01*
X153130633Y-69849017D01*
X153150848Y-69782135D01*
X153202225Y-69737618D01*
X153260234Y-69710568D01*
X153446639Y-69580047D01*
X153607547Y-69419139D01*
X153738068Y-69232734D01*
X153826548Y-69042989D01*
X164015844Y-69042989D01*
X164025577Y-69222501D01*
X164025578Y-69222506D01*
X164073670Y-69395718D01*
X164073674Y-69395726D01*
X164157881Y-69554557D01*
X164274264Y-69691573D01*
X164274265Y-69691574D01*
X164417382Y-69800369D01*
X164580541Y-69875854D01*
X164756113Y-69914500D01*
X164756116Y-69914500D01*
X164890810Y-69914500D01*
X164890816Y-69914500D01*
X165024721Y-69899937D01*
X165195085Y-69842535D01*
X165349126Y-69749851D01*
X165479642Y-69626220D01*
X165580529Y-69477423D01*
X165647070Y-69310416D01*
X165661483Y-69222506D01*
X165676155Y-69133010D01*
X165666422Y-68953498D01*
X165666421Y-68953493D01*
X165618329Y-68780281D01*
X165618325Y-68780273D01*
X165534118Y-68621442D01*
X165417735Y-68484426D01*
X165341070Y-68426147D01*
X165274618Y-68375631D01*
X165274616Y-68375630D01*
X165274615Y-68375629D01*
X165111457Y-68300145D01*
X164935887Y-68261500D01*
X164801184Y-68261500D01*
X164801182Y-68261500D01*
X164667278Y-68276063D01*
X164595806Y-68300145D01*
X164496915Y-68333465D01*
X164496913Y-68333465D01*
X164496913Y-68333466D01*
X164342876Y-68426147D01*
X164212356Y-68549781D01*
X164111471Y-68698575D01*
X164111470Y-68698576D01*
X164044929Y-68865583D01*
X164044928Y-68865587D01*
X164015845Y-69042986D01*
X164015844Y-69042989D01*
X153826548Y-69042989D01*
X153834239Y-69026496D01*
X153893135Y-68806692D01*
X153912968Y-68580000D01*
X153893135Y-68353308D01*
X153834239Y-68133504D01*
X153738068Y-67927266D01*
X153607547Y-67740861D01*
X153607545Y-67740858D01*
X153446641Y-67579954D01*
X153383260Y-67535575D01*
X153339635Y-67480999D01*
X153332441Y-67411501D01*
X153363963Y-67349146D01*
X153424193Y-67313731D01*
X153454383Y-67310000D01*
X166753500Y-67310000D01*
X166820539Y-67329685D01*
X166866294Y-67382489D01*
X166877500Y-67434000D01*
X166877500Y-122811500D01*
X166857815Y-122878539D01*
X166805011Y-122924294D01*
X166753500Y-122935500D01*
X115186500Y-122935500D01*
X115119461Y-122915815D01*
X115073706Y-122863011D01*
X115062500Y-122811500D01*
X115062500Y-120858989D01*
X141917844Y-120858989D01*
X141927577Y-121038501D01*
X141927578Y-121038506D01*
X141975670Y-121211718D01*
X141975674Y-121211726D01*
X142059881Y-121370557D01*
X142176264Y-121507573D01*
X142176265Y-121507574D01*
X142319382Y-121616369D01*
X142482541Y-121691854D01*
X142658113Y-121730500D01*
X142658116Y-121730500D01*
X142792810Y-121730500D01*
X142792816Y-121730500D01*
X142926721Y-121715937D01*
X143097085Y-121658535D01*
X143251126Y-121565851D01*
X143381642Y-121442220D01*
X143482529Y-121293423D01*
X143549070Y-121126416D01*
X143563483Y-121038506D01*
X143578155Y-120949010D01*
X143568422Y-120769498D01*
X143568421Y-120769493D01*
X143520329Y-120596281D01*
X143520325Y-120596273D01*
X143436118Y-120437442D01*
X143319735Y-120300426D01*
X143316911Y-120298279D01*
X143176618Y-120191631D01*
X143176616Y-120191630D01*
X143176615Y-120191629D01*
X143013457Y-120116145D01*
X142837887Y-120077500D01*
X142703184Y-120077500D01*
X142703182Y-120077500D01*
X142569278Y-120092063D01*
X142497806Y-120116145D01*
X142398915Y-120149465D01*
X142398913Y-120149465D01*
X142398913Y-120149466D01*
X142244876Y-120242147D01*
X142114356Y-120365781D01*
X142013471Y-120514575D01*
X142013470Y-120514576D01*
X141946929Y-120681583D01*
X141946928Y-120681587D01*
X141917845Y-120858986D01*
X141917844Y-120858989D01*
X115062500Y-120858989D01*
X115062500Y-102282004D01*
X122908451Y-102282004D01*
X122928616Y-102551101D01*
X122988664Y-102814188D01*
X122988666Y-102814195D01*
X123087257Y-103065398D01*
X123222185Y-103299102D01*
X123249747Y-103333663D01*
X123390442Y-103510089D01*
X123495925Y-103607962D01*
X123588259Y-103693635D01*
X123811226Y-103845651D01*
X124054359Y-103962738D01*
X124312228Y-104042280D01*
X124312229Y-104042280D01*
X124312232Y-104042281D01*
X124579063Y-104082499D01*
X124579068Y-104082499D01*
X124579071Y-104082500D01*
X124579072Y-104082500D01*
X124848928Y-104082500D01*
X124848929Y-104082500D01*
X124848936Y-104082499D01*
X125115767Y-104042281D01*
X125115768Y-104042280D01*
X125115772Y-104042280D01*
X125373641Y-103962738D01*
X125616775Y-103845651D01*
X125839741Y-103693635D01*
X126037561Y-103510085D01*
X126205815Y-103299102D01*
X126340743Y-103065398D01*
X126439334Y-102814195D01*
X126499383Y-102551103D01*
X126509104Y-102421385D01*
X126519549Y-102282004D01*
X126519549Y-102281995D01*
X126499383Y-102012898D01*
X126499383Y-102012897D01*
X126439334Y-101749805D01*
X126340743Y-101498602D01*
X126205815Y-101264898D01*
X126037561Y-101053915D01*
X126037560Y-101053914D01*
X126037557Y-101053910D01*
X125839741Y-100870365D01*
X125795290Y-100840059D01*
X125616775Y-100718349D01*
X125616769Y-100718346D01*
X125616768Y-100718345D01*
X125616767Y-100718344D01*
X125373643Y-100601263D01*
X125373645Y-100601263D01*
X125115773Y-100521720D01*
X125115767Y-100521718D01*
X124848936Y-100481500D01*
X124848929Y-100481500D01*
X124579071Y-100481500D01*
X124579063Y-100481500D01*
X124312232Y-100521718D01*
X124312226Y-100521720D01*
X124054358Y-100601262D01*
X123811230Y-100718346D01*
X123588258Y-100870365D01*
X123390442Y-101053910D01*
X123222185Y-101264898D01*
X123087258Y-101498599D01*
X123087256Y-101498603D01*
X122988666Y-101749804D01*
X122988664Y-101749811D01*
X122928616Y-102012898D01*
X122908451Y-102281995D01*
X122908451Y-102282004D01*
X115062500Y-102282004D01*
X115062500Y-98629844D01*
X122914000Y-98629844D01*
X122920401Y-98689372D01*
X122920403Y-98689379D01*
X122970645Y-98824086D01*
X122970649Y-98824093D01*
X123056809Y-98939187D01*
X123056812Y-98939190D01*
X123171906Y-99025350D01*
X123171913Y-99025354D01*
X123306620Y-99075596D01*
X123306627Y-99075598D01*
X123366155Y-99081999D01*
X123366172Y-99082000D01*
X124464000Y-99082000D01*
X124464000Y-97886310D01*
X124472817Y-97891158D01*
X124631886Y-97932000D01*
X124754894Y-97932000D01*
X124876933Y-97916583D01*
X124964000Y-97882110D01*
X124964000Y-99082000D01*
X126061828Y-99082000D01*
X126061844Y-99081999D01*
X126121372Y-99075598D01*
X126121379Y-99075596D01*
X126256086Y-99025354D01*
X126256093Y-99025350D01*
X126371187Y-98939190D01*
X126371190Y-98939187D01*
X126457350Y-98824093D01*
X126457354Y-98824086D01*
X126507596Y-98689379D01*
X126507598Y-98689372D01*
X126513999Y-98629844D01*
X126514000Y-98629827D01*
X126514000Y-97532000D01*
X125314728Y-97532000D01*
X125337100Y-97484457D01*
X125367873Y-97323138D01*
X125357561Y-97159234D01*
X125316220Y-97032000D01*
X126514000Y-97032000D01*
X126514000Y-95934172D01*
X126513999Y-95934155D01*
X126507598Y-95874627D01*
X126507596Y-95874620D01*
X126457354Y-95739913D01*
X126457350Y-95739906D01*
X126371190Y-95624812D01*
X126371187Y-95624809D01*
X126256093Y-95538649D01*
X126256086Y-95538645D01*
X126121379Y-95488403D01*
X126121372Y-95488401D01*
X126061844Y-95482000D01*
X124964000Y-95482000D01*
X124964000Y-96677689D01*
X124955183Y-96672842D01*
X124796114Y-96632000D01*
X124673106Y-96632000D01*
X124551067Y-96647417D01*
X124464000Y-96681889D01*
X124464000Y-95482000D01*
X123366155Y-95482000D01*
X123306627Y-95488401D01*
X123306620Y-95488403D01*
X123171913Y-95538645D01*
X123171906Y-95538649D01*
X123056812Y-95624809D01*
X123056809Y-95624812D01*
X122970649Y-95739906D01*
X122970645Y-95739913D01*
X122920403Y-95874620D01*
X122920401Y-95874627D01*
X122914000Y-95934155D01*
X122914000Y-97032000D01*
X124113272Y-97032000D01*
X124090900Y-97079543D01*
X124060127Y-97240862D01*
X124070439Y-97404766D01*
X124111780Y-97532000D01*
X122914000Y-97532000D01*
X122914000Y-98629844D01*
X115062500Y-98629844D01*
X115062500Y-69042989D01*
X116263844Y-69042989D01*
X116273577Y-69222501D01*
X116273578Y-69222506D01*
X116321670Y-69395718D01*
X116321674Y-69395726D01*
X116405881Y-69554557D01*
X116522264Y-69691573D01*
X116522265Y-69691574D01*
X116665382Y-69800369D01*
X116828541Y-69875854D01*
X117004113Y-69914500D01*
X117004116Y-69914500D01*
X117138810Y-69914500D01*
X117138816Y-69914500D01*
X117272721Y-69899937D01*
X117443085Y-69842535D01*
X117597126Y-69749851D01*
X117727642Y-69626220D01*
X117828529Y-69477423D01*
X117895070Y-69310416D01*
X117909483Y-69222506D01*
X117924155Y-69133010D01*
X117914422Y-68953498D01*
X117914421Y-68953493D01*
X117866329Y-68780281D01*
X117866325Y-68780273D01*
X117782118Y-68621442D01*
X117665735Y-68484426D01*
X117589070Y-68426147D01*
X117522618Y-68375631D01*
X117522616Y-68375630D01*
X117522615Y-68375629D01*
X117359457Y-68300145D01*
X117183887Y-68261500D01*
X117049184Y-68261500D01*
X117049182Y-68261500D01*
X116915278Y-68276063D01*
X116843806Y-68300145D01*
X116744915Y-68333465D01*
X116744913Y-68333465D01*
X116744913Y-68333466D01*
X116590876Y-68426147D01*
X116460356Y-68549781D01*
X116359471Y-68698575D01*
X116359470Y-68698576D01*
X116292929Y-68865583D01*
X116292928Y-68865587D01*
X116263845Y-69042986D01*
X116263844Y-69042989D01*
X115062500Y-69042989D01*
X115062500Y-67434000D01*
X115082185Y-67366961D01*
X115134989Y-67321206D01*
X115186500Y-67310000D01*
X128062348Y-67310000D01*
X128129387Y-67329685D01*
G37*
%TD.AperFunction*%
%TA.AperFunction,Conductor*%
G36*
X151427656Y-67329685D02*
G01*
X151473411Y-67382489D01*
X151483355Y-67451647D01*
X151454330Y-67515203D01*
X151431740Y-67535575D01*
X151368358Y-67579954D01*
X151207454Y-67740858D01*
X151076932Y-67927265D01*
X151076931Y-67927267D01*
X150980761Y-68133502D01*
X150980758Y-68133511D01*
X150921866Y-68353302D01*
X150921864Y-68353313D01*
X150902032Y-68579998D01*
X150902032Y-68580001D01*
X150921864Y-68806686D01*
X150921866Y-68806697D01*
X150980758Y-69026488D01*
X150980761Y-69026497D01*
X151076931Y-69232732D01*
X151076932Y-69232734D01*
X151207454Y-69419141D01*
X151368358Y-69580045D01*
X151368361Y-69580047D01*
X151554766Y-69710568D01*
X151612775Y-69737618D01*
X151665214Y-69783791D01*
X151684366Y-69850984D01*
X151664150Y-69917865D01*
X151612775Y-69962382D01*
X151554767Y-69989431D01*
X151554765Y-69989432D01*
X151368358Y-70119954D01*
X151207454Y-70280858D01*
X151076932Y-70467265D01*
X151076931Y-70467267D01*
X150980761Y-70673502D01*
X150980758Y-70673511D01*
X150921866Y-70893302D01*
X150921864Y-70893313D01*
X150902032Y-71119998D01*
X150902032Y-71120001D01*
X150921864Y-71346686D01*
X150921866Y-71346697D01*
X150980758Y-71566488D01*
X150980761Y-71566497D01*
X151076931Y-71772732D01*
X151076932Y-71772734D01*
X151207454Y-71959141D01*
X151368358Y-72120045D01*
X151368361Y-72120047D01*
X151554766Y-72250568D01*
X151608694Y-72275715D01*
X151612775Y-72277618D01*
X151665214Y-72323791D01*
X151684366Y-72390984D01*
X151664150Y-72457865D01*
X151612775Y-72502382D01*
X151554767Y-72529431D01*
X151554765Y-72529432D01*
X151368358Y-72659954D01*
X151207454Y-72820858D01*
X151076932Y-73007265D01*
X151076931Y-73007267D01*
X150980761Y-73213502D01*
X150980758Y-73213511D01*
X150921866Y-73433302D01*
X150921864Y-73433313D01*
X150902032Y-73659998D01*
X150902032Y-73660001D01*
X150921864Y-73886686D01*
X150921866Y-73886697D01*
X150980758Y-74106488D01*
X150980761Y-74106497D01*
X151076931Y-74312732D01*
X151076932Y-74312734D01*
X151207454Y-74499141D01*
X151368358Y-74660045D01*
X151368361Y-74660047D01*
X151554766Y-74790568D01*
X151612775Y-74817618D01*
X151665214Y-74863791D01*
X151684366Y-74930984D01*
X151664150Y-74997865D01*
X151612775Y-75042382D01*
X151554767Y-75069431D01*
X151554765Y-75069432D01*
X151368358Y-75199954D01*
X151207454Y-75360858D01*
X151076932Y-75547265D01*
X151076931Y-75547267D01*
X150980761Y-75753502D01*
X150980758Y-75753511D01*
X150921866Y-75973302D01*
X150921864Y-75973313D01*
X150902032Y-76199998D01*
X150902032Y-76200001D01*
X150921864Y-76426686D01*
X150921866Y-76426697D01*
X150980758Y-76646488D01*
X150980761Y-76646497D01*
X151076931Y-76852732D01*
X151076932Y-76852734D01*
X151207454Y-77039141D01*
X151368358Y-77200045D01*
X151368361Y-77200047D01*
X151554766Y-77330568D01*
X151612775Y-77357618D01*
X151665214Y-77403791D01*
X151684366Y-77470984D01*
X151664150Y-77537865D01*
X151612775Y-77582382D01*
X151554767Y-77609431D01*
X151554765Y-77609432D01*
X151368358Y-77739954D01*
X151207454Y-77900858D01*
X151076932Y-78087265D01*
X151076931Y-78087267D01*
X150980761Y-78293502D01*
X150980758Y-78293511D01*
X150921866Y-78513302D01*
X150921864Y-78513313D01*
X150902032Y-78739998D01*
X150902032Y-78740001D01*
X150921864Y-78966686D01*
X150921866Y-78966697D01*
X150980758Y-79186488D01*
X150980761Y-79186497D01*
X151076931Y-79392732D01*
X151076932Y-79392734D01*
X151207454Y-79579141D01*
X151368358Y-79740045D01*
X151368361Y-79740047D01*
X151554766Y-79870568D01*
X151613365Y-79897893D01*
X151665805Y-79944065D01*
X151684957Y-80011258D01*
X151664742Y-80078139D01*
X151613367Y-80122657D01*
X151555015Y-80149867D01*
X151368679Y-80280342D01*
X151207842Y-80441179D01*
X151077365Y-80627517D01*
X150981234Y-80833673D01*
X150981230Y-80833682D01*
X150928627Y-81029999D01*
X150928628Y-81030000D01*
X151973814Y-81030000D01*
X151948007Y-81070156D01*
X151907500Y-81208111D01*
X151907500Y-81351889D01*
X151948007Y-81489844D01*
X151973814Y-81530000D01*
X150928628Y-81530000D01*
X150981230Y-81726317D01*
X150981234Y-81726326D01*
X151077365Y-81932482D01*
X151207842Y-82118820D01*
X151368679Y-82279657D01*
X151555018Y-82410134D01*
X151555020Y-82410135D01*
X151613365Y-82437342D01*
X151665805Y-82483514D01*
X151684957Y-82550707D01*
X151664742Y-82617589D01*
X151613367Y-82662105D01*
X151612775Y-82662382D01*
X151554764Y-82689433D01*
X151368358Y-82819954D01*
X151207454Y-82980858D01*
X151076932Y-83167265D01*
X151076931Y-83167267D01*
X150980761Y-83373502D01*
X150980758Y-83373511D01*
X150921866Y-83593302D01*
X150921864Y-83593313D01*
X150902032Y-83819998D01*
X150902032Y-83820001D01*
X150921864Y-84046686D01*
X150921866Y-84046697D01*
X150980758Y-84266488D01*
X150980761Y-84266497D01*
X151076931Y-84472732D01*
X151076932Y-84472734D01*
X151207454Y-84659141D01*
X151368358Y-84820045D01*
X151368361Y-84820047D01*
X151554766Y-84950568D01*
X151761004Y-85046739D01*
X151980808Y-85105635D01*
X152150716Y-85120500D01*
X152664284Y-85120500D01*
X152834192Y-85105635D01*
X153053996Y-85046739D01*
X153106283Y-85022355D01*
X153114144Y-85019321D01*
X153139415Y-85011496D01*
X154306672Y-84457477D01*
X154359841Y-84445500D01*
X160048613Y-84445500D01*
X160115652Y-84465185D01*
X160161407Y-84517989D01*
X160165613Y-84528426D01*
X160518676Y-85534124D01*
X160520063Y-85538613D01*
X160524097Y-85553663D01*
X160528628Y-85563382D01*
X160530936Y-85569046D01*
X160533884Y-85577441D01*
X160536515Y-85584339D01*
X160536516Y-85584341D01*
X160564905Y-85645997D01*
X160568231Y-85651589D01*
X160568002Y-85651725D01*
X160576278Y-85665567D01*
X160623964Y-85767829D01*
X160623965Y-85767831D01*
X160724841Y-85911896D01*
X160743495Y-85938537D01*
X160759501Y-85961395D01*
X160759506Y-85961402D01*
X160926597Y-86128493D01*
X160926603Y-86128498D01*
X161106818Y-86254686D01*
X161150443Y-86309263D01*
X161157637Y-86378761D01*
X161126114Y-86441116D01*
X161089382Y-86468036D01*
X159997935Y-86992275D01*
X159944248Y-87004500D01*
X152202452Y-87004500D01*
X152135413Y-86984815D01*
X152114771Y-86968181D01*
X148582803Y-83436212D01*
X148572980Y-83423950D01*
X148572759Y-83424134D01*
X148567786Y-83418123D01*
X148541462Y-83393403D01*
X148517364Y-83370773D01*
X148503461Y-83356870D01*
X148496475Y-83349883D01*
X148490986Y-83345625D01*
X148486561Y-83341847D01*
X148452582Y-83309938D01*
X148452580Y-83309936D01*
X148452577Y-83309935D01*
X148435029Y-83300288D01*
X148418763Y-83289604D01*
X148402933Y-83277325D01*
X148360168Y-83258818D01*
X148354922Y-83256248D01*
X148314093Y-83233803D01*
X148314092Y-83233802D01*
X148294693Y-83228822D01*
X148276281Y-83222518D01*
X148257898Y-83214562D01*
X148257892Y-83214560D01*
X148211874Y-83207272D01*
X148206152Y-83206087D01*
X148161021Y-83194500D01*
X148161019Y-83194500D01*
X148140984Y-83194500D01*
X148121586Y-83192973D01*
X148114162Y-83191797D01*
X148101805Y-83189840D01*
X148101804Y-83189840D01*
X148055416Y-83194225D01*
X148049578Y-83194500D01*
X131499843Y-83194500D01*
X131446674Y-83182522D01*
X131021789Y-82980858D01*
X130345785Y-82660004D01*
X130293662Y-82613476D01*
X130274968Y-82546153D01*
X130295640Y-82479411D01*
X130346548Y-82435602D01*
X130400234Y-82410568D01*
X130586639Y-82280047D01*
X130747547Y-82119139D01*
X130878068Y-81932734D01*
X130974239Y-81726496D01*
X131033135Y-81506692D01*
X131052968Y-81280000D01*
X131033135Y-81053308D01*
X130974239Y-80833504D01*
X130878068Y-80627266D01*
X130747547Y-80440861D01*
X130747545Y-80440858D01*
X130586641Y-80279954D01*
X130400234Y-80149432D01*
X130400228Y-80149429D01*
X130342225Y-80122382D01*
X130289785Y-80076210D01*
X130270633Y-80009017D01*
X130290848Y-79942135D01*
X130342225Y-79897618D01*
X130400234Y-79870568D01*
X130586639Y-79740047D01*
X130747547Y-79579139D01*
X130878068Y-79392734D01*
X130974239Y-79186496D01*
X131033135Y-78966692D01*
X131052968Y-78740000D01*
X131033135Y-78513308D01*
X130974239Y-78293504D01*
X130878068Y-78087266D01*
X130747547Y-77900861D01*
X130747545Y-77900858D01*
X130586641Y-77739954D01*
X130400234Y-77609432D01*
X130400228Y-77609429D01*
X130372538Y-77596517D01*
X130342224Y-77582381D01*
X130289785Y-77536210D01*
X130270633Y-77469017D01*
X130290848Y-77402135D01*
X130342225Y-77357618D01*
X130400234Y-77330568D01*
X130586639Y-77200047D01*
X130747547Y-77039139D01*
X130878068Y-76852734D01*
X130974239Y-76646496D01*
X131033135Y-76426692D01*
X131052968Y-76200000D01*
X131033135Y-75973308D01*
X130974239Y-75753504D01*
X130878068Y-75547266D01*
X130747547Y-75360861D01*
X130747545Y-75360858D01*
X130586641Y-75199954D01*
X130400234Y-75069432D01*
X130400228Y-75069429D01*
X130342225Y-75042382D01*
X130289785Y-74996210D01*
X130270633Y-74929017D01*
X130290848Y-74862135D01*
X130342225Y-74817618D01*
X130400234Y-74790568D01*
X130586639Y-74660047D01*
X130747547Y-74499139D01*
X130878068Y-74312734D01*
X130974239Y-74106496D01*
X131033135Y-73886692D01*
X131052968Y-73660000D01*
X131033135Y-73433308D01*
X130974239Y-73213504D01*
X130878068Y-73007266D01*
X130747547Y-72820861D01*
X130747545Y-72820858D01*
X130586641Y-72659954D01*
X130400234Y-72529432D01*
X130400228Y-72529429D01*
X130342225Y-72502382D01*
X130289785Y-72456210D01*
X130270633Y-72389017D01*
X130290848Y-72322135D01*
X130342225Y-72277618D01*
X130346306Y-72275715D01*
X130400234Y-72250568D01*
X130586639Y-72120047D01*
X130747547Y-71959139D01*
X130878068Y-71772734D01*
X130974239Y-71566496D01*
X131033135Y-71346692D01*
X131052968Y-71120000D01*
X131033135Y-70893308D01*
X130974239Y-70673504D01*
X130878068Y-70467266D01*
X130747547Y-70280861D01*
X130747545Y-70280858D01*
X130586641Y-70119954D01*
X130400234Y-69989432D01*
X130400228Y-69989429D01*
X130342225Y-69962382D01*
X130289785Y-69916210D01*
X130270633Y-69849017D01*
X130290848Y-69782135D01*
X130342225Y-69737618D01*
X130400234Y-69710568D01*
X130586639Y-69580047D01*
X130747547Y-69419139D01*
X130878068Y-69232734D01*
X130974239Y-69026496D01*
X131033135Y-68806692D01*
X131052968Y-68580000D01*
X131033135Y-68353308D01*
X130974239Y-68133504D01*
X130878068Y-67927266D01*
X130747547Y-67740861D01*
X130747545Y-67740858D01*
X130708237Y-67701550D01*
X130674752Y-67640227D01*
X130679736Y-67570535D01*
X130721608Y-67514602D01*
X130752583Y-67497688D01*
X130789831Y-67483796D01*
X130905046Y-67397546D01*
X130933386Y-67359687D01*
X130989319Y-67317818D01*
X131032652Y-67310000D01*
X151360617Y-67310000D01*
X151427656Y-67329685D01*
G37*
%TD.AperFunction*%
%TD*%
%TA.AperFunction,Conductor*%
%TO.N,BLK{slash}OBST*%
G36*
X161024106Y-102549428D02*
G01*
X161794215Y-102867438D01*
X161800552Y-102873761D01*
X161800562Y-102873785D01*
X162118567Y-103643883D01*
X162118558Y-103652838D01*
X162112219Y-103659163D01*
X162111629Y-103659388D01*
X160691251Y-104158031D01*
X160682309Y-104157539D01*
X160679102Y-104155265D01*
X160512734Y-103988897D01*
X160509307Y-103980624D01*
X160509968Y-103976748D01*
X160621461Y-103659163D01*
X161008612Y-102556368D01*
X161014584Y-102549699D01*
X161023526Y-102549207D01*
X161024106Y-102549428D01*
G37*
%TD.AperFunction*%
%TD*%
%TA.AperFunction,Conductor*%
%TO.N,BLK{slash}OBST*%
G36*
X125592450Y-106346666D02*
G01*
X126925596Y-107275082D01*
X126980774Y-107313508D01*
X126985605Y-107321048D01*
X126985788Y-107323109D01*
X126985788Y-107559773D01*
X126982361Y-107568046D01*
X126979326Y-107570235D01*
X125458285Y-108331776D01*
X125449353Y-108332416D01*
X125443454Y-108328013D01*
X124718395Y-107289726D01*
X124716469Y-107280983D01*
X124719400Y-107275084D01*
X125577178Y-106348320D01*
X125585313Y-106344577D01*
X125592450Y-106346666D01*
G37*
%TD.AperFunction*%
%TD*%
%TA.AperFunction,Conductor*%
%TO.N,+5V*%
G36*
X162580838Y-84769441D02*
G01*
X162587163Y-84775780D01*
X162587388Y-84776370D01*
X163086031Y-86196748D01*
X163085539Y-86205690D01*
X163083265Y-86208897D01*
X162916897Y-86375265D01*
X162908624Y-86378692D01*
X162904748Y-86378031D01*
X161484370Y-85879388D01*
X161477699Y-85873415D01*
X161477207Y-85864473D01*
X161477423Y-85863905D01*
X161795438Y-85093783D01*
X161801759Y-85087448D01*
X162571884Y-84769432D01*
X162580838Y-84769441D01*
G37*
%TD.AperFunction*%
%TD*%
%TA.AperFunction,Conductor*%
%TO.N,+5V*%
G36*
X125556597Y-117572056D02*
G01*
X126994488Y-118489550D01*
X126999618Y-118496889D01*
X126999894Y-118499413D01*
X126999894Y-118736030D01*
X126996467Y-118744303D01*
X126993766Y-118746318D01*
X125490095Y-119560670D01*
X125481188Y-119561597D01*
X125475152Y-119557388D01*
X124718619Y-118545515D01*
X124716410Y-118536837D01*
X124719117Y-118530884D01*
X125541432Y-117574291D01*
X125549422Y-117570252D01*
X125556597Y-117572056D01*
G37*
%TD.AperFunction*%
%TD*%
%TA.AperFunction,Conductor*%
%TO.N,+3V3*%
G36*
X162583080Y-87308515D02*
G01*
X162588531Y-87313148D01*
X163275793Y-88420027D01*
X163277246Y-88428864D01*
X163274126Y-88434472D01*
X163107808Y-88600790D01*
X163099535Y-88604217D01*
X163098423Y-88604164D01*
X161808579Y-88481010D01*
X161800669Y-88476812D01*
X161797991Y-88469373D01*
X161797962Y-88434472D01*
X161797299Y-87637125D01*
X161800719Y-87628851D01*
X161804531Y-87626303D01*
X162574127Y-87308506D01*
X162583080Y-87308515D01*
G37*
%TD.AperFunction*%
%TD*%
%TA.AperFunction,Conductor*%
%TO.N,+3V3*%
G36*
X126021224Y-112544321D02*
G01*
X127010005Y-113409504D01*
X127013974Y-113417531D01*
X127014000Y-113418309D01*
X127014000Y-113657690D01*
X127010573Y-113665963D01*
X127010005Y-113666495D01*
X126021224Y-114531678D01*
X126012741Y-114534547D01*
X126006389Y-114532149D01*
X124725068Y-113547276D01*
X124720597Y-113539518D01*
X124722922Y-113530870D01*
X124725068Y-113528724D01*
X126006389Y-112543850D01*
X126015037Y-112541525D01*
X126021224Y-112544321D01*
G37*
%TD.AperFunction*%
%TD*%
%TA.AperFunction,Conductor*%
%TO.N,Net-(D2-A)*%
G36*
X128789375Y-75639888D02*
G01*
X129539109Y-76192586D01*
X129543734Y-76200254D01*
X129541818Y-76208617D01*
X129046030Y-76932277D01*
X129038527Y-76937165D01*
X129033357Y-76936967D01*
X127991958Y-76658661D01*
X127986706Y-76655631D01*
X127821001Y-76489926D01*
X127817574Y-76481653D01*
X127821001Y-76473380D01*
X127821578Y-76472840D01*
X128142511Y-76192586D01*
X128774739Y-75640493D01*
X128783224Y-75637634D01*
X128789375Y-75639888D01*
G37*
%TD.AperFunction*%
%TD*%
%TA.AperFunction,Conductor*%
%TO.N,Net-(D2-A)*%
G36*
X143609294Y-97678728D02*
G01*
X143615280Y-97684890D01*
X143763123Y-98039498D01*
X143763144Y-98048452D01*
X143763123Y-98048502D01*
X143615280Y-98403109D01*
X143608933Y-98409427D01*
X143600344Y-98409551D01*
X142971563Y-98171858D01*
X142965036Y-98165727D01*
X142964000Y-98160914D01*
X142964000Y-97927085D01*
X142967427Y-97918812D01*
X142971563Y-97916141D01*
X143600345Y-97678448D01*
X143609294Y-97678728D01*
G37*
%TD.AperFunction*%
%TD*%
%TA.AperFunction,Conductor*%
%TO.N,+5V*%
G36*
X152922661Y-83085174D02*
G01*
X154200817Y-83691828D01*
X154206821Y-83698471D01*
X154207500Y-83702398D01*
X154207500Y-83937601D01*
X154204073Y-83945874D01*
X154200817Y-83948171D01*
X152922664Y-84554824D01*
X152913720Y-84555275D01*
X152908000Y-84550874D01*
X152492870Y-83945874D01*
X152411041Y-83826619D01*
X152409187Y-83817859D01*
X152411042Y-83813380D01*
X152487194Y-83702398D01*
X152908000Y-83089124D01*
X152915506Y-83084243D01*
X152922661Y-83085174D01*
G37*
%TD.AperFunction*%
%TD*%
%TA.AperFunction,Conductor*%
%TO.N,+5V*%
G36*
X160691251Y-83801968D02*
G01*
X161173027Y-83971102D01*
X162111629Y-84300611D01*
X162118300Y-84306584D01*
X162118792Y-84315526D01*
X162118567Y-84316116D01*
X161800562Y-85086214D01*
X161794237Y-85092553D01*
X161794214Y-85092562D01*
X161024116Y-85410567D01*
X161015161Y-85410558D01*
X161008836Y-85404219D01*
X161008611Y-85403629D01*
X160898755Y-85090707D01*
X160622818Y-84304702D01*
X160509968Y-83983251D01*
X160510460Y-83974309D01*
X160512731Y-83971105D01*
X160679103Y-83804733D01*
X160687375Y-83801307D01*
X160691251Y-83801968D01*
G37*
%TD.AperFunction*%
%TD*%
%TA.AperFunction,Conductor*%
%TO.N,STS_DOOR*%
G36*
X161477199Y-99555530D02*
G01*
X161477457Y-99556107D01*
X161797134Y-100325511D01*
X161797143Y-100334466D01*
X161797134Y-100334489D01*
X161477457Y-101103892D01*
X161471118Y-101110217D01*
X161462163Y-101110208D01*
X161461586Y-101109950D01*
X160104634Y-100458186D01*
X160098661Y-100451515D01*
X160098000Y-100447639D01*
X160098000Y-100212360D01*
X160101427Y-100204087D01*
X160104631Y-100201814D01*
X161461586Y-99550048D01*
X161470528Y-99549557D01*
X161477199Y-99555530D01*
G37*
%TD.AperFunction*%
%TD*%
%TA.AperFunction,Conductor*%
%TO.N,STS_DOOR*%
G36*
X122354696Y-72284890D02*
G01*
X122966437Y-72516141D01*
X122972964Y-72522272D01*
X122974000Y-72527085D01*
X122974000Y-72760914D01*
X122970573Y-72769187D01*
X122966437Y-72771858D01*
X122337655Y-73009551D01*
X122328705Y-73009271D01*
X122322719Y-73003109D01*
X122226306Y-72771858D01*
X122174875Y-72648499D01*
X122174855Y-72639550D01*
X122322719Y-72284889D01*
X122329066Y-72278572D01*
X122337654Y-72278448D01*
X122354696Y-72284890D01*
G37*
%TD.AperFunction*%
%TD*%
%TA.AperFunction,Conductor*%
%TO.N,+3V3*%
G36*
X130062661Y-83085174D02*
G01*
X131340817Y-83691828D01*
X131346821Y-83698471D01*
X131347500Y-83702398D01*
X131347500Y-83937601D01*
X131344073Y-83945874D01*
X131340817Y-83948171D01*
X130062664Y-84554824D01*
X130053720Y-84555275D01*
X130048000Y-84550874D01*
X129632870Y-83945874D01*
X129551041Y-83826619D01*
X129549187Y-83817859D01*
X129551042Y-83813380D01*
X129627194Y-83702398D01*
X130048000Y-83089124D01*
X130055506Y-83084243D01*
X130062661Y-83085174D01*
G37*
%TD.AperFunction*%
%TD*%
%TA.AperFunction,Conductor*%
%TO.N,+3V3*%
G36*
X161477199Y-86855530D02*
G01*
X161477457Y-86856107D01*
X161797134Y-87625511D01*
X161797143Y-87634466D01*
X161797134Y-87634489D01*
X161477457Y-88403892D01*
X161471118Y-88410217D01*
X161462163Y-88410208D01*
X161461586Y-88409950D01*
X160104634Y-87758186D01*
X160098661Y-87751515D01*
X160098000Y-87747639D01*
X160098000Y-87512360D01*
X160101427Y-87504087D01*
X160104631Y-87501814D01*
X161461586Y-86850048D01*
X161470528Y-86849557D01*
X161477199Y-86855530D01*
G37*
%TD.AperFunction*%
%TD*%
M02*
