%TF.GenerationSoftware,KiCad,Pcbnew,7.0.8*%
%TF.CreationDate,2023-11-02T18:23:29-07:00*%
%TF.ProjectId,RatGDO-OpenSource-D1Mini-ESP8266,52617447-444f-42d4-9f70-656e536f7572,2.5.0*%
%TF.SameCoordinates,Original*%
%TF.FileFunction,Legend,Top*%
%TF.FilePolarity,Positive*%
%FSLAX46Y46*%
G04 Gerber Fmt 4.6, Leading zero omitted, Abs format (unit mm)*
G04 Created by KiCad (PCBNEW 7.0.8) date 2023-11-02 18:23:29*
%MOMM*%
%LPD*%
G01*
G04 APERTURE LIST*
%ADD10C,0.150000*%
%ADD11C,0.300000*%
%ADD12C,0.120000*%
G04 APERTURE END LIST*
D10*
X117818180Y-102735142D02*
X118294371Y-102401809D01*
X117818180Y-102163714D02*
X118818180Y-102163714D01*
X118818180Y-102163714D02*
X118818180Y-102544666D01*
X118818180Y-102544666D02*
X118770561Y-102639904D01*
X118770561Y-102639904D02*
X118722942Y-102687523D01*
X118722942Y-102687523D02*
X118627704Y-102735142D01*
X118627704Y-102735142D02*
X118484847Y-102735142D01*
X118484847Y-102735142D02*
X118389609Y-102687523D01*
X118389609Y-102687523D02*
X118341990Y-102639904D01*
X118341990Y-102639904D02*
X118294371Y-102544666D01*
X118294371Y-102544666D02*
X118294371Y-102163714D01*
X118341990Y-103163714D02*
X118341990Y-103497047D01*
X117818180Y-103639904D02*
X117818180Y-103163714D01*
X117818180Y-103163714D02*
X118818180Y-103163714D01*
X118818180Y-103163714D02*
X118818180Y-103639904D01*
X117818180Y-104068476D02*
X118818180Y-104068476D01*
X118818180Y-104068476D02*
X118818180Y-104306571D01*
X118818180Y-104306571D02*
X118770561Y-104449428D01*
X118770561Y-104449428D02*
X118675323Y-104544666D01*
X118675323Y-104544666D02*
X118580085Y-104592285D01*
X118580085Y-104592285D02*
X118389609Y-104639904D01*
X118389609Y-104639904D02*
X118246752Y-104639904D01*
X118246752Y-104639904D02*
X118056276Y-104592285D01*
X118056276Y-104592285D02*
X117961038Y-104544666D01*
X117961038Y-104544666D02*
X117865800Y-104449428D01*
X117865800Y-104449428D02*
X117818180Y-104306571D01*
X117818180Y-104306571D02*
X117818180Y-104068476D01*
X116303419Y-102401809D02*
X116255800Y-102354190D01*
X116255800Y-102354190D02*
X116208180Y-102211333D01*
X116208180Y-102211333D02*
X116208180Y-102116095D01*
X116208180Y-102116095D02*
X116255800Y-101973238D01*
X116255800Y-101973238D02*
X116351038Y-101878000D01*
X116351038Y-101878000D02*
X116446276Y-101830381D01*
X116446276Y-101830381D02*
X116636752Y-101782762D01*
X116636752Y-101782762D02*
X116779609Y-101782762D01*
X116779609Y-101782762D02*
X116970085Y-101830381D01*
X116970085Y-101830381D02*
X117065323Y-101878000D01*
X117065323Y-101878000D02*
X117160561Y-101973238D01*
X117160561Y-101973238D02*
X117208180Y-102116095D01*
X117208180Y-102116095D02*
X117208180Y-102211333D01*
X117208180Y-102211333D02*
X117160561Y-102354190D01*
X117160561Y-102354190D02*
X117112942Y-102401809D01*
X117208180Y-102687524D02*
X117208180Y-103258952D01*
X116208180Y-102973238D02*
X117208180Y-102973238D01*
X116208180Y-104163714D02*
X116684371Y-103830381D01*
X116208180Y-103592286D02*
X117208180Y-103592286D01*
X117208180Y-103592286D02*
X117208180Y-103973238D01*
X117208180Y-103973238D02*
X117160561Y-104068476D01*
X117160561Y-104068476D02*
X117112942Y-104116095D01*
X117112942Y-104116095D02*
X117017704Y-104163714D01*
X117017704Y-104163714D02*
X116874847Y-104163714D01*
X116874847Y-104163714D02*
X116779609Y-104116095D01*
X116779609Y-104116095D02*
X116731990Y-104068476D01*
X116731990Y-104068476D02*
X116684371Y-103973238D01*
X116684371Y-103973238D02*
X116684371Y-103592286D01*
X116208180Y-105068476D02*
X116208180Y-104592286D01*
X116208180Y-104592286D02*
X117208180Y-104592286D01*
X143125819Y-104755792D02*
X142649628Y-105089125D01*
X143125819Y-105327220D02*
X142125819Y-105327220D01*
X142125819Y-105327220D02*
X142125819Y-104946268D01*
X142125819Y-104946268D02*
X142173438Y-104851030D01*
X142173438Y-104851030D02*
X142221057Y-104803411D01*
X142221057Y-104803411D02*
X142316295Y-104755792D01*
X142316295Y-104755792D02*
X142459152Y-104755792D01*
X142459152Y-104755792D02*
X142554390Y-104803411D01*
X142554390Y-104803411D02*
X142602009Y-104851030D01*
X142602009Y-104851030D02*
X142649628Y-104946268D01*
X142649628Y-104946268D02*
X142649628Y-105327220D01*
X142602009Y-104327220D02*
X142602009Y-103993887D01*
X143125819Y-103851030D02*
X143125819Y-104327220D01*
X143125819Y-104327220D02*
X142125819Y-104327220D01*
X142125819Y-104327220D02*
X142125819Y-103851030D01*
X143125819Y-103422458D02*
X142125819Y-103422458D01*
X142125819Y-103422458D02*
X142125819Y-103184363D01*
X142125819Y-103184363D02*
X142173438Y-103041506D01*
X142173438Y-103041506D02*
X142268676Y-102946268D01*
X142268676Y-102946268D02*
X142363914Y-102898649D01*
X142363914Y-102898649D02*
X142554390Y-102851030D01*
X142554390Y-102851030D02*
X142697247Y-102851030D01*
X142697247Y-102851030D02*
X142887723Y-102898649D01*
X142887723Y-102898649D02*
X142982961Y-102946268D01*
X142982961Y-102946268D02*
X143078200Y-103041506D01*
X143078200Y-103041506D02*
X143125819Y-103184363D01*
X143125819Y-103184363D02*
X143125819Y-103422458D01*
X142078200Y-101708173D02*
X143363914Y-102565315D01*
X143030580Y-100803411D02*
X143078200Y-100851030D01*
X143078200Y-100851030D02*
X143125819Y-100993887D01*
X143125819Y-100993887D02*
X143125819Y-101089125D01*
X143125819Y-101089125D02*
X143078200Y-101231982D01*
X143078200Y-101231982D02*
X142982961Y-101327220D01*
X142982961Y-101327220D02*
X142887723Y-101374839D01*
X142887723Y-101374839D02*
X142697247Y-101422458D01*
X142697247Y-101422458D02*
X142554390Y-101422458D01*
X142554390Y-101422458D02*
X142363914Y-101374839D01*
X142363914Y-101374839D02*
X142268676Y-101327220D01*
X142268676Y-101327220D02*
X142173438Y-101231982D01*
X142173438Y-101231982D02*
X142125819Y-101089125D01*
X142125819Y-101089125D02*
X142125819Y-100993887D01*
X142125819Y-100993887D02*
X142173438Y-100851030D01*
X142173438Y-100851030D02*
X142221057Y-100803411D01*
X142125819Y-100517696D02*
X142125819Y-99946268D01*
X143125819Y-100231982D02*
X142125819Y-100231982D01*
X143125819Y-99041506D02*
X142649628Y-99374839D01*
X143125819Y-99612934D02*
X142125819Y-99612934D01*
X142125819Y-99612934D02*
X142125819Y-99231982D01*
X142125819Y-99231982D02*
X142173438Y-99136744D01*
X142173438Y-99136744D02*
X142221057Y-99089125D01*
X142221057Y-99089125D02*
X142316295Y-99041506D01*
X142316295Y-99041506D02*
X142459152Y-99041506D01*
X142459152Y-99041506D02*
X142554390Y-99089125D01*
X142554390Y-99089125D02*
X142602009Y-99136744D01*
X142602009Y-99136744D02*
X142649628Y-99231982D01*
X142649628Y-99231982D02*
X142649628Y-99612934D01*
X143125819Y-98136744D02*
X143125819Y-98612934D01*
X143125819Y-98612934D02*
X142125819Y-98612934D01*
D11*
X142381653Y-114350828D02*
X141881653Y-113636542D01*
X141524510Y-114350828D02*
X141524510Y-112850828D01*
X141524510Y-112850828D02*
X142095939Y-112850828D01*
X142095939Y-112850828D02*
X142238796Y-112922257D01*
X142238796Y-112922257D02*
X142310225Y-112993685D01*
X142310225Y-112993685D02*
X142381653Y-113136542D01*
X142381653Y-113136542D02*
X142381653Y-113350828D01*
X142381653Y-113350828D02*
X142310225Y-113493685D01*
X142310225Y-113493685D02*
X142238796Y-113565114D01*
X142238796Y-113565114D02*
X142095939Y-113636542D01*
X142095939Y-113636542D02*
X141524510Y-113636542D01*
X142953082Y-113922257D02*
X143667368Y-113922257D01*
X142810225Y-114350828D02*
X143310225Y-112850828D01*
X143310225Y-112850828D02*
X143810225Y-114350828D01*
X144095939Y-112850828D02*
X144953082Y-112850828D01*
X144524510Y-114350828D02*
X144524510Y-112850828D01*
X145453081Y-113779400D02*
X146595939Y-113779400D01*
X148167367Y-114350828D02*
X147667367Y-113636542D01*
X147310224Y-114350828D02*
X147310224Y-112850828D01*
X147310224Y-112850828D02*
X147881653Y-112850828D01*
X147881653Y-112850828D02*
X148024510Y-112922257D01*
X148024510Y-112922257D02*
X148095939Y-112993685D01*
X148095939Y-112993685D02*
X148167367Y-113136542D01*
X148167367Y-113136542D02*
X148167367Y-113350828D01*
X148167367Y-113350828D02*
X148095939Y-113493685D01*
X148095939Y-113493685D02*
X148024510Y-113565114D01*
X148024510Y-113565114D02*
X147881653Y-113636542D01*
X147881653Y-113636542D02*
X147310224Y-113636542D01*
X148738796Y-113922257D02*
X149453082Y-113922257D01*
X148595939Y-114350828D02*
X149095939Y-112850828D01*
X149095939Y-112850828D02*
X149595939Y-114350828D01*
X149881653Y-112850828D02*
X150738796Y-112850828D01*
X150310224Y-114350828D02*
X150310224Y-112850828D01*
X152024510Y-112922257D02*
X151881653Y-112850828D01*
X151881653Y-112850828D02*
X151667367Y-112850828D01*
X151667367Y-112850828D02*
X151453081Y-112922257D01*
X151453081Y-112922257D02*
X151310224Y-113065114D01*
X151310224Y-113065114D02*
X151238795Y-113207971D01*
X151238795Y-113207971D02*
X151167367Y-113493685D01*
X151167367Y-113493685D02*
X151167367Y-113707971D01*
X151167367Y-113707971D02*
X151238795Y-113993685D01*
X151238795Y-113993685D02*
X151310224Y-114136542D01*
X151310224Y-114136542D02*
X151453081Y-114279400D01*
X151453081Y-114279400D02*
X151667367Y-114350828D01*
X151667367Y-114350828D02*
X151810224Y-114350828D01*
X151810224Y-114350828D02*
X152024510Y-114279400D01*
X152024510Y-114279400D02*
X152095938Y-114207971D01*
X152095938Y-114207971D02*
X152095938Y-113707971D01*
X152095938Y-113707971D02*
X151810224Y-113707971D01*
X152738795Y-114350828D02*
X152738795Y-112850828D01*
X152738795Y-112850828D02*
X153095938Y-112850828D01*
X153095938Y-112850828D02*
X153310224Y-112922257D01*
X153310224Y-112922257D02*
X153453081Y-113065114D01*
X153453081Y-113065114D02*
X153524510Y-113207971D01*
X153524510Y-113207971D02*
X153595938Y-113493685D01*
X153595938Y-113493685D02*
X153595938Y-113707971D01*
X153595938Y-113707971D02*
X153524510Y-113993685D01*
X153524510Y-113993685D02*
X153453081Y-114136542D01*
X153453081Y-114136542D02*
X153310224Y-114279400D01*
X153310224Y-114279400D02*
X153095938Y-114350828D01*
X153095938Y-114350828D02*
X152738795Y-114350828D01*
X154524510Y-112850828D02*
X154810224Y-112850828D01*
X154810224Y-112850828D02*
X154953081Y-112922257D01*
X154953081Y-112922257D02*
X155095938Y-113065114D01*
X155095938Y-113065114D02*
X155167367Y-113350828D01*
X155167367Y-113350828D02*
X155167367Y-113850828D01*
X155167367Y-113850828D02*
X155095938Y-114136542D01*
X155095938Y-114136542D02*
X154953081Y-114279400D01*
X154953081Y-114279400D02*
X154810224Y-114350828D01*
X154810224Y-114350828D02*
X154524510Y-114350828D01*
X154524510Y-114350828D02*
X154381653Y-114279400D01*
X154381653Y-114279400D02*
X154238795Y-114136542D01*
X154238795Y-114136542D02*
X154167367Y-113850828D01*
X154167367Y-113850828D02*
X154167367Y-113350828D01*
X154167367Y-113350828D02*
X154238795Y-113065114D01*
X154238795Y-113065114D02*
X154381653Y-112922257D01*
X154381653Y-112922257D02*
X154524510Y-112850828D01*
X141310225Y-115265828D02*
X142167368Y-115265828D01*
X141738796Y-116765828D02*
X141738796Y-115265828D01*
X142667367Y-115265828D02*
X142667367Y-116480114D01*
X142667367Y-116480114D02*
X142738796Y-116622971D01*
X142738796Y-116622971D02*
X142810225Y-116694400D01*
X142810225Y-116694400D02*
X142953082Y-116765828D01*
X142953082Y-116765828D02*
X143238796Y-116765828D01*
X143238796Y-116765828D02*
X143381653Y-116694400D01*
X143381653Y-116694400D02*
X143453082Y-116622971D01*
X143453082Y-116622971D02*
X143524510Y-116480114D01*
X143524510Y-116480114D02*
X143524510Y-115265828D01*
X144738796Y-115980114D02*
X144953082Y-116051542D01*
X144953082Y-116051542D02*
X145024511Y-116122971D01*
X145024511Y-116122971D02*
X145095939Y-116265828D01*
X145095939Y-116265828D02*
X145095939Y-116480114D01*
X145095939Y-116480114D02*
X145024511Y-116622971D01*
X145024511Y-116622971D02*
X144953082Y-116694400D01*
X144953082Y-116694400D02*
X144810225Y-116765828D01*
X144810225Y-116765828D02*
X144238796Y-116765828D01*
X144238796Y-116765828D02*
X144238796Y-115265828D01*
X144238796Y-115265828D02*
X144738796Y-115265828D01*
X144738796Y-115265828D02*
X144881654Y-115337257D01*
X144881654Y-115337257D02*
X144953082Y-115408685D01*
X144953082Y-115408685D02*
X145024511Y-115551542D01*
X145024511Y-115551542D02*
X145024511Y-115694400D01*
X145024511Y-115694400D02*
X144953082Y-115837257D01*
X144953082Y-115837257D02*
X144881654Y-115908685D01*
X144881654Y-115908685D02*
X144738796Y-115980114D01*
X144738796Y-115980114D02*
X144238796Y-115980114D01*
X145738796Y-115980114D02*
X146238796Y-115980114D01*
X146453082Y-116765828D02*
X145738796Y-116765828D01*
X145738796Y-116765828D02*
X145738796Y-115265828D01*
X145738796Y-115265828D02*
X146453082Y-115265828D01*
X146953082Y-115265828D02*
X147953082Y-115265828D01*
X147953082Y-115265828D02*
X146953082Y-116765828D01*
X146953082Y-116765828D02*
X147953082Y-116765828D01*
X149595939Y-115408685D02*
X149667367Y-115337257D01*
X149667367Y-115337257D02*
X149810225Y-115265828D01*
X149810225Y-115265828D02*
X150167367Y-115265828D01*
X150167367Y-115265828D02*
X150310225Y-115337257D01*
X150310225Y-115337257D02*
X150381653Y-115408685D01*
X150381653Y-115408685D02*
X150453082Y-115551542D01*
X150453082Y-115551542D02*
X150453082Y-115694400D01*
X150453082Y-115694400D02*
X150381653Y-115908685D01*
X150381653Y-115908685D02*
X149524510Y-116765828D01*
X149524510Y-116765828D02*
X150453082Y-116765828D01*
X151095938Y-116622971D02*
X151167367Y-116694400D01*
X151167367Y-116694400D02*
X151095938Y-116765828D01*
X151095938Y-116765828D02*
X151024510Y-116694400D01*
X151024510Y-116694400D02*
X151095938Y-116622971D01*
X151095938Y-116622971D02*
X151095938Y-116765828D01*
X152524510Y-115265828D02*
X151810224Y-115265828D01*
X151810224Y-115265828D02*
X151738796Y-115980114D01*
X151738796Y-115980114D02*
X151810224Y-115908685D01*
X151810224Y-115908685D02*
X151953082Y-115837257D01*
X151953082Y-115837257D02*
X152310224Y-115837257D01*
X152310224Y-115837257D02*
X152453082Y-115908685D01*
X152453082Y-115908685D02*
X152524510Y-115980114D01*
X152524510Y-115980114D02*
X152595939Y-116122971D01*
X152595939Y-116122971D02*
X152595939Y-116480114D01*
X152595939Y-116480114D02*
X152524510Y-116622971D01*
X152524510Y-116622971D02*
X152453082Y-116694400D01*
X152453082Y-116694400D02*
X152310224Y-116765828D01*
X152310224Y-116765828D02*
X151953082Y-116765828D01*
X151953082Y-116765828D02*
X151810224Y-116694400D01*
X151810224Y-116694400D02*
X151738796Y-116622971D01*
X153238795Y-116622971D02*
X153310224Y-116694400D01*
X153310224Y-116694400D02*
X153238795Y-116765828D01*
X153238795Y-116765828D02*
X153167367Y-116694400D01*
X153167367Y-116694400D02*
X153238795Y-116622971D01*
X153238795Y-116622971D02*
X153238795Y-116765828D01*
X154238796Y-115265828D02*
X154381653Y-115265828D01*
X154381653Y-115265828D02*
X154524510Y-115337257D01*
X154524510Y-115337257D02*
X154595939Y-115408685D01*
X154595939Y-115408685D02*
X154667367Y-115551542D01*
X154667367Y-115551542D02*
X154738796Y-115837257D01*
X154738796Y-115837257D02*
X154738796Y-116194400D01*
X154738796Y-116194400D02*
X154667367Y-116480114D01*
X154667367Y-116480114D02*
X154595939Y-116622971D01*
X154595939Y-116622971D02*
X154524510Y-116694400D01*
X154524510Y-116694400D02*
X154381653Y-116765828D01*
X154381653Y-116765828D02*
X154238796Y-116765828D01*
X154238796Y-116765828D02*
X154095939Y-116694400D01*
X154095939Y-116694400D02*
X154024510Y-116622971D01*
X154024510Y-116622971D02*
X153953081Y-116480114D01*
X153953081Y-116480114D02*
X153881653Y-116194400D01*
X153881653Y-116194400D02*
X153881653Y-115837257D01*
X153881653Y-115837257D02*
X153953081Y-115551542D01*
X153953081Y-115551542D02*
X154024510Y-115408685D01*
X154024510Y-115408685D02*
X154095939Y-115337257D01*
X154095939Y-115337257D02*
X154238796Y-115265828D01*
X141310225Y-117680828D02*
X142167368Y-117680828D01*
X141738796Y-119180828D02*
X141738796Y-117680828D01*
X144310224Y-118395114D02*
X143810224Y-118395114D01*
X143810224Y-119180828D02*
X143810224Y-117680828D01*
X143810224Y-117680828D02*
X144524510Y-117680828D01*
X145381653Y-117680828D02*
X145667367Y-117680828D01*
X145667367Y-117680828D02*
X145810224Y-117752257D01*
X145810224Y-117752257D02*
X145953081Y-117895114D01*
X145953081Y-117895114D02*
X146024510Y-118180828D01*
X146024510Y-118180828D02*
X146024510Y-118680828D01*
X146024510Y-118680828D02*
X145953081Y-118966542D01*
X145953081Y-118966542D02*
X145810224Y-119109400D01*
X145810224Y-119109400D02*
X145667367Y-119180828D01*
X145667367Y-119180828D02*
X145381653Y-119180828D01*
X145381653Y-119180828D02*
X145238796Y-119109400D01*
X145238796Y-119109400D02*
X145095938Y-118966542D01*
X145095938Y-118966542D02*
X145024510Y-118680828D01*
X145024510Y-118680828D02*
X145024510Y-118180828D01*
X145024510Y-118180828D02*
X145095938Y-117895114D01*
X145095938Y-117895114D02*
X145238796Y-117752257D01*
X145238796Y-117752257D02*
X145381653Y-117680828D01*
X146524510Y-117680828D02*
X147524510Y-119180828D01*
X147524510Y-117680828D02*
X146524510Y-119180828D01*
X149167367Y-117823685D02*
X149238795Y-117752257D01*
X149238795Y-117752257D02*
X149381653Y-117680828D01*
X149381653Y-117680828D02*
X149738795Y-117680828D01*
X149738795Y-117680828D02*
X149881653Y-117752257D01*
X149881653Y-117752257D02*
X149953081Y-117823685D01*
X149953081Y-117823685D02*
X150024510Y-117966542D01*
X150024510Y-117966542D02*
X150024510Y-118109400D01*
X150024510Y-118109400D02*
X149953081Y-118323685D01*
X149953081Y-118323685D02*
X149095938Y-119180828D01*
X149095938Y-119180828D02*
X150024510Y-119180828D01*
X150953081Y-117680828D02*
X151095938Y-117680828D01*
X151095938Y-117680828D02*
X151238795Y-117752257D01*
X151238795Y-117752257D02*
X151310224Y-117823685D01*
X151310224Y-117823685D02*
X151381652Y-117966542D01*
X151381652Y-117966542D02*
X151453081Y-118252257D01*
X151453081Y-118252257D02*
X151453081Y-118609400D01*
X151453081Y-118609400D02*
X151381652Y-118895114D01*
X151381652Y-118895114D02*
X151310224Y-119037971D01*
X151310224Y-119037971D02*
X151238795Y-119109400D01*
X151238795Y-119109400D02*
X151095938Y-119180828D01*
X151095938Y-119180828D02*
X150953081Y-119180828D01*
X150953081Y-119180828D02*
X150810224Y-119109400D01*
X150810224Y-119109400D02*
X150738795Y-119037971D01*
X150738795Y-119037971D02*
X150667366Y-118895114D01*
X150667366Y-118895114D02*
X150595938Y-118609400D01*
X150595938Y-118609400D02*
X150595938Y-118252257D01*
X150595938Y-118252257D02*
X150667366Y-117966542D01*
X150667366Y-117966542D02*
X150738795Y-117823685D01*
X150738795Y-117823685D02*
X150810224Y-117752257D01*
X150810224Y-117752257D02*
X150953081Y-117680828D01*
X152024509Y-117823685D02*
X152095937Y-117752257D01*
X152095937Y-117752257D02*
X152238795Y-117680828D01*
X152238795Y-117680828D02*
X152595937Y-117680828D01*
X152595937Y-117680828D02*
X152738795Y-117752257D01*
X152738795Y-117752257D02*
X152810223Y-117823685D01*
X152810223Y-117823685D02*
X152881652Y-117966542D01*
X152881652Y-117966542D02*
X152881652Y-118109400D01*
X152881652Y-118109400D02*
X152810223Y-118323685D01*
X152810223Y-118323685D02*
X151953080Y-119180828D01*
X151953080Y-119180828D02*
X152881652Y-119180828D01*
X153381651Y-117680828D02*
X154310223Y-117680828D01*
X154310223Y-117680828D02*
X153810223Y-118252257D01*
X153810223Y-118252257D02*
X154024508Y-118252257D01*
X154024508Y-118252257D02*
X154167366Y-118323685D01*
X154167366Y-118323685D02*
X154238794Y-118395114D01*
X154238794Y-118395114D02*
X154310223Y-118537971D01*
X154310223Y-118537971D02*
X154310223Y-118895114D01*
X154310223Y-118895114D02*
X154238794Y-119037971D01*
X154238794Y-119037971D02*
X154167366Y-119109400D01*
X154167366Y-119109400D02*
X154024508Y-119180828D01*
X154024508Y-119180828D02*
X153595937Y-119180828D01*
X153595937Y-119180828D02*
X153453080Y-119109400D01*
X153453080Y-119109400D02*
X153381651Y-119037971D01*
D10*
X162445819Y-104851030D02*
X162445819Y-105327220D01*
X162445819Y-105327220D02*
X162922009Y-105374839D01*
X162922009Y-105374839D02*
X162874390Y-105327220D01*
X162874390Y-105327220D02*
X162826771Y-105231982D01*
X162826771Y-105231982D02*
X162826771Y-104993887D01*
X162826771Y-104993887D02*
X162874390Y-104898649D01*
X162874390Y-104898649D02*
X162922009Y-104851030D01*
X162922009Y-104851030D02*
X163017247Y-104803411D01*
X163017247Y-104803411D02*
X163255342Y-104803411D01*
X163255342Y-104803411D02*
X163350580Y-104851030D01*
X163350580Y-104851030D02*
X163398200Y-104898649D01*
X163398200Y-104898649D02*
X163445819Y-104993887D01*
X163445819Y-104993887D02*
X163445819Y-105231982D01*
X163445819Y-105231982D02*
X163398200Y-105327220D01*
X163398200Y-105327220D02*
X163350580Y-105374839D01*
X162445819Y-104517696D02*
X163445819Y-104184363D01*
X163445819Y-104184363D02*
X162445819Y-103851030D01*
X118818180Y-96964667D02*
X117818180Y-97202762D01*
X117818180Y-97202762D02*
X118532466Y-97393238D01*
X118532466Y-97393238D02*
X117818180Y-97583714D01*
X117818180Y-97583714D02*
X118818180Y-97821810D01*
X117818180Y-98202762D02*
X118818180Y-98202762D01*
X118341990Y-98202762D02*
X118341990Y-98774190D01*
X117818180Y-98774190D02*
X118818180Y-98774190D01*
X118818180Y-99107524D02*
X118818180Y-99678952D01*
X117818180Y-99393238D02*
X118818180Y-99393238D01*
X117160561Y-97536095D02*
X117208180Y-97440857D01*
X117208180Y-97440857D02*
X117208180Y-97298000D01*
X117208180Y-97298000D02*
X117160561Y-97155143D01*
X117160561Y-97155143D02*
X117065323Y-97059905D01*
X117065323Y-97059905D02*
X116970085Y-97012286D01*
X116970085Y-97012286D02*
X116779609Y-96964667D01*
X116779609Y-96964667D02*
X116636752Y-96964667D01*
X116636752Y-96964667D02*
X116446276Y-97012286D01*
X116446276Y-97012286D02*
X116351038Y-97059905D01*
X116351038Y-97059905D02*
X116255800Y-97155143D01*
X116255800Y-97155143D02*
X116208180Y-97298000D01*
X116208180Y-97298000D02*
X116208180Y-97393238D01*
X116208180Y-97393238D02*
X116255800Y-97536095D01*
X116255800Y-97536095D02*
X116303419Y-97583714D01*
X116303419Y-97583714D02*
X116636752Y-97583714D01*
X116636752Y-97583714D02*
X116636752Y-97393238D01*
X116208180Y-98012286D02*
X117208180Y-98012286D01*
X117208180Y-98012286D02*
X116208180Y-98583714D01*
X116208180Y-98583714D02*
X117208180Y-98583714D01*
X116208180Y-99059905D02*
X117208180Y-99059905D01*
X117208180Y-99059905D02*
X117208180Y-99298000D01*
X117208180Y-99298000D02*
X117160561Y-99440857D01*
X117160561Y-99440857D02*
X117065323Y-99536095D01*
X117065323Y-99536095D02*
X116970085Y-99583714D01*
X116970085Y-99583714D02*
X116779609Y-99631333D01*
X116779609Y-99631333D02*
X116636752Y-99631333D01*
X116636752Y-99631333D02*
X116446276Y-99583714D01*
X116446276Y-99583714D02*
X116351038Y-99536095D01*
X116351038Y-99536095D02*
X116255800Y-99440857D01*
X116255800Y-99440857D02*
X116208180Y-99298000D01*
X116208180Y-99298000D02*
X116208180Y-99059905D01*
X158365819Y-104851030D02*
X158365819Y-105327220D01*
X158365819Y-105327220D02*
X157365819Y-105327220D01*
X158365819Y-104517696D02*
X157365819Y-104517696D01*
X157413438Y-103517697D02*
X157365819Y-103612935D01*
X157365819Y-103612935D02*
X157365819Y-103755792D01*
X157365819Y-103755792D02*
X157413438Y-103898649D01*
X157413438Y-103898649D02*
X157508676Y-103993887D01*
X157508676Y-103993887D02*
X157603914Y-104041506D01*
X157603914Y-104041506D02*
X157794390Y-104089125D01*
X157794390Y-104089125D02*
X157937247Y-104089125D01*
X157937247Y-104089125D02*
X158127723Y-104041506D01*
X158127723Y-104041506D02*
X158222961Y-103993887D01*
X158222961Y-103993887D02*
X158318200Y-103898649D01*
X158318200Y-103898649D02*
X158365819Y-103755792D01*
X158365819Y-103755792D02*
X158365819Y-103660554D01*
X158365819Y-103660554D02*
X158318200Y-103517697D01*
X158318200Y-103517697D02*
X158270580Y-103470078D01*
X158270580Y-103470078D02*
X157937247Y-103470078D01*
X157937247Y-103470078D02*
X157937247Y-103660554D01*
X158365819Y-103041506D02*
X157365819Y-103041506D01*
X157842009Y-103041506D02*
X157842009Y-102470078D01*
X158365819Y-102470078D02*
X157365819Y-102470078D01*
X157365819Y-102136744D02*
X157365819Y-101565316D01*
X158365819Y-101851030D02*
X157365819Y-101851030D01*
X148459819Y-105327220D02*
X147459819Y-105327220D01*
X147459819Y-105327220D02*
X147459819Y-105089125D01*
X147459819Y-105089125D02*
X147507438Y-104946268D01*
X147507438Y-104946268D02*
X147602676Y-104851030D01*
X147602676Y-104851030D02*
X147697914Y-104803411D01*
X147697914Y-104803411D02*
X147888390Y-104755792D01*
X147888390Y-104755792D02*
X148031247Y-104755792D01*
X148031247Y-104755792D02*
X148221723Y-104803411D01*
X148221723Y-104803411D02*
X148316961Y-104851030D01*
X148316961Y-104851030D02*
X148412200Y-104946268D01*
X148412200Y-104946268D02*
X148459819Y-105089125D01*
X148459819Y-105089125D02*
X148459819Y-105327220D01*
X147459819Y-104136744D02*
X147459819Y-103946268D01*
X147459819Y-103946268D02*
X147507438Y-103851030D01*
X147507438Y-103851030D02*
X147602676Y-103755792D01*
X147602676Y-103755792D02*
X147793152Y-103708173D01*
X147793152Y-103708173D02*
X148126485Y-103708173D01*
X148126485Y-103708173D02*
X148316961Y-103755792D01*
X148316961Y-103755792D02*
X148412200Y-103851030D01*
X148412200Y-103851030D02*
X148459819Y-103946268D01*
X148459819Y-103946268D02*
X148459819Y-104136744D01*
X148459819Y-104136744D02*
X148412200Y-104231982D01*
X148412200Y-104231982D02*
X148316961Y-104327220D01*
X148316961Y-104327220D02*
X148126485Y-104374839D01*
X148126485Y-104374839D02*
X147793152Y-104374839D01*
X147793152Y-104374839D02*
X147602676Y-104327220D01*
X147602676Y-104327220D02*
X147507438Y-104231982D01*
X147507438Y-104231982D02*
X147459819Y-104136744D01*
X147459819Y-103089125D02*
X147459819Y-102898649D01*
X147459819Y-102898649D02*
X147507438Y-102803411D01*
X147507438Y-102803411D02*
X147602676Y-102708173D01*
X147602676Y-102708173D02*
X147793152Y-102660554D01*
X147793152Y-102660554D02*
X148126485Y-102660554D01*
X148126485Y-102660554D02*
X148316961Y-102708173D01*
X148316961Y-102708173D02*
X148412200Y-102803411D01*
X148412200Y-102803411D02*
X148459819Y-102898649D01*
X148459819Y-102898649D02*
X148459819Y-103089125D01*
X148459819Y-103089125D02*
X148412200Y-103184363D01*
X148412200Y-103184363D02*
X148316961Y-103279601D01*
X148316961Y-103279601D02*
X148126485Y-103327220D01*
X148126485Y-103327220D02*
X147793152Y-103327220D01*
X147793152Y-103327220D02*
X147602676Y-103279601D01*
X147602676Y-103279601D02*
X147507438Y-103184363D01*
X147507438Y-103184363D02*
X147459819Y-103089125D01*
X148459819Y-101660554D02*
X147983628Y-101993887D01*
X148459819Y-102231982D02*
X147459819Y-102231982D01*
X147459819Y-102231982D02*
X147459819Y-101851030D01*
X147459819Y-101851030D02*
X147507438Y-101755792D01*
X147507438Y-101755792D02*
X147555057Y-101708173D01*
X147555057Y-101708173D02*
X147650295Y-101660554D01*
X147650295Y-101660554D02*
X147793152Y-101660554D01*
X147793152Y-101660554D02*
X147888390Y-101708173D01*
X147888390Y-101708173D02*
X147936009Y-101755792D01*
X147936009Y-101755792D02*
X147983628Y-101851030D01*
X147983628Y-101851030D02*
X147983628Y-102231982D01*
X139585819Y-105422458D02*
X140585819Y-105184363D01*
X140585819Y-105184363D02*
X139871533Y-104993887D01*
X139871533Y-104993887D02*
X140585819Y-104803411D01*
X140585819Y-104803411D02*
X139585819Y-104565316D01*
X140585819Y-104184363D02*
X139585819Y-104184363D01*
X140062009Y-104184363D02*
X140062009Y-103612935D01*
X140585819Y-103612935D02*
X139585819Y-103612935D01*
X139585819Y-103279601D02*
X139585819Y-102708173D01*
X140585819Y-102993887D02*
X139585819Y-102993887D01*
X139538200Y-101660554D02*
X140823914Y-102517696D01*
X139633438Y-100803411D02*
X139585819Y-100898649D01*
X139585819Y-100898649D02*
X139585819Y-101041506D01*
X139585819Y-101041506D02*
X139633438Y-101184363D01*
X139633438Y-101184363D02*
X139728676Y-101279601D01*
X139728676Y-101279601D02*
X139823914Y-101327220D01*
X139823914Y-101327220D02*
X140014390Y-101374839D01*
X140014390Y-101374839D02*
X140157247Y-101374839D01*
X140157247Y-101374839D02*
X140347723Y-101327220D01*
X140347723Y-101327220D02*
X140442961Y-101279601D01*
X140442961Y-101279601D02*
X140538200Y-101184363D01*
X140538200Y-101184363D02*
X140585819Y-101041506D01*
X140585819Y-101041506D02*
X140585819Y-100946268D01*
X140585819Y-100946268D02*
X140538200Y-100803411D01*
X140538200Y-100803411D02*
X140490580Y-100755792D01*
X140490580Y-100755792D02*
X140157247Y-100755792D01*
X140157247Y-100755792D02*
X140157247Y-100946268D01*
X140585819Y-100327220D02*
X139585819Y-100327220D01*
X139585819Y-100327220D02*
X140585819Y-99755792D01*
X140585819Y-99755792D02*
X139585819Y-99755792D01*
X140585819Y-99279601D02*
X139585819Y-99279601D01*
X139585819Y-99279601D02*
X139585819Y-99041506D01*
X139585819Y-99041506D02*
X139633438Y-98898649D01*
X139633438Y-98898649D02*
X139728676Y-98803411D01*
X139728676Y-98803411D02*
X139823914Y-98755792D01*
X139823914Y-98755792D02*
X140014390Y-98708173D01*
X140014390Y-98708173D02*
X140157247Y-98708173D01*
X140157247Y-98708173D02*
X140347723Y-98755792D01*
X140347723Y-98755792D02*
X140442961Y-98803411D01*
X140442961Y-98803411D02*
X140538200Y-98898649D01*
X140538200Y-98898649D02*
X140585819Y-99041506D01*
X140585819Y-99041506D02*
X140585819Y-99279601D01*
X159905819Y-105422458D02*
X159905819Y-104803411D01*
X159905819Y-104803411D02*
X160286771Y-105136744D01*
X160286771Y-105136744D02*
X160286771Y-104993887D01*
X160286771Y-104993887D02*
X160334390Y-104898649D01*
X160334390Y-104898649D02*
X160382009Y-104851030D01*
X160382009Y-104851030D02*
X160477247Y-104803411D01*
X160477247Y-104803411D02*
X160715342Y-104803411D01*
X160715342Y-104803411D02*
X160810580Y-104851030D01*
X160810580Y-104851030D02*
X160858200Y-104898649D01*
X160858200Y-104898649D02*
X160905819Y-104993887D01*
X160905819Y-104993887D02*
X160905819Y-105279601D01*
X160905819Y-105279601D02*
X160858200Y-105374839D01*
X160858200Y-105374839D02*
X160810580Y-105422458D01*
X159905819Y-104517696D02*
X160905819Y-104184363D01*
X160905819Y-104184363D02*
X159905819Y-103851030D01*
X159905819Y-103612934D02*
X159905819Y-102993887D01*
X159905819Y-102993887D02*
X160286771Y-103327220D01*
X160286771Y-103327220D02*
X160286771Y-103184363D01*
X160286771Y-103184363D02*
X160334390Y-103089125D01*
X160334390Y-103089125D02*
X160382009Y-103041506D01*
X160382009Y-103041506D02*
X160477247Y-102993887D01*
X160477247Y-102993887D02*
X160715342Y-102993887D01*
X160715342Y-102993887D02*
X160810580Y-103041506D01*
X160810580Y-103041506D02*
X160858200Y-103089125D01*
X160858200Y-103089125D02*
X160905819Y-103184363D01*
X160905819Y-103184363D02*
X160905819Y-103470077D01*
X160905819Y-103470077D02*
X160858200Y-103565315D01*
X160858200Y-103565315D02*
X160810580Y-103612934D01*
X152285819Y-105136744D02*
X152285819Y-104946268D01*
X152285819Y-104946268D02*
X152333438Y-104851030D01*
X152333438Y-104851030D02*
X152428676Y-104755792D01*
X152428676Y-104755792D02*
X152619152Y-104708173D01*
X152619152Y-104708173D02*
X152952485Y-104708173D01*
X152952485Y-104708173D02*
X153142961Y-104755792D01*
X153142961Y-104755792D02*
X153238200Y-104851030D01*
X153238200Y-104851030D02*
X153285819Y-104946268D01*
X153285819Y-104946268D02*
X153285819Y-105136744D01*
X153285819Y-105136744D02*
X153238200Y-105231982D01*
X153238200Y-105231982D02*
X153142961Y-105327220D01*
X153142961Y-105327220D02*
X152952485Y-105374839D01*
X152952485Y-105374839D02*
X152619152Y-105374839D01*
X152619152Y-105374839D02*
X152428676Y-105327220D01*
X152428676Y-105327220D02*
X152333438Y-105231982D01*
X152333438Y-105231982D02*
X152285819Y-105136744D01*
X153285819Y-104279601D02*
X152285819Y-104279601D01*
X152285819Y-104279601D02*
X152285819Y-103898649D01*
X152285819Y-103898649D02*
X152333438Y-103803411D01*
X152333438Y-103803411D02*
X152381057Y-103755792D01*
X152381057Y-103755792D02*
X152476295Y-103708173D01*
X152476295Y-103708173D02*
X152619152Y-103708173D01*
X152619152Y-103708173D02*
X152714390Y-103755792D01*
X152714390Y-103755792D02*
X152762009Y-103803411D01*
X152762009Y-103803411D02*
X152809628Y-103898649D01*
X152809628Y-103898649D02*
X152809628Y-104279601D01*
X152762009Y-103279601D02*
X152762009Y-102946268D01*
X153285819Y-102803411D02*
X153285819Y-103279601D01*
X153285819Y-103279601D02*
X152285819Y-103279601D01*
X152285819Y-103279601D02*
X152285819Y-102803411D01*
X153285819Y-102374839D02*
X152285819Y-102374839D01*
X152285819Y-102374839D02*
X153285819Y-101803411D01*
X153285819Y-101803411D02*
X152285819Y-101803411D01*
X145396009Y-104993887D02*
X145443628Y-104851030D01*
X145443628Y-104851030D02*
X145491247Y-104803411D01*
X145491247Y-104803411D02*
X145586485Y-104755792D01*
X145586485Y-104755792D02*
X145729342Y-104755792D01*
X145729342Y-104755792D02*
X145824580Y-104803411D01*
X145824580Y-104803411D02*
X145872200Y-104851030D01*
X145872200Y-104851030D02*
X145919819Y-104946268D01*
X145919819Y-104946268D02*
X145919819Y-105327220D01*
X145919819Y-105327220D02*
X144919819Y-105327220D01*
X144919819Y-105327220D02*
X144919819Y-104993887D01*
X144919819Y-104993887D02*
X144967438Y-104898649D01*
X144967438Y-104898649D02*
X145015057Y-104851030D01*
X145015057Y-104851030D02*
X145110295Y-104803411D01*
X145110295Y-104803411D02*
X145205533Y-104803411D01*
X145205533Y-104803411D02*
X145300771Y-104851030D01*
X145300771Y-104851030D02*
X145348390Y-104898649D01*
X145348390Y-104898649D02*
X145396009Y-104993887D01*
X145396009Y-104993887D02*
X145396009Y-105327220D01*
X145919819Y-103851030D02*
X145919819Y-104327220D01*
X145919819Y-104327220D02*
X144919819Y-104327220D01*
X145919819Y-103517696D02*
X144919819Y-103517696D01*
X145919819Y-102946268D02*
X145348390Y-103374839D01*
X144919819Y-102946268D02*
X145491247Y-103517696D01*
X144872200Y-101803411D02*
X146157914Y-102660553D01*
X144919819Y-101279601D02*
X144919819Y-101089125D01*
X144919819Y-101089125D02*
X144967438Y-100993887D01*
X144967438Y-100993887D02*
X145062676Y-100898649D01*
X145062676Y-100898649D02*
X145253152Y-100851030D01*
X145253152Y-100851030D02*
X145586485Y-100851030D01*
X145586485Y-100851030D02*
X145776961Y-100898649D01*
X145776961Y-100898649D02*
X145872200Y-100993887D01*
X145872200Y-100993887D02*
X145919819Y-101089125D01*
X145919819Y-101089125D02*
X145919819Y-101279601D01*
X145919819Y-101279601D02*
X145872200Y-101374839D01*
X145872200Y-101374839D02*
X145776961Y-101470077D01*
X145776961Y-101470077D02*
X145586485Y-101517696D01*
X145586485Y-101517696D02*
X145253152Y-101517696D01*
X145253152Y-101517696D02*
X145062676Y-101470077D01*
X145062676Y-101470077D02*
X144967438Y-101374839D01*
X144967438Y-101374839D02*
X144919819Y-101279601D01*
X145396009Y-100089125D02*
X145443628Y-99946268D01*
X145443628Y-99946268D02*
X145491247Y-99898649D01*
X145491247Y-99898649D02*
X145586485Y-99851030D01*
X145586485Y-99851030D02*
X145729342Y-99851030D01*
X145729342Y-99851030D02*
X145824580Y-99898649D01*
X145824580Y-99898649D02*
X145872200Y-99946268D01*
X145872200Y-99946268D02*
X145919819Y-100041506D01*
X145919819Y-100041506D02*
X145919819Y-100422458D01*
X145919819Y-100422458D02*
X144919819Y-100422458D01*
X144919819Y-100422458D02*
X144919819Y-100089125D01*
X144919819Y-100089125D02*
X144967438Y-99993887D01*
X144967438Y-99993887D02*
X145015057Y-99946268D01*
X145015057Y-99946268D02*
X145110295Y-99898649D01*
X145110295Y-99898649D02*
X145205533Y-99898649D01*
X145205533Y-99898649D02*
X145300771Y-99946268D01*
X145300771Y-99946268D02*
X145348390Y-99993887D01*
X145348390Y-99993887D02*
X145396009Y-100089125D01*
X145396009Y-100089125D02*
X145396009Y-100422458D01*
X145872200Y-99470077D02*
X145919819Y-99327220D01*
X145919819Y-99327220D02*
X145919819Y-99089125D01*
X145919819Y-99089125D02*
X145872200Y-98993887D01*
X145872200Y-98993887D02*
X145824580Y-98946268D01*
X145824580Y-98946268D02*
X145729342Y-98898649D01*
X145729342Y-98898649D02*
X145634104Y-98898649D01*
X145634104Y-98898649D02*
X145538866Y-98946268D01*
X145538866Y-98946268D02*
X145491247Y-98993887D01*
X145491247Y-98993887D02*
X145443628Y-99089125D01*
X145443628Y-99089125D02*
X145396009Y-99279601D01*
X145396009Y-99279601D02*
X145348390Y-99374839D01*
X145348390Y-99374839D02*
X145300771Y-99422458D01*
X145300771Y-99422458D02*
X145205533Y-99470077D01*
X145205533Y-99470077D02*
X145110295Y-99470077D01*
X145110295Y-99470077D02*
X145015057Y-99422458D01*
X145015057Y-99422458D02*
X144967438Y-99374839D01*
X144967438Y-99374839D02*
X144919819Y-99279601D01*
X144919819Y-99279601D02*
X144919819Y-99041506D01*
X144919819Y-99041506D02*
X144967438Y-98898649D01*
X144919819Y-98612934D02*
X144919819Y-98041506D01*
X145919819Y-98327220D02*
X144919819Y-98327220D01*
X118341990Y-107624666D02*
X118294371Y-107767523D01*
X118294371Y-107767523D02*
X118246752Y-107815142D01*
X118246752Y-107815142D02*
X118151514Y-107862761D01*
X118151514Y-107862761D02*
X118008657Y-107862761D01*
X118008657Y-107862761D02*
X117913419Y-107815142D01*
X117913419Y-107815142D02*
X117865800Y-107767523D01*
X117865800Y-107767523D02*
X117818180Y-107672285D01*
X117818180Y-107672285D02*
X117818180Y-107291333D01*
X117818180Y-107291333D02*
X118818180Y-107291333D01*
X118818180Y-107291333D02*
X118818180Y-107624666D01*
X118818180Y-107624666D02*
X118770561Y-107719904D01*
X118770561Y-107719904D02*
X118722942Y-107767523D01*
X118722942Y-107767523D02*
X118627704Y-107815142D01*
X118627704Y-107815142D02*
X118532466Y-107815142D01*
X118532466Y-107815142D02*
X118437228Y-107767523D01*
X118437228Y-107767523D02*
X118389609Y-107719904D01*
X118389609Y-107719904D02*
X118341990Y-107624666D01*
X118341990Y-107624666D02*
X118341990Y-107291333D01*
X117818180Y-108767523D02*
X117818180Y-108291333D01*
X117818180Y-108291333D02*
X118818180Y-108291333D01*
X117818180Y-109100857D02*
X118818180Y-109100857D01*
X117818180Y-109672285D02*
X118389609Y-109243714D01*
X118818180Y-109672285D02*
X118246752Y-109100857D01*
X117208180Y-107005619D02*
X117208180Y-107196095D01*
X117208180Y-107196095D02*
X117160561Y-107291333D01*
X117160561Y-107291333D02*
X117065323Y-107386571D01*
X117065323Y-107386571D02*
X116874847Y-107434190D01*
X116874847Y-107434190D02*
X116541514Y-107434190D01*
X116541514Y-107434190D02*
X116351038Y-107386571D01*
X116351038Y-107386571D02*
X116255800Y-107291333D01*
X116255800Y-107291333D02*
X116208180Y-107196095D01*
X116208180Y-107196095D02*
X116208180Y-107005619D01*
X116208180Y-107005619D02*
X116255800Y-106910381D01*
X116255800Y-106910381D02*
X116351038Y-106815143D01*
X116351038Y-106815143D02*
X116541514Y-106767524D01*
X116541514Y-106767524D02*
X116874847Y-106767524D01*
X116874847Y-106767524D02*
X117065323Y-106815143D01*
X117065323Y-106815143D02*
X117160561Y-106910381D01*
X117160561Y-106910381D02*
X117208180Y-107005619D01*
X116731990Y-108196095D02*
X116684371Y-108338952D01*
X116684371Y-108338952D02*
X116636752Y-108386571D01*
X116636752Y-108386571D02*
X116541514Y-108434190D01*
X116541514Y-108434190D02*
X116398657Y-108434190D01*
X116398657Y-108434190D02*
X116303419Y-108386571D01*
X116303419Y-108386571D02*
X116255800Y-108338952D01*
X116255800Y-108338952D02*
X116208180Y-108243714D01*
X116208180Y-108243714D02*
X116208180Y-107862762D01*
X116208180Y-107862762D02*
X117208180Y-107862762D01*
X117208180Y-107862762D02*
X117208180Y-108196095D01*
X117208180Y-108196095D02*
X117160561Y-108291333D01*
X117160561Y-108291333D02*
X117112942Y-108338952D01*
X117112942Y-108338952D02*
X117017704Y-108386571D01*
X117017704Y-108386571D02*
X116922466Y-108386571D01*
X116922466Y-108386571D02*
X116827228Y-108338952D01*
X116827228Y-108338952D02*
X116779609Y-108291333D01*
X116779609Y-108291333D02*
X116731990Y-108196095D01*
X116731990Y-108196095D02*
X116731990Y-107862762D01*
X116255800Y-108815143D02*
X116208180Y-108958000D01*
X116208180Y-108958000D02*
X116208180Y-109196095D01*
X116208180Y-109196095D02*
X116255800Y-109291333D01*
X116255800Y-109291333D02*
X116303419Y-109338952D01*
X116303419Y-109338952D02*
X116398657Y-109386571D01*
X116398657Y-109386571D02*
X116493895Y-109386571D01*
X116493895Y-109386571D02*
X116589133Y-109338952D01*
X116589133Y-109338952D02*
X116636752Y-109291333D01*
X116636752Y-109291333D02*
X116684371Y-109196095D01*
X116684371Y-109196095D02*
X116731990Y-109005619D01*
X116731990Y-109005619D02*
X116779609Y-108910381D01*
X116779609Y-108910381D02*
X116827228Y-108862762D01*
X116827228Y-108862762D02*
X116922466Y-108815143D01*
X116922466Y-108815143D02*
X117017704Y-108815143D01*
X117017704Y-108815143D02*
X117112942Y-108862762D01*
X117112942Y-108862762D02*
X117160561Y-108910381D01*
X117160561Y-108910381D02*
X117208180Y-109005619D01*
X117208180Y-109005619D02*
X117208180Y-109243714D01*
X117208180Y-109243714D02*
X117160561Y-109386571D01*
X117208180Y-109672286D02*
X117208180Y-110243714D01*
X116208180Y-109958000D02*
X117208180Y-109958000D01*
X149999819Y-105136744D02*
X149999819Y-104946268D01*
X149999819Y-104946268D02*
X150047438Y-104851030D01*
X150047438Y-104851030D02*
X150142676Y-104755792D01*
X150142676Y-104755792D02*
X150333152Y-104708173D01*
X150333152Y-104708173D02*
X150666485Y-104708173D01*
X150666485Y-104708173D02*
X150856961Y-104755792D01*
X150856961Y-104755792D02*
X150952200Y-104851030D01*
X150952200Y-104851030D02*
X150999819Y-104946268D01*
X150999819Y-104946268D02*
X150999819Y-105136744D01*
X150999819Y-105136744D02*
X150952200Y-105231982D01*
X150952200Y-105231982D02*
X150856961Y-105327220D01*
X150856961Y-105327220D02*
X150666485Y-105374839D01*
X150666485Y-105374839D02*
X150333152Y-105374839D01*
X150333152Y-105374839D02*
X150142676Y-105327220D01*
X150142676Y-105327220D02*
X150047438Y-105231982D01*
X150047438Y-105231982D02*
X149999819Y-105136744D01*
X150476009Y-103946268D02*
X150523628Y-103803411D01*
X150523628Y-103803411D02*
X150571247Y-103755792D01*
X150571247Y-103755792D02*
X150666485Y-103708173D01*
X150666485Y-103708173D02*
X150809342Y-103708173D01*
X150809342Y-103708173D02*
X150904580Y-103755792D01*
X150904580Y-103755792D02*
X150952200Y-103803411D01*
X150952200Y-103803411D02*
X150999819Y-103898649D01*
X150999819Y-103898649D02*
X150999819Y-104279601D01*
X150999819Y-104279601D02*
X149999819Y-104279601D01*
X149999819Y-104279601D02*
X149999819Y-103946268D01*
X149999819Y-103946268D02*
X150047438Y-103851030D01*
X150047438Y-103851030D02*
X150095057Y-103803411D01*
X150095057Y-103803411D02*
X150190295Y-103755792D01*
X150190295Y-103755792D02*
X150285533Y-103755792D01*
X150285533Y-103755792D02*
X150380771Y-103803411D01*
X150380771Y-103803411D02*
X150428390Y-103851030D01*
X150428390Y-103851030D02*
X150476009Y-103946268D01*
X150476009Y-103946268D02*
X150476009Y-104279601D01*
X150952200Y-103327220D02*
X150999819Y-103184363D01*
X150999819Y-103184363D02*
X150999819Y-102946268D01*
X150999819Y-102946268D02*
X150952200Y-102851030D01*
X150952200Y-102851030D02*
X150904580Y-102803411D01*
X150904580Y-102803411D02*
X150809342Y-102755792D01*
X150809342Y-102755792D02*
X150714104Y-102755792D01*
X150714104Y-102755792D02*
X150618866Y-102803411D01*
X150618866Y-102803411D02*
X150571247Y-102851030D01*
X150571247Y-102851030D02*
X150523628Y-102946268D01*
X150523628Y-102946268D02*
X150476009Y-103136744D01*
X150476009Y-103136744D02*
X150428390Y-103231982D01*
X150428390Y-103231982D02*
X150380771Y-103279601D01*
X150380771Y-103279601D02*
X150285533Y-103327220D01*
X150285533Y-103327220D02*
X150190295Y-103327220D01*
X150190295Y-103327220D02*
X150095057Y-103279601D01*
X150095057Y-103279601D02*
X150047438Y-103231982D01*
X150047438Y-103231982D02*
X149999819Y-103136744D01*
X149999819Y-103136744D02*
X149999819Y-102898649D01*
X149999819Y-102898649D02*
X150047438Y-102755792D01*
X149999819Y-102470077D02*
X149999819Y-101898649D01*
X150999819Y-102184363D02*
X149999819Y-102184363D01*
X155984580Y-104755792D02*
X156032200Y-104803411D01*
X156032200Y-104803411D02*
X156079819Y-104946268D01*
X156079819Y-104946268D02*
X156079819Y-105041506D01*
X156079819Y-105041506D02*
X156032200Y-105184363D01*
X156032200Y-105184363D02*
X155936961Y-105279601D01*
X155936961Y-105279601D02*
X155841723Y-105327220D01*
X155841723Y-105327220D02*
X155651247Y-105374839D01*
X155651247Y-105374839D02*
X155508390Y-105374839D01*
X155508390Y-105374839D02*
X155317914Y-105327220D01*
X155317914Y-105327220D02*
X155222676Y-105279601D01*
X155222676Y-105279601D02*
X155127438Y-105184363D01*
X155127438Y-105184363D02*
X155079819Y-105041506D01*
X155079819Y-105041506D02*
X155079819Y-104946268D01*
X155079819Y-104946268D02*
X155127438Y-104803411D01*
X155127438Y-104803411D02*
X155175057Y-104755792D01*
X156079819Y-103851030D02*
X156079819Y-104327220D01*
X156079819Y-104327220D02*
X155079819Y-104327220D01*
X155079819Y-103327220D02*
X155079819Y-103136744D01*
X155079819Y-103136744D02*
X155127438Y-103041506D01*
X155127438Y-103041506D02*
X155222676Y-102946268D01*
X155222676Y-102946268D02*
X155413152Y-102898649D01*
X155413152Y-102898649D02*
X155746485Y-102898649D01*
X155746485Y-102898649D02*
X155936961Y-102946268D01*
X155936961Y-102946268D02*
X156032200Y-103041506D01*
X156032200Y-103041506D02*
X156079819Y-103136744D01*
X156079819Y-103136744D02*
X156079819Y-103327220D01*
X156079819Y-103327220D02*
X156032200Y-103422458D01*
X156032200Y-103422458D02*
X155936961Y-103517696D01*
X155936961Y-103517696D02*
X155746485Y-103565315D01*
X155746485Y-103565315D02*
X155413152Y-103565315D01*
X155413152Y-103565315D02*
X155222676Y-103517696D01*
X155222676Y-103517696D02*
X155127438Y-103422458D01*
X155127438Y-103422458D02*
X155079819Y-103327220D01*
X156032200Y-102517696D02*
X156079819Y-102374839D01*
X156079819Y-102374839D02*
X156079819Y-102136744D01*
X156079819Y-102136744D02*
X156032200Y-102041506D01*
X156032200Y-102041506D02*
X155984580Y-101993887D01*
X155984580Y-101993887D02*
X155889342Y-101946268D01*
X155889342Y-101946268D02*
X155794104Y-101946268D01*
X155794104Y-101946268D02*
X155698866Y-101993887D01*
X155698866Y-101993887D02*
X155651247Y-102041506D01*
X155651247Y-102041506D02*
X155603628Y-102136744D01*
X155603628Y-102136744D02*
X155556009Y-102327220D01*
X155556009Y-102327220D02*
X155508390Y-102422458D01*
X155508390Y-102422458D02*
X155460771Y-102470077D01*
X155460771Y-102470077D02*
X155365533Y-102517696D01*
X155365533Y-102517696D02*
X155270295Y-102517696D01*
X155270295Y-102517696D02*
X155175057Y-102470077D01*
X155175057Y-102470077D02*
X155127438Y-102422458D01*
X155127438Y-102422458D02*
X155079819Y-102327220D01*
X155079819Y-102327220D02*
X155079819Y-102089125D01*
X155079819Y-102089125D02*
X155127438Y-101946268D01*
X155556009Y-101517696D02*
X155556009Y-101184363D01*
X156079819Y-101041506D02*
X156079819Y-101517696D01*
X156079819Y-101517696D02*
X155079819Y-101517696D01*
X155079819Y-101517696D02*
X155079819Y-101041506D01*
X162139333Y-71828819D02*
X161806000Y-71352628D01*
X161567905Y-71828819D02*
X161567905Y-70828819D01*
X161567905Y-70828819D02*
X161948857Y-70828819D01*
X161948857Y-70828819D02*
X162044095Y-70876438D01*
X162044095Y-70876438D02*
X162091714Y-70924057D01*
X162091714Y-70924057D02*
X162139333Y-71019295D01*
X162139333Y-71019295D02*
X162139333Y-71162152D01*
X162139333Y-71162152D02*
X162091714Y-71257390D01*
X162091714Y-71257390D02*
X162044095Y-71305009D01*
X162044095Y-71305009D02*
X161948857Y-71352628D01*
X161948857Y-71352628D02*
X161567905Y-71352628D01*
X162472667Y-70828819D02*
X163091714Y-70828819D01*
X163091714Y-70828819D02*
X162758381Y-71209771D01*
X162758381Y-71209771D02*
X162901238Y-71209771D01*
X162901238Y-71209771D02*
X162996476Y-71257390D01*
X162996476Y-71257390D02*
X163044095Y-71305009D01*
X163044095Y-71305009D02*
X163091714Y-71400247D01*
X163091714Y-71400247D02*
X163091714Y-71638342D01*
X163091714Y-71638342D02*
X163044095Y-71733580D01*
X163044095Y-71733580D02*
X162996476Y-71781200D01*
X162996476Y-71781200D02*
X162901238Y-71828819D01*
X162901238Y-71828819D02*
X162615524Y-71828819D01*
X162615524Y-71828819D02*
X162520286Y-71781200D01*
X162520286Y-71781200D02*
X162472667Y-71733580D01*
X119792761Y-71162057D02*
X119697523Y-71114438D01*
X119697523Y-71114438D02*
X119602285Y-71019200D01*
X119602285Y-71019200D02*
X119459428Y-70876342D01*
X119459428Y-70876342D02*
X119364190Y-70828723D01*
X119364190Y-70828723D02*
X119268952Y-70828723D01*
X119316571Y-71066819D02*
X119221333Y-71019200D01*
X119221333Y-71019200D02*
X119126095Y-70923961D01*
X119126095Y-70923961D02*
X119078476Y-70733485D01*
X119078476Y-70733485D02*
X119078476Y-70400152D01*
X119078476Y-70400152D02*
X119126095Y-70209676D01*
X119126095Y-70209676D02*
X119221333Y-70114438D01*
X119221333Y-70114438D02*
X119316571Y-70066819D01*
X119316571Y-70066819D02*
X119507047Y-70066819D01*
X119507047Y-70066819D02*
X119602285Y-70114438D01*
X119602285Y-70114438D02*
X119697523Y-70209676D01*
X119697523Y-70209676D02*
X119745142Y-70400152D01*
X119745142Y-70400152D02*
X119745142Y-70733485D01*
X119745142Y-70733485D02*
X119697523Y-70923961D01*
X119697523Y-70923961D02*
X119602285Y-71019200D01*
X119602285Y-71019200D02*
X119507047Y-71066819D01*
X119507047Y-71066819D02*
X119316571Y-71066819D01*
X120078476Y-70066819D02*
X120697523Y-70066819D01*
X120697523Y-70066819D02*
X120364190Y-70447771D01*
X120364190Y-70447771D02*
X120507047Y-70447771D01*
X120507047Y-70447771D02*
X120602285Y-70495390D01*
X120602285Y-70495390D02*
X120649904Y-70543009D01*
X120649904Y-70543009D02*
X120697523Y-70638247D01*
X120697523Y-70638247D02*
X120697523Y-70876342D01*
X120697523Y-70876342D02*
X120649904Y-70971580D01*
X120649904Y-70971580D02*
X120602285Y-71019200D01*
X120602285Y-71019200D02*
X120507047Y-71066819D01*
X120507047Y-71066819D02*
X120221333Y-71066819D01*
X120221333Y-71066819D02*
X120126095Y-71019200D01*
X120126095Y-71019200D02*
X120078476Y-70971580D01*
X153362819Y-96115094D02*
X152362819Y-96115094D01*
X152362819Y-96115094D02*
X152362819Y-95876999D01*
X152362819Y-95876999D02*
X152410438Y-95734142D01*
X152410438Y-95734142D02*
X152505676Y-95638904D01*
X152505676Y-95638904D02*
X152600914Y-95591285D01*
X152600914Y-95591285D02*
X152791390Y-95543666D01*
X152791390Y-95543666D02*
X152934247Y-95543666D01*
X152934247Y-95543666D02*
X153124723Y-95591285D01*
X153124723Y-95591285D02*
X153219961Y-95638904D01*
X153219961Y-95638904D02*
X153315200Y-95734142D01*
X153315200Y-95734142D02*
X153362819Y-95876999D01*
X153362819Y-95876999D02*
X153362819Y-96115094D01*
X153362819Y-94591285D02*
X153362819Y-95162713D01*
X153362819Y-94876999D02*
X152362819Y-94876999D01*
X152362819Y-94876999D02*
X152505676Y-94972237D01*
X152505676Y-94972237D02*
X152600914Y-95067475D01*
X152600914Y-95067475D02*
X152648533Y-95162713D01*
X150785595Y-92494819D02*
X150785595Y-93304342D01*
X150785595Y-93304342D02*
X150833214Y-93399580D01*
X150833214Y-93399580D02*
X150880833Y-93447200D01*
X150880833Y-93447200D02*
X150976071Y-93494819D01*
X150976071Y-93494819D02*
X151166547Y-93494819D01*
X151166547Y-93494819D02*
X151261785Y-93447200D01*
X151261785Y-93447200D02*
X151309404Y-93399580D01*
X151309404Y-93399580D02*
X151357023Y-93304342D01*
X151357023Y-93304342D02*
X151357023Y-92494819D01*
X152357023Y-93494819D02*
X151785595Y-93494819D01*
X152071309Y-93494819D02*
X152071309Y-92494819D01*
X152071309Y-92494819D02*
X151976071Y-92637676D01*
X151976071Y-92637676D02*
X151880833Y-92732914D01*
X151880833Y-92732914D02*
X151785595Y-92780533D01*
X119792761Y-87169057D02*
X119697523Y-87121438D01*
X119697523Y-87121438D02*
X119602285Y-87026200D01*
X119602285Y-87026200D02*
X119459428Y-86883342D01*
X119459428Y-86883342D02*
X119364190Y-86835723D01*
X119364190Y-86835723D02*
X119268952Y-86835723D01*
X119316571Y-87073819D02*
X119221333Y-87026200D01*
X119221333Y-87026200D02*
X119126095Y-86930961D01*
X119126095Y-86930961D02*
X119078476Y-86740485D01*
X119078476Y-86740485D02*
X119078476Y-86407152D01*
X119078476Y-86407152D02*
X119126095Y-86216676D01*
X119126095Y-86216676D02*
X119221333Y-86121438D01*
X119221333Y-86121438D02*
X119316571Y-86073819D01*
X119316571Y-86073819D02*
X119507047Y-86073819D01*
X119507047Y-86073819D02*
X119602285Y-86121438D01*
X119602285Y-86121438D02*
X119697523Y-86216676D01*
X119697523Y-86216676D02*
X119745142Y-86407152D01*
X119745142Y-86407152D02*
X119745142Y-86740485D01*
X119745142Y-86740485D02*
X119697523Y-86930961D01*
X119697523Y-86930961D02*
X119602285Y-87026200D01*
X119602285Y-87026200D02*
X119507047Y-87073819D01*
X119507047Y-87073819D02*
X119316571Y-87073819D01*
X120602285Y-86407152D02*
X120602285Y-87073819D01*
X120364190Y-86026200D02*
X120126095Y-86740485D01*
X120126095Y-86740485D02*
X120745142Y-86740485D01*
X155902819Y-96115094D02*
X154902819Y-96115094D01*
X154902819Y-96115094D02*
X154902819Y-95876999D01*
X154902819Y-95876999D02*
X154950438Y-95734142D01*
X154950438Y-95734142D02*
X155045676Y-95638904D01*
X155045676Y-95638904D02*
X155140914Y-95591285D01*
X155140914Y-95591285D02*
X155331390Y-95543666D01*
X155331390Y-95543666D02*
X155474247Y-95543666D01*
X155474247Y-95543666D02*
X155664723Y-95591285D01*
X155664723Y-95591285D02*
X155759961Y-95638904D01*
X155759961Y-95638904D02*
X155855200Y-95734142D01*
X155855200Y-95734142D02*
X155902819Y-95876999D01*
X155902819Y-95876999D02*
X155902819Y-96115094D01*
X154998057Y-95162713D02*
X154950438Y-95115094D01*
X154950438Y-95115094D02*
X154902819Y-95019856D01*
X154902819Y-95019856D02*
X154902819Y-94781761D01*
X154902819Y-94781761D02*
X154950438Y-94686523D01*
X154950438Y-94686523D02*
X154998057Y-94638904D01*
X154998057Y-94638904D02*
X155093295Y-94591285D01*
X155093295Y-94591285D02*
X155188533Y-94591285D01*
X155188533Y-94591285D02*
X155331390Y-94638904D01*
X155331390Y-94638904D02*
X155902819Y-95210332D01*
X155902819Y-95210332D02*
X155902819Y-94591285D01*
X162234571Y-75132900D02*
X162139333Y-75085281D01*
X162139333Y-75085281D02*
X162044095Y-74990043D01*
X162044095Y-74990043D02*
X161901238Y-74847185D01*
X161901238Y-74847185D02*
X161806000Y-74799566D01*
X161806000Y-74799566D02*
X161710762Y-74799566D01*
X161758381Y-75037662D02*
X161663143Y-74990043D01*
X161663143Y-74990043D02*
X161567905Y-74894804D01*
X161567905Y-74894804D02*
X161520286Y-74704328D01*
X161520286Y-74704328D02*
X161520286Y-74370995D01*
X161520286Y-74370995D02*
X161567905Y-74180519D01*
X161567905Y-74180519D02*
X161663143Y-74085281D01*
X161663143Y-74085281D02*
X161758381Y-74037662D01*
X161758381Y-74037662D02*
X161948857Y-74037662D01*
X161948857Y-74037662D02*
X162044095Y-74085281D01*
X162044095Y-74085281D02*
X162139333Y-74180519D01*
X162139333Y-74180519D02*
X162186952Y-74370995D01*
X162186952Y-74370995D02*
X162186952Y-74704328D01*
X162186952Y-74704328D02*
X162139333Y-74894804D01*
X162139333Y-74894804D02*
X162044095Y-74990043D01*
X162044095Y-74990043D02*
X161948857Y-75037662D01*
X161948857Y-75037662D02*
X161758381Y-75037662D01*
X162567905Y-74132900D02*
X162615524Y-74085281D01*
X162615524Y-74085281D02*
X162710762Y-74037662D01*
X162710762Y-74037662D02*
X162948857Y-74037662D01*
X162948857Y-74037662D02*
X163044095Y-74085281D01*
X163044095Y-74085281D02*
X163091714Y-74132900D01*
X163091714Y-74132900D02*
X163139333Y-74228138D01*
X163139333Y-74228138D02*
X163139333Y-74323376D01*
X163139333Y-74323376D02*
X163091714Y-74466233D01*
X163091714Y-74466233D02*
X162520286Y-75037662D01*
X162520286Y-75037662D02*
X163139333Y-75037662D01*
X158442819Y-96115094D02*
X157442819Y-96115094D01*
X157442819Y-96115094D02*
X157442819Y-95876999D01*
X157442819Y-95876999D02*
X157490438Y-95734142D01*
X157490438Y-95734142D02*
X157585676Y-95638904D01*
X157585676Y-95638904D02*
X157680914Y-95591285D01*
X157680914Y-95591285D02*
X157871390Y-95543666D01*
X157871390Y-95543666D02*
X158014247Y-95543666D01*
X158014247Y-95543666D02*
X158204723Y-95591285D01*
X158204723Y-95591285D02*
X158299961Y-95638904D01*
X158299961Y-95638904D02*
X158395200Y-95734142D01*
X158395200Y-95734142D02*
X158442819Y-95876999D01*
X158442819Y-95876999D02*
X158442819Y-96115094D01*
X157442819Y-95210332D02*
X157442819Y-94591285D01*
X157442819Y-94591285D02*
X157823771Y-94924618D01*
X157823771Y-94924618D02*
X157823771Y-94781761D01*
X157823771Y-94781761D02*
X157871390Y-94686523D01*
X157871390Y-94686523D02*
X157919009Y-94638904D01*
X157919009Y-94638904D02*
X158014247Y-94591285D01*
X158014247Y-94591285D02*
X158252342Y-94591285D01*
X158252342Y-94591285D02*
X158347580Y-94638904D01*
X158347580Y-94638904D02*
X158395200Y-94686523D01*
X158395200Y-94686523D02*
X158442819Y-94781761D01*
X158442819Y-94781761D02*
X158442819Y-95067475D01*
X158442819Y-95067475D02*
X158395200Y-95162713D01*
X158395200Y-95162713D02*
X158347580Y-95210332D01*
X119745142Y-90563819D02*
X119411809Y-90087628D01*
X119173714Y-90563819D02*
X119173714Y-89563819D01*
X119173714Y-89563819D02*
X119554666Y-89563819D01*
X119554666Y-89563819D02*
X119649904Y-89611438D01*
X119649904Y-89611438D02*
X119697523Y-89659057D01*
X119697523Y-89659057D02*
X119745142Y-89754295D01*
X119745142Y-89754295D02*
X119745142Y-89897152D01*
X119745142Y-89897152D02*
X119697523Y-89992390D01*
X119697523Y-89992390D02*
X119649904Y-90040009D01*
X119649904Y-90040009D02*
X119554666Y-90087628D01*
X119554666Y-90087628D02*
X119173714Y-90087628D01*
X120649904Y-89563819D02*
X120173714Y-89563819D01*
X120173714Y-89563819D02*
X120126095Y-90040009D01*
X120126095Y-90040009D02*
X120173714Y-89992390D01*
X120173714Y-89992390D02*
X120268952Y-89944771D01*
X120268952Y-89944771D02*
X120507047Y-89944771D01*
X120507047Y-89944771D02*
X120602285Y-89992390D01*
X120602285Y-89992390D02*
X120649904Y-90040009D01*
X120649904Y-90040009D02*
X120697523Y-90135247D01*
X120697523Y-90135247D02*
X120697523Y-90373342D01*
X120697523Y-90373342D02*
X120649904Y-90468580D01*
X120649904Y-90468580D02*
X120602285Y-90516200D01*
X120602285Y-90516200D02*
X120507047Y-90563819D01*
X120507047Y-90563819D02*
X120268952Y-90563819D01*
X120268952Y-90563819D02*
X120173714Y-90516200D01*
X120173714Y-90516200D02*
X120126095Y-90468580D01*
X162085128Y-80309572D02*
X161989890Y-80261953D01*
X161989890Y-80261953D02*
X161894652Y-80166715D01*
X161894652Y-80166715D02*
X161751795Y-80023857D01*
X161751795Y-80023857D02*
X161656557Y-79976238D01*
X161656557Y-79976238D02*
X161561319Y-79976238D01*
X161608938Y-80214334D02*
X161513700Y-80166715D01*
X161513700Y-80166715D02*
X161418462Y-80071476D01*
X161418462Y-80071476D02*
X161370843Y-79881000D01*
X161370843Y-79881000D02*
X161370843Y-79547667D01*
X161370843Y-79547667D02*
X161418462Y-79357191D01*
X161418462Y-79357191D02*
X161513700Y-79261953D01*
X161513700Y-79261953D02*
X161608938Y-79214334D01*
X161608938Y-79214334D02*
X161799414Y-79214334D01*
X161799414Y-79214334D02*
X161894652Y-79261953D01*
X161894652Y-79261953D02*
X161989890Y-79357191D01*
X161989890Y-79357191D02*
X162037509Y-79547667D01*
X162037509Y-79547667D02*
X162037509Y-79881000D01*
X162037509Y-79881000D02*
X161989890Y-80071476D01*
X161989890Y-80071476D02*
X161894652Y-80166715D01*
X161894652Y-80166715D02*
X161799414Y-80214334D01*
X161799414Y-80214334D02*
X161608938Y-80214334D01*
X162989890Y-80214334D02*
X162418462Y-80214334D01*
X162704176Y-80214334D02*
X162704176Y-79214334D01*
X162704176Y-79214334D02*
X162608938Y-79357191D01*
X162608938Y-79357191D02*
X162513700Y-79452429D01*
X162513700Y-79452429D02*
X162418462Y-79500048D01*
X128283819Y-94661333D02*
X128998104Y-94661333D01*
X128998104Y-94661333D02*
X129140961Y-94708952D01*
X129140961Y-94708952D02*
X129236200Y-94804190D01*
X129236200Y-94804190D02*
X129283819Y-94947047D01*
X129283819Y-94947047D02*
X129283819Y-95042285D01*
X129283819Y-93661333D02*
X129283819Y-94232761D01*
X129283819Y-93947047D02*
X128283819Y-93947047D01*
X128283819Y-93947047D02*
X128426676Y-94042285D01*
X128426676Y-94042285D02*
X128521914Y-94137523D01*
X128521914Y-94137523D02*
X128569533Y-94232761D01*
X119745142Y-75323819D02*
X119411809Y-74847628D01*
X119173714Y-75323819D02*
X119173714Y-74323819D01*
X119173714Y-74323819D02*
X119554666Y-74323819D01*
X119554666Y-74323819D02*
X119649904Y-74371438D01*
X119649904Y-74371438D02*
X119697523Y-74419057D01*
X119697523Y-74419057D02*
X119745142Y-74514295D01*
X119745142Y-74514295D02*
X119745142Y-74657152D01*
X119745142Y-74657152D02*
X119697523Y-74752390D01*
X119697523Y-74752390D02*
X119649904Y-74800009D01*
X119649904Y-74800009D02*
X119554666Y-74847628D01*
X119554666Y-74847628D02*
X119173714Y-74847628D01*
X120602285Y-74657152D02*
X120602285Y-75323819D01*
X120364190Y-74276200D02*
X120126095Y-74990485D01*
X120126095Y-74990485D02*
X120745142Y-74990485D01*
X119745142Y-79133819D02*
X119411809Y-78657628D01*
X119173714Y-79133819D02*
X119173714Y-78133819D01*
X119173714Y-78133819D02*
X119554666Y-78133819D01*
X119554666Y-78133819D02*
X119649904Y-78181438D01*
X119649904Y-78181438D02*
X119697523Y-78229057D01*
X119697523Y-78229057D02*
X119745142Y-78324295D01*
X119745142Y-78324295D02*
X119745142Y-78467152D01*
X119745142Y-78467152D02*
X119697523Y-78562390D01*
X119697523Y-78562390D02*
X119649904Y-78610009D01*
X119649904Y-78610009D02*
X119554666Y-78657628D01*
X119554666Y-78657628D02*
X119173714Y-78657628D01*
X120126095Y-78229057D02*
X120173714Y-78181438D01*
X120173714Y-78181438D02*
X120268952Y-78133819D01*
X120268952Y-78133819D02*
X120507047Y-78133819D01*
X120507047Y-78133819D02*
X120602285Y-78181438D01*
X120602285Y-78181438D02*
X120649904Y-78229057D01*
X120649904Y-78229057D02*
X120697523Y-78324295D01*
X120697523Y-78324295D02*
X120697523Y-78419533D01*
X120697523Y-78419533D02*
X120649904Y-78562390D01*
X120649904Y-78562390D02*
X120078476Y-79133819D01*
X120078476Y-79133819D02*
X120697523Y-79133819D01*
X119745142Y-82943819D02*
X119411809Y-82467628D01*
X119173714Y-82943819D02*
X119173714Y-81943819D01*
X119173714Y-81943819D02*
X119554666Y-81943819D01*
X119554666Y-81943819D02*
X119649904Y-81991438D01*
X119649904Y-81991438D02*
X119697523Y-82039057D01*
X119697523Y-82039057D02*
X119745142Y-82134295D01*
X119745142Y-82134295D02*
X119745142Y-82277152D01*
X119745142Y-82277152D02*
X119697523Y-82372390D01*
X119697523Y-82372390D02*
X119649904Y-82420009D01*
X119649904Y-82420009D02*
X119554666Y-82467628D01*
X119554666Y-82467628D02*
X119173714Y-82467628D01*
X120697523Y-82943819D02*
X120126095Y-82943819D01*
X120411809Y-82943819D02*
X120411809Y-81943819D01*
X120411809Y-81943819D02*
X120316571Y-82086676D01*
X120316571Y-82086676D02*
X120221333Y-82181914D01*
X120221333Y-82181914D02*
X120126095Y-82229533D01*
X137544666Y-106515819D02*
X137544666Y-107230104D01*
X137544666Y-107230104D02*
X137497047Y-107372961D01*
X137497047Y-107372961D02*
X137401809Y-107468200D01*
X137401809Y-107468200D02*
X137258952Y-107515819D01*
X137258952Y-107515819D02*
X137163714Y-107515819D01*
X137973238Y-106611057D02*
X138020857Y-106563438D01*
X138020857Y-106563438D02*
X138116095Y-106515819D01*
X138116095Y-106515819D02*
X138354190Y-106515819D01*
X138354190Y-106515819D02*
X138449428Y-106563438D01*
X138449428Y-106563438D02*
X138497047Y-106611057D01*
X138497047Y-106611057D02*
X138544666Y-106706295D01*
X138544666Y-106706295D02*
X138544666Y-106801533D01*
X138544666Y-106801533D02*
X138497047Y-106944390D01*
X138497047Y-106944390D02*
X137925619Y-107515819D01*
X137925619Y-107515819D02*
X138544666Y-107515819D01*
D12*
%TO.C,R3*%
X158880436Y-70480222D02*
X159334564Y-70480222D01*
X158880436Y-71950222D02*
X159334564Y-71950222D01*
%TO.C,Q3*%
X123190000Y-72172000D02*
X124865000Y-72172000D01*
X123190000Y-72172000D02*
X122540000Y-72172000D01*
X123190000Y-69052000D02*
X123840000Y-69052000D01*
X123190000Y-69052000D02*
X122540000Y-69052000D01*
%TO.C,D1*%
X152058000Y-100816000D02*
X153758000Y-100816000D01*
X152058000Y-100816000D02*
X152058000Y-97556000D01*
X153758000Y-100816000D02*
X153758000Y-97556000D01*
%TO.C,G\u002A\u002A\u002A*%
G36*
X137113105Y-112767784D02*
G01*
X137304752Y-112883842D01*
X137551777Y-113154989D01*
X137363863Y-113525228D01*
X137339219Y-113555236D01*
X136806299Y-113934991D01*
X136309422Y-113877319D01*
X136058315Y-113548559D01*
X136101142Y-113058670D01*
X136269455Y-112877165D01*
X136720245Y-112659553D01*
X137113105Y-112767784D01*
G37*
G36*
X135520063Y-110255927D02*
G01*
X135921610Y-110604942D01*
X136020669Y-110931645D01*
X136205558Y-111487397D01*
X136699759Y-111774788D01*
X136977593Y-111841878D01*
X138168355Y-112247368D01*
X138912871Y-112833042D01*
X139206189Y-113512075D01*
X139043357Y-114197639D01*
X138419425Y-114802908D01*
X137329441Y-115241057D01*
X137173478Y-115276914D01*
X136480613Y-115477328D01*
X136195054Y-115748538D01*
X136173695Y-116112370D01*
X136110030Y-116839154D01*
X135971238Y-117223376D01*
X135860992Y-117653035D01*
X136210554Y-117889213D01*
X136245404Y-117900544D01*
X136612721Y-118159329D01*
X136597011Y-118384783D01*
X136441239Y-118884188D01*
X136390428Y-119373664D01*
X136204808Y-119963308D01*
X135903510Y-120143340D01*
X135563624Y-120087017D01*
X135437782Y-119657097D01*
X135430638Y-119405218D01*
X135395101Y-119250298D01*
X135971064Y-119250298D01*
X136106170Y-119385405D01*
X136241276Y-119250298D01*
X136106170Y-119115192D01*
X135971064Y-119250298D01*
X135395101Y-119250298D01*
X135284087Y-118766336D01*
X134865225Y-118574930D01*
X134205241Y-118831317D01*
X133495606Y-119385405D01*
X132808213Y-119966425D01*
X132409604Y-120146565D01*
X132227255Y-119926833D01*
X132188085Y-119403614D01*
X132121012Y-119106711D01*
X132728510Y-119106711D01*
X132926578Y-119255386D01*
X133133830Y-119212908D01*
X133489366Y-119021115D01*
X133539149Y-118951176D01*
X133318498Y-118856717D01*
X133133830Y-118844979D01*
X132774171Y-118986390D01*
X132728510Y-119106711D01*
X132121012Y-119106711D01*
X132031984Y-118712620D01*
X131672622Y-118447583D01*
X131156844Y-118092191D01*
X130920234Y-117575823D01*
X131377447Y-117575823D01*
X131567797Y-118024394D01*
X131715213Y-118125597D01*
X132363951Y-118242751D01*
X133257718Y-118250355D01*
X134113870Y-118155579D01*
X134484893Y-118055331D01*
X135025319Y-117844092D01*
X134484893Y-117684395D01*
X133893376Y-117550364D01*
X133035778Y-117399672D01*
X132660957Y-117343519D01*
X131871317Y-117262771D01*
X131484675Y-117326835D01*
X131377671Y-117558039D01*
X131377447Y-117575823D01*
X130920234Y-117575823D01*
X130915569Y-117565643D01*
X130987198Y-117199318D01*
X131346807Y-117009334D01*
X131798713Y-116953490D01*
X132343261Y-116807886D01*
X132474069Y-116430095D01*
X132212371Y-115908644D01*
X131579400Y-115332060D01*
X131377447Y-115197107D01*
X130641234Y-114632689D01*
X130326649Y-114093501D01*
X130296596Y-113824889D01*
X130449451Y-113139100D01*
X130892875Y-113139100D01*
X130899541Y-113960255D01*
X131419340Y-114717228D01*
X131786111Y-114996931D01*
X132491816Y-115604429D01*
X132727822Y-116240311D01*
X132728510Y-116280442D01*
X132821318Y-116787066D01*
X132998723Y-116953490D01*
X133161112Y-116712248D01*
X133179941Y-116593206D01*
X133539149Y-116593206D01*
X133683752Y-116923118D01*
X133780452Y-116953490D01*
X133971950Y-116818383D01*
X134672677Y-116818383D01*
X134701885Y-117279859D01*
X134786474Y-117320489D01*
X134797242Y-117296398D01*
X134850696Y-116759976D01*
X134807255Y-116485760D01*
X134721242Y-116375567D01*
X134674459Y-116734471D01*
X134672677Y-116818383D01*
X133971950Y-116818383D01*
X134082211Y-116740591D01*
X134160009Y-116593206D01*
X134082500Y-116276579D01*
X133918706Y-116232922D01*
X133576834Y-116437153D01*
X133539149Y-116593206D01*
X133179941Y-116593206D01*
X133257472Y-116103046D01*
X133268936Y-115759632D01*
X133291633Y-115230193D01*
X133539149Y-115230193D01*
X133601607Y-115517703D01*
X133880550Y-115404136D01*
X134012021Y-115306654D01*
X134436711Y-114985518D01*
X134597482Y-114868249D01*
X134464779Y-114808562D01*
X134124610Y-114791788D01*
X133639646Y-114961539D01*
X133539149Y-115230193D01*
X133291633Y-115230193D01*
X133304786Y-114923383D01*
X133384927Y-114341433D01*
X134439858Y-114341433D01*
X134476950Y-114502074D01*
X134620000Y-114521575D01*
X134842416Y-114422708D01*
X134800142Y-114341433D01*
X134479462Y-114309094D01*
X134439858Y-114341433D01*
X133384927Y-114341433D01*
X133394502Y-114271904D01*
X133432952Y-114138356D01*
X133407866Y-113777087D01*
X133162739Y-113710937D01*
X132801568Y-113485469D01*
X132759849Y-113305617D01*
X132998723Y-113305617D01*
X133133830Y-113440724D01*
X133268936Y-113305617D01*
X133133830Y-113170511D01*
X132998723Y-113305617D01*
X132759849Y-113305617D01*
X132728510Y-113170511D01*
X132842681Y-112705144D01*
X133180929Y-112728593D01*
X133674255Y-113170511D01*
X134162913Y-113576671D01*
X134517266Y-113710937D01*
X134962401Y-113964096D01*
X135229744Y-114711241D01*
X135313018Y-115933871D01*
X135311532Y-116052116D01*
X135333285Y-116808506D01*
X135415379Y-117258826D01*
X135493950Y-117319680D01*
X135626053Y-116992319D01*
X135696995Y-116337984D01*
X135700851Y-116132052D01*
X135747375Y-115429176D01*
X135960101Y-115085088D01*
X136443936Y-114922085D01*
X137511376Y-114677950D01*
X138154724Y-114433956D01*
X138486250Y-114124095D01*
X138618222Y-113682358D01*
X138623366Y-113640694D01*
X138577054Y-113110397D01*
X138233197Y-112729150D01*
X137502303Y-112431425D01*
X136704959Y-112236013D01*
X135988829Y-111856862D01*
X135648288Y-111406673D01*
X135319210Y-110854445D01*
X135028592Y-110830769D01*
X134705394Y-111335888D01*
X134671042Y-111410010D01*
X134424711Y-111821789D01*
X134071295Y-111981071D01*
X133425004Y-111950907D01*
X133173800Y-111918134D01*
X132343218Y-111860600D01*
X131800340Y-112011707D01*
X131409748Y-112327572D01*
X130892875Y-113139100D01*
X130449451Y-113139100D01*
X130533568Y-112761704D01*
X131179985Y-111962249D01*
X132139099Y-111500976D01*
X133314161Y-111452333D01*
X133368824Y-111460757D01*
X134019058Y-111527685D01*
X134295880Y-111401061D01*
X134349787Y-111073074D01*
X134543401Y-110506138D01*
X134997077Y-110228374D01*
X135520063Y-110255927D01*
G37*
%TO.C,U1*%
X128047500Y-85260000D02*
X128047500Y-59830000D01*
X128047500Y-85260000D02*
X130587500Y-85260000D01*
X130587500Y-85260000D02*
X130587500Y-92160000D01*
X130587500Y-92160000D02*
X153907500Y-92160000D01*
X151787500Y-57700000D02*
X130177500Y-57700000D01*
X153907500Y-92160000D02*
X153907500Y-59830000D01*
X130177500Y-57700000D02*
G75*
G03*
X128047500Y-59830000I2J-2130002D01*
G01*
X153907500Y-59830000D02*
G75*
G03*
X151777500Y-57700000I-2130000J0D01*
G01*
D10*
X127642500Y-66040000D02*
X127007500Y-66675000D01*
X127007500Y-65405000D01*
X127642500Y-66040000D01*
G36*
X127642500Y-66040000D02*
G01*
X127007500Y-66675000D01*
X127007500Y-65405000D01*
X127642500Y-66040000D01*
G37*
D12*
%TO.C,Q4*%
X123190000Y-88240000D02*
X124865000Y-88240000D01*
X123190000Y-88240000D02*
X122540000Y-88240000D01*
X123190000Y-85120000D02*
X123840000Y-85120000D01*
X123190000Y-85120000D02*
X122540000Y-85120000D01*
%TO.C,D2*%
X154598000Y-100816000D02*
X156298000Y-100816000D01*
X154598000Y-100816000D02*
X154598000Y-97556000D01*
X156298000Y-100816000D02*
X156298000Y-97556000D01*
%TO.C,Q2*%
X159009257Y-73022843D02*
X157334257Y-73022843D01*
X159009257Y-73022843D02*
X159659257Y-73022843D01*
X159009257Y-76142843D02*
X158359257Y-76142843D01*
X159009257Y-76142843D02*
X159659257Y-76142843D01*
%TO.C,D3*%
X157138000Y-100816000D02*
X158838000Y-100816000D01*
X157138000Y-100816000D02*
X157138000Y-97556000D01*
X158838000Y-100816000D02*
X158838000Y-97556000D01*
%TO.C,R5*%
X123417064Y-90905000D02*
X122962936Y-90905000D01*
X123417064Y-89435000D02*
X122962936Y-89435000D01*
%TO.C,Q1*%
X159009257Y-81319515D02*
X160684257Y-81319515D01*
X159009257Y-81319515D02*
X158359257Y-81319515D01*
X159009257Y-78199515D02*
X159659257Y-78199515D01*
X159009257Y-78199515D02*
X158359257Y-78199515D01*
%TO.C,J1*%
X120554000Y-95498000D02*
X119814000Y-95498000D01*
X119814000Y-95498000D02*
X119814000Y-95998000D01*
X129975000Y-95738000D02*
X120054000Y-95738000D01*
X129975000Y-95738000D02*
X129975000Y-110858000D01*
X127015000Y-95738000D02*
X127015000Y-110858000D01*
X122114000Y-95738000D02*
X122114000Y-110858000D01*
X120614000Y-95738000D02*
X120614000Y-110858000D01*
X120054000Y-95738000D02*
X120054000Y-110858000D01*
X123691000Y-102071000D02*
X123645000Y-102024000D01*
X123475000Y-102264000D02*
X123440000Y-102229000D01*
X125989000Y-104368000D02*
X125953000Y-104333000D01*
X125783000Y-104573000D02*
X125737000Y-104526000D01*
X123691000Y-107071000D02*
X123645000Y-107024000D01*
X123475000Y-107264000D02*
X123440000Y-107229000D01*
X125989000Y-109368000D02*
X125953000Y-109333000D01*
X125783000Y-109573000D02*
X125737000Y-109526000D01*
X129975000Y-110858000D02*
X120054000Y-110858000D01*
X125397999Y-96763001D02*
G75*
G03*
X124030958Y-96762574I-684000J-1534992D01*
G01*
X126248999Y-98981999D02*
G75*
G03*
X126249426Y-97614958I-1534992J684000D01*
G01*
X123179001Y-97614000D02*
G75*
G03*
X123033748Y-98326805I1535000J-683999D01*
G01*
X123034001Y-98298000D02*
G75*
G03*
X123179245Y-98981318I1679999J0D01*
G01*
X124030000Y-99833000D02*
G75*
G03*
X125397042Y-99833426I684000J1535000D01*
G01*
X126394000Y-103298000D02*
G75*
G03*
X126394000Y-103298000I-1680000J0D01*
G01*
X126394000Y-108298000D02*
G75*
G03*
X126394000Y-108298000I-1680000J0D01*
G01*
%TO.C,R4*%
X123417064Y-75665000D02*
X122962936Y-75665000D01*
X123417064Y-74195000D02*
X122962936Y-74195000D01*
%TO.C,R2*%
X123417064Y-79475000D02*
X122962936Y-79475000D01*
X123417064Y-78005000D02*
X122962936Y-78005000D01*
%TO.C,R1*%
X122962936Y-81815000D02*
X123417064Y-81815000D01*
X122962936Y-83285000D02*
X123417064Y-83285000D01*
%TO.C,J2*%
X138878000Y-108391000D02*
X138878000Y-107061000D01*
X140208000Y-108391000D02*
X138878000Y-108391000D01*
X141478000Y-108391000D02*
X164398000Y-108391000D01*
X141478000Y-108391000D02*
X141478000Y-105731000D01*
X164398000Y-108391000D02*
X164398000Y-105731000D01*
X141478000Y-105731000D02*
X164398000Y-105731000D01*
%TD*%
M02*
